<?xml version="1.0" encoding="utf-8" standalone="no"?>
<!DOCTYPE svg PUBLIC "-//W3C//DTD SVG 1.1//EN"
  "http://www.w3.org/Graphics/SVG/1.1/DTD/svg11.dtd">
<!-- Created with matplotlib (https://matplotlib.org/) -->
<svg height="576pt" version="1.1" viewBox="0 0 576 576" width="576pt" xmlns="http://www.w3.org/2000/svg" xmlns:xlink="http://www.w3.org/1999/xlink">
 <metadata>
  <rdf:RDF xmlns:cc="http://creativecommons.org/ns#" xmlns:dc="http://purl.org/dc/elements/1.1/" xmlns:rdf="http://www.w3.org/1999/02/22-rdf-syntax-ns#">
   <cc:Work>
    <dc:type rdf:resource="http://purl.org/dc/dcmitype/StillImage"/>
    <dc:date>2023-01-24T16:51:37.992799</dc:date>
    <dc:format>image/svg+xml</dc:format>
    <dc:creator>
     <cc:Agent>
      <dc:title>Matplotlib v3.3.4, https://matplotlib.org/</dc:title>
     </cc:Agent>
    </dc:creator>
   </cc:Work>
  </rdf:RDF>
 </metadata>
 <defs>
  <style type="text/css">*{stroke-linecap:butt;stroke-linejoin:round;}</style>
 </defs>
 <g id="figure_1">
  <g id="patch_1">
   <path d="M 0 576 
L 576 576 
L 576 0 
L 0 0 
z
" style="fill:#ffffff;"/>
  </g>
  <g id="axes_1">
   <g id="patch_2">
    <path d="M 72 504 
L 518.4 504 
L 518.4 69.12 
L 72 69.12 
z
" style="fill:#ffffff;"/>
   </g>
   <g id="matplotlib.axis_1">
    <g id="xtick_1">
     <g id="text_1">
      <!-- 0 -->
      <g style="fill:#262626;" transform="translate(77.623728 529.384063)scale(0.18 -0.18)">
       <defs>
        <path d="M 4.15625 35.296875 
Q 4.15625 48 6.765625 55.734375 
Q 9.375 63.484375 14.515625 67.671875 
Q 19.671875 71.875 27.484375 71.875 
Q 33.25 71.875 37.59375 69.546875 
Q 41.9375 67.234375 44.765625 62.859375 
Q 47.609375 58.5 49.21875 52.21875 
Q 50.828125 45.953125 50.828125 35.296875 
Q 50.828125 22.703125 48.234375 14.96875 
Q 45.65625 7.234375 40.5 3 
Q 35.359375 -1.21875 27.484375 -1.21875 
Q 17.140625 -1.21875 11.234375 6.203125 
Q 4.15625 15.140625 4.15625 35.296875 
z
M 13.1875 35.296875 
Q 13.1875 17.671875 17.3125 11.828125 
Q 21.4375 6 27.484375 6 
Q 33.546875 6 37.671875 11.859375 
Q 41.796875 17.71875 41.796875 35.296875 
Q 41.796875 52.984375 37.671875 58.78125 
Q 33.546875 64.59375 27.390625 64.59375 
Q 21.34375 64.59375 17.71875 59.46875 
Q 13.1875 52.9375 13.1875 35.296875 
z
" id="ArialMT-48"/>
       </defs>
       <use xlink:href="#ArialMT-48"/>
      </g>
     </g>
    </g>
    <g id="xtick_2">
     <g id="text_2">
      <!-- 10 -->
      <g style="fill:#262626;" transform="translate(178.904598 529.384063)scale(0.18 -0.18)">
       <defs>
        <path d="M 37.25 0 
L 28.46875 0 
L 28.46875 56 
Q 25.296875 52.984375 20.140625 49.953125 
Q 14.984375 46.921875 10.890625 45.40625 
L 10.890625 53.90625 
Q 18.265625 57.375 23.78125 62.296875 
Q 29.296875 67.234375 31.59375 71.875 
L 37.25 71.875 
z
" id="ArialMT-49"/>
       </defs>
       <use xlink:href="#ArialMT-49"/>
       <use x="55.615234" xlink:href="#ArialMT-48"/>
      </g>
     </g>
    </g>
    <g id="xtick_3">
     <g id="text_3">
      <!-- 20 -->
      <g style="fill:#262626;" transform="translate(285.190313 529.384063)scale(0.18 -0.18)">
       <defs>
        <path d="M 50.34375 8.453125 
L 50.34375 0 
L 3.03125 0 
Q 2.9375 3.171875 4.046875 6.109375 
Q 5.859375 10.9375 9.828125 15.625 
Q 13.8125 20.3125 21.34375 26.46875 
Q 33.015625 36.03125 37.109375 41.625 
Q 41.21875 47.21875 41.21875 52.203125 
Q 41.21875 57.421875 37.46875 61 
Q 33.734375 64.59375 27.734375 64.59375 
Q 21.390625 64.59375 17.578125 60.78125 
Q 13.765625 56.984375 13.71875 50.25 
L 4.6875 51.171875 
Q 5.609375 61.28125 11.65625 66.578125 
Q 17.71875 71.875 27.9375 71.875 
Q 38.234375 71.875 44.234375 66.15625 
Q 50.25 60.453125 50.25 52 
Q 50.25 47.703125 48.484375 43.546875 
Q 46.734375 39.40625 42.65625 34.8125 
Q 38.578125 30.21875 29.109375 22.21875 
Q 21.1875 15.578125 18.9375 13.203125 
Q 16.703125 10.84375 15.234375 8.453125 
z
" id="ArialMT-50"/>
       </defs>
       <use xlink:href="#ArialMT-50"/>
       <use x="55.615234" xlink:href="#ArialMT-48"/>
      </g>
     </g>
    </g>
    <g id="xtick_4">
     <g id="text_4">
      <!-- 30 -->
      <g style="fill:#262626;" transform="translate(391.476027 529.384063)scale(0.18 -0.18)">
       <defs>
        <path d="M 4.203125 18.890625 
L 12.984375 20.0625 
Q 14.5 12.59375 18.140625 9.296875 
Q 21.78125 6 27 6 
Q 33.203125 6 37.46875 10.296875 
Q 41.75 14.59375 41.75 20.953125 
Q 41.75 27 37.796875 30.921875 
Q 33.84375 34.859375 27.734375 34.859375 
Q 25.25 34.859375 21.53125 33.890625 
L 22.515625 41.609375 
Q 23.390625 41.5 23.921875 41.5 
Q 29.546875 41.5 34.03125 44.421875 
Q 38.53125 47.359375 38.53125 53.46875 
Q 38.53125 58.296875 35.25 61.46875 
Q 31.984375 64.65625 26.8125 64.65625 
Q 21.6875 64.65625 18.265625 61.421875 
Q 14.84375 58.203125 13.875 51.765625 
L 5.078125 53.328125 
Q 6.6875 62.15625 12.390625 67.015625 
Q 18.109375 71.875 26.609375 71.875 
Q 32.46875 71.875 37.390625 69.359375 
Q 42.328125 66.84375 44.9375 62.5 
Q 47.5625 58.15625 47.5625 53.265625 
Q 47.5625 48.640625 45.0625 44.828125 
Q 42.578125 41.015625 37.703125 38.765625 
Q 44.046875 37.3125 47.5625 32.6875 
Q 51.078125 28.078125 51.078125 21.140625 
Q 51.078125 11.765625 44.234375 5.25 
Q 37.40625 -1.265625 26.953125 -1.265625 
Q 17.53125 -1.265625 11.296875 4.34375 
Q 5.078125 9.96875 4.203125 18.890625 
z
" id="ArialMT-51"/>
       </defs>
       <use xlink:href="#ArialMT-51"/>
       <use x="55.615234" xlink:href="#ArialMT-48"/>
      </g>
     </g>
    </g>
    <g id="xtick_5">
     <g id="text_5">
      <!-- 40 -->
      <g style="fill:#262626;" transform="translate(497.761741 529.384063)scale(0.18 -0.18)">
       <defs>
        <path d="M 32.328125 0 
L 32.328125 17.140625 
L 1.265625 17.140625 
L 1.265625 25.203125 
L 33.9375 71.578125 
L 41.109375 71.578125 
L 41.109375 25.203125 
L 50.78125 25.203125 
L 50.78125 17.140625 
L 41.109375 17.140625 
L 41.109375 0 
z
M 32.328125 25.203125 
L 32.328125 57.46875 
L 9.90625 25.203125 
z
" id="ArialMT-52"/>
       </defs>
       <use xlink:href="#ArialMT-52"/>
       <use x="55.615234" xlink:href="#ArialMT-48"/>
      </g>
     </g>
    </g>
    <g id="text_6">
     <!-- Glucose Uptake Rate$ \left(\frac{mmol}{g_{protein} \cdot hr^{}}\right)$ -->
     <g style="fill:#262626;" transform="translate(132.245 559.501562)scale(0.23 -0.23)">
      <defs>
       <path d="M 41.21875 28.078125 
L 41.21875 36.46875 
L 71.53125 36.53125 
L 71.53125 9.96875 
Q 64.546875 4.390625 57.125 1.578125 
Q 49.703125 -1.21875 41.890625 -1.21875 
Q 31.34375 -1.21875 22.71875 3.296875 
Q 14.109375 7.8125 9.71875 16.359375 
Q 5.328125 24.90625 5.328125 35.453125 
Q 5.328125 45.90625 9.6875 54.953125 
Q 14.0625 64.015625 22.265625 68.40625 
Q 30.46875 72.796875 41.15625 72.796875 
Q 48.921875 72.796875 55.1875 70.28125 
Q 61.46875 67.78125 65.03125 63.28125 
Q 68.609375 58.796875 70.453125 51.5625 
L 61.921875 49.21875 
Q 60.296875 54.6875 57.90625 57.8125 
Q 55.515625 60.9375 51.0625 62.8125 
Q 46.625 64.703125 41.21875 64.703125 
Q 34.71875 64.703125 29.984375 62.71875 
Q 25.25 60.75 22.34375 57.515625 
Q 19.4375 54.296875 17.828125 50.4375 
Q 15.09375 43.796875 15.09375 36.03125 
Q 15.09375 26.46875 18.390625 20.015625 
Q 21.6875 13.578125 27.984375 10.453125 
Q 34.28125 7.328125 41.359375 7.328125 
Q 47.515625 7.328125 53.375 9.6875 
Q 59.234375 12.0625 62.25 14.75 
L 62.25 28.078125 
z
" id="ArialMT-71"/>
       <path d="M 6.390625 0 
L 6.390625 71.578125 
L 15.1875 71.578125 
L 15.1875 0 
z
" id="ArialMT-108"/>
       <path d="M 40.578125 0 
L 40.578125 7.625 
Q 34.515625 -1.171875 24.125 -1.171875 
Q 19.53125 -1.171875 15.546875 0.578125 
Q 11.578125 2.34375 9.640625 5 
Q 7.71875 7.671875 6.9375 11.53125 
Q 6.390625 14.109375 6.390625 19.734375 
L 6.390625 51.859375 
L 15.1875 51.859375 
L 15.1875 23.09375 
Q 15.1875 16.21875 15.71875 13.8125 
Q 16.546875 10.359375 19.234375 8.375 
Q 21.921875 6.390625 25.875 6.390625 
Q 29.828125 6.390625 33.296875 8.421875 
Q 36.765625 10.453125 38.203125 13.9375 
Q 39.65625 17.4375 39.65625 24.078125 
L 39.65625 51.859375 
L 48.4375 51.859375 
L 48.4375 0 
z
" id="ArialMT-117"/>
       <path d="M 40.4375 19 
L 49.078125 17.875 
Q 47.65625 8.9375 41.8125 3.875 
Q 35.984375 -1.171875 27.484375 -1.171875 
Q 16.84375 -1.171875 10.375 5.78125 
Q 3.90625 12.75 3.90625 25.734375 
Q 3.90625 34.125 6.6875 40.421875 
Q 9.46875 46.734375 15.15625 49.875 
Q 20.84375 53.03125 27.546875 53.03125 
Q 35.984375 53.03125 41.359375 48.75 
Q 46.734375 44.484375 48.25 36.625 
L 39.703125 35.296875 
Q 38.484375 40.53125 35.375 43.15625 
Q 32.28125 45.796875 27.875 45.796875 
Q 21.234375 45.796875 17.078125 41.03125 
Q 12.9375 36.28125 12.9375 25.984375 
Q 12.9375 15.53125 16.9375 10.796875 
Q 20.953125 6.0625 27.390625 6.0625 
Q 32.5625 6.0625 36.03125 9.234375 
Q 39.5 12.40625 40.4375 19 
z
" id="ArialMT-99"/>
       <path d="M 3.328125 25.921875 
Q 3.328125 40.328125 11.328125 47.265625 
Q 18.015625 53.03125 27.640625 53.03125 
Q 38.328125 53.03125 45.109375 46.015625 
Q 51.90625 39.015625 51.90625 26.65625 
Q 51.90625 16.65625 48.90625 10.90625 
Q 45.90625 5.171875 40.15625 2 
Q 34.421875 -1.171875 27.640625 -1.171875 
Q 16.75 -1.171875 10.03125 5.8125 
Q 3.328125 12.796875 3.328125 25.921875 
z
M 12.359375 25.921875 
Q 12.359375 15.96875 16.703125 11.015625 
Q 21.046875 6.0625 27.640625 6.0625 
Q 34.1875 6.0625 38.53125 11.03125 
Q 42.875 16.015625 42.875 26.21875 
Q 42.875 35.84375 38.5 40.796875 
Q 34.125 45.75 27.640625 45.75 
Q 21.046875 45.75 16.703125 40.8125 
Q 12.359375 35.890625 12.359375 25.921875 
z
" id="ArialMT-111"/>
       <path d="M 3.078125 15.484375 
L 11.765625 16.84375 
Q 12.5 11.625 15.84375 8.84375 
Q 19.1875 6.0625 25.203125 6.0625 
Q 31.25 6.0625 34.171875 8.515625 
Q 37.109375 10.984375 37.109375 14.3125 
Q 37.109375 17.28125 34.515625 19 
Q 32.71875 20.171875 25.53125 21.96875 
Q 15.875 24.421875 12.140625 26.203125 
Q 8.40625 27.984375 6.46875 31.125 
Q 4.546875 34.28125 4.546875 38.09375 
Q 4.546875 41.546875 6.125 44.5 
Q 7.71875 47.46875 10.453125 49.421875 
Q 12.5 50.921875 16.03125 51.96875 
Q 19.578125 53.03125 23.640625 53.03125 
Q 29.734375 53.03125 34.34375 51.265625 
Q 38.96875 49.515625 41.15625 46.5 
Q 43.359375 43.5 44.1875 38.484375 
L 35.59375 37.3125 
Q 35.015625 41.3125 32.203125 43.546875 
Q 29.390625 45.796875 24.265625 45.796875 
Q 18.21875 45.796875 15.625 43.796875 
Q 13.03125 41.796875 13.03125 39.109375 
Q 13.03125 37.40625 14.109375 36.03125 
Q 15.1875 34.625 17.484375 33.6875 
Q 18.796875 33.203125 25.25 31.453125 
Q 34.578125 28.953125 38.25 27.359375 
Q 41.9375 25.78125 44.03125 22.75 
Q 46.140625 19.734375 46.140625 15.234375 
Q 46.140625 10.84375 43.578125 6.953125 
Q 41.015625 3.078125 36.171875 0.953125 
Q 31.34375 -1.171875 25.25 -1.171875 
Q 15.140625 -1.171875 9.84375 3.03125 
Q 4.546875 7.234375 3.078125 15.484375 
z
" id="ArialMT-115"/>
       <path d="M 42.09375 16.703125 
L 51.171875 15.578125 
Q 49.03125 7.625 43.21875 3.21875 
Q 37.40625 -1.171875 28.375 -1.171875 
Q 17 -1.171875 10.328125 5.828125 
Q 3.65625 12.84375 3.65625 25.484375 
Q 3.65625 38.578125 10.390625 45.796875 
Q 17.140625 53.03125 27.875 53.03125 
Q 38.28125 53.03125 44.875 45.953125 
Q 51.46875 38.875 51.46875 26.03125 
Q 51.46875 25.25 51.421875 23.6875 
L 12.75 23.6875 
Q 13.234375 15.140625 17.578125 10.59375 
Q 21.921875 6.0625 28.421875 6.0625 
Q 33.25 6.0625 36.671875 8.59375 
Q 40.09375 11.140625 42.09375 16.703125 
z
M 13.234375 30.90625 
L 42.1875 30.90625 
Q 41.609375 37.453125 38.875 40.71875 
Q 34.671875 45.796875 27.984375 45.796875 
Q 21.921875 45.796875 17.796875 41.75 
Q 13.671875 37.703125 13.234375 30.90625 
z
" id="ArialMT-101"/>
       <path id="ArialMT-32"/>
       <path d="M 54.6875 71.578125 
L 64.15625 71.578125 
L 64.15625 30.21875 
Q 64.15625 19.4375 61.71875 13.078125 
Q 59.28125 6.734375 52.90625 2.75 
Q 46.53125 -1.21875 36.1875 -1.21875 
Q 26.125 -1.21875 19.71875 2.25 
Q 13.328125 5.71875 10.59375 12.28125 
Q 7.859375 18.84375 7.859375 30.21875 
L 7.859375 71.578125 
L 17.328125 71.578125 
L 17.328125 30.28125 
Q 17.328125 20.953125 19.0625 16.53125 
Q 20.796875 12.109375 25.015625 9.71875 
Q 29.25 7.328125 35.359375 7.328125 
Q 45.796875 7.328125 50.234375 12.0625 
Q 54.6875 16.796875 54.6875 30.28125 
z
" id="ArialMT-85"/>
       <path d="M 6.59375 -19.875 
L 6.59375 51.859375 
L 14.59375 51.859375 
L 14.59375 45.125 
Q 17.4375 49.078125 21 51.046875 
Q 24.5625 53.03125 29.640625 53.03125 
Q 36.28125 53.03125 41.359375 49.609375 
Q 46.4375 46.1875 49.015625 39.953125 
Q 51.609375 33.734375 51.609375 26.3125 
Q 51.609375 18.359375 48.75 11.984375 
Q 45.90625 5.609375 40.453125 2.21875 
Q 35.015625 -1.171875 29 -1.171875 
Q 24.609375 -1.171875 21.109375 0.6875 
Q 17.625 2.546875 15.375 5.375 
L 15.375 -19.875 
z
M 14.546875 25.640625 
Q 14.546875 15.625 18.59375 10.84375 
Q 22.65625 6.0625 28.421875 6.0625 
Q 34.28125 6.0625 38.453125 11.015625 
Q 42.625 15.96875 42.625 26.375 
Q 42.625 36.28125 38.546875 41.203125 
Q 34.46875 46.140625 28.8125 46.140625 
Q 23.1875 46.140625 18.859375 40.890625 
Q 14.546875 35.640625 14.546875 25.640625 
z
" id="ArialMT-112"/>
       <path d="M 25.78125 7.859375 
L 27.046875 0.09375 
Q 23.34375 -0.6875 20.40625 -0.6875 
Q 15.625 -0.6875 12.984375 0.828125 
Q 10.359375 2.34375 9.28125 4.8125 
Q 8.203125 7.28125 8.203125 15.1875 
L 8.203125 45.015625 
L 1.765625 45.015625 
L 1.765625 51.859375 
L 8.203125 51.859375 
L 8.203125 64.703125 
L 16.9375 69.96875 
L 16.9375 51.859375 
L 25.78125 51.859375 
L 25.78125 45.015625 
L 16.9375 45.015625 
L 16.9375 14.703125 
Q 16.9375 10.9375 17.40625 9.859375 
Q 17.875 8.796875 18.921875 8.15625 
Q 19.96875 7.515625 21.921875 7.515625 
Q 23.390625 7.515625 25.78125 7.859375 
z
" id="ArialMT-116"/>
       <path d="M 40.4375 6.390625 
Q 35.546875 2.25 31.03125 0.53125 
Q 26.515625 -1.171875 21.34375 -1.171875 
Q 12.796875 -1.171875 8.203125 3 
Q 3.609375 7.171875 3.609375 13.671875 
Q 3.609375 17.484375 5.34375 20.625 
Q 7.078125 23.78125 9.890625 25.6875 
Q 12.703125 27.59375 16.21875 28.5625 
Q 18.796875 29.25 24.03125 29.890625 
Q 34.671875 31.15625 39.703125 32.90625 
Q 39.75 34.71875 39.75 35.203125 
Q 39.75 40.578125 37.25 42.78125 
Q 33.890625 45.75 27.25 45.75 
Q 21.046875 45.75 18.09375 43.578125 
Q 15.140625 41.40625 13.71875 35.890625 
L 5.125 37.0625 
Q 6.296875 42.578125 8.984375 45.96875 
Q 11.671875 49.359375 16.75 51.1875 
Q 21.828125 53.03125 28.515625 53.03125 
Q 35.15625 53.03125 39.296875 51.46875 
Q 43.453125 49.90625 45.40625 47.53125 
Q 47.359375 45.171875 48.140625 41.546875 
Q 48.578125 39.3125 48.578125 33.453125 
L 48.578125 21.734375 
Q 48.578125 9.46875 49.140625 6.21875 
Q 49.703125 2.984375 51.375 0 
L 42.1875 0 
Q 40.828125 2.734375 40.4375 6.390625 
z
M 39.703125 26.03125 
Q 34.90625 24.078125 25.34375 22.703125 
Q 19.921875 21.921875 17.671875 20.9375 
Q 15.4375 19.96875 14.203125 18.09375 
Q 12.984375 16.21875 12.984375 13.921875 
Q 12.984375 10.40625 15.640625 8.0625 
Q 18.3125 5.71875 23.4375 5.71875 
Q 28.515625 5.71875 32.46875 7.9375 
Q 36.421875 10.15625 38.28125 14.015625 
Q 39.703125 17 39.703125 22.796875 
z
" id="ArialMT-97"/>
       <path d="M 6.640625 0 
L 6.640625 71.578125 
L 15.4375 71.578125 
L 15.4375 30.765625 
L 36.234375 51.859375 
L 47.609375 51.859375 
L 27.78125 32.625 
L 49.609375 0 
L 38.765625 0 
L 21.625 26.515625 
L 15.4375 20.5625 
L 15.4375 0 
z
" id="ArialMT-107"/>
       <path d="M 7.859375 0 
L 7.859375 71.578125 
L 39.59375 71.578125 
Q 49.171875 71.578125 54.140625 69.640625 
Q 59.125 67.71875 62.109375 62.828125 
Q 65.09375 57.953125 65.09375 52.046875 
Q 65.09375 44.4375 60.15625 39.203125 
Q 55.21875 33.984375 44.921875 32.5625 
Q 48.6875 30.765625 50.640625 29 
Q 54.78125 25.203125 58.5 19.484375 
L 70.953125 0 
L 59.03125 0 
L 49.5625 14.890625 
Q 45.40625 21.34375 42.71875 24.75 
Q 40.046875 28.171875 37.921875 29.53125 
Q 35.796875 30.90625 33.59375 31.453125 
Q 31.984375 31.78125 28.328125 31.78125 
L 17.328125 31.78125 
L 17.328125 0 
z
M 17.328125 39.984375 
L 37.703125 39.984375 
Q 44.1875 39.984375 47.84375 41.328125 
Q 51.515625 42.671875 53.421875 45.625 
Q 55.328125 48.578125 55.328125 52.046875 
Q 55.328125 57.125 51.640625 60.390625 
Q 47.953125 63.671875 39.984375 63.671875 
L 17.328125 63.671875 
z
" id="ArialMT-82"/>
       <path d="M 50.296875 -24.296875 
L 50.296875 -27.90625 
Q 33.5 -12.09375 23.703125 11.40625 
Q 13.90625 34.90625 13.90625 64.296875 
Q 13.90625 93.796875 23.953125 118.640625 
Q 34 143.5 50.296875 156.59375 
L 50.296875 153.296875 
Q 38.90625 141.59375 31.15625 118.84375 
Q 23.40625 96.09375 23.40625 64.296875 
Q 23.40625 8.796875 50.296875 -24.296875 
z
" id="STIXSizeTwoSym-Regular-40"/>
       <path d="M 89.796875 33.015625 
L 83.40625 0 
L 74.421875 0 
L 80.71875 32.71875 
Q 81.109375 34.8125 81.296875 36.328125 
Q 81.5 37.84375 81.5 38.921875 
Q 81.5 43.3125 79.046875 45.75 
Q 76.609375 48.1875 72.21875 48.1875 
Q 65.671875 48.1875 60.546875 43.28125 
Q 55.421875 38.375 53.90625 30.515625 
L 47.90625 0 
L 38.921875 0 
L 45.3125 32.71875 
Q 45.703125 34.515625 45.890625 36.046875 
Q 46.09375 37.59375 46.09375 38.8125 
Q 46.09375 43.265625 43.65625 45.71875 
Q 41.21875 48.1875 36.921875 48.1875 
Q 30.28125 48.1875 25.140625 43.28125 
Q 20.015625 38.375 18.5 30.515625 
L 12.5 0 
L 3.515625 0 
L 14.203125 54.6875 
L 23.1875 54.6875 
L 21.484375 46.1875 
Q 25.140625 50.984375 30.046875 53.484375 
Q 34.96875 56 40.578125 56 
Q 46.53125 56 50.359375 52.875 
Q 54.203125 49.75 54.984375 44.1875 
Q 59.078125 49.953125 64.46875 52.96875 
Q 69.875 56 75.875 56 
Q 82.90625 56 86.734375 51.953125 
Q 90.578125 47.90625 90.578125 40.484375 
Q 90.578125 38.875 90.375 36.9375 
Q 90.1875 35.015625 89.796875 33.015625 
z
" id="DejaVuSans-Oblique-109"/>
       <path d="M 25.390625 -1.421875 
Q 15.765625 -1.421875 10.171875 4.515625 
Q 4.59375 10.453125 4.59375 20.703125 
Q 4.59375 26.65625 6.515625 32.828125 
Q 8.453125 39.015625 11.53125 43.21875 
Q 16.359375 49.75 22.3125 52.875 
Q 28.265625 56 35.796875 56 
Q 45.125 56 50.859375 50.1875 
Q 56.59375 44.390625 56.59375 35.015625 
Q 56.59375 28.515625 54.6875 22.0625 
Q 52.78125 15.625 49.703125 11.375 
Q 44.921875 4.828125 38.96875 1.703125 
Q 33.015625 -1.421875 25.390625 -1.421875 
z
M 13.921875 21 
Q 13.921875 13.578125 17.015625 9.890625 
Q 20.125 6.203125 26.421875 6.203125 
Q 35.453125 6.203125 41.375 14.078125 
Q 47.3125 21.96875 47.3125 34.078125 
Q 47.3125 41.15625 44.140625 44.765625 
Q 40.96875 48.390625 34.8125 48.390625 
Q 29.734375 48.390625 25.78125 46.015625 
Q 21.828125 43.65625 18.703125 38.8125 
Q 16.40625 35.203125 15.15625 30.5625 
Q 13.921875 25.921875 13.921875 21 
z
" id="DejaVuSans-Oblique-111"/>
       <path d="M 18.3125 75.984375 
L 27.296875 75.984375 
L 12.5 0 
L 3.515625 0 
z
" id="DejaVuSans-Oblique-108"/>
       <path d="M 59.625 54.6875 
L 50.296875 6.78125 
Q 47.609375 -7.125 40.015625 -13.953125 
Q 32.421875 -20.796875 19.578125 -20.796875 
Q 14.84375 -20.796875 10.78125 -20.09375 
Q 6.734375 -19.390625 3.21875 -17.921875 
L 4.890625 -9.1875 
Q 8.203125 -11.328125 11.90625 -12.34375 
Q 15.625 -13.375 19.828125 -13.375 
Q 28.375 -13.375 33.859375 -8.703125 
Q 39.359375 -4.046875 41.109375 4.6875 
L 41.890625 8.796875 
Q 38.140625 4.5 33.15625 2.25 
Q 28.171875 0 22.40625 0 
Q 14.109375 0 9.34375 5.484375 
Q 4.59375 10.984375 4.59375 20.609375 
Q 4.59375 28.171875 7.46875 35.421875 
Q 10.359375 42.671875 15.578125 48.296875 
Q 19.046875 52 23.65625 54 
Q 28.265625 56 33.296875 56 
Q 38.8125 56 42.90625 53.4375 
Q 47.015625 50.875 49.03125 46.1875 
L 50.59375 54.6875 
z
M 46.09375 34.625 
Q 46.09375 41.265625 42.96875 44.875 
Q 39.84375 48.484375 34.078125 48.484375 
Q 30.515625 48.484375 27.296875 47.0625 
Q 24.078125 45.65625 21.78125 43.109375 
Q 18.0625 38.921875 15.984375 33.234375 
Q 13.921875 27.546875 13.921875 21.484375 
Q 13.921875 14.75 17.0625 11.125 
Q 20.21875 7.515625 26.125 7.515625 
Q 34.671875 7.515625 40.375 15.25 
Q 46.09375 23 46.09375 34.625 
z
" id="DejaVuSans-Oblique-103"/>
       <path d="M 49.609375 33.6875 
Q 49.609375 40.875 46.484375 44.671875 
Q 43.359375 48.484375 37.5 48.484375 
Q 33.5 48.484375 29.859375 46.4375 
Q 26.21875 44.390625 23.390625 40.484375 
Q 20.609375 36.625 18.9375 31.15625 
Q 17.28125 25.6875 17.28125 20.3125 
Q 17.28125 13.484375 20.40625 9.796875 
Q 23.53125 6.109375 29.296875 6.109375 
Q 33.546875 6.109375 37.1875 8.109375 
Q 40.828125 10.109375 43.40625 13.921875 
Q 46.1875 17.921875 47.890625 23.34375 
Q 49.609375 28.765625 49.609375 33.6875 
z
M 21.78125 46.390625 
Q 25.390625 51.125 30.296875 53.5625 
Q 35.203125 56 41.21875 56 
Q 49.609375 56 54.25 50.5 
Q 58.890625 45.015625 58.890625 35.109375 
Q 58.890625 27 56 19.65625 
Q 53.125 12.3125 47.703125 6.5 
Q 44.09375 2.640625 39.546875 0.609375 
Q 35.015625 -1.421875 29.984375 -1.421875 
Q 24.171875 -1.421875 20.21875 1 
Q 16.265625 3.421875 14.3125 8.203125 
L 8.6875 -20.796875 
L -0.296875 -20.796875 
L 14.40625 54.6875 
L 23.390625 54.6875 
z
" id="DejaVuSans-Oblique-112"/>
       <path d="M 44.578125 46.390625 
Q 43.21875 47.125 41.453125 47.515625 
Q 39.703125 47.90625 37.703125 47.90625 
Q 30.515625 47.90625 25.140625 42.453125 
Q 19.78125 37.015625 18.015625 27.875 
L 12.5 0 
L 3.515625 0 
L 14.203125 54.6875 
L 23.1875 54.6875 
L 21.484375 46.1875 
Q 25.046875 50.921875 30 53.453125 
Q 34.96875 56 40.578125 56 
Q 42.046875 56 43.453125 55.828125 
Q 44.875 55.671875 46.296875 55.28125 
z
" id="DejaVuSans-Oblique-114"/>
       <path d="M 42.28125 54.6875 
L 40.921875 47.703125 
L 23 47.703125 
L 17.1875 18.015625 
Q 16.890625 16.359375 16.75 15.234375 
Q 16.609375 14.109375 16.609375 13.484375 
Q 16.609375 10.359375 18.484375 8.9375 
Q 20.359375 7.515625 24.515625 7.515625 
L 33.59375 7.515625 
L 32.078125 0 
L 23.484375 0 
Q 15.484375 0 11.546875 3.125 
Q 7.625 6.25 7.625 12.59375 
Q 7.625 13.71875 7.765625 15.0625 
Q 7.90625 16.40625 8.203125 18.015625 
L 14.015625 47.703125 
L 6.390625 47.703125 
L 7.8125 54.6875 
L 15.28125 54.6875 
L 18.3125 70.21875 
L 27.296875 70.21875 
L 24.3125 54.6875 
z
" id="DejaVuSans-Oblique-116"/>
       <path d="M 48.09375 32.234375 
Q 48.25 33.015625 48.3125 33.84375 
Q 48.390625 34.671875 48.390625 35.5 
Q 48.390625 41.453125 44.890625 44.921875 
Q 41.40625 48.390625 35.40625 48.390625 
Q 28.71875 48.390625 23.578125 44.15625 
Q 18.453125 39.9375 15.828125 32.171875 
z
M 55.90625 25.203125 
L 14.109375 25.203125 
Q 13.8125 23.34375 13.71875 22.265625 
Q 13.625 21.1875 13.625 20.40625 
Q 13.625 13.625 17.796875 9.90625 
Q 21.96875 6.203125 29.59375 6.203125 
Q 35.453125 6.203125 40.671875 7.515625 
Q 45.90625 8.84375 50.390625 11.375 
L 48.6875 2.484375 
Q 43.84375 0.53125 38.6875 -0.4375 
Q 33.546875 -1.421875 28.21875 -1.421875 
Q 16.84375 -1.421875 10.71875 4.015625 
Q 4.59375 9.46875 4.59375 19.484375 
Q 4.59375 28.03125 7.640625 35.375 
Q 10.6875 42.71875 16.609375 48.484375 
Q 20.40625 52.09375 25.65625 54.046875 
Q 30.90625 56 36.8125 56 
Q 46.09375 56 51.578125 50.4375 
Q 57.078125 44.875 57.078125 35.5 
Q 57.078125 33.25 56.78125 30.6875 
Q 56.5 28.125 55.90625 25.203125 
z
" id="DejaVuSans-Oblique-101"/>
       <path d="M 18.3125 75.984375 
L 27.296875 75.984375 
L 25.09375 64.59375 
L 16.109375 64.59375 
z
M 14.203125 54.6875 
L 23.1875 54.6875 
L 12.5 0 
L 3.515625 0 
z
" id="DejaVuSans-Oblique-105"/>
       <path d="M 55.71875 33.015625 
L 49.3125 0 
L 40.28125 0 
L 46.6875 32.671875 
Q 47.125 34.96875 47.359375 36.71875 
Q 47.609375 38.484375 47.609375 39.5 
Q 47.609375 43.609375 45.015625 45.890625 
Q 42.4375 48.1875 37.796875 48.1875 
Q 30.5625 48.1875 25.34375 43.375 
Q 20.125 38.578125 18.5 30.328125 
L 12.5 0 
L 3.515625 0 
L 14.109375 54.6875 
L 23.09375 54.6875 
L 21.296875 46.09375 
Q 25.046875 50.828125 30.3125 53.40625 
Q 35.59375 56 41.40625 56 
Q 48.640625 56 52.609375 52.09375 
Q 56.59375 48.1875 56.59375 41.109375 
Q 56.59375 39.359375 56.375 37.359375 
Q 56.15625 35.359375 55.71875 33.015625 
z
" id="DejaVuSans-Oblique-110"/>
       <path d="M 10.6875 40.921875 
L 21 40.921875 
L 21 28.515625 
L 10.6875 28.515625 
z
" id="DejaVuSans-8901"/>
       <path d="M 55.71875 33.015625 
L 49.3125 0 
L 40.28125 0 
L 46.6875 32.671875 
Q 47.125 34.96875 47.359375 36.71875 
Q 47.609375 38.484375 47.609375 39.5 
Q 47.609375 43.609375 45.015625 45.890625 
Q 42.4375 48.1875 37.796875 48.1875 
Q 30.5625 48.1875 25.265625 43.296875 
Q 19.96875 38.421875 18.40625 30.328125 
L 12.5 0 
L 3.515625 0 
L 18.3125 75.984375 
L 27.296875 75.984375 
L 21.484375 46.09375 
Q 24.90625 50.6875 30.21875 53.34375 
Q 35.546875 56 41.40625 56 
Q 48.640625 56 52.609375 52.09375 
Q 56.59375 48.1875 56.59375 41.109375 
Q 56.59375 39.359375 56.375 37.359375 
Q 56.15625 35.359375 55.71875 33.015625 
z
" id="DejaVuSans-Oblique-104"/>
       <path d="M 11.40625 153 
L 11.40625 156.59375 
Q 28.203125 140.796875 38 117.296875 
Q 47.796875 93.796875 47.796875 64.296875 
Q 47.796875 34.90625 37.75 10.046875 
Q 27.703125 -14.796875 11.40625 -27.90625 
L 11.40625 -24.59375 
Q 22.796875 -12.90625 30.546875 9.890625 
Q 38.296875 32.703125 38.296875 64.296875 
Q 38.296875 119.90625 11.40625 153 
z
" id="STIXSizeTwoSym-Regular-41"/>
      </defs>
      <use transform="translate(0 0.01875)" xlink:href="#ArialMT-71"/>
      <use transform="translate(77.783203 0.01875)" xlink:href="#ArialMT-108"/>
      <use transform="translate(100 0.01875)" xlink:href="#ArialMT-117"/>
      <use transform="translate(155.615234 0.01875)" xlink:href="#ArialMT-99"/>
      <use transform="translate(205.615234 0.01875)" xlink:href="#ArialMT-111"/>
      <use transform="translate(261.230469 0.01875)" xlink:href="#ArialMT-115"/>
      <use transform="translate(311.230469 0.01875)" xlink:href="#ArialMT-101"/>
      <use transform="translate(366.845703 0.01875)" xlink:href="#ArialMT-32"/>
      <use transform="translate(394.628906 0.01875)" xlink:href="#ArialMT-85"/>
      <use transform="translate(466.845703 0.01875)" xlink:href="#ArialMT-112"/>
      <use transform="translate(522.460938 0.01875)" xlink:href="#ArialMT-116"/>
      <use transform="translate(550.244141 0.01875)" xlink:href="#ArialMT-97"/>
      <use transform="translate(605.859375 0.01875)" xlink:href="#ArialMT-107"/>
      <use transform="translate(655.859375 0.01875)" xlink:href="#ArialMT-101"/>
      <use transform="translate(711.474609 0.01875)" xlink:href="#ArialMT-32"/>
      <use transform="translate(739.257812 0.01875)" xlink:href="#ArialMT-82"/>
      <use transform="translate(811.474609 0.01875)" xlink:href="#ArialMT-97"/>
      <use transform="translate(867.089844 0.01875)" xlink:href="#ArialMT-116"/>
      <use transform="translate(894.873047 0.01875)" xlink:href="#ArialMT-101"/>
      <use transform="translate(950.488281 -38.063906)scale(0.868825)" xlink:href="#STIXSizeTwoSym-Regular-40"/>
      <use transform="translate(1076.657639 44.810938)scale(0.7)" xlink:href="#DejaVuSans-Oblique-109"/>
      <use transform="translate(1144.846115 44.810938)scale(0.7)" xlink:href="#DejaVuSans-Oblique-109"/>
      <use transform="translate(1213.034592 44.810938)scale(0.7)" xlink:href="#DejaVuSans-Oblique-111"/>
      <use transform="translate(1255.86174 44.810938)scale(0.7)" xlink:href="#DejaVuSans-Oblique-108"/>
      <use transform="translate(1001.657639 -40.623437)scale(0.7)" xlink:href="#DejaVuSans-Oblique-103"/>
      <use transform="translate(1046.091232 -52.107812)scale(0.49)" xlink:href="#DejaVuSans-Oblique-112"/>
      <use transform="translate(1077.194748 -52.107812)scale(0.49)" xlink:href="#DejaVuSans-Oblique-114"/>
      <use transform="translate(1097.340256 -52.107812)scale(0.49)" xlink:href="#DejaVuSans-Oblique-111"/>
      <use transform="translate(1127.31926 -52.107812)scale(0.49)" xlink:href="#DejaVuSans-Oblique-116"/>
      <use transform="translate(1146.531662 -52.107812)scale(0.49)" xlink:href="#DejaVuSans-Oblique-101"/>
      <use transform="translate(1176.678146 -52.107812)scale(0.49)" xlink:href="#DejaVuSans-Oblique-105"/>
      <use transform="translate(1190.291916 -52.107812)scale(0.49)" xlink:href="#DejaVuSans-Oblique-110"/>
      <use transform="translate(1236.899338 -40.623437)scale(0.7)" xlink:href="#DejaVuSans-8901"/>
      <use transform="translate(1272.78801 -40.623437)scale(0.7)" xlink:href="#DejaVuSans-Oblique-104"/>
      <use transform="translate(1317.153244 -40.623437)scale(0.7)" xlink:href="#DejaVuSans-Oblique-114"/>
      <use transform="translate(1363.60153 -38.063906)scale(0.868825)" xlink:href="#STIXSizeTwoSym-Regular-41"/>
      <path d="M 1001.657639 18.815625 
L 1001.657639 25.065625 
L 1351.10153 25.065625 
L 1351.10153 18.815625 
L 1001.657639 18.815625 
z
"/>
     </g>
    </g>
   </g>
   <g id="matplotlib.axis_2">
    <g id="ytick_1">
     <g id="text_7">
      <!-- 0 -->
      <g style="fill:#262626;" transform="translate(49.490313 490.674759)scale(0.18 -0.18)">
       <use xlink:href="#ArialMT-48"/>
      </g>
     </g>
    </g>
    <g id="ytick_2">
     <g id="text_8">
      <!-- 20 -->
      <g style="fill:#262626;" transform="translate(39.480625 394.189222)scale(0.18 -0.18)">
       <use xlink:href="#ArialMT-50"/>
       <use x="55.615234" xlink:href="#ArialMT-48"/>
      </g>
     </g>
    </g>
    <g id="ytick_3">
     <g id="text_9">
      <!-- 40 -->
      <g style="fill:#262626;" transform="translate(39.480625 297.703686)scale(0.18 -0.18)">
       <use xlink:href="#ArialMT-52"/>
       <use x="55.615234" xlink:href="#ArialMT-48"/>
      </g>
     </g>
    </g>
    <g id="ytick_4">
     <g id="text_10">
      <!-- 60 -->
      <g style="fill:#262626;" transform="translate(39.480625 201.21815)scale(0.18 -0.18)">
       <defs>
        <path d="M 49.75 54.046875 
L 41.015625 53.375 
Q 39.84375 58.546875 37.703125 60.890625 
Q 34.125 64.65625 28.90625 64.65625 
Q 24.703125 64.65625 21.53125 62.3125 
Q 17.390625 59.28125 14.984375 53.46875 
Q 12.59375 47.65625 12.5 36.921875 
Q 15.671875 41.75 20.265625 44.09375 
Q 24.859375 46.4375 29.890625 46.4375 
Q 38.671875 46.4375 44.84375 39.96875 
Q 51.03125 33.5 51.03125 23.25 
Q 51.03125 16.5 48.125 10.71875 
Q 45.21875 4.9375 40.140625 1.859375 
Q 35.0625 -1.21875 28.609375 -1.21875 
Q 17.625 -1.21875 10.6875 6.859375 
Q 3.765625 14.9375 3.765625 33.5 
Q 3.765625 54.25 11.421875 63.671875 
Q 18.109375 71.875 29.4375 71.875 
Q 37.890625 71.875 43.28125 67.140625 
Q 48.6875 62.40625 49.75 54.046875 
z
M 13.875 23.1875 
Q 13.875 18.65625 15.796875 14.5 
Q 17.71875 10.359375 21.1875 8.171875 
Q 24.65625 6 28.46875 6 
Q 34.03125 6 38.03125 10.484375 
Q 42.046875 14.984375 42.046875 22.703125 
Q 42.046875 30.125 38.078125 34.390625 
Q 34.125 38.671875 28.125 38.671875 
Q 22.171875 38.671875 18.015625 34.390625 
Q 13.875 30.125 13.875 23.1875 
z
" id="ArialMT-54"/>
       </defs>
       <use xlink:href="#ArialMT-54"/>
       <use x="55.615234" xlink:href="#ArialMT-48"/>
      </g>
     </g>
    </g>
    <g id="ytick_5">
     <g id="text_11">
      <!-- 80 -->
      <g style="fill:#262626;" transform="translate(39.480625 104.732614)scale(0.18 -0.18)">
       <defs>
        <path d="M 17.671875 38.8125 
Q 12.203125 40.828125 9.5625 44.53125 
Q 6.9375 48.25 6.9375 53.421875 
Q 6.9375 61.234375 12.546875 66.546875 
Q 18.171875 71.875 27.484375 71.875 
Q 36.859375 71.875 42.578125 66.421875 
Q 48.296875 60.984375 48.296875 53.171875 
Q 48.296875 48.1875 45.671875 44.5 
Q 43.0625 40.828125 37.75 38.8125 
Q 44.34375 36.671875 47.78125 31.875 
Q 51.21875 27.09375 51.21875 20.453125 
Q 51.21875 11.28125 44.71875 5.03125 
Q 38.234375 -1.21875 27.640625 -1.21875 
Q 17.046875 -1.21875 10.546875 5.046875 
Q 4.046875 11.328125 4.046875 20.703125 
Q 4.046875 27.6875 7.59375 32.390625 
Q 11.140625 37.109375 17.671875 38.8125 
z
M 15.921875 53.71875 
Q 15.921875 48.640625 19.1875 45.40625 
Q 22.46875 42.1875 27.6875 42.1875 
Q 32.765625 42.1875 36.015625 45.375 
Q 39.265625 48.578125 39.265625 53.21875 
Q 39.265625 58.0625 35.90625 61.359375 
Q 32.5625 64.65625 27.59375 64.65625 
Q 22.5625 64.65625 19.234375 61.421875 
Q 15.921875 58.203125 15.921875 53.71875 
z
M 13.09375 20.65625 
Q 13.09375 16.890625 14.875 13.375 
Q 16.65625 9.859375 20.171875 7.921875 
Q 23.6875 6 27.734375 6 
Q 34.03125 6 38.125 10.046875 
Q 42.234375 14.109375 42.234375 20.359375 
Q 42.234375 26.703125 38.015625 30.859375 
Q 33.796875 35.015625 27.4375 35.015625 
Q 21.234375 35.015625 17.15625 30.90625 
Q 13.09375 26.8125 13.09375 20.65625 
z
" id="ArialMT-56"/>
       </defs>
       <use xlink:href="#ArialMT-56"/>
       <use x="55.615234" xlink:href="#ArialMT-48"/>
      </g>
     </g>
    </g>
    <g id="text_12">
     <!-- Ethanol Production Rate$ \left(\frac{mmol}{g_{protein} \cdot hr^{}}\right)$ -->
     <g style="fill:#262626;" transform="translate(20.990625 464.81)rotate(-90)scale(0.23 -0.23)">
      <defs>
       <path d="M 7.90625 0 
L 7.90625 71.578125 
L 59.671875 71.578125 
L 59.671875 63.140625 
L 17.390625 63.140625 
L 17.390625 41.21875 
L 56.984375 41.21875 
L 56.984375 32.8125 
L 17.390625 32.8125 
L 17.390625 8.453125 
L 61.328125 8.453125 
L 61.328125 0 
z
" id="ArialMT-69"/>
       <path d="M 6.59375 0 
L 6.59375 71.578125 
L 15.375 71.578125 
L 15.375 45.90625 
Q 21.53125 53.03125 30.90625 53.03125 
Q 36.671875 53.03125 40.921875 50.75 
Q 45.171875 48.484375 47 44.484375 
Q 48.828125 40.484375 48.828125 32.859375 
L 48.828125 0 
L 40.046875 0 
L 40.046875 32.859375 
Q 40.046875 39.453125 37.1875 42.453125 
Q 34.328125 45.453125 29.109375 45.453125 
Q 25.203125 45.453125 21.75 43.421875 
Q 18.3125 41.40625 16.84375 37.9375 
Q 15.375 34.46875 15.375 28.375 
L 15.375 0 
z
" id="ArialMT-104"/>
       <path d="M 6.59375 0 
L 6.59375 51.859375 
L 14.5 51.859375 
L 14.5 44.484375 
Q 20.21875 53.03125 31 53.03125 
Q 35.6875 53.03125 39.625 51.34375 
Q 43.5625 49.65625 45.515625 46.921875 
Q 47.46875 44.1875 48.25 40.4375 
Q 48.734375 37.984375 48.734375 31.890625 
L 48.734375 0 
L 39.9375 0 
L 39.9375 31.546875 
Q 39.9375 36.921875 38.90625 39.578125 
Q 37.890625 42.234375 35.28125 43.8125 
Q 32.671875 45.40625 29.15625 45.40625 
Q 23.53125 45.40625 19.453125 41.84375 
Q 15.375 38.28125 15.375 28.328125 
L 15.375 0 
z
" id="ArialMT-110"/>
       <path d="M 7.71875 0 
L 7.71875 71.578125 
L 34.71875 71.578125 
Q 41.84375 71.578125 45.609375 70.90625 
Q 50.875 70.015625 54.4375 67.546875 
Q 58.015625 65.09375 60.1875 60.640625 
Q 62.359375 56.203125 62.359375 50.875 
Q 62.359375 41.75 56.546875 35.421875 
Q 50.734375 29.109375 35.546875 29.109375 
L 17.1875 29.109375 
L 17.1875 0 
z
M 17.1875 37.546875 
L 35.6875 37.546875 
Q 44.875 37.546875 48.734375 40.96875 
Q 52.59375 44.390625 52.59375 50.59375 
Q 52.59375 55.078125 50.3125 58.265625 
Q 48.046875 61.46875 44.34375 62.5 
Q 41.9375 63.140625 35.5 63.140625 
L 17.1875 63.140625 
z
" id="ArialMT-80"/>
       <path d="M 6.5 0 
L 6.5 51.859375 
L 14.40625 51.859375 
L 14.40625 44 
Q 17.4375 49.515625 20 51.265625 
Q 22.5625 53.03125 25.640625 53.03125 
Q 30.078125 53.03125 34.671875 50.203125 
L 31.640625 42.046875 
Q 28.421875 43.953125 25.203125 43.953125 
Q 22.3125 43.953125 20.015625 42.21875 
Q 17.71875 40.484375 16.75 37.40625 
Q 15.28125 32.71875 15.28125 27.15625 
L 15.28125 0 
z
" id="ArialMT-114"/>
       <path d="M 40.234375 0 
L 40.234375 6.546875 
Q 35.296875 -1.171875 25.734375 -1.171875 
Q 19.53125 -1.171875 14.328125 2.25 
Q 9.125 5.671875 6.265625 11.796875 
Q 3.421875 17.921875 3.421875 25.875 
Q 3.421875 33.640625 6 39.96875 
Q 8.59375 46.296875 13.765625 49.65625 
Q 18.953125 53.03125 25.34375 53.03125 
Q 30.03125 53.03125 33.6875 51.046875 
Q 37.359375 49.078125 39.65625 45.90625 
L 39.65625 71.578125 
L 48.390625 71.578125 
L 48.390625 0 
z
M 12.453125 25.875 
Q 12.453125 15.921875 16.640625 10.984375 
Q 20.84375 6.0625 26.5625 6.0625 
Q 32.328125 6.0625 36.34375 10.765625 
Q 40.375 15.484375 40.375 25.140625 
Q 40.375 35.796875 36.265625 40.765625 
Q 32.171875 45.75 26.171875 45.75 
Q 20.3125 45.75 16.375 40.96875 
Q 12.453125 36.1875 12.453125 25.875 
z
" id="ArialMT-100"/>
       <path d="M 6.640625 61.46875 
L 6.640625 71.578125 
L 15.4375 71.578125 
L 15.4375 61.46875 
z
M 6.640625 0 
L 6.640625 51.859375 
L 15.4375 51.859375 
L 15.4375 0 
z
" id="ArialMT-105"/>
      </defs>
      <use transform="translate(0 0.01875)" xlink:href="#ArialMT-69"/>
      <use transform="translate(66.699219 0.01875)" xlink:href="#ArialMT-116"/>
      <use transform="translate(94.482422 0.01875)" xlink:href="#ArialMT-104"/>
      <use transform="translate(150.097656 0.01875)" xlink:href="#ArialMT-97"/>
      <use transform="translate(205.712891 0.01875)" xlink:href="#ArialMT-110"/>
      <use transform="translate(261.328125 0.01875)" xlink:href="#ArialMT-111"/>
      <use transform="translate(316.943359 0.01875)" xlink:href="#ArialMT-108"/>
      <use transform="translate(339.160156 0.01875)" xlink:href="#ArialMT-32"/>
      <use transform="translate(366.943359 0.01875)" xlink:href="#ArialMT-80"/>
      <use transform="translate(433.642578 0.01875)" xlink:href="#ArialMT-114"/>
      <use transform="translate(466.943359 0.01875)" xlink:href="#ArialMT-111"/>
      <use transform="translate(522.558594 0.01875)" xlink:href="#ArialMT-100"/>
      <use transform="translate(578.173828 0.01875)" xlink:href="#ArialMT-117"/>
      <use transform="translate(633.789062 0.01875)" xlink:href="#ArialMT-99"/>
      <use transform="translate(683.789062 0.01875)" xlink:href="#ArialMT-116"/>
      <use transform="translate(711.572266 0.01875)" xlink:href="#ArialMT-105"/>
      <use transform="translate(733.789062 0.01875)" xlink:href="#ArialMT-111"/>
      <use transform="translate(789.404297 0.01875)" xlink:href="#ArialMT-110"/>
      <use transform="translate(845.019531 0.01875)" xlink:href="#ArialMT-32"/>
      <use transform="translate(872.802734 0.01875)" xlink:href="#ArialMT-82"/>
      <use transform="translate(945.019531 0.01875)" xlink:href="#ArialMT-97"/>
      <use transform="translate(1000.634766 0.01875)" xlink:href="#ArialMT-116"/>
      <use transform="translate(1028.417969 0.01875)" xlink:href="#ArialMT-101"/>
      <use transform="translate(1084.033203 -38.063906)scale(0.868825)" xlink:href="#STIXSizeTwoSym-Regular-40"/>
      <use transform="translate(1210.20256 44.810938)scale(0.7)" xlink:href="#DejaVuSans-Oblique-109"/>
      <use transform="translate(1278.391037 44.810938)scale(0.7)" xlink:href="#DejaVuSans-Oblique-109"/>
      <use transform="translate(1346.579514 44.810938)scale(0.7)" xlink:href="#DejaVuSans-Oblique-111"/>
      <use transform="translate(1389.406662 44.810938)scale(0.7)" xlink:href="#DejaVuSans-Oblique-108"/>
      <use transform="translate(1135.20256 -40.623437)scale(0.7)" xlink:href="#DejaVuSans-Oblique-103"/>
      <use transform="translate(1179.636154 -52.107812)scale(0.49)" xlink:href="#DejaVuSans-Oblique-112"/>
      <use transform="translate(1210.73967 -52.107812)scale(0.49)" xlink:href="#DejaVuSans-Oblique-114"/>
      <use transform="translate(1230.885178 -52.107812)scale(0.49)" xlink:href="#DejaVuSans-Oblique-111"/>
      <use transform="translate(1260.864182 -52.107812)scale(0.49)" xlink:href="#DejaVuSans-Oblique-116"/>
      <use transform="translate(1280.076584 -52.107812)scale(0.49)" xlink:href="#DejaVuSans-Oblique-101"/>
      <use transform="translate(1310.223068 -52.107812)scale(0.49)" xlink:href="#DejaVuSans-Oblique-105"/>
      <use transform="translate(1323.836838 -52.107812)scale(0.49)" xlink:href="#DejaVuSans-Oblique-110"/>
      <use transform="translate(1370.44426 -40.623437)scale(0.7)" xlink:href="#DejaVuSans-8901"/>
      <use transform="translate(1406.332932 -40.623437)scale(0.7)" xlink:href="#DejaVuSans-Oblique-104"/>
      <use transform="translate(1450.698166 -40.623437)scale(0.7)" xlink:href="#DejaVuSans-Oblique-114"/>
      <use transform="translate(1497.146452 -38.063906)scale(0.868825)" xlink:href="#STIXSizeTwoSym-Regular-41"/>
      <path d="M 1135.20256 18.815625 
L 1135.20256 25.065625 
L 1484.646452 25.065625 
L 1484.646452 18.815625 
L 1135.20256 18.815625 
z
"/>
     </g>
    </g>
   </g>
   <g id="PathCollection_1">
    <path clip-path="url(#pa9a0c562fc)" d="M 85.849351 492.892981 
C 88.146077 492.892981 90.349044 491.980482 91.973075 490.356452 
C 93.597106 488.732421 94.509605 486.529453 94.509605 484.232727 
C 94.509605 481.936001 93.597106 479.733034 91.973075 478.109003 
C 90.349044 476.484972 88.146077 475.572473 85.849351 475.572473 
C 83.552624 475.572473 81.349657 476.484972 79.725626 478.109003 
C 78.101596 479.733034 77.189097 481.936001 77.189097 484.232727 
C 77.189097 486.529453 78.101596 488.732421 79.725626 490.356452 
C 81.349657 491.980482 83.552624 492.892981 85.849351 492.892981 
z
" style="fill:#808080;fill-opacity:0.7;stroke:#808080;stroke-opacity:0.7;stroke-width:1.385641;"/>
    <path clip-path="url(#pa9a0c562fc)" d="M 87.862338 492.892981 
C 90.159064 492.892981 92.362031 491.980482 93.986062 490.356452 
C 95.610093 488.732421 96.522592 486.529453 96.522592 484.232727 
C 96.522592 481.936001 95.610093 479.733034 93.986062 478.109003 
C 92.362031 476.484972 90.159064 475.572473 87.862338 475.572473 
C 85.565611 475.572473 83.362644 476.484972 81.738613 478.109003 
C 80.114583 479.733034 79.202084 481.936001 79.202084 484.232727 
C 79.202084 486.529453 80.114583 488.732421 81.738613 490.356452 
C 83.362644 491.980482 85.565611 492.892981 87.862338 492.892981 
z
" style="fill:#808080;fill-opacity:0.7;stroke:#808080;stroke-opacity:0.7;stroke-width:1.385641;"/>
    <path clip-path="url(#pa9a0c562fc)" d="M 92.693506 492.892981 
C 94.990233 492.892981 97.1932 491.980482 98.817231 490.356452 
C 100.441262 488.732421 101.353761 486.529453 101.353761 484.232727 
C 101.353761 481.936001 100.441262 479.733034 98.817231 478.109003 
C 97.1932 476.484972 94.990233 475.572473 92.693506 475.572473 
C 90.39678 475.572473 88.193813 476.484972 86.569782 478.109003 
C 84.945751 479.733034 84.033252 481.936001 84.033252 484.232727 
C 84.033252 486.529453 84.945751 488.732421 86.569782 490.356452 
C 88.193813 491.980482 90.39678 492.892981 92.693506 492.892981 
z
" style="fill:#808080;fill-opacity:0.7;stroke:#808080;stroke-opacity:0.7;stroke-width:1.385641;"/>
    <path clip-path="url(#pa9a0c562fc)" d="M 98.32987 492.892981 
C 100.626596 492.892981 102.829564 491.980482 104.453594 490.356452 
C 106.077625 488.732421 106.990124 486.529453 106.990124 484.232727 
C 106.990124 481.936001 106.077625 479.733034 104.453594 478.109003 
C 102.829564 476.484972 100.626596 475.572473 98.32987 475.572473 
C 96.033144 475.572473 93.830176 476.484972 92.206146 478.109003 
C 90.582115 479.733034 89.669616 481.936001 89.669616 484.232727 
C 89.669616 486.529453 90.582115 488.732421 92.206146 490.356452 
C 93.830176 491.980482 96.033144 492.892981 98.32987 492.892981 
z
" style="fill:#808080;fill-opacity:0.7;stroke:#808080;stroke-opacity:0.7;stroke-width:1.385641;"/>
    <path clip-path="url(#pa9a0c562fc)" d="M 103.966234 492.892981 
C 106.26296 492.892981 108.465927 491.980482 110.089958 490.356452 
C 111.713989 488.732421 112.626488 486.529453 112.626488 484.232727 
C 112.626488 481.936001 111.713989 479.733034 110.089958 478.109003 
C 108.465927 476.484972 106.26296 475.572473 103.966234 475.572473 
C 101.669508 475.572473 99.46654 476.484972 97.842509 478.109003 
C 96.218479 479.733034 95.30598 481.936001 95.30598 484.232727 
C 95.30598 486.529453 96.218479 488.732421 97.842509 490.356452 
C 99.46654 491.980482 101.669508 492.892981 103.966234 492.892981 
z
" style="fill:#808080;fill-opacity:0.7;stroke:#808080;stroke-opacity:0.7;stroke-width:1.385641;"/>
    <path clip-path="url(#pa9a0c562fc)" d="M 110.81039 492.892981 
C 113.107116 492.892981 115.310083 491.980482 116.934114 490.356452 
C 118.558145 488.732421 119.470644 486.529453 119.470644 484.232727 
C 119.470644 481.936001 118.558145 479.733034 116.934114 478.109003 
C 115.310083 476.484972 113.107116 475.572473 110.81039 475.572473 
C 108.513663 475.572473 106.310696 476.484972 104.686665 478.109003 
C 103.062635 479.733034 102.150136 481.936001 102.150136 484.232727 
C 102.150136 486.529453 103.062635 488.732421 104.686665 490.356452 
C 106.310696 491.980482 108.513663 492.892981 110.81039 492.892981 
z
" style="fill:#808080;fill-opacity:0.7;stroke:#808080;stroke-opacity:0.7;stroke-width:1.385641;"/>
    <path clip-path="url(#pa9a0c562fc)" d="M 113.749351 491.686912 
C 116.046077 491.686912 118.249044 490.774413 119.873075 489.150382 
C 121.497106 487.526352 122.409605 485.323384 122.409605 483.026658 
C 122.409605 480.729932 121.497106 478.526964 119.873075 476.902934 
C 118.249044 475.278903 116.046077 474.366404 113.749351 474.366404 
C 111.452624 474.366404 109.249657 475.278903 107.625626 476.902934 
C 106.001596 478.526964 105.089097 480.729932 105.089097 483.026658 
C 105.089097 485.323384 106.001596 487.526352 107.625626 489.150382 
C 109.249657 490.774413 111.452624 491.686912 113.749351 491.686912 
z
" style="fill:#808080;fill-opacity:0.7;stroke:#808080;stroke-opacity:0.7;stroke-width:1.385641;"/>
    <path clip-path="url(#pa9a0c562fc)" d="M 134.966234 467.675171 
C 137.26296 467.675171 139.465927 466.762672 141.089958 465.138641 
C 142.713989 463.51461 143.626488 461.311643 143.626488 459.014917 
C 143.626488 456.71819 142.713989 454.515223 141.089958 452.891192 
C 139.465927 451.267162 137.26296 450.354663 134.966234 450.354663 
C 132.669508 450.354663 130.46654 451.267162 128.842509 452.891192 
C 127.218479 454.515223 126.30598 456.71819 126.30598 459.014917 
C 126.30598 461.311643 127.218479 463.51461 128.842509 465.138641 
C 130.46654 466.762672 132.669508 467.675171 134.966234 467.675171 
z
" style="fill:#808080;fill-opacity:0.7;stroke:#808080;stroke-opacity:0.7;stroke-width:1.385641;"/>
    <path clip-path="url(#pa9a0c562fc)" d="M 217.901299 388.732459 
C 220.198025 388.732459 222.400992 387.81996 224.025023 386.19593 
C 225.649054 384.571899 226.561553 382.368931 226.561553 380.072205 
C 226.561553 377.775479 225.649054 375.572512 224.025023 373.948481 
C 222.400992 372.32445 220.198025 371.411951 217.901299 371.411951 
C 215.604573 371.411951 213.401605 372.32445 211.777574 373.948481 
C 210.153544 375.572512 209.241045 377.775479 209.241045 380.072205 
C 209.241045 382.368931 210.153544 384.571899 211.777574 386.19593 
C 213.401605 387.81996 215.604573 388.732459 217.901299 388.732459 
z
" style="fill:#808080;fill-opacity:0.7;stroke:#808080;stroke-opacity:0.7;stroke-width:1.385641;"/>
    <path clip-path="url(#pa9a0c562fc)" d="M 265.407792 340.489691 
C 267.704518 340.489691 269.907486 339.577192 271.531517 337.953161 
C 273.155547 336.329131 274.068046 334.126163 274.068046 331.829437 
C 274.068046 329.532711 273.155547 327.329743 271.531517 325.705713 
C 269.907486 324.081682 267.704518 323.169183 265.407792 323.169183 
C 263.111066 323.169183 260.908099 324.081682 259.284068 325.705713 
C 257.660037 327.329743 256.747538 329.532711 256.747538 331.829437 
C 256.747538 334.126163 257.660037 336.329131 259.284068 337.953161 
C 260.908099 339.577192 263.111066 340.489691 265.407792 340.489691 
z
" style="fill:#808080;fill-opacity:0.7;stroke:#808080;stroke-opacity:0.7;stroke-width:1.385641;"/>
    <path clip-path="url(#pa9a0c562fc)" d="M 81.1064 492.892981 
L 85.436527 488.562854 
L 89.766654 492.892981 
L 94.096781 488.562854 
L 89.766654 484.232727 
L 94.096781 479.9026 
L 89.766654 475.572473 
L 85.436527 479.9026 
L 81.1064 475.572473 
L 76.776273 479.9026 
L 81.1064 484.232727 
L 76.776273 488.562854 
z
" style="fill:#808080;fill-opacity:0.7;stroke:#808080;stroke-opacity:0.7;stroke-width:1.385641;"/>
    <path clip-path="url(#pa9a0c562fc)" d="M 84.432321 492.892981 
L 88.762448 488.562854 
L 93.092575 492.892981 
L 97.422702 488.562854 
L 93.092575 484.232727 
L 97.422702 479.9026 
L 93.092575 475.572473 
L 88.762448 479.9026 
L 84.432321 475.572473 
L 80.102194 479.9026 
L 84.432321 484.232727 
L 80.102194 488.562854 
z
" style="fill:#808080;fill-opacity:0.7;stroke:#808080;stroke-opacity:0.7;stroke-width:1.385641;"/>
    <path clip-path="url(#pa9a0c562fc)" d="M 89.291149 492.892981 
L 93.621276 488.562854 
L 97.951403 492.892981 
L 102.28153 488.562854 
L 97.951403 484.232727 
L 102.28153 479.9026 
L 97.951403 475.572473 
L 93.621276 479.9026 
L 89.291149 475.572473 
L 84.961022 479.9026 
L 89.291149 484.232727 
L 84.961022 488.562854 
z
" style="fill:#808080;fill-opacity:0.7;stroke:#808080;stroke-opacity:0.7;stroke-width:1.385641;"/>
    <path clip-path="url(#pa9a0c562fc)" d="M 98.717445 492.892981 
L 103.047572 488.562854 
L 107.377699 492.892981 
L 111.707826 488.562854 
L 107.377699 484.232727 
L 111.707826 479.9026 
L 107.377699 475.572473 
L 103.047572 479.9026 
L 98.717445 475.572473 
L 94.387318 479.9026 
L 98.717445 484.232727 
L 94.387318 488.562854 
z
" style="fill:#808080;fill-opacity:0.7;stroke:#808080;stroke-opacity:0.7;stroke-width:1.385641;"/>
    <path clip-path="url(#pa9a0c562fc)" d="M 144.731553 457.374181 
L 149.061681 453.044054 
L 153.391808 457.374181 
L 157.721935 453.044054 
L 153.391808 448.713927 
L 157.721935 444.3838 
L 153.391808 440.053673 
L 149.061681 444.3838 
L 144.731553 440.053673 
L 140.401426 444.3838 
L 144.731553 448.713927 
L 140.401426 453.044054 
z
" style="fill:#808080;fill-opacity:0.7;stroke:#808080;stroke-opacity:0.7;stroke-width:1.385641;"/>
    <path clip-path="url(#pa9a0c562fc)" d="M 159.051082 444.555571 
L 163.381209 440.225444 
L 167.711336 444.555571 
L 172.041463 440.225444 
L 167.711336 435.895317 
L 172.041463 431.56519 
L 167.711336 427.235063 
L 163.381209 431.56519 
L 159.051082 427.235063 
L 154.720955 431.56519 
L 159.051082 435.895317 
L 154.720955 440.225444 
z
" style="fill:#808080;fill-opacity:0.7;stroke:#808080;stroke-opacity:0.7;stroke-width:1.385641;"/>
    <path clip-path="url(#pa9a0c562fc)" d="M 203.668734 397.376095 
L 207.998861 393.045968 
L 212.328988 397.376095 
L 216.659115 393.045968 
L 212.328988 388.715841 
L 216.659115 384.385714 
L 212.328988 380.055587 
L 207.998861 384.385714 
L 203.668734 380.055587 
L 199.338607 384.385714 
L 203.668734 388.715841 
L 199.338607 393.045968 
z
" style="fill:#808080;fill-opacity:0.7;stroke:#808080;stroke-opacity:0.7;stroke-width:1.385641;"/>
    <path clip-path="url(#pa9a0c562fc)" d="M 275.221107 329.443686 
L 279.551234 325.113559 
L 283.881361 329.443686 
L 288.211488 325.113559 
L 283.881361 320.783432 
L 288.211488 316.453305 
L 283.881361 312.123178 
L 279.551234 316.453305 
L 275.221107 312.123178 
L 270.89098 316.453305 
L 275.221107 320.783432 
L 270.89098 325.113559 
z
" style="fill:#808080;fill-opacity:0.7;stroke:#808080;stroke-opacity:0.7;stroke-width:1.385641;"/>
    <path clip-path="url(#pa9a0c562fc)" d="M 98.508528 478.109003 
L 98.508528 490.356452 
L 110.755977 490.356452 
L 110.755977 478.109003 
z
" style="fill:#808080;fill-opacity:0.7;stroke:#808080;stroke-opacity:0.7;stroke-width:1.385641;"/>
    <path clip-path="url(#pa9a0c562fc)" d="M 98.645478 478.109003 
L 98.645478 490.356452 
L 110.892926 490.356452 
L 110.892926 478.109003 
z
" style="fill:#808080;fill-opacity:0.7;stroke:#808080;stroke-opacity:0.7;stroke-width:1.385641;"/>
    <path clip-path="url(#pa9a0c562fc)" d="M 100.651943 478.109003 
L 100.651943 490.356452 
L 112.899392 490.356452 
L 112.899392 478.109003 
z
" style="fill:#808080;fill-opacity:0.7;stroke:#808080;stroke-opacity:0.7;stroke-width:1.385641;"/>
    <path clip-path="url(#pa9a0c562fc)" d="M 100.406072 478.109003 
L 100.406072 490.356452 
L 112.653521 490.356452 
L 112.653521 478.109003 
z
" style="fill:#808080;fill-opacity:0.7;stroke:#808080;stroke-opacity:0.7;stroke-width:1.385641;"/>
    <path clip-path="url(#pa9a0c562fc)" d="M 104.083704 478.109003 
L 104.083704 490.356452 
L 116.331153 490.356452 
L 116.331153 478.109003 
z
" style="fill:#808080;fill-opacity:0.7;stroke:#808080;stroke-opacity:0.7;stroke-width:1.385641;"/>
    <path clip-path="url(#pa9a0c562fc)" d="M 107.6544 478.109003 
L 107.6544 490.356452 
L 119.901848 490.356452 
L 119.901848 478.109003 
z
" style="fill:#808080;fill-opacity:0.7;stroke:#808080;stroke-opacity:0.7;stroke-width:1.385641;"/>
    <path clip-path="url(#pa9a0c562fc)" d="M 120.922729 465.325219 
L 120.922729 477.572668 
L 133.170178 477.572668 
L 133.170178 465.325219 
z
" style="fill:#808080;fill-opacity:0.7;stroke:#808080;stroke-opacity:0.7;stroke-width:1.385641;"/>
    <path clip-path="url(#pa9a0c562fc)" d="M 127.994921 457.210275 
L 127.994921 469.457724 
L 140.242369 469.457724 
L 140.242369 457.210275 
z
" style="fill:#808080;fill-opacity:0.7;stroke:#808080;stroke-opacity:0.7;stroke-width:1.385641;"/>
    <path clip-path="url(#pa9a0c562fc)" d="M 138.166244 444.912305 
L 138.166244 457.159753 
L 150.413693 457.159753 
L 150.413693 444.912305 
z
" style="fill:#808080;fill-opacity:0.7;stroke:#808080;stroke-opacity:0.7;stroke-width:1.385641;"/>
    <path clip-path="url(#pa9a0c562fc)" d="M 136.70339 446.567421 
L 136.70339 458.814869 
L 148.950839 458.814869 
L 148.950839 446.567421 
z
" style="fill:#808080;fill-opacity:0.7;stroke:#808080;stroke-opacity:0.7;stroke-width:1.385641;"/>
    <path clip-path="url(#pa9a0c562fc)" d="M 124.561294 462.597962 
L 124.561294 474.845411 
L 136.808743 474.845411 
L 136.808743 462.597962 
z
" style="fill:#808080;fill-opacity:0.7;stroke:#808080;stroke-opacity:0.7;stroke-width:1.385641;"/>
    <path clip-path="url(#pa9a0c562fc)" d="M 128.492953 457.902963 
L 128.492953 470.150412 
L 140.740402 470.150412 
L 140.740402 457.902963 
z
" style="fill:#808080;fill-opacity:0.7;stroke:#808080;stroke-opacity:0.7;stroke-width:1.385641;"/>
    <path clip-path="url(#pa9a0c562fc)" d="M 159.714194 423.926747 
L 159.714194 436.174196 
L 171.961643 436.174196 
L 171.961643 423.926747 
z
" style="fill:#808080;fill-opacity:0.7;stroke:#808080;stroke-opacity:0.7;stroke-width:1.385641;"/>
    <path clip-path="url(#pa9a0c562fc)" d="M 164.530631 418.850175 
L 164.530631 431.097624 
L 176.77808 431.097624 
L 176.77808 418.850175 
z
" style="fill:#808080;fill-opacity:0.7;stroke:#808080;stroke-opacity:0.7;stroke-width:1.385641;"/>
    <path clip-path="url(#pa9a0c562fc)" d="M 185.11922 398.883161 
L 185.11922 411.13061 
L 197.366668 411.13061 
L 197.366668 398.883161 
z
" style="fill:#808080;fill-opacity:0.7;stroke:#808080;stroke-opacity:0.7;stroke-width:1.385641;"/>
    <path clip-path="url(#pa9a0c562fc)" d="M 199.177036 383.957005 
L 199.177036 396.204454 
L 211.424485 396.204454 
L 211.424485 383.957005 
z
" style="fill:#808080;fill-opacity:0.7;stroke:#808080;stroke-opacity:0.7;stroke-width:1.385641;"/>
    <path clip-path="url(#pa9a0c562fc)" d="M 104.747145 492.892981 
L 110.520647 492.892981 
L 110.520647 487.119479 
L 116.29415 487.119479 
L 116.29415 481.345976 
L 110.520647 481.345976 
L 110.520647 475.572473 
L 104.747145 475.572473 
L 104.747145 481.345976 
L 98.973642 481.345976 
L 98.973642 487.119479 
L 104.747145 487.119479 
z
" style="fill:#808080;fill-opacity:0.7;stroke:#808080;stroke-opacity:0.7;stroke-width:1.385641;"/>
    <path clip-path="url(#pa9a0c562fc)" d="M 107.110392 492.892981 
L 112.883894 492.892981 
L 112.883894 487.119479 
L 118.657397 487.119479 
L 118.657397 481.345976 
L 112.883894 481.345976 
L 112.883894 475.572473 
L 107.110392 475.572473 
L 107.110392 481.345976 
L 101.336889 481.345976 
L 101.336889 487.119479 
L 107.110392 487.119479 
z
" style="fill:#808080;fill-opacity:0.7;stroke:#808080;stroke-opacity:0.7;stroke-width:1.385641;"/>
    <path clip-path="url(#pa9a0c562fc)" d="M 148.489353 454.825052 
L 154.262855 454.825052 
L 154.262855 449.051549 
L 160.036358 449.051549 
L 160.036358 443.278046 
L 154.262855 443.278046 
L 154.262855 437.504543 
L 148.489353 437.504543 
L 148.489353 443.278046 
L 142.71585 443.278046 
L 142.71585 449.051549 
L 148.489353 449.051549 
z
" style="fill:#808080;fill-opacity:0.7;stroke:#808080;stroke-opacity:0.7;stroke-width:1.385641;"/>
    <path clip-path="url(#pa9a0c562fc)" d="M 153.264158 453.728625 
L 159.03766 453.728625 
L 159.03766 447.955122 
L 164.811163 447.955122 
L 164.811163 442.18162 
L 159.03766 442.18162 
L 159.03766 436.408117 
L 153.264158 436.408117 
L 153.264158 442.18162 
L 147.490655 442.18162 
L 147.490655 447.955122 
L 153.264158 447.955122 
z
" style="fill:#808080;fill-opacity:0.7;stroke:#808080;stroke-opacity:0.7;stroke-width:1.385641;"/>
    <path clip-path="url(#pa9a0c562fc)" d="M 153.81169 452.895341 
L 159.585193 452.895341 
L 159.585193 447.121838 
L 165.358696 447.121838 
L 165.358696 441.348335 
L 159.585193 441.348335 
L 159.585193 435.574833 
L 153.81169 435.574833 
L 153.81169 441.348335 
L 148.038188 441.348335 
L 148.038188 447.121838 
L 153.81169 447.121838 
z
" style="fill:#808080;fill-opacity:0.7;stroke:#808080;stroke-opacity:0.7;stroke-width:1.385641;"/>
    <path clip-path="url(#pa9a0c562fc)" d="M 164.609353 440.944291 
L 170.382855 440.944291 
L 170.382855 435.170789 
L 176.156358 435.170789 
L 176.156358 429.397286 
L 170.382855 429.397286 
L 170.382855 423.623783 
L 164.609353 423.623783 
L 164.609353 429.397286 
L 158.83585 429.397286 
L 158.83585 435.170789 
L 164.609353 435.170789 
z
" style="fill:#808080;fill-opacity:0.7;stroke:#808080;stroke-opacity:0.7;stroke-width:1.385641;"/>
    <path clip-path="url(#pa9a0c562fc)" d="M 158.228184 439.836901 
L 164.001686 439.836901 
L 164.001686 434.063398 
L 169.775189 434.063398 
L 169.775189 428.289895 
L 164.001686 428.289895 
L 164.001686 422.516393 
L 158.228184 422.516393 
L 158.228184 428.289895 
L 152.454681 428.289895 
L 152.454681 434.063398 
L 158.228184 434.063398 
z
" style="fill:#daa520;fill-opacity:0.7;stroke:#daa520;stroke-opacity:0.7;stroke-width:1.385641;"/>
    <path clip-path="url(#pa9a0c562fc)" d="M 158.063119 439.420259 
L 163.836621 439.420259 
L 163.836621 433.646756 
L 169.610124 433.646756 
L 169.610124 427.873253 
L 163.836621 427.873253 
L 163.836621 422.09975 
L 158.063119 422.09975 
L 158.063119 427.873253 
L 152.289616 427.873253 
L 152.289616 433.646756 
L 158.063119 433.646756 
z
" style="fill:#daa520;fill-opacity:0.7;stroke:#daa520;stroke-opacity:0.7;stroke-width:1.385641;"/>
    <path clip-path="url(#pa9a0c562fc)" d="M 86.462832 475.572473 
L 77.802578 484.232727 
L 86.462832 492.892981 
L 95.123086 484.232727 
z
" style="fill:#808080;fill-opacity:0.7;stroke:#808080;stroke-opacity:0.7;stroke-width:1.385641;"/>
    <path clip-path="url(#pa9a0c562fc)" d="M 88.822378 475.572473 
L 80.162124 484.232727 
L 88.822378 492.892981 
L 97.482632 484.232727 
z
" style="fill:#808080;fill-opacity:0.7;stroke:#808080;stroke-opacity:0.7;stroke-width:1.385641;"/>
    <path clip-path="url(#pa9a0c562fc)" d="M 92.361695 475.572473 
L 83.701441 484.232727 
L 92.361695 492.892981 
L 101.021949 484.232727 
z
" style="fill:#808080;fill-opacity:0.7;stroke:#808080;stroke-opacity:0.7;stroke-width:1.385641;"/>
    <path clip-path="url(#pa9a0c562fc)" d="M 98.968422 475.572473 
L 90.308168 484.232727 
L 98.968422 492.892981 
L 107.628676 484.232727 
z
" style="fill:#808080;fill-opacity:0.7;stroke:#808080;stroke-opacity:0.7;stroke-width:1.385641;"/>
    <path clip-path="url(#pa9a0c562fc)" d="M 105.51616 475.411825 
L 96.855906 484.072079 
L 105.51616 492.732333 
L 114.176414 484.072079 
z
" style="fill:#808080;fill-opacity:0.7;stroke:#808080;stroke-opacity:0.7;stroke-width:1.385641;"/>
    <path clip-path="url(#pa9a0c562fc)" d="M 106.400989 475.572473 
L 97.740735 484.232727 
L 106.400989 492.892981 
L 115.061244 484.232727 
z
" style="fill:#808080;fill-opacity:0.7;stroke:#808080;stroke-opacity:0.7;stroke-width:1.385641;"/>
    <path clip-path="url(#pa9a0c562fc)" d="M 114.777375 475.572473 
L 106.117121 484.232727 
L 114.777375 492.892981 
L 123.437629 484.232727 
z
" style="fill:#808080;fill-opacity:0.7;stroke:#808080;stroke-opacity:0.7;stroke-width:1.385641;"/>
    <path clip-path="url(#pa9a0c562fc)" d="M 147.398088 451.957132 
L 138.737834 460.617386 
L 147.398088 469.27764 
L 156.058342 460.617386 
z
" style="fill:#808080;fill-opacity:0.7;stroke:#808080;stroke-opacity:0.7;stroke-width:1.385641;"/>
    <path clip-path="url(#pa9a0c562fc)" d="M 191.167651 412.116285 
L 182.507397 420.776539 
L 191.167651 429.436793 
L 199.827905 420.776539 
z
" style="fill:#808080;fill-opacity:0.7;stroke:#808080;stroke-opacity:0.7;stroke-width:1.385641;"/>
    <path clip-path="url(#pa9a0c562fc)" d="M 92.371429 475.572473 
L 89.309566 481.170865 
L 83.711175 484.232727 
L 89.309566 487.294589 
L 92.371429 492.892981 
L 95.433291 487.294589 
L 101.031683 484.232727 
L 95.433291 481.170865 
z
" style="fill:#808080;fill-opacity:0.7;stroke:#808080;stroke-opacity:0.7;stroke-width:1.385641;"/>
    <path clip-path="url(#pa9a0c562fc)" d="M 96.598701 475.572473 
L 93.536839 481.170865 
L 87.938447 484.232727 
L 93.536839 487.294589 
L 96.598701 492.892981 
L 99.660563 487.294589 
L 105.258955 484.232727 
L 99.660563 481.170865 
z
" style="fill:#808080;fill-opacity:0.7;stroke:#808080;stroke-opacity:0.7;stroke-width:1.385641;"/>
    <path clip-path="url(#pa9a0c562fc)" d="M 112.863636 475.572473 
L 109.801774 481.170865 
L 104.203382 484.232727 
L 109.801774 487.294589 
L 112.863636 492.892981 
L 115.925499 487.294589 
L 121.52389 484.232727 
L 115.925499 481.170865 
z
" style="fill:#808080;fill-opacity:0.7;stroke:#808080;stroke-opacity:0.7;stroke-width:1.385641;"/>
    <path clip-path="url(#pa9a0c562fc)" d="M 115.279221 475.572473 
L 112.217359 481.170865 
L 106.618967 484.232727 
L 112.217359 487.294589 
L 115.279221 492.892981 
L 118.341083 487.294589 
L 123.939475 484.232727 
L 118.341083 481.170865 
z
" style="fill:#808080;fill-opacity:0.7;stroke:#808080;stroke-opacity:0.7;stroke-width:1.385641;"/>
    <path clip-path="url(#pa9a0c562fc)" d="M 124.901299 475.572473 
L 121.839437 481.170865 
L 116.241045 484.232727 
L 121.839437 487.294589 
L 124.901299 492.892981 
L 127.963161 487.294589 
L 133.561553 484.232727 
L 127.963161 481.170865 
z
" style="fill:#808080;fill-opacity:0.7;stroke:#808080;stroke-opacity:0.7;stroke-width:1.385641;"/>
    <path clip-path="url(#pa9a0c562fc)" d="M 96.115584 475.572473 
L 93.053722 481.170865 
L 87.45533 484.232727 
L 93.053722 487.294589 
L 96.115584 492.892981 
L 99.177447 487.294589 
L 104.775838 484.232727 
L 99.177447 481.170865 
z
" style="fill:#808080;fill-opacity:0.7;stroke:#808080;stroke-opacity:0.7;stroke-width:1.385641;"/>
    <path clip-path="url(#pa9a0c562fc)" d="M 105.174026 475.572473 
L 102.112164 481.170865 
L 96.513772 484.232727 
L 102.112164 487.294589 
L 105.174026 492.892981 
L 108.235888 487.294589 
L 113.83428 484.232727 
L 108.235888 481.170865 
z
" style="fill:#808080;fill-opacity:0.7;stroke:#808080;stroke-opacity:0.7;stroke-width:1.385641;"/>
    <path clip-path="url(#pa9a0c562fc)" d="M 272.724718 339.917354 
L 269.662856 345.515746 
L 264.064464 348.577608 
L 269.662856 351.639471 
L 272.724718 357.237862 
L 275.78658 351.639471 
L 281.384972 348.577608 
L 275.78658 345.515746 
z
" style="fill:#808080;fill-opacity:0.7;stroke:#808080;stroke-opacity:0.7;stroke-width:1.385641;"/>
    <path clip-path="url(#pa9a0c562fc)" d="M 463.787544 163.803691 
L 460.725682 169.402083 
L 455.12729 172.463945 
L 460.725682 175.525808 
L 463.787544 181.124199 
L 466.849407 175.525808 
L 472.447798 172.463945 
L 466.849407 169.402083 
z
" style="fill:#808080;fill-opacity:0.7;stroke:#808080;stroke-opacity:0.7;stroke-width:1.385641;"/>
    <path clip-path="url(#pa9a0c562fc)" d="M 127.092217 447.013501 
L 124.030355 452.611893 
L 118.431963 455.673755 
L 124.030355 458.735617 
L 127.092217 464.334009 
L 130.154079 458.735617 
L 135.752471 455.673755 
L 130.154079 452.611893 
z
" style="fill:#daa520;fill-opacity:0.7;stroke:#daa520;stroke-opacity:0.7;stroke-width:1.385641;"/>
    <path clip-path="url(#pa9a0c562fc)" d="M 159.593957 420.834443 
L 156.532095 426.432835 
L 150.933703 429.494697 
L 156.532095 432.556559 
L 159.593957 438.154951 
L 162.655819 432.556559 
L 168.254211 429.494697 
L 162.655819 426.432835 
z
" style="fill:#daa520;fill-opacity:0.7;stroke:#daa520;stroke-opacity:0.7;stroke-width:1.385641;"/>
    <path clip-path="url(#pa9a0c562fc)" d="M 208.384445 382.755813 
L 205.322583 388.354205 
L 199.724191 391.416067 
L 205.322583 394.477929 
L 208.384445 400.076321 
L 211.446307 394.477929 
L 217.044699 391.416067 
L 211.446307 388.354205 
z
" style="fill:#daa520;fill-opacity:0.7;stroke:#daa520;stroke-opacity:0.7;stroke-width:1.385641;"/>
    <path clip-path="url(#pa9a0c562fc)" d="M 256.656319 342.297269 
L 253.594457 347.895661 
L 247.996065 350.957523 
L 253.594457 354.019385 
L 256.656319 359.617777 
L 259.718181 354.019385 
L 265.316573 350.957523 
L 259.718181 347.895661 
z
" style="fill:#daa520;fill-opacity:0.7;stroke:#daa520;stroke-opacity:0.7;stroke-width:1.385641;"/>
    <path clip-path="url(#pa9a0c562fc)" d="M 385.026917 230.441294 
L 381.965055 236.039685 
L 376.366663 239.101548 
L 381.965055 242.16341 
L 385.026917 247.761802 
L 388.088779 242.16341 
L 393.687171 239.101548 
L 388.088779 236.039685 
z
" style="fill:#daa520;fill-opacity:0.7;stroke:#daa520;stroke-opacity:0.7;stroke-width:1.385641;"/>
    <path clip-path="url(#pa9a0c562fc)" d="M 485.364607 144.764376 
L 482.302744 150.362768 
L 476.704353 153.424631 
L 482.302744 156.486493 
L 485.364607 162.084885 
L 488.426469 156.486493 
L 494.024861 153.424631 
L 488.426469 150.362768 
z
" style="fill:#daa520;fill-opacity:0.7;stroke:#daa520;stroke-opacity:0.7;stroke-width:1.385641;"/>
    <path clip-path="url(#pa9a0c562fc)" d="M 200.320367 408.934871 
L 197.258505 414.533263 
L 191.660113 417.595125 
L 197.258505 420.656987 
L 200.320367 426.255379 
L 203.38223 420.656987 
L 208.980621 417.595125 
L 203.38223 414.533263 
z
" style="fill:#008080;fill-opacity:0.7;stroke:#008080;stroke-opacity:0.7;stroke-width:1.385641;"/>
    <path clip-path="url(#pa9a0c562fc)" d="M 295.710871 320.878039 
L 292.649009 326.476431 
L 287.050617 329.538294 
L 292.649009 332.600156 
L 295.710871 338.198548 
L 298.772733 332.600156 
L 304.371125 329.538294 
L 298.772733 326.476431 
z
" style="fill:#008080;fill-opacity:0.7;stroke:#008080;stroke-opacity:0.7;stroke-width:1.385641;"/>
    <path clip-path="url(#pa9a0c562fc)" d="M 482.676729 140.004548 
L 479.614867 145.60294 
L 474.016475 148.664802 
L 479.614867 151.726664 
L 482.676729 157.325056 
L 485.738592 151.726664 
L 491.336983 148.664802 
L 485.738592 145.60294 
z
" style="fill:#008080;fill-opacity:0.7;stroke:#008080;stroke-opacity:0.7;stroke-width:1.385641;"/>
    <path clip-path="url(#pa9a0c562fc)" d="M 86.850934 475.572473 
L 78.19068 492.892981 
L 95.511188 492.892981 
z
" style="fill:#daa520;fill-opacity:0.7;stroke:#daa520;stroke-opacity:0.7;stroke-width:1.385641;"/>
    <path clip-path="url(#pa9a0c562fc)" d="M 95.29566 475.572473 
L 86.635406 492.892981 
L 103.955914 492.892981 
z
" style="fill:#daa520;fill-opacity:0.7;stroke:#daa520;stroke-opacity:0.7;stroke-width:1.385641;"/>
    <path clip-path="url(#pa9a0c562fc)" d="M 107.63478 465.485349 
L 98.974526 482.805857 
L 116.295034 482.805857 
z
" style="fill:#daa520;fill-opacity:0.7;stroke:#daa520;stroke-opacity:0.7;stroke-width:1.385641;"/>
    <path clip-path="url(#pa9a0c562fc)" d="M 132.493697 444.433959 
L 123.833443 461.754467 
L 141.153951 461.754467 
z
" style="fill:#daa520;fill-opacity:0.7;stroke:#daa520;stroke-opacity:0.7;stroke-width:1.385641;"/>
    <path clip-path="url(#pa9a0c562fc)" d="M 164.493316 416.36544 
L 155.833062 433.685948 
L 173.15357 433.685948 
z
" style="fill:#daa520;fill-opacity:0.7;stroke:#daa520;stroke-opacity:0.7;stroke-width:1.385641;"/>
    <path clip-path="url(#pa9a0c562fc)" d="M 192.064365 390.489773 
L 183.404111 407.810281 
L 200.724619 407.810281 
z
" style="fill:#daa520;fill-opacity:0.7;stroke:#daa520;stroke-opacity:0.7;stroke-width:1.385641;"/>
    <path clip-path="url(#pa9a0c562fc)" d="M 224.482293 361.105542 
L 215.822039 378.42605 
L 233.142547 378.42605 
z
" style="fill:#daa520;fill-opacity:0.7;stroke:#daa520;stroke-opacity:0.7;stroke-width:1.385641;"/>
    <path clip-path="url(#pa9a0c562fc)" d="M 237.740513 347.509852 
L 229.080259 364.83036 
L 246.400767 364.83036 
z
" style="fill:#daa520;fill-opacity:0.7;stroke:#daa520;stroke-opacity:0.7;stroke-width:1.385641;"/>
    <path clip-path="url(#pa9a0c562fc)" d="M 275.079949 313.301344 
L 266.419695 330.621852 
L 283.740203 330.621852 
z
" style="fill:#daa520;fill-opacity:0.7;stroke:#daa520;stroke-opacity:0.7;stroke-width:1.385641;"/>
    <path clip-path="url(#pa9a0c562fc)" d="M 297.513462 296.635661 
L 288.853208 313.956169 
L 306.173716 313.956169 
z
" style="fill:#daa520;fill-opacity:0.7;stroke:#daa520;stroke-opacity:0.7;stroke-width:1.385641;"/>
    <path clip-path="url(#pa9a0c562fc)" d="M 86.114476 475.572473 
L 77.454222 492.892981 
L 94.77473 492.892981 
z
" style="fill:#daa520;fill-opacity:0.7;stroke:#daa520;stroke-opacity:0.7;stroke-width:1.385641;"/>
    <path clip-path="url(#pa9a0c562fc)" d="M 88.422046 475.572473 
L 79.761792 492.892981 
L 97.0823 492.892981 
z
" style="fill:#daa520;fill-opacity:0.7;stroke:#daa520;stroke-opacity:0.7;stroke-width:1.385641;"/>
    <path clip-path="url(#pa9a0c562fc)" d="M 94.166424 475.572473 
L 85.50617 492.892981 
L 102.826678 492.892981 
z
" style="fill:#daa520;fill-opacity:0.7;stroke:#daa520;stroke-opacity:0.7;stroke-width:1.385641;"/>
    <path clip-path="url(#pa9a0c562fc)" d="M 103.39867 472.94105 
L 94.738416 490.261558 
L 112.058924 490.261558 
z
" style="fill:#daa520;fill-opacity:0.7;stroke:#daa520;stroke-opacity:0.7;stroke-width:1.385641;"/>
    <path clip-path="url(#pa9a0c562fc)" d="M 121.16598 458.90679 
L 112.505726 476.227298 
L 129.826234 476.227298 
z
" style="fill:#daa520;fill-opacity:0.7;stroke:#daa520;stroke-opacity:0.7;stroke-width:1.385641;"/>
    <path clip-path="url(#pa9a0c562fc)" d="M 140.834336 441.363965 
L 132.174082 458.684473 
L 149.49459 458.684473 
z
" style="fill:#daa520;fill-opacity:0.7;stroke:#daa520;stroke-opacity:0.7;stroke-width:1.385641;"/>
    <path clip-path="url(#pa9a0c562fc)" d="M 167.390054 416.36544 
L 158.7298 433.685948 
L 176.050308 433.685948 
z
" style="fill:#daa520;fill-opacity:0.7;stroke:#daa520;stroke-opacity:0.7;stroke-width:1.385641;"/>
    <path clip-path="url(#pa9a0c562fc)" d="M 199.334685 385.226926 
L 190.674431 402.547434 
L 207.994939 402.547434 
z
" style="fill:#daa520;fill-opacity:0.7;stroke:#daa520;stroke-opacity:0.7;stroke-width:1.385641;"/>
    <path clip-path="url(#pa9a0c562fc)" d="M 231.122205 356.281265 
L 222.461951 373.601773 
L 239.782459 373.601773 
z
" style="fill:#daa520;fill-opacity:0.7;stroke:#daa520;stroke-opacity:0.7;stroke-width:1.385641;"/>
    <path clip-path="url(#pa9a0c562fc)" d="M 271.368198 319.879903 
L 262.707944 337.200411 
L 280.028452 337.200411 
z
" style="fill:#daa520;fill-opacity:0.7;stroke:#daa520;stroke-opacity:0.7;stroke-width:1.385641;"/>
    <path clip-path="url(#pa9a0c562fc)" d="M 88.029268 475.572473 
L 79.369014 492.892981 
L 96.689522 492.892981 
z
" style="fill:#808080;fill-opacity:0.7;stroke:#808080;stroke-opacity:0.7;stroke-width:1.385641;"/>
    <path clip-path="url(#pa9a0c562fc)" d="M 89.453088 475.572473 
L 80.792834 492.892981 
L 98.113342 492.892981 
z
" style="fill:#808080;fill-opacity:0.7;stroke:#808080;stroke-opacity:0.7;stroke-width:1.385641;"/>
    <path clip-path="url(#pa9a0c562fc)" d="M 93.626354 475.572473 
L 84.9661 492.892981 
L 102.286608 492.892981 
z
" style="fill:#808080;fill-opacity:0.7;stroke:#808080;stroke-opacity:0.7;stroke-width:1.385641;"/>
    <path clip-path="url(#pa9a0c562fc)" d="M 97.161356 475.572473 
L 88.501102 492.892981 
L 105.82161 492.892981 
z
" style="fill:#808080;fill-opacity:0.7;stroke:#808080;stroke-opacity:0.7;stroke-width:1.385641;"/>
    <path clip-path="url(#pa9a0c562fc)" d="M 100.794552 475.572473 
L 92.134298 492.892981 
L 109.454806 492.892981 
z
" style="fill:#808080;fill-opacity:0.7;stroke:#808080;stroke-opacity:0.7;stroke-width:1.385641;"/>
    <path clip-path="url(#pa9a0c562fc)" d="M 108.194488 472.063908 
L 99.534234 489.384416 
L 116.854742 489.384416 
z
" style="fill:#808080;fill-opacity:0.7;stroke:#808080;stroke-opacity:0.7;stroke-width:1.385641;"/>
    <path clip-path="url(#pa9a0c562fc)" d="M 126.183719 456.713937 
L 117.523465 474.034445 
L 134.843973 474.034445 
z
" style="fill:#808080;fill-opacity:0.7;stroke:#808080;stroke-opacity:0.7;stroke-width:1.385641;"/>
    <path clip-path="url(#pa9a0c562fc)" d="M 147.105036 437.8554 
L 138.444782 455.175908 
L 155.76529 455.175908 
z
" style="fill:#808080;fill-opacity:0.7;stroke:#808080;stroke-opacity:0.7;stroke-width:1.385641;"/>
    <path clip-path="url(#pa9a0c562fc)" d="M 190.944948 399.261185 
L 182.284694 416.581694 
L 199.605202 416.581694 
z
" style="fill:#808080;fill-opacity:0.7;stroke:#808080;stroke-opacity:0.7;stroke-width:1.385641;"/>
    <path clip-path="url(#pa9a0c562fc)" d="M 257.560089 335.668446 
L 248.899835 352.988954 
L 266.220343 352.988954 
z
" style="fill:#808080;fill-opacity:0.7;stroke:#808080;stroke-opacity:0.7;stroke-width:1.385641;"/>
   </g>
   <g id="PathCollection_2"/>
   <g id="PathCollection_3"/>
   <g id="PathCollection_4"/>
   <g id="PathCollection_5"/>
   <g id="PathCollection_6"/>
   <g id="PathCollection_7"/>
   <g id="PathCollection_8"/>
   <g id="PathCollection_9"/>
   <g id="PathCollection_10"/>
   <g id="PathCollection_11"/>
   <g id="PolyCollection_1">
    <defs>
     <path d="M 83.691429 -91.767273 
L 83.691429 -91.767273 
L 85.875894 -91.767273 
L 88.060359 -91.767273 
L 90.244824 -91.767273 
L 92.429289 -91.767273 
L 94.613754 -91.767273 
L 96.79822 -91.767273 
L 98.982685 -91.767273 
L 101.16715 -91.767273 
L 103.351615 -91.767273 
L 105.53608 -91.87026 
L 107.720546 -93.968144 
L 109.905011 -96.066029 
L 112.089476 -98.163914 
L 114.273941 -100.271075 
L 116.458406 -102.385112 
L 118.642872 -104.499148 
L 120.827337 -106.613185 
L 123.011802 -108.727221 
L 125.196267 -110.841258 
L 127.380732 -112.955295 
L 129.565197 -115.069331 
L 131.749663 -117.183367 
L 133.934128 -119.297405 
L 136.118593 -121.41144 
L 138.303058 -123.525478 
L 140.487523 -125.639514 
L 142.671989 -127.753551 
L 144.856454 -129.867587 
L 147.040919 -131.981623 
L 149.225384 -134.095661 
L 151.409849 -136.209696 
L 153.594314 -138.323734 
L 155.77878 -140.43777 
L 157.963245 -142.551807 
L 160.14771 -144.665843 
L 162.332175 -146.779881 
L 164.51664 -148.920426 
L 166.701106 -151.073226 
L 168.885571 -153.226025 
L 171.070036 -155.34699 
L 173.254501 -157.402968 
L 175.438966 -159.561926 
L 177.623431 -161.725319 
L 179.807897 -163.888711 
L 181.992362 -166.052101 
L 184.176827 -168.212219 
L 186.361292 -170.3436 
L 188.545757 -172.47498 
L 190.730223 -174.606361 
L 192.914688 -176.737741 
L 195.099153 -178.869123 
L 197.283618 -181.000502 
L 199.468083 -183.131884 
L 201.652548 -185.263263 
L 203.837014 -187.394645 
L 206.021479 -189.526025 
L 208.205944 -191.657406 
L 210.390409 -193.788786 
L 212.574874 -195.919256 
L 214.75934 -198.032598 
L 216.943805 -200.14594 
L 219.12827 -202.259279 
L 221.312735 -204.372621 
L 223.4972 -206.485963 
L 225.681665 -208.599305 
L 227.866131 -210.712644 
L 230.050596 -212.825986 
L 232.235061 -214.939328 
L 234.419526 -217.052667 
L 236.603991 -219.166009 
L 238.788457 -221.279351 
L 240.972922 -223.392693 
L 243.157387 -225.506032 
L 245.341852 -227.619374 
L 247.526317 -229.732716 
L 249.710782 -231.846055 
L 251.895248 -233.959397 
L 254.079713 -236.072739 
L 256.264178 -238.186079 
L 258.448643 -240.29942 
L 260.633108 -242.412762 
L 262.817574 -244.526104 
L 265.002039 -246.639444 
L 267.186504 -248.752785 
L 269.370969 -250.866127 
L 271.555434 -252.979467 
L 273.739899 -255.092808 
L 275.924365 -257.20615 
L 278.10883 -259.319492 
L 280.293295 -261.432832 
L 282.47776 -263.546173 
L 284.662225 -265.67565 
L 286.846691 -267.815159 
L 289.031156 -269.954669 
L 291.215621 -272.094178 
L 293.400086 -274.233688 
L 295.584551 -276.373197 
L 297.769017 -278.512707 
L 299.953482 -280.652216 
L 302.137947 -282.791726 
L 304.322412 -284.931235 
L 306.506877 -287.070745 
L 308.691342 -289.210254 
L 310.875808 -291.349764 
L 313.060273 -293.489273 
L 315.244738 -295.656145 
L 317.429203 -297.851543 
L 319.613668 -300.046941 
L 321.798134 -302.242338 
L 323.982599 -304.437752 
L 326.167064 -306.633149 
L 328.351529 -308.828547 
L 330.535994 -311.014722 
L 332.720459 -313.16158 
L 334.904925 -315.323989 
L 337.08939 -317.448641 
L 339.273855 -319.573309 
L 341.45832 -321.69796 
L 343.642785 -323.822611 
L 345.827251 -325.947263 
L 348.011716 -328.071914 
L 350.196181 -330.197134 
L 352.380646 -332.328519 
L 354.565111 -334.459904 
L 356.749576 -336.591289 
L 358.934042 -338.722656 
L 361.118507 -340.854041 
L 363.302972 -342.985426 
L 365.487437 -345.116811 
L 367.671902 -347.248179 
L 369.856368 -349.409392 
L 372.040833 -351.599434 
L 374.225298 -353.789459 
L 376.409763 -355.9795 
L 378.594228 -357.827721 
L 380.778693 -359.974285 
L 382.963159 -362.12085 
L 385.147624 -364.267415 
L 387.332089 -366.41398 
L 389.516554 -368.442053 
L 391.701019 -370.597691 
L 393.885485 -372.661855 
L 396.06995 -374.814328 
L 398.254415 -376.938979 
L 400.43888 -379.069636 
L 402.623345 -381.209145 
L 404.80781 -383.312933 
L 406.992276 -385.437584 
L 409.176741 -387.562253 
L 411.361206 -389.686904 
L 413.545671 -391.811555 
L 415.730136 -393.489943 
L 417.914602 -395.19088 
L 420.099067 -397.264792 
L 422.283532 -399.400503 
L 424.467997 -401.526621 
L 426.652462 -403.499141 
L 428.836927 -405.695199 
L 431.021393 -407.781453 
L 433.205858 -409.698814 
L 435.390323 -411.596618 
L 437.574788 -413.759402 
L 439.759253 -415.262535 
L 441.943719 -417.354124 
L 444.128184 -419.484339 
L 446.312649 -421.600586 
L 448.497114 -423.616844 
L 450.681579 -425.720796 
L 452.866045 -427.46732 
L 455.05051 -429.319247 
L 457.234975 -431.448406 
L 459.41944 -433.418048 
L 461.603905 -435.540511 
L 463.78837 -437.385059 
L 465.972836 -439.131675 
L 468.157301 -441.274484 
L 470.341766 -443.247644 
L 472.526231 -445.273689 
L 474.710696 -447.382934 
L 476.895162 -449.438864 
L 479.079627 -451.136994 
L 481.264092 -453.19543 
L 483.448557 -455.366664 
L 485.633022 -457.210387 
L 487.817487 -459.134062 
L 490.001953 -461.30008 
L 492.186418 -463.288818 
L 494.370883 -465.293768 
L 496.555348 -467.292922 
L 498.739813 -469.348338 
L 500.924279 -471.091347 
L 503.108744 -472.958172 
L 505.293209 -474.962121 
L 507.477674 -477.060477 
L 509.662139 -479.156409 
L 511.846604 -481.253903 
L 514.03107 -483.233228 
L 516.215535 -485.091255 
L 518.4 -487.112727 
L 518.4 -370.904967 
L 518.4 -370.904967 
L 516.215535 -370.904967 
L 514.03107 -370.904967 
L 511.846604 -370.904967 
L 509.662139 -370.904967 
L 507.477674 -370.904967 
L 505.293209 -370.904967 
L 503.108744 -370.904967 
L 500.924279 -370.904967 
L 498.739813 -370.904967 
L 496.555348 -370.904967 
L 494.370883 -370.904967 
L 492.186418 -370.904967 
L 490.001953 -370.904967 
L 487.817487 -370.904967 
L 485.633022 -370.904967 
L 483.448557 -370.904967 
L 481.264092 -370.904967 
L 479.079627 -370.904967 
L 476.895162 -370.904967 
L 474.710696 -370.904967 
L 472.526231 -370.904967 
L 470.341766 -370.904967 
L 468.157301 -370.904967 
L 465.972836 -370.904967 
L 463.78837 -370.904967 
L 461.603905 -370.904967 
L 459.41944 -370.904967 
L 457.234975 -370.904967 
L 455.05051 -370.904967 
L 452.866045 -370.904967 
L 450.681579 -370.904967 
L 448.497114 -370.904967 
L 446.312649 -370.904967 
L 444.128184 -370.904967 
L 441.943719 -370.904967 
L 439.759253 -370.904967 
L 437.574788 -370.904967 
L 435.390323 -370.904967 
L 433.205858 -370.904967 
L 431.021393 -370.904967 
L 428.836927 -370.904967 
L 426.652462 -370.904967 
L 424.467997 -370.904967 
L 422.283532 -370.904967 
L 420.099067 -370.904967 
L 417.914602 -370.904967 
L 415.730136 -370.904967 
L 413.545671 -370.904967 
L 411.361206 -370.904967 
L 409.176741 -370.904967 
L 406.992276 -370.643782 
L 404.80781 -368.527267 
L 402.623345 -366.807381 
L 400.43888 -364.706964 
L 398.254415 -362.606547 
L 396.06995 -360.506132 
L 393.885485 -358.405715 
L 391.701019 -356.710087 
L 389.516554 -354.633704 
L 387.332089 -352.545794 
L 385.147624 -350.380717 
L 382.963159 -348.215618 
L 380.778693 -346.050541 
L 378.594228 -343.885464 
L 376.409763 -341.720366 
L 374.225298 -339.555289 
L 372.040833 -337.401551 
L 369.856368 -335.301134 
L 367.671902 -333.200717 
L 365.487437 -331.1003 
L 363.302972 -328.999883 
L 361.118507 -326.899466 
L 358.934042 -324.799052 
L 356.749576 -322.698635 
L 354.565111 -320.598218 
L 352.380646 -318.497801 
L 350.196181 -316.397384 
L 348.011716 -314.296967 
L 345.827251 -312.196553 
L 343.642785 -310.096136 
L 341.45832 -307.995719 
L 339.273855 -305.895302 
L 337.08939 -303.794885 
L 334.904925 -301.694468 
L 332.720459 -299.594053 
L 330.535994 -297.493636 
L 328.351529 -295.393219 
L 326.167064 -293.292802 
L 323.982599 -291.192385 
L 321.798134 -289.091968 
L 319.613668 -286.991554 
L 317.429203 -284.891137 
L 315.244738 -282.79072 
L 313.060273 -280.690303 
L 310.875808 -278.589886 
L 308.691342 -276.489469 
L 306.506877 -274.389055 
L 304.322412 -272.265866 
L 302.137947 -270.129577 
L 299.953482 -267.993287 
L 297.769017 -265.856997 
L 295.584551 -263.720708 
L 293.400086 -261.584418 
L 291.215621 -259.448128 
L 289.031156 -257.311839 
L 286.846691 -255.175549 
L 284.662225 -253.039259 
L 282.47776 -250.902969 
L 280.293295 -248.76668 
L 278.10883 -246.63039 
L 275.924365 -244.4941 
L 273.739899 -242.357811 
L 271.555434 -240.221521 
L 269.370969 -238.085231 
L 267.186504 -235.948944 
L 265.002039 -233.812654 
L 262.817574 -231.676364 
L 260.633108 -229.540075 
L 258.448643 -227.403785 
L 256.264178 -225.267495 
L 254.079713 -223.131206 
L 251.895248 -220.994916 
L 249.710782 -218.858626 
L 247.526317 -216.722337 
L 245.341852 -214.586047 
L 243.157387 -212.449757 
L 240.972922 -210.313468 
L 238.788457 -208.177178 
L 236.603991 -206.040888 
L 234.419526 -203.904598 
L 232.235061 -201.768309 
L 230.050596 -199.632019 
L 227.866131 -197.495729 
L 225.681665 -195.35944 
L 223.4972 -193.233245 
L 221.312735 -191.113448 
L 219.12827 -188.993652 
L 216.943805 -186.873855 
L 214.75934 -184.754057 
L 212.574874 -182.634262 
L 210.390409 -180.514465 
L 208.205944 -178.39467 
L 206.021479 -176.274872 
L 203.837014 -174.140313 
L 201.652548 -171.952606 
L 199.468083 -169.7649 
L 197.283618 -167.587674 
L 195.099153 -165.451384 
L 192.914688 -163.315094 
L 190.730223 -161.178805 
L 188.545757 -159.042515 
L 186.361292 -156.906225 
L 184.176827 -154.769935 
L 181.992362 -152.642958 
L 179.807897 -150.526443 
L 177.623431 -148.409931 
L 175.438966 -146.293419 
L 173.254501 -144.176904 
L 171.070036 -142.060392 
L 168.885571 -139.894356 
L 166.701106 -137.692909 
L 164.51664 -135.54333 
L 162.332175 -133.407041 
L 160.14771 -131.270751 
L 157.963245 -129.134461 
L 155.77878 -126.998172 
L 153.594314 -124.861882 
L 151.409849 -122.725592 
L 149.225384 -120.589303 
L 147.040919 -118.453013 
L 144.856454 -116.300546 
L 142.671989 -114.123995 
L 140.487523 -111.944515 
L 138.303058 -109.765032 
L 136.118593 -107.58555 
L 133.934128 -105.406069 
L 131.749663 -103.226587 
L 129.565197 -101.047105 
L 127.380732 -98.867623 
L 125.196267 -96.688142 
L 123.011802 -94.50866 
L 120.827337 -92.329178 
L 118.642872 -91.767273 
L 116.458406 -91.767273 
L 114.273941 -91.767273 
L 112.089476 -91.767273 
L 109.905011 -91.767273 
L 107.720546 -91.767273 
L 105.53608 -91.767273 
L 103.351615 -91.767273 
L 101.16715 -91.767273 
L 98.982685 -91.767273 
L 96.79822 -91.767273 
L 94.613754 -91.767273 
L 92.429289 -91.767273 
L 90.244824 -91.767273 
L 88.060359 -91.767273 
L 85.875894 -91.767273 
L 83.691429 -91.767273 
z
" id="m82271d06c5"/>
    </defs>
    <g clip-path="url(#pa9a0c562fc)">
     <use style="fill:#dc143c;fill-opacity:0.2;" x="0" xlink:href="#m82271d06c5" y="576"/>
    </g>
   </g>
   <g id="line2d_1">
    <path clip-path="url(#pa9a0c562fc)" d="M 83.691429 484.232727 
L 112.089476 484.232727 
L 114.273941 482.365266 
L 206.021479 393.046246 
L 221.312735 378.245521 
L 297.769017 303.212146 
L 310.875808 290.521824 
L 321.798134 279.792189 
L 343.642785 258.45752 
L 376.409763 226.714177 
L 389.516554 213.999915 
L 435.390323 169.784997 
L 439.759253 165.730663 
L 441.943719 163.811363 
L 446.312649 159.733712 
L 461.603905 145.454144 
L 463.78837 143.644968 
L 474.710696 133.439633 
L 476.895162 131.888783 
L 483.448557 125.774174 
L 485.633022 124.197129 
L 494.370883 116.200026 
L 496.555348 114.115769 
L 500.924279 110.57253 
L 511.846604 102.792384 
L 514.03107 101.820364 
L 518.4 98.076584 
L 518.4 98.076584 
" style="fill:none;stroke:#dc143c;stroke-linecap:round;stroke-width:2;"/>
   </g>
   <g id="patch_3">
    <path d="M 72 504 
L 72 69.12 
" style="fill:none;stroke:#262626;stroke-linecap:square;stroke-linejoin:miter;stroke-width:1.875;"/>
   </g>
   <g id="patch_4">
    <path d="M 518.4 504 
L 518.4 69.12 
" style="fill:none;stroke:#262626;stroke-linecap:square;stroke-linejoin:miter;stroke-width:1.875;"/>
   </g>
   <g id="patch_5">
    <path d="M 72 504 
L 518.4 504 
" style="fill:none;stroke:#262626;stroke-linecap:square;stroke-linejoin:miter;stroke-width:1.875;"/>
   </g>
   <g id="patch_6">
    <path d="M 72 69.12 
L 518.4 69.12 
" style="fill:none;stroke:#262626;stroke-linecap:square;stroke-linejoin:miter;stroke-width:1.875;"/>
   </g>
   <g id="legend_1">
    <g id="patch_7">
     <path d="M 83.9 180.021875 
L 235.754687 180.021875 
Q 239.154687 180.021875 239.154687 176.621875 
L 239.154687 81.02 
Q 239.154687 77.62 235.754687 77.62 
L 83.9 77.62 
Q 80.5 77.62 80.5 81.02 
L 80.5 176.621875 
Q 80.5 180.021875 83.9 180.021875 
z
" style="fill:#ffffff;opacity:0.8;stroke:#cccccc;stroke-linejoin:miter;stroke-width:1.5;"/>
    </g>
    <g id="text_13">
     <!-- Nutrient Limitation -->
     <g style="fill:#262626;" transform="translate(87.3 97.304062)scale(0.18 -0.18)">
      <defs>
       <path d="M 7.625 0 
L 7.625 71.578125 
L 17.328125 71.578125 
L 54.9375 15.375 
L 54.9375 71.578125 
L 64.015625 71.578125 
L 64.015625 0 
L 54.296875 0 
L 16.703125 56.25 
L 16.703125 0 
z
" id="ArialMT-78"/>
       <path d="M 7.328125 0 
L 7.328125 71.578125 
L 16.796875 71.578125 
L 16.796875 8.453125 
L 52.046875 8.453125 
L 52.046875 0 
z
" id="ArialMT-76"/>
       <path d="M 6.59375 0 
L 6.59375 51.859375 
L 14.453125 51.859375 
L 14.453125 44.578125 
Q 16.890625 48.390625 20.9375 50.703125 
Q 25 53.03125 30.171875 53.03125 
Q 35.9375 53.03125 39.625 50.640625 
Q 43.3125 48.25 44.828125 43.953125 
Q 50.984375 53.03125 60.84375 53.03125 
Q 68.5625 53.03125 72.703125 48.75 
Q 76.859375 44.484375 76.859375 35.59375 
L 76.859375 0 
L 68.109375 0 
L 68.109375 32.671875 
Q 68.109375 37.9375 67.25 40.25 
Q 66.40625 42.578125 64.15625 43.984375 
Q 61.921875 45.40625 58.890625 45.40625 
Q 53.421875 45.40625 49.796875 41.765625 
Q 46.1875 38.140625 46.1875 30.125 
L 46.1875 0 
L 37.40625 0 
L 37.40625 33.6875 
Q 37.40625 39.546875 35.25 42.46875 
Q 33.109375 45.40625 28.21875 45.40625 
Q 24.515625 45.40625 21.359375 43.453125 
Q 18.21875 41.5 16.796875 37.734375 
Q 15.375 33.984375 15.375 26.90625 
L 15.375 0 
z
" id="ArialMT-109"/>
      </defs>
      <use xlink:href="#ArialMT-78"/>
      <use x="72.216797" xlink:href="#ArialMT-117"/>
      <use x="127.832031" xlink:href="#ArialMT-116"/>
      <use x="155.615234" xlink:href="#ArialMT-114"/>
      <use x="188.916016" xlink:href="#ArialMT-105"/>
      <use x="211.132812" xlink:href="#ArialMT-101"/>
      <use x="266.748047" xlink:href="#ArialMT-110"/>
      <use x="322.363281" xlink:href="#ArialMT-116"/>
      <use x="350.146484" xlink:href="#ArialMT-32"/>
      <use x="377.929688" xlink:href="#ArialMT-76"/>
      <use x="433.544922" xlink:href="#ArialMT-105"/>
      <use x="455.761719" xlink:href="#ArialMT-109"/>
      <use x="539.0625" xlink:href="#ArialMT-105"/>
      <use x="561.279297" xlink:href="#ArialMT-116"/>
      <use x="589.0625" xlink:href="#ArialMT-97"/>
      <use x="644.677734" xlink:href="#ArialMT-116"/>
      <use x="672.460938" xlink:href="#ArialMT-105"/>
      <use x="694.677734" xlink:href="#ArialMT-111"/>
      <use x="750.292969" xlink:href="#ArialMT-110"/>
     </g>
    </g>
    <g id="line2d_2"/>
    <g id="line2d_3">
     <defs>
      <path d="M 0 4.5 
C 1.193414 4.5 2.338109 4.025852 3.181981 3.181981 
C 4.025852 2.338109 4.5 1.193414 4.5 0 
C 4.5 -1.193414 4.025852 -2.338109 3.181981 -3.181981 
C 2.338109 -4.025852 1.193414 -4.5 0 -4.5 
C -1.193414 -4.5 -2.338109 -4.025852 -3.181981 -3.181981 
C -4.025852 -2.338109 -4.5 -1.193414 -4.5 0 
C -4.5 1.193414 -4.025852 2.338109 -3.181981 3.181981 
C -2.338109 4.025852 -1.193414 4.5 0 4.5 
z
" id="m1a663c49ea" style="stroke:#808080;"/>
     </defs>
     <g>
      <use style="fill:#808080;stroke:#808080;" x="107.666562" xlink:href="#m1a663c49ea" y="115.599844"/>
     </g>
    </g>
    <g id="text_14">
     <!-- Carbon -->
     <g style="fill:#262626;" transform="translate(138.266562 121.549844)scale(0.17 -0.17)">
      <defs>
       <path d="M 58.796875 25.09375 
L 68.265625 22.703125 
Q 65.28125 11.03125 57.546875 4.90625 
Q 49.8125 -1.21875 38.625 -1.21875 
Q 27.046875 -1.21875 19.796875 3.484375 
Q 12.546875 8.203125 8.765625 17.140625 
Q 4.984375 26.078125 4.984375 36.328125 
Q 4.984375 47.515625 9.25 55.828125 
Q 13.53125 64.15625 21.40625 68.46875 
Q 29.296875 72.796875 38.765625 72.796875 
Q 49.515625 72.796875 56.828125 67.328125 
Q 64.15625 61.859375 67.046875 51.953125 
L 57.71875 49.75 
Q 55.21875 57.5625 50.484375 61.125 
Q 45.75 64.703125 38.578125 64.703125 
Q 30.328125 64.703125 24.78125 60.734375 
Q 19.234375 56.78125 16.984375 50.109375 
Q 14.75 43.453125 14.75 36.375 
Q 14.75 27.25 17.40625 20.4375 
Q 20.0625 13.625 25.671875 10.25 
Q 31.296875 6.890625 37.84375 6.890625 
Q 45.796875 6.890625 51.3125 11.46875 
Q 56.84375 16.0625 58.796875 25.09375 
z
" id="ArialMT-67"/>
       <path d="M 14.703125 0 
L 6.546875 0 
L 6.546875 71.578125 
L 15.328125 71.578125 
L 15.328125 46.046875 
Q 20.90625 53.03125 29.546875 53.03125 
Q 34.328125 53.03125 38.59375 51.09375 
Q 42.875 49.171875 45.625 45.671875 
Q 48.390625 42.1875 49.953125 37.25 
Q 51.515625 32.328125 51.515625 26.703125 
Q 51.515625 13.375 44.921875 6.09375 
Q 38.328125 -1.171875 29.109375 -1.171875 
Q 19.921875 -1.171875 14.703125 6.5 
z
M 14.59375 26.3125 
Q 14.59375 17 17.140625 12.84375 
Q 21.296875 6.0625 28.375 6.0625 
Q 34.125 6.0625 38.328125 11.0625 
Q 42.53125 16.0625 42.53125 25.984375 
Q 42.53125 36.140625 38.5 40.96875 
Q 34.46875 45.796875 28.765625 45.796875 
Q 23 45.796875 18.796875 40.796875 
Q 14.59375 35.796875 14.59375 26.3125 
z
" id="ArialMT-98"/>
      </defs>
      <use xlink:href="#ArialMT-67"/>
      <use x="72.216797" xlink:href="#ArialMT-97"/>
      <use x="127.832031" xlink:href="#ArialMT-114"/>
      <use x="161.132812" xlink:href="#ArialMT-98"/>
      <use x="216.748047" xlink:href="#ArialMT-111"/>
      <use x="272.363281" xlink:href="#ArialMT-110"/>
     </g>
    </g>
    <g id="line2d_4"/>
    <g id="line2d_5">
     <defs>
      <path d="M 0 4.5 
C 1.193414 4.5 2.338109 4.025852 3.181981 3.181981 
C 4.025852 2.338109 4.5 1.193414 4.5 0 
C 4.5 -1.193414 4.025852 -2.338109 3.181981 -3.181981 
C 2.338109 -4.025852 1.193414 -4.5 0 -4.5 
C -1.193414 -4.5 -2.338109 -4.025852 -3.181981 -3.181981 
C -4.025852 -2.338109 -4.5 -1.193414 -4.5 0 
C -4.5 1.193414 -4.025852 2.338109 -3.181981 3.181981 
C -2.338109 4.025852 -1.193414 4.5 0 4.5 
z
" id="m4d84985e7d" style="stroke:#daa520;"/>
     </defs>
     <g>
      <use style="fill:#daa520;stroke:#daa520;" x="107.666562" xlink:href="#m4d84985e7d" y="139.646875"/>
     </g>
    </g>
    <g id="text_15">
     <!-- Nitrogen -->
     <g style="fill:#262626;" transform="translate(138.266562 145.596875)scale(0.17 -0.17)">
      <defs>
       <path d="M 4.984375 -4.296875 
L 13.53125 -5.5625 
Q 14.0625 -9.515625 16.5 -11.328125 
Q 19.78125 -13.765625 25.4375 -13.765625 
Q 31.546875 -13.765625 34.859375 -11.328125 
Q 38.1875 -8.890625 39.359375 -4.5 
Q 40.046875 -1.8125 39.984375 6.78125 
Q 34.234375 0 25.640625 0 
Q 14.9375 0 9.078125 7.71875 
Q 3.21875 15.4375 3.21875 26.21875 
Q 3.21875 33.640625 5.90625 39.90625 
Q 8.59375 46.1875 13.6875 49.609375 
Q 18.796875 53.03125 25.6875 53.03125 
Q 34.859375 53.03125 40.828125 45.609375 
L 40.828125 51.859375 
L 48.921875 51.859375 
L 48.921875 7.03125 
Q 48.921875 -5.078125 46.453125 -10.125 
Q 44 -15.1875 38.640625 -18.109375 
Q 33.296875 -21.046875 25.484375 -21.046875 
Q 16.21875 -21.046875 10.5 -16.875 
Q 4.78125 -12.703125 4.984375 -4.296875 
z
M 12.25 26.859375 
Q 12.25 16.65625 16.296875 11.96875 
Q 20.359375 7.28125 26.46875 7.28125 
Q 32.515625 7.28125 36.609375 11.9375 
Q 40.71875 16.609375 40.71875 26.5625 
Q 40.71875 36.078125 36.5 40.90625 
Q 32.28125 45.75 26.3125 45.75 
Q 20.453125 45.75 16.34375 40.984375 
Q 12.25 36.234375 12.25 26.859375 
z
" id="ArialMT-103"/>
      </defs>
      <use xlink:href="#ArialMT-78"/>
      <use x="72.216797" xlink:href="#ArialMT-105"/>
      <use x="94.433594" xlink:href="#ArialMT-116"/>
      <use x="122.216797" xlink:href="#ArialMT-114"/>
      <use x="155.517578" xlink:href="#ArialMT-111"/>
      <use x="211.132812" xlink:href="#ArialMT-103"/>
      <use x="266.748047" xlink:href="#ArialMT-101"/>
      <use x="322.363281" xlink:href="#ArialMT-110"/>
     </g>
    </g>
    <g id="line2d_6"/>
    <g id="line2d_7">
     <defs>
      <path d="M 0 4.5 
C 1.193414 4.5 2.338109 4.025852 3.181981 3.181981 
C 4.025852 2.338109 4.5 1.193414 4.5 0 
C 4.5 -1.193414 4.025852 -2.338109 3.181981 -3.181981 
C 2.338109 -4.025852 1.193414 -4.5 0 -4.5 
C -1.193414 -4.5 -2.338109 -4.025852 -3.181981 -3.181981 
C -4.025852 -2.338109 -4.5 -1.193414 -4.5 0 
C -4.5 1.193414 -4.025852 2.338109 -3.181981 3.181981 
C -2.338109 4.025852 -1.193414 4.5 0 4.5 
z
" id="m1ebd2b0f4a" style="stroke:#008080;"/>
     </defs>
     <g>
      <use style="fill:#008080;stroke:#008080;" x="107.666562" xlink:href="#m1ebd2b0f4a" y="163.893125"/>
     </g>
    </g>
    <g id="text_16">
     <!-- Phosphorus -->
     <g style="fill:#262626;" transform="translate(138.266562 169.843125)scale(0.17 -0.17)">
      <use xlink:href="#ArialMT-80"/>
      <use x="66.699219" xlink:href="#ArialMT-104"/>
      <use x="122.314453" xlink:href="#ArialMT-111"/>
      <use x="177.929688" xlink:href="#ArialMT-115"/>
      <use x="227.929688" xlink:href="#ArialMT-112"/>
      <use x="283.544922" xlink:href="#ArialMT-104"/>
      <use x="339.160156" xlink:href="#ArialMT-111"/>
      <use x="394.775391" xlink:href="#ArialMT-114"/>
      <use x="428.076172" xlink:href="#ArialMT-117"/>
      <use x="483.691406" xlink:href="#ArialMT-115"/>
     </g>
    </g>
   </g>
  </g>
 </g>
 <defs>
  <clipPath id="pa9a0c562fc">
   <rect height="434.88" width="446.4" x="72" y="69.12"/>
  </clipPath>
 </defs>
</svg>
