<?xml version="1.0" encoding="utf-8"?>
<!-- Generator: Adobe Illustrator 24.0.1, SVG Export Plug-In . SVG Version: 6.00 Build 0)  -->
<svg version="1.1" id="Layer_1" xmlns="http://www.w3.org/2000/svg" xmlns:xlink="http://www.w3.org/1999/xlink" x="0px" y="0px"
	 viewBox="0 0 720 720" style="enable-background:new 0 0 720 720;" xml:space="preserve">
<style type="text/css">
	.st0{fill:#FFFFFF;}
	.st1{fill:#262626;}
	.st2{clip-path:url(#SVGID_2_);fill:#C32D4B;stroke:#FFFFFF;stroke-width:1.5;}
	.st3{clip-path:url(#SVGID_4_);fill:#C32D4B;stroke:#FFFFFF;stroke-width:1.5;}
	.st4{clip-path:url(#SVGID_6_);fill:#C32D4B;stroke:#FFFFFF;stroke-width:1.5;}
	.st5{clip-path:url(#SVGID_8_);fill:#C32D4B;stroke:#FFFFFF;stroke-width:1.5;}
	.st6{clip-path:url(#SVGID_10_);fill:#C32D4B;stroke:#FFFFFF;stroke-width:1.5;}
	.st7{clip-path:url(#SVGID_12_);fill:#C32D4B;stroke:#FFFFFF;stroke-width:1.5;}
	.st8{clip-path:url(#SVGID_14_);fill:#C32D4B;stroke:#FFFFFF;stroke-width:1.5;}
	.st9{clip-path:url(#SVGID_16_);fill:#C32D4B;stroke:#FFFFFF;stroke-width:1.5;}
	.st10{clip-path:url(#SVGID_18_);fill:#C32D4B;stroke:#FFFFFF;stroke-width:1.5;}
	.st11{clip-path:url(#SVGID_20_);fill:#C32D4B;stroke:#FFFFFF;stroke-width:1.5;}
	.st12{clip-path:url(#SVGID_22_);fill:#C32D4B;stroke:#FFFFFF;stroke-width:1.5;}
	.st13{clip-path:url(#SVGID_24_);fill:#11117A;stroke:#FFFFFF;stroke-width:1.5;}
	.st14{clip-path:url(#SVGID_26_);fill:#11117A;stroke:#FFFFFF;stroke-width:1.5;}
	.st15{clip-path:url(#SVGID_28_);fill:#11117A;stroke:#FFFFFF;stroke-width:1.5;}
	.st16{clip-path:url(#SVGID_30_);fill:#11117A;stroke:#FFFFFF;stroke-width:1.5;}
	.st17{clip-path:url(#SVGID_32_);fill:#11117A;stroke:#FFFFFF;stroke-width:1.5;}
	.st18{clip-path:url(#SVGID_34_);fill:#11117A;stroke:#FFFFFF;stroke-width:1.5;}
	.st19{clip-path:url(#SVGID_36_);fill:#11117A;stroke:#FFFFFF;stroke-width:1.5;}
	.st20{clip-path:url(#SVGID_38_);fill:#11117A;stroke:#FFFFFF;stroke-width:1.5;}
	.st21{clip-path:url(#SVGID_40_);fill:#11117A;stroke:#FFFFFF;stroke-width:1.5;}
	.st22{clip-path:url(#SVGID_42_);fill:#11117A;stroke:#FFFFFF;stroke-width:1.5;}
	.st23{clip-path:url(#SVGID_44_);fill:#11117A;stroke:#FFFFFF;stroke-width:1.5;}
	.st24{clip-path:url(#SVGID_46_);fill:none;stroke:#424242;stroke-width:4.05;stroke-linecap:round;stroke-linejoin:round;}
	.st25{clip-path:url(#SVGID_48_);fill:none;stroke:#424242;stroke-width:4.05;stroke-linecap:round;stroke-linejoin:round;}
	.st26{clip-path:url(#SVGID_50_);fill:none;stroke:#424242;stroke-width:4.05;stroke-linecap:round;stroke-linejoin:round;}
	.st27{clip-path:url(#SVGID_52_);fill:none;stroke:#424242;stroke-width:4.05;stroke-linecap:round;stroke-linejoin:round;}
	.st28{clip-path:url(#SVGID_54_);fill:none;stroke:#424242;stroke-width:4.05;stroke-linecap:round;stroke-linejoin:round;}
	.st29{clip-path:url(#SVGID_56_);fill:none;stroke:#424242;stroke-width:4.05;stroke-linecap:round;stroke-linejoin:round;}
	.st30{clip-path:url(#SVGID_58_);fill:none;stroke:#424242;stroke-width:4.05;stroke-linecap:round;stroke-linejoin:round;}
	.st31{clip-path:url(#SVGID_60_);fill:none;stroke:#424242;stroke-width:4.05;stroke-linecap:round;stroke-linejoin:round;}
	.st32{clip-path:url(#SVGID_62_);fill:none;stroke:#424242;stroke-width:4.05;stroke-linecap:round;stroke-linejoin:round;}
	.st33{clip-path:url(#SVGID_64_);fill:none;stroke:#424242;stroke-width:4.05;stroke-linecap:round;stroke-linejoin:round;}
	.st34{clip-path:url(#SVGID_66_);fill:none;stroke:#424242;stroke-width:4.05;stroke-linecap:round;stroke-linejoin:round;}
	.st35{clip-path:url(#SVGID_68_);fill:none;stroke:#424242;stroke-width:4.05;stroke-linecap:round;stroke-linejoin:round;}
	.st36{clip-path:url(#SVGID_70_);fill:none;stroke:#424242;stroke-width:4.05;stroke-linecap:round;stroke-linejoin:round;}
	.st37{clip-path:url(#SVGID_72_);fill:none;stroke:#424242;stroke-width:4.05;stroke-linecap:round;stroke-linejoin:round;}
	.st38{clip-path:url(#SVGID_74_);fill:none;stroke:#424242;stroke-width:4.05;stroke-linecap:round;stroke-linejoin:round;}
	.st39{clip-path:url(#SVGID_76_);fill:none;stroke:#424242;stroke-width:4.05;stroke-linecap:round;stroke-linejoin:round;}
	.st40{clip-path:url(#SVGID_78_);fill:none;stroke:#424242;stroke-width:4.05;stroke-linecap:round;stroke-linejoin:round;}
	.st41{clip-path:url(#SVGID_80_);fill:none;stroke:#424242;stroke-width:4.05;stroke-linecap:round;stroke-linejoin:round;}
	.st42{clip-path:url(#SVGID_82_);fill:none;stroke:#424242;stroke-width:4.05;stroke-linecap:round;stroke-linejoin:round;}
	.st43{clip-path:url(#SVGID_84_);fill:none;stroke:#424242;stroke-width:4.05;stroke-linecap:round;stroke-linejoin:round;}
	.st44{clip-path:url(#SVGID_86_);fill:none;stroke:#424242;stroke-width:4.05;stroke-linecap:round;stroke-linejoin:round;}
	.st45{clip-path:url(#SVGID_88_);fill:none;stroke:#424242;stroke-width:4.05;stroke-linecap:round;stroke-linejoin:round;}
	.st46{fill:none;stroke:#000000;stroke-width:1.875;stroke-linecap:square;}
	.st47{opacity:0.8;fill:#FFFFFF;stroke:#CCCCCC;stroke-width:1.5;enable-background:new    ;}
	.st48{fill:#C32D4B;stroke:#FFFFFF;stroke-width:1.5;}
	.st49{fill:#11117A;stroke:#FFFFFF;stroke-width:1.5;}
</style>
<g id="figure_1">
	<g id="patch_1">
		<path class="st0" d="M0,354h354V0H0V354z"/>
	</g>
	<g id="axes_1">
		<g id="patch_2">
			<path class="st0" d="M44.2,309.7h274.3V42.5H44.2V309.7z"/>
		</g>
		<g id="matplotlib.axis_1">
			<g id="xtick_1">
				<g id="text_1">
					<g transform="translate(104.756455 678.09791)rotate(-45)scale(0.165 -0.165)">
						<g>
							<path id="ArialMT-65" class="st1" d="M1249,1705.5l13.5,35.2h5l14.4-35.2h-5.3l-4.1,10.7h-14.7l-3.9-10.7H1249z M1259.2,1720
								h11.9l-3.7,9.7c-1.1,3-2,5.4-2.5,7.3c-0.5-2.3-1.1-4.5-1.9-6.7L1259.2,1720z"/>
						</g>
						<g>
							<path id="ArialMT-53" class="st1" d="M1283.9,1714.7l4.5,0.4c0.3-2.2,1.1-3.9,2.3-5c1.2-1.1,2.7-1.7,4.4-1.7
								c2.1,0,3.8,0.8,5.3,2.4c1.4,1.6,2.2,3.7,2.2,6.2c0,2.5-0.7,4.4-2.1,5.8c-1.4,1.4-3.2,2.1-5.4,2.1c-1.4,0-2.7-0.3-3.8-1
								c-1.1-0.6-2-1.4-2.6-2.5l-4.1,0.5l3.4,18.1h17.5v-4.1h-14l-1.9-9.5c2.1,1.5,4.3,2.2,6.6,2.2c3.1,0,5.7-1.1,7.8-3.2
								c2.1-2.1,3.2-4.9,3.2-8.2c0-3.2-0.9-5.9-2.8-8.3c-2.3-2.8-5.3-4.3-9.2-4.3c-3.2,0-5.8,0.9-7.8,2.7
								C1285.4,1709.4,1284.2,1711.8,1283.9,1714.7z"/>
						</g>
						<g>
							<path id="ArialMT-52" class="st1" d="M1325.1,1705.5v8.4h-15.3v4l16.1,22.8h3.5v-22.8h4.8v-4h-4.8v-8.4H1325.1z
								 M1325.1,1717.9v15.9l-11-15.9H1325.1z"/>
						</g>
						<g>
							<path id="ArialMT-57" class="st1" d="M1339.2,1713.7l4.2,0.4c0.3-2,1-3.4,2-4.2c1-0.9,2.3-1.3,3.8-1.3c1.3,0,2.5,0.3,3.5,0.9
								c1,0.6,1.8,1.4,2.5,2.4c0.6,1,1.2,2.4,1.6,4.1c0.4,1.7,0.7,3.5,0.7,5.3c0,0.2,0,0.5,0,0.9c-0.9-1.4-2-2.5-3.5-3.3
								c-1.5-0.9-3.1-1.3-4.9-1.3c-2.9,0-5.4,1.1-7.4,3.2c-2,2.1-3,4.9-3,8.4c0,3.6,1.1,6.4,3.2,8.6c2.1,2.2,4.7,3.3,7.9,3.3
								c2.3,0,4.4-0.6,6.3-1.9c1.9-1.2,3.3-3,4.3-5.3c1-2.3,1.5-5.6,1.5-9.9c0-4.5-0.5-8.1-1.5-10.7c-1-2.7-2.4-4.7-4.4-6.1
								c-1.9-1.4-4.2-2.1-6.8-2.1c-2.8,0-5,0.8-6.8,2.3C1340.6,1708.7,1339.6,1710.9,1339.2,1713.7z M1356.9,1729.2
								c0,2.5-0.7,4.5-2,5.9c-1.3,1.5-2.9,2.2-4.8,2.2c-1.9,0-3.6-0.8-5-2.4c-1.4-1.6-2.1-3.6-2.1-6.1c0-2.2,0.7-4.1,2-5.5
								c1.4-1.4,3-2.1,5-2.1c2,0,3.6,0.7,4.9,2.1C1356.3,1724.8,1356.9,1726.7,1356.9,1729.2z"/>
						</g>
					</g>
				</g>
			</g>
			<g id="xtick_2">
				<g id="text_2">
					<g transform="translate(151.28169 686.501984)rotate(-45)scale(0.165 -0.165)">
						<g>
							<path id="ArialMT-71" class="st1" d="M1186.3,1839v4.1l14.9,0v-13.1c-2.3-1.8-4.6-3.2-7.1-4.1c-2.4-0.9-4.9-1.4-7.5-1.4
								c-3.5,0-6.6,0.7-9.4,2.2c-2.8,1.5-5,3.6-6.4,6.4c-1.4,2.8-2.2,5.9-2.2,9.4c0,3.4,0.7,6.6,2.1,9.6c1.4,3,3.5,5.2,6.2,6.6
								s5.8,2.2,9.3,2.2c2.5,0,4.8-0.4,6.9-1.2c2.1-0.8,3.7-2,4.8-3.4c1.2-1.5,2.1-3.4,2.7-5.8l-4.2-1.2c-0.5,1.8-1.2,3.2-2,4.2
								c-0.8,1-1.9,1.8-3.4,2.5c-1.5,0.6-3.1,0.9-4.8,0.9c-2.1,0-4-0.3-5.5-1c-1.6-0.6-2.8-1.5-3.8-2.6c-1-1.1-1.7-2.2-2.2-3.5
								c-0.9-2.2-1.3-4.5-1.3-7.1c0-3.1,0.5-5.8,1.6-7.9c1.1-2.1,2.7-3.7,4.7-4.7c2.1-1,4.3-1.5,6.6-1.5c2,0,4,0.4,5.9,1.2
								c1.9,0.8,3.4,1.6,4.4,2.5v6.6H1186.3z"/>
						</g>
						<g>
							<path id="ArialMT-65_1_" class="st1" d="M1204.2,1825.2l13.5,35.2h5l14.4-35.2h-5.3l-4.1,10.7H1213l-3.9-10.7H1204.2z
								 M1214.4,1839.6h11.9l-3.7,9.7c-1.1,3-2,5.4-2.5,7.3c-0.5-2.3-1.1-4.5-1.9-6.7L1214.4,1839.6z"/>
						</g>
						<g>
							<path id="ArialMT-77" class="st1" d="M1240.7,1825.2v35.2h7l8.3-24.9c0.8-2.3,1.3-4.1,1.7-5.2c0.4,1.3,1,3.2,1.9,5.6
								l8.4,24.5h6.3v-35.2h-4.5v29.5l-10.2-29.5h-4.2l-10.2,30v-30H1240.7z"/>
						</g>
						<g>
							<path id="ArialMT-71_1_" class="st1" d="M1298.3,1839v4.1l14.9,0v-13.1c-2.3-1.8-4.6-3.2-7.1-4.1c-2.4-0.9-4.9-1.4-7.5-1.4
								c-3.5,0-6.6,0.7-9.4,2.2c-2.8,1.5-5,3.6-6.4,6.4s-2.2,5.9-2.2,9.4c0,3.4,0.7,6.6,2.1,9.6c1.4,3,3.5,5.2,6.2,6.6
								s5.8,2.2,9.3,2.2c2.5,0,4.8-0.4,6.9-1.2c2.1-0.8,3.7-2,4.8-3.4c1.2-1.5,2.1-3.4,2.7-5.8l-4.2-1.2c-0.5,1.8-1.2,3.2-2,4.2
								c-0.8,1-1.9,1.8-3.4,2.5c-1.5,0.6-3.1,0.9-4.8,0.9c-2.1,0-4-0.3-5.5-1c-1.6-0.6-2.8-1.5-3.8-2.6c-1-1.1-1.7-2.2-2.2-3.5
								c-0.9-2.2-1.3-4.5-1.3-7.1c0-3.1,0.5-5.8,1.6-7.9c1.1-2.1,2.7-3.7,4.7-4.7c2.1-1,4.3-1.5,6.6-1.5c2,0,4,0.4,5.9,1.2
								c1.9,0.8,3.4,1.6,4.4,2.5v6.6H1298.3z"/>
						</g>
					</g>
				</g>
			</g>
			<g id="xtick_3">
				<g id="text_3">
					<g transform="translate(198.106811 694.306289)rotate(-45)scale(0.165 -0.165)">
						<g>
							<path id="ArialMT-72" class="st1" d="M1085,1944.2v35.2h4.7v-14.4h18.3v14.4h4.7v-35.2h-4.7v16.6h-18.3v-16.6H1085z"/>
						</g>
						<g>
							<path id="ArialMT-69" class="st1" d="M1120.4,1944.2v35.2h25.4v-4.1h-20.8v-10.8h19.5v-4.1h-19.5v-12h21.6v-4.2H1120.4z"/>
						</g>
						<g>
							<path id="ArialMT-75" class="st1" d="M1152.9,1944.2v35.2h4.7v-17.5l17.5,17.5h6.3l-14.8-14.3l15.4-20.9h-6.1l-12.5,17.8
								l-5.8-5.6v-12.2H1152.9z"/>
						</g>
						<g>
							<path id="ArialMT-50" class="st1" d="M1206.9,1948.4v-4.2h-23.3c0,1,0.1,2,0.5,3c0.6,1.6,1.5,3.1,2.8,4.7
								c1.3,1.5,3.2,3.3,5.7,5.3c3.8,3.1,6.4,5.6,7.8,7.5c1.3,1.8,2,3.6,2,5.2c0,1.7-0.6,3.2-1.8,4.3c-1.2,1.2-2.8,1.8-4.8,1.8
								c-2.1,0-3.7-0.6-5-1.9c-1.2-1.2-1.9-3-1.9-5.2l-4.4,0.5c0.3,3.3,1.4,5.8,3.4,7.6c2,1.7,4.7,2.6,8,2.6c3.4,0,6-0.9,8-2.8
								c2-1.9,3-4.2,3-7c0-1.4-0.3-2.8-0.9-4.2c-0.6-1.4-1.5-2.8-2.9-4.3c-1.3-1.5-3.6-3.6-6.7-6.2c-2.6-2.2-4.3-3.7-5-4.4
								c-0.7-0.8-1.3-1.6-1.8-2.3H1206.9z"/>
						</g>
						<g>
							<path id="ArialMT-57_1_" class="st1" d="M1212.1,1952.3l4.2,0.4c0.3-2,1-3.4,2-4.2s2.3-1.3,3.8-1.3c1.3,0,2.5,0.3,3.5,0.9
								c1,0.6,1.8,1.4,2.5,2.4c0.6,1,1.2,2.4,1.6,4.1c0.4,1.7,0.7,3.5,0.7,5.3c0,0.2,0,0.5,0,0.9c-0.9-1.4-2-2.5-3.5-3.3
								c-1.5-0.9-3.1-1.3-4.9-1.3c-2.9,0-5.4,1.1-7.4,3.2c-2,2.1-3,4.9-3,8.4c0,3.6,1.1,6.4,3.2,8.6c2.1,2.2,4.7,3.3,7.9,3.3
								c2.3,0,4.4-0.6,6.3-1.9c1.9-1.2,3.3-3,4.3-5.3c1-2.3,1.5-5.6,1.5-9.9c0-4.5-0.5-8.1-1.5-10.7c-1-2.7-2.4-4.7-4.4-6.1
								c-1.9-1.4-4.2-2.1-6.8-2.1c-2.8,0-5,0.8-6.8,2.3C1213.5,1947.4,1212.5,1949.6,1212.1,1952.3z M1229.8,1967.9
								c0,2.5-0.7,4.5-2,5.9c-1.3,1.5-2.9,2.2-4.8,2.2c-1.9,0-3.6-0.8-5-2.4c-1.4-1.6-2.1-3.6-2.1-6.1c0-2.2,0.7-4.1,2-5.5
								c1.4-1.4,3-2.1,5-2.1c2,0,3.6,0.7,4.9,2.1C1229.2,1963.5,1229.8,1965.4,1229.8,1967.9z"/>
						</g>
						<g>
							<path id="ArialMT-51" class="st1" d="M1238.9,1953.5l4.3,0.6c0.5-2.4,1.3-4.2,2.5-5.3s2.6-1.6,4.4-1.6c2,0,3.7,0.7,5.1,2.1
								c1.4,1.4,2.1,3.2,2.1,5.2c0,2-0.6,3.6-1.9,4.9c-1.3,1.3-2.9,1.9-4.9,1.9c-0.8,0-1.8-0.2-3-0.5l0.5,3.8c0.3,0,0.5-0.1,0.7-0.1
								c1.8,0,3.5,0.5,5,1.4c1.5,1,2.2,2.4,2.2,4.4c0,1.6-0.5,2.9-1.6,3.9c-1.1,1-2.5,1.6-4.1,1.6c-1.7,0-3.1-0.5-4.2-1.6
								c-1.1-1.1-1.8-2.6-2.2-4.7l-4.3,0.8c0.5,2.9,1.7,5.1,3.6,6.7c1.9,1.6,4.2,2.4,7,2.4c1.9,0,3.7-0.4,5.3-1.2
								c1.6-0.8,2.9-1.9,3.7-3.4c0.9-1.4,1.3-2.9,1.3-4.5c0-1.5-0.4-2.9-1.2-4.1c-0.8-1.2-2-2.2-3.6-3c2.1-0.5,3.7-1.5,4.8-3
								c1.2-1.5,1.7-3.4,1.7-5.7c0-3.1-1.1-5.7-3.4-7.8c-2.2-2.1-5.1-3.2-8.5-3.2c-3.1,0-5.7,0.9-7.7,2.8
								C1240.3,1948.2,1239.1,1950.6,1238.9,1953.5z"/>
						</g>
					</g>
				</g>
			</g>
			<g id="xtick_4">
				<g id="text_4">
					<g transform="translate(256.616512 678.741432)rotate(-45)scale(0.165 -0.165)">
						<g>
							<path id="ArialMT-72_1_" class="st1" d="M923.6,2037.8v35.2h4.7v-14.4h18.3v14.4h4.7v-35.2h-4.7v16.6h-18.3v-16.6H923.6z"/>
						</g>
						<g>
							<path id="ArialMT-101" class="st1" d="M975.8,2046l4.5-0.6c-0.7-2.6-2-4.6-3.9-6.1c-1.9-1.4-4.3-2.2-7.3-2.2
								c-3.7,0-6.7,1.1-8.9,3.4c-2.2,2.3-3.3,5.5-3.3,9.7c0,4.3,1.1,7.6,3.3,10c2.2,2.4,5.1,3.6,8.6,3.6c3.4,0,6.2-1.2,8.4-3.5
								s3.2-5.6,3.2-9.8c0-0.3,0-0.6,0-1.2h-19c0.2-2.8,0.9-4.9,2.4-6.4c1.4-1.5,3.2-2.2,5.3-2.2c1.6,0,2.9,0.4,4.1,1.2
								C974.3,2042.8,975.2,2044.2,975.8,2046z M961.7,2053h14.2c-0.2,2.1-0.7,3.8-1.6,4.8c-1.4,1.7-3.2,2.5-5.4,2.5
								c-2,0-3.7-0.7-5-2S961.8,2055.2,961.7,2053z"/>
						</g>
						<g>
							<path id="ArialMT-76" class="st1" d="M986.1,2037.8v35.2h4.7v-31h17.3v-4.2H986.1z"/>
						</g>
						<g>
							<path id="ArialMT-97" class="st1" d="M1029.7,2040.9c-1.6-1.4-3.1-2.3-4.6-2.9c-1.5-0.6-3.1-0.8-4.8-0.8
								c-2.8,0-5,0.7-6.5,2.1c-1.5,1.4-2.3,3.1-2.3,5.2c0,1.2,0.3,2.4,0.9,3.4c0.6,1,1.3,1.9,2.2,2.5s2,1.1,3.1,1.4
								c0.8,0.2,2.1,0.4,3.8,0.7c3.5,0.4,6.1,0.9,7.7,1.5c0,0.6,0,1,0,1.1c0,1.8-0.4,3-1.2,3.7c-1.1,1-2.7,1.5-4.9,1.5
								c-2,0-3.5-0.4-4.5-1.1c-1-0.7-1.7-2-2.2-3.8l-4.2,0.6c0.4,1.8,1,3.3,1.9,4.4c0.9,1.1,2.2,2,3.8,2.6c1.7,0.6,3.6,0.9,5.8,0.9
								c2.2,0,3.9-0.3,5.3-0.8c1.4-0.5,2.4-1.2,3-1.9c0.6-0.8,1.1-1.8,1.3-2.9c0.1-0.7,0.2-2.1,0.2-4v-5.8c0-4,0.1-6.6,0.3-7.6
								c0.2-1.1,0.6-2.1,1.1-3.1h-4.5C1030.1,2038.7,1029.8,2039.7,1029.7,2040.9z M1029.3,2050.6c-1.6-0.6-3.9-1.2-7.1-1.6
								c-1.8-0.3-3-0.5-3.8-0.9c-0.7-0.3-1.3-0.8-1.7-1.4c-0.4-0.6-0.6-1.3-0.6-2.1c0-1.2,0.4-2.1,1.3-2.9c0.9-0.8,2.2-1.2,3.8-1.2
								c1.7,0,3.1,0.4,4.4,1.1s2.2,1.7,2.9,3c0.5,1,0.7,2.4,0.7,4.3V2050.6z"/>
						</g>
					</g>
				</g>
			</g>
			<g id="xtick_5">
				<g id="text_5">
					<g transform="translate(302.877411 687.958569)rotate(-45)scale(0.165 -0.165)">
						<g>
							<path id="ArialMT-72_2_" class="st1" d="M842.9,2158.6v35.2h4.7v-14.4h18.3v14.4h4.7v-35.2h-4.7v16.6h-18.3v-16.6H842.9z"/>
						</g>
						<g>
							<path id="ArialMT-101_1_" class="st1" d="M895.1,2166.8l4.5-0.6c-0.7-2.6-2-4.6-3.9-6.1c-1.9-1.4-4.3-2.2-7.3-2.2
								c-3.7,0-6.7,1.1-8.9,3.4c-2.2,2.3-3.3,5.5-3.3,9.7c0,4.3,1.1,7.6,3.3,10c2.2,2.4,5.1,3.6,8.6,3.6c3.4,0,6.2-1.2,8.4-3.5
								c2.2-2.3,3.2-5.6,3.2-9.8c0-0.3,0-0.6,0-1.2h-19c0.2-2.8,0.9-4.9,2.4-6.4c1.4-1.5,3.2-2.2,5.3-2.2c1.6,0,2.9,0.4,4.1,1.2
								C893.6,2163.7,894.5,2165,895.1,2166.8z M880.9,2173.8h14.2c-0.2,2.1-0.7,3.8-1.6,4.8c-1.4,1.7-3.2,2.5-5.4,2.5
								c-2,0-3.7-0.7-5-2C881.8,2177.8,881.1,2176.1,880.9,2173.8z"/>
						</g>
						<g>
							<path id="ArialMT-112" class="st1" d="M905,2148.9v35.3h3.9v-3.3c0.9,1.3,2,2.3,3.1,2.9c1.2,0.7,2.6,1,4.2,1
								c2.2,0,4.1-0.6,5.8-1.7c1.7-1.1,2.9-2.7,3.8-4.7c0.9-2,1.3-4.3,1.3-6.7c0-2.6-0.5-5-1.4-7c-0.9-2.1-2.3-3.7-4.1-4.8
								c-1.8-1.1-3.7-1.7-5.6-1.7c-1.4,0-2.7,0.3-3.9,0.9c-1.1,0.6-2.1,1.4-2.8,2.3v-12.4H905z M908.9,2171.2c0-3.3,0.7-5.7,2-7.3
								c1.3-1.6,2.9-2.4,4.8-2.4c1.9,0,3.6,0.8,4.9,2.4c1.4,1.6,2.1,4.1,2.1,7.6c0,3.2-0.7,5.7-2,7.3c-1.3,1.6-2.9,2.4-4.8,2.4
								c-1.8,0-3.5-0.9-4.9-2.6C909.6,2177,908.9,2174.5,908.9,2171.2z"/>
						</g>
						<g>
							<path id="ArialMT-71_2_" class="st1" d="M949.4,2172.4v4.1l14.9,0v-13.1c-2.3-1.8-4.7-3.2-7.1-4.1c-2.4-0.9-4.9-1.4-7.5-1.4
								c-3.5,0-6.6,0.7-9.4,2.2c-2.8,1.5-5,3.6-6.4,6.4c-1.4,2.8-2.2,5.9-2.2,9.4c0,3.4,0.7,6.6,2.1,9.6c1.4,3,3.5,5.2,6.2,6.6
								s5.8,2.2,9.3,2.2c2.5,0,4.8-0.4,6.9-1.2c2.1-0.8,3.7-2,4.8-3.4c1.2-1.5,2.1-3.4,2.7-5.8l-4.2-1.2c-0.5,1.8-1.2,3.2-2,4.2
								c-0.8,1-1.9,1.8-3.4,2.5c-1.5,0.6-3.1,0.9-4.8,0.9c-2.1,0-4-0.3-5.5-1c-1.6-0.6-2.8-1.5-3.8-2.6c-1-1.1-1.7-2.2-2.2-3.5
								c-0.9-2.2-1.3-4.5-1.3-7.1c0-3.1,0.5-5.8,1.6-7.9c1.1-2.1,2.7-3.7,4.7-4.7c2.1-1,4.3-1.5,6.6-1.5c2,0,4,0.4,5.9,1.2
								c1.9,0.8,3.4,1.6,4.4,2.5v6.6H949.4z"/>
						</g>
						<g>
							<path id="ArialMT-50_1_" class="st1" d="M992.1,2162.8v-4.2h-23.3c0,1,0.1,2,0.5,3c0.6,1.6,1.5,3.1,2.8,4.7
								c1.3,1.5,3.2,3.3,5.7,5.3c3.8,3.1,6.4,5.6,7.8,7.5c1.3,1.8,2,3.6,2,5.2c0,1.7-0.6,3.2-1.8,4.3c-1.2,1.2-2.8,1.8-4.8,1.8
								c-2.1,0-3.7-0.6-5-1.9c-1.2-1.2-1.9-3-1.9-5.2l-4.4,0.5c0.3,3.3,1.4,5.8,3.4,7.6c2,1.7,4.7,2.6,8,2.6c3.4,0,6-0.9,8-2.8
								c2-1.9,3-4.2,3-7c0-1.4-0.3-2.8-0.9-4.2c-0.6-1.4-1.5-2.8-2.9-4.3s-3.6-3.6-6.7-6.2c-2.6-2.2-4.3-3.7-5-4.4
								c-0.7-0.8-1.3-1.6-1.8-2.3H992.1z"/>
						</g>
					</g>
				</g>
			</g>
			<g id="xtick_6">
				<g id="text_6">
					<g transform="translate(356.131375 682.620797)rotate(-45)scale(0.165 -0.165)">
						<g>
							<path id="ArialMT-74" class="st1" d="M712.7,2273l4.2,0.6c0.1-2.7,0.6-4.5,1.5-5.5c0.9-1,2.1-1.5,3.7-1.5
								c1.2,0,2.2,0.3,3,0.8c0.9,0.5,1.4,1.3,1.8,2.2c0.3,0.9,0.5,2.4,0.5,4.4v24.2h4.7v-24c0-2.9-0.4-5.2-1.1-6.8
								c-0.7-1.6-1.8-2.8-3.4-3.7c-1.5-0.8-3.4-1.3-5.4-1.3c-3.1,0-5.5,0.9-7.1,2.7C713.4,2266.9,712.6,2269.5,712.7,2273z"/>
						</g>
						<g>
							<path id="ArialMT-117" class="st1" d="M755.8,2263v3.7c-2-2.9-4.7-4.3-8.1-4.3c-1.5,0-2.9,0.3-4.2,0.9
								c-1.3,0.6-2.3,1.3-2.9,2.2c-0.6,0.9-1.1,1.9-1.3,3.2c-0.2,0.8-0.3,2.2-0.3,4v15.8h4.3v-14.1c0-2.3,0.1-3.8,0.3-4.6
								c0.3-1.1,0.8-2,1.7-2.7s2-1,3.3-1s2.5,0.3,3.6,1c1.1,0.7,1.9,1.6,2.4,2.7c0.5,1.1,0.7,2.8,0.7,5v13.7h4.3V2263H755.8z"/>
						</g>
						<g>
							<path id="ArialMT-114" class="st1" d="M766.4,2263v25.5h3.9v-3.9c1,1.8,1.9,3,2.8,3.6c0.8,0.6,1.8,0.9,2.8,0.9
								c1.5,0,2.9-0.5,4.4-1.4l-1.5-4c-1.1,0.6-2.1,0.9-3.2,0.9c-0.9,0-1.8-0.3-2.6-0.9s-1.3-1.4-1.6-2.4c-0.5-1.5-0.7-3.2-0.7-5
								V2263H766.4z"/>
						</g>
						<g>
							<path id="ArialMT-107" class="st1" d="M782.8,2263v35.2h4.3v-20.1l10.2,10.4h5.6l-9.7-9.5l10.7-16h-5.3l-8.4,13l-3-2.9V2263
								H782.8z"/>
						</g>
						<g>
							<path id="ArialMT-97_1_" class="st1" d="M824,2266.2c-1.6-1.4-3.1-2.3-4.6-2.9c-1.5-0.6-3.1-0.8-4.8-0.8
								c-2.8,0-5,0.7-6.5,2.1c-1.5,1.4-2.3,3.1-2.3,5.2c0,1.2,0.3,2.4,0.9,3.4c0.6,1,1.3,1.9,2.2,2.5s2,1.1,3.1,1.4
								c0.8,0.2,2.1,0.4,3.8,0.7c3.5,0.4,6.1,0.9,7.7,1.5c0,0.6,0,1,0,1.1c0,1.8-0.4,3-1.2,3.7c-1.1,1-2.7,1.5-4.9,1.5
								c-2,0-3.5-0.4-4.5-1.1c-1-0.7-1.7-2-2.2-3.8l-4.2,0.6c0.4,1.8,1,3.3,1.9,4.4c0.9,1.1,2.2,2,3.8,2.6c1.7,0.6,3.6,0.9,5.8,0.9
								c2.2,0,3.9-0.3,5.3-0.8c1.4-0.5,2.4-1.2,3-1.9c0.6-0.8,1.1-1.8,1.3-2.9c0.1-0.7,0.2-2.1,0.2-4v-5.8c0-4,0.1-6.6,0.3-7.6
								c0.2-1.1,0.6-2.1,1.1-3.1h-4.5C824.5,2263.9,824.2,2265,824,2266.2z M823.7,2275.8c-1.6-0.6-3.9-1.2-7.1-1.6
								c-1.8-0.3-3-0.5-3.8-0.9c-0.7-0.3-1.3-0.8-1.7-1.4c-0.4-0.6-0.6-1.3-0.6-2.1c0-1.2,0.4-2.1,1.3-2.9c0.9-0.8,2.2-1.2,3.8-1.2
								c1.7,0,3.1,0.4,4.4,1.1s2.2,1.7,2.9,3c0.5,1,0.7,2.4,0.7,4.3V2275.8z"/>
						</g>
						<g>
							<path id="ArialMT-116" class="st1" d="M844.2,2266.9l0.6-3.8c-1.2-0.3-2.3-0.4-3.3-0.4c-1.6,0-2.8,0.2-3.6,0.7
								c-0.9,0.5-1.5,1.1-1.8,2c-0.4,0.8-0.5,2.5-0.5,5.1v14.7h-3.2v3.4h3.2v6.3l4.3,2.6v-8.9h4.3v-3.4h-4.3v-14.9
								c0-1.2,0.1-2,0.2-2.4c0.2-0.3,0.4-0.6,0.7-0.8c0.3-0.2,0.8-0.3,1.5-0.3C842.8,2266.7,843.4,2266.8,844.2,2266.9z"/>
						</g>
					</g>
				</g>
			</g>
			<g id="xtick_7">
				<g id="text_7">
					<g transform="translate(409.120091 678.09791)rotate(-45)scale(0.165 -0.165)">
						<g>
							<path id="ArialMT-75_1_" class="st1" d="M589.6,2368.6v35.2h4.7v-17.5l17.5,17.5h6.3l-14.8-14.3l15.4-20.9h-6.1l-12.5,17.8
								l-5.8-5.6v-12.2H589.6z"/>
						</g>
						<g>
							<path id="ArialMT-53_1_" class="st1" d="M620.8,2377.8l4.5,0.4c0.3-2.2,1.1-3.9,2.3-5c1.2-1.1,2.7-1.7,4.4-1.7
								c2.1,0,3.8,0.8,5.3,2.4c1.4,1.6,2.2,3.7,2.2,6.2c0,2.5-0.7,4.4-2.1,5.8c-1.4,1.4-3.2,2.1-5.4,2.1c-1.4,0-2.7-0.3-3.8-1
								c-1.1-0.6-2-1.4-2.6-2.5l-4.1,0.5l3.4,18.1h17.5v-4.1h-14l-1.9-9.5c2.1,1.5,4.3,2.2,6.6,2.2c3.1,0,5.7-1.1,7.8-3.2
								c2.1-2.1,3.2-4.9,3.2-8.2c0-3.2-0.9-5.9-2.8-8.3c-2.3-2.8-5.3-4.3-9.2-4.3c-3.2,0-5.8,0.9-7.8,2.7
								C622.3,2372.5,621.1,2374.9,620.8,2377.8z"/>
						</g>
						<g>
							<path id="ArialMT-54" class="st1" d="M670.6,2395.2l-4.3-0.3c-0.4,1.7-0.9,2.9-1.6,3.7c-1.2,1.2-2.6,1.9-4.3,1.9
								c-1.4,0-2.6-0.4-3.6-1.2c-1.4-1-2.4-2.4-3.2-4.3c-0.8-1.9-1.2-4.6-1.2-8.1c1,1.6,2.3,2.8,3.8,3.5c1.5,0.8,3.1,1.2,4.7,1.2
								c2.9,0,5.3-1.1,7.4-3.2c2-2.1,3-4.9,3-8.2c0-2.2-0.5-4.3-1.4-6.2c-1-1.9-2.3-3.3-3.9-4.4c-1.7-1-3.6-1.5-5.7-1.5
								c-3.6,0-6.5,1.3-8.8,4c-2.3,2.6-3.4,7-3.4,13.1c0,6.8,1.3,11.7,3.8,14.8c2.2,2.7,5.1,4,8.9,4c2.8,0,5-0.8,6.8-2.3
								C669.2,2400.1,670.2,2397.9,670.6,2395.2z M652.9,2380c0-1.5,0.3-2.9,0.9-4.3c0.6-1.4,1.5-2.4,2.7-3.1
								c1.1-0.7,2.3-1.1,3.6-1.1c1.8,0,3.4,0.7,4.7,2.2c1.3,1.5,2,3.5,2,6c0,2.4-0.7,4.3-2,5.7c-1.3,1.4-2.9,2.1-4.9,2.1
								c-2,0-3.6-0.7-5-2.1C653.6,2384.1,652.9,2382.3,652.9,2380z"/>
						</g>
						<g>
							<path id="ArialMT-50_2_" class="st1" d="M698.2,2372.8v-4.2H675c0,1,0.1,2,0.5,3c0.6,1.6,1.5,3.1,2.8,4.7
								c1.3,1.5,3.2,3.3,5.7,5.3c3.8,3.1,6.4,5.6,7.8,7.5c1.3,1.8,2,3.6,2,5.2c0,1.7-0.6,3.2-1.8,4.3c-1.2,1.2-2.8,1.8-4.8,1.8
								c-2.1,0-3.7-0.6-5-1.9c-1.2-1.2-1.9-3-1.9-5.2l-4.4,0.5c0.3,3.3,1.4,5.8,3.4,7.6c2,1.7,4.7,2.6,8,2.6c3.4,0,6-0.9,8-2.8
								c2-1.9,3-4.2,3-7c0-1.4-0.3-2.8-0.9-4.2c-0.6-1.4-1.5-2.8-2.9-4.3s-3.6-3.6-6.7-6.2c-2.6-2.2-4.3-3.7-5-4.4
								c-0.7-0.8-1.3-1.6-1.8-2.3H698.2z"/>
						</g>
					</g>
				</g>
			</g>
			<g id="xtick_8">
				<g id="text_8">
					<g transform="translate(456.352654 685.371718)rotate(-45)scale(0.165 -0.165)">
						<g>
							<path id="ArialMT-76_1_" class="st1" d="M502.5,2487.4v35.2h4.7v-31h17.3v-4.2H502.5z"/>
						</g>
						<g>
							<path id="ArialMT-110" class="st1" d="M529.5,2487.4v25.5h3.9v-3.6c1.9,2.8,4.6,4.2,8.1,4.2c1.5,0,2.9-0.3,4.2-0.8
								c1.3-0.6,2.3-1.3,2.9-2.2s1.1-2,1.3-3.2c0.2-0.8,0.2-2.2,0.2-4.2v-15.7h-4.3v15.5c0,1.8-0.2,3.1-0.5,3.9
								c-0.3,0.9-0.9,1.6-1.8,2.1c-0.9,0.5-1.9,0.8-3,0.8c-1.8,0-3.4-0.6-4.8-1.8c-1.3-1.2-2-3.4-2-6.6v-13.9H529.5z"/>
						</g>
						<g>
							<path id="ArialMT-67" class="st1" d="M582.5,2499.7l4.7-1.2c-1-3.8-2.7-6.7-5.3-8.7c-2.5-2-5.6-3-9.3-3
								c-3.8,0-6.9,0.8-9.3,2.3c-2.4,1.5-4.2,3.8-5.4,6.7c-1.2,2.9-1.9,6.1-1.9,9.4c0,3.7,0.7,6.9,2.1,9.6c1.4,2.7,3.4,4.8,6,6.2
								c2.6,1.4,5.4,2.1,8.5,2.1c3.5,0,6.5-0.9,8.9-2.7c2.4-1.8,4.1-4.3,5-7.6l-4.6-1.1c-0.8,2.6-2,4.4-3.6,5.6
								c-1.6,1.2-3.5,1.8-5.9,1.8c-2.7,0-5-0.7-6.8-2c-1.8-1.3-3.1-3-3.8-5.2c-0.7-2.2-1.1-4.4-1.1-6.8c0-3,0.4-5.6,1.3-7.8
								c0.9-2.2,2.2-3.9,4.1-5c1.8-1.1,3.8-1.7,6-1.7c2.6,0,4.8,0.8,6.6,2.3C580.7,2494.5,581.9,2496.7,582.5,2499.7z"/>
						</g>
						<g>
							<path id="ArialMT-97_2_" class="st1" d="M609,2490.5c-1.6-1.4-3.1-2.3-4.6-2.9c-1.5-0.6-3.1-0.8-4.8-0.8
								c-2.8,0-5,0.7-6.5,2.1c-1.5,1.4-2.3,3.1-2.3,5.2c0,1.2,0.3,2.4,0.9,3.4c0.6,1,1.3,1.9,2.2,2.5s2,1.1,3.1,1.4
								c0.8,0.2,2.1,0.4,3.8,0.7c3.5,0.4,6.1,0.9,7.7,1.5c0,0.6,0,1,0,1.1c0,1.8-0.4,3-1.2,3.7c-1.1,1-2.7,1.5-4.9,1.5
								c-2,0-3.5-0.4-4.5-1.1c-1-0.7-1.7-2-2.2-3.8l-4.2,0.6c0.4,1.8,1,3.3,1.9,4.4c0.9,1.1,2.2,2,3.8,2.6c1.7,0.6,3.6,0.9,5.8,0.9
								c2.2,0,3.9-0.3,5.3-0.8c1.4-0.5,2.4-1.2,3-1.9c0.6-0.8,1.1-1.8,1.3-2.9c0.1-0.7,0.2-2.1,0.2-4v-5.8c0-4,0.1-6.6,0.3-7.6
								c0.2-1.1,0.6-2.1,1.1-3.1h-4.5C609.4,2488.3,609.1,2489.3,609,2490.5z M608.6,2500.2c-1.6-0.6-3.9-1.2-7.1-1.6
								c-1.8-0.3-3-0.5-3.8-0.9c-0.7-0.3-1.3-0.8-1.7-1.4c-0.4-0.6-0.6-1.3-0.6-2.1c0-1.2,0.4-2.1,1.3-2.9c0.9-0.8,2.2-1.2,3.8-1.2
								c1.7,0,3.1,0.4,4.4,1.1c1.3,0.7,2.2,1.7,2.9,3c0.5,1,0.7,2.4,0.7,4.3V2500.2z"/>
						</g>
						<g>
							<path id="ArialMT-112_1_" class="st1" d="M619.7,2477.6v35.3h3.9v-3.3c0.9,1.3,2,2.3,3.1,2.9c1.2,0.7,2.6,1,4.2,1
								c2.2,0,4.1-0.6,5.8-1.7c1.7-1.1,2.9-2.7,3.8-4.7c0.9-2,1.3-4.3,1.3-6.7c0-2.6-0.5-5-1.4-7c-0.9-2.1-2.3-3.7-4.1-4.8
								c-1.8-1.1-3.7-1.7-5.6-1.7c-1.4,0-2.7,0.3-3.9,0.9c-1.1,0.6-2.1,1.4-2.8,2.3v-12.4H619.7z M623.6,2500c0-3.3,0.7-5.7,2-7.3
								c1.3-1.6,2.9-2.4,4.8-2.4c1.9,0,3.6,0.8,4.9,2.4c1.4,1.6,2.1,4.1,2.1,7.6c0,3.2-0.7,5.7-2,7.3c-1.3,1.6-2.9,2.4-4.8,2.4
								c-1.8,0-3.5-0.9-4.9-2.6C624.3,2505.7,623.6,2503.2,623.6,2500z"/>
						</g>
					</g>
				</g>
			</g>
			<g id="xtick_9">
				<g id="text_9">
					<g transform="translate(508.318662 682.609859)rotate(-45)scale(0.165 -0.165)">
						<g>
							<path id="ArialMT-77_1_" class="st1" d="M383.4,2594.6v35.2h7l8.3-24.9c0.8-2.3,1.3-4.1,1.7-5.2c0.4,1.3,1,3.2,1.9,5.6
								l8.4,24.5h6.3v-35.2h-4.5v29.5l-10.2-29.5H398l-10.2,30v-30H383.4z"/>
						</g>
						<g>
							<path id="ArialMT-67_1_" class="st1" d="M449.6,2606.9l4.7-1.2c-1-3.8-2.7-6.7-5.3-8.7s-5.6-3-9.3-3c-3.8,0-6.9,0.8-9.3,2.3
								c-2.4,1.5-4.2,3.8-5.4,6.7c-1.2,2.9-1.9,6.1-1.9,9.4c0,3.7,0.7,6.9,2.1,9.6c1.4,2.7,3.4,4.8,6,6.2c2.6,1.4,5.4,2.1,8.5,2.1
								c3.5,0,6.5-0.9,8.9-2.7c2.4-1.8,4.1-4.3,5-7.6l-4.6-1.1c-0.8,2.6-2,4.4-3.6,5.6c-1.6,1.2-3.5,1.8-5.9,1.8c-2.7,0-5-0.7-6.8-2
								c-1.8-1.3-3.1-3-3.8-5.2c-0.7-2.2-1.1-4.4-1.1-6.8c0-3,0.4-5.6,1.3-7.8c0.9-2.2,2.2-3.9,4.1-5c1.8-1.1,3.8-1.7,6-1.7
								c2.6,0,4.8,0.8,6.6,2.3C447.7,2601.7,448.9,2603.9,449.6,2606.9z"/>
						</g>
						<g>
							<path id="ArialMT-70" class="st1" d="M460.2,2594.6v35.2h23.7v-4.1h-19.1v-10.9h16.5v-4.2h-16.5v-16H460.2z"/>
						</g>
						<g>
							<path id="ArialMT-55" class="st1" d="M488.5,2625.1v4.2h22.8v-3.4c-2.2-2.4-4.5-5.5-6.7-9.5c-2.2-4-3.9-8-5.1-12.2
								c-0.9-2.9-1.4-6.2-1.7-9.7h-4.4c0,2.8,0.6,6.1,1.6,10c1,3.9,2.5,7.7,4.5,11.3c1.9,3.6,4,6.7,6.2,9.2H488.5z"/>
						</g>
					</g>
				</g>
			</g>
			<g id="xtick_10">
				<g id="text_10">
					<g transform="translate(562.2836 676.134528)rotate(-45)scale(0.165 -0.165)">
						<g>
							<path id="ArialMT-82" class="st1" d="M251.9,2698v35.2h15.6c3.1,0,5.5-0.3,7.2-1c1.6-0.6,2.9-1.7,3.9-3.3
								c1-1.6,1.5-3.4,1.5-5.3c0-2.5-0.8-4.6-2.4-6.3c-1.6-1.7-4.1-2.8-7.5-3.3c1.2-0.6,2.2-1.2,2.8-1.8c1.4-1.2,2.6-2.8,3.9-4.7
								l6.1-9.6h-5.9l-4.7,7.3c-1.4,2.1-2.5,3.7-3.4,4.8c-0.9,1.1-1.7,1.9-2.4,2.4c-0.7,0.5-1.4,0.8-2.1,0.9
								c-0.5,0.1-1.4,0.2-2.6,0.2h-5.4V2698H251.9z M256.6,2717.7h10c2.1,0,3.8,0.2,5,0.7c1.2,0.4,2.1,1.1,2.7,2.1
								c0.6,1,0.9,2,0.9,3.2c0,1.7-0.6,3-1.8,4.1c-1.2,1.1-3.1,1.6-5.7,1.6h-11.1V2717.7z"/>
						</g>
						<g>
							<path id="ArialMT-75_2_" class="st1" d="M287.1,2698v35.2h4.7v-17.5l17.5,17.5h6.3l-14.8-14.3l15.4-20.9h-6.1l-12.5,17.8
								l-5.8-5.6V2698H287.1z"/>
						</g>
						<g>
							<path id="ArialMT-79" class="st1" d="M318.7,2715.2c0,5.8,1.6,10.4,4.7,13.7c3.1,3.3,7.2,5,12.2,5c3.3,0,6.2-0.8,8.8-2.3
								c2.6-1.6,4.6-3.7,6-6.5c1.4-2.8,2.1-5.9,2.1-9.4c0-3.6-0.7-6.8-2.2-9.6c-1.4-2.8-3.5-4.9-6.1-6.4c-2.6-1.4-5.5-2.2-8.5-2.2
								c-3.3,0-6.3,0.8-8.9,2.4c-2.6,1.6-4.6,3.8-5.9,6.6C319.4,2709.1,318.7,2712.1,318.7,2715.2z M323.5,2715.1
								c0-4.2,1.1-7.6,3.4-10c2.3-2.4,5.1-3.7,8.6-3.7c3.5,0,6.4,1.2,8.6,3.7c2.3,2.5,3.4,6,3.4,10.5c0,2.9-0.5,5.4-1.5,7.5
								s-2.4,3.8-4.3,5c-1.9,1.2-4,1.8-6.3,1.8c-3.3,0-6.1-1.1-8.5-3.4C324.7,2724.2,323.5,2720.4,323.5,2715.1z"/>
						</g>
					</g>
				</g>
			</g>
			<g id="xtick_11">
				<g id="text_11">
					<g transform="translate(609.766827 682.62262)rotate(-45)scale(0.165 -0.165)">
						<g>
							<path id="ArialMT-85" class="st1" d="M185.6,2850.8h4.7v-20.3c0-3.5-0.4-6.3-1.2-8.4c-0.8-2.1-2.2-3.8-4.3-5.1
								c-2.1-1.3-4.8-2-8.2-2c-3.3,0-6,0.6-8.1,1.7c-2.1,1.1-3.6,2.8-4.5,4.9c-0.9,2.2-1.3,5.1-1.3,8.8v20.3h4.7v-20.3
								c0-3.1,0.3-5.3,0.9-6.8c0.6-1.4,1.5-2.6,2.9-3.3c1.4-0.8,3.1-1.2,5.1-1.2c3.4,0,5.9,0.8,7.3,2.3c1.5,1.6,2.2,4.5,2.2,9
								V2850.8z"/>
						</g>
						<g>
							<path id="ArialMT-50_3_" class="st1" d="M219,2819.7v-4.2h-23.3c0,1,0.1,2,0.5,3c0.6,1.6,1.5,3.1,2.8,4.7
								c1.3,1.5,3.2,3.3,5.7,5.3c3.8,3.1,6.4,5.6,7.8,7.5c1.3,1.8,2,3.6,2,5.2c0,1.7-0.6,3.2-1.8,4.3c-1.2,1.2-2.8,1.8-4.8,1.8
								c-2.1,0-3.7-0.6-5-1.9c-1.2-1.2-1.9-3-1.9-5.2l-4.4,0.5c0.3,3.3,1.4,5.8,3.4,7.6c2,1.7,4.7,2.6,8,2.6c3.4,0,6-0.9,8-2.8
								c2-1.9,3-4.2,3-7c0-1.4-0.3-2.8-0.9-4.2c-0.6-1.4-1.5-2.8-2.9-4.3s-3.6-3.6-6.7-6.2c-2.6-2.2-4.3-3.7-5-4.4
								c-0.7-0.8-1.3-1.6-1.8-2.3H219z"/>
						</g>
						<g>
							<path id="ArialMT-79_1_" class="st1" d="M223.9,2832.7c0,5.8,1.6,10.4,4.7,13.7c3.1,3.3,7.2,5,12.2,5c3.3,0,6.2-0.8,8.8-2.3
								c2.6-1.6,4.6-3.7,6-6.5c1.4-2.8,2.1-5.9,2.1-9.4c0-3.6-0.7-6.8-2.2-9.6c-1.4-2.8-3.5-4.9-6.1-6.4c-2.6-1.4-5.5-2.2-8.5-2.2
								c-3.3,0-6.3,0.8-8.9,2.4c-2.6,1.6-4.6,3.8-5.9,6.6C224.6,2826.7,223.9,2829.6,223.9,2832.7z M228.7,2832.7
								c0-4.2,1.1-7.6,3.4-10c2.3-2.4,5.1-3.7,8.6-3.7c3.5,0,6.4,1.2,8.6,3.7c2.3,2.5,3.4,6,3.4,10.5c0,2.9-0.5,5.4-1.5,7.5
								c-1,2.1-2.4,3.8-4.3,5c-1.9,1.2-4,1.8-6.3,1.8c-3.3,0-6.1-1.1-8.5-3.4C229.9,2841.7,228.7,2838,228.7,2832.7z"/>
						</g>
						<g>
							<path id="ArialMT-83" class="st1" d="M262,2826.9l4.4,0.4c0.2-1.8,0.7-3.2,1.5-4.3c0.8-1.1,1.9-2,3.5-2.7
								c1.6-0.7,3.4-1,5.4-1c1.8,0,3.3,0.3,4.7,0.8c1.4,0.5,2.4,1.2,3,2.2c0.7,0.9,1,1.9,1,3c0,1.1-0.3,2.1-1,2.9s-1.7,1.5-3.2,2.1
								c-0.9,0.4-3,0.9-6.3,1.7c-3.2,0.8-5.5,1.5-6.8,2.2c-1.7,0.9-2.9,2-3.8,3.3c-0.8,1.3-1.2,2.8-1.2,4.4c0,1.8,0.5,3.4,1.5,5
								c1,1.5,2.5,2.7,4.4,3.5c1.9,0.8,4.1,1.2,6.5,1.2c2.6,0,4.9-0.4,6.9-1.3c2-0.8,3.5-2.1,4.6-3.7c1.1-1.6,1.6-3.5,1.7-5.5
								l-4.5-0.3c-0.2,2.2-1.1,3.9-2.4,5c-1.4,1.1-3.4,1.7-6.1,1.7c-2.8,0-4.9-0.5-6.2-1.6c-1.3-1-1.9-2.3-1.9-3.7
								c0-1.3,0.5-2.3,1.4-3.1c0.9-0.8,3.2-1.6,7-2.5s6.4-1.6,7.8-2.2c2-0.9,3.6-2.1,4.5-3.6c1-1.4,1.5-3.1,1.5-5
								c0-1.9-0.5-3.6-1.6-5.3c-1.1-1.7-2.6-2.9-4.6-3.9c-2-0.9-4.3-1.4-6.8-1.4c-3.2,0-5.9,0.5-8,1.4c-2.2,0.9-3.8,2.3-5.1,4.2
								C262.7,2822.4,262.1,2824.6,262,2826.9z"/>
						</g>
					</g>
				</g>
			</g>
			<g id="text_12">
				<g transform="translate(324.254219 717.088126)scale(0.23 -0.23)">
					<g>
						<path id="ArialMT-67_2_" class="st1" d="M-687.8,1597.3l4.7-1.2c-1-3.8-2.7-6.7-5.3-8.7c-2.5-2-5.6-3-9.3-3
							c-3.8,0-6.9,0.8-9.3,2.3c-2.4,1.5-4.2,3.8-5.4,6.7c-1.2,2.9-1.9,6.1-1.9,9.4c0,3.7,0.7,6.9,2.1,9.6c1.4,2.7,3.4,4.8,6,6.2
							c2.6,1.4,5.4,2.1,8.5,2.1c3.5,0,6.5-0.9,8.9-2.7c2.4-1.8,4.1-4.3,5-7.6l-4.6-1.1c-0.8,2.6-2,4.4-3.6,5.6
							c-1.6,1.2-3.5,1.8-5.9,1.8c-2.7,0-5-0.7-6.8-2c-1.8-1.3-3.1-3-3.8-5.2c-0.7-2.2-1.1-4.4-1.1-6.8c0-3,0.4-5.6,1.3-7.8
							c0.9-2.2,2.2-3.9,4.1-5c1.8-1.1,3.8-1.7,6-1.7c2.6,0,4.8,0.8,6.6,2.3C-689.7,1592.1-688.4,1594.3-687.8,1597.3z"/>
					</g>
					<g>
						<path id="ArialMT-101_2_" class="st1" d="M-660.5,1593.2l4.5-0.6c-0.7-2.6-2-4.6-3.9-6.1c-1.9-1.4-4.3-2.2-7.3-2.2
							c-3.7,0-6.7,1.1-8.9,3.4c-2.2,2.3-3.3,5.5-3.3,9.7c0,4.3,1.1,7.6,3.3,10c2.2,2.4,5.1,3.6,8.6,3.6c3.4,0,6.2-1.2,8.4-3.5
							c2.2-2.3,3.2-5.6,3.2-9.8c0-0.3,0-0.6,0-1.2h-19c0.2-2.8,1-4.9,2.4-6.4c1.4-1.5,3.2-2.2,5.3-2.2c1.6,0,2.9,0.4,4.1,1.2
							C-662,1590-661.2,1591.4-660.5,1593.2z M-674.7,1600.2h14.2c-0.2,2.1-0.7,3.8-1.6,4.8c-1.4,1.7-3.2,2.5-5.4,2.5
							c-2,0-3.7-0.7-5-2S-674.5,1602.4-674.7,1600.2z"/>
					</g>
					<g>
						<path id="ArialMT-108" class="st1" d="M-650.7,1585v35.2h4.3V1585H-650.7z"/>
					</g>
					<g>
						<path id="ArialMT-108_1_" class="st1" d="M-639.8,1585v35.2h4.3V1585H-639.8z"/>
					</g>
					<g>
						<path id="ArialMT-32" class="st1" d="M-632,1585"/>
					</g>
					<g>
						<path id="ArialMT-76_2_" class="st1" d="M-614.7,1585v35.2h4.7v-31h17.3v-4.2H-614.7z"/>
					</g>
					<g>
						<path id="ArialMT-105" class="st1" d="M-587.7,1615.2v5h4.3v-5H-587.7z M-587.7,1585v25.5h4.3V1585H-587.7z"/>
					</g>
					<g>
						<path id="ArialMT-110_1_" class="st1" d="M-576.8,1585v25.5h3.9v-3.6c1.9,2.8,4.6,4.2,8.1,4.2c1.5,0,2.9-0.3,4.2-0.8
							c1.3-0.6,2.3-1.3,2.9-2.2c0.6-0.9,1.1-2,1.3-3.2c0.2-0.8,0.2-2.2,0.2-4.2V1585h-4.3v15.5c0,1.8-0.2,3.1-0.5,3.9
							c-0.3,0.9-0.9,1.6-1.8,2.1c-0.9,0.5-1.9,0.8-3,0.8c-1.8,0-3.4-0.6-4.8-1.8c-1.3-1.2-2-3.4-2-6.6V1585H-576.8z"/>
					</g>
					<g>
						<path id="ArialMT-101_3_" class="st1" d="M-532,1593.2l4.5-0.6c-0.7-2.6-2-4.6-3.9-6.1c-1.9-1.4-4.3-2.2-7.3-2.2
							c-3.7,0-6.7,1.1-8.9,3.4c-2.2,2.3-3.3,5.5-3.3,9.7c0,4.3,1.1,7.6,3.3,10c2.2,2.4,5.1,3.6,8.6,3.6c3.4,0,6.2-1.2,8.4-3.5
							s3.2-5.6,3.2-9.8c0-0.3,0-0.6,0-1.2h-19c0.2-2.8,0.9-4.9,2.4-6.4c1.4-1.5,3.2-2.2,5.3-2.2c1.6,0,2.9,0.4,4.1,1.2
							C-533.6,1590-532.7,1591.4-532,1593.2z M-546.2,1600.2h14.2c-0.2,2.1-0.7,3.8-1.6,4.8c-1.4,1.7-3.2,2.5-5.4,2.5
							c-2,0-3.7-0.7-5-2S-546.1,1602.4-546.2,1600.2z"/>
					</g>
				</g>
			</g>
		</g>
		<g id="matplotlib.axis_2">
			<g id="ytick_1">
				<g id="text_13">
					<g transform="translate(45.389453 635.905195)scale(0.165 -0.165)">
						<g>
							<path id="ArialMT-48" class="st1" d="M-137.8,1976.6c0,4.2,0.4,7.5,1.3,10c0.9,2.5,2.1,4.5,3.8,5.9c1.7,1.4,3.8,2.1,6.4,2.1
								c1.9,0,3.5-0.4,5-1.1c1.4-0.8,2.6-1.9,3.5-3.3c0.9-1.4,1.7-3.2,2.2-5.2c0.5-2.1,0.8-4.8,0.8-8.3c0-4.1-0.4-7.5-1.3-10
								c-0.8-2.5-2.1-4.5-3.8-5.9c-1.7-1.4-3.8-2.1-6.4-2.1c-3.4,0-6.1,1.2-8,3.6C-136.6,1965.2-137.8,1970-137.8,1976.6z
								 M-133.4,1976.6c0-5.8,0.7-9.6,2-11.5c1.4-1.9,3-2.9,5-2.9c2,0,3.7,1,5,2.9c1.4,1.9,2,5.8,2,11.5c0,5.8-0.7,9.6-2,11.5
								c-1.4,1.9-3,2.9-5.1,2.9c-2,0-3.6-0.8-4.8-2.5C-132.6,1986.3-133.4,1982.4-133.4,1976.6z"/>
						</g>
						<g>
							<path id="ArialMT-46" class="st1" d="M-108,1959.2v4.9h4.9v-4.9H-108z"/>
						</g>
						<g>
							<path id="ArialMT-48_1_" class="st1" d="M-96.8,1976.6c0,4.2,0.4,7.5,1.3,10c0.9,2.5,2.1,4.5,3.8,5.9
								c1.7,1.4,3.8,2.1,6.4,2.1c1.9,0,3.5-0.4,5-1.1c1.4-0.8,2.6-1.9,3.5-3.3c0.9-1.4,1.7-3.2,2.2-5.2c0.5-2.1,0.8-4.8,0.8-8.3
								c0-4.1-0.4-7.5-1.3-10c-0.8-2.5-2.1-4.5-3.8-5.9c-1.7-1.4-3.8-2.1-6.4-2.1c-3.4,0-6.1,1.2-8,3.6
								C-95.6,1965.2-96.8,1970-96.8,1976.6z M-92.4,1976.6c0-5.8,0.7-9.6,2-11.5c1.4-1.9,3-2.9,5-2.9c2,0,3.7,1,5,2.9
								c1.4,1.9,2,5.8,2,11.5c0,5.8-0.7,9.6-2,11.5c-1.4,1.9-3,2.9-5.1,2.9c-2,0-3.6-0.8-4.8-2.5
								C-91.6,1986.3-92.4,1982.4-92.4,1976.6z"/>
						</g>
						<g>
							<path id="ArialMT-48_2_" class="st1" d="M-69.5,1976.6c0,4.2,0.4,7.5,1.3,10c0.9,2.5,2.1,4.5,3.8,5.9
								c1.7,1.4,3.8,2.1,6.4,2.1c1.9,0,3.5-0.4,5-1.1c1.4-0.8,2.6-1.9,3.5-3.3c0.9-1.4,1.7-3.2,2.2-5.2c0.5-2.1,0.8-4.8,0.8-8.3
								c0-4.1-0.4-7.5-1.3-10c-0.8-2.5-2.1-4.5-3.8-5.9c-1.7-1.4-3.8-2.1-6.4-2.1c-3.4,0-6.1,1.2-8,3.6
								C-68.3,1965.2-69.5,1970-69.5,1976.6z M-65,1976.6c0-5.8,0.7-9.6,2-11.5c1.4-1.9,3-2.9,5-2.9c2,0,3.7,1,5,2.9
								c1.4,1.9,2,5.8,2,11.5c0,5.8-0.7,9.6-2,11.5c-1.4,1.9-3,2.9-5.1,2.9c-2,0-3.6-0.8-4.8-2.5C-64.3,1986.3-65,1982.4-65,1976.6z
								"/>
						</g>
					</g>
				</g>
			</g>
			<g id="ytick_2">
				<g id="text_14">
					<g transform="translate(45.389453 519.96856)scale(0.165 -0.165)">
						<g>
							<path id="ArialMT-48_3_" class="st1" d="M-137.8,1619.4c0,4.2,0.4,7.5,1.3,10c0.9,2.5,2.1,4.5,3.8,5.9
								c1.7,1.4,3.8,2.1,6.4,2.1c1.9,0,3.5-0.4,5-1.1c1.4-0.8,2.6-1.9,3.5-3.3c0.9-1.4,1.7-3.2,2.2-5.2c0.5-2.1,0.8-4.8,0.8-8.3
								c0-4.1-0.4-7.5-1.3-10c-0.8-2.5-2.1-4.5-3.8-5.9c-1.7-1.4-3.8-2.1-6.4-2.1c-3.4,0-6.1,1.2-8,3.6
								C-136.6,1608-137.8,1612.8-137.8,1619.4z M-133.4,1619.4c0-5.8,0.7-9.6,2-11.5c1.4-1.9,3-2.9,5-2.9c2,0,3.7,1,5,2.9
								c1.4,1.9,2,5.8,2,11.5c0,5.8-0.7,9.6-2,11.5c-1.4,1.9-3,2.9-5.1,2.9c-2,0-3.6-0.8-4.8-2.5
								C-132.6,1629.1-133.4,1625.2-133.4,1619.4z"/>
						</g>
						<g>
							<path id="ArialMT-46_1_" class="st1" d="M-108,1602v4.9h4.9v-4.9H-108z"/>
						</g>
						<g>
							<path id="ArialMT-48_4_" class="st1" d="M-96.8,1619.4c0,4.2,0.4,7.5,1.3,10c0.9,2.5,2.1,4.5,3.8,5.9
								c1.7,1.4,3.8,2.1,6.4,2.1c1.9,0,3.5-0.4,5-1.1c1.4-0.8,2.6-1.9,3.5-3.3c0.9-1.4,1.7-3.2,2.2-5.2c0.5-2.1,0.8-4.8,0.8-8.3
								c0-4.1-0.4-7.5-1.3-10c-0.8-2.5-2.1-4.5-3.8-5.9c-1.7-1.4-3.8-2.1-6.4-2.1c-3.4,0-6.1,1.2-8,3.6
								C-95.6,1608-96.8,1612.8-96.8,1619.4z M-92.4,1619.4c0-5.8,0.7-9.6,2-11.5c1.4-1.9,3-2.9,5-2.9c2,0,3.7,1,5,2.9
								c1.4,1.9,2,5.8,2,11.5c0,5.8-0.7,9.6-2,11.5c-1.4,1.9-3,2.9-5.1,2.9c-2,0-3.6-0.8-4.8-2.5
								C-91.6,1629.1-92.4,1625.2-92.4,1619.4z"/>
						</g>
						<g>
							<path id="ArialMT-50_4_" class="st1" d="M-46.8,1606.2v-4.2H-70c0,1,0.1,2,0.5,3c0.6,1.6,1.5,3.1,2.8,4.7
								c1.3,1.5,3.2,3.3,5.7,5.3c3.8,3.1,6.4,5.6,7.8,7.5c1.3,1.8,2,3.6,2,5.2c0,1.7-0.6,3.2-1.8,4.3c-1.2,1.2-2.8,1.8-4.8,1.8
								c-2.1,0-3.7-0.6-5-1.9c-1.2-1.2-1.9-3-1.9-5.2l-4.4,0.5c0.3,3.3,1.4,5.8,3.4,7.6c2,1.7,4.7,2.6,8,2.6c3.4,0,6-0.9,8-2.8
								c2-1.9,3-4.2,3-7c0-1.4-0.3-2.8-0.9-4.2c-0.6-1.4-1.5-2.8-2.9-4.3c-1.3-1.5-3.6-3.6-6.7-6.2c-2.6-2.2-4.3-3.7-5-4.4
								c-0.7-0.8-1.3-1.6-1.8-2.3H-46.8z"/>
						</g>
					</g>
				</g>
			</g>
			<g id="ytick_3">
				<g id="text_15">
					<g transform="translate(45.389453 404.031925)scale(0.165 -0.165)">
						<g>
							<path id="ArialMT-48_5_" class="st1" d="M-137.8,1262.2c0,4.2,0.4,7.5,1.3,10c0.9,2.5,2.1,4.5,3.8,5.9
								c1.7,1.4,3.8,2.1,6.4,2.1c1.9,0,3.5-0.4,5-1.1c1.4-0.8,2.6-1.9,3.5-3.3c0.9-1.4,1.7-3.2,2.2-5.2c0.5-2.1,0.8-4.8,0.8-8.3
								c0-4.1-0.4-7.5-1.3-10c-0.8-2.5-2.1-4.5-3.8-5.9c-1.7-1.4-3.8-2.1-6.4-2.1c-3.4,0-6.1,1.2-8,3.6
								C-136.6,1250.8-137.8,1255.6-137.8,1262.2z M-133.4,1262.2c0-5.8,0.7-9.6,2-11.5c1.4-1.9,3-2.9,5-2.9c2,0,3.7,1,5,2.9
								c1.4,1.9,2,5.8,2,11.5c0,5.8-0.7,9.6-2,11.5c-1.4,1.9-3,2.9-5.1,2.9c-2,0-3.6-0.8-4.8-2.5
								C-132.6,1271.9-133.4,1268-133.4,1262.2z"/>
						</g>
						<g>
							<path id="ArialMT-46_2_" class="st1" d="M-108,1244.8v4.9h4.9v-4.9H-108z"/>
						</g>
						<g>
							<path id="ArialMT-48_6_" class="st1" d="M-96.8,1262.2c0,4.2,0.4,7.5,1.3,10c0.9,2.5,2.1,4.5,3.8,5.9
								c1.7,1.4,3.8,2.1,6.4,2.1c1.9,0,3.5-0.4,5-1.1c1.4-0.8,2.6-1.9,3.5-3.3c0.9-1.4,1.7-3.2,2.2-5.2c0.5-2.1,0.8-4.8,0.8-8.3
								c0-4.1-0.4-7.5-1.3-10c-0.8-2.5-2.1-4.5-3.8-5.9c-1.7-1.4-3.8-2.1-6.4-2.1c-3.4,0-6.1,1.2-8,3.6
								C-95.6,1250.8-96.8,1255.6-96.8,1262.2z M-92.4,1262.2c0-5.8,0.7-9.6,2-11.5c1.4-1.9,3-2.9,5-2.9c2,0,3.7,1,5,2.9
								c1.4,1.9,2,5.8,2,11.5c0,5.8-0.7,9.6-2,11.5c-1.4,1.9-3,2.9-5.1,2.9c-2,0-3.6-0.8-4.8-2.5
								C-91.6,1271.9-92.4,1268-92.4,1262.2z"/>
						</g>
						<g>
							<path id="ArialMT-52_1_" class="st1" d="M-55.6,1244.8v8.4h-15.3v4l16.1,22.8h3.5v-22.8h4.8v-4h-4.8v-8.4H-55.6z
								 M-55.6,1257.2v15.9l-11-15.9H-55.6z"/>
						</g>
					</g>
				</g>
			</g>
			<g id="ytick_4">
				<g id="text_16">
					<g transform="translate(45.389453 288.095291)scale(0.165 -0.165)">
						<g>
							<path id="ArialMT-48_7_" class="st1" d="M-137.8,905c0,4.2,0.4,7.5,1.3,10c0.9,2.5,2.1,4.5,3.8,5.9c1.7,1.4,3.8,2.1,6.4,2.1
								c1.9,0,3.5-0.4,5-1.1c1.4-0.8,2.6-1.9,3.5-3.3c0.9-1.4,1.7-3.2,2.2-5.2c0.5-2.1,0.8-4.8,0.8-8.3c0-4.1-0.4-7.5-1.3-10
								c-0.8-2.5-2.1-4.5-3.8-5.9c-1.7-1.4-3.8-2.1-6.4-2.1c-3.4,0-6.1,1.2-8,3.6C-136.6,893.6-137.8,898.4-137.8,905z M-133.4,905
								c0-5.8,0.7-9.6,2-11.5c1.4-1.9,3-2.9,5-2.9c2,0,3.7,1,5,2.9c1.4,1.9,2,5.8,2,11.5c0,5.8-0.7,9.6-2,11.5
								c-1.4,1.9-3,2.9-5.1,2.9c-2,0-3.6-0.8-4.8-2.5C-132.6,914.7-133.4,910.8-133.4,905z"/>
						</g>
						<g>
							<path id="ArialMT-46_3_" class="st1" d="M-108,887.6v4.9h4.9v-4.9H-108z"/>
						</g>
						<g>
							<path id="ArialMT-48_8_" class="st1" d="M-96.8,905c0,4.2,0.4,7.5,1.3,10c0.9,2.5,2.1,4.5,3.8,5.9c1.7,1.4,3.8,2.1,6.4,2.1
								c1.9,0,3.5-0.4,5-1.1c1.4-0.8,2.6-1.9,3.5-3.3c0.9-1.4,1.7-3.2,2.2-5.2c0.5-2.1,0.8-4.8,0.8-8.3c0-4.1-0.4-7.5-1.3-10
								c-0.8-2.5-2.1-4.5-3.8-5.9c-1.7-1.4-3.8-2.1-6.4-2.1c-3.4,0-6.1,1.2-8,3.6C-95.6,893.6-96.8,898.4-96.8,905z M-92.4,905
								c0-5.8,0.7-9.6,2-11.5c1.4-1.9,3-2.9,5-2.9c2,0,3.7,1,5,2.9c1.4,1.9,2,5.8,2,11.5c0,5.8-0.7,9.6-2,11.5
								c-1.4,1.9-3,2.9-5.1,2.9c-2,0-3.6-0.8-4.8-2.5C-91.6,914.7-92.4,910.8-92.4,905z"/>
						</g>
						<g>
							<path id="ArialMT-54_1_" class="st1" d="M-47,914.2l-4.3-0.3c-0.4,1.7-0.9,2.9-1.6,3.7c-1.2,1.2-2.6,1.9-4.3,1.9
								c-1.4,0-2.6-0.4-3.6-1.2c-1.4-1-2.4-2.4-3.2-4.3c-0.8-1.9-1.2-4.6-1.2-8.1c1,1.6,2.3,2.8,3.8,3.5c1.5,0.8,3.1,1.2,4.7,1.2
								c2.9,0,5.3-1.1,7.4-3.2c2-2.1,3-4.9,3-8.2c0-2.2-0.5-4.3-1.4-6.2c-1-1.9-2.3-3.3-3.9-4.4c-1.7-1-3.6-1.5-5.7-1.5
								c-3.6,0-6.5,1.3-8.8,4c-2.3,2.6-3.4,7-3.4,13.1c0,6.8,1.3,11.7,3.8,14.8c2.2,2.7,5.1,4,8.9,4c2.8,0,5-0.8,6.8-2.3
								C-48.5,919.1-47.4,916.9-47,914.2z M-64.7,899c0-1.5,0.3-2.9,0.9-4.3c0.6-1.4,1.5-2.4,2.7-3.1c1.1-0.7,2.3-1.1,3.6-1.1
								c1.8,0,3.4,0.7,4.7,2.2c1.3,1.5,2,3.5,2,6c0,2.4-0.7,4.3-2,5.7c-1.3,1.4-2.9,2.1-4.9,2.1c-2,0-3.6-0.7-5-2.1
								C-64,903.1-64.7,901.3-64.7,899z"/>
						</g>
					</g>
				</g>
			</g>
			<g id="ytick_5">
				<g id="text_17">
					<g transform="translate(45.389453 172.158656)scale(0.165 -0.165)">
						<g>
							<path id="ArialMT-48_9_" class="st1" d="M-137.8,547.8c0,4.2,0.4,7.5,1.3,10c0.9,2.5,2.1,4.5,3.8,5.9
								c1.7,1.4,3.8,2.1,6.4,2.1c1.9,0,3.5-0.4,5-1.1c1.4-0.8,2.6-1.9,3.5-3.3c0.9-1.4,1.7-3.2,2.2-5.2c0.5-2.1,0.8-4.8,0.8-8.3
								c0-4.1-0.4-7.5-1.3-10c-0.8-2.5-2.1-4.5-3.8-5.9c-1.7-1.4-3.8-2.1-6.4-2.1c-3.4,0-6.1,1.2-8,3.6
								C-136.6,536.4-137.8,541.2-137.8,547.8z M-133.4,547.8c0-5.8,0.7-9.6,2-11.5c1.4-1.9,3-2.9,5-2.9c2,0,3.7,1,5,2.9
								c1.4,1.9,2,5.8,2,11.5c0,5.8-0.7,9.6-2,11.5c-1.4,1.9-3,2.9-5.1,2.9c-2,0-3.6-0.8-4.8-2.5
								C-132.6,557.5-133.4,553.6-133.4,547.8z"/>
						</g>
						<g>
							<path id="ArialMT-46_4_" class="st1" d="M-108,530.4v4.9h4.9v-4.9H-108z"/>
						</g>
						<g>
							<path id="ArialMT-48_10_" class="st1" d="M-96.8,547.8c0,4.2,0.4,7.5,1.3,10c0.9,2.5,2.1,4.5,3.8,5.9
								c1.7,1.4,3.8,2.1,6.4,2.1c1.9,0,3.5-0.4,5-1.1c1.4-0.8,2.6-1.9,3.5-3.3c0.9-1.4,1.7-3.2,2.2-5.2c0.5-2.1,0.8-4.8,0.8-8.3
								c0-4.1-0.4-7.5-1.3-10c-0.8-2.5-2.1-4.5-3.8-5.9c-1.7-1.4-3.8-2.1-6.4-2.1c-3.4,0-6.1,1.2-8,3.6
								C-95.6,536.4-96.8,541.2-96.8,547.8z M-92.4,547.8c0-5.8,0.7-9.6,2-11.5c1.4-1.9,3-2.9,5-2.9c2,0,3.7,1,5,2.9
								c1.4,1.9,2,5.8,2,11.5c0,5.8-0.7,9.6-2,11.5c-1.4,1.9-3,2.9-5.1,2.9c-2,0-3.6-0.8-4.8-2.5C-91.6,557.5-92.4,553.6-92.4,547.8
								z"/>
						</g>
						<g>
							<path id="ArialMT-56" class="st1" d="M-62.8,549.5c-1.8,0.7-3.1,1.6-4,2.8c-0.9,1.2-1.3,2.7-1.3,4.4c0,2.6,0.9,4.7,2.8,6.5
								c1.8,1.7,4.3,2.6,7.3,2.6c3.1,0,5.5-0.9,7.4-2.7c1.9-1.8,2.8-4,2.8-6.5c0-1.6-0.4-3.1-1.3-4.3c-0.9-1.2-2.2-2.1-3.9-2.8
								c2.2-0.7,3.8-1.8,4.9-3.4c1.1-1.6,1.7-3.4,1.7-5.6c0-3-1.1-5.5-3.2-7.6c-2.1-2-4.9-3.1-8.4-3.1c-3.5,0-6.3,1-8.4,3.1
								c-2.1,2.1-3.2,4.6-3.2,7.7c0,2.3,0.6,4.2,1.7,5.7C-66.6,547.9-65,548.9-62.8,549.5z M-63.7,556.8c0-1.7,0.5-3,1.6-4.1
								c1.1-1.1,2.5-1.6,4.2-1.6c1.7,0,3,0.5,4.1,1.6c1.1,1,1.6,2.3,1.6,3.9c0,1.6-0.6,2.9-1.7,4c-1.1,1.1-2.5,1.6-4.1,1.6
								c-1.6,0-3-0.5-4.1-1.6C-63.1,559.6-63.7,558.3-63.7,556.8z M-65.1,540.6c0-1.2,0.3-2.4,0.9-3.6c0.6-1.2,1.5-2,2.6-2.7
								c1.2-0.6,2.4-0.9,3.7-0.9c2.1,0,3.8,0.7,5.1,2c1.3,1.3,2,3,2,5.1c0,2.1-0.7,3.8-2.1,5.2c-1.4,1.4-3.1,2-5.2,2
								c-2,0-3.7-0.7-5.1-2C-64.4,544.3-65.1,542.6-65.1,540.6z"/>
						</g>
					</g>
				</g>
			</g>
			<g id="text_18">
				<g transform="translate(26.899453 535.53)rotate(-90)scale(0.23 -0.23)">
					<g transform="translate(0 0.45625)">
						<path id="ArialMT-65_2_" class="st1" d="M1183.6,59.7l13.5,35.2h5l14.4-35.2h-5.3l-4.1,10.7h-14.7l-3.9-10.7H1183.6z
							 M1193.8,74.1h11.9l-3.7,9.7c-1.1,3-2,5.4-2.5,7.3c-0.5-2.3-1.1-4.5-1.9-6.7L1193.8,74.1z"/>
					</g>
					<g transform="translate(66.699219 0.45625)">
						<path id="ArialMT-84" class="st1" d="M1229.2,59.7v31h-11.6v4.1h27.9v-4.1h-11.6v-31H1229.2z"/>
					</g>
					<g transform="translate(127.783203 0.45625)">
						<path id="ArialMT-80" class="st1" d="M1250.3,59.7v35.2h13.3c2.3,0,4.1-0.1,5.4-0.3c1.7-0.3,3.2-0.8,4.3-1.7
							c1.2-0.8,2.1-1.9,2.8-3.4c0.7-1.5,1.1-3.1,1.1-4.8c0-3-1-5.5-2.9-7.6c-1.9-2.1-5.3-3.1-10.3-3.1h-9V59.7H1250.3z M1254.9,78.1
							h9.1c3,0,5.1,0.6,6.4,1.7s1.9,2.7,1.9,4.7c0,1.5-0.4,2.7-1.1,3.8c-0.7,1-1.7,1.7-2.9,2.1c-0.8,0.2-2.2,0.3-4.3,0.3h-9V78.1z"
							/>
					</g>
					<g transform="translate(194.482422 0.45625)">
						<path id="ArialMT-32_1_" class="st1" d="M1279.3,59.7"/>
					</g>
					<g transform="translate(222.265625 0.45625)">
						<path id="ArialMT-80_1_" class="st1" d="M1296.7,59.7v35.2h13.3c2.3,0,4.1-0.1,5.4-0.3c1.7-0.3,3.2-0.8,4.3-1.7
							c1.2-0.8,2.1-1.9,2.8-3.4c0.7-1.5,1.1-3.1,1.1-4.8c0-3-1-5.5-2.9-7.6c-1.9-2.1-5.3-3.1-10.3-3.1h-9V59.7H1296.7z M1301.4,78.1
							h9.1c3,0,5.1,0.6,6.4,1.7c1.3,1.1,1.9,2.7,1.9,4.7c0,1.5-0.4,2.7-1.1,3.8c-0.7,1-1.7,1.7-2.9,2.1c-0.8,0.2-2.2,0.3-4.3,0.3h-9
							V78.1z"/>
					</g>
					<g transform="translate(288.964844 0.45625)">
						<path id="ArialMT-114_1_" class="st1" d="M1328.9,59.7v25.5h3.9v-3.9c1,1.8,1.9,3,2.8,3.6c0.8,0.6,1.8,0.9,2.8,0.9
							c1.5,0,2.9-0.5,4.4-1.4l-1.5-4c-1.1,0.6-2.1,0.9-3.2,0.9c-0.9,0-1.8-0.3-2.6-0.9s-1.3-1.4-1.6-2.4c-0.5-1.5-0.7-3.2-0.7-5
							V59.7H1328.9z"/>
					</g>
					<g transform="translate(322.265625 0.45625)">
						<path id="ArialMT-111" class="st1" d="M1343.7,72.4c0,4.7,1.3,8.2,3.9,10.5c2.2,1.9,4.9,2.8,8,2.8c3.5,0,6.4-1.1,8.6-3.4
							c2.2-2.3,3.3-5.5,3.3-9.5c0-3.3-0.5-5.9-1.5-7.7c-1-1.9-2.4-3.3-4.3-4.4c-1.9-1-3.9-1.6-6.2-1.6c-3.6,0-6.5,1.1-8.7,3.4
							C1344.8,64.8,1343.7,68.1,1343.7,72.4z M1348.2,72.4c0-3.3,0.7-5.7,2.1-7.3s3.2-2.4,5.4-2.4c2.1,0,3.9,0.8,5.4,2.4
							c1.4,1.6,2.1,4.1,2.1,7.5c0,3.2-0.7,5.5-2.2,7.2c-1.4,1.6-3.2,2.4-5.3,2.4c-2.2,0-4-0.8-5.4-2.4
							C1348.9,78.1,1348.2,75.7,1348.2,72.4z"/>
					</g>
					<g transform="translate(377.880859 0.45625)">
						<path id="ArialMT-100" class="st1" d="M1389.2,59.7v3.2c-1.6-2.5-4-3.8-7.1-3.8c-2,0-3.9,0.6-5.6,1.7c-1.7,1.1-3,2.7-4,4.7
							c-0.9,2-1.4,4.3-1.4,6.9c0,2.5,0.4,4.9,1.3,6.9c0.9,2.1,2.1,3.7,3.8,4.8c1.7,1.1,3.6,1.7,5.7,1.7c1.5,0,2.9-0.3,4.1-1
							c1.2-0.6,2.2-1.5,2.9-2.5v12.6h4.3V59.7H1389.2z M1375.6,72.4c0-3.3,0.7-5.7,2.1-7.3c1.4-1.6,3-2.4,4.9-2.4
							c1.9,0,3.5,0.8,4.8,2.3c1.3,1.5,2,3.9,2,7.1c0,3.5-0.7,6.1-2,7.7c-1.3,1.6-3,2.5-5,2.5c-1.9,0-3.5-0.8-4.8-2.4
							C1376.2,78.3,1375.6,75.8,1375.6,72.4z"/>
					</g>
					<g transform="translate(433.496094 0.45625)">
						<path id="ArialMT-117_1_" class="st1" d="M1416.7,59.7v3.7c-2-2.9-4.7-4.3-8.1-4.3c-1.5,0-2.9,0.3-4.2,0.9
							c-1.3,0.6-2.3,1.3-2.9,2.2c-0.6,0.9-1.1,1.9-1.3,3.2c-0.2,0.8-0.3,2.2-0.3,4v15.8h4.3V71c0-2.3,0.1-3.8,0.3-4.6
							c0.3-1.1,0.8-2,1.7-2.7s2-1,3.3-1s2.5,0.3,3.6,1c1.1,0.7,1.9,1.6,2.4,2.7c0.5,1.1,0.7,2.8,0.7,5v13.7h4.3V59.7H1416.7z"/>
					</g>
					<g transform="translate(489.111328 0.45625)">
						<path id="ArialMT-99" class="st1" d="M1444,69l4.2-0.6c-0.5-2.9-1.7-5.2-3.6-6.9c-1.9-1.7-4.3-2.5-7-2.5
							c-3.5,0-6.3,1.1-8.4,3.4c-2.1,2.3-3.2,5.6-3.2,9.8c0,2.8,0.5,5.2,1.4,7.2c0.9,2.1,2.3,3.6,4.2,4.6c1.9,1,3.9,1.6,6.1,1.6
							c2.8,0,5-0.7,6.8-2.1c1.8-1.4,2.9-3.4,3.4-6l-4.2-0.7c-0.4,1.7-1.1,3-2.1,3.9c-1,0.9-2.2,1.3-3.7,1.3c-2.2,0-3.9-0.8-5.3-2.3
							c-1.4-1.6-2-4-2-7.4c0-3.4,0.7-5.9,2-7.5c1.3-1.6,3-2.3,5.1-2.3c1.7,0,3.1,0.5,4.2,1.6C1443,65.3,1443.7,66.9,1444,69z"/>
					</g>
					<g transform="translate(539.111328 0.45625)">
						<path id="ArialMT-116_1_" class="st1" d="M1461.4,63.5l0.6-3.8c-1.2-0.3-2.3-0.4-3.3-0.4c-1.6,0-2.8,0.2-3.6,0.7
							c-0.9,0.5-1.5,1.1-1.8,2s-0.5,2.5-0.5,5.1v14.7h-3.2v3.4h3.2v6.3l4.3,2.6v-8.9h4.3v-3.4h-4.3V66.9c0-1.2,0.1-2,0.2-2.4
							c0.2-0.3,0.4-0.6,0.7-0.8c0.3-0.2,0.8-0.3,1.5-0.3C1460,63.4,1460.6,63.4,1461.4,63.5z"/>
					</g>
					<g transform="translate(566.894531 0.45625)">
						<path id="ArialMT-105_1_" class="st1" d="M1465.6,89.9v5h4.3v-5H1465.6z M1465.6,59.7v25.5h4.3V59.7H1465.6z"/>
					</g>
					<g transform="translate(589.111328 0.45625)">
						<path id="ArialMT-111_1_" class="st1" d="M1474.9,72.4c0,4.7,1.3,8.2,3.9,10.5c2.2,1.9,4.9,2.8,8,2.8c3.5,0,6.4-1.1,8.6-3.4
							c2.2-2.3,3.3-5.5,3.3-9.5c0-3.3-0.5-5.9-1.5-7.7c-1-1.9-2.4-3.3-4.3-4.4c-1.9-1-3.9-1.6-6.2-1.6c-3.6,0-6.5,1.1-8.7,3.4
							C1476,64.8,1474.9,68.1,1474.9,72.4z M1479.4,72.4c0-3.3,0.7-5.7,2.1-7.3c1.4-1.6,3.2-2.4,5.4-2.4c2.1,0,3.9,0.8,5.4,2.4
							c1.4,1.6,2.1,4.1,2.1,7.5c0,3.2-0.7,5.5-2.2,7.2c-1.4,1.6-3.2,2.4-5.3,2.4c-2.2,0-4-0.8-5.4-2.4
							C1480.1,78.1,1479.4,75.7,1479.4,72.4z"/>
					</g>
					<g transform="translate(644.726562 0.45625)">
						<path id="ArialMT-110_2_" class="st1" d="M1503.9,59.7v25.5h3.9v-3.6c1.9,2.8,4.6,4.2,8.1,4.2c1.5,0,2.9-0.3,4.2-0.8
							c1.3-0.6,2.3-1.3,2.9-2.2c0.6-0.9,1.1-2,1.3-3.2c0.2-0.8,0.2-2.2,0.2-4.2V59.7h-4.3v15.5c0,1.8-0.2,3.1-0.5,3.9
							c-0.3,0.9-0.9,1.6-1.8,2.1c-0.9,0.5-1.9,0.8-3,0.8c-1.8,0-3.4-0.6-4.8-1.8c-1.3-1.2-2-3.4-2-6.6V59.7H1503.9z"/>
					</g>
					<g transform="translate(700.341797 0.45625)">
						<path id="ArialMT-32_2_" class="st1" d="M1528,59.7"/>
					</g>
					<g transform="translate(728.125 0.45625)">
						<path id="ArialMT-82_1_" class="st1" d="M1545.5,59.7v35.2h15.6c3.1,0,5.5-0.3,7.2-1c1.6-0.6,2.9-1.7,3.9-3.3
							c1-1.6,1.5-3.4,1.5-5.3c0-2.5-0.8-4.6-2.4-6.3c-1.6-1.7-4.1-2.8-7.5-3.3c1.2-0.6,2.2-1.2,2.8-1.8c1.4-1.2,2.6-2.8,3.9-4.7
							l6.1-9.6h-5.9L1566,67c-1.4,2.1-2.5,3.7-3.4,4.8c-0.9,1.1-1.7,1.9-2.4,2.4c-0.7,0.5-1.4,0.8-2.1,0.9c-0.5,0.1-1.4,0.2-2.6,0.2
							h-5.4V59.7H1545.5z M1550.2,79.3h10c2.1,0,3.8,0.2,5,0.7c1.2,0.4,2.1,1.1,2.7,2.1s0.9,2,0.9,3.2c0,1.7-0.6,3-1.8,4.1
							c-1.2,1.1-3.1,1.6-5.7,1.6h-11.1V79.3z"/>
					</g>
					<g transform="translate(800.341797 0.45625)">
						<path id="ArialMT-97_3_" class="st1" d="M1597,62.8c-1.6-1.4-3.1-2.3-4.6-2.9c-1.5-0.6-3.1-0.8-4.8-0.8c-2.8,0-5,0.7-6.5,2.1
							s-2.3,3.1-2.3,5.2c0,1.2,0.3,2.4,0.9,3.4c0.6,1,1.3,1.9,2.2,2.5c0.9,0.6,2,1.1,3.1,1.4c0.8,0.2,2.1,0.4,3.8,0.7
							c3.5,0.4,6.1,0.9,7.7,1.5c0,0.6,0,1,0,1.1c0,1.8-0.4,3-1.2,3.7c-1.1,1-2.7,1.5-4.9,1.5c-2,0-3.5-0.4-4.5-1.1
							c-1-0.7-1.7-2-2.2-3.8l-4.2,0.6c0.4,1.8,1,3.3,1.9,4.4s2.2,2,3.8,2.6c1.7,0.6,3.6,0.9,5.8,0.9c2.2,0,3.9-0.3,5.3-0.8
							c1.4-0.5,2.4-1.2,3-1.9c0.6-0.8,1.1-1.8,1.3-2.9c0.1-0.7,0.2-2.1,0.2-4v-5.8c0-4,0.1-6.6,0.3-7.6c0.2-1.1,0.6-2.1,1.1-3.1
							h-4.5C1597.4,60.6,1597.2,61.6,1597,62.8z M1596.7,72.5c-1.6-0.6-3.9-1.2-7.1-1.6c-1.8-0.3-3-0.5-3.8-0.9
							c-0.7-0.3-1.3-0.8-1.7-1.4c-0.4-0.6-0.6-1.3-0.6-2.1c0-1.2,0.4-2.1,1.3-2.9c0.9-0.8,2.2-1.2,3.8-1.2c1.7,0,3.1,0.4,4.4,1.1
							c1.3,0.7,2.2,1.7,2.9,3c0.5,1,0.7,2.4,0.7,4.3V72.5z"/>
					</g>
					<g transform="translate(855.957031 0.45625)">
						<path id="ArialMT-116_2_" class="st1" d="M1617.2,63.5l0.6-3.8c-1.2-0.3-2.3-0.4-3.3-0.4c-1.6,0-2.8,0.2-3.6,0.7
							c-0.9,0.5-1.5,1.1-1.8,2s-0.5,2.5-0.5,5.1v14.7h-3.2v3.4h3.2v6.3l4.3,2.6v-8.9h4.3v-3.4h-4.3V66.9c0-1.2,0.1-2,0.2-2.4
							c0.2-0.3,0.4-0.6,0.7-0.8s0.8-0.3,1.5-0.3C1615.8,63.4,1616.4,63.4,1617.2,63.5z"/>
					</g>
					<g transform="translate(883.740234 0.45625)">
						<path id="ArialMT-101_4_" class="st1" d="M1638.8,67.9l4.5-0.6c-0.7-2.6-2-4.6-3.9-6.1c-1.9-1.4-4.3-2.2-7.3-2.2
							c-3.7,0-6.7,1.1-8.9,3.4c-2.2,2.3-3.3,5.5-3.3,9.7c0,4.3,1.1,7.6,3.3,10c2.2,2.4,5.1,3.6,8.6,3.6c3.4,0,6.2-1.2,8.4-3.5
							s3.2-5.6,3.2-9.8c0-0.3,0-0.6,0-1.2h-19c0.2-2.8,0.9-4.9,2.4-6.4c1.4-1.5,3.2-2.2,5.3-2.2c1.6,0,2.9,0.4,4.1,1.2
							C1637.3,64.7,1638.2,66.1,1638.8,67.9z M1624.7,74.9h14.2c-0.2,2.1-0.7,3.8-1.6,4.8c-1.4,1.7-3.2,2.5-5.4,2.5
							c-2,0-3.7-0.7-5-2C1625.6,78.9,1624.8,77.1,1624.7,74.9z"/>
					</g>
					<g transform="translate(939.355469 -35.579531)scale(0.942335)">
						<path id="STIXSizeTwoSym-Regular-40" class="st1" d="M1668.8,30.7V29c-5.2,4.9-9.3,11-12.3,18.2c-3,7.3-4.5,15.4-4.5,24.5
							c0,9.1,1.6,17.5,4.7,25.2c3.1,7.7,7.2,13.5,12.2,17.6V113c-3.5-3.6-6.5-8.9-8.9-16c-2.4-7-3.6-15.5-3.6-25.3
							C1656.3,54.6,1660.5,40.9,1668.8,30.7z"/>
					</g>
					<g transform="translate(1145.850311 58.810938)scale(0.7)">
						<path id="DejaVuSans-Oblique-956" class="st1" d="M1746.6,81.2l5.1,26h3.1l-2.3-11.7c0-0.2-0.1-0.5-0.1-0.8c0-0.3,0-0.6,0-0.9
							c0-1,0.3-1.8,1-2.4c0.7-0.6,1.6-0.8,2.8-0.8c1.7,0,3,0.5,4,1.4c1,0.9,1.7,2.4,2.1,4.2l2.1,11h3.1l-2.8-14.5
							c0-0.2-0.1-0.4-0.1-0.6c0-0.2,0-0.3,0-0.4c0-0.3,0.1-0.6,0.2-0.8c0.1-0.2,0.4-0.2,0.7-0.2c0.1,0,0.3,0,0.5,0.1
							c0.2,0.1,0.5,0.2,0.8,0.3l-0.5-2.5c-0.5-0.2-1-0.4-1.4-0.6s-0.9-0.2-1.3-0.2c-0.7,0-1.3,0.2-1.7,0.7c-0.4,0.5-0.6,1.1-0.6,2
							c-0.6-0.9-1.4-1.6-2.2-2c-0.9-0.4-1.9-0.7-3.1-0.7c-1,0-2,0.2-2.7,0.7c-0.8,0.5-1.3,1.1-1.5,1.9l-1.8-9.3H1746.6z"/>
					</g>
					<g transform="translate(1190.386444 58.810938)scale(0.7)">
						<path id="DejaVuSans-Oblique-109" class="st1" d="M1799.8,99.7l-2.2-11.4h-3.1l2.2,11.3c0.1,0.5,0.2,0.9,0.2,1.2
							c0,0.3,0.1,0.6,0.1,0.9c0,1-0.3,1.8-0.8,2.3c-0.6,0.6-1.3,0.8-2.3,0.8c-1.5,0-2.8-0.6-4-1.7s-1.9-2.6-2.3-4.4l-2.1-10.5h-3.1
							l2.2,11.3c0.1,0.4,0.2,0.8,0.2,1.1c0,0.4,0.1,0.7,0.1,1c0,1-0.3,1.8-0.8,2.4c-0.6,0.6-1.3,0.8-2.3,0.8c-1.5,0-2.9-0.6-4.1-1.7
							c-1.2-1.1-1.9-2.6-2.3-4.4l-2.1-10.5h-3.1l3.7,18.8h3.1l-0.6-2.9c0.8,1.1,1.8,1.9,2.9,2.5c1.1,0.6,2.3,0.9,3.6,0.9
							c1.4,0,2.5-0.4,3.4-1.1c0.9-0.7,1.4-1.7,1.6-3c0.9,1.3,2,2.3,3.3,3c1.2,0.7,2.5,1,3.9,1c1.6,0,2.9-0.5,3.7-1.4
							c0.9-0.9,1.3-2.2,1.3-3.9c0-0.4,0-0.8-0.1-1.2C1800,100.6,1799.9,100.2,1799.8,99.7z"/>
					</g>
					<g transform="translate(1258.574921 58.810938)scale(0.7)">
						<path id="DejaVuSans-Oblique-111" class="st1" d="M1811.2,87.9c-2.2,0-4,0.7-5.2,2c-1.3,1.4-1.9,3.2-1.9,5.6
							c0,1.4,0.2,2.8,0.7,4.2c0.4,1.4,1,2.6,1.7,3.6c1.1,1.5,2.3,2.6,3.7,3.3s2.9,1.1,4.6,1.1c2.1,0,3.9-0.7,5.2-2
							c1.3-1.3,2-3.1,2-5.2c0-1.5-0.2-3-0.7-4.5c-0.4-1.5-1-2.7-1.7-3.7c-1.1-1.5-2.3-2.6-3.7-3.3S1812.9,87.9,1811.2,87.9z
							 M1807.2,95.6c0-1.7,0.4-3,1.1-3.8c0.7-0.8,1.8-1.3,3.2-1.3c2.1,0,3.8,0.9,5.1,2.7c1.4,1.8,2,4.1,2,6.9c0,1.6-0.4,2.8-1.1,3.7
							c-0.7,0.8-1.8,1.2-3.2,1.2c-1.2,0-2.2-0.3-3.1-0.8c-0.9-0.5-1.7-1.4-2.4-2.5c-0.5-0.8-0.9-1.8-1.2-2.8
							C1807.4,97.8,1807.2,96.7,1807.2,95.6z"/>
					</g>
					<g transform="translate(1301.402069 58.810938)scale(0.7)">
						<path id="DejaVuSans-Oblique-108" class="st1" d="M1829.8,114.5h3.1l-5.1-26.1h-3.1L1829.8,114.5z"/>
					</g>
					<g transform="translate(994.850311 -40.185937)scale(0.7)">
						<path id="DejaVuSans-Oblique-109_1_" class="st1" d="M1703.7,51.1l-2.2-11.4h-3.1l2.2,11.3c0.1,0.5,0.2,0.9,0.2,1.2
							c0,0.3,0.1,0.6,0.1,0.9c0,1-0.3,1.8-0.8,2.3c-0.6,0.6-1.3,0.8-2.3,0.8c-1.5,0-2.8-0.6-4-1.7c-1.2-1.1-1.9-2.6-2.3-4.4
							l-2.1-10.5h-3.1l2.2,11.3c0.1,0.4,0.2,0.8,0.2,1.1c0,0.4,0.1,0.7,0.1,1c0,1-0.3,1.8-0.8,2.4c-0.6,0.6-1.3,0.8-2.3,0.8
							c-1.5,0-2.9-0.6-4.1-1.7c-1.2-1.1-1.9-2.6-2.3-4.4l-2.1-10.5h-3.1l3.7,18.8h3.1l-0.6-2.9c0.8,1.1,1.8,1.9,2.9,2.5
							c1.1,0.6,2.3,0.9,3.6,0.9c1.4,0,2.5-0.4,3.4-1.1c0.9-0.7,1.4-1.7,1.6-3c0.9,1.3,2,2.3,3.3,3c1.2,0.7,2.5,1,3.9,1
							c1.6,0,2.9-0.5,3.7-1.4c0.9-0.9,1.3-2.2,1.3-3.9c0-0.4,0-0.8-0.1-1.2C1703.8,52,1703.8,51.5,1703.7,51.1z"/>
					</g>
					<g transform="translate(1063.038788 -40.185937)scale(0.7)">
						<path id="DejaVuSans-Oblique-103" class="st1" d="M1726.8,58.5l-3.2-16.5c-0.6-3.2-1.8-5.6-3.5-7.1c-1.7-1.6-4.1-2.4-7-2.4
							c-1.1,0-2.1,0.1-3,0.2c-0.9,0.2-1.8,0.4-2.6,0.7l0.6,3c0.8-0.5,1.6-0.9,2.4-1.1c0.9-0.2,1.8-0.4,2.7-0.4c2,0,3.6,0.5,4.8,1.6
							c1.3,1.1,2.1,2.6,2.5,4.6l0.3,1.4c-0.9-1-1.9-1.7-3-2.3c-1.1-0.5-2.4-0.8-3.7-0.8c-1.9,0-3.4,0.6-4.5,1.9
							c-1.1,1.3-1.6,3-1.6,5.2c0,1.7,0.3,3.4,1,5.1c0.7,1.7,1.6,3.1,2.8,4.4c0.8,0.8,1.7,1.5,2.8,2c1.1,0.5,2.2,0.7,3.3,0.7
							c1.3,0,2.4-0.3,3.3-0.9c0.9-0.6,1.6-1.4,2.1-2.5l0.5,2.9H1726.8z M1722.2,51.6c0,1.5-0.4,2.7-1.1,3.5
							c-0.7,0.8-1.7,1.2-3.1,1.2c-0.8,0-1.6-0.2-2.3-0.5c-0.7-0.3-1.4-0.8-1.9-1.4c-0.9-1-1.5-2.1-2-3.4c-0.5-1.3-0.7-2.7-0.7-4
							c0-1.5,0.4-2.7,1.1-3.6c0.7-0.8,1.8-1.2,3.1-1.2c2,0,3.6,0.9,4.9,2.7C1721.5,46.7,1722.2,48.9,1722.2,51.6z"/>
					</g>
					<g transform="translate(1107.472382 -51.670312)scale(0.49)">
						<path id="DejaVuSans-Oblique-112" class="st1" d="M1740.1,42.2c0,1.2-0.3,2-0.8,2.6c-0.5,0.6-1.2,0.9-2.2,0.9
							c-0.6,0-1.3-0.2-1.8-0.5c-0.6-0.3-1.1-0.8-1.6-1.4c-0.4-0.6-0.8-1.4-1.1-2.2c-0.3-0.9-0.4-1.7-0.4-2.6c0-1.1,0.3-1.9,0.8-2.5
							c0.5-0.6,1.2-0.9,2.1-0.9c0.7,0,1.3,0.2,1.9,0.5c0.6,0.3,1.1,0.8,1.5,1.4c0.4,0.6,0.8,1.4,1.1,2.3
							C1740,40.5,1740.1,41.4,1740.1,42.2z M1733.4,45.2c0.6,0.8,1.3,1.3,2.1,1.7s1.7,0.6,2.6,0.6c1.3,0,2.4-0.4,3.1-1.3
							c0.7-0.9,1.1-2.1,1.1-3.7c0-1.3-0.2-2.5-0.7-3.7c-0.5-1.2-1.1-2.2-2-3.2c-0.6-0.6-1.2-1.1-2-1.4c-0.7-0.3-1.5-0.5-2.3-0.5
							c-0.9,0-1.7,0.2-2.4,0.6c-0.6,0.4-1.1,1-1.4,1.7l-1.4-7h-2.2l3.5,18.2h2.2L1733.4,45.2z"/>
					</g>
					<g transform="translate(1138.575897 -51.670312)scale(0.49)">
						<path id="DejaVuSans-Oblique-114" class="st1" d="M1754.2,45.2c-0.2,0.1-0.5,0.2-0.8,0.3c-0.3,0.1-0.6,0.1-0.9,0.1
							c-1.2,0-2.2-0.4-3-1.3c-0.9-0.9-1.4-2-1.7-3.5l-1.3-6.7h-2.2l2.6,13.2h2.2l-0.4-2c0.6,0.8,1.3,1.3,2.1,1.8
							c0.8,0.4,1.6,0.6,2.5,0.6c0.2,0,0.5,0,0.7,0c0.2,0,0.5-0.1,0.7-0.1L1754.2,45.2z"/>
					</g>
					<g transform="translate(1158.721405 -51.670312)scale(0.49)">
						<path id="DejaVuSans-Oblique-111_1_" class="st1" d="M1759.5,33.7c-1.5,0-2.8,0.5-3.7,1.4c-0.9,1-1.3,2.3-1.3,3.9
							c0,1,0.2,1.9,0.5,2.9c0.3,1,0.7,1.8,1.2,2.5c0.8,1,1.6,1.8,2.6,2.3s2,0.8,3.2,0.8c1.5,0,2.7-0.5,3.6-1.4
							c0.9-0.9,1.4-2.1,1.4-3.7c0-1-0.2-2.1-0.5-3.1c-0.3-1-0.7-1.9-1.2-2.6c-0.8-1.1-1.6-1.8-2.6-2.3
							C1761.8,34,1760.7,33.7,1759.5,33.7z M1756.7,39.1c0-1.2,0.2-2.1,0.7-2.7c0.5-0.6,1.3-0.9,2.3-0.9c1.5,0,2.7,0.6,3.6,1.9
							c1,1.3,1.4,2.9,1.4,4.8c0,1.1-0.3,2-0.8,2.6c-0.5,0.6-1.3,0.9-2.2,0.9c-0.8,0-1.5-0.2-2.2-0.6c-0.6-0.4-1.2-1-1.7-1.7
							c-0.4-0.6-0.7-1.2-0.9-2C1756.8,40.7,1756.7,39.9,1756.7,39.1z"/>
					</g>
					<g transform="translate(1188.700409 -51.670312)scale(0.49)">
						<path id="DejaVuSans-Oblique-116" class="st1" d="M1778.3,47.2l-0.3-1.7h-4.3l-1.4-7.2c0-0.3-0.1-0.5-0.1-0.7s0-0.3,0-0.4
							c0-0.5,0.2-0.9,0.5-1.1c0.3-0.2,0.8-0.3,1.5-0.3h2.2l-0.4-1.8h-2.1c-1.3,0-2.2,0.3-2.9,0.8c-0.6,0.5-0.9,1.3-0.9,2.3
							c0,0.2,0,0.4,0,0.6c0,0.2,0.1,0.5,0.1,0.7l1.4,7.2h-1.8l0.3,1.7h1.8l0.7,3.7h2.2l-0.7-3.7H1778.3z"/>
					</g>
					<g transform="translate(1207.912811 -51.670312)scale(0.49)">
						<path id="DejaVuSans-Oblique-101" class="st1" d="M1789.1,41.8c0,0.1,0,0.3,0.1,0.4c0,0.1,0,0.3,0,0.4c0,1-0.3,1.7-0.8,2.3
							c-0.6,0.6-1.3,0.8-2.3,0.8c-1.1,0-2-0.3-2.8-1c-0.8-0.7-1.4-1.6-1.9-2.9L1789.1,41.8z M1791,40.1h-10.1c0-0.3-0.1-0.5-0.1-0.7
							c0-0.2,0-0.3,0-0.4c0-1.1,0.3-1.9,1-2.5c0.7-0.6,1.6-0.9,2.8-0.9c0.9,0,1.8,0.1,2.7,0.3c0.8,0.2,1.6,0.5,2.3,0.9l-0.4-2.1
							c-0.8-0.3-1.6-0.5-2.4-0.7c-0.8-0.2-1.7-0.2-2.5-0.2c-1.8,0-3.2,0.4-4.2,1.3c-1,0.9-1.5,2.1-1.5,3.7c0,1.4,0.2,2.6,0.7,3.8
							c0.5,1.2,1.2,2.2,2.2,3.2c0.6,0.6,1.3,1,2.2,1.3c0.8,0.3,1.7,0.5,2.7,0.5c1.5,0,2.7-0.4,3.6-1.3c0.9-0.9,1.3-2.1,1.3-3.6
							c0-0.4,0-0.7-0.1-1.2C1791.2,41,1791.1,40.6,1791,40.1z"/>
					</g>
					<g transform="translate(1238.059296 -51.670312)scale(0.49)">
						<path id="DejaVuSans-Oblique-105" class="st1" d="M1796.8,52.4h2.2l-0.5-2.7h-2.2L1796.8,52.4z M1795.8,47.2h2.2l-2.6-13.2
							h-2.2L1795.8,47.2z"/>
					</g>
					<g transform="translate(1251.673065 -51.670312)scale(0.49)">
						<path id="DejaVuSans-Oblique-110" class="st1" d="M1812.5,42l-1.5-8h-2.2l1.5,7.9c0.1,0.4,0.1,0.7,0.2,1
							c0,0.3,0.1,0.5,0.1,0.7c0,0.7-0.2,1.2-0.6,1.5c-0.4,0.4-1,0.6-1.7,0.6c-1.2,0-2.2-0.4-3-1.2c-0.8-0.8-1.4-1.8-1.6-3.1
							l-1.4-7.3h-2.2l2.6,13.2h2.2l-0.4-2.1c0.6,0.8,1.3,1.3,2.2,1.8c0.8,0.4,1.7,0.6,2.7,0.6c1.2,0,2.1-0.3,2.7-0.9
							c0.6-0.6,1-1.5,1-2.6c0-0.3,0-0.6-0.1-0.9S1812.5,42.4,1812.5,42z"/>
					</g>
					<g transform="translate(1298.280487 -40.185937)scale(0.7)">
						<path id="DejaVuSans-8901" class="st1" d="M1825.6,53.8h3.5v-4.3h-3.5V53.8z"/>
					</g>
					<g transform="translate(1334.169159 -40.185937)scale(0.7)">
						<path id="DejaVuSans-Oblique-109_2_" class="st1" d="M1870.5,51.1l-2.2-11.4h-3.1l2.2,11.3c0.1,0.5,0.2,0.9,0.2,1.2
							c0,0.3,0.1,0.6,0.1,0.9c0,1-0.3,1.8-0.8,2.3c-0.6,0.6-1.3,0.8-2.3,0.8c-1.5,0-2.8-0.6-4-1.7c-1.2-1.1-1.9-2.6-2.3-4.4
							l-2.1-10.5h-3.1l2.2,11.3c0.1,0.4,0.2,0.8,0.2,1.1c0,0.4,0.1,0.7,0.1,1c0,1-0.3,1.8-0.8,2.4c-0.6,0.6-1.3,0.8-2.3,0.8
							c-1.5,0-2.9-0.6-4.1-1.7c-1.2-1.1-1.9-2.6-2.3-4.4l-2.1-10.5h-3.1l3.7,18.8h3.1l-0.6-2.9c0.8,1.1,1.8,1.9,2.9,2.5
							c1.1,0.6,2.3,0.9,3.6,0.9c1.4,0,2.5-0.4,3.4-1.1c0.9-0.7,1.4-1.7,1.6-3c0.9,1.3,2,2.3,3.3,3c1.2,0.7,2.5,1,3.9,1
							c1.6,0,2.9-0.5,3.7-1.4c0.9-0.9,1.3-2.2,1.3-3.9c0-0.4,0-0.8-0.1-1.2C1870.7,52,1870.6,51.5,1870.5,51.1z"/>
					</g>
					<g transform="translate(1402.357635 -40.185937)scale(0.7)">
						<path id="DejaVuSans-Oblique-105_1_" class="st1" d="M1879.4,65.8h3.1l-0.8-3.9h-3.1L1879.4,65.8z M1878,58.5h3.1l-3.7-18.8
							h-3.1L1878,58.5z"/>
					</g>
					<g transform="translate(1421.805878 -40.185937)scale(0.7)">
						<path id="DejaVuSans-Oblique-110_1_" class="st1" d="M1901.9,51.1l-2.2-11.4h-3.1l2.2,11.2c0.1,0.5,0.2,1,0.2,1.4
							c0.1,0.4,0.1,0.7,0.1,1c0,0.9-0.3,1.7-0.9,2.2c-0.6,0.5-1.4,0.8-2.5,0.8c-1.7,0-3.1-0.6-4.3-1.7c-1.2-1.1-2-2.6-2.4-4.5
							l-2.1-10.4h-3.1l3.6,18.8h3.1l-0.6-3c0.9,1.1,1.9,1.9,3.1,2.5c1.2,0.6,2.5,0.9,3.8,0.9c1.7,0,2.9-0.4,3.9-1.3
							c0.9-0.9,1.4-2.2,1.4-3.8c0-0.4,0-0.8-0.1-1.3C1902,52.1,1902,51.6,1901.9,51.1z"/>
					</g>
					<g transform="translate(1483.840102 -35.579531)scale(0.942335)">
						<path id="STIXSizeTwoSym-Regular-41" class="st1" d="M1918.5,112.8v1.7c5.2-4.9,9.3-10.9,12.3-18.2c3-7.3,4.5-15.4,4.5-24.6
							c0-9.1-1.6-17.5-4.7-25.1c-3.1-7.7-7.2-13.5-12.2-17.6v1.5c3.5,3.6,6.5,8.9,8.9,16c2.4,7,3.6,15.4,3.6,25.2
							C1930.9,88.9,1926.8,102.6,1918.5,112.8z"/>
					</g>
					<path class="st1" d="M1672.8,68.9V72H1907v-3.1H1672.8z"/>
				</g>
			</g>
		</g>
		<g id="patch_3">
			<g>
				<defs>
					<rect id="SVGID_1_" x="44.2" y="42.5" width="274.3" height="267.3"/>
				</defs>
				<clipPath id="SVGID_2_">
					<use xlink:href="#SVGID_1_"  style="overflow:visible;"/>
				</clipPath>
				<path class="st2" d="M46.7,309.7h10v-222h-10V309.7z"/>
			</g>
		</g>
		<g id="patch_4">
			<g>
				<defs>
					<rect id="SVGID_3_" x="44.2" y="42.5" width="274.3" height="267.3"/>
				</defs>
				<clipPath id="SVGID_4_">
					<use xlink:href="#SVGID_3_"  style="overflow:visible;"/>
				</clipPath>
				<path class="st3" d="M71.7,309.7h10V58.1h-10V309.7z"/>
			</g>
		</g>
		<g id="patch_5">
			<g>
				<defs>
					<rect id="SVGID_5_" x="44.2" y="42.5" width="274.3" height="267.3"/>
				</defs>
				<clipPath id="SVGID_6_">
					<use xlink:href="#SVGID_5_"  style="overflow:visible;"/>
				</clipPath>
				<path class="st4" d="M96.6,309.7h10V122.5h-10V309.7z"/>
			</g>
		</g>
		<g id="patch_6">
			<g>
				<defs>
					<rect id="SVGID_7_" x="44.2" y="42.5" width="274.3" height="267.3"/>
				</defs>
				<clipPath id="SVGID_8_">
					<use xlink:href="#SVGID_7_"  style="overflow:visible;"/>
				</clipPath>
				<path class="st5" d="M121.6,309.7h10V101.2h-10V309.7z"/>
			</g>
		</g>
		<g id="patch_7">
			<g>
				<defs>
					<rect id="SVGID_9_" x="44.2" y="42.5" width="274.3" height="267.3"/>
				</defs>
				<clipPath id="SVGID_10_">
					<use xlink:href="#SVGID_9_"  style="overflow:visible;"/>
				</clipPath>
				<path class="st6" d="M146.5,309.7h10V148.6h-10V309.7z"/>
			</g>
		</g>
		<g id="patch_8">
			<g>
				<defs>
					<rect id="SVGID_11_" x="44.2" y="42.5" width="274.3" height="267.3"/>
				</defs>
				<clipPath id="SVGID_12_">
					<use xlink:href="#SVGID_11_"  style="overflow:visible;"/>
				</clipPath>
				<path class="st7" d="M171.4,309.7h10V82.4h-10V309.7z"/>
			</g>
		</g>
		<g id="patch_9">
			<g>
				<defs>
					<rect id="SVGID_13_" x="44.2" y="42.5" width="274.3" height="267.3"/>
				</defs>
				<clipPath id="SVGID_14_">
					<use xlink:href="#SVGID_13_"  style="overflow:visible;"/>
				</clipPath>
				<path class="st8" d="M196.4,309.7h10V157.9h-10V309.7z"/>
			</g>
		</g>
		<g id="patch_10">
			<g>
				<defs>
					<rect id="SVGID_15_" x="44.2" y="42.5" width="274.3" height="267.3"/>
				</defs>
				<clipPath id="SVGID_16_">
					<use xlink:href="#SVGID_15_"  style="overflow:visible;"/>
				</clipPath>
				<path class="st9" d="M221.3,309.7h10V119.6h-10V309.7z"/>
			</g>
		</g>
		<g id="patch_11">
			<g>
				<defs>
					<rect id="SVGID_17_" x="44.2" y="42.5" width="274.3" height="267.3"/>
				</defs>
				<clipPath id="SVGID_18_">
					<use xlink:href="#SVGID_17_"  style="overflow:visible;"/>
				</clipPath>
				<path class="st10" d="M246.3,309.7h10V126h-10V309.7z"/>
			</g>
		</g>
		<g id="patch_12">
			<g>
				<defs>
					<rect id="SVGID_19_" x="44.2" y="42.5" width="274.3" height="267.3"/>
				</defs>
				<clipPath id="SVGID_20_">
					<use xlink:href="#SVGID_19_"  style="overflow:visible;"/>
				</clipPath>
				<path class="st11" d="M271.2,309.7h10V102.4h-10V309.7z"/>
			</g>
		</g>
		<g id="patch_13">
			<g>
				<defs>
					<rect id="SVGID_21_" x="44.2" y="42.5" width="274.3" height="267.3"/>
				</defs>
				<clipPath id="SVGID_22_">
					<use xlink:href="#SVGID_21_"  style="overflow:visible;"/>
				</clipPath>
				<path class="st12" d="M296.1,309.7h10V93.6h-10V309.7z"/>
			</g>
		</g>
		<g id="patch_14">
			<g>
				<defs>
					<rect id="SVGID_23_" x="44.2" y="42.5" width="274.3" height="267.3"/>
				</defs>
				<clipPath id="SVGID_24_">
					<use xlink:href="#SVGID_23_"  style="overflow:visible;"/>
				</clipPath>
				<path class="st13" d="M56.7,309.7h10v-48.4h-10V309.7z"/>
			</g>
		</g>
		<g id="patch_15">
			<g>
				<defs>
					<rect id="SVGID_25_" x="44.2" y="42.5" width="274.3" height="267.3"/>
				</defs>
				<clipPath id="SVGID_26_">
					<use xlink:href="#SVGID_25_"  style="overflow:visible;"/>
				</clipPath>
				<path class="st14" d="M81.7,309.7h10v-46.3h-10V309.7z"/>
			</g>
		</g>
		<g id="patch_16">
			<g>
				<defs>
					<rect id="SVGID_27_" x="44.2" y="42.5" width="274.3" height="267.3"/>
				</defs>
				<clipPath id="SVGID_28_">
					<use xlink:href="#SVGID_27_"  style="overflow:visible;"/>
				</clipPath>
				<path class="st15" d="M106.6,309.7h10v-45.4h-10V309.7z"/>
			</g>
		</g>
		<g id="patch_17">
			<g>
				<defs>
					<rect id="SVGID_29_" x="44.2" y="42.5" width="274.3" height="267.3"/>
				</defs>
				<clipPath id="SVGID_30_">
					<use xlink:href="#SVGID_29_"  style="overflow:visible;"/>
				</clipPath>
				<path class="st16" d="M131.5,309.7h10v-50h-10V309.7z"/>
			</g>
		</g>
		<g id="patch_18">
			<g>
				<defs>
					<rect id="SVGID_31_" x="44.2" y="42.5" width="274.3" height="267.3"/>
				</defs>
				<clipPath id="SVGID_32_">
					<use xlink:href="#SVGID_31_"  style="overflow:visible;"/>
				</clipPath>
				<path class="st17" d="M156.5,309.7h10v-69h-10V309.7z"/>
			</g>
		</g>
		<g id="patch_19">
			<g>
				<defs>
					<rect id="SVGID_33_" x="44.2" y="42.5" width="274.3" height="267.3"/>
				</defs>
				<clipPath id="SVGID_34_">
					<use xlink:href="#SVGID_33_"  style="overflow:visible;"/>
				</clipPath>
				<path class="st18" d="M181.4,309.7h10v-51.6h-10V309.7z"/>
			</g>
		</g>
		<g id="patch_20">
			<g>
				<defs>
					<rect id="SVGID_35_" x="44.2" y="42.5" width="274.3" height="267.3"/>
				</defs>
				<clipPath id="SVGID_36_">
					<use xlink:href="#SVGID_35_"  style="overflow:visible;"/>
				</clipPath>
				<path class="st19" d="M206.4,309.7h10v-50h-10V309.7z"/>
			</g>
		</g>
		<g id="patch_21">
			<g>
				<defs>
					<rect id="SVGID_37_" x="44.2" y="42.5" width="274.3" height="267.3"/>
				</defs>
				<clipPath id="SVGID_38_">
					<use xlink:href="#SVGID_37_"  style="overflow:visible;"/>
				</clipPath>
				<path class="st20" d="M231.3,309.7h10V188.7h-10V309.7z"/>
			</g>
		</g>
		<g id="patch_22">
			<g>
				<defs>
					<rect id="SVGID_39_" x="44.2" y="42.5" width="274.3" height="267.3"/>
				</defs>
				<clipPath id="SVGID_40_">
					<use xlink:href="#SVGID_39_"  style="overflow:visible;"/>
				</clipPath>
				<path class="st21" d="M256.2,309.7h10v-60h-10V309.7z"/>
			</g>
		</g>
		<g id="patch_23">
			<g>
				<defs>
					<rect id="SVGID_41_" x="44.2" y="42.5" width="274.3" height="267.3"/>
				</defs>
				<clipPath id="SVGID_42_">
					<use xlink:href="#SVGID_41_"  style="overflow:visible;"/>
				</clipPath>
				<path class="st22" d="M281.2,309.7h10v-58.4h-10V309.7z"/>
			</g>
		</g>
		<g id="patch_24">
			<g>
				<defs>
					<rect id="SVGID_43_" x="44.2" y="42.5" width="274.3" height="267.3"/>
				</defs>
				<clipPath id="SVGID_44_">
					<use xlink:href="#SVGID_43_"  style="overflow:visible;"/>
				</clipPath>
				<path class="st23" d="M306.1,309.7h10v-35.6h-10V309.7z"/>
			</g>
		</g>
		<g id="line2d_1">
			<g>
				<defs>
					<rect id="SVGID_45_" x="44.2" y="42.5" width="274.3" height="267.3"/>
				</defs>
				<clipPath id="SVGID_46_">
					<use xlink:href="#SVGID_45_"  style="overflow:visible;"/>
				</clipPath>
				<path class="st24" d="M51.7,95.4V81.2"/>
			</g>
		</g>
		<g id="line2d_2">
			<g>
				<defs>
					<rect id="SVGID_47_" x="44.2" y="42.5" width="274.3" height="267.3"/>
				</defs>
				<clipPath id="SVGID_48_">
					<use xlink:href="#SVGID_47_"  style="overflow:visible;"/>
				</clipPath>
				<path class="st25" d="M76.7,61.2v-6"/>
			</g>
		</g>
		<g id="line2d_3">
			<g>
				<defs>
					<rect id="SVGID_49_" x="44.2" y="42.5" width="274.3" height="267.3"/>
				</defs>
				<clipPath id="SVGID_50_">
					<use xlink:href="#SVGID_49_"  style="overflow:visible;"/>
				</clipPath>
				<path class="st26" d="M101.6,130.3v-19.3"/>
			</g>
		</g>
		<g id="line2d_4">
			<g>
				<defs>
					<rect id="SVGID_51_" x="44.2" y="42.5" width="274.3" height="267.3"/>
				</defs>
				<clipPath id="SVGID_52_">
					<use xlink:href="#SVGID_51_"  style="overflow:visible;"/>
				</clipPath>
				<path class="st27" d="M126.5,107V92.7"/>
			</g>
		</g>
		<g id="line2d_5">
			<g>
				<defs>
					<rect id="SVGID_53_" x="44.2" y="42.5" width="274.3" height="267.3"/>
				</defs>
				<clipPath id="SVGID_54_">
					<use xlink:href="#SVGID_53_"  style="overflow:visible;"/>
				</clipPath>
				<path class="st28" d="M151.5,163.8v-23.9"/>
			</g>
		</g>
		<g id="line2d_6">
			<g>
				<defs>
					<rect id="SVGID_55_" x="44.2" y="42.5" width="274.3" height="267.3"/>
				</defs>
				<clipPath id="SVGID_56_">
					<use xlink:href="#SVGID_55_"  style="overflow:visible;"/>
				</clipPath>
				<path class="st29" d="M176.4,110.4V65.8"/>
			</g>
		</g>
		<g id="line2d_7">
			<g>
				<defs>
					<rect id="SVGID_57_" x="44.2" y="42.5" width="274.3" height="267.3"/>
				</defs>
				<clipPath id="SVGID_58_">
					<use xlink:href="#SVGID_57_"  style="overflow:visible;"/>
				</clipPath>
				<path class="st30" d="M201.4,192.8v-61.1"/>
			</g>
		</g>
		<g id="line2d_8">
			<g>
				<defs>
					<rect id="SVGID_59_" x="44.2" y="42.5" width="274.3" height="267.3"/>
				</defs>
				<clipPath id="SVGID_60_">
					<use xlink:href="#SVGID_59_"  style="overflow:visible;"/>
				</clipPath>
				<path class="st31" d="M226.3,138.9v-37.3"/>
			</g>
		</g>
		<g id="line2d_9">
			<g>
				<defs>
					<rect id="SVGID_61_" x="44.2" y="42.5" width="274.3" height="267.3"/>
				</defs>
				<clipPath id="SVGID_62_">
					<use xlink:href="#SVGID_61_"  style="overflow:visible;"/>
				</clipPath>
				<path class="st32" d="M251.2,145v-41.4"/>
			</g>
		</g>
		<g id="line2d_10">
			<g>
				<defs>
					<rect id="SVGID_63_" x="44.2" y="42.5" width="274.3" height="267.3"/>
				</defs>
				<clipPath id="SVGID_64_">
					<use xlink:href="#SVGID_63_"  style="overflow:visible;"/>
				</clipPath>
				<path class="st33" d="M276.2,130.7V84.5"/>
			</g>
		</g>
		<g id="line2d_11">
			<g>
				<defs>
					<rect id="SVGID_65_" x="44.2" y="42.5" width="274.3" height="267.3"/>
				</defs>
				<clipPath id="SVGID_66_">
					<use xlink:href="#SVGID_65_"  style="overflow:visible;"/>
				</clipPath>
				<path class="st34" d="M301.1,97.9v-8.5"/>
			</g>
		</g>
		<g id="line2d_12">
			<g>
				<defs>
					<rect id="SVGID_67_" x="44.2" y="42.5" width="274.3" height="267.3"/>
				</defs>
				<clipPath id="SVGID_68_">
					<use xlink:href="#SVGID_67_"  style="overflow:visible;"/>
				</clipPath>
				<path class="st35" d="M61.7,268.7V257"/>
			</g>
		</g>
		<g id="line2d_13">
			<g>
				<defs>
					<rect id="SVGID_69_" x="44.2" y="42.5" width="274.3" height="267.3"/>
				</defs>
				<clipPath id="SVGID_70_">
					<use xlink:href="#SVGID_69_"  style="overflow:visible;"/>
				</clipPath>
				<path class="st36" d="M86.6,264.4v-2.5"/>
			</g>
		</g>
		<g id="line2d_14">
			<g>
				<defs>
					<rect id="SVGID_71_" x="44.2" y="42.5" width="274.3" height="267.3"/>
				</defs>
				<clipPath id="SVGID_72_">
					<use xlink:href="#SVGID_71_"  style="overflow:visible;"/>
				</clipPath>
				<path class="st37" d="M111.6,265.7v-2.9"/>
			</g>
		</g>
		<g id="line2d_15">
			<g>
				<defs>
					<rect id="SVGID_73_" x="44.2" y="42.5" width="274.3" height="267.3"/>
				</defs>
				<clipPath id="SVGID_74_">
					<use xlink:href="#SVGID_73_"  style="overflow:visible;"/>
				</clipPath>
				<path class="st38" d="M136.5,262.1v-4.6"/>
			</g>
		</g>
		<g id="line2d_16">
			<g>
				<defs>
					<rect id="SVGID_75_" x="44.2" y="42.5" width="274.3" height="267.3"/>
				</defs>
				<clipPath id="SVGID_76_">
					<use xlink:href="#SVGID_75_"  style="overflow:visible;"/>
				</clipPath>
				<path class="st39" d="M161.5,241.2v-1.1"/>
			</g>
		</g>
		<g id="line2d_17">
			<g>
				<defs>
					<rect id="SVGID_77_" x="44.2" y="42.5" width="274.3" height="267.3"/>
				</defs>
				<clipPath id="SVGID_78_">
					<use xlink:href="#SVGID_77_"  style="overflow:visible;"/>
				</clipPath>
				<path class="st40" d="M186.4,260.3V256"/>
			</g>
		</g>
		<g id="line2d_18">
			<g>
				<defs>
					<rect id="SVGID_79_" x="44.2" y="42.5" width="274.3" height="267.3"/>
				</defs>
				<clipPath id="SVGID_80_">
					<use xlink:href="#SVGID_79_"  style="overflow:visible;"/>
				</clipPath>
				<path class="st41" d="M211.3,262.8v-5.5"/>
			</g>
		</g>
		<g id="line2d_19">
			<g>
				<defs>
					<rect id="SVGID_81_" x="44.2" y="42.5" width="274.3" height="267.3"/>
				</defs>
				<clipPath id="SVGID_82_">
					<use xlink:href="#SVGID_81_"  style="overflow:visible;"/>
				</clipPath>
				<path class="st42" d="M236.3,193.8v-12.1"/>
			</g>
		</g>
		<g id="line2d_20">
			<g>
				<defs>
					<rect id="SVGID_83_" x="44.2" y="42.5" width="274.3" height="267.3"/>
				</defs>
				<clipPath id="SVGID_84_">
					<use xlink:href="#SVGID_83_"  style="overflow:visible;"/>
				</clipPath>
				<path class="st43" d="M261.2,251.9v-5.1"/>
			</g>
		</g>
		<g id="line2d_21">
			<g>
				<defs>
					<rect id="SVGID_85_" x="44.2" y="42.5" width="274.3" height="267.3"/>
				</defs>
				<clipPath id="SVGID_86_">
					<use xlink:href="#SVGID_85_"  style="overflow:visible;"/>
				</clipPath>
				<path class="st44" d="M286.2,256.9v-8.7"/>
			</g>
		</g>
		<g id="line2d_22">
			<g>
				<defs>
					<rect id="SVGID_87_" x="44.2" y="42.5" width="274.3" height="267.3"/>
				</defs>
				<clipPath id="SVGID_88_">
					<use xlink:href="#SVGID_87_"  style="overflow:visible;"/>
				</clipPath>
				<path class="st45" d="M311.1,276.1v-3.4"/>
			</g>
		</g>
		<g id="patch_25">
			<path class="st46" d="M44.2,309.7V42.5"/>
		</g>
		<g id="patch_26">
			<path class="st46" d="M318.6,309.7V42.5"/>
		</g>
		<g id="patch_27">
			<path class="st46" d="M44.2,309.7h274.3"/>
		</g>
		<g id="patch_28">
			<path class="st46" d="M44.2,42.5h274.3"/>
		</g>
		<g id="legend_1">
			<g id="patch_29">
				<path class="st47" d="M332.5,84.4h67c1.1,0,1.6-0.5,1.6-1.6V48.2c0-1.1-0.5-1.6-1.6-1.6h-67c-1.1,0-1.6,0.5-1.6,1.6v34.6
					C330.9,83.8,331.4,84.4,332.5,84.4z"/>
			</g>
			<g id="text_19">
				<g transform="translate(709.899141 114.134062)scale(0.18 -0.18)">
					<g>
						<path id="ArialMT-80_2_" class="st1" d="M-2001.1,322.3v35.2h13.3c2.3,0,4.1-0.1,5.4-0.3c1.7-0.3,3.2-0.8,4.3-1.7
							c1.2-0.8,2.1-1.9,2.8-3.4c0.7-1.5,1.1-3.1,1.1-4.8c0-3-1-5.5-2.9-7.6c-1.9-2.1-5.3-3.1-10.3-3.1h-9v-14.3H-2001.1z
							 M-1996.5,340.8h9.1c3,0,5.1,0.6,6.4,1.7s1.9,2.7,1.9,4.7c0,1.5-0.4,2.7-1.1,3.8c-0.7,1-1.7,1.7-2.9,2.1
							c-0.8,0.2-2.2,0.3-4.3,0.3h-9V340.8z"/>
					</g>
					<g>
						<path id="ArialMT-97_4_" class="st1" d="M-1952.3,325.5c-1.6-1.4-3.1-2.3-4.6-2.9c-1.5-0.6-3.1-0.8-4.8-0.8
							c-2.8,0-5,0.7-6.5,2.1c-1.5,1.4-2.3,3.1-2.3,5.2c0,1.2,0.3,2.4,0.9,3.4c0.6,1,1.3,1.9,2.2,2.5c0.9,0.6,2,1.1,3.1,1.4
							c0.8,0.2,2.1,0.4,3.8,0.7c3.5,0.4,6.1,0.9,7.7,1.5c0,0.6,0,1,0,1.1c0,1.8-0.4,3-1.2,3.7c-1.1,1-2.7,1.5-4.9,1.5
							c-2,0-3.5-0.4-4.5-1.1c-1-0.7-1.7-2-2.2-3.8l-4.2,0.6c0.4,1.8,1,3.3,1.9,4.4s2.2,2,3.8,2.6c1.7,0.6,3.6,0.9,5.8,0.9
							c2.2,0,3.9-0.3,5.3-0.8c1.4-0.5,2.4-1.2,3-1.9c0.6-0.8,1.1-1.8,1.3-2.9c0.1-0.7,0.2-2.1,0.2-4V333c0-4,0.1-6.6,0.3-7.6
							c0.2-1.1,0.6-2.1,1.1-3.1h-4.5C-1951.9,323.2-1952.1,324.3-1952.3,325.5z M-1952.6,335.1c-1.6-0.6-3.9-1.2-7.1-1.6
							c-1.8-0.3-3-0.5-3.8-0.9c-0.7-0.3-1.3-0.8-1.7-1.4c-0.4-0.6-0.6-1.3-0.6-2.1c0-1.2,0.4-2.1,1.3-2.9c0.9-0.8,2.2-1.2,3.8-1.2
							c1.7,0,3.1,0.4,4.4,1.1c1.3,0.7,2.2,1.7,2.9,3c0.5,1,0.7,2.4,0.7,4.3V335.1z"/>
					</g>
					<g>
						<path id="ArialMT-116_3_" class="st1" d="M-1932.1,326.2l0.6-3.8c-1.2-0.3-2.3-0.4-3.3-0.4c-1.6,0-2.8,0.2-3.6,0.7
							c-0.9,0.5-1.5,1.1-1.8,2s-0.5,2.5-0.5,5.1v14.7h-3.2v3.4h3.2v6.3l4.3,2.6v-8.9h4.3v-3.4h-4.3v-14.9c0-1.2,0.1-2,0.2-2.4
							c0.2-0.3,0.4-0.6,0.7-0.8c0.3-0.2,0.8-0.3,1.5-0.3C-1933.5,326-1932.9,326.1-1932.1,326.2z"/>
					</g>
					<g>
						<path id="ArialMT-104" class="st1" d="M-1927.9,322.3v35.2h4.3v-12.6c2,2.3,4.6,3.5,7.6,3.5c1.9,0,3.5-0.4,4.9-1.1
							c1.4-0.7,2.4-1.8,3-3.1c0.6-1.3,0.9-3.2,0.9-5.7v-16.2h-4.3v16.2c0,2.2-0.5,3.7-1.4,4.7s-2.3,1.5-4,1.5c-1.3,0-2.5-0.3-3.6-1
							c-1.1-0.7-1.9-1.6-2.4-2.7c-0.5-1.1-0.7-2.7-0.7-4.7v-14H-1927.9z"/>
					</g>
					<g>
						<path id="ArialMT-119" class="st1" d="M-1895.9,322.3l-7.8,25.5h4.5l4.1-14.7l1.5-5.5c0.1,0.3,0.5,2,1.3,5.3l4.1,14.9h4.4
							l3.8-14.8l1.3-4.9l1.5,4.9l4.4,14.7h4.2l-8-25.5h-4.5l-4.1,15.3l-1,4.3l-5.2-19.6H-1895.9z"/>
					</g>
					<g>
						<path id="ArialMT-97_5_" class="st1" d="M-1848.4,325.5c-1.6-1.4-3.1-2.3-4.6-2.9c-1.5-0.6-3.1-0.8-4.8-0.8
							c-2.8,0-5,0.7-6.5,2.1c-1.5,1.4-2.3,3.1-2.3,5.2c0,1.2,0.3,2.4,0.9,3.4c0.6,1,1.3,1.9,2.2,2.5c0.9,0.6,2,1.1,3.1,1.4
							c0.8,0.2,2.1,0.4,3.8,0.7c3.5,0.4,6.1,0.9,7.7,1.5c0,0.6,0,1,0,1.1c0,1.8-0.4,3-1.2,3.7c-1.1,1-2.7,1.5-4.9,1.5
							c-2,0-3.5-0.4-4.5-1.1c-1-0.7-1.7-2-2.2-3.8l-4.2,0.6c0.4,1.8,1,3.3,1.9,4.4s2.2,2,3.8,2.6c1.7,0.6,3.6,0.9,5.8,0.9
							c2.2,0,3.9-0.3,5.3-0.8c1.4-0.5,2.4-1.2,3-1.9c0.6-0.8,1.1-1.8,1.3-2.9c0.1-0.7,0.2-2.1,0.2-4V333c0-4,0.1-6.6,0.3-7.6
							c0.2-1.1,0.6-2.1,1.1-3.1h-4.5C-1848,323.2-1848.3,324.3-1848.4,325.5z M-1848.8,335.1c-1.6-0.6-3.9-1.2-7.1-1.6
							c-1.8-0.3-3-0.5-3.8-0.9c-0.7-0.3-1.3-0.8-1.7-1.4c-0.4-0.6-0.6-1.3-0.6-2.1c0-1.2,0.4-2.1,1.3-2.9c0.9-0.8,2.2-1.2,3.8-1.2
							c1.7,0,3.1,0.4,4.4,1.1c1.3,0.7,2.2,1.7,2.9,3c0.5,1,0.7,2.4,0.7,4.3V335.1z"/>
					</g>
					<g>
						<path id="ArialMT-121" class="st1" d="M-1837.9,312.5l-0.5,4.1c0.9-0.3,1.8-0.4,2.5-0.4c1,0,1.7,0.2,2.3,0.5
							c0.6,0.3,1.1,0.8,1.4,1.3c0.3,0.4,0.7,1.5,1.3,3.2c0.1,0.2,0.2,0.6,0.4,1.1l-9.7,25.5h4.7l5.3-14.8c0.7-1.9,1.3-3.8,1.9-5.9
							c0.5,2,1.1,3.9,1.8,5.8l5.4,14.9h4.3l-9.7-25.9c-1-2.8-1.8-4.7-2.4-5.8c-0.8-1.4-1.6-2.5-2.6-3.1c-1-0.7-2.2-1-3.6-1
							C-1836,312-1836.9,312.2-1837.9,312.5z"/>
					</g>
				</g>
			</g>
			<g id="patch_30">
				<path class="st48" d="M334.1,67.9h16.2v-5.7h-16.2V67.9z"/>
			</g>
			<g id="text_20">
				<g transform="translate(725.79 138.183984)scale(0.165 -0.165)">
					<g>
						<path id="ArialMT-71_3_" class="st1" d="M-2215.9,439.6v4.1l14.9,0v-13.1c-2.3-1.8-4.7-3.2-7.1-4.1c-2.4-0.9-4.9-1.4-7.5-1.4
							c-3.5,0-6.6,0.7-9.4,2.2c-2.8,1.5-5,3.6-6.4,6.4c-1.4,2.8-2.2,5.9-2.2,9.4c0,3.4,0.7,6.6,2.1,9.6c1.4,3,3.5,5.2,6.2,6.6
							c2.7,1.4,5.8,2.2,9.3,2.2c2.5,0,4.8-0.4,6.9-1.2c2.1-0.8,3.7-2,4.8-3.4c1.2-1.5,2.1-3.4,2.7-5.8l-4.2-1.2
							c-0.5,1.8-1.2,3.2-2,4.2s-1.9,1.8-3.4,2.5c-1.5,0.6-3.1,0.9-4.8,0.9c-2.1,0-4-0.3-5.5-1c-1.6-0.6-2.8-1.5-3.8-2.6
							c-1-1.1-1.7-2.2-2.2-3.5c-0.9-2.2-1.3-4.5-1.3-7.1c0-3.1,0.5-5.8,1.6-7.9c1.1-2.1,2.7-3.7,4.7-4.7c2.1-1,4.3-1.5,6.6-1.5
							c2,0,4,0.4,5.9,1.2c1.9,0.8,3.4,1.6,4.4,2.5v6.6H-2215.9z"/>
					</g>
					<g>
						<path id="ArialMT-108_2_" class="st1" d="M-2194.8,425.7v35.2h4.3v-35.2H-2194.8z"/>
					</g>
					<g>
						<path id="ArialMT-121_1_" class="st1" d="M-2184,415.9l-0.5,4.1c0.9-0.3,1.8-0.4,2.5-0.4c1,0,1.7,0.2,2.3,0.5
							c0.6,0.3,1.1,0.8,1.4,1.3c0.3,0.4,0.7,1.5,1.3,3.2c0.1,0.2,0.2,0.6,0.4,1.1l-9.7,25.5h4.7l5.3-14.8c0.7-1.9,1.3-3.8,1.9-5.9
							c0.5,2,1.1,3.9,1.8,5.8l5.4,14.9h4.3l-9.7-25.9c-1-2.8-1.8-4.7-2.4-5.8c-0.8-1.4-1.6-2.5-2.6-3.1c-1-0.7-2.2-1-3.6-1
							C-2182,415.4-2182.9,415.6-2184,415.9z"/>
					</g>
					<g>
						<path id="ArialMT-99_1_" class="st1" d="M-2142.5,435.1l4.2-0.6c-0.5-2.9-1.7-5.2-3.6-6.9c-1.9-1.7-4.3-2.5-7-2.5
							c-3.5,0-6.3,1.1-8.4,3.4c-2.1,2.3-3.2,5.6-3.2,9.8c0,2.8,0.5,5.2,1.4,7.2c0.9,2.1,2.3,3.6,4.2,4.6c1.9,1,3.9,1.6,6.1,1.6
							c2.8,0,5-0.7,6.8-2.1c1.8-1.4,2.9-3.4,3.4-6l-4.2-0.7c-0.4,1.7-1.1,3-2.1,3.9c-1,0.9-2.2,1.3-3.7,1.3c-2.2,0-3.9-0.8-5.3-2.3
							c-1.4-1.6-2-4-2-7.4c0-3.4,0.7-5.9,2-7.5c1.3-1.6,3-2.3,5.1-2.3c1.7,0,3.1,0.5,4.2,1.6
							C-2143.6,431.3-2142.8,432.9-2142.5,435.1z"/>
					</g>
					<g>
						<path id="ArialMT-111_2_" class="st1" d="M-2136.2,438.5c0,4.7,1.3,8.2,3.9,10.5c2.2,1.9,4.9,2.8,8,2.8c3.5,0,6.4-1.1,8.6-3.4
							c2.2-2.3,3.3-5.5,3.3-9.5c0-3.3-0.5-5.9-1.5-7.7c-1-1.9-2.4-3.3-4.3-4.4c-1.9-1-3.9-1.6-6.2-1.6c-3.6,0-6.5,1.1-8.7,3.4
							C-2135.1,430.9-2136.2,434.2-2136.2,438.5z M-2131.8,438.5c0-3.3,0.7-5.7,2.1-7.3s3.2-2.4,5.4-2.4c2.1,0,3.9,0.8,5.4,2.4
							c1.4,1.6,2.1,4.1,2.1,7.5c0,3.2-0.7,5.5-2.2,7.2s-3.2,2.4-5.3,2.4c-2.2,0-4-0.8-5.4-2.4
							C-2131.1,444.2-2131.8,441.8-2131.8,438.5z"/>
					</g>
					<g>
						<path id="ArialMT-108_3_" class="st1" d="M-2107.4,425.7v35.2h4.3v-35.2H-2107.4z"/>
					</g>
					<g>
						<path id="ArialMT-121_2_" class="st1" d="M-2096.5,415.9l-0.5,4.1c0.9-0.3,1.8-0.4,2.5-0.4c1,0,1.7,0.2,2.3,0.5
							c0.6,0.3,1.1,0.8,1.4,1.3c0.3,0.4,0.7,1.5,1.3,3.2c0.1,0.2,0.2,0.6,0.4,1.1l-9.7,25.5h4.7l5.3-14.8c0.7-1.9,1.3-3.8,1.9-5.9
							c0.5,2,1.1,3.9,1.8,5.8l5.4,14.9h4.3l-9.7-25.9c-1-2.8-1.8-4.7-2.4-5.8c-0.8-1.4-1.6-2.5-2.6-3.1c-1-0.7-2.2-1-3.6-1
							C-2094.6,415.4-2095.5,415.6-2096.5,415.9z"/>
					</g>
					<g>
						<path id="ArialMT-115" class="st1" d="M-2073.5,433.4l4.3,0.7c0.2-1.7,0.9-3,2-3.9c1.1-0.9,2.6-1.4,4.6-1.4
							c2,0,3.5,0.4,4.4,1.2c1,0.8,1.4,1.8,1.4,2.8c0,1-0.4,1.7-1.3,2.3c-0.6,0.4-2.1,0.9-4.4,1.5c-3.2,0.8-5.4,1.5-6.6,2.1
							c-1.2,0.6-2.2,1.4-2.8,2.4c-0.6,1-0.9,2.2-0.9,3.4c0,1.1,0.3,2.2,0.8,3.1c0.5,1,1.2,1.8,2.1,2.4c0.7,0.5,1.6,0.9,2.7,1.3
							c1.2,0.3,2.4,0.5,3.7,0.5c2,0,3.8-0.3,5.3-0.9c1.5-0.6,2.6-1.4,3.3-2.3c0.7-1,1.2-2.3,1.5-3.9l-4.2-0.6
							c-0.2,1.3-0.7,2.3-1.7,3.1c-0.9,0.7-2.2,1.1-3.9,1.1c-2,0-3.4-0.3-4.2-1s-1.3-1.4-1.3-2.3c0-0.6,0.2-1.1,0.5-1.5
							c0.4-0.5,0.9-0.8,1.7-1.2c0.4-0.2,1.7-0.5,3.8-1.1c3.1-0.8,5.2-1.5,6.4-2c1.2-0.5,2.2-1.3,2.8-2.3c0.7-1,1-2.2,1-3.7
							c0-1.4-0.4-2.8-1.3-4.1c-0.8-1.3-2.1-2.3-3.6-2.9c-1.6-0.7-3.4-1-5.4-1c-3.3,0-5.8,0.7-7.6,2.1S-2073,430.7-2073.5,433.4z"/>
					</g>
					<g>
						<path id="ArialMT-105_2_" class="st1" d="M-2047.1,456v5h4.3v-5H-2047.1z M-2047.1,425.7v25.5h4.3v-25.5H-2047.1z"/>
					</g>
					<g>
						<path id="ArialMT-115_1_" class="st1" d="M-2038,433.4l4.3,0.7c0.2-1.7,0.9-3,2-3.9c1.1-0.9,2.6-1.4,4.6-1.4
							c2,0,3.5,0.4,4.4,1.2c1,0.8,1.4,1.8,1.4,2.8c0,1-0.4,1.7-1.3,2.3c-0.6,0.4-2.1,0.9-4.4,1.5c-3.2,0.8-5.4,1.5-6.6,2.1
							c-1.2,0.6-2.2,1.4-2.8,2.4c-0.6,1-0.9,2.2-0.9,3.4c0,1.1,0.3,2.2,0.8,3.1c0.5,1,1.2,1.8,2.1,2.4c0.7,0.5,1.6,0.9,2.7,1.3
							c1.2,0.3,2.4,0.5,3.7,0.5c2,0,3.8-0.3,5.3-0.9c1.5-0.6,2.6-1.4,3.3-2.3c0.7-1,1.2-2.3,1.5-3.9l-4.2-0.6
							c-0.2,1.3-0.7,2.3-1.7,3.1c-0.9,0.7-2.2,1.1-3.9,1.1c-2,0-3.4-0.3-4.2-1s-1.3-1.4-1.3-2.3c0-0.6,0.2-1.1,0.5-1.5
							c0.4-0.5,0.9-0.8,1.7-1.2c0.4-0.2,1.7-0.5,3.8-1.1c3.1-0.8,5.2-1.5,6.4-2c1.2-0.5,2.2-1.3,2.8-2.3c0.7-1,1-2.2,1-3.7
							c0-1.4-0.4-2.8-1.3-4.1c-0.8-1.3-2.1-2.3-3.6-2.9c-1.6-0.7-3.4-1-5.4-1c-3.3,0-5.8,0.7-7.6,2.1S-2037.5,430.7-2038,433.4z"/>
					</g>
				</g>
			</g>
			<g id="patch_31">
				<path class="st49" d="M334.1,79.5h16.2v-5.7h-16.2V79.5z"/>
			</g>
			<g id="text_21">
				<g transform="translate(725.79 161.717109)scale(0.165 -0.165)">
					<g>
						<path id="ArialMT-82_2_" class="st1" d="M-2232.3,498.3v35.2h15.6c3.1,0,5.5-0.3,7.2-1c1.6-0.6,2.9-1.7,3.9-3.3
							c1-1.6,1.5-3.4,1.5-5.3c0-2.5-0.8-4.6-2.4-6.3c-1.6-1.7-4.1-2.8-7.5-3.3c1.2-0.6,2.2-1.2,2.8-1.8c1.4-1.2,2.6-2.8,3.9-4.7
							l6.1-9.6h-5.9l-4.7,7.3c-1.4,2.1-2.5,3.7-3.4,4.8c-0.9,1.1-1.7,1.9-2.4,2.4c-0.7,0.5-1.4,0.8-2.1,0.9
							c-0.5,0.1-1.4,0.2-2.6,0.2h-5.4v-15.6H-2232.3z M-2227.6,517.9h10c2.1,0,3.8,0.2,5,0.7c1.2,0.4,2.1,1.1,2.7,2.1
							c0.6,1,0.9,2,0.9,3.2c0,1.7-0.6,3-1.8,4.1c-1.2,1.1-3.1,1.6-5.7,1.6h-11.1V517.9z"/>
					</g>
					<g>
						<path id="ArialMT-101_5_" class="st1" d="M-2180,506.5l4.5-0.6c-0.7-2.6-2-4.6-3.9-6.1c-1.9-1.4-4.3-2.2-7.3-2.2
							c-3.7,0-6.7,1.1-8.9,3.4c-2.2,2.3-3.3,5.5-3.3,9.7c0,4.3,1.1,7.6,3.3,10c2.2,2.4,5.1,3.6,8.6,3.6c3.4,0,6.2-1.2,8.4-3.5
							s3.2-5.6,3.2-9.8c0-0.3,0-0.6,0-1.2h-19c0.2-2.8,0.9-4.9,2.4-6.4c1.4-1.5,3.2-2.2,5.3-2.2c1.6,0,2.9,0.4,4.1,1.2
							C-2181.5,503.3-2180.6,504.6-2180,506.5z M-2194.2,513.4h14.2c-0.2,2.1-0.7,3.8-1.6,4.8c-1.4,1.7-3.2,2.5-5.4,2.5
							c-2,0-3.7-0.7-5-2C-2193.3,517.5-2194,515.7-2194.2,513.4z"/>
					</g>
					<g>
						<path id="ArialMT-115_2_" class="st1" d="M-2171.8,505.9l4.3,0.7c0.2-1.7,0.9-3,2-3.9c1.1-0.9,2.6-1.4,4.6-1.4
							c2,0,3.5,0.4,4.4,1.2c1,0.8,1.4,1.8,1.4,2.8c0,1-0.4,1.7-1.3,2.3c-0.6,0.4-2.1,0.9-4.4,1.5c-3.2,0.8-5.4,1.5-6.6,2.1
							c-1.2,0.6-2.2,1.4-2.8,2.4c-0.6,1-0.9,2.2-0.9,3.4c0,1.1,0.3,2.2,0.8,3.1c0.5,1,1.2,1.8,2.1,2.4c0.7,0.5,1.6,0.9,2.7,1.3
							c1.2,0.3,2.4,0.5,3.7,0.5c2,0,3.8-0.3,5.3-0.9c1.5-0.6,2.6-1.4,3.3-2.3c0.7-1,1.2-2.3,1.5-3.9l-4.2-0.6
							c-0.2,1.3-0.7,2.3-1.7,3.1c-0.9,0.7-2.2,1.1-3.9,1.1c-2,0-3.4-0.3-4.2-1c-0.9-0.7-1.3-1.4-1.3-2.3c0-0.6,0.2-1.1,0.5-1.5
							c0.4-0.5,0.9-0.8,1.7-1.2c0.4-0.2,1.7-0.5,3.8-1.1c3.1-0.8,5.2-1.5,6.4-2c1.2-0.5,2.2-1.3,2.8-2.3c0.7-1,1-2.2,1-3.7
							c0-1.4-0.4-2.8-1.3-4.1c-0.8-1.3-2.1-2.3-3.6-2.9c-1.6-0.7-3.4-1-5.4-1c-3.3,0-5.8,0.7-7.6,2.1S-2171.3,503.2-2171.8,505.9z"
							/>
					</g>
					<g>
						<path id="ArialMT-112_2_" class="st1" d="M-2145.5,488.5v35.3h3.9v-3.3c0.9,1.3,2,2.3,3.1,2.9c1.2,0.7,2.6,1,4.2,1
							c2.2,0,4.1-0.6,5.8-1.7c1.7-1.1,2.9-2.7,3.8-4.7c0.9-2,1.3-4.3,1.3-6.7c0-2.6-0.5-5-1.4-7c-0.9-2.1-2.3-3.7-4.1-4.8
							c-1.8-1.1-3.7-1.7-5.6-1.7c-1.4,0-2.7,0.3-3.9,0.9c-1.1,0.6-2.1,1.4-2.8,2.3v-12.4H-2145.5z M-2141.6,510.9
							c0-3.3,0.7-5.7,2-7.3c1.3-1.6,2.9-2.4,4.8-2.4c1.9,0,3.6,0.8,4.9,2.4c1.4,1.6,2.1,4.1,2.1,7.6c0,3.2-0.7,5.7-2,7.3
							c-1.3,1.6-2.9,2.4-4.8,2.4c-1.8,0-3.5-0.9-4.9-2.6C-2140.9,516.6-2141.6,514.1-2141.6,510.9z"/>
					</g>
					<g>
						<path id="ArialMT-105_3_" class="st1" d="M-2118.1,528.5v5h4.3v-5H-2118.1z M-2118.1,498.3v25.5h4.3v-25.5H-2118.1z"/>
					</g>
					<g>
						<path id="ArialMT-114_2_" class="st1" d="M-2107.3,498.3v25.5h3.9v-3.9c1,1.8,1.9,3,2.8,3.6c0.8,0.6,1.8,0.9,2.8,0.9
							c1.5,0,2.9-0.5,4.4-1.4l-1.5-4c-1.1,0.6-2.1,0.9-3.2,0.9c-0.9,0-1.8-0.3-2.6-0.9c-0.8-0.6-1.3-1.4-1.6-2.4
							c-0.5-1.5-0.7-3.2-0.7-5v-13.4H-2107.3z"/>
					</g>
					<g>
						<path id="ArialMT-97_6_" class="st1" d="M-2074.2,501.4c-1.6-1.4-3.1-2.3-4.6-2.9c-1.5-0.6-3.1-0.8-4.8-0.8
							c-2.8,0-5,0.7-6.5,2.1c-1.5,1.4-2.3,3.1-2.3,5.2c0,1.2,0.3,2.4,0.9,3.4c0.6,1,1.3,1.9,2.2,2.5c0.9,0.6,2,1.1,3.1,1.4
							c0.8,0.2,2.1,0.4,3.8,0.7c3.5,0.4,6.1,0.9,7.7,1.5c0,0.6,0,1,0,1.1c0,1.8-0.4,3-1.2,3.7c-1.1,1-2.7,1.5-4.9,1.5
							c-2,0-3.5-0.4-4.5-1.1c-1-0.7-1.7-2-2.2-3.8l-4.2,0.6c0.4,1.8,1,3.3,1.9,4.4c0.9,1.1,2.2,2,3.8,2.6c1.7,0.6,3.6,0.9,5.8,0.9
							c2.2,0,3.9-0.3,5.3-0.8c1.4-0.5,2.4-1.2,3-1.9c0.6-0.8,1.1-1.8,1.3-2.9c0.1-0.7,0.2-2.1,0.2-4v-5.8c0-4,0.1-6.6,0.3-7.6
							c0.2-1.1,0.6-2.1,1.1-3.1h-4.5C-2073.8,499.1-2074.1,500.2-2074.2,501.4z M-2074.6,511c-1.6-0.6-3.9-1.2-7.1-1.6
							c-1.8-0.3-3-0.5-3.8-0.9c-0.7-0.3-1.3-0.8-1.7-1.4c-0.4-0.6-0.6-1.3-0.6-2.1c0-1.2,0.4-2.1,1.3-2.9c0.9-0.8,2.2-1.2,3.8-1.2
							c1.7,0,3.1,0.4,4.4,1.1s2.2,1.7,2.9,3c0.5,1,0.7,2.4,0.7,4.3V511z"/>
					</g>
					<g>
						<path id="ArialMT-116_4_" class="st1" d="M-2054.1,502.1l0.6-3.8c-1.2-0.3-2.3-0.4-3.3-0.4c-1.6,0-2.8,0.2-3.6,0.7
							c-0.9,0.5-1.5,1.1-1.8,2c-0.4,0.8-0.5,2.5-0.5,5.1v14.7h-3.2v3.4h3.2v6.3l4.3,2.6v-8.9h4.3v-3.4h-4.3v-14.9
							c0-1.2,0.1-2,0.2-2.4c0.2-0.3,0.4-0.6,0.7-0.8c0.3-0.2,0.8-0.3,1.5-0.3C-2055.5,501.9-2054.9,502-2054.1,502.1z"/>
					</g>
					<g>
						<path id="ArialMT-105_4_" class="st1" d="M-2049.8,528.5v5h4.3v-5H-2049.8z M-2049.8,498.3v25.5h4.3v-25.5H-2049.8z"/>
					</g>
					<g>
						<path id="ArialMT-111_3_" class="st1" d="M-2040.5,511c0,4.7,1.3,8.2,3.9,10.5c2.2,1.9,4.9,2.8,8,2.8c3.5,0,6.4-1.1,8.6-3.4
							c2.2-2.3,3.3-5.5,3.3-9.5c0-3.3-0.5-5.9-1.5-7.7c-1-1.9-2.4-3.3-4.3-4.4c-1.9-1-3.9-1.6-6.2-1.6c-3.6,0-6.5,1.1-8.7,3.4
							C-2039.4,503.4-2040.5,506.7-2040.5,511z M-2036.1,511c0-3.3,0.7-5.7,2.1-7.3s3.2-2.4,5.4-2.4c2.1,0,3.9,0.8,5.4,2.4
							c1.4,1.6,2.1,4.1,2.1,7.5c0,3.2-0.7,5.5-2.2,7.2s-3.2,2.4-5.3,2.4c-2.2,0-4-0.8-5.4-2.4
							C-2035.4,516.7-2036.1,514.3-2036.1,511z"/>
					</g>
					<g>
						<path id="ArialMT-110_3_" class="st1" d="M-2011.6,498.3v25.5h3.9v-3.6c1.9,2.8,4.6,4.2,8.1,4.2c1.5,0,2.9-0.3,4.2-0.8
							s2.3-1.3,2.9-2.2c0.6-0.9,1.1-2,1.3-3.2c0.2-0.8,0.2-2.2,0.2-4.2v-15.7h-4.3v15.5c0,1.8-0.2,3.1-0.5,3.9
							c-0.3,0.9-0.9,1.6-1.8,2.1c-0.9,0.5-1.9,0.8-3,0.8c-1.8,0-3.4-0.6-4.8-1.8c-1.3-1.2-2-3.4-2-6.6v-13.9H-2011.6z"/>
					</g>
				</g>
			</g>
		</g>
	</g>
</g>
</svg>
