<?xml version="1.0" encoding="utf-8" standalone="no"?>
<!DOCTYPE svg PUBLIC "-//W3C//DTD SVG 1.1//EN"
  "http://www.w3.org/Graphics/SVG/1.1/DTD/svg11.dtd">
<!-- Created with matplotlib (https://matplotlib.org/) -->
<svg height="504pt" version="1.1" viewBox="0 0 2016 504" width="2016pt" xmlns="http://www.w3.org/2000/svg" xmlns:xlink="http://www.w3.org/1999/xlink">
 <metadata>
  <rdf:RDF xmlns:cc="http://creativecommons.org/ns#" xmlns:dc="http://purl.org/dc/elements/1.1/" xmlns:rdf="http://www.w3.org/1999/02/22-rdf-syntax-ns#">
   <cc:Work>
    <dc:type rdf:resource="http://purl.org/dc/dcmitype/StillImage"/>
    <dc:date>2023-01-23T20:45:11.512849</dc:date>
    <dc:format>image/svg+xml</dc:format>
    <dc:creator>
     <cc:Agent>
      <dc:title>Matplotlib v3.3.4, https://matplotlib.org/</dc:title>
     </cc:Agent>
    </dc:creator>
   </cc:Work>
  </rdf:RDF>
 </metadata>
 <defs>
  <style type="text/css">*{stroke-linecap:butt;stroke-linejoin:round;}</style>
 </defs>
 <g id="figure_1">
  <g id="patch_1">
   <path d="M 0 504 
L 2016 504 
L 2016 0 
L 0 0 
z
" style="fill:none;"/>
  </g>
  <g id="axes_1">
   <g id="patch_2">
    <path d="M 557.686957 250.74 
C 557.686957 250.74 557.686957 250.74 557.686957 250.74 
L 421.826087 250.74 
L 557.686957 250.74 
z
" style="fill:#dc143c;stroke:#000000;stroke-linejoin:miter;stroke-width:2;"/>
   </g>
   <g id="patch_3">
    <path d="M 557.686957 250.74 
C 557.686957 222.053459 548.601364 194.090882 531.739839 170.882983 
C 514.878313 147.675085 491.091924 130.393262 463.809402 121.528634 
L 421.826087 250.74 
L 557.686957 250.74 
z
" style="fill:#00008b;stroke:#000000;stroke-linejoin:miter;stroke-width:2;"/>
   </g>
   <g id="patch_4">
    <path d="M 463.809402 121.528634 
C 450.250658 117.123131 436.082591 114.87913 421.826084 114.87913 
C 407.569577 114.879131 393.40151 117.123133 379.842766 121.528636 
C 366.284022 125.934139 353.502824 132.446485 341.969068 140.82625 
C 330.435312 149.206015 320.292096 159.349232 311.912332 170.882989 
C 303.532567 182.416745 297.020222 195.197944 292.61472 208.756688 
C 288.209218 222.315432 285.965217 236.483499 285.965217 250.740006 
C 285.965218 264.996513 288.20922 279.164581 292.614724 292.723324 
C 297.020227 306.282068 303.532574 319.063266 311.912339 330.597022 
C 320.292104 342.130778 330.435321 352.273993 341.969078 360.653757 
C 353.502835 369.033521 366.284034 375.545866 379.842778 379.951368 
C 393.401522 384.35687 407.569589 386.600871 421.826096 386.60087 
C 436.082603 386.600869 450.250671 384.356866 463.809414 379.951362 
C 477.368158 375.545858 490.149355 369.033511 501.683111 360.653746 
C 513.216867 352.273981 523.360082 342.130763 531.739846 330.597006 
C 540.11961 319.063249 546.631954 306.28205 551.037456 292.723306 
C 555.442958 279.164562 557.686958 264.996494 557.686957 250.739987 
L 421.826087 250.74 
L 463.809402 121.528634 
z
" style="fill:#f5f5f5;stroke:#000000;stroke-linejoin:miter;stroke-width:2;"/>
   </g>
   <g id="matplotlib.axis_1"/>
   <g id="matplotlib.axis_2"/>
   <g id="text_1">
    <!-- $\phi_{glyc}$ -->
    <g transform="translate(571.273043 253.89)scale(0.14 -0.14)">
     <defs>
      <path d="M 46.734375 75.984375 
L 42.78125 55.8125 
Q 52.546875 55.8125 57.5625 48.34375 
Q 62.75 40.71875 60.15625 27.296875 
Q 57.515625 13.875 49.359375 6.25 
Q 41.453125 -1.21875 31.6875 -1.21875 
L 27.875 -20.796875 
L 18.953125 -20.796875 
L 22.75 -1.21875 
Q 13.03125 -1.21875 7.953125 6.25 
Q 2.78125 13.875 5.421875 27.296875 
Q 8.015625 40.71875 16.15625 48.34375 
Q 24.125 55.8125 33.84375 55.8125 
L 37.796875 75.984375 
z
M 33.25 6.78125 
Q 38.765625 6.78125 43.5 11.8125 
Q 48.6875 17.4375 50.6875 27.296875 
Q 52.640625 37.0625 49.515625 42.78125 
Q 46.734375 47.796875 41.21875 47.796875 
z
M 24.3125 6.78125 
L 32.28125 47.796875 
Q 26.8125 47.796875 22.078125 42.78125 
Q 16.75 37.0625 14.890625 27.296875 
Q 13.03125 17.4375 16.0625 11.8125 
Q 18.796875 6.78125 24.3125 6.78125 
z
" id="DejaVuSans-Oblique-981"/>
      <path d="M 59.625 54.6875 
L 50.296875 6.78125 
Q 47.609375 -7.125 40.015625 -13.953125 
Q 32.421875 -20.796875 19.578125 -20.796875 
Q 14.84375 -20.796875 10.78125 -20.09375 
Q 6.734375 -19.390625 3.21875 -17.921875 
L 4.890625 -9.1875 
Q 8.203125 -11.328125 11.90625 -12.34375 
Q 15.625 -13.375 19.828125 -13.375 
Q 28.375 -13.375 33.859375 -8.703125 
Q 39.359375 -4.046875 41.109375 4.6875 
L 41.890625 8.796875 
Q 38.140625 4.5 33.15625 2.25 
Q 28.171875 0 22.40625 0 
Q 14.109375 0 9.34375 5.484375 
Q 4.59375 10.984375 4.59375 20.609375 
Q 4.59375 28.171875 7.46875 35.421875 
Q 10.359375 42.671875 15.578125 48.296875 
Q 19.046875 52 23.65625 54 
Q 28.265625 56 33.296875 56 
Q 38.8125 56 42.90625 53.4375 
Q 47.015625 50.875 49.03125 46.1875 
L 50.59375 54.6875 
z
M 46.09375 34.625 
Q 46.09375 41.265625 42.96875 44.875 
Q 39.84375 48.484375 34.078125 48.484375 
Q 30.515625 48.484375 27.296875 47.0625 
Q 24.078125 45.65625 21.78125 43.109375 
Q 18.0625 38.921875 15.984375 33.234375 
Q 13.921875 27.546875 13.921875 21.484375 
Q 13.921875 14.75 17.0625 11.125 
Q 20.21875 7.515625 26.125 7.515625 
Q 34.671875 7.515625 40.375 15.25 
Q 46.09375 23 46.09375 34.625 
z
" id="DejaVuSans-Oblique-103"/>
      <path d="M 18.3125 75.984375 
L 27.296875 75.984375 
L 12.5 0 
L 3.515625 0 
z
" id="DejaVuSans-Oblique-108"/>
      <path d="M 24.8125 -5.078125 
Q 18.5625 -15.578125 14.625 -18.1875 
Q 10.6875 -20.796875 4.59375 -20.796875 
L -2.484375 -20.796875 
L -0.984375 -13.28125 
L 4.203125 -13.28125 
Q 7.953125 -13.28125 10.59375 -11.234375 
Q 13.234375 -9.1875 16.5 -3.21875 
L 19.28125 2 
L 7.171875 54.6875 
L 16.703125 54.6875 
L 25.78125 12.796875 
L 50.875 54.6875 
L 60.296875 54.6875 
z
" id="DejaVuSans-Oblique-121"/>
      <path d="M 53.609375 52.59375 
L 51.8125 43.703125 
Q 48.578125 46.046875 44.9375 47.21875 
Q 41.3125 48.390625 37.40625 48.390625 
Q 33.109375 48.390625 29.21875 46.875 
Q 25.34375 45.359375 22.703125 42.578125 
Q 18.5 38.328125 16.203125 32.609375 
Q 13.921875 26.90625 13.921875 20.796875 
Q 13.921875 13.421875 17.609375 9.8125 
Q 21.296875 6.203125 28.8125 6.203125 
Q 32.515625 6.203125 36.6875 7.328125 
Q 40.875 8.453125 45.40625 10.6875 
L 43.703125 1.8125 
Q 39.796875 0.203125 35.671875 -0.609375 
Q 31.546875 -1.421875 27.203125 -1.421875 
Q 16.3125 -1.421875 10.453125 4.015625 
Q 4.59375 9.46875 4.59375 19.578125 
Q 4.59375 28.078125 7.640625 35.234375 
Q 10.6875 42.390625 16.703125 48.09375 
Q 20.796875 52 26.3125 54 
Q 31.84375 56 38.375 56 
Q 42.1875 56 45.9375 55.140625 
Q 49.703125 54.296875 53.609375 52.59375 
z
" id="DejaVuSans-Oblique-99"/>
     </defs>
     <use transform="translate(0 0.015625)" xlink:href="#DejaVuSans-Oblique-981"/>
     <use transform="translate(65.966797 -16.390625)scale(0.7)" xlink:href="#DejaVuSans-Oblique-103"/>
     <use transform="translate(110.400391 -16.390625)scale(0.7)" xlink:href="#DejaVuSans-Oblique-108"/>
     <use transform="translate(129.848633 -16.390625)scale(0.7)" xlink:href="#DejaVuSans-Oblique-121"/>
     <use transform="translate(171.274414 -16.390625)scale(0.7)" xlink:href="#DejaVuSans-Oblique-99"/>
    </g>
   </g>
   <g id="text_2">
    <!-- $\phi_{resp}$ -->
    <g transform="translate(542.731214 166.047282)scale(0.14 -0.14)">
     <defs>
      <path d="M 44.578125 46.390625 
Q 43.21875 47.125 41.453125 47.515625 
Q 39.703125 47.90625 37.703125 47.90625 
Q 30.515625 47.90625 25.140625 42.453125 
Q 19.78125 37.015625 18.015625 27.875 
L 12.5 0 
L 3.515625 0 
L 14.203125 54.6875 
L 23.1875 54.6875 
L 21.484375 46.1875 
Q 25.046875 50.921875 30 53.453125 
Q 34.96875 56 40.578125 56 
Q 42.046875 56 43.453125 55.828125 
Q 44.875 55.671875 46.296875 55.28125 
z
" id="DejaVuSans-Oblique-114"/>
      <path d="M 48.09375 32.234375 
Q 48.25 33.015625 48.3125 33.84375 
Q 48.390625 34.671875 48.390625 35.5 
Q 48.390625 41.453125 44.890625 44.921875 
Q 41.40625 48.390625 35.40625 48.390625 
Q 28.71875 48.390625 23.578125 44.15625 
Q 18.453125 39.9375 15.828125 32.171875 
z
M 55.90625 25.203125 
L 14.109375 25.203125 
Q 13.8125 23.34375 13.71875 22.265625 
Q 13.625 21.1875 13.625 20.40625 
Q 13.625 13.625 17.796875 9.90625 
Q 21.96875 6.203125 29.59375 6.203125 
Q 35.453125 6.203125 40.671875 7.515625 
Q 45.90625 8.84375 50.390625 11.375 
L 48.6875 2.484375 
Q 43.84375 0.53125 38.6875 -0.4375 
Q 33.546875 -1.421875 28.21875 -1.421875 
Q 16.84375 -1.421875 10.71875 4.015625 
Q 4.59375 9.46875 4.59375 19.484375 
Q 4.59375 28.03125 7.640625 35.375 
Q 10.6875 42.71875 16.609375 48.484375 
Q 20.40625 52.09375 25.65625 54.046875 
Q 30.90625 56 36.8125 56 
Q 46.09375 56 51.578125 50.4375 
Q 57.078125 44.875 57.078125 35.5 
Q 57.078125 33.25 56.78125 30.6875 
Q 56.5 28.125 55.90625 25.203125 
z
" id="DejaVuSans-Oblique-101"/>
      <path d="M 50 53.078125 
L 48.296875 44.578125 
Q 44.734375 46.53125 40.765625 47.5 
Q 36.8125 48.484375 32.625 48.484375 
Q 25.53125 48.484375 21.453125 46.0625 
Q 17.390625 43.65625 17.390625 39.5 
Q 17.390625 34.671875 26.859375 32.078125 
Q 27.59375 31.890625 27.9375 31.78125 
L 30.8125 30.90625 
Q 39.796875 28.421875 42.796875 25.6875 
Q 45.796875 22.953125 45.796875 18.21875 
Q 45.796875 9.515625 38.890625 4.046875 
Q 31.984375 -1.421875 20.796875 -1.421875 
Q 16.453125 -1.421875 11.671875 -0.578125 
Q 6.890625 0.25 1.125 2 
L 2.875 11.28125 
Q 7.8125 8.734375 12.59375 7.421875 
Q 17.390625 6.109375 21.78125 6.109375 
Q 28.375 6.109375 32.5 8.9375 
Q 36.625 11.765625 36.625 16.109375 
Q 36.625 20.796875 25.78125 23.6875 
L 24.859375 23.921875 
L 21.78125 24.703125 
Q 14.9375 26.515625 11.765625 29.46875 
Q 8.59375 32.421875 8.59375 37.015625 
Q 8.59375 45.75 15.15625 50.875 
Q 21.734375 56 33.015625 56 
Q 37.453125 56 41.671875 55.265625 
Q 45.90625 54.546875 50 53.078125 
z
" id="DejaVuSans-Oblique-115"/>
      <path d="M 49.609375 33.6875 
Q 49.609375 40.875 46.484375 44.671875 
Q 43.359375 48.484375 37.5 48.484375 
Q 33.5 48.484375 29.859375 46.4375 
Q 26.21875 44.390625 23.390625 40.484375 
Q 20.609375 36.625 18.9375 31.15625 
Q 17.28125 25.6875 17.28125 20.3125 
Q 17.28125 13.484375 20.40625 9.796875 
Q 23.53125 6.109375 29.296875 6.109375 
Q 33.546875 6.109375 37.1875 8.109375 
Q 40.828125 10.109375 43.40625 13.921875 
Q 46.1875 17.921875 47.890625 23.34375 
Q 49.609375 28.765625 49.609375 33.6875 
z
M 21.78125 46.390625 
Q 25.390625 51.125 30.296875 53.5625 
Q 35.203125 56 41.21875 56 
Q 49.609375 56 54.25 50.5 
Q 58.890625 45.015625 58.890625 35.109375 
Q 58.890625 27 56 19.65625 
Q 53.125 12.3125 47.703125 6.5 
Q 44.09375 2.640625 39.546875 0.609375 
Q 35.015625 -1.421875 29.984375 -1.421875 
Q 24.171875 -1.421875 20.21875 1 
Q 16.265625 3.421875 14.3125 8.203125 
L 8.6875 -20.796875 
L -0.296875 -20.796875 
L 14.40625 54.6875 
L 23.390625 54.6875 
z
" id="DejaVuSans-Oblique-112"/>
     </defs>
     <use transform="translate(0 0.015625)" xlink:href="#DejaVuSans-Oblique-981"/>
     <use transform="translate(65.966797 -16.390625)scale(0.7)" xlink:href="#DejaVuSans-Oblique-114"/>
     <use transform="translate(94.746094 -16.390625)scale(0.7)" xlink:href="#DejaVuSans-Oblique-101"/>
     <use transform="translate(137.8125 -16.390625)scale(0.7)" xlink:href="#DejaVuSans-Oblique-115"/>
     <use transform="translate(174.282227 -16.390625)scale(0.7)" xlink:href="#DejaVuSans-Oblique-112"/>
    </g>
   </g>
   <g id="text_3">
    <!-- Other $\phi$ -->
    <g transform="translate(247.440964 342.432724)scale(0.14 -0.14)">
     <defs>
      <path d="M 39.40625 66.21875 
Q 28.65625 66.21875 22.328125 58.203125 
Q 16.015625 50.203125 16.015625 36.375 
Q 16.015625 22.609375 22.328125 14.59375 
Q 28.65625 6.59375 39.40625 6.59375 
Q 50.140625 6.59375 56.421875 14.59375 
Q 62.703125 22.609375 62.703125 36.375 
Q 62.703125 50.203125 56.421875 58.203125 
Q 50.140625 66.21875 39.40625 66.21875 
z
M 39.40625 74.21875 
Q 54.734375 74.21875 63.90625 63.9375 
Q 73.09375 53.65625 73.09375 36.375 
Q 73.09375 19.140625 63.90625 8.859375 
Q 54.734375 -1.421875 39.40625 -1.421875 
Q 24.03125 -1.421875 14.8125 8.828125 
Q 5.609375 19.09375 5.609375 36.375 
Q 5.609375 53.65625 14.8125 63.9375 
Q 24.03125 74.21875 39.40625 74.21875 
z
" id="DejaVuSans-79"/>
      <path d="M 18.3125 70.21875 
L 18.3125 54.6875 
L 36.8125 54.6875 
L 36.8125 47.703125 
L 18.3125 47.703125 
L 18.3125 18.015625 
Q 18.3125 11.328125 20.140625 9.421875 
Q 21.96875 7.515625 27.59375 7.515625 
L 36.8125 7.515625 
L 36.8125 0 
L 27.59375 0 
Q 17.1875 0 13.234375 3.875 
Q 9.28125 7.765625 9.28125 18.015625 
L 9.28125 47.703125 
L 2.6875 47.703125 
L 2.6875 54.6875 
L 9.28125 54.6875 
L 9.28125 70.21875 
z
" id="DejaVuSans-116"/>
      <path d="M 54.890625 33.015625 
L 54.890625 0 
L 45.90625 0 
L 45.90625 32.71875 
Q 45.90625 40.484375 42.875 44.328125 
Q 39.84375 48.1875 33.796875 48.1875 
Q 26.515625 48.1875 22.3125 43.546875 
Q 18.109375 38.921875 18.109375 30.90625 
L 18.109375 0 
L 9.078125 0 
L 9.078125 75.984375 
L 18.109375 75.984375 
L 18.109375 46.1875 
Q 21.34375 51.125 25.703125 53.5625 
Q 30.078125 56 35.796875 56 
Q 45.21875 56 50.046875 50.171875 
Q 54.890625 44.34375 54.890625 33.015625 
z
" id="DejaVuSans-104"/>
      <path d="M 56.203125 29.59375 
L 56.203125 25.203125 
L 14.890625 25.203125 
Q 15.484375 15.921875 20.484375 11.0625 
Q 25.484375 6.203125 34.421875 6.203125 
Q 39.59375 6.203125 44.453125 7.46875 
Q 49.3125 8.734375 54.109375 11.28125 
L 54.109375 2.78125 
Q 49.265625 0.734375 44.1875 -0.34375 
Q 39.109375 -1.421875 33.890625 -1.421875 
Q 20.796875 -1.421875 13.15625 6.1875 
Q 5.515625 13.8125 5.515625 26.8125 
Q 5.515625 40.234375 12.765625 48.109375 
Q 20.015625 56 32.328125 56 
Q 43.359375 56 49.78125 48.890625 
Q 56.203125 41.796875 56.203125 29.59375 
z
M 47.21875 32.234375 
Q 47.125 39.59375 43.09375 43.984375 
Q 39.0625 48.390625 32.421875 48.390625 
Q 24.90625 48.390625 20.390625 44.140625 
Q 15.875 39.890625 15.1875 32.171875 
z
" id="DejaVuSans-101"/>
      <path d="M 41.109375 46.296875 
Q 39.59375 47.171875 37.8125 47.578125 
Q 36.03125 48 33.890625 48 
Q 26.265625 48 22.1875 43.046875 
Q 18.109375 38.09375 18.109375 28.8125 
L 18.109375 0 
L 9.078125 0 
L 9.078125 54.6875 
L 18.109375 54.6875 
L 18.109375 46.1875 
Q 20.953125 51.171875 25.484375 53.578125 
Q 30.03125 56 36.53125 56 
Q 37.453125 56 38.578125 55.875 
Q 39.703125 55.765625 41.0625 55.515625 
z
" id="DejaVuSans-114"/>
      <path id="DejaVuSans-32"/>
     </defs>
     <use transform="translate(0 0.015625)" xlink:href="#DejaVuSans-79"/>
     <use transform="translate(78.710938 0.015625)" xlink:href="#DejaVuSans-116"/>
     <use transform="translate(117.919922 0.015625)" xlink:href="#DejaVuSans-104"/>
     <use transform="translate(181.298828 0.015625)" xlink:href="#DejaVuSans-101"/>
     <use transform="translate(242.822266 0.015625)" xlink:href="#DejaVuSans-114"/>
     <use transform="translate(283.935547 0.015625)" xlink:href="#DejaVuSans-32"/>
     <use transform="translate(315.722656 0.015625)" xlink:href="#DejaVuSans-Oblique-981"/>
    </g>
   </g>
  </g>
  <g id="axes_2">
   <g id="patch_5">
    <path d="M 965.269565 250.74 
C 965.269565 245.277356 964.940105 239.81968 964.28298 234.396705 
C 963.625855 228.973729 962.64226 223.595318 961.337553 218.290771 
L 829.408696 250.74 
L 965.269565 250.74 
z
" style="fill:#dc143c;stroke:#000000;stroke-linejoin:miter;stroke-width:2;"/>
   </g>
   <g id="patch_6">
    <path d="M 961.337553 218.290771 
C 955.816391 195.843378 944.656449 175.17215 928.917936 158.240881 
C 913.179423 141.309612 893.377031 128.672 871.392014 121.528635 
L 829.408696 250.74 
L 961.337553 218.290771 
z
" style="fill:#00008b;stroke:#000000;stroke-linejoin:miter;stroke-width:2;"/>
   </g>
   <g id="patch_7">
    <path d="M 871.392014 121.528635 
C 857.83327 117.123132 843.665203 114.87913 829.408696 114.87913 
C 815.152189 114.87913 800.984121 117.123132 787.425377 121.528635 
C 773.866634 125.934138 761.085435 132.446484 749.551679 140.826248 
C 738.017923 149.206013 727.874707 159.349229 719.494942 170.882986 
C 711.115178 182.416743 704.602832 195.197941 700.19733 208.756685 
C 695.791827 222.315429 693.547826 236.483496 693.547826 250.740003 
C 693.547826 264.99651 695.791828 279.164577 700.197332 292.723321 
C 704.602835 306.282065 711.115181 319.063263 719.494946 330.597019 
C 727.874711 342.130775 738.017928 352.273991 749.551684 360.653755 
C 761.085441 369.033519 773.866639 375.545865 787.425384 379.951367 
C 800.984128 384.356869 815.152195 386.60087 829.408702 386.60087 
C 843.665209 386.600869 857.833276 384.356867 871.39202 379.951363 
C 884.950764 375.54586 897.731961 369.033513 909.265717 360.653748 
C 920.799473 352.273983 930.942689 342.130766 939.322453 330.597009 
C 947.702217 319.063252 954.214562 306.282053 958.620064 292.723309 
C 963.025566 279.164565 965.269566 264.996497 965.269565 250.73999 
L 829.408696 250.74 
L 871.392014 121.528635 
z
" style="fill:#f5f5f5;stroke:#000000;stroke-linejoin:miter;stroke-width:2;"/>
   </g>
   <g id="matplotlib.axis_3"/>
   <g id="matplotlib.axis_4"/>
   <g id="text_4">
    <!-- $\phi_{glyc}$ -->
    <g transform="translate(977.770408 235.912375)scale(0.14 -0.14)">
     <use transform="translate(0 0.015625)" xlink:href="#DejaVuSans-Oblique-981"/>
     <use transform="translate(65.966797 -16.390625)scale(0.7)" xlink:href="#DejaVuSans-Oblique-103"/>
     <use transform="translate(110.400391 -16.390625)scale(0.7)" xlink:href="#DejaVuSans-Oblique-108"/>
     <use transform="translate(129.848633 -16.390625)scale(0.7)" xlink:href="#DejaVuSans-Oblique-121"/>
     <use transform="translate(171.274414 -16.390625)scale(0.7)" xlink:href="#DejaVuSans-Oblique-99"/>
    </g>
   </g>
   <g id="text_5">
    <!-- $\phi_{resp}$ -->
    <g transform="translate(938.86886 152.140969)scale(0.14 -0.14)">
     <use transform="translate(0 0.015625)" xlink:href="#DejaVuSans-Oblique-981"/>
     <use transform="translate(65.966797 -16.390625)scale(0.7)" xlink:href="#DejaVuSans-Oblique-114"/>
     <use transform="translate(94.746094 -16.390625)scale(0.7)" xlink:href="#DejaVuSans-Oblique-101"/>
     <use transform="translate(137.8125 -16.390625)scale(0.7)" xlink:href="#DejaVuSans-Oblique-115"/>
     <use transform="translate(174.282227 -16.390625)scale(0.7)" xlink:href="#DejaVuSans-Oblique-112"/>
    </g>
   </g>
   <g id="text_6">
    <!-- Other $\phi$ -->
    <g transform="translate(655.023571 342.432721)scale(0.14 -0.14)">
     <use transform="translate(0 0.015625)" xlink:href="#DejaVuSans-79"/>
     <use transform="translate(78.710938 0.015625)" xlink:href="#DejaVuSans-116"/>
     <use transform="translate(117.919922 0.015625)" xlink:href="#DejaVuSans-104"/>
     <use transform="translate(181.298828 0.015625)" xlink:href="#DejaVuSans-101"/>
     <use transform="translate(242.822266 0.015625)" xlink:href="#DejaVuSans-114"/>
     <use transform="translate(283.935547 0.015625)" xlink:href="#DejaVuSans-32"/>
     <use transform="translate(315.722656 0.015625)" xlink:href="#DejaVuSans-Oblique-981"/>
    </g>
   </g>
  </g>
  <g id="axes_3">
   <g id="patch_8">
    <path d="M 1372.852174 250.74 
C 1372.852174 230.829088 1368.475148 211.159459 1360.031811 193.127419 
C 1351.588475 175.095379 1339.283463 159.137955 1323.990283 146.387934 
L 1236.991304 250.74 
L 1372.852174 250.74 
z
" style="fill:#dc143c;stroke:#000000;stroke-linejoin:miter;stroke-width:2;"/>
   </g>
   <g id="patch_9">
    <path d="M 1323.990283 146.387934 
C 1317.362422 140.862245 1310.223169 135.980549 1302.669339 131.809047 
C 1295.115509 127.637545 1287.181404 124.19518 1278.974619 121.528634 
L 1236.991304 250.74 
L 1323.990283 146.387934 
z
" style="fill:#00008b;stroke:#000000;stroke-linejoin:miter;stroke-width:2;"/>
   </g>
   <g id="patch_10">
    <path d="M 1278.974619 121.528634 
C 1265.415876 117.123131 1251.247808 114.87913 1236.991301 114.87913 
C 1222.734794 114.879131 1208.566727 117.123133 1195.007983 121.528636 
C 1181.449239 125.934139 1168.668041 132.446485 1157.134285 140.82625 
C 1145.600529 149.206015 1135.457313 159.349232 1127.077549 170.882989 
C 1118.697785 182.416745 1112.18544 195.197944 1107.779937 208.756688 
C 1103.374435 222.315432 1101.130434 236.483499 1101.130435 250.740006 
C 1101.130435 264.996513 1103.374438 279.164581 1107.779941 292.723324 
C 1112.185445 306.282068 1118.697791 319.063266 1127.077556 330.597022 
C 1135.457322 342.130778 1145.600539 352.273993 1157.134296 360.653757 
C 1168.668052 369.033521 1181.449251 375.545866 1195.007995 379.951368 
C 1208.566739 384.35687 1222.734807 386.600871 1236.991314 386.60087 
C 1251.247821 386.600869 1265.415888 384.356866 1278.974632 379.951362 
C 1292.533375 375.545858 1305.314573 369.033511 1316.848329 360.653746 
C 1328.382084 352.273981 1338.5253 342.130763 1346.905063 330.597006 
C 1355.284827 319.063249 1361.797172 306.28205 1366.202673 292.723306 
C 1370.608175 279.164562 1372.852175 264.996494 1372.852174 250.739987 
L 1236.991304 250.74 
L 1278.974619 121.528634 
z
" style="fill:#f5f5f5;stroke:#000000;stroke-linejoin:miter;stroke-width:2;"/>
   </g>
   <g id="matplotlib.axis_5"/>
   <g id="matplotlib.axis_6"/>
   <g id="text_7">
    <!-- $\phi_{glyc}$ -->
    <g transform="translate(1372.335862 190.516161)scale(0.14 -0.14)">
     <use transform="translate(0 0.015625)" xlink:href="#DejaVuSans-Oblique-981"/>
     <use transform="translate(65.966797 -16.390625)scale(0.7)" xlink:href="#DejaVuSans-Oblique-103"/>
     <use transform="translate(110.400391 -16.390625)scale(0.7)" xlink:href="#DejaVuSans-Oblique-108"/>
     <use transform="translate(129.848633 -16.390625)scale(0.7)" xlink:href="#DejaVuSans-Oblique-121"/>
     <use transform="translate(171.274414 -16.390625)scale(0.7)" xlink:href="#DejaVuSans-Oblique-99"/>
    </g>
   </g>
   <g id="text_8">
    <!-- $\phi_{resp}$ -->
    <g transform="translate(1309.237142 123.065951)scale(0.14 -0.14)">
     <use transform="translate(0 0.015625)" xlink:href="#DejaVuSans-Oblique-981"/>
     <use transform="translate(65.966797 -16.390625)scale(0.7)" xlink:href="#DejaVuSans-Oblique-114"/>
     <use transform="translate(94.746094 -16.390625)scale(0.7)" xlink:href="#DejaVuSans-Oblique-101"/>
     <use transform="translate(137.8125 -16.390625)scale(0.7)" xlink:href="#DejaVuSans-Oblique-115"/>
     <use transform="translate(174.282227 -16.390625)scale(0.7)" xlink:href="#DejaVuSans-Oblique-112"/>
    </g>
   </g>
   <g id="text_9">
    <!-- Other $\phi$ -->
    <g transform="translate(1062.606182 342.432724)scale(0.14 -0.14)">
     <use transform="translate(0 0.015625)" xlink:href="#DejaVuSans-79"/>
     <use transform="translate(78.710938 0.015625)" xlink:href="#DejaVuSans-116"/>
     <use transform="translate(117.919922 0.015625)" xlink:href="#DejaVuSans-104"/>
     <use transform="translate(181.298828 0.015625)" xlink:href="#DejaVuSans-101"/>
     <use transform="translate(242.822266 0.015625)" xlink:href="#DejaVuSans-114"/>
     <use transform="translate(283.935547 0.015625)" xlink:href="#DejaVuSans-32"/>
     <use transform="translate(315.722656 0.015625)" xlink:href="#DejaVuSans-Oblique-981"/>
    </g>
   </g>
  </g>
  <g id="axes_4">
   <g id="patch_11">
    <path d="M 1780.434783 250.74 
C 1780.434783 222.053459 1771.349191 194.090882 1754.487665 170.882983 
C 1737.626139 147.675085 1713.83975 130.393262 1686.557228 121.528634 
L 1644.573913 250.74 
L 1780.434783 250.74 
z
" style="fill:#dc143c;stroke:#000000;stroke-linejoin:miter;stroke-width:2;"/>
   </g>
   <g id="patch_12">
    <path d="M 1686.557228 121.528634 
C 1686.557228 121.528634 1686.557228 121.528634 1686.557228 121.528634 
L 1644.573913 250.74 
L 1686.557228 121.528634 
z
" style="fill:#00008b;stroke:#000000;stroke-linejoin:miter;stroke-width:2;"/>
   </g>
   <g id="patch_13">
    <path d="M 1686.557228 121.528634 
C 1672.998484 117.123131 1658.830417 114.87913 1644.57391 114.87913 
C 1630.317403 114.879131 1616.149336 117.123133 1602.590592 121.528636 
C 1589.031848 125.934139 1576.25065 132.446485 1564.716894 140.82625 
C 1553.183138 149.206015 1543.039922 159.349232 1534.660158 170.882989 
C 1526.280394 182.416745 1519.768048 195.197944 1515.362546 208.756688 
C 1510.957044 222.315432 1508.713043 236.483499 1508.713043 250.740006 
C 1508.713044 264.996513 1510.957046 279.164581 1515.36255 292.723324 
C 1519.768054 306.282068 1526.2804 319.063266 1534.660165 330.597022 
C 1543.03993 342.130778 1553.183147 352.273993 1564.716904 360.653757 
C 1576.250661 369.033521 1589.03186 375.545866 1602.590604 379.951368 
C 1616.149348 384.35687 1630.317416 386.600871 1644.573923 386.60087 
C 1658.83043 386.600869 1672.998497 384.356866 1686.55724 379.951362 
C 1700.115984 375.545858 1712.897182 369.033511 1724.430937 360.653746 
C 1735.964693 352.273981 1746.107909 342.130763 1754.487672 330.597006 
C 1762.867436 319.063249 1769.37978 306.28205 1773.785282 292.723306 
C 1778.190784 279.164562 1780.434784 264.996494 1780.434783 250.739987 
L 1644.573913 250.74 
L 1686.557228 121.528634 
z
" style="fill:#f5f5f5;stroke:#000000;stroke-linejoin:miter;stroke-width:2;"/>
   </g>
   <g id="matplotlib.axis_7"/>
   <g id="matplotlib.axis_8"/>
   <g id="text_10">
    <!-- $\phi_{glyc}$ -->
    <g transform="translate(1765.47904 166.047282)scale(0.14 -0.14)">
     <use transform="translate(0 0.015625)" xlink:href="#DejaVuSans-Oblique-981"/>
     <use transform="translate(65.966797 -16.390625)scale(0.7)" xlink:href="#DejaVuSans-Oblique-103"/>
     <use transform="translate(110.400391 -16.390625)scale(0.7)" xlink:href="#DejaVuSans-Oblique-108"/>
     <use transform="translate(129.848633 -16.390625)scale(0.7)" xlink:href="#DejaVuSans-Oblique-121"/>
     <use transform="translate(171.274414 -16.390625)scale(0.7)" xlink:href="#DejaVuSans-Oblique-99"/>
    </g>
   </g>
   <g id="text_11">
    <!-- $\phi_{resp}$ -->
    <g transform="translate(1690.75556 111.757497)scale(0.14 -0.14)">
     <use transform="translate(0 0.015625)" xlink:href="#DejaVuSans-Oblique-981"/>
     <use transform="translate(65.966797 -16.390625)scale(0.7)" xlink:href="#DejaVuSans-Oblique-114"/>
     <use transform="translate(94.746094 -16.390625)scale(0.7)" xlink:href="#DejaVuSans-Oblique-101"/>
     <use transform="translate(137.8125 -16.390625)scale(0.7)" xlink:href="#DejaVuSans-Oblique-115"/>
     <use transform="translate(174.282227 -16.390625)scale(0.7)" xlink:href="#DejaVuSans-Oblique-112"/>
    </g>
   </g>
   <g id="text_12">
    <!-- Other $\phi$ -->
    <g transform="translate(1470.18879 342.432724)scale(0.14 -0.14)">
     <use transform="translate(0 0.015625)" xlink:href="#DejaVuSans-79"/>
     <use transform="translate(78.710938 0.015625)" xlink:href="#DejaVuSans-116"/>
     <use transform="translate(117.919922 0.015625)" xlink:href="#DejaVuSans-104"/>
     <use transform="translate(181.298828 0.015625)" xlink:href="#DejaVuSans-101"/>
     <use transform="translate(242.822266 0.015625)" xlink:href="#DejaVuSans-114"/>
     <use transform="translate(283.935547 0.015625)" xlink:href="#DejaVuSans-32"/>
     <use transform="translate(315.722656 0.015625)" xlink:href="#DejaVuSans-Oblique-981"/>
    </g>
   </g>
  </g>
 </g>
</svg>
