<?xml version="1.0" encoding="utf-8"?>
<!-- Generator: Adobe Illustrator 24.0.1, SVG Export Plug-In . SVG Version: 6.00 Build 0)  -->
<svg version="1.1" id="Layer_1" xmlns="http://www.w3.org/2000/svg" xmlns:xlink="http://www.w3.org/1999/xlink" x="0px" y="0px"
	 viewBox="0 0 720 720" style="enable-background:new 0 0 720 720;" xml:space="preserve">
<style type="text/css">
	.st0{fill:#FFFFFF;}
	.st1{fill:#262626;}
	.st2{clip-path:url(#SVGID_2_);fill:#C32D4B;stroke:#FFFFFF;stroke-width:1.5;}
	.st3{clip-path:url(#SVGID_4_);fill:#C32D4B;stroke:#FFFFFF;stroke-width:1.5;}
	.st4{clip-path:url(#SVGID_6_);fill:#C32D4B;stroke:#FFFFFF;stroke-width:1.5;}
	.st5{clip-path:url(#SVGID_8_);fill:#C32D4B;stroke:#FFFFFF;stroke-width:1.5;}
	.st6{clip-path:url(#SVGID_10_);fill:#C32D4B;stroke:#FFFFFF;stroke-width:1.5;}
	.st7{clip-path:url(#SVGID_12_);fill:#C32D4B;stroke:#FFFFFF;stroke-width:1.5;}
	.st8{clip-path:url(#SVGID_14_);fill:#C32D4B;stroke:#FFFFFF;stroke-width:1.5;}
	.st9{clip-path:url(#SVGID_16_);fill:#C32D4B;stroke:#FFFFFF;stroke-width:1.5;}
	.st10{clip-path:url(#SVGID_18_);fill:#C32D4B;stroke:#FFFFFF;stroke-width:1.5;}
	.st11{clip-path:url(#SVGID_20_);fill:#C32D4B;stroke:#FFFFFF;stroke-width:1.5;}
	.st12{clip-path:url(#SVGID_22_);fill:#C32D4B;stroke:#FFFFFF;stroke-width:1.5;}
	.st13{clip-path:url(#SVGID_24_);fill:#11117A;stroke:#FFFFFF;stroke-width:1.5;}
	.st14{clip-path:url(#SVGID_26_);fill:#11117A;stroke:#FFFFFF;stroke-width:1.5;}
	.st15{clip-path:url(#SVGID_28_);fill:#11117A;stroke:#FFFFFF;stroke-width:1.5;}
	.st16{clip-path:url(#SVGID_30_);fill:#11117A;stroke:#FFFFFF;stroke-width:1.5;}
	.st17{clip-path:url(#SVGID_32_);fill:#11117A;stroke:#FFFFFF;stroke-width:1.5;}
	.st18{clip-path:url(#SVGID_34_);fill:#11117A;stroke:#FFFFFF;stroke-width:1.5;}
	.st19{clip-path:url(#SVGID_36_);fill:#11117A;stroke:#FFFFFF;stroke-width:1.5;}
	.st20{clip-path:url(#SVGID_38_);fill:#11117A;stroke:#FFFFFF;stroke-width:1.5;}
	.st21{clip-path:url(#SVGID_40_);fill:#11117A;stroke:#FFFFFF;stroke-width:1.5;}
	.st22{clip-path:url(#SVGID_42_);fill:#11117A;stroke:#FFFFFF;stroke-width:1.5;}
	.st23{clip-path:url(#SVGID_44_);fill:#11117A;stroke:#FFFFFF;stroke-width:1.5;}
	.st24{clip-path:url(#SVGID_46_);fill:none;stroke:#424242;stroke-linecap:round;stroke-linejoin:round;}
	.st25{clip-path:url(#SVGID_48_);fill:none;stroke:#424242;stroke-linecap:round;stroke-linejoin:round;}
	.st26{clip-path:url(#SVGID_50_);fill:none;stroke:#424242;stroke-linecap:round;stroke-linejoin:round;}
	.st27{clip-path:url(#SVGID_52_);fill:none;stroke:#424242;stroke-linecap:round;stroke-linejoin:round;}
	.st28{clip-path:url(#SVGID_54_);fill:none;stroke:#424242;stroke-linecap:round;stroke-linejoin:round;}
	.st29{clip-path:url(#SVGID_56_);fill:none;stroke:#424242;stroke-linecap:round;stroke-linejoin:round;}
	.st30{clip-path:url(#SVGID_58_);fill:none;stroke:#424242;stroke-linecap:round;stroke-linejoin:round;}
	.st31{clip-path:url(#SVGID_60_);fill:none;stroke:#424242;stroke-linecap:round;stroke-linejoin:round;}
	.st32{clip-path:url(#SVGID_62_);fill:none;stroke:#424242;stroke-linecap:round;stroke-linejoin:round;}
	.st33{clip-path:url(#SVGID_64_);fill:none;stroke:#424242;stroke-linecap:round;stroke-linejoin:round;}
	.st34{clip-path:url(#SVGID_66_);fill:none;stroke:#424242;stroke-linecap:round;stroke-linejoin:round;}
	.st35{clip-path:url(#SVGID_68_);fill:none;stroke:#424242;stroke-linecap:round;stroke-linejoin:round;}
	.st36{clip-path:url(#SVGID_70_);fill:none;stroke:#424242;stroke-linecap:round;stroke-linejoin:round;}
	.st37{clip-path:url(#SVGID_72_);fill:none;stroke:#424242;stroke-linecap:round;stroke-linejoin:round;}
	.st38{clip-path:url(#SVGID_74_);fill:none;stroke:#424242;stroke-linecap:round;stroke-linejoin:round;}
	.st39{clip-path:url(#SVGID_76_);fill:none;stroke:#424242;stroke-linecap:round;stroke-linejoin:round;}
	.st40{clip-path:url(#SVGID_78_);fill:none;stroke:#424242;stroke-linecap:round;stroke-linejoin:round;}
	.st41{clip-path:url(#SVGID_80_);fill:none;stroke:#424242;stroke-linecap:round;stroke-linejoin:round;}
	.st42{clip-path:url(#SVGID_82_);fill:none;stroke:#424242;stroke-linecap:round;stroke-linejoin:round;}
	.st43{clip-path:url(#SVGID_84_);fill:none;stroke:#424242;stroke-linecap:round;stroke-linejoin:round;}
	.st44{clip-path:url(#SVGID_86_);fill:none;stroke:#424242;stroke-linecap:round;stroke-linejoin:round;}
	.st45{clip-path:url(#SVGID_88_);fill:none;stroke:#424242;stroke-linecap:round;stroke-linejoin:round;}
	.st46{fill:none;stroke:#000000;stroke-width:1.875;stroke-linecap:square;}
	.st47{opacity:0.8;fill:#FFFFFF;stroke:#CCCCCC;stroke-width:1.5;enable-background:new    ;}
	.st48{fill:#C32D4B;stroke:#FFFFFF;stroke-width:1.5;}
	.st49{fill:#11117A;stroke:#FFFFFF;stroke-width:1.5;}
</style>
<g id="figure_1">
	<g id="patch_1">
		<path class="st0" d="M0,320.4h320.4V0H0V320.4z"/>
	</g>
	<g id="axes_1">
		<g id="patch_2">
			<path class="st0" d="M40.1,280.4h248.3V38.5H40.1V280.4z"/>
		</g>
		<g id="matplotlib.axis_1">
			<g id="xtick_1">
				<g id="text_1">
					<g transform="translate(104.756455 678.09791)rotate(-45)scale(0.165 -0.165)">
						<g>
							<path id="ArialMT-65" class="st1" d="M1363.5,1861.8l12.2,31.9h4.5l13-31.9h-4.8l-3.7,9.7h-13.3l-3.5-9.7H1363.5z
								 M1372.7,1874.9h10.8l-3.3,8.8c-1,2.7-1.8,4.9-2.3,6.6c-0.4-2-1-4.1-1.7-6.1L1372.7,1874.9z"/>
						</g>
						<g>
							<path id="ArialMT-53" class="st1" d="M1395.1,1870.2l4.1,0.3c0.3-2,1-3.5,2.1-4.5c1.1-1,2.4-1.5,4-1.5c1.9,0,3.5,0.7,4.8,2.1
								c1.3,1.4,2,3.3,2,5.7c0,2.2-0.6,4-1.9,5.3c-1.3,1.3-2.9,1.9-4.9,1.9c-1.3,0-2.4-0.3-3.4-0.9c-1-0.6-1.8-1.3-2.4-2.2l-3.7,0.5
								l3.1,16.4h15.8v-3.7H1402l-1.7-8.6c1.9,1.3,3.9,2,6,2c2.8,0,5.1-1,7-2.9c1.9-1.9,2.9-4.4,2.9-7.4c0-2.9-0.8-5.4-2.5-7.5
								c-2-2.6-4.8-3.9-8.4-3.9c-2.9,0-5.3,0.8-7.1,2.4C1396.4,1865.3,1395.3,1867.5,1395.1,1870.2z"/>
						</g>
						<g>
							<path id="ArialMT-52" class="st1" d="M1432.4,1861.8v7.6h-13.8v3.6l14.5,20.6h3.2V1873h4.3v-3.6h-4.3v-7.6H1432.4z
								 M1432.4,1873v14.4l-10-14.4H1432.4z"/>
						</g>
						<g>
							<path id="ArialMT-57" class="st1" d="M1445.2,1869.2l3.8,0.3c0.3-1.8,0.9-3,1.8-3.8c0.9-0.8,2.1-1.2,3.5-1.2
								c1.2,0,2.3,0.3,3.2,0.8c0.9,0.6,1.7,1.3,2.2,2.2c0.6,0.9,1.1,2.2,1.5,3.7c0.4,1.6,0.6,3.2,0.6,4.8c0,0.2,0,0.4,0,0.8
								c-0.8-1.2-1.9-2.3-3.2-3c-1.4-0.8-2.8-1.2-4.4-1.2c-2.6,0-4.9,1-6.7,2.9c-1.8,1.9-2.7,4.4-2.7,7.6c0,3.2,1,5.8,2.9,7.8
								c1.9,2,4.3,3,7.2,3c2.1,0,4-0.6,5.7-1.7c1.7-1.1,3-2.7,3.9-4.8c0.9-2.1,1.3-5.1,1.3-9c0-4.1-0.4-7.3-1.3-9.7
								c-0.9-2.4-2.2-4.2-3.9-5.5c-1.7-1.3-3.8-1.9-6.1-1.9c-2.5,0-4.5,0.7-6.1,2.1C1446.4,1864.7,1445.5,1866.7,1445.2,1869.2z
								 M1461.2,1883.2c0,2.2-0.6,4-1.8,5.3c-1.2,1.3-2.6,2-4.3,2c-1.7,0-3.3-0.7-4.5-2.1c-1.3-1.4-1.9-3.3-1.9-5.5
								c0-2,0.6-3.7,1.8-4.9c1.2-1.3,2.7-1.9,4.5-1.9c1.8,0,3.3,0.6,4.5,1.9C1460.6,1879.2,1461.2,1881,1461.2,1883.2z"/>
						</g>
					</g>
				</g>
			</g>
			<g id="xtick_2">
				<g id="text_2">
					<g transform="translate(151.28169 686.501984)rotate(-45)scale(0.165 -0.165)">
						<g>
							<path id="ArialMT-71" class="st1" d="M1291.2,2005v3.7l13.5,0v-11.8c-2.1-1.7-4.2-2.9-6.4-3.7c-2.2-0.8-4.5-1.2-6.8-1.2
								c-3.1,0-6,0.7-8.5,2c-2.6,1.3-4.5,3.3-5.8,5.8c-1.3,2.5-2,5.4-2,8.5c0,3.1,0.6,6,1.9,8.7c1.3,2.7,3.2,4.7,5.6,6
								c2.4,1.3,5.2,2,8.4,2c2.3,0,4.4-0.4,6.2-1.1c1.9-0.7,3.3-1.8,4.4-3.1c1.1-1.3,1.9-3.1,2.4-5.2l-3.8-1
								c-0.5,1.6-1.1,2.9-1.8,3.8c-0.7,0.9-1.7,1.7-3,2.2c-1.3,0.6-2.8,0.8-4.4,0.8c-1.9,0-3.6-0.3-5-0.9c-1.4-0.6-2.5-1.4-3.4-2.3
								c-0.9-1-1.5-2-2-3.2c-0.8-2-1.2-4.1-1.2-6.4c0-2.8,0.5-5.2,1.5-7.1c1-1.9,2.4-3.3,4.3-4.3c1.9-0.9,3.9-1.4,6-1.4
								c1.8,0,3.6,0.3,5.3,1.1c1.7,0.7,3.1,1.5,3.9,2.3v5.9H1291.2z"/>
						</g>
						<g>
							<path id="ArialMT-65_1_" class="st1" d="M1307.4,1992.5l12.2,31.9h4.5l13-31.9h-4.8l-3.7,9.7h-13.3l-3.5-9.7H1307.4z
								 M1316.6,2005.5h10.8l-3.3,8.8c-1,2.7-1.8,4.9-2.3,6.6c-0.4-2-1-4.1-1.7-6.1L1316.6,2005.5z"/>
						</g>
						<g>
							<path id="ArialMT-77" class="st1" d="M1340.5,1992.5v31.9h6.3l7.5-22.6c0.7-2.1,1.2-3.7,1.5-4.7c0.4,1.2,0.9,2.9,1.7,5.1
								l7.6,22.2h5.7v-31.9h-4.1v26.7l-9.3-26.7h-3.8l-9.2,27.1v-27.1H1340.5z"/>
						</g>
						<g>
							<path id="ArialMT-71_1_" class="st1" d="M1392.6,2005v3.7l13.5,0v-11.8c-2.1-1.7-4.2-2.9-6.4-3.7c-2.2-0.8-4.5-1.2-6.8-1.2
								c-3.1,0-6,0.7-8.5,2c-2.6,1.3-4.5,3.3-5.8,5.8c-1.3,2.5-2,5.4-2,8.5c0,3.1,0.6,6,1.9,8.7c1.3,2.7,3.2,4.7,5.6,6
								c2.4,1.3,5.2,2,8.4,2c2.3,0,4.4-0.4,6.2-1.1c1.9-0.7,3.3-1.8,4.4-3.1c1.1-1.3,1.9-3.1,2.4-5.2l-3.8-1
								c-0.5,1.6-1.1,2.9-1.8,3.8c-0.7,0.9-1.7,1.7-3,2.2c-1.3,0.6-2.8,0.8-4.4,0.8c-1.9,0-3.6-0.3-5-0.9c-1.4-0.6-2.5-1.4-3.4-2.3
								c-0.9-1-1.5-2-2-3.2c-0.8-2-1.2-4.1-1.2-6.4c0-2.8,0.5-5.2,1.5-7.1c1-1.9,2.4-3.3,4.3-4.3c1.9-0.9,3.9-1.4,6-1.4
								c1.8,0,3.6,0.3,5.3,1.1c1.7,0.7,3.1,1.5,3.9,2.3v5.9H1392.6z"/>
						</g>
					</g>
				</g>
			</g>
			<g id="xtick_3">
				<g id="text_3">
					<g transform="translate(198.106811 694.306289)rotate(-45)scale(0.165 -0.165)">
						<g>
							<path id="ArialMT-72" class="st1" d="M1183.7,2122.4v31.9h4.2v-13.1h16.6v13.1h4.2v-31.9h-4.2v15h-16.6v-15H1183.7z"/>
						</g>
						<g>
							<path id="ArialMT-69" class="st1" d="M1215.7,2122.4v31.9h23v-3.8H1220v-9.8h17.6v-3.7H1220v-10.8h19.6v-3.8H1215.7z"/>
						</g>
						<g>
							<path id="ArialMT-75" class="st1" d="M1245.2,2122.4v31.9h4.2v-15.8l15.8,15.8h5.7l-13.4-12.9l13.9-18.9h-5.6l-11.3,16.1
								l-5.2-5.1v-11H1245.2z"/>
						</g>
						<g>
							<path id="ArialMT-50" class="st1" d="M1294,2126.1v-3.8h-21.1c0,0.9,0.1,1.8,0.5,2.7c0.5,1.4,1.4,2.8,2.6,4.2
								c1.2,1.4,2.9,3,5.1,4.8c3.5,2.8,5.8,5.1,7,6.7c1.2,1.7,1.8,3.2,1.8,4.7c0,1.5-0.6,2.9-1.7,3.9c-1.1,1.1-2.6,1.6-4.3,1.6
								c-1.9,0-3.4-0.6-4.5-1.7c-1.1-1.1-1.7-2.7-1.7-4.7l-4,0.4c0.3,3,1.3,5.3,3.1,6.9c1.8,1.6,4.2,2.4,7.2,2.4
								c3.1,0,5.5-0.8,7.3-2.5c1.8-1.7,2.7-3.8,2.7-6.3c0-1.3-0.3-2.5-0.8-3.8c-0.5-1.2-1.4-2.5-2.6-3.9c-1.2-1.4-3.2-3.2-6-5.6
								c-2.4-2-3.9-3.3-4.5-4c-0.7-0.7-1.2-1.4-1.6-2.1H1294z"/>
						</g>
						<g>
							<path id="ArialMT-57_1_" class="st1" d="M1298.8,2129.7l3.8,0.3c0.3-1.8,0.9-3,1.8-3.8c0.9-0.8,2.1-1.2,3.5-1.2
								c1.2,0,2.3,0.3,3.2,0.8c0.9,0.6,1.7,1.3,2.2,2.2c0.6,0.9,1.1,2.2,1.5,3.7c0.4,1.6,0.6,3.2,0.6,4.8c0,0.2,0,0.4,0,0.8
								c-0.8-1.2-1.9-2.3-3.2-3c-1.4-0.8-2.8-1.2-4.4-1.2c-2.6,0-4.9,1-6.7,2.9c-1.8,1.9-2.7,4.4-2.7,7.6c0,3.2,1,5.8,2.9,7.8
								c1.9,2,4.3,3,7.2,3c2.1,0,4-0.6,5.7-1.7c1.7-1.1,3-2.7,3.9-4.8c0.9-2.1,1.3-5.1,1.3-9c0-4.1-0.4-7.3-1.3-9.7
								c-0.9-2.4-2.2-4.2-3.9-5.5c-1.7-1.3-3.8-1.9-6.1-1.9c-2.5,0-4.5,0.7-6.1,2.1C1300,2125.3,1299.1,2127.2,1298.8,2129.7z
								 M1314.8,2143.8c0,2.2-0.6,4-1.8,5.3c-1.2,1.3-2.6,2-4.3,2c-1.7,0-3.3-0.7-4.5-2.1c-1.3-1.4-1.9-3.3-1.9-5.5
								c0-2,0.6-3.7,1.8-4.9c1.2-1.3,2.7-1.9,4.5-1.9c1.8,0,3.3,0.6,4.5,1.9C1314.2,2139.8,1314.8,2141.6,1314.8,2143.8z"/>
						</g>
						<g>
							<path id="ArialMT-51" class="st1" d="M1323,2130.8l3.9,0.5c0.4-2.2,1.2-3.8,2.3-4.8c1.1-1,2.4-1.5,3.9-1.5
								c1.8,0,3.4,0.6,4.7,1.9c1.3,1.3,1.9,2.9,1.9,4.7c0,1.8-0.6,3.3-1.8,4.4c-1.2,1.2-2.7,1.8-4.5,1.8c-0.7,0-1.7-0.1-2.8-0.4
								l0.4,3.4c0.3,0,0.5,0,0.6,0c1.7,0,3.2,0.4,4.5,1.3c1.3,0.9,2,2.2,2,4c0,1.4-0.5,2.6-1.5,3.6c-1,0.9-2.2,1.4-3.8,1.4
								c-1.5,0-2.8-0.5-3.8-1.4c-1-1-1.7-2.4-2-4.3l-3.9,0.7c0.5,2.6,1.6,4.6,3.3,6.1c1.7,1.4,3.8,2.2,6.3,2.2
								c1.7,0,3.3-0.4,4.8-1.1c1.5-0.7,2.6-1.8,3.4-3.1c0.8-1.3,1.2-2.7,1.2-4.1c0-1.4-0.4-2.6-1.1-3.8c-0.7-1.1-1.8-2-3.3-2.7
								c1.9-0.4,3.3-1.3,4.4-2.7c1-1.4,1.6-3.1,1.6-5.1c0-2.8-1-5.1-3-7.1c-2-1.9-4.6-2.9-7.7-2.9c-2.8,0-5.1,0.8-7,2.5
								C1324.3,2126,1323.2,2128.1,1323,2130.8z"/>
						</g>
					</g>
				</g>
			</g>
			<g id="xtick_4">
				<g id="text_4">
					<g transform="translate(256.616512 678.741432)rotate(-45)scale(0.165 -0.165)">
						<g>
							<path id="ArialMT-72_1_" class="st1" d="M1007.5,2224.5v31.9h4.2v-13.1h16.6v13.1h4.2v-31.9h-4.2v15h-16.6v-15H1007.5z"/>
						</g>
						<g>
							<path id="ArialMT-101" class="st1" d="M1054.8,2232l4-0.5c-0.6-2.4-1.8-4.2-3.5-5.5c-1.7-1.3-3.9-2-6.6-2c-3.4,0-6.1,1-8,3.1
								c-2,2.1-3,5-3,8.7c0,3.9,1,6.9,3,9c2,2.1,4.6,3.2,7.8,3.2c3.1,0,5.6-1.1,7.6-3.1c2-2.1,2.9-5.1,2.9-8.9c0-0.2,0-0.6,0-1
								h-17.2c0.1-2.5,0.9-4.5,2.1-5.8c1.3-1.3,2.9-2,4.8-2c1.4,0,2.7,0.4,3.7,1.1C1053.4,2229.1,1054.2,2230.3,1054.8,2232z
								 M1041.9,2238.3h12.9c-0.2,1.9-0.7,3.4-1.5,4.4c-1.2,1.5-2.9,2.3-4.8,2.3c-1.8,0-3.3-0.6-4.5-1.8
								S1042.1,2240.3,1041.9,2238.3z"/>
						</g>
						<g>
							<path id="ArialMT-76" class="st1" d="M1064.1,2224.5v31.9h4.2v-28.1h15.7v-3.8H1064.1z"/>
						</g>
						<g>
							<path id="ArialMT-97" class="st1" d="M1103.6,2227.4c-1.5-1.2-2.8-2.1-4.2-2.6c-1.3-0.5-2.8-0.8-4.3-0.8
								c-2.5,0-4.5,0.6-5.8,1.9c-1.4,1.2-2,2.8-2,4.7c0,1.1,0.3,2.2,0.8,3.1c0.5,0.9,1.2,1.7,2,2.3c0.8,0.6,1.8,1,2.8,1.3
								c0.8,0.2,1.9,0.4,3.5,0.6c3.2,0.4,5.5,0.8,7,1.3c0,0.5,0,0.9,0,1c0,1.6-0.4,2.7-1.1,3.4c-1,0.9-2.5,1.3-4.5,1.3
								c-1.8,0-3.2-0.3-4.1-1c-0.9-0.6-1.5-1.8-1.9-3.4l-3.8,0.5c0.3,1.6,0.9,3,1.7,4c0.8,1,1.9,1.8,3.5,2.3
								c1.5,0.5,3.3,0.8,5.2,0.8c2,0,3.6-0.2,4.8-0.7c1.2-0.5,2.1-1,2.7-1.8c0.6-0.7,1-1.6,1.2-2.7c0.1-0.7,0.2-1.9,0.2-3.6v-5.2
								c0-3.6,0.1-5.9,0.3-6.9c0.2-1,0.5-1.9,1-2.8h-4.1C1103.9,2225.3,1103.7,2226.3,1103.6,2227.4z M1103.2,2236.1
								c-1.4-0.6-3.6-1.1-6.4-1.5c-1.6-0.2-2.7-0.5-3.4-0.8c-0.7-0.3-1.2-0.7-1.5-1.3c-0.4-0.6-0.5-1.2-0.5-1.9c0-1,0.4-1.9,1.2-2.6
								c0.8-0.7,1.9-1,3.5-1c1.5,0,2.8,0.3,4,1c1.2,0.7,2,1.6,2.6,2.7c0.4,0.9,0.6,2.2,0.6,3.9V2236.1z"/>
						</g>
					</g>
				</g>
			</g>
			<g id="xtick_5">
				<g id="text_5">
					<g transform="translate(302.877411 687.958569)rotate(-45)scale(0.165 -0.165)">
						<g>
							<path id="ArialMT-72_2_" class="st1" d="M919.4,2356.5v31.9h4.2v-13.1h16.6v13.1h4.2v-31.9h-4.2v15h-16.6v-15H919.4z"/>
						</g>
						<g>
							<path id="ArialMT-101_1_" class="st1" d="M966.7,2363.9l4-0.5c-0.6-2.4-1.8-4.2-3.5-5.5c-1.7-1.3-3.9-2-6.6-2
								c-3.4,0-6.1,1-8,3.1c-2,2.1-3,5-3,8.7c0,3.9,1,6.9,3,9c2,2.1,4.6,3.2,7.8,3.2c3.1,0,5.6-1.1,7.6-3.1c2-2.1,2.9-5.1,2.9-8.9
								c0-0.2,0-0.6,0-1h-17.2c0.1-2.5,0.9-4.5,2.1-5.8c1.3-1.3,2.9-2,4.8-2c1.4,0,2.7,0.4,3.7,1.1
								C965.3,2361,966.1,2362.2,966.7,2363.9z M953.8,2370.2h12.9c-0.2,1.9-0.7,3.4-1.5,4.4c-1.2,1.5-2.9,2.3-4.8,2.3
								c-1.8,0-3.3-0.6-4.5-1.8S954,2372.2,953.8,2370.2z"/>
						</g>
						<g>
							<path id="ArialMT-112" class="st1" d="M975.6,2347.6v31.9h3.6v-3c0.8,1.2,1.8,2.1,2.9,2.6c1.1,0.6,2.3,0.9,3.8,0.9
								c2,0,3.7-0.5,5.2-1.5c1.5-1,2.6-2.4,3.4-4.3c0.8-1.8,1.2-3.9,1.2-6.1c0-2.4-0.4-4.5-1.3-6.4c-0.8-1.9-2.1-3.3-3.7-4.3
								c-1.6-1-3.3-1.5-5.1-1.5c-1.3,0-2.5,0.3-3.5,0.8c-1,0.6-1.9,1.2-2.6,2.1v-11.2H975.6z M979.2,2367.9c0-3,0.6-5.2,1.8-6.6
								c1.2-1.4,2.7-2.1,4.4-2.1c1.7,0,3.2,0.7,4.5,2.2c1.2,1.5,1.9,3.7,1.9,6.8c0,2.9-0.6,5.1-1.8,6.6c-1.2,1.5-2.7,2.2-4.3,2.2
								c-1.7,0-3.1-0.8-4.4-2.3C979.8,2373.1,979.2,2370.8,979.2,2367.9z"/>
						</g>
						<g>
							<path id="ArialMT-71_2_" class="st1" d="M1015.8,2369v3.7l13.5,0v-11.8c-2.1-1.7-4.2-2.9-6.4-3.7c-2.2-0.8-4.5-1.2-6.8-1.2
								c-3.1,0-6,0.7-8.5,2c-2.6,1.3-4.5,3.3-5.8,5.8c-1.3,2.5-2,5.4-2,8.5c0,3.1,0.6,6,1.9,8.7c1.3,2.7,3.2,4.7,5.6,6s5.2,2,8.4,2
								c2.3,0,4.4-0.4,6.2-1.1c1.9-0.7,3.3-1.8,4.4-3.1c1.1-1.3,1.9-3.1,2.4-5.2l-3.8-1c-0.5,1.6-1.1,2.9-1.8,3.8s-1.7,1.7-3,2.2
								c-1.3,0.6-2.8,0.8-4.4,0.8c-1.9,0-3.6-0.3-5-0.9c-1.4-0.6-2.5-1.4-3.4-2.3c-0.9-1-1.5-2-2-3.2c-0.8-2-1.2-4.1-1.2-6.4
								c0-2.8,0.5-5.2,1.5-7.1c1-1.9,2.4-3.3,4.3-4.3c1.9-0.9,3.9-1.4,6-1.4c1.8,0,3.6,0.4,5.3,1.1c1.7,0.7,3.1,1.5,3.9,2.3v5.9
								H1015.8z"/>
						</g>
						<g>
							<path id="ArialMT-50_1_" class="st1" d="M1054.5,2360.2v-3.8h-21.1c0,0.9,0.1,1.8,0.5,2.7c0.5,1.4,1.4,2.8,2.6,4.2
								c1.2,1.4,2.9,3,5.1,4.8c3.5,2.8,5.8,5.1,7,6.7c1.2,1.7,1.8,3.2,1.8,4.7c0,1.5-0.6,2.9-1.7,3.9c-1.1,1.1-2.6,1.6-4.3,1.6
								c-1.9,0-3.4-0.6-4.5-1.7c-1.1-1.1-1.7-2.7-1.7-4.7l-4,0.4c0.3,3,1.3,5.3,3.1,6.9c1.8,1.6,4.2,2.4,7.2,2.4
								c3.1,0,5.5-0.8,7.3-2.5c1.8-1.7,2.7-3.8,2.7-6.3c0-1.3-0.3-2.5-0.8-3.8c-0.5-1.2-1.4-2.5-2.6-3.9c-1.2-1.4-3.2-3.2-6-5.6
								c-2.4-2-3.9-3.3-4.5-4c-0.7-0.7-1.2-1.4-1.6-2.1H1054.5z"/>
						</g>
					</g>
				</g>
			</g>
			<g id="xtick_6">
				<g id="text_6">
					<g transform="translate(356.131375 682.620797)rotate(-45)scale(0.165 -0.165)">
						<g>
							<path id="ArialMT-74" class="st1" d="M777.8,2479.5l3.8,0.5c0.1-2.4,0.6-4.1,1.4-5c0.8-0.9,1.9-1.3,3.4-1.3
								c1.1,0,2,0.2,2.7,0.7c0.8,0.5,1.3,1.1,1.6,2c0.3,0.8,0.4,2.2,0.4,4v21.9h4.2v-21.7c0-2.7-0.3-4.7-1-6.2
								c-0.6-1.5-1.7-2.6-3.1-3.3c-1.4-0.8-3-1.1-4.9-1.1c-2.8,0-4.9,0.8-6.4,2.4C778.4,2473.9,777.7,2476.3,777.8,2479.5z"/>
						</g>
						<g>
							<path id="ArialMT-117" class="st1" d="M816.8,2470.4v3.4c-1.8-2.6-4.2-3.9-7.3-3.9c-1.4,0-2.6,0.3-3.8,0.8
								c-1.2,0.5-2.1,1.2-2.6,2c-0.6,0.8-1,1.8-1.2,2.9c-0.2,0.8-0.2,2-0.2,3.7v14.3h3.9v-12.8c0-2,0.1-3.4,0.2-4.1
								c0.2-1,0.8-1.8,1.6-2.4c0.8-0.6,1.8-0.9,3-0.9s2.3,0.3,3.3,0.9c1,0.6,1.8,1.4,2.2,2.5c0.4,1,0.6,2.5,0.6,4.5v12.4h3.9v-23.1
								H816.8z"/>
						</g>
						<g>
							<path id="ArialMT-114" class="st1" d="M826.4,2470.4v23.1h3.5v-3.5c0.9,1.6,1.7,2.7,2.5,3.2c0.8,0.5,1.6,0.8,2.5,0.8
								c1.3,0,2.7-0.4,4-1.3l-1.3-3.6c-1,0.6-1.9,0.8-2.9,0.8c-0.9,0-1.6-0.3-2.3-0.8c-0.7-0.5-1.2-1.2-1.5-2.1
								c-0.4-1.4-0.7-2.9-0.7-4.6v-12.1H826.4z"/>
						</g>
						<g>
							<path id="ArialMT-107" class="st1" d="M841.3,2470.4v31.9h3.9v-18.2l9.3,9.4h5.1l-8.8-8.6l9.7-14.5h-4.8l-7.6,11.8l-2.8-2.6
								v-9.2H841.3z"/>
						</g>
						<g>
							<path id="ArialMT-97_1_" class="st1" d="M878.5,2473.3c-1.5-1.2-2.8-2.1-4.2-2.6c-1.3-0.5-2.8-0.8-4.3-0.8
								c-2.5,0-4.5,0.6-5.8,1.9c-1.4,1.2-2,2.8-2,4.7c0,1.1,0.3,2.2,0.8,3.1c0.5,0.9,1.2,1.7,2,2.3c0.8,0.6,1.8,1,2.8,1.3
								c0.8,0.2,1.9,0.4,3.5,0.6c3.2,0.4,5.5,0.8,7,1.3c0,0.5,0,0.9,0,1c0,1.6-0.4,2.7-1.1,3.4c-1,0.9-2.5,1.3-4.5,1.3
								c-1.8,0-3.2-0.3-4.1-1c-0.9-0.6-1.5-1.8-1.9-3.4l-3.8,0.5c0.3,1.6,0.9,3,1.7,4c0.8,1,1.9,1.8,3.5,2.3
								c1.5,0.5,3.3,0.8,5.2,0.8c2,0,3.6-0.2,4.8-0.7c1.2-0.5,2.1-1,2.7-1.8c0.6-0.7,1-1.6,1.2-2.7c0.1-0.7,0.2-1.9,0.2-3.6v-5.2
								c0-3.6,0.1-5.9,0.3-6.9c0.2-1,0.5-1.9,1-2.8h-4.1C878.9,2471.2,878.7,2472.2,878.5,2473.3z M878.2,2482
								c-1.4-0.6-3.6-1.1-6.4-1.5c-1.6-0.2-2.7-0.5-3.4-0.8c-0.7-0.3-1.2-0.7-1.5-1.3c-0.4-0.6-0.5-1.2-0.5-1.9c0-1,0.4-1.9,1.2-2.6
								c0.8-0.7,1.9-1,3.5-1c1.5,0,2.8,0.3,4,1c1.2,0.7,2,1.6,2.6,2.7c0.4,0.9,0.6,2.2,0.6,3.9V2482z"/>
						</g>
						<g>
							<path id="ArialMT-116" class="st1" d="M896.8,2473.9l0.6-3.5c-1.1-0.2-2.1-0.3-3-0.3c-1.4,0-2.5,0.2-3.3,0.7
								c-0.8,0.4-1.3,1-1.6,1.8c-0.3,0.7-0.5,2.3-0.5,4.6v13.3h-2.9v3h2.9v5.7l3.9,2.3v-8.1h3.9v-3h-3.9V2477c0-1.1,0.1-1.8,0.2-2.2
								c0.1-0.3,0.4-0.6,0.7-0.8c0.3-0.2,0.8-0.3,1.3-0.3C895.5,2473.8,896.1,2473.8,896.8,2473.9z"/>
						</g>
					</g>
				</g>
			</g>
			<g id="xtick_7">
				<g id="text_7">
					<g transform="translate(409.120091 678.09791)rotate(-45)scale(0.165 -0.165)">
						<g>
							<path id="ArialMT-75_1_" class="st1" d="M643,2585.7v31.9h4.2v-15.8l15.8,15.8h5.7l-13.4-12.9l13.9-18.9h-5.6l-11.3,16.1
								l-5.2-5.1v-11H643z"/>
						</g>
						<g>
							<path id="ArialMT-53_1_" class="st1" d="M671.2,2594l4.1,0.3c0.3-2,1-3.5,2.1-4.5c1.1-1,2.4-1.5,4-1.5c1.9,0,3.5,0.7,4.8,2.1
								c1.3,1.4,2,3.3,2,5.7c0,2.2-0.6,4-1.9,5.3c-1.3,1.3-2.9,1.9-4.9,1.9c-1.3,0-2.4-0.3-3.4-0.9c-1-0.6-1.8-1.3-2.4-2.2l-3.7,0.5
								l3.1,16.4h15.8v-3.7h-12.7l-1.7-8.6c1.9,1.3,3.9,2,6,2c2.8,0,5.1-1,7-2.9c1.9-1.9,2.9-4.4,2.9-7.4c0-2.9-0.8-5.4-2.5-7.5
								c-2-2.6-4.8-3.9-8.4-3.9c-2.9,0-5.3,0.8-7.1,2.4C672.5,2589.2,671.5,2591.3,671.2,2594z"/>
						</g>
						<g>
							<path id="ArialMT-54" class="st1" d="M716.3,2609.7l-3.9-0.3c-0.3,1.5-0.8,2.6-1.5,3.3c-1.1,1.1-2.4,1.7-3.9,1.7
								c-1.2,0-2.3-0.3-3.3-1c-1.2-0.9-2.2-2.2-2.9-3.9c-0.7-1.7-1.1-4.2-1.1-7.4c0.9,1.4,2.1,2.5,3.5,3.2c1.4,0.7,2.8,1,4.3,1
								c2.6,0,4.8-1,6.7-2.9c1.8-1.9,2.8-4.4,2.8-7.4c0-2-0.4-3.9-1.3-5.6c-0.9-1.7-2-3-3.6-3.9c-1.5-0.9-3.2-1.4-5.1-1.4
								c-3.3,0-5.9,1.2-8,3.6c-2.1,2.4-3.1,6.3-3.1,11.9c0,6.2,1.1,10.6,3.4,13.4c2,2.4,4.7,3.7,8,3.7c2.5,0,4.6-0.7,6.2-2.1
								C715,2614.2,716,2612.2,716.3,2609.7z M700.3,2596c0-1.3,0.3-2.6,0.9-3.9c0.6-1.2,1.4-2.2,2.4-2.8c1-0.6,2.1-1,3.2-1
								c1.7,0,3.1,0.7,4.3,2c1.2,1.3,1.8,3.1,1.8,5.4c0,2.2-0.6,3.9-1.8,5.2c-1.2,1.3-2.6,1.9-4.4,1.9c-1.8,0-3.3-0.6-4.5-1.9
								C700.9,2599.7,700.3,2598.1,700.3,2596z"/>
						</g>
						<g>
							<path id="ArialMT-50_2_" class="st1" d="M741.3,2589.4v-3.8h-21.1c0,0.9,0.1,1.8,0.5,2.7c0.5,1.4,1.4,2.8,2.6,4.2
								c1.2,1.4,2.9,3,5.1,4.8c3.5,2.8,5.8,5.1,7,6.7c1.2,1.7,1.8,3.2,1.8,4.7c0,1.5-0.6,2.9-1.7,3.9c-1.1,1.1-2.6,1.6-4.3,1.6
								c-1.9,0-3.4-0.6-4.5-1.7c-1.1-1.1-1.7-2.7-1.7-4.7l-4,0.4c0.3,3,1.3,5.3,3.1,6.9c1.8,1.6,4.2,2.4,7.2,2.4
								c3.1,0,5.5-0.8,7.3-2.5c1.8-1.7,2.7-3.8,2.7-6.3c0-1.3-0.3-2.5-0.8-3.8c-0.5-1.2-1.4-2.5-2.6-3.9c-1.2-1.4-3.2-3.2-6-5.6
								c-2.4-2-3.9-3.3-4.5-4c-0.7-0.7-1.2-1.4-1.6-2.1H741.3z"/>
						</g>
					</g>
				</g>
			</g>
			<g id="xtick_8">
				<g id="text_8">
					<g transform="translate(456.352654 685.371718)rotate(-45)scale(0.165 -0.165)">
						<g>
							<path id="ArialMT-76_1_" class="st1" d="M547.9,2715.3v31.9h4.2v-28.1h15.7v-3.8H547.9z"/>
						</g>
						<g>
							<path id="ArialMT-110" class="st1" d="M572.4,2715.3v23.1h3.5v-3.3c1.7,2.5,4.1,3.8,7.3,3.8c1.4,0,2.7-0.3,3.8-0.8
								c1.2-0.5,2-1.2,2.6-2s1-1.8,1.2-2.9c0.1-0.7,0.2-2,0.2-3.8v-14.2h-3.9v14c0,1.6-0.2,2.8-0.5,3.6c-0.3,0.8-0.8,1.4-1.6,1.9
								c-0.8,0.5-1.7,0.7-2.7,0.7c-1.7,0-3.1-0.5-4.3-1.6c-1.2-1.1-1.8-3.1-1.8-6v-12.6H572.4z"/>
						</g>
						<g>
							<path id="ArialMT-67" class="st1" d="M620.3,2726.5l4.2-1.1c-0.9-3.5-2.5-6.1-4.8-7.9c-2.3-1.8-5.1-2.7-8.4-2.7
								c-3.4,0-6.2,0.7-8.4,2.1c-2.2,1.4-3.8,3.4-4.9,6.1c-1.1,2.7-1.7,5.5-1.7,8.5c0,3.3,0.6,6.2,1.9,8.7c1.3,2.5,3.1,4.3,5.4,5.6
								c2.3,1.3,4.9,1.9,7.7,1.9c3.2,0,5.9-0.8,8-2.4c2.2-1.6,3.7-3.9,4.5-6.8l-4.2-1c-0.7,2.3-1.8,4-3.2,5.1
								c-1.4,1.1-3.2,1.6-5.3,1.6c-2.4,0-4.5-0.6-6.1-1.8c-1.6-1.2-2.8-2.7-3.5-4.7c-0.7-2-1-4-1-6.1c0-2.7,0.4-5.1,1.2-7.1
								s2-3.5,3.7-4.5c1.7-1,3.5-1.5,5.4-1.5c2.4,0,4.4,0.7,6,2C618.6,2721.8,619.8,2723.8,620.3,2726.5z"/>
						</g>
						<g>
							<path id="ArialMT-97_2_" class="st1" d="M644.3,2718.2c-1.5-1.2-2.8-2.1-4.2-2.6c-1.3-0.5-2.8-0.8-4.3-0.8
								c-2.5,0-4.5,0.6-5.8,1.9c-1.4,1.2-2,2.8-2,4.7c0,1.1,0.3,2.2,0.8,3.1c0.5,0.9,1.2,1.7,2,2.3c0.8,0.6,1.8,1,2.8,1.3
								c0.8,0.2,1.9,0.4,3.5,0.6c3.2,0.4,5.5,0.8,7,1.3c0,0.5,0,0.9,0,1c0,1.6-0.4,2.7-1.1,3.4c-1,0.9-2.5,1.3-4.5,1.3
								c-1.8,0-3.2-0.3-4.1-1c-0.9-0.6-1.5-1.8-1.9-3.4l-3.8,0.5c0.3,1.6,0.9,3,1.7,4c0.8,1,1.9,1.8,3.5,2.3
								c1.5,0.5,3.3,0.8,5.2,0.8c2,0,3.6-0.2,4.8-0.7c1.2-0.5,2.1-1,2.7-1.8c0.6-0.7,1-1.6,1.2-2.7c0.1-0.7,0.2-1.9,0.2-3.6v-5.2
								c0-3.6,0.1-5.9,0.3-6.9c0.2-1,0.5-1.9,1-2.8h-4.1C644.7,2716.1,644.4,2717.1,644.3,2718.2z M644,2726.9
								c-1.4-0.6-3.6-1.1-6.4-1.5c-1.6-0.2-2.7-0.5-3.4-0.8c-0.7-0.3-1.2-0.7-1.5-1.3c-0.4-0.6-0.5-1.2-0.5-1.9c0-1,0.4-1.9,1.2-2.6
								c0.8-0.7,1.9-1,3.5-1c1.5,0,2.8,0.3,4,1c1.2,0.7,2,1.6,2.6,2.7c0.4,0.9,0.6,2.2,0.6,3.9V2726.9z"/>
						</g>
						<g>
							<path id="ArialMT-112_1_" class="st1" d="M654,2706.5v31.9h3.6v-3c0.8,1.2,1.8,2.1,2.9,2.6c1.1,0.6,2.3,0.9,3.8,0.9
								c2,0,3.7-0.5,5.2-1.5c1.5-1,2.6-2.4,3.4-4.3c0.8-1.8,1.2-3.9,1.2-6.1c0-2.4-0.4-4.5-1.3-6.4c-0.8-1.9-2.1-3.3-3.7-4.3
								c-1.6-1-3.3-1.5-5.1-1.5c-1.3,0-2.5,0.3-3.5,0.8c-1,0.6-1.9,1.2-2.6,2.1v-11.2H654z M657.5,2726.7c0-3,0.6-5.2,1.8-6.6
								c1.2-1.4,2.7-2.1,4.4-2.1c1.7,0,3.2,0.7,4.5,2.2c1.2,1.5,1.9,3.7,1.9,6.8c0,2.9-0.6,5.1-1.8,6.6c-1.2,1.5-2.7,2.2-4.3,2.2
								c-1.7,0-3.1-0.8-4.4-2.3C658.2,2731.9,657.5,2729.7,657.5,2726.7z"/>
						</g>
					</g>
				</g>
			</g>
			<g id="xtick_9">
				<g id="text_9">
					<g transform="translate(508.318662 682.609859)rotate(-45)scale(0.165 -0.165)">
						<g>
							<path id="ArialMT-77_1_" class="st1" d="M417.8,2832.3v31.9h6.3l7.5-22.6c0.7-2.1,1.2-3.7,1.5-4.7c0.4,1.2,0.9,2.9,1.7,5.1
								l7.6,22.2h5.7v-31.9h-4.1v26.7l-9.3-26.7h-3.8l-9.2,27.1v-27.1H417.8z"/>
						</g>
						<g>
							<path id="ArialMT-67_1_" class="st1" d="M477.7,2843.5l4.2-1.1c-0.9-3.5-2.5-6.1-4.8-7.9c-2.3-1.8-5.1-2.7-8.4-2.7
								c-3.4,0-6.2,0.7-8.4,2.1c-2.2,1.4-3.8,3.4-4.9,6.1c-1.1,2.7-1.7,5.5-1.7,8.5c0,3.3,0.6,6.2,1.9,8.7c1.3,2.5,3.1,4.3,5.4,5.6
								c2.3,1.3,4.9,1.9,7.7,1.9c3.2,0,5.9-0.8,8-2.4c2.2-1.6,3.7-3.9,4.5-6.8l-4.2-1c-0.7,2.3-1.8,4-3.2,5.1
								c-1.4,1.1-3.2,1.6-5.3,1.6c-2.4,0-4.5-0.6-6.1-1.8c-1.6-1.2-2.8-2.7-3.5-4.7c-0.7-2-1-4-1-6.1c0-2.7,0.4-5.1,1.2-7.1
								s2-3.5,3.7-4.5c1.7-1,3.5-1.5,5.4-1.5c2.4,0,4.4,0.7,6,2C476.1,2838.8,477.2,2840.8,477.7,2843.5z"/>
						</g>
						<g>
							<path id="ArialMT-70" class="st1" d="M487.4,2832.3v31.9h21.5v-3.8h-17.3v-9.9h15v-3.8h-15v-14.5H487.4z"/>
						</g>
						<g>
							<path id="ArialMT-55" class="st1" d="M513,2860v3.8h20.6v-3c-2-2.2-4-5-6-8.6c-2-3.6-3.5-7.3-4.6-11
								c-0.8-2.7-1.3-5.6-1.5-8.8h-4c0,2.5,0.5,5.5,1.5,9.1c0.9,3.6,2.3,7,4.1,10.3c1.8,3.3,3.6,6.1,5.6,8.3H513z"/>
						</g>
					</g>
				</g>
			</g>
			<g id="xtick_10">
				<g id="text_10">
					<g transform="translate(562.2836 676.134528)rotate(-45)scale(0.165 -0.165)">
						<g>
							<path id="ArialMT-82" class="st1" d="M274.3,2945.3v31.9h14.1c2.8,0,5-0.3,6.5-0.9c1.5-0.6,2.7-1.6,3.5-3
								c0.9-1.4,1.3-3,1.3-4.8c0-2.3-0.7-4.2-2.2-5.7c-1.5-1.5-3.7-2.5-6.8-3c1.1-0.5,2-1.1,2.5-1.6c1.2-1.1,2.4-2.5,3.5-4.2
								l5.5-8.7H297l-4.2,6.6c-1.2,1.9-2.2,3.4-3,4.4c-0.8,1-1.5,1.7-2.1,2.1c-0.6,0.4-1.3,0.7-1.9,0.9c-0.5,0.1-1.3,0.1-2.3,0.1
								h-4.9v-14.1H274.3z M278.5,2963.1h9.1c1.9,0,3.4,0.2,4.5,0.6c1.1,0.4,1.9,1,2.5,1.9c0.6,0.9,0.8,1.8,0.8,2.9
								c0,1.5-0.5,2.7-1.6,3.7c-1.1,1-2.8,1.5-5.2,1.5h-10.1V2963.1z"/>
						</g>
						<g>
							<path id="ArialMT-75_2_" class="st1" d="M306.2,2945.3v31.9h4.2v-15.8l15.8,15.8h5.7l-13.4-12.9l13.9-18.9h-5.6l-11.3,16.1
								l-5.2-5.1v-11H306.2z"/>
						</g>
						<g>
							<path id="ArialMT-79" class="st1" d="M334.7,2960.8c0,5.3,1.4,9.4,4.3,12.4c2.8,3,6.5,4.5,11,4.5c2.9,0,5.6-0.7,8-2.1
								c2.4-1.4,4.2-3.4,5.4-5.9c1.2-2.5,1.9-5.4,1.9-8.6c0-3.2-0.7-6.1-2-8.7c-1.3-2.5-3.2-4.5-5.5-5.8c-2.4-1.3-5-2-7.7-2
								c-3,0-5.7,0.7-8,2.2c-2.4,1.5-4.1,3.4-5.4,5.9C335.3,2955.3,334.7,2958,334.7,2960.8z M339.1,2960.7c0-3.8,1-6.9,3.1-9.1
								c2.1-2.2,4.7-3.3,7.8-3.3c3.2,0,5.8,1.1,7.8,3.3c2.1,2.2,3.1,5.4,3.1,9.5c0,2.6-0.4,4.9-1.3,6.8c-0.9,1.9-2.2,3.4-3.9,4.5
								c-1.7,1.1-3.6,1.6-5.7,1.6c-3,0-5.5-1-7.7-3.1C340.2,2968.9,339.1,2965.5,339.1,2960.7z"/>
						</g>
					</g>
				</g>
			</g>
			<g id="xtick_11">
				<g id="text_11">
					<g transform="translate(609.766827 682.62262)rotate(-45)scale(0.165 -0.165)">
						<g>
							<path id="ArialMT-85" class="st1" d="M197.6,3105.5h4.2v-18.4c0-3.2-0.4-5.7-1.1-7.6c-0.7-1.9-2-3.4-3.9-4.6
								c-1.9-1.2-4.4-1.8-7.4-1.8c-3,0-5.4,0.5-7.3,1.5c-1.9,1-3.2,2.5-4.1,4.5c-0.8,1.9-1.2,4.6-1.2,8v18.4h4.2v-18.4
								c0-2.8,0.3-4.8,0.8-6.1c0.5-1.3,1.4-2.3,2.6-3c1.3-0.7,2.8-1.1,4.6-1.1c3.1,0,5.3,0.7,6.6,2.1c1.3,1.4,2,4.1,2,8.1V3105.5z"
								/>
						</g>
						<g>
							<path id="ArialMT-50_3_" class="st1" d="M227.8,3077.4v-3.8h-21.1c0,0.9,0.1,1.8,0.5,2.7c0.5,1.4,1.4,2.8,2.6,4.2
								c1.2,1.4,2.9,3,5.1,4.8c3.5,2.8,5.8,5.1,7,6.7c1.2,1.7,1.8,3.2,1.8,4.7c0,1.5-0.6,2.9-1.7,3.9c-1.1,1.1-2.6,1.6-4.3,1.6
								c-1.9,0-3.4-0.6-4.5-1.7c-1.1-1.1-1.7-2.7-1.7-4.7l-4,0.4c0.3,3,1.3,5.3,3.1,6.9c1.8,1.6,4.2,2.4,7.2,2.4
								c3.1,0,5.5-0.8,7.3-2.5c1.8-1.7,2.7-3.8,2.7-6.3c0-1.3-0.3-2.5-0.8-3.8c-0.5-1.2-1.4-2.5-2.6-3.9c-1.2-1.4-3.2-3.2-6-5.6
								c-2.4-2-3.9-3.3-4.5-4c-0.7-0.7-1.2-1.4-1.6-2.1H227.8z"/>
						</g>
						<g>
							<path id="ArialMT-79_1_" class="st1" d="M232.3,3089.1c0,5.3,1.4,9.4,4.3,12.4c2.8,3,6.5,4.5,11,4.5c2.9,0,5.6-0.7,8-2.1
								c2.4-1.4,4.2-3.4,5.4-5.9c1.2-2.5,1.9-5.4,1.9-8.6c0-3.2-0.7-6.1-2-8.7c-1.3-2.5-3.2-4.5-5.5-5.8c-2.4-1.3-5-2-7.7-2
								c-3,0-5.7,0.7-8,2.2c-2.4,1.5-4.1,3.4-5.4,5.9C232.9,3083.7,232.3,3086.3,232.3,3089.1z M236.7,3089.1c0-3.8,1-6.9,3.1-9.1
								c2.1-2.2,4.7-3.3,7.8-3.3c3.2,0,5.8,1.1,7.8,3.3c2.1,2.2,3.1,5.4,3.1,9.5c0,2.6-0.4,4.9-1.3,6.8c-0.9,1.9-2.2,3.4-3.9,4.5
								c-1.7,1.1-3.6,1.6-5.7,1.6c-3,0-5.5-1-7.7-3.1C237.7,3097.3,236.7,3093.9,236.7,3089.1z"/>
						</g>
						<g>
							<path id="ArialMT-83" class="st1" d="M266.8,3083.9l4,0.3c0.2-1.6,0.6-2.9,1.3-3.9c0.7-1,1.8-1.8,3.2-2.5
								c1.5-0.6,3.1-0.9,4.9-0.9c1.6,0,3,0.2,4.3,0.7c1.2,0.5,2.1,1.1,2.7,2c0.6,0.8,0.9,1.7,0.9,2.7c0,1-0.3,1.9-0.9,2.6
								c-0.6,0.7-1.5,1.4-2.9,1.9c-0.9,0.3-2.7,0.9-5.7,1.6c-2.9,0.7-5,1.4-6.1,2c-1.5,0.8-2.7,1.8-3.4,3c-0.7,1.2-1.1,2.5-1.1,4
								c0,1.6,0.5,3.1,1.4,4.5c0.9,1.4,2.2,2.5,4,3.2c1.8,0.7,3.7,1.1,5.8,1.1c2.4,0,4.4-0.4,6.2-1.1c1.8-0.8,3.2-1.9,4.2-3.4
								c1-1.5,1.5-3.1,1.6-5l-4-0.3c-0.2,2-1,3.5-2.2,4.6c-1.3,1-3.1,1.5-5.5,1.5c-2.5,0-4.4-0.5-5.6-1.4c-1.2-0.9-1.7-2.1-1.7-3.4
								c0-1.1,0.4-2.1,1.2-2.8c0.8-0.7,2.9-1.5,6.4-2.3s5.8-1.5,7.1-2c1.9-0.9,3.2-1.9,4.1-3.3c0.9-1.3,1.3-2.8,1.3-4.5
								c0-1.7-0.5-3.3-1.5-4.8c-1-1.5-2.4-2.7-4.2-3.5c-1.8-0.8-3.9-1.2-6.1-1.2c-2.9,0-5.3,0.4-7.3,1.3c-1.9,0.8-3.5,2.1-4.6,3.8
								C267.4,3079.8,266.8,3081.7,266.8,3083.9z"/>
						</g>
					</g>
				</g>
			</g>
			<g id="text_12">
				<g transform="translate(324.254219 717.088126)scale(0.23 -0.23)">
					<g>
						<path id="ArialMT-67_2_" class="st1" d="M-756.2,1741.4l4.2-1.1c-0.9-3.5-2.5-6.1-4.8-7.9c-2.3-1.8-5.1-2.7-8.4-2.7
							c-3.4,0-6.2,0.7-8.4,2.1c-2.2,1.4-3.8,3.4-4.9,6.1c-1.1,2.7-1.7,5.5-1.7,8.5c0,3.3,0.6,6.2,1.9,8.7c1.3,2.5,3.1,4.3,5.4,5.6
							c2.3,1.3,4.9,1.9,7.7,1.9c3.2,0,5.9-0.8,8-2.4c2.2-1.6,3.7-3.9,4.5-6.8l-4.2-1c-0.7,2.3-1.8,4-3.2,5.1
							c-1.4,1.1-3.2,1.6-5.3,1.6c-2.4,0-4.5-0.6-6.1-1.8c-1.6-1.2-2.8-2.7-3.5-4.7c-0.7-2-1-4-1-6.1c0-2.7,0.4-5.1,1.2-7.1
							s2-3.5,3.7-4.5c1.7-1,3.5-1.5,5.4-1.5c2.4,0,4.4,0.7,6,2C-757.9,1736.7-756.8,1738.7-756.2,1741.4z"/>
					</g>
					<g>
						<path id="ArialMT-101_2_" class="st1" d="M-731.5,1737.7l4-0.5c-0.6-2.4-1.8-4.2-3.5-5.5c-1.7-1.3-3.9-2-6.6-2
							c-3.4,0-6.1,1-8,3.1c-2,2.1-3,5-3,8.7c0,3.9,1,6.9,3,9c2,2.1,4.6,3.2,7.8,3.2c3.1,0,5.6-1.1,7.6-3.2c2-2.1,2.9-5.1,2.9-8.9
							c0-0.2,0-0.6,0-1h-17.2c0.1-2.5,0.9-4.5,2.1-5.8c1.3-1.3,2.9-2,4.8-2c1.4,0,2.7,0.4,3.7,1.1
							C-732.9,1734.8-732.1,1736-731.5,1737.7z M-744.3,1744h12.9c-0.2,1.9-0.7,3.4-1.5,4.4c-1.2,1.5-2.9,2.3-4.8,2.3
							c-1.8,0-3.3-0.6-4.5-1.8C-743.5,1747.6-744.2,1746-744.3,1744z"/>
					</g>
					<g>
						<path id="ArialMT-108" class="st1" d="M-722.6,1730.2v31.9h3.9v-31.9H-722.6z"/>
					</g>
					<g>
						<path id="ArialMT-108_1_" class="st1" d="M-712.8,1730.2v31.9h3.9v-31.9H-712.8z"/>
					</g>
					<g>
						<path id="ArialMT-32" class="st1" d="M-705.7,1730.2"/>
					</g>
					<g>
						<path id="ArialMT-76_2_" class="st1" d="M-690.1,1730.2v31.9h4.2V1734h15.7v-3.8H-690.1z"/>
					</g>
					<g>
						<path id="ArialMT-105" class="st1" d="M-665.6,1757.6v4.5h3.9v-4.5H-665.6z M-665.6,1730.2v23.1h3.9v-23.1H-665.6z"/>
					</g>
					<g>
						<path id="ArialMT-110_1_" class="st1" d="M-655.8,1730.2v23.1h3.5v-3.3c1.7,2.5,4.1,3.8,7.3,3.8c1.4,0,2.7-0.3,3.8-0.8
							c1.2-0.5,2-1.2,2.6-2c0.6-0.8,1-1.8,1.2-2.9c0.1-0.7,0.2-2,0.2-3.8v-14.2h-3.9v14c0,1.6-0.2,2.8-0.5,3.6
							c-0.3,0.8-0.8,1.4-1.6,1.9c-0.8,0.5-1.7,0.7-2.7,0.7c-1.7,0-3.1-0.5-4.3-1.6s-1.8-3.1-1.8-6v-12.6H-655.8z"/>
					</g>
					<g>
						<path id="ArialMT-101_3_" class="st1" d="M-615.2,1737.7l4-0.5c-0.6-2.4-1.8-4.2-3.5-5.5c-1.7-1.3-3.9-2-6.6-2
							c-3.4,0-6.1,1-8,3.1c-2,2.1-3,5-3,8.7c0,3.9,1,6.9,3,9c2,2.1,4.6,3.2,7.8,3.2c3.1,0,5.6-1.1,7.6-3.2c2-2.1,2.9-5.1,2.9-8.9
							c0-0.2,0-0.6,0-1h-17.2c0.1-2.5,0.9-4.5,2.1-5.8c1.3-1.3,2.9-2,4.8-2c1.4,0,2.7,0.4,3.7,1.1
							C-616.6,1734.8-615.8,1736-615.2,1737.7z M-628.1,1744h12.9c-0.2,1.9-0.7,3.4-1.5,4.4c-1.2,1.5-2.9,2.3-4.8,2.3
							c-1.8,0-3.3-0.6-4.5-1.8C-627.3,1747.6-627.9,1746-628.1,1744z"/>
					</g>
				</g>
			</g>
		</g>
		<g id="matplotlib.axis_2">
			<g id="ytick_1">
				<g id="text_13">
					<g transform="translate(45.389453 635.905195)scale(0.165 -0.165)">
						<g>
							<path id="ArialMT-48" class="st1" d="M-150.8,2154.5c0,3.8,0.4,6.8,1.2,9.1c0.8,2.3,1.9,4.1,3.4,5.3c1.5,1.2,3.5,1.9,5.8,1.9
								c1.7,0,3.2-0.3,4.5-1c1.3-0.7,2.4-1.7,3.2-3c0.8-1.3,1.5-2.9,2-4.7c0.5-1.9,0.7-4.4,0.7-7.5c0-3.7-0.4-6.8-1.2-9
								c-0.8-2.3-1.9-4.1-3.4-5.3c-1.5-1.3-3.5-1.9-5.8-1.9c-3.1,0-5.5,1.1-7.2,3.3C-149.8,2144.2-150.8,2148.5-150.8,2154.5z
								 M-146.8,2154.5c0-5.2,0.6-8.7,1.8-10.4c1.2-1.7,2.7-2.6,4.5-2.6c1.8,0,3.3,0.9,4.5,2.6s1.8,5.2,1.8,10.4
								c0,5.2-0.6,8.7-1.8,10.5c-1.2,1.7-2.7,2.6-4.6,2.6c-1.8,0-3.2-0.8-4.3-2.3C-146.1,2163.3-146.8,2159.7-146.8,2154.5z"/>
						</g>
						<g>
							<path id="ArialMT-46" class="st1" d="M-123.9,2138.8v4.5h4.5v-4.5H-123.9z"/>
						</g>
						<g>
							<path id="ArialMT-48_1_" class="st1" d="M-113.7,2154.5c0,3.8,0.4,6.8,1.2,9.1c0.8,2.3,1.9,4.1,3.4,5.3
								c1.5,1.2,3.5,1.9,5.8,1.9c1.7,0,3.2-0.3,4.5-1c1.3-0.7,2.4-1.7,3.2-3c0.8-1.3,1.5-2.9,2-4.7c0.5-1.9,0.7-4.4,0.7-7.5
								c0-3.7-0.4-6.8-1.2-9c-0.8-2.3-1.9-4.1-3.4-5.3c-1.5-1.3-3.5-1.9-5.8-1.9c-3.1,0-5.5,1.1-7.2,3.3
								C-112.6,2144.2-113.7,2148.5-113.7,2154.5z M-109.7,2154.5c0-5.2,0.6-8.7,1.8-10.4c1.2-1.7,2.7-2.6,4.5-2.6
								c1.8,0,3.3,0.9,4.5,2.6c1.2,1.7,1.8,5.2,1.8,10.4c0,5.2-0.6,8.7-1.8,10.5c-1.2,1.7-2.7,2.6-4.6,2.6c-1.8,0-3.2-0.8-4.3-2.3
								C-109,2163.3-109.7,2159.7-109.7,2154.5z"/>
						</g>
						<g>
							<path id="ArialMT-48_2_" class="st1" d="M-88.9,2154.5c0,3.8,0.4,6.8,1.2,9.1c0.8,2.3,1.9,4.1,3.4,5.3
								c1.5,1.2,3.5,1.9,5.8,1.9c1.7,0,3.2-0.3,4.5-1c1.3-0.7,2.4-1.7,3.2-3c0.8-1.3,1.5-2.9,2-4.7c0.5-1.9,0.7-4.4,0.7-7.5
								c0-3.7-0.4-6.8-1.2-9c-0.8-2.3-1.9-4.1-3.4-5.3c-1.5-1.3-3.5-1.9-5.8-1.9c-3.1,0-5.5,1.1-7.2,3.3
								C-87.9,2144.2-88.9,2148.5-88.9,2154.5z M-84.9,2154.5c0-5.2,0.6-8.7,1.8-10.4c1.2-1.7,2.7-2.6,4.5-2.6
								c1.8,0,3.3,0.9,4.5,2.6c1.2,1.7,1.8,5.2,1.8,10.4c0,5.2-0.6,8.7-1.8,10.5c-1.2,1.7-2.7,2.6-4.6,2.6c-1.8,0-3.2-0.8-4.3-2.3
								C-84.3,2163.3-84.9,2159.7-84.9,2154.5z"/>
						</g>
					</g>
				</g>
			</g>
			<g id="ytick_2">
				<g id="text_14">
					<g transform="translate(45.389453 519.865626)scale(0.165 -0.165)">
						<g>
							<path id="ArialMT-48_3_" class="st1" d="M-150.8,1764.2c0,3.8,0.4,6.8,1.2,9.1c0.8,2.3,1.9,4.1,3.4,5.3
								c1.5,1.2,3.5,1.9,5.8,1.9c1.7,0,3.2-0.3,4.5-1c1.3-0.7,2.4-1.7,3.2-3c0.8-1.3,1.5-2.9,2-4.7c0.5-1.9,0.7-4.4,0.7-7.5
								c0-3.7-0.4-6.8-1.2-9c-0.8-2.3-1.9-4.1-3.4-5.3c-1.5-1.3-3.5-1.9-5.8-1.9c-3.1,0-5.5,1.1-7.2,3.3
								C-149.8,1753.9-150.8,1758.2-150.8,1764.2z M-146.8,1764.2c0-5.2,0.6-8.7,1.8-10.4c1.2-1.7,2.7-2.6,4.5-2.6
								c1.8,0,3.3,0.9,4.5,2.6c1.2,1.7,1.8,5.2,1.8,10.4c0,5.2-0.6,8.7-1.8,10.5c-1.2,1.7-2.7,2.6-4.6,2.6c-1.8,0-3.2-0.8-4.3-2.3
								C-146.1,1773-146.8,1769.4-146.8,1764.2z"/>
						</g>
						<g>
							<path id="ArialMT-46_1_" class="st1" d="M-123.9,1748.5v4.5h4.5v-4.5H-123.9z"/>
						</g>
						<g>
							<path id="ArialMT-48_4_" class="st1" d="M-113.7,1764.2c0,3.8,0.4,6.8,1.2,9.1c0.8,2.3,1.9,4.1,3.4,5.3
								c1.5,1.2,3.5,1.9,5.8,1.9c1.7,0,3.2-0.3,4.5-1c1.3-0.7,2.4-1.7,3.2-3c0.8-1.3,1.5-2.9,2-4.7c0.5-1.9,0.7-4.4,0.7-7.5
								c0-3.7-0.4-6.8-1.2-9c-0.8-2.3-1.9-4.1-3.4-5.3c-1.5-1.3-3.5-1.9-5.8-1.9c-3.1,0-5.5,1.1-7.2,3.3
								C-112.6,1753.9-113.7,1758.2-113.7,1764.2z M-109.7,1764.2c0-5.2,0.6-8.7,1.8-10.4c1.2-1.7,2.7-2.6,4.5-2.6
								c1.8,0,3.3,0.9,4.5,2.6c1.2,1.7,1.8,5.2,1.8,10.4c0,5.2-0.6,8.7-1.8,10.5c-1.2,1.7-2.7,2.6-4.6,2.6c-1.8,0-3.2-0.8-4.3-2.3
								C-109,1773-109.7,1769.4-109.7,1764.2z"/>
						</g>
						<g>
							<path id="ArialMT-50_4_" class="st1" d="M-68.4,1752.3v-3.8h-21.1c0,0.9,0.1,1.8,0.5,2.7c0.5,1.4,1.4,2.8,2.6,4.2
								c1.2,1.4,2.9,3,5.1,4.8c3.5,2.8,5.8,5.1,7,6.7c1.2,1.7,1.8,3.2,1.8,4.7c0,1.5-0.6,2.9-1.7,3.9c-1.1,1.1-2.6,1.6-4.3,1.6
								c-1.9,0-3.4-0.6-4.5-1.7c-1.1-1.1-1.7-2.7-1.7-4.7l-4,0.4c0.3,3,1.3,5.3,3.1,6.9c1.8,1.6,4.2,2.4,7.2,2.4
								c3.1,0,5.5-0.8,7.3-2.5c1.8-1.7,2.7-3.8,2.7-6.3c0-1.3-0.3-2.5-0.8-3.8c-0.5-1.2-1.4-2.5-2.6-3.9c-1.2-1.4-3.2-3.2-6-5.6
								c-2.4-2-3.9-3.3-4.5-4c-0.7-0.7-1.2-1.4-1.6-2.1H-68.4z"/>
						</g>
					</g>
				</g>
			</g>
			<g id="ytick_3">
				<g id="text_15">
					<g transform="translate(45.389453 403.826057)scale(0.165 -0.165)">
						<g>
							<path id="ArialMT-48_5_" class="st1" d="M-150.8,1373.9c0,3.8,0.4,6.8,1.2,9.1c0.8,2.3,1.9,4.1,3.4,5.3
								c1.5,1.2,3.5,1.9,5.8,1.9c1.7,0,3.2-0.3,4.5-1c1.3-0.7,2.4-1.7,3.2-3c0.8-1.3,1.5-2.9,2-4.7c0.5-1.9,0.7-4.4,0.7-7.5
								c0-3.7-0.4-6.8-1.2-9c-0.8-2.3-1.9-4.1-3.4-5.3c-1.5-1.3-3.5-1.9-5.8-1.9c-3.1,0-5.5,1.1-7.2,3.3
								C-149.8,1363.6-150.8,1367.9-150.8,1373.9z M-146.8,1373.9c0-5.2,0.6-8.7,1.8-10.4c1.2-1.7,2.7-2.6,4.5-2.6
								c1.8,0,3.3,0.9,4.5,2.6c1.2,1.7,1.8,5.2,1.8,10.4c0,5.2-0.6,8.7-1.8,10.5c-1.2,1.7-2.7,2.6-4.6,2.6c-1.8,0-3.2-0.8-4.3-2.3
								C-146.1,1382.7-146.8,1379.2-146.8,1373.9z"/>
						</g>
						<g>
							<path id="ArialMT-46_2_" class="st1" d="M-123.9,1358.2v4.5h4.5v-4.5H-123.9z"/>
						</g>
						<g>
							<path id="ArialMT-48_6_" class="st1" d="M-113.7,1373.9c0,3.8,0.4,6.8,1.2,9.1c0.8,2.3,1.9,4.1,3.4,5.3
								c1.5,1.2,3.5,1.9,5.8,1.9c1.7,0,3.2-0.3,4.5-1c1.3-0.7,2.4-1.7,3.2-3c0.8-1.3,1.5-2.9,2-4.7c0.5-1.9,0.7-4.4,0.7-7.5
								c0-3.7-0.4-6.8-1.2-9c-0.8-2.3-1.9-4.1-3.4-5.3c-1.5-1.3-3.5-1.9-5.8-1.9c-3.1,0-5.5,1.1-7.2,3.3
								C-112.6,1363.6-113.7,1367.9-113.7,1373.9z M-109.7,1373.9c0-5.2,0.6-8.7,1.8-10.4c1.2-1.7,2.7-2.6,4.5-2.6
								c1.8,0,3.3,0.9,4.5,2.6c1.2,1.7,1.8,5.2,1.8,10.4c0,5.2-0.6,8.7-1.8,10.5c-1.2,1.7-2.7,2.6-4.6,2.6c-1.8,0-3.2-0.8-4.3-2.3
								C-109,1382.7-109.7,1379.2-109.7,1373.9z"/>
						</g>
						<g>
							<path id="ArialMT-52_1_" class="st1" d="M-76.4,1358.2v7.6h-13.8v3.6l14.5,20.6h3.2v-20.6h4.3v-3.6h-4.3v-7.6H-76.4z
								 M-76.4,1369.4v14.4l-10-14.4H-76.4z"/>
						</g>
					</g>
				</g>
			</g>
			<g id="ytick_4">
				<g id="text_16">
					<g transform="translate(45.389453 287.786487)scale(0.165 -0.165)">
						<g>
							<path id="ArialMT-48_7_" class="st1" d="M-150.8,983.6c0,3.8,0.4,6.8,1.2,9.1c0.8,2.3,1.9,4.1,3.4,5.3
								c1.5,1.2,3.5,1.9,5.8,1.9c1.7,0,3.2-0.3,4.5-1c1.3-0.7,2.4-1.7,3.2-3c0.8-1.3,1.5-2.9,2-4.7c0.5-1.9,0.7-4.4,0.7-7.5
								c0-3.7-0.4-6.8-1.2-9c-0.8-2.3-1.9-4.1-3.4-5.3c-1.5-1.3-3.5-1.9-5.8-1.9c-3.1,0-5.5,1.1-7.2,3.3
								C-149.8,973.3-150.8,977.7-150.8,983.6z M-146.8,983.6c0-5.2,0.6-8.7,1.8-10.4c1.2-1.7,2.7-2.6,4.5-2.6
								c1.8,0,3.3,0.9,4.5,2.6s1.8,5.2,1.8,10.4c0,5.2-0.6,8.7-1.8,10.5c-1.2,1.7-2.7,2.6-4.6,2.6c-1.8,0-3.2-0.8-4.3-2.3
								C-146.1,992.5-146.8,988.9-146.8,983.6z"/>
						</g>
						<g>
							<path id="ArialMT-46_3_" class="st1" d="M-123.9,967.9v4.5h4.5v-4.5H-123.9z"/>
						</g>
						<g>
							<path id="ArialMT-48_8_" class="st1" d="M-113.7,983.6c0,3.8,0.4,6.8,1.2,9.1c0.8,2.3,1.9,4.1,3.4,5.3
								c1.5,1.2,3.5,1.9,5.8,1.9c1.7,0,3.2-0.3,4.5-1c1.3-0.7,2.4-1.7,3.2-3c0.8-1.3,1.5-2.9,2-4.7c0.5-1.9,0.7-4.4,0.7-7.5
								c0-3.7-0.4-6.8-1.2-9c-0.8-2.3-1.9-4.1-3.4-5.3c-1.5-1.3-3.5-1.9-5.8-1.9c-3.1,0-5.5,1.1-7.2,3.3
								C-112.6,973.3-113.7,977.7-113.7,983.6z M-109.7,983.6c0-5.2,0.6-8.7,1.8-10.4c1.2-1.7,2.7-2.6,4.5-2.6
								c1.8,0,3.3,0.9,4.5,2.6c1.2,1.7,1.8,5.2,1.8,10.4c0,5.2-0.6,8.7-1.8,10.5c-1.2,1.7-2.7,2.6-4.6,2.6c-1.8,0-3.2-0.8-4.3-2.3
								C-109,992.5-109.7,988.9-109.7,983.6z"/>
						</g>
						<g>
							<path id="ArialMT-54_1_" class="st1" d="M-68.7,992l-3.9-0.3c-0.3,1.5-0.8,2.6-1.5,3.3c-1.1,1.1-2.4,1.7-3.9,1.7
								c-1.2,0-2.3-0.3-3.3-1c-1.2-0.9-2.2-2.2-2.9-3.9c-0.7-1.7-1.1-4.2-1.1-7.4c0.9,1.4,2.1,2.5,3.5,3.2c1.4,0.7,2.8,1,4.3,1
								c2.6,0,4.8-1,6.7-2.9c1.8-1.9,2.8-4.4,2.8-7.4c0-2-0.4-3.9-1.3-5.6s-2-3-3.6-3.9c-1.5-0.9-3.2-1.4-5.1-1.4
								c-3.3,0-5.9,1.2-8,3.6c-2.1,2.4-3.1,6.3-3.1,11.9c0,6.2,1.1,10.6,3.4,13.4c2,2.4,4.7,3.7,8,3.7c2.5,0,4.6-0.7,6.2-2.1
								C-69.9,996.4-69,994.5-68.7,992z M-84.6,978.3c0-1.3,0.3-2.6,0.9-3.9c0.6-1.2,1.4-2.2,2.4-2.8c1-0.6,2.1-1,3.2-1
								c1.7,0,3.1,0.7,4.3,2c1.2,1.3,1.8,3.1,1.8,5.4c0,2.2-0.6,3.9-1.8,5.2c-1.2,1.3-2.6,1.9-4.4,1.9c-1.8,0-3.3-0.6-4.5-1.9
								C-84,982-84.6,980.3-84.6,978.3z"/>
						</g>
					</g>
				</g>
			</g>
			<g id="ytick_5">
				<g id="text_17">
					<g transform="translate(45.389453 171.746918)scale(0.165 -0.165)">
						<g>
							<path id="ArialMT-48_9_" class="st1" d="M-150.8,593.4c0,3.8,0.4,6.8,1.2,9.1c0.8,2.3,1.9,4.1,3.4,5.3
								c1.5,1.2,3.5,1.9,5.8,1.9c1.7,0,3.2-0.3,4.5-1c1.3-0.7,2.4-1.7,3.2-3c0.8-1.3,1.5-2.9,2-4.7c0.5-1.9,0.7-4.4,0.7-7.5
								c0-3.7-0.4-6.8-1.2-9c-0.8-2.3-1.9-4.1-3.4-5.3c-1.5-1.3-3.5-1.9-5.8-1.9c-3.1,0-5.5,1.1-7.2,3.3
								C-149.8,583.1-150.8,587.4-150.8,593.4z M-146.8,593.4c0-5.2,0.6-8.7,1.8-10.4c1.2-1.7,2.7-2.6,4.5-2.6
								c1.8,0,3.3,0.9,4.5,2.6c1.2,1.7,1.8,5.2,1.8,10.4c0,5.2-0.6,8.7-1.8,10.5c-1.2,1.7-2.7,2.6-4.6,2.6c-1.8,0-3.2-0.8-4.3-2.3
								C-146.1,602.2-146.8,598.6-146.8,593.4z"/>
						</g>
						<g>
							<path id="ArialMT-46_4_" class="st1" d="M-123.9,577.6v4.5h4.5v-4.5H-123.9z"/>
						</g>
						<g>
							<path id="ArialMT-48_10_" class="st1" d="M-113.7,593.4c0,3.8,0.4,6.8,1.2,9.1c0.8,2.3,1.9,4.1,3.4,5.3
								c1.5,1.2,3.5,1.9,5.8,1.9c1.7,0,3.2-0.3,4.5-1c1.3-0.7,2.4-1.7,3.2-3c0.8-1.3,1.5-2.9,2-4.7c0.5-1.9,0.7-4.4,0.7-7.5
								c0-3.7-0.4-6.8-1.2-9c-0.8-2.3-1.9-4.1-3.4-5.3c-1.5-1.3-3.5-1.9-5.8-1.9c-3.1,0-5.5,1.1-7.2,3.3
								C-112.6,583.1-113.7,587.4-113.7,593.4z M-109.7,593.4c0-5.2,0.6-8.7,1.8-10.4c1.2-1.7,2.7-2.6,4.5-2.6
								c1.8,0,3.3,0.9,4.5,2.6c1.2,1.7,1.8,5.2,1.8,10.4c0,5.2-0.6,8.7-1.8,10.5c-1.2,1.7-2.7,2.6-4.6,2.6c-1.8,0-3.2-0.8-4.3-2.3
								C-109,602.2-109.7,598.6-109.7,593.4z"/>
						</g>
						<g>
							<path id="ArialMT-56" class="st1" d="M-82.9,594.9c-1.6,0.6-2.8,1.4-3.6,2.5c-0.8,1.1-1.2,2.4-1.2,4c0,2.3,0.8,4.3,2.5,5.8
								c1.7,1.6,3.9,2.4,6.6,2.4c2.8,0,5-0.8,6.7-2.4c1.7-1.6,2.5-3.6,2.5-5.9c0-1.5-0.4-2.8-1.2-3.9c-0.8-1.1-1.9-1.9-3.5-2.5
								c2-0.6,3.4-1.7,4.5-3.1c1-1.4,1.5-3.1,1.5-5.1c0-2.7-1-5-2.9-6.9c-1.9-1.9-4.5-2.8-7.6-2.8s-5.7,0.9-7.6,2.8
								c-1.9,1.9-2.9,4.2-2.9,7c0,2.1,0.5,3.8,1.6,5.2C-86.4,593.5-84.9,594.4-82.9,594.9z M-83.7,601.6c0-1.5,0.5-2.7,1.5-3.7
								c1-1,2.2-1.4,3.8-1.4c1.5,0,2.7,0.5,3.7,1.4c1,1,1.4,2.1,1.4,3.5c0,1.4-0.5,2.6-1.5,3.6c-1,1-2.2,1.5-3.7,1.5
								c-1.5,0-2.7-0.5-3.7-1.4C-83.2,604-83.7,602.9-83.7,601.6z M-85,586.8c0-1.1,0.3-2.2,0.8-3.2c0.5-1,1.3-1.9,2.4-2.4
								c1-0.6,2.2-0.9,3.4-0.9c1.9,0,3.4,0.6,4.6,1.8c1.2,1.2,1.8,2.7,1.8,4.6c0,1.9-0.6,3.4-1.9,4.7s-2.8,1.8-4.7,1.8
								c-1.8,0-3.4-0.6-4.6-1.8C-84.4,590.2-85,588.7-85,586.8z"/>
						</g>
					</g>
				</g>
			</g>
			<g id="text_18">
				<g transform="translate(26.899453 535.53)rotate(-90)scale(0.23 -0.23)">
					<g transform="translate(0 0.45625)">
						<path id="ArialMT-65_2_" class="st1" d="M1292.1,65.1l12.2,31.9h4.5l13-31.9h-4.8l-3.7,9.7h-13.3l-3.5-9.7H1292.1z
							 M1301.3,78.2h10.8l-3.3,8.8c-1,2.7-1.8,4.9-2.3,6.6c-0.4-2-1-4.1-1.7-6.1L1301.3,78.2z"/>
					</g>
					<g transform="translate(66.699219 0.45625)">
						<path id="ArialMT-84" class="st1" d="M1333.4,65.1v28.1h-10.5V97h25.2v-3.8h-10.5V65.1H1333.4z"/>
					</g>
					<g transform="translate(127.783203 0.45625)">
						<path id="ArialMT-80" class="st1" d="M1352.5,65.1V97h12c2.1,0,3.7-0.1,4.8-0.3c1.6-0.3,2.9-0.8,3.9-1.5
							c1.1-0.7,1.9-1.8,2.6-3.1c0.6-1.3,1-2.8,1-4.3c0-2.7-0.9-5-2.6-6.9c-1.7-1.9-4.8-2.8-9.3-2.8h-8.2v-13H1352.5z M1356.7,81.8
							h8.2c2.7,0,4.7,0.5,5.8,1.5c1.1,1,1.7,2.4,1.7,4.3c0,1.3-0.3,2.5-1,3.4c-0.7,1-1.6,1.6-2.7,1.9c-0.7,0.2-2,0.3-3.9,0.3h-8.1
							V81.8z"/>
					</g>
					<g transform="translate(194.482422 0.45625)">
						<path id="ArialMT-32_1_" class="st1" d="M1378.7,65.1"/>
					</g>
					<g transform="translate(222.265625 0.45625)">
						<path id="ArialMT-80_1_" class="st1" d="M1394.5,65.1V97h12c2.1,0,3.7-0.1,4.8-0.3c1.6-0.3,2.9-0.8,3.9-1.5
							c1.1-0.7,1.9-1.8,2.6-3.1c0.6-1.3,1-2.8,1-4.3c0-2.7-0.9-5-2.6-6.9c-1.7-1.9-4.8-2.8-9.3-2.8h-8.2v-13H1394.5z M1398.7,81.8
							h8.2c2.7,0,4.7,0.5,5.8,1.5c1.1,1,1.7,2.4,1.7,4.3c0,1.3-0.3,2.5-1,3.4c-0.7,1-1.6,1.6-2.7,1.9c-0.7,0.2-2,0.3-3.9,0.3h-8.1
							V81.8z"/>
					</g>
					<g transform="translate(288.964844 0.45625)">
						<path id="ArialMT-114_1_" class="st1" d="M1423.6,65.1v23.1h3.5v-3.5c0.9,1.6,1.7,2.7,2.5,3.2c0.8,0.5,1.6,0.8,2.5,0.8
							c1.3,0,2.7-0.4,4-1.3l-1.3-3.6c-1,0.6-1.9,0.8-2.9,0.8c-0.9,0-1.6-0.3-2.3-0.8c-0.7-0.5-1.2-1.2-1.5-2.1
							c-0.4-1.4-0.7-2.9-0.7-4.6V65.1H1423.6z"/>
					</g>
					<g transform="translate(322.265625 0.45625)">
						<path id="ArialMT-111" class="st1" d="M1437.1,76.6c0,4.3,1.2,7.4,3.6,9.5c2,1.7,4.4,2.6,7.3,2.6c3.2,0,5.8-1,7.8-3.1
							c2-2.1,3-4.9,3-8.6c0-3-0.4-5.3-1.3-7c-0.9-1.7-2.2-3-3.9-4c-1.7-0.9-3.6-1.4-5.6-1.4c-3.2,0-5.8,1-7.8,3.1
							C1438.1,69.8,1437.1,72.7,1437.1,76.6z M1441.1,76.6c0-3,0.6-5.2,1.9-6.6c1.3-1.5,2.9-2.2,4.9-2.2c1.9,0,3.6,0.7,4.8,2.2
							c1.3,1.5,1.9,3.7,1.9,6.8c0,2.9-0.6,5-1.9,6.5c-1.3,1.5-2.9,2.2-4.8,2.2c-2,0-3.6-0.7-4.9-2.2
							C1441.7,81.8,1441.1,79.6,1441.1,76.6z"/>
					</g>
					<g transform="translate(377.880859 0.45625)">
						<path id="ArialMT-100" class="st1" d="M1478.2,65.1V68c-1.5-2.3-3.6-3.4-6.5-3.4c-1.8,0-3.5,0.5-5.1,1.5
							c-1.5,1-2.7,2.4-3.6,4.2c-0.8,1.8-1.3,3.9-1.3,6.3c0,2.3,0.4,4.4,1.1,6.3c0.8,1.9,1.9,3.3,3.5,4.3c1.5,1,3.3,1.5,5.2,1.5
							c1.4,0,2.6-0.3,3.7-0.9c1.1-0.6,2-1.3,2.7-2.3V97h3.9V65.1H1478.2z M1465.9,76.6c0-3,0.6-5.2,1.9-6.6c1.2-1.5,2.7-2.2,4.4-2.2
							c1.7,0,3.2,0.7,4.4,2.1c1.2,1.4,1.8,3.5,1.8,6.4c0,3.2-0.6,5.5-1.8,7c-1.2,1.5-2.7,2.2-4.5,2.2c-1.7,0-3.2-0.7-4.4-2.1
							C1466.5,81.9,1465.9,79.7,1465.9,76.6z"/>
					</g>
					<g transform="translate(433.496094 0.45625)">
						<path id="ArialMT-117_1_" class="st1" d="M1503.1,65.1v3.4c-1.8-2.6-4.2-3.9-7.3-3.9c-1.4,0-2.6,0.3-3.8,0.8
							c-1.2,0.5-2.1,1.2-2.6,2c-0.6,0.8-1,1.8-1.2,2.9c-0.2,0.8-0.2,2-0.2,3.7v14.3h3.9V75.4c0-2,0.1-3.4,0.2-4.1
							c0.2-1,0.8-1.8,1.6-2.4c0.8-0.6,1.8-0.9,3-0.9c1.2,0,2.3,0.3,3.3,0.9c1,0.6,1.8,1.4,2.2,2.5c0.4,1,0.6,2.5,0.6,4.5v12.4h3.9
							V65.1H1503.1z"/>
					</g>
					<g transform="translate(489.111328 0.45625)">
						<path id="ArialMT-99" class="st1" d="M1527.8,73.6l3.8-0.5c-0.4-2.7-1.5-4.7-3.2-6.2c-1.7-1.5-3.9-2.2-6.4-2.2
							c-3.2,0-5.7,1-7.6,3.1c-1.9,2.1-2.9,5-2.9,8.9c0,2.5,0.4,4.7,1.2,6.5c0.8,1.9,2.1,3.3,3.8,4.2c1.7,0.9,3.5,1.4,5.5,1.4
							c2.5,0,4.6-0.6,6.1-1.9c1.6-1.3,2.6-3.1,3.1-5.4l-3.8-0.6c-0.4,1.6-1,2.7-1.9,3.5c-0.9,0.8-2,1.2-3.3,1.2
							c-2,0-3.6-0.7-4.8-2.1c-1.2-1.4-1.8-3.6-1.8-6.7c0-3.1,0.6-5.4,1.8-6.8c1.2-1.4,2.7-2.1,4.7-2.1c1.5,0,2.8,0.5,3.8,1.4
							C1526.9,70.2,1527.5,71.6,1527.8,73.6z"/>
					</g>
					<g transform="translate(539.111328 0.45625)">
						<path id="ArialMT-116_1_" class="st1" d="M1543.6,68.6l0.6-3.5c-1.1-0.2-2.1-0.3-3-0.3c-1.4,0-2.5,0.2-3.3,0.7
							c-0.8,0.4-1.3,1-1.6,1.8c-0.3,0.7-0.5,2.3-0.5,4.6v13.3h-2.9v3h2.9v5.7l3.9,2.3v-8.1h3.9v-3h-3.9V71.7c0-1.1,0.1-1.8,0.2-2.2
							c0.1-0.3,0.4-0.6,0.7-0.8c0.3-0.2,0.8-0.3,1.3-0.3C1542.3,68.5,1542.8,68.5,1543.6,68.6z"/>
					</g>
					<g transform="translate(566.894531 0.45625)">
						<path id="ArialMT-105_1_" class="st1" d="M1547.4,92.5V97h3.9v-4.5H1547.4z M1547.4,65.1v23.1h3.9V65.1H1547.4z"/>
					</g>
					<g transform="translate(589.111328 0.45625)">
						<path id="ArialMT-111_1_" class="st1" d="M1555.8,76.6c0,4.3,1.2,7.4,3.6,9.5c2,1.7,4.4,2.6,7.3,2.6c3.2,0,5.8-1,7.8-3.1
							c2-2.1,3-4.9,3-8.6c0-3-0.4-5.3-1.3-7c-0.9-1.7-2.2-3-3.9-4c-1.7-0.9-3.6-1.4-5.6-1.4c-3.2,0-5.8,1-7.8,3.1
							C1556.8,69.8,1555.8,72.7,1555.8,76.6z M1559.8,76.6c0-3,0.6-5.2,1.9-6.6c1.3-1.5,2.9-2.2,4.9-2.2c1.9,0,3.6,0.7,4.8,2.2
							c1.3,1.5,1.9,3.7,1.9,6.8c0,2.9-0.6,5-1.9,6.5c-1.3,1.5-2.9,2.2-4.8,2.2c-2,0-3.6-0.7-4.9-2.2
							C1560.5,81.8,1559.8,79.6,1559.8,76.6z"/>
					</g>
					<g transform="translate(644.726562 0.45625)">
						<path id="ArialMT-110_2_" class="st1" d="M1582,65.1v23.1h3.5v-3.3c1.7,2.5,4.1,3.8,7.3,3.8c1.4,0,2.7-0.3,3.8-0.8
							c1.2-0.5,2-1.2,2.6-2s1-1.8,1.2-2.9c0.1-0.7,0.2-2,0.2-3.8V65.1h-3.9v14c0,1.6-0.2,2.8-0.5,3.6c-0.3,0.8-0.8,1.4-1.6,1.9
							c-0.8,0.5-1.7,0.7-2.7,0.7c-1.7,0-3.1-0.5-4.3-1.6c-1.2-1.1-1.8-3.1-1.8-6V65.1H1582z"/>
					</g>
					<g transform="translate(700.341797 0.45625)">
						<path id="ArialMT-32_2_" class="st1" d="M1603.8,65.1"/>
					</g>
					<g transform="translate(728.125 0.45625)">
						<path id="ArialMT-82_1_" class="st1" d="M1619.7,65.1V97h14.1c2.8,0,5-0.3,6.5-0.9c1.5-0.6,2.7-1.6,3.5-3
							c0.9-1.4,1.3-3,1.3-4.8c0-2.3-0.7-4.2-2.2-5.7c-1.5-1.5-3.7-2.5-6.8-3c1.1-0.5,2-1.1,2.5-1.6c1.2-1.1,2.4-2.5,3.5-4.2l5.5-8.7
							h-5.3l-4.2,6.6c-1.2,1.9-2.2,3.4-3,4.4c-0.8,1-1.5,1.7-2.1,2.1c-0.6,0.4-1.3,0.7-1.9,0.9c-0.5,0.1-1.3,0.1-2.3,0.1h-4.9V65.1
							H1619.7z M1623.9,82.9h9.1c1.9,0,3.4,0.2,4.5,0.6c1.1,0.4,1.9,1,2.5,1.9s0.8,1.8,0.8,2.9c0,1.5-0.5,2.7-1.6,3.7
							c-1.1,1-2.8,1.5-5.2,1.5h-10.1V82.9z"/>
					</g>
					<g transform="translate(800.341797 0.45625)">
						<path id="ArialMT-97_3_" class="st1" d="M1666.3,68c-1.5-1.2-2.8-2.1-4.2-2.6c-1.3-0.5-2.8-0.8-4.3-0.8
							c-2.5,0-4.5,0.6-5.8,1.9c-1.4,1.2-2,2.8-2,4.7c0,1.1,0.3,2.2,0.8,3.1c0.5,0.9,1.2,1.7,2,2.3c0.8,0.6,1.8,1,2.8,1.3
							c0.8,0.2,1.9,0.4,3.5,0.6c3.2,0.4,5.5,0.8,7,1.3c0,0.5,0,0.9,0,1c0,1.6-0.4,2.7-1.1,3.4c-1,0.9-2.5,1.3-4.5,1.3
							c-1.8,0-3.2-0.3-4.1-1c-0.9-0.6-1.5-1.8-1.9-3.4l-3.8,0.5c0.3,1.6,0.9,3,1.7,4c0.8,1,1.9,1.8,3.5,2.3c1.5,0.5,3.3,0.8,5.2,0.8
							c2,0,3.6-0.2,4.8-0.7c1.2-0.5,2.1-1,2.7-1.8c0.6-0.7,1-1.6,1.2-2.7c0.1-0.7,0.2-1.9,0.2-3.6v-5.2c0-3.6,0.1-5.9,0.3-6.9
							c0.2-1,0.5-1.9,1-2.8h-4.1C1666.7,65.9,1666.5,66.9,1666.3,68z M1666,76.7c-1.4-0.6-3.6-1.1-6.4-1.5c-1.6-0.2-2.7-0.5-3.4-0.8
							c-0.7-0.3-1.2-0.7-1.5-1.3c-0.4-0.6-0.5-1.2-0.5-1.9c0-1,0.4-1.9,1.2-2.6c0.8-0.7,1.9-1,3.5-1c1.5,0,2.8,0.3,4,1
							c1.2,0.7,2,1.6,2.6,2.7c0.4,0.9,0.6,2.2,0.6,3.9V76.7z"/>
					</g>
					<g transform="translate(855.957031 0.45625)">
						<path id="ArialMT-116_2_" class="st1" d="M1684.6,68.6l0.6-3.5c-1.1-0.2-2.1-0.3-3-0.3c-1.4,0-2.5,0.2-3.3,0.7
							c-0.8,0.4-1.3,1-1.6,1.8c-0.3,0.7-0.5,2.3-0.5,4.6v13.3h-2.9v3h2.9v5.7l3.9,2.3v-8.1h3.9v-3h-3.9V71.7c0-1.1,0.1-1.8,0.2-2.2
							c0.1-0.3,0.4-0.6,0.7-0.8c0.3-0.2,0.8-0.3,1.3-0.3C1683.3,68.5,1683.9,68.5,1684.6,68.6z"/>
					</g>
					<g transform="translate(883.740234 0.45625)">
						<path id="ArialMT-101_4_" class="st1" d="M1704.2,72.5l4-0.5c-0.6-2.4-1.8-4.2-3.5-5.5c-1.7-1.3-3.9-2-6.6-2
							c-3.4,0-6.1,1-8,3.1c-2,2.1-3,5-3,8.7c0,3.9,1,6.9,3,9c2,2.1,4.6,3.2,7.8,3.2c3.1,0,5.6-1.1,7.6-3.2c2-2.1,2.9-5.1,2.9-8.9
							c0-0.2,0-0.6,0-1h-17.2c0.1-2.5,0.9-4.5,2.1-5.8c1.3-1.3,2.9-2,4.8-2c1.4,0,2.7,0.4,3.7,1.1
							C1702.8,69.7,1703.6,70.9,1704.2,72.5z M1691.3,78.9h12.9c-0.2,1.9-0.7,3.4-1.5,4.4c-1.2,1.5-2.9,2.3-4.8,2.3
							c-1.8,0-3.3-0.6-4.5-1.8S1691.5,80.9,1691.3,78.9z"/>
					</g>
					<g transform="translate(939.355469 -35.579531)scale(0.942335)">
						<path id="STIXSizeTwoSym-Regular-40" class="st1" d="M1731.3,38.9v-1.5c-4.7,4.4-8.4,9.9-11.2,16.5s-4.1,14-4.1,22.2
							c0,8.2,1.4,15.8,4.2,22.8c2.8,7,6.5,12.3,11,15.9v-1.4c-3.2-3.3-5.9-8.1-8-14.4c-2.2-6.4-3.3-14-3.3-22.9
							C1720,60.5,1723.8,48.1,1731.3,38.9z"/>
					</g>
					<g transform="translate(1145.850311 58.810938)scale(0.7)">
						<path id="DejaVuSans-Oblique-956" class="st1" d="M1801.7,84.6l4.6,23.5h2.8l-2.1-10.6c0-0.2-0.1-0.5-0.1-0.7
							c0-0.3,0-0.5,0-0.8c0-0.9,0.3-1.7,0.9-2.2c0.6-0.5,1.4-0.8,2.5-0.8c1.5,0,2.7,0.4,3.6,1.3c0.9,0.9,1.5,2.1,1.9,3.8l1.9,9.9
							h2.8L1818,95c0-0.2-0.1-0.4-0.1-0.5c0-0.1,0-0.3,0-0.4c0-0.3,0.1-0.5,0.2-0.7c0.1-0.1,0.3-0.2,0.6-0.2c0.1,0,0.2,0,0.4,0.1
							c0.2,0.1,0.4,0.1,0.8,0.3l-0.4-2.3c-0.4-0.2-0.9-0.4-1.3-0.5s-0.8-0.2-1.2-0.2c-0.7,0-1.2,0.2-1.6,0.6c-0.4,0.4-0.6,1-0.6,1.8
							c-0.6-0.8-1.2-1.4-2-1.8c-0.8-0.4-1.7-0.6-2.8-0.6c-0.9,0-1.8,0.2-2.5,0.7c-0.7,0.4-1.2,1-1.4,1.7l-1.6-8.4H1801.7z"/>
					</g>
					<g transform="translate(1190.386444 58.810938)scale(0.7)">
						<path id="DejaVuSans-Oblique-109" class="st1" d="M1849.9,101.4l-2-10.3h-2.8l2,10.2c0.1,0.4,0.1,0.8,0.2,1.1
							c0,0.3,0.1,0.6,0.1,0.8c0,0.9-0.3,1.6-0.8,2.1c-0.5,0.5-1.2,0.8-2.1,0.8c-1.4,0-2.6-0.5-3.6-1.5c-1.1-1-1.8-2.3-2.1-4
							l-1.9-9.5h-2.8l2,10.2c0.1,0.4,0.1,0.7,0.2,1c0,0.3,0.1,0.6,0.1,0.9c0,0.9-0.3,1.6-0.8,2.2c-0.5,0.5-1.2,0.8-2.1,0.8
							c-1.4,0-2.6-0.5-3.7-1.5c-1.1-1-1.8-2.3-2.1-4l-1.9-9.5h-2.8l3.3,17h2.8l-0.5-2.6c0.8,1,1.6,1.8,2.7,2.3
							c1,0.5,2.1,0.8,3.3,0.8c1.2,0,2.3-0.3,3-1c0.8-0.6,1.3-1.6,1.4-2.7c0.9,1.2,1.8,2.1,3,2.7c1.1,0.6,2.3,0.9,3.6,0.9
							c1.5,0,2.6-0.4,3.4-1.3c0.8-0.8,1.2-2,1.2-3.6c0-0.3,0-0.7-0.1-1.1C1850,102.2,1850,101.8,1849.9,101.4z"/>
					</g>
					<g transform="translate(1258.574921 58.810938)scale(0.7)">
						<path id="DejaVuSans-Oblique-111" class="st1" d="M1860.2,90.6c-2,0-3.6,0.6-4.7,1.8c-1.2,1.2-1.7,2.9-1.7,5
							c0,1.2,0.2,2.5,0.6,3.8c0.4,1.3,0.9,2.4,1.6,3.2c1,1.4,2.1,2.4,3.4,3c1.2,0.6,2.6,1,4.2,1c1.9,0,3.5-0.6,4.7-1.8
							c1.2-1.2,1.8-2.8,1.8-4.7c0-1.3-0.2-2.7-0.6-4c-0.4-1.3-0.9-2.4-1.6-3.3c-1-1.4-2.1-2.4-3.3-3
							C1863.2,91,1861.8,90.6,1860.2,90.6z M1856.6,97.6c0-1.5,0.3-2.7,1-3.5c0.6-0.8,1.6-1.1,2.9-1.1c1.9,0,3.4,0.8,4.7,2.5
							c1.2,1.6,1.8,3.7,1.8,6.2c0,1.5-0.3,2.6-1,3.3c-0.7,0.8-1.6,1.1-2.9,1.1c-1.1,0-2-0.2-2.8-0.7c-0.8-0.5-1.6-1.2-2.2-2.2
							c-0.5-0.7-0.8-1.6-1.1-2.6C1856.7,99.6,1856.6,98.6,1856.6,97.6z"/>
					</g>
					<g transform="translate(1301.402069 58.810938)scale(0.7)">
						<path id="DejaVuSans-Oblique-108" class="st1" d="M1877,114.7h2.8l-4.6-23.7h-2.8L1877,114.7z"/>
					</g>
					<g transform="translate(994.850311 -40.185937)scale(0.7)">
						<path id="DejaVuSans-Oblique-109_1_" class="st1" d="M1762.9,57.3l-2-10.3h-2.8l2,10.2c0.1,0.4,0.1,0.8,0.2,1.1
							c0,0.3,0.1,0.6,0.1,0.8c0,0.9-0.3,1.6-0.8,2.1c-0.5,0.5-1.2,0.8-2.1,0.8c-1.4,0-2.6-0.5-3.6-1.5c-1.1-1-1.8-2.3-2.1-4
							l-1.9-9.5h-2.8l2,10.2c0.1,0.4,0.1,0.7,0.2,1c0,0.3,0.1,0.6,0.1,0.9c0,0.9-0.3,1.6-0.8,2.2c-0.5,0.5-1.2,0.8-2.1,0.8
							c-1.4,0-2.6-0.5-3.7-1.5c-1.1-1-1.8-2.3-2.1-4l-1.9-9.5h-2.8l3.3,17h2.8l-0.5-2.6c0.8,1,1.6,1.8,2.7,2.3
							c1,0.5,2.1,0.8,3.3,0.8c1.2,0,2.3-0.3,3-1c0.8-0.6,1.3-1.6,1.4-2.7c0.9,1.2,1.8,2.1,3,2.7c1.1,0.6,2.3,0.9,3.6,0.9
							c1.5,0,2.6-0.4,3.4-1.3c0.8-0.8,1.2-2,1.2-3.6c0-0.3,0-0.7-0.1-1.1C1763,58.1,1763,57.7,1762.9,57.3z"/>
					</g>
					<g transform="translate(1063.038788 -40.185937)scale(0.7)">
						<path id="DejaVuSans-Oblique-103" class="st1" d="M1783.8,64.1l-2.9-14.9c-0.6-2.9-1.6-5-3.2-6.5c-1.6-1.4-3.7-2.1-6.4-2.1
							c-1,0-1.9,0.1-2.7,0.2c-0.8,0.1-1.6,0.4-2.4,0.7l0.5,2.7c0.7-0.4,1.4-0.8,2.2-1c0.8-0.2,1.6-0.3,2.5-0.3
							c1.8,0,3.2,0.5,4.4,1.5c1.1,1,1.9,2.4,2.3,4.2l0.2,1.3c-0.8-0.9-1.7-1.6-2.7-2c-1-0.5-2.2-0.7-3.3-0.7c-1.7,0-3.1,0.6-4.1,1.7
							c-1,1.1-1.5,2.7-1.5,4.7c0,1.6,0.3,3.1,0.9,4.6c0.6,1.5,1.4,2.8,2.5,4c0.7,0.8,1.6,1.4,2.5,1.8c1,0.4,2,0.6,3,0.6
							c1.1,0,2.1-0.3,3-0.8c0.9-0.5,1.5-1.3,1.9-2.3l0.5,2.6H1783.8z M1779.6,57.8c0,1.4-0.3,2.4-1,3.2c-0.6,0.7-1.6,1.1-2.8,1.1
							c-0.7,0-1.4-0.1-2.1-0.4c-0.7-0.3-1.2-0.7-1.7-1.2c-0.8-0.9-1.4-1.9-1.8-3.1c-0.4-1.2-0.6-2.4-0.6-3.7c0-1.4,0.3-2.5,1-3.2
							c0.7-0.7,1.6-1.1,2.8-1.1c1.8,0,3.3,0.8,4.4,2.4C1779,53.4,1779.6,55.4,1779.6,57.8z"/>
					</g>
					<g transform="translate(1107.472382 -51.670312)scale(0.49)">
						<path id="DejaVuSans-Oblique-112" class="st1" d="M1795.8,49.3c0,1-0.2,1.8-0.7,2.4c-0.5,0.6-1.1,0.8-2,0.8
							c-0.6,0-1.1-0.1-1.7-0.4s-1-0.7-1.4-1.3c-0.4-0.6-0.7-1.2-1-2c-0.2-0.8-0.4-1.6-0.4-2.4c0-1,0.2-1.8,0.7-2.3
							c0.5-0.5,1.1-0.8,1.9-0.8c0.6,0,1.2,0.1,1.7,0.4c0.5,0.3,1,0.7,1.4,1.3c0.4,0.6,0.7,1.3,1,2.1
							C1795.7,47.8,1795.8,48.5,1795.8,49.3z M1789.8,52c0.5,0.7,1.1,1.2,1.9,1.6c0.7,0.4,1.5,0.5,2.4,0.5c1.2,0,2.2-0.4,2.8-1.2
							c0.7-0.8,1-1.9,1-3.4c0-1.2-0.2-2.3-0.6-3.4c-0.4-1.1-1-2-1.8-2.9c-0.5-0.6-1.1-1-1.8-1.3c-0.7-0.3-1.4-0.4-2.1-0.4
							c-0.8,0-1.6,0.2-2.1,0.5c-0.6,0.4-1,0.9-1.3,1.6l-1.2-6.3h-2l3.2,16.5h2L1789.8,52z"/>
					</g>
					<g transform="translate(1138.575897 -51.670312)scale(0.49)">
						<path id="DejaVuSans-Oblique-114" class="st1" d="M1808.6,52c-0.2,0.1-0.4,0.2-0.7,0.2c-0.3,0.1-0.5,0.1-0.8,0.1
							c-1,0-2-0.4-2.7-1.2c-0.8-0.8-1.3-1.9-1.6-3.2l-1.2-6.1h-2l2.3,11.9h2l-0.4-1.9c0.5,0.7,1.1,1.2,1.9,1.6
							c0.7,0.4,1.5,0.6,2.3,0.6c0.2,0,0.4,0,0.6,0c0.2,0,0.4-0.1,0.6-0.1L1808.6,52z"/>
					</g>
					<g transform="translate(1158.721405 -51.670312)scale(0.49)">
						<path id="DejaVuSans-Oblique-111_1_" class="st1" d="M1813.4,41.6c-1.4,0-2.5,0.4-3.3,1.3c-0.8,0.9-1.2,2-1.2,3.5
							c0,0.9,0.1,1.7,0.4,2.6c0.3,0.9,0.6,1.7,1.1,2.3c0.7,0.9,1.5,1.7,2.4,2.1c0.9,0.5,1.8,0.7,2.9,0.7c1.4,0,2.5-0.4,3.3-1.3
							c0.8-0.8,1.3-1.9,1.3-3.3c0-0.9-0.1-1.9-0.4-2.8c-0.3-0.9-0.6-1.7-1.1-2.3c-0.7-1-1.5-1.7-2.3-2.1
							C1815.5,41.8,1814.5,41.6,1813.4,41.6z M1810.9,46.5c0-1.1,0.2-1.9,0.7-2.4c0.5-0.5,1.1-0.8,2.1-0.8c1.3,0,2.4,0.6,3.3,1.7
							c0.9,1.1,1.3,2.6,1.3,4.4c0,1-0.2,1.8-0.7,2.3c-0.5,0.5-1.1,0.8-2,0.8c-0.7,0-1.4-0.2-2-0.5c-0.6-0.3-1.1-0.9-1.5-1.6
							c-0.3-0.5-0.6-1.1-0.8-1.8C1811,47.9,1810.9,47.2,1810.9,46.5z"/>
					</g>
					<g transform="translate(1188.700409 -51.670312)scale(0.49)">
						<path id="DejaVuSans-Oblique-116" class="st1" d="M1830.4,53.8l-0.3-1.5h-3.9l-1.3-6.5c0-0.2-0.1-0.4-0.1-0.6
							c0-0.2,0-0.3,0-0.4c0-0.5,0.1-0.8,0.4-1c0.3-0.2,0.7-0.3,1.3-0.3h2l-0.3-1.6h-1.9c-1.2,0-2,0.2-2.6,0.7
							c-0.6,0.5-0.9,1.1-0.9,2.1c0,0.2,0,0.3,0,0.5c0,0.2,0.1,0.4,0.1,0.6l1.3,6.5h-1.7l0.3,1.5h1.6l0.7,3.4h2l-0.7-3.4H1830.4z"/>
					</g>
					<g transform="translate(1207.912811 -51.670312)scale(0.49)">
						<path id="DejaVuSans-Oblique-101" class="st1" d="M1840.2,48.9c0,0.1,0,0.2,0,0.4c0,0.1,0,0.2,0,0.4c0,0.9-0.3,1.6-0.8,2.1
							c-0.5,0.5-1.2,0.8-2.1,0.8c-1,0-1.8-0.3-2.6-0.9c-0.7-0.6-1.3-1.5-1.7-2.6L1840.2,48.9z M1841.9,47.4h-9.1
							c0-0.3-0.1-0.5-0.1-0.6c0-0.2,0-0.3,0-0.4c0-1,0.3-1.7,0.9-2.3c0.6-0.5,1.5-0.8,2.6-0.8c0.9,0,1.7,0.1,2.4,0.3
							c0.8,0.2,1.5,0.5,2.1,0.8l-0.4-1.9c-0.7-0.3-1.4-0.5-2.2-0.6c-0.7-0.1-1.5-0.2-2.3-0.2c-1.7,0-2.9,0.4-3.8,1.2
							c-0.9,0.8-1.3,1.9-1.3,3.4c0,1.2,0.2,2.4,0.7,3.5c0.4,1.1,1.1,2,2,2.9c0.6,0.5,1.2,0.9,2,1.2c0.8,0.3,1.6,0.4,2.4,0.4
							c1.3,0,2.4-0.4,3.2-1.2c0.8-0.8,1.2-1.9,1.2-3.3c0-0.3,0-0.7-0.1-1C1842.1,48.2,1842,47.8,1841.9,47.4z"/>
					</g>
					<g transform="translate(1238.059296 -51.670312)scale(0.49)">
						<path id="DejaVuSans-Oblique-105" class="st1" d="M1847.1,58.5h2l-0.5-2.5h-2L1847.1,58.5z M1846.2,53.8h2l-2.3-11.9h-2
							L1846.2,53.8z"/>
					</g>
					<g transform="translate(1251.673065 -51.670312)scale(0.49)">
						<path id="DejaVuSans-Oblique-110" class="st1" d="M1861.4,49.1l-1.4-7.2h-2l1.4,7.1c0.1,0.3,0.1,0.6,0.1,0.9
							c0,0.3,0.1,0.5,0.1,0.6c0,0.6-0.2,1.1-0.6,1.4c-0.4,0.3-0.9,0.5-1.6,0.5c-1.1,0-2-0.3-2.7-1c-0.8-0.7-1.3-1.6-1.5-2.8
							l-1.3-6.6h-2l2.3,11.9h2l-0.4-1.9c0.5,0.7,1.2,1.2,2,1.6c0.8,0.4,1.6,0.6,2.4,0.6c1.1,0,1.9-0.3,2.4-0.9
							c0.6-0.6,0.9-1.4,0.9-2.4c0-0.3,0-0.5,0-0.8C1861.5,49.8,1861.4,49.4,1861.4,49.1z"/>
					</g>
					<g transform="translate(1298.280487 -40.185937)scale(0.7)">
						<path id="DejaVuSans-8901" class="st1" d="M1873.3,59.8h3.2v-3.9h-3.2V59.8z"/>
					</g>
					<g transform="translate(1334.169159 -40.185937)scale(0.7)">
						<path id="DejaVuSans-Oblique-109_2_" class="st1" d="M1913.9,57.3l-2-10.3h-2.8l2,10.2c0.1,0.4,0.1,0.8,0.2,1.1
							c0,0.3,0.1,0.6,0.1,0.8c0,0.9-0.3,1.6-0.8,2.1c-0.5,0.5-1.2,0.8-2.1,0.8c-1.4,0-2.6-0.5-3.6-1.5s-1.8-2.3-2.1-4l-1.9-9.5h-2.8
							l2,10.2c0.1,0.4,0.1,0.7,0.2,1c0,0.3,0.1,0.6,0.1,0.9c0,0.9-0.3,1.6-0.8,2.2c-0.5,0.5-1.2,0.8-2.1,0.8c-1.4,0-2.6-0.5-3.7-1.5
							c-1.1-1-1.8-2.3-2.1-4l-1.9-9.5h-2.8l3.3,17h2.8l-0.5-2.6c0.8,1,1.6,1.8,2.7,2.3c1,0.5,2.1,0.8,3.3,0.8c1.2,0,2.3-0.3,3-1
							c0.8-0.6,1.3-1.6,1.4-2.7c0.9,1.2,1.8,2.1,3,2.7c1.1,0.6,2.3,0.9,3.6,0.9c1.5,0,2.6-0.4,3.4-1.3c0.8-0.8,1.2-2,1.2-3.6
							c0-0.3,0-0.7-0.1-1.1C1914,58.1,1914,57.7,1913.9,57.3z"/>
					</g>
					<g transform="translate(1402.357635 -40.185937)scale(0.7)">
						<path id="DejaVuSans-Oblique-105_1_" class="st1" d="M1922,70.7h2.8l-0.7-3.5h-2.8L1922,70.7z M1920.7,64.1h2.8l-3.3-17h-2.8
							L1920.7,64.1z"/>
					</g>
					<g transform="translate(1421.805878 -40.185937)scale(0.7)">
						<path id="DejaVuSans-Oblique-110_1_" class="st1" d="M1942.3,57.3l-2-10.3h-2.8l2,10.2c0.1,0.5,0.2,0.9,0.2,1.3
							c0.1,0.4,0.1,0.7,0.1,0.9c0,0.9-0.3,1.5-0.8,2c-0.5,0.5-1.3,0.7-2.2,0.7c-1.5,0-2.8-0.5-3.9-1.5c-1.1-1-1.8-2.4-2.1-4.1
							l-1.9-9.4h-2.8l3.3,17h2.8l-0.6-2.7c0.8,1,1.7,1.7,2.8,2.3c1.1,0.5,2.2,0.8,3.5,0.8c1.5,0,2.7-0.4,3.5-1.2
							c0.8-0.8,1.2-2,1.2-3.4c0-0.4,0-0.8-0.1-1.2C1942.4,58.2,1942.4,57.8,1942.3,57.3z"/>
					</g>
					<g transform="translate(1483.840102 -35.579531)scale(0.942335)">
						<path id="STIXSizeTwoSym-Regular-41" class="st1" d="M1957.3,113.2v1.5c4.7-4.4,8.4-9.9,11.2-16.5c2.7-6.6,4.1-14,4.1-22.2
							c0-8.2-1.4-15.8-4.2-22.8c-2.8-6.9-6.5-12.3-11-15.9v1.4c3.2,3.3,5.9,8.1,8,14.5c2.2,6.4,3.3,14,3.3,22.8
							C1968.6,91.6,1964.8,104,1957.3,113.2z"/>
					</g>
					<path class="st1" d="M1734.9,73.5v2.8H1947v-2.8H1734.9z"/>
				</g>
			</g>
		</g>
		<g id="patch_3">
			<g>
				<defs>
					<rect id="SVGID_1_" x="40.1" y="38.5" width="248.3" height="241.9"/>
				</defs>
				<clipPath id="SVGID_2_">
					<use xlink:href="#SVGID_1_"  style="overflow:visible;"/>
				</clipPath>
				<path class="st2" d="M42.3,280.4h9v-201h-9V280.4z"/>
			</g>
		</g>
		<g id="patch_4">
			<g>
				<defs>
					<rect id="SVGID_3_" x="40.1" y="38.5" width="248.3" height="241.9"/>
				</defs>
				<clipPath id="SVGID_4_">
					<use xlink:href="#SVGID_3_"  style="overflow:visible;"/>
				</clipPath>
				<path class="st3" d="M64.9,280.4h9V52.6h-9V280.4z"/>
			</g>
		</g>
		<g id="patch_5">
			<g>
				<defs>
					<rect id="SVGID_5_" x="40.1" y="38.5" width="248.3" height="241.9"/>
				</defs>
				<clipPath id="SVGID_6_">
					<use xlink:href="#SVGID_5_"  style="overflow:visible;"/>
				</clipPath>
				<path class="st4" d="M87.5,280.4h9V110.9h-9V280.4z"/>
			</g>
		</g>
		<g id="patch_6">
			<g>
				<defs>
					<rect id="SVGID_7_" x="40.1" y="38.5" width="248.3" height="241.9"/>
				</defs>
				<clipPath id="SVGID_8_">
					<use xlink:href="#SVGID_7_"  style="overflow:visible;"/>
				</clipPath>
				<path class="st5" d="M110,280.4h9V91.6h-9V280.4z"/>
			</g>
		</g>
		<g id="patch_7">
			<g>
				<defs>
					<rect id="SVGID_9_" x="40.1" y="38.5" width="248.3" height="241.9"/>
				</defs>
				<clipPath id="SVGID_10_">
					<use xlink:href="#SVGID_9_"  style="overflow:visible;"/>
				</clipPath>
				<path class="st6" d="M132.6,280.4h9V134.5h-9V280.4z"/>
			</g>
		</g>
		<g id="patch_8">
			<g>
				<defs>
					<rect id="SVGID_11_" x="40.1" y="38.5" width="248.3" height="241.9"/>
				</defs>
				<clipPath id="SVGID_12_">
					<use xlink:href="#SVGID_11_"  style="overflow:visible;"/>
				</clipPath>
				<path class="st7" d="M155.2,280.4h9V74.6h-9V280.4z"/>
			</g>
		</g>
		<g id="patch_9">
			<g>
				<defs>
					<rect id="SVGID_13_" x="40.1" y="38.5" width="248.3" height="241.9"/>
				</defs>
				<clipPath id="SVGID_14_">
					<use xlink:href="#SVGID_13_"  style="overflow:visible;"/>
				</clipPath>
				<path class="st8" d="M177.8,280.4h9V143h-9V280.4z"/>
			</g>
		</g>
		<g id="patch_10">
			<g>
				<defs>
					<rect id="SVGID_15_" x="40.1" y="38.5" width="248.3" height="241.9"/>
				</defs>
				<clipPath id="SVGID_16_">
					<use xlink:href="#SVGID_15_"  style="overflow:visible;"/>
				</clipPath>
				<path class="st9" d="M200.3,280.4h9V108.2h-9V280.4z"/>
			</g>
		</g>
		<g id="patch_11">
			<g>
				<defs>
					<rect id="SVGID_17_" x="40.1" y="38.5" width="248.3" height="241.9"/>
				</defs>
				<clipPath id="SVGID_18_">
					<use xlink:href="#SVGID_17_"  style="overflow:visible;"/>
				</clipPath>
				<path class="st10" d="M222.9,280.4h9V114h-9V280.4z"/>
			</g>
		</g>
		<g id="patch_12">
			<g>
				<defs>
					<rect id="SVGID_19_" x="40.1" y="38.5" width="248.3" height="241.9"/>
				</defs>
				<clipPath id="SVGID_20_">
					<use xlink:href="#SVGID_19_"  style="overflow:visible;"/>
				</clipPath>
				<path class="st11" d="M245.5,280.4h9V92.7h-9V280.4z"/>
			</g>
		</g>
		<g id="patch_13">
			<g>
				<defs>
					<rect id="SVGID_21_" x="40.1" y="38.5" width="248.3" height="241.9"/>
				</defs>
				<clipPath id="SVGID_22_">
					<use xlink:href="#SVGID_21_"  style="overflow:visible;"/>
				</clipPath>
				<path class="st12" d="M268.1,280.4h9V84.7h-9V280.4z"/>
			</g>
		</g>
		<g id="patch_14">
			<g>
				<defs>
					<rect id="SVGID_23_" x="40.1" y="38.5" width="248.3" height="241.9"/>
				</defs>
				<clipPath id="SVGID_24_">
					<use xlink:href="#SVGID_23_"  style="overflow:visible;"/>
				</clipPath>
				<path class="st13" d="M51.3,280.4h9v-44h-9V280.4z"/>
			</g>
		</g>
		<g id="patch_15">
			<g>
				<defs>
					<rect id="SVGID_25_" x="40.1" y="38.5" width="248.3" height="241.9"/>
				</defs>
				<clipPath id="SVGID_26_">
					<use xlink:href="#SVGID_25_"  style="overflow:visible;"/>
				</clipPath>
				<path class="st14" d="M73.9,280.4h9v-43.2h-9V280.4z"/>
			</g>
		</g>
		<g id="patch_16">
			<g>
				<defs>
					<rect id="SVGID_27_" x="40.1" y="38.5" width="248.3" height="241.9"/>
				</defs>
				<clipPath id="SVGID_28_">
					<use xlink:href="#SVGID_27_"  style="overflow:visible;"/>
				</clipPath>
				<path class="st15" d="M96.5,280.4h9v-41.5h-9V280.4z"/>
			</g>
		</g>
		<g id="patch_17">
			<g>
				<defs>
					<rect id="SVGID_29_" x="40.1" y="38.5" width="248.3" height="241.9"/>
				</defs>
				<clipPath id="SVGID_30_">
					<use xlink:href="#SVGID_29_"  style="overflow:visible;"/>
				</clipPath>
				<path class="st16" d="M119.1,280.4h9v-46.2h-9V280.4z"/>
			</g>
		</g>
		<g id="patch_18">
			<g>
				<defs>
					<rect id="SVGID_31_" x="40.1" y="38.5" width="248.3" height="241.9"/>
				</defs>
				<clipPath id="SVGID_32_">
					<use xlink:href="#SVGID_31_"  style="overflow:visible;"/>
				</clipPath>
				<path class="st17" d="M141.6,280.4h9v-75.7h-9V280.4z"/>
			</g>
		</g>
		<g id="patch_19">
			<g>
				<defs>
					<rect id="SVGID_33_" x="40.1" y="38.5" width="248.3" height="241.9"/>
				</defs>
				<clipPath id="SVGID_34_">
					<use xlink:href="#SVGID_33_"  style="overflow:visible;"/>
				</clipPath>
				<path class="st18" d="M164.2,280.4h9v-47.7h-9V280.4z"/>
			</g>
		</g>
		<g id="patch_20">
			<g>
				<defs>
					<rect id="SVGID_35_" x="40.1" y="38.5" width="248.3" height="241.9"/>
				</defs>
				<clipPath id="SVGID_36_">
					<use xlink:href="#SVGID_35_"  style="overflow:visible;"/>
				</clipPath>
				<path class="st19" d="M186.8,280.4h9v-45.8h-9V280.4z"/>
			</g>
		</g>
		<g id="patch_21">
			<g>
				<defs>
					<rect id="SVGID_37_" x="40.1" y="38.5" width="248.3" height="241.9"/>
				</defs>
				<clipPath id="SVGID_38_">
					<use xlink:href="#SVGID_37_"  style="overflow:visible;"/>
				</clipPath>
				<path class="st20" d="M209.4,280.4h9V168.1h-9V280.4z"/>
			</g>
		</g>
		<g id="patch_22">
			<g>
				<defs>
					<rect id="SVGID_39_" x="40.1" y="38.5" width="248.3" height="241.9"/>
				</defs>
				<clipPath id="SVGID_40_">
					<use xlink:href="#SVGID_39_"  style="overflow:visible;"/>
				</clipPath>
				<path class="st21" d="M231.9,280.4h9v-51.5h-9V280.4z"/>
			</g>
		</g>
		<g id="patch_23">
			<g>
				<defs>
					<rect id="SVGID_41_" x="40.1" y="38.5" width="248.3" height="241.9"/>
				</defs>
				<clipPath id="SVGID_42_">
					<use xlink:href="#SVGID_41_"  style="overflow:visible;"/>
				</clipPath>
				<path class="st22" d="M254.5,280.4h9v-53h-9V280.4z"/>
			</g>
		</g>
		<g id="patch_24">
			<g>
				<defs>
					<rect id="SVGID_43_" x="40.1" y="38.5" width="248.3" height="241.9"/>
				</defs>
				<clipPath id="SVGID_44_">
					<use xlink:href="#SVGID_43_"  style="overflow:visible;"/>
				</clipPath>
				<path class="st23" d="M277.1,280.4h9v-33.8h-9V280.4z"/>
			</g>
		</g>
		<g id="line2d_1">
			<g>
				<defs>
					<rect id="SVGID_45_" x="40.1" y="38.5" width="248.3" height="241.9"/>
				</defs>
				<clipPath id="SVGID_46_">
					<use xlink:href="#SVGID_45_"  style="overflow:visible;"/>
				</clipPath>
				<path class="st24" d="M46.8,86.4V73.5"/>
			</g>
		</g>
		<g id="line2d_2">
			<g>
				<defs>
					<rect id="SVGID_47_" x="40.1" y="38.5" width="248.3" height="241.9"/>
				</defs>
				<clipPath id="SVGID_48_">
					<use xlink:href="#SVGID_47_"  style="overflow:visible;"/>
				</clipPath>
				<path class="st25" d="M69.4,55.4V50"/>
			</g>
		</g>
		<g id="line2d_3">
			<g>
				<defs>
					<rect id="SVGID_49_" x="40.1" y="38.5" width="248.3" height="241.9"/>
				</defs>
				<clipPath id="SVGID_50_">
					<use xlink:href="#SVGID_49_"  style="overflow:visible;"/>
				</clipPath>
				<path class="st26" d="M92,118v-17.4"/>
			</g>
		</g>
		<g id="line2d_4">
			<g>
				<defs>
					<rect id="SVGID_51_" x="40.1" y="38.5" width="248.3" height="241.9"/>
				</defs>
				<clipPath id="SVGID_52_">
					<use xlink:href="#SVGID_51_"  style="overflow:visible;"/>
				</clipPath>
				<path class="st27" d="M114.6,96.9v-13"/>
			</g>
		</g>
		<g id="line2d_5">
			<g>
				<defs>
					<rect id="SVGID_53_" x="40.1" y="38.5" width="248.3" height="241.9"/>
				</defs>
				<clipPath id="SVGID_54_">
					<use xlink:href="#SVGID_53_"  style="overflow:visible;"/>
				</clipPath>
				<path class="st28" d="M137.1,148.3v-21.6"/>
			</g>
		</g>
		<g id="line2d_6">
			<g>
				<defs>
					<rect id="SVGID_55_" x="40.1" y="38.5" width="248.3" height="241.9"/>
				</defs>
				<clipPath id="SVGID_56_">
					<use xlink:href="#SVGID_55_"  style="overflow:visible;"/>
				</clipPath>
				<path class="st29" d="M159.7,99.9V59.5"/>
			</g>
		</g>
		<g id="line2d_7">
			<g>
				<defs>
					<rect id="SVGID_57_" x="40.1" y="38.5" width="248.3" height="241.9"/>
				</defs>
				<clipPath id="SVGID_58_">
					<use xlink:href="#SVGID_57_"  style="overflow:visible;"/>
				</clipPath>
				<path class="st30" d="M182.3,174.5v-55.3"/>
			</g>
		</g>
		<g id="line2d_8">
			<g>
				<defs>
					<rect id="SVGID_59_" x="40.1" y="38.5" width="248.3" height="241.9"/>
				</defs>
				<clipPath id="SVGID_60_">
					<use xlink:href="#SVGID_59_"  style="overflow:visible;"/>
				</clipPath>
				<path class="st31" d="M204.9,125.8V92"/>
			</g>
		</g>
		<g id="line2d_9">
			<g>
				<defs>
					<rect id="SVGID_61_" x="40.1" y="38.5" width="248.3" height="241.9"/>
				</defs>
				<clipPath id="SVGID_62_">
					<use xlink:href="#SVGID_61_"  style="overflow:visible;"/>
				</clipPath>
				<path class="st32" d="M227.4,131.2V93.8"/>
			</g>
		</g>
		<g id="line2d_10">
			<g>
				<defs>
					<rect id="SVGID_63_" x="40.1" y="38.5" width="248.3" height="241.9"/>
				</defs>
				<clipPath id="SVGID_64_">
					<use xlink:href="#SVGID_63_"  style="overflow:visible;"/>
				</clipPath>
				<path class="st33" d="M250,118.3V76.5"/>
			</g>
		</g>
		<g id="line2d_11">
			<g>
				<defs>
					<rect id="SVGID_65_" x="40.1" y="38.5" width="248.3" height="241.9"/>
				</defs>
				<clipPath id="SVGID_66_">
					<use xlink:href="#SVGID_65_"  style="overflow:visible;"/>
				</clipPath>
				<path class="st34" d="M272.6,88.6v-7.7"/>
			</g>
		</g>
		<g id="line2d_12">
			<g>
				<defs>
					<rect id="SVGID_67_" x="40.1" y="38.5" width="248.3" height="241.9"/>
				</defs>
				<clipPath id="SVGID_68_">
					<use xlink:href="#SVGID_67_"  style="overflow:visible;"/>
				</clipPath>
				<path class="st35" d="M55.9,240.6v-6.4"/>
			</g>
		</g>
		<g id="line2d_13">
			<g>
				<defs>
					<rect id="SVGID_69_" x="40.1" y="38.5" width="248.3" height="241.9"/>
				</defs>
				<clipPath id="SVGID_70_">
					<use xlink:href="#SVGID_69_"  style="overflow:visible;"/>
				</clipPath>
				<path class="st36" d="M78.4,237.9v-1.4"/>
			</g>
		</g>
		<g id="line2d_14">
			<g>
				<defs>
					<rect id="SVGID_71_" x="40.1" y="38.5" width="248.3" height="241.9"/>
				</defs>
				<clipPath id="SVGID_72_">
					<use xlink:href="#SVGID_71_"  style="overflow:visible;"/>
				</clipPath>
				<path class="st37" d="M101,240.6v-3.7"/>
			</g>
		</g>
		<g id="line2d_15">
			<g>
				<defs>
					<rect id="SVGID_73_" x="40.1" y="38.5" width="248.3" height="241.9"/>
				</defs>
				<clipPath id="SVGID_74_">
					<use xlink:href="#SVGID_73_"  style="overflow:visible;"/>
				</clipPath>
				<path class="st38" d="M123.6,235.5v-2.6"/>
			</g>
		</g>
		<g id="line2d_16">
			<g>
				<defs>
					<rect id="SVGID_75_" x="40.1" y="38.5" width="248.3" height="241.9"/>
				</defs>
				<clipPath id="SVGID_76_">
					<use xlink:href="#SVGID_75_"  style="overflow:visible;"/>
				</clipPath>
				<path class="st39" d="M146.2,208v-5.1"/>
			</g>
		</g>
		<g id="line2d_17">
			<g>
				<defs>
					<rect id="SVGID_77_" x="40.1" y="38.5" width="248.3" height="241.9"/>
				</defs>
				<clipPath id="SVGID_78_">
					<use xlink:href="#SVGID_77_"  style="overflow:visible;"/>
				</clipPath>
				<path class="st40" d="M168.7,234.7v-3.1"/>
			</g>
		</g>
		<g id="line2d_18">
			<g>
				<defs>
					<rect id="SVGID_79_" x="40.1" y="38.5" width="248.3" height="241.9"/>
				</defs>
				<clipPath id="SVGID_80_">
					<use xlink:href="#SVGID_79_"  style="overflow:visible;"/>
				</clipPath>
				<path class="st41" d="M191.3,237.3v-5.8"/>
			</g>
		</g>
		<g id="line2d_19">
			<g>
				<defs>
					<rect id="SVGID_81_" x="40.1" y="38.5" width="248.3" height="241.9"/>
				</defs>
				<clipPath id="SVGID_82_">
					<use xlink:href="#SVGID_81_"  style="overflow:visible;"/>
				</clipPath>
				<path class="st42" d="M213.9,172.5v-12.9"/>
			</g>
		</g>
		<g id="line2d_20">
			<g>
				<defs>
					<rect id="SVGID_83_" x="40.1" y="38.5" width="248.3" height="241.9"/>
				</defs>
				<clipPath id="SVGID_84_">
					<use xlink:href="#SVGID_83_"  style="overflow:visible;"/>
				</clipPath>
				<path class="st43" d="M236.5,231.1v-4.6"/>
			</g>
		</g>
		<g id="line2d_21">
			<g>
				<defs>
					<rect id="SVGID_85_" x="40.1" y="38.5" width="248.3" height="241.9"/>
				</defs>
				<clipPath id="SVGID_86_">
					<use xlink:href="#SVGID_85_"  style="overflow:visible;"/>
				</clipPath>
				<path class="st44" d="M259,229.4v-3"/>
			</g>
		</g>
		<g id="line2d_22">
			<g>
				<defs>
					<rect id="SVGID_87_" x="40.1" y="38.5" width="248.3" height="241.9"/>
				</defs>
				<clipPath id="SVGID_88_">
					<use xlink:href="#SVGID_87_"  style="overflow:visible;"/>
				</clipPath>
				<path class="st45" d="M281.6,247.7V245"/>
			</g>
		</g>
		<g id="patch_25">
			<path class="st46" d="M40.1,280.4V38.5"/>
		</g>
		<g id="patch_26">
			<path class="st46" d="M288.4,280.4V38.5"/>
		</g>
		<g id="patch_27">
			<path class="st46" d="M40.1,280.4h248.3"/>
		</g>
		<g id="patch_28">
			<path class="st46" d="M40.1,38.5h248.3"/>
		</g>
		<g id="legend_1">
			<g id="patch_29">
				<path class="st47" d="M301,76.4h60.6c1,0,1.5-0.5,1.5-1.5V43.6c0-1-0.5-1.5-1.5-1.5H301c-1,0-1.5,0.5-1.5,1.5v31.3
					C299.5,75.9,300,76.4,301,76.4z"/>
			</g>
			<g id="text_19">
				<g transform="translate(709.899141 114.134062)scale(0.18 -0.18)">
					<g>
						<path id="ArialMT-80_2_" class="st1" d="M-2185.2,351.9v31.9h12c2.1,0,3.7-0.1,4.8-0.3c1.6-0.3,2.9-0.8,3.9-1.5
							c1.1-0.7,1.9-1.8,2.6-3.1c0.6-1.3,1-2.8,1-4.3c0-2.7-0.9-5-2.6-6.9c-1.7-1.9-4.8-2.8-9.3-2.8h-8.2v-13H-2185.2z M-2181,368.6
							h8.2c2.7,0,4.7,0.5,5.8,1.5s1.7,2.4,1.7,4.3c0,1.3-0.3,2.5-1,3.4c-0.7,1-1.6,1.6-2.7,1.9c-0.7,0.2-2,0.3-3.9,0.3h-8.1V368.6z"
							/>
					</g>
					<g>
						<path id="ArialMT-97_4_" class="st1" d="M-2141,354.7c-1.5-1.2-2.8-2.1-4.2-2.6c-1.3-0.5-2.8-0.8-4.3-0.8
							c-2.5,0-4.5,0.6-5.8,1.9c-1.4,1.2-2,2.8-2,4.7c0,1.1,0.3,2.2,0.8,3.1c0.5,0.9,1.2,1.7,2,2.3s1.8,1,2.8,1.3
							c0.8,0.2,1.9,0.4,3.5,0.6c3.2,0.4,5.5,0.8,7,1.3c0,0.5,0,0.9,0,1c0,1.6-0.4,2.7-1.1,3.4c-1,0.9-2.5,1.3-4.5,1.3
							c-1.8,0-3.2-0.3-4.1-1s-1.5-1.8-1.9-3.4l-3.8,0.5c0.3,1.6,0.9,3,1.7,4s1.9,1.8,3.5,2.3c1.5,0.5,3.3,0.8,5.2,0.8
							c2,0,3.6-0.2,4.8-0.7c1.2-0.5,2.1-1,2.7-1.8c0.6-0.7,1-1.6,1.2-2.7c0.1-0.7,0.2-1.9,0.2-3.6v-5.2c0-3.6,0.1-5.9,0.3-6.9
							c0.2-1,0.5-1.9,1-2.8h-4.1C-2140.6,352.7-2140.9,353.6-2141,354.7z M-2141.3,363.5c-1.4-0.6-3.6-1.1-6.4-1.5
							c-1.6-0.2-2.7-0.5-3.4-0.8c-0.7-0.3-1.2-0.7-1.5-1.3c-0.4-0.6-0.5-1.2-0.5-1.9c0-1,0.4-1.9,1.2-2.6c0.8-0.7,1.9-1,3.5-1
							c1.5,0,2.8,0.3,4,1s2,1.6,2.6,2.7c0.4,0.9,0.6,2.2,0.6,3.9V363.5z"/>
					</g>
					<g>
						<path id="ArialMT-116_3_" class="st1" d="M-2122.8,355.4l0.6-3.5c-1.1-0.2-2.1-0.3-3-0.3c-1.4,0-2.5,0.2-3.3,0.7
							c-0.8,0.4-1.3,1-1.6,1.8c-0.3,0.7-0.5,2.3-0.5,4.6v13.3h-2.9v3h2.9v5.7l3.9,2.3V375h3.9v-3h-3.9v-13.5c0-1.1,0.1-1.8,0.2-2.2
							c0.1-0.3,0.4-0.6,0.7-0.8s0.8-0.3,1.3-0.3C-2124.1,355.2-2123.5,355.3-2122.8,355.4z"/>
					</g>
					<g>
						<path id="ArialMT-104" class="st1" d="M-2118.9,351.9v31.9h3.9v-11.4c1.8,2.1,4.1,3.2,6.9,3.2c1.7,0,3.2-0.3,4.5-1
							c1.3-0.7,2.2-1.6,2.7-2.8c0.5-1.2,0.8-2.9,0.8-5.2v-14.6h-3.9v14.6c0,2-0.4,3.4-1.3,4.3c-0.8,0.9-2,1.3-3.6,1.3
							c-1.2,0-2.3-0.3-3.3-0.9c-1-0.6-1.7-1.4-2.2-2.4c-0.4-1-0.7-2.4-0.7-4.3v-12.6H-2118.9z"/>
					</g>
					<g>
						<path id="ArialMT-119" class="st1" d="M-2089.9,351.9l-7.1,23.1h4l3.7-13.3l1.4-5c0.1,0.2,0.5,1.8,1.2,4.8l3.7,13.5h4
							l3.5-13.4l1.2-4.4l1.3,4.5l4,13.3h3.8l-7.2-23.1h-4.1l-3.7,13.8l-0.9,3.9l-4.7-17.8H-2089.9z"/>
					</g>
					<g>
						<path id="ArialMT-97_5_" class="st1" d="M-2047,354.7c-1.5-1.2-2.8-2.1-4.2-2.6c-1.3-0.5-2.8-0.8-4.3-0.8
							c-2.5,0-4.5,0.6-5.8,1.9c-1.4,1.2-2,2.8-2,4.7c0,1.1,0.3,2.2,0.8,3.1c0.5,0.9,1.2,1.7,2,2.3s1.8,1,2.8,1.3
							c0.8,0.2,1.9,0.4,3.5,0.6c3.2,0.4,5.5,0.8,7,1.3c0,0.5,0,0.9,0,1c0,1.6-0.4,2.7-1.1,3.4c-1,0.9-2.5,1.3-4.5,1.3
							c-1.8,0-3.2-0.3-4.1-1c-0.9-0.6-1.5-1.8-1.9-3.4l-3.8,0.5c0.3,1.6,0.9,3,1.7,4s1.9,1.8,3.5,2.3c1.5,0.5,3.3,0.8,5.2,0.8
							c2,0,3.6-0.2,4.8-0.7c1.2-0.5,2.1-1,2.7-1.8c0.6-0.7,1-1.6,1.2-2.7c0.1-0.7,0.2-1.9,0.2-3.6v-5.2c0-3.6,0.1-5.9,0.3-6.9
							c0.2-1,0.5-1.9,1-2.8h-4.1C-2046.6,352.7-2046.9,353.6-2047,354.7z M-2047.3,363.5c-1.4-0.6-3.6-1.1-6.4-1.5
							c-1.6-0.2-2.7-0.5-3.4-0.8c-0.7-0.3-1.2-0.7-1.5-1.3c-0.4-0.6-0.5-1.2-0.5-1.9c0-1,0.4-1.9,1.2-2.6c0.8-0.7,1.9-1,3.5-1
							c1.5,0,2.8,0.3,4,1s2,1.6,2.6,2.7c0.4,0.9,0.6,2.2,0.6,3.9V363.5z"/>
					</g>
					<g>
						<path id="ArialMT-121" class="st1" d="M-2037.5,343l-0.4,3.7c0.9-0.2,1.6-0.3,2.2-0.3c0.9,0,1.6,0.1,2.1,0.4
							c0.5,0.3,1,0.7,1.3,1.2c0.2,0.4,0.6,1.4,1.2,2.9c0.1,0.2,0.2,0.5,0.3,1l-8.8,23.1h4.2l4.8-13.4c0.6-1.7,1.2-3.5,1.7-5.3
							c0.4,1.8,1,3.6,1.6,5.3l4.9,13.5h3.9l-8.8-23.5c-0.9-2.5-1.7-4.3-2.2-5.2c-0.7-1.3-1.5-2.2-2.4-2.8c-0.9-0.6-2-0.9-3.2-0.9
							C-2035.7,342.5-2036.6,342.7-2037.5,343z"/>
					</g>
				</g>
			</g>
			<g id="patch_30">
				<path class="st48" d="M302.4,61.5h14.7v-5.1h-14.7V61.5z"/>
			</g>
			<g id="text_20">
				<g transform="translate(725.79 138.183984)scale(0.165 -0.165)">
					<g>
						<path id="ArialMT-71_3_" class="st1" d="M-2422.8,477.3v3.7l13.5,0v-11.8c-2.1-1.7-4.2-2.9-6.4-3.7c-2.2-0.8-4.5-1.2-6.8-1.2
							c-3.1,0-6,0.7-8.5,2c-2.6,1.3-4.5,3.3-5.8,5.8c-1.3,2.5-2,5.4-2,8.5c0,3.1,0.6,6,1.9,8.7c1.3,2.7,3.2,4.7,5.6,6s5.2,2,8.4,2
							c2.3,0,4.4-0.4,6.2-1.1c1.9-0.7,3.3-1.8,4.4-3.1c1.1-1.3,1.9-3.1,2.4-5.2l-3.8-1c-0.5,1.6-1.1,2.9-1.8,3.8
							c-0.7,0.9-1.7,1.7-3,2.2c-1.3,0.6-2.8,0.8-4.4,0.8c-1.9,0-3.6-0.3-5-0.9c-1.4-0.6-2.5-1.4-3.4-2.3c-0.9-1-1.5-2-2-3.2
							c-0.8-2-1.2-4.1-1.2-6.4c0-2.8,0.5-5.2,1.5-7.1c1-1.9,2.4-3.3,4.3-4.3s3.9-1.4,6-1.4c1.8,0,3.6,0.4,5.3,1.1
							c1.7,0.7,3.1,1.5,3.9,2.3v5.9H-2422.8z"/>
					</g>
					<g>
						<path id="ArialMT-108_2_" class="st1" d="M-2403.6,464.8v31.9h3.9v-31.9H-2403.6z"/>
					</g>
					<g>
						<path id="ArialMT-121_1_" class="st1" d="M-2393.8,455.9l-0.4,3.7c0.9-0.2,1.6-0.3,2.2-0.3c0.9,0,1.6,0.1,2.1,0.4
							c0.5,0.3,1,0.7,1.3,1.2c0.2,0.4,0.6,1.4,1.2,2.9c0.1,0.2,0.2,0.5,0.3,1l-8.8,23.1h4.2l4.8-13.4c0.6-1.7,1.2-3.5,1.7-5.3
							c0.4,1.8,1,3.6,1.6,5.3l4.9,13.5h3.9l-8.8-23.5c-0.9-2.5-1.7-4.3-2.2-5.2c-0.7-1.3-1.5-2.2-2.4-2.8c-0.9-0.6-2-0.9-3.2-0.9
							C-2392.1,455.4-2392.9,455.6-2393.8,455.9z"/>
					</g>
					<g>
						<path id="ArialMT-99_1_" class="st1" d="M-2356.3,473.2l3.8-0.5c-0.4-2.7-1.5-4.7-3.2-6.2c-1.7-1.5-3.9-2.2-6.4-2.2
							c-3.2,0-5.7,1-7.6,3.1c-1.9,2.1-2.9,5-2.9,8.9c0,2.5,0.4,4.7,1.2,6.5c0.8,1.9,2.1,3.3,3.8,4.2c1.7,0.9,3.5,1.4,5.5,1.4
							c2.5,0,4.6-0.6,6.1-1.9c1.6-1.3,2.6-3.1,3.1-5.4l-3.8-0.6c-0.4,1.6-1,2.7-1.9,3.5c-0.9,0.8-2,1.2-3.3,1.2
							c-2,0-3.6-0.7-4.8-2.1c-1.2-1.4-1.8-3.6-1.8-6.7c0-3.1,0.6-5.4,1.8-6.8c1.2-1.4,2.7-2.1,4.7-2.1c1.5,0,2.8,0.5,3.8,1.4
							C-2357.3,469.8-2356.6,471.3-2356.3,473.2z"/>
					</g>
					<g>
						<path id="ArialMT-111_2_" class="st1" d="M-2350.6,476.3c0,4.3,1.2,7.4,3.6,9.5c2,1.7,4.4,2.6,7.3,2.6c3.2,0,5.8-1,7.8-3.1
							c2-2.1,3-4.9,3-8.6c0-3-0.4-5.3-1.3-7c-0.9-1.7-2.2-3-3.9-4c-1.7-0.9-3.6-1.4-5.6-1.4c-3.2,0-5.8,1-7.8,3.1
							C-2349.6,469.4-2350.6,472.4-2350.6,476.3z M-2346.6,476.3c0-3,0.6-5.2,1.9-6.6s2.9-2.2,4.9-2.2c1.9,0,3.6,0.7,4.8,2.2
							c1.3,1.5,1.9,3.7,1.9,6.8c0,2.9-0.6,5-1.9,6.5c-1.3,1.5-2.9,2.2-4.8,2.2c-2,0-3.6-0.7-4.9-2.2
							C-2345.9,481.5-2346.6,479.3-2346.6,476.3z"/>
					</g>
					<g>
						<path id="ArialMT-108_3_" class="st1" d="M-2324.5,464.8v31.9h3.9v-31.9H-2324.5z"/>
					</g>
					<g>
						<path id="ArialMT-121_2_" class="st1" d="M-2314.7,455.9l-0.4,3.7c0.9-0.2,1.6-0.3,2.2-0.3c0.9,0,1.6,0.1,2.1,0.4
							c0.5,0.3,1,0.7,1.3,1.2c0.2,0.4,0.6,1.4,1.2,2.9c0.1,0.2,0.2,0.5,0.3,1l-8.8,23.1h4.2l4.8-13.4c0.6-1.7,1.2-3.5,1.7-5.3
							c0.4,1.8,1,3.6,1.6,5.3l4.9,13.5h3.9l-8.8-23.5c-0.9-2.5-1.7-4.3-2.2-5.2c-0.7-1.3-1.5-2.2-2.4-2.8c-0.9-0.6-2-0.9-3.2-0.9
							C-2312.9,455.4-2313.8,455.6-2314.7,455.9z"/>
					</g>
					<g>
						<path id="ArialMT-115" class="st1" d="M-2293.8,471.7l3.9,0.6c0.2-1.5,0.8-2.7,1.8-3.6c1-0.8,2.4-1.2,4.2-1.2
							c1.8,0,3.1,0.4,4,1.1c0.9,0.7,1.3,1.6,1.3,2.6c0,0.9-0.4,1.6-1.2,2.1c-0.5,0.3-1.9,0.8-4,1.3c-2.9,0.7-4.9,1.4-6,1.9
							c-1.1,0.5-1.9,1.3-2.5,2.2c-0.6,0.9-0.9,2-0.9,3.1c0,1,0.2,2,0.7,2.9c0.5,0.9,1.1,1.6,1.9,2.2c0.6,0.4,1.4,0.8,2.5,1.1
							c1.1,0.3,2.2,0.5,3.4,0.5c1.8,0,3.4-0.3,4.8-0.8c1.4-0.5,2.4-1.2,3-2.1c0.7-0.9,1.1-2.1,1.3-3.6l-3.8-0.5
							c-0.2,1.2-0.7,2.1-1.5,2.8c-0.8,0.7-2,1-3.5,1c-1.8,0-3.1-0.3-3.8-0.9s-1.2-1.3-1.2-2.1c0-0.5,0.2-1,0.5-1.4
							c0.3-0.4,0.8-0.8,1.5-1c0.4-0.1,1.5-0.5,3.5-1c2.8-0.7,4.7-1.3,5.8-1.8c1.1-0.5,2-1.2,2.6-2.1c0.6-0.9,0.9-2,0.9-3.3
							c0-1.3-0.4-2.5-1.1-3.7c-0.8-1.1-1.9-2-3.3-2.7c-1.4-0.6-3.1-0.9-4.9-0.9c-3,0-5.3,0.6-6.9,1.9
							C-2292.4,467.4-2293.4,469.2-2293.8,471.7z"/>
					</g>
					<g>
						<path id="ArialMT-105_2_" class="st1" d="M-2270,492.1v4.5h3.9v-4.5H-2270z M-2270,464.8v23.1h3.9v-23.1H-2270z"/>
					</g>
					<g>
						<path id="ArialMT-115_1_" class="st1" d="M-2261.7,471.7l3.9,0.6c0.2-1.5,0.8-2.7,1.8-3.6c1-0.8,2.4-1.2,4.2-1.2
							c1.8,0,3.1,0.4,4,1.1c0.9,0.7,1.3,1.6,1.3,2.6c0,0.9-0.4,1.6-1.2,2.1c-0.5,0.3-1.9,0.8-4,1.3c-2.9,0.7-4.9,1.4-6,1.9
							c-1.1,0.5-1.9,1.3-2.5,2.2c-0.6,0.9-0.9,2-0.9,3.1c0,1,0.2,2,0.7,2.9c0.5,0.9,1.1,1.6,1.9,2.2c0.6,0.4,1.4,0.8,2.5,1.1
							c1.1,0.3,2.2,0.5,3.4,0.5c1.8,0,3.4-0.3,4.8-0.8c1.4-0.5,2.4-1.2,3-2.1c0.7-0.9,1.1-2.1,1.3-3.6l-3.8-0.5
							c-0.2,1.2-0.7,2.1-1.5,2.8c-0.8,0.7-2,1-3.5,1c-1.8,0-3.1-0.3-3.8-0.9s-1.2-1.3-1.2-2.1c0-0.5,0.2-1,0.5-1.4
							c0.3-0.4,0.8-0.8,1.5-1c0.4-0.1,1.5-0.5,3.5-1c2.8-0.7,4.7-1.3,5.8-1.8c1.1-0.5,2-1.2,2.6-2.1c0.6-0.9,0.9-2,0.9-3.3
							c0-1.3-0.4-2.5-1.1-3.7c-0.8-1.1-1.9-2-3.3-2.7c-1.4-0.6-3.1-0.9-4.9-0.9c-3,0-5.3,0.6-6.9,1.9
							C-2260.2,467.4-2261.3,469.2-2261.7,471.7z"/>
					</g>
				</g>
			</g>
			<g id="patch_31">
				<path class="st49" d="M302.4,72h14.7v-5.1h-14.7V72z"/>
			</g>
			<g id="text_21">
				<g transform="translate(725.79 161.717109)scale(0.165 -0.165)">
					<g>
						<path id="ArialMT-82_2_" class="st1" d="M-2437.6,543.9v31.9h14.1c2.8,0,5-0.3,6.5-0.9c1.5-0.6,2.7-1.6,3.5-3
							c0.9-1.4,1.3-3,1.3-4.8c0-2.3-0.7-4.2-2.2-5.7c-1.5-1.5-3.7-2.5-6.8-3c1.1-0.5,2-1.1,2.5-1.6c1.2-1.1,2.4-2.5,3.5-4.2l5.5-8.7
							h-5.3l-4.2,6.6c-1.2,1.9-2.2,3.4-3,4.4c-0.8,1-1.5,1.7-2.1,2.1c-0.6,0.4-1.3,0.7-1.9,0.9c-0.5,0.1-1.3,0.1-2.3,0.1h-4.9v-14.1
							H-2437.6z M-2433.4,561.7h9.1c1.9,0,3.4,0.2,4.5,0.6c1.1,0.4,1.9,1,2.5,1.9c0.6,0.9,0.8,1.8,0.8,2.9c0,1.5-0.5,2.7-1.6,3.7
							c-1.1,1-2.8,1.5-5.2,1.5h-10.1V561.7z"/>
					</g>
					<g>
						<path id="ArialMT-101_5_" class="st1" d="M-2390.2,551.3l4-0.5c-0.6-2.4-1.8-4.2-3.5-5.5c-1.7-1.3-3.9-2-6.6-2
							c-3.4,0-6.1,1-8,3.1c-2,2.1-3,5-3,8.7c0,3.9,1,6.9,3,9c2,2.1,4.6,3.2,7.8,3.2c3.1,0,5.6-1,7.6-3.2c2-2.1,2.9-5.1,2.9-8.9
							c0-0.2,0-0.6,0-1h-17.2c0.1-2.5,0.9-4.5,2.1-5.8c1.3-1.3,2.9-2,4.8-2c1.4,0,2.7,0.4,3.7,1.1
							C-2391.6,548.5-2390.8,549.7-2390.2,551.3z M-2403.1,557.7h12.9c-0.2,1.9-0.7,3.4-1.5,4.4c-1.2,1.5-2.9,2.3-4.8,2.3
							c-1.8,0-3.3-0.6-4.5-1.8S-2402.9,559.7-2403.1,557.7z"/>
					</g>
					<g>
						<path id="ArialMT-115_2_" class="st1" d="M-2382.8,550.8l3.9,0.6c0.2-1.5,0.8-2.7,1.8-3.6c1-0.8,2.4-1.2,4.2-1.2
							c1.8,0,3.1,0.4,4,1.1c0.9,0.7,1.3,1.6,1.3,2.6c0,0.9-0.4,1.6-1.2,2.1c-0.5,0.3-1.9,0.8-4,1.3c-2.9,0.7-4.9,1.4-6,1.9
							c-1.1,0.5-1.9,1.3-2.5,2.2c-0.6,0.9-0.9,2-0.9,3.1c0,1,0.2,2,0.7,2.9c0.5,0.9,1.1,1.6,1.9,2.2c0.6,0.4,1.4,0.8,2.5,1.1
							c1.1,0.3,2.2,0.5,3.4,0.5c1.8,0,3.4-0.3,4.8-0.8c1.4-0.5,2.4-1.2,3-2.1c0.7-0.9,1.1-2.1,1.3-3.6l-3.8-0.5
							c-0.2,1.2-0.7,2.1-1.5,2.8c-0.8,0.7-2,1-3.5,1c-1.8,0-3.1-0.3-3.8-0.9s-1.2-1.3-1.2-2.1c0-0.5,0.2-1,0.5-1.4
							c0.3-0.4,0.8-0.8,1.5-1c0.4-0.1,1.5-0.5,3.5-1c2.8-0.7,4.7-1.3,5.8-1.8c1.1-0.5,2-1.2,2.6-2.1c0.6-0.9,0.9-2,0.9-3.3
							c0-1.3-0.4-2.5-1.1-3.7c-0.8-1.1-1.9-2-3.3-2.7c-1.4-0.6-3.1-0.9-4.9-0.9c-3,0-5.3,0.6-6.9,1.9S-2382.4,548.4-2382.8,550.8z"
							/>
					</g>
					<g>
						<path id="ArialMT-112_2_" class="st1" d="M-2359,535.1V567h3.6v-3c0.8,1.2,1.8,2.1,2.9,2.6c1.1,0.6,2.3,0.9,3.8,0.9
							c2,0,3.7-0.5,5.2-1.5c1.5-1,2.6-2.4,3.4-4.3c0.8-1.8,1.2-3.9,1.2-6.1c0-2.4-0.4-4.5-1.3-6.4c-0.8-1.9-2.1-3.3-3.7-4.3
							c-1.6-1-3.3-1.5-5.1-1.5c-1.3,0-2.5,0.3-3.5,0.8c-1,0.6-1.9,1.2-2.6,2.1v-11.2H-2359z M-2355.5,555.3c0-3,0.6-5.2,1.8-6.6
							c1.2-1.4,2.7-2.1,4.4-2.1c1.7,0,3.2,0.7,4.5,2.2c1.2,1.5,1.9,3.7,1.9,6.8c0,2.9-0.6,5.1-1.8,6.6c-1.2,1.5-2.7,2.2-4.3,2.2
							c-1.7,0-3.1-0.8-4.4-2.3C-2354.8,560.6-2355.5,558.3-2355.5,555.3z"/>
					</g>
					<g>
						<path id="ArialMT-105_3_" class="st1" d="M-2334.2,571.3v4.5h3.9v-4.5H-2334.2z M-2334.2,543.9V567h3.9v-23.1H-2334.2z"/>
					</g>
					<g>
						<path id="ArialMT-114_2_" class="st1" d="M-2324.4,543.9V567h3.5v-3.5c0.9,1.6,1.7,2.7,2.5,3.2c0.8,0.5,1.6,0.8,2.5,0.8
							c1.3,0,2.7-0.4,4-1.3l-1.3-3.6c-1,0.6-1.9,0.8-2.9,0.8c-0.9,0-1.6-0.3-2.3-0.8c-0.7-0.5-1.2-1.2-1.5-2.1
							c-0.4-1.4-0.7-2.9-0.7-4.6v-12.1H-2324.4z"/>
					</g>
					<g>
						<path id="ArialMT-97_6_" class="st1" d="M-2294.5,546.8c-1.5-1.2-2.8-2.1-4.2-2.6c-1.3-0.5-2.8-0.8-4.3-0.8
							c-2.5,0-4.5,0.6-5.8,1.9c-1.4,1.2-2,2.8-2,4.7c0,1.1,0.3,2.2,0.8,3.1c0.5,0.9,1.2,1.7,2,2.3c0.8,0.6,1.8,1,2.8,1.3
							c0.8,0.2,1.9,0.4,3.5,0.6c3.2,0.4,5.5,0.8,7,1.3c0,0.5,0,0.9,0,1c0,1.6-0.4,2.7-1.1,3.4c-1,0.9-2.5,1.3-4.5,1.3
							c-1.8,0-3.2-0.3-4.1-1s-1.5-1.8-1.9-3.4l-3.8,0.5c0.3,1.6,0.9,3,1.7,4c0.8,1,1.9,1.8,3.5,2.3c1.5,0.5,3.3,0.8,5.2,0.8
							c2,0,3.6-0.2,4.8-0.7c1.2-0.5,2.1-1,2.7-1.8c0.6-0.7,1-1.6,1.2-2.7c0.1-0.7,0.2-1.9,0.2-3.6v-5.2c0-3.6,0.1-5.9,0.3-6.9
							c0.2-1,0.5-1.9,1-2.8h-4.1C-2294.1,544.7-2294.4,545.7-2294.5,546.8z M-2294.8,555.5c-1.4-0.6-3.6-1.1-6.4-1.5
							c-1.6-0.2-2.7-0.5-3.4-0.8c-0.7-0.3-1.2-0.7-1.5-1.3c-0.4-0.6-0.5-1.2-0.5-1.9c0-1,0.4-1.9,1.2-2.6c0.8-0.7,1.9-1,3.5-1
							c1.5,0,2.8,0.3,4,1c1.2,0.7,2,1.6,2.6,2.7c0.4,0.9,0.6,2.2,0.6,3.9V555.5z"/>
					</g>
					<g>
						<path id="ArialMT-116_4_" class="st1" d="M-2276.3,547.4l0.6-3.5c-1.1-0.2-2.1-0.3-3-0.3c-1.4,0-2.5,0.2-3.3,0.7
							c-0.8,0.4-1.3,1-1.6,1.8s-0.5,2.3-0.5,4.6v13.3h-2.9v3h2.9v5.7l3.9,2.3V567h3.9v-3h-3.9v-13.5c0-1.1,0.1-1.8,0.2-2.2
							c0.1-0.3,0.4-0.6,0.7-0.8c0.3-0.2,0.8-0.3,1.3-0.3C-2277.6,547.3-2277,547.3-2276.3,547.4z"/>
					</g>
					<g>
						<path id="ArialMT-105_4_" class="st1" d="M-2272.4,571.3v4.5h3.9v-4.5H-2272.4z M-2272.4,543.9V567h3.9v-23.1H-2272.4z"/>
					</g>
					<g>
						<path id="ArialMT-111_3_" class="st1" d="M-2264,555.5c0,4.3,1.2,7.4,3.6,9.5c2,1.7,4.4,2.6,7.3,2.6c3.2,0,5.8-1,7.8-3.1
							c2-2.1,3-4.9,3-8.6c0-3-0.4-5.3-1.3-7c-0.9-1.7-2.2-3-3.9-4c-1.7-0.9-3.6-1.4-5.6-1.4c-3.2,0-5.8,1-7.8,3.1
							C-2263,548.6-2264,551.6-2264,555.5z M-2260,555.5c0-3,0.6-5.2,1.9-6.6c1.3-1.5,2.9-2.2,4.9-2.2c1.9,0,3.6,0.7,4.8,2.2
							c1.3,1.5,1.9,3.7,1.9,6.8c0,2.9-0.6,5-1.9,6.5c-1.3,1.5-2.9,2.2-4.8,2.2c-2,0-3.6-0.7-4.9-2.2
							C-2259.3,560.6-2260,558.4-2260,555.5z"/>
					</g>
					<g>
						<path id="ArialMT-110_3_" class="st1" d="M-2237.8,543.9V567h3.5v-3.3c1.7,2.5,4.1,3.8,7.3,3.8c1.4,0,2.7-0.3,3.8-0.8
							s2-1.2,2.6-2c0.6-0.8,1-1.8,1.2-2.9c0.1-0.7,0.2-2,0.2-3.8v-14.2h-3.9v14c0,1.6-0.2,2.8-0.5,3.6c-0.3,0.8-0.8,1.4-1.6,1.9
							c-0.8,0.5-1.7,0.7-2.7,0.7c-1.7,0-3.1-0.5-4.3-1.6c-1.2-1.1-1.8-3.1-1.8-6v-12.6H-2237.8z"/>
					</g>
				</g>
			</g>
		</g>
	</g>
</g>
</svg>
