<?xml version="1.0" encoding="utf-8" standalone="no"?>
<!DOCTYPE svg PUBLIC "-//W3C//DTD SVG 1.1//EN"
  "http://www.w3.org/Graphics/SVG/1.1/DTD/svg11.dtd">
<!-- Created with matplotlib (https://matplotlib.org/) -->
<svg height="576pt" version="1.1" viewBox="0 0 612 576" width="612pt" xmlns="http://www.w3.org/2000/svg" xmlns:xlink="http://www.w3.org/1999/xlink">
 <metadata>
  <rdf:RDF xmlns:cc="http://creativecommons.org/ns#" xmlns:dc="http://purl.org/dc/elements/1.1/" xmlns:rdf="http://www.w3.org/1999/02/22-rdf-syntax-ns#">
   <cc:Work>
    <dc:type rdf:resource="http://purl.org/dc/dcmitype/StillImage"/>
    <dc:date>2023-01-24T16:51:35.785804</dc:date>
    <dc:format>image/svg+xml</dc:format>
    <dc:creator>
     <cc:Agent>
      <dc:title>Matplotlib v3.3.4, https://matplotlib.org/</dc:title>
     </cc:Agent>
    </dc:creator>
   </cc:Work>
  </rdf:RDF>
 </metadata>
 <defs>
  <style type="text/css">*{stroke-linecap:butt;stroke-linejoin:round;}</style>
 </defs>
 <g id="figure_1">
  <g id="patch_1">
   <path d="M 0 576 
L 612 576 
L 612 0 
L 0 0 
z
" style="fill:none;"/>
  </g>
  <g id="axes_1">
   <g id="patch_2">
    <path d="M 121.1075 480.3925 
L 576.685 480.3925 
L 576.685 19.44 
L 121.1075 19.44 
z
" style="fill:#ffffff;"/>
   </g>
   <g id="PolyCollection_1">
    <defs>
     <path d="M 155.169369 -116.559886 
L 155.169369 -116.559886 
L 157.287538 -116.559886 
L 159.405707 -116.559886 
L 161.523876 -116.559886 
L 163.642045 -116.559886 
L 165.760214 -116.559886 
L 167.878383 -116.559886 
L 169.996552 -116.559886 
L 172.114721 -116.559886 
L 174.23289 -116.559886 
L 176.351059 -117.18595 
L 178.469228 -119.399821 
L 180.587397 -121.613692 
L 182.705566 -123.827564 
L 184.823735 -126.041435 
L 186.941904 -128.255306 
L 189.060073 -130.469177 
L 191.178242 -132.683048 
L 193.296411 -134.896919 
L 195.41458 -137.110791 
L 197.532749 -139.324663 
L 199.650918 -141.538532 
L 201.769087 -143.752404 
L 203.887256 -145.966276 
L 206.005425 -148.180148 
L 208.123594 -150.394017 
L 210.241763 -152.607889 
L 212.359932 -154.821761 
L 214.478101 -157.035631 
L 216.59627 -159.249503 
L 218.714439 -161.463375 
L 220.832608 -163.677244 
L 222.950777 -165.891116 
L 225.068946 -168.104988 
L 227.187115 -170.31886 
L 229.305284 -172.53273 
L 231.423453 -174.746602 
L 233.541622 -176.960473 
L 235.659791 -179.174343 
L 237.77796 -181.388215 
L 239.896129 -183.602087 
L 242.014298 -185.815956 
L 244.132467 -188.029828 
L 246.250636 -190.2437 
L 248.368805 -192.457572 
L 250.486974 -194.671442 
L 252.605143 -196.885314 
L 254.723312 -199.099186 
L 256.841481 -201.313055 
L 258.95965 -203.526927 
L 261.077819 -205.740799 
L 263.195988 -207.954669 
L 265.314157 -210.168541 
L 267.432326 -212.382412 
L 269.550495 -214.596282 
L 271.668664 -216.810154 
L 273.786833 -219.024026 
L 275.905002 -221.237898 
L 278.023171 -223.451767 
L 280.14134 -225.665639 
L 282.259509 -227.879511 
L 284.377678 -230.093381 
L 286.495847 -232.307253 
L 288.614016 -234.521125 
L 290.732185 -236.734994 
L 292.850354 -238.948866 
L 294.968523 -241.162738 
L 297.086692 -243.37661 
L 299.204861 -245.590479 
L 301.32303 -247.804351 
L 303.441199 -250.018223 
L 305.559368 -252.232093 
L 307.677537 -254.445965 
L 309.795706 -256.659837 
L 311.913875 -258.873706 
L 314.032044 -261.087578 
L 316.150213 -263.30145 
L 318.268382 -265.515322 
L 320.386551 -267.729192 
L 322.50472 -269.943064 
L 324.622889 -272.156935 
L 326.741058 -274.370805 
L 328.859227 -276.584677 
L 330.977396 -278.798549 
L 333.095565 -281.012418 
L 335.213734 -283.22629 
L 337.331903 -285.440162 
L 339.450072 -287.654034 
L 341.568241 -289.867904 
L 343.68641 -292.081776 
L 345.804579 -294.295648 
L 347.922748 -296.509517 
L 350.040917 -298.723389 
L 352.159086 -300.937261 
L 354.277255 -303.151131 
L 356.395424 -305.365002 
L 358.513593 -307.578874 
L 360.631762 -309.792746 
L 362.749931 -312.006616 
L 364.8681 -314.220488 
L 366.986269 -316.43436 
L 369.104438 -318.648229 
L 371.222607 -320.862101 
L 373.340776 -323.075973 
L 375.458945 -325.289843 
L 377.577114 -327.503715 
L 379.695283 -329.717587 
L 381.813452 -331.931458 
L 383.931621 -334.145328 
L 386.04979 -336.3592 
L 388.167959 -338.573067 
L 390.286128 -340.786946 
L 392.404297 -343.000824 
L 394.522466 -345.214681 
L 396.640635 -347.428559 
L 398.758804 -349.642438 
L 400.876973 -351.856294 
L 402.995142 -354.070173 
L 405.113311 -356.284051 
L 407.23148 -358.497908 
L 409.349649 -360.711786 
L 411.467818 -362.925665 
L 413.585987 -365.139521 
L 415.704156 -367.3534 
L 417.822325 -369.567278 
L 419.940494 -371.781135 
L 422.058663 -373.995013 
L 424.176832 -376.208892 
L 426.295001 -378.422748 
L 428.41317 -380.636626 
L 430.531339 -382.850505 
L 432.649508 -385.064361 
L 434.767677 -387.27824 
L 436.885846 -389.492118 
L 439.004015 -391.705975 
L 441.122184 -393.919853 
L 443.240353 -396.133732 
L 445.358522 -398.347588 
L 447.476691 -400.561467 
L 449.59486 -402.775345 
L 451.713029 -404.989202 
L 453.831198 -407.20308 
L 455.949367 -409.416959 
L 458.067536 -411.630815 
L 460.185705 -413.844694 
L 462.303874 -416.058572 
L 464.422043 -418.272428 
L 466.540212 -420.486307 
L 468.658381 -422.700185 
L 470.77655 -424.914042 
L 472.894719 -427.12792 
L 475.012888 -429.341799 
L 477.131057 -431.555655 
L 479.249226 -433.769534 
L 481.367395 -435.983412 
L 483.485564 -438.197269 
L 485.603733 -440.411147 
L 487.721902 -442.625026 
L 489.840071 -444.838882 
L 491.95824 -447.052761 
L 494.076409 -449.266639 
L 496.194578 -451.480496 
L 498.312747 -453.694374 
L 500.430916 -455.908253 
L 502.549085 -458.122109 
L 504.667254 -460.335987 
L 506.785423 -462.549866 
L 508.903592 -464.763722 
L 511.021761 -466.977601 
L 513.13993 -469.191479 
L 515.258099 -471.405336 
L 517.376268 -473.619214 
L 519.494437 -475.833093 
L 521.612606 -478.046949 
L 523.730775 -480.260828 
L 525.848944 -482.474706 
L 527.967113 -484.688563 
L 530.085282 -486.902441 
L 532.203451 -489.11632 
L 534.32162 -491.330176 
L 536.439789 -493.544055 
L 538.557958 -495.757933 
L 540.676127 -497.97179 
L 542.794296 -500.185668 
L 544.912465 -502.399547 
L 547.030634 -504.613403 
L 549.148803 -506.827281 
L 551.266972 -509.04116 
L 553.385141 -511.255016 
L 555.50331 -513.468895 
L 557.621479 -515.682773 
L 559.739648 -517.89663 
L 561.857817 -520.110508 
L 563.975986 -522.324387 
L 566.094155 -524.538243 
L 568.212324 -526.752122 
L 570.330493 -528.966 
L 572.448662 -531.179857 
L 574.566831 -533.393735 
L 576.685 -535.607614 
L 576.685 -515.073678 
L 576.685 -515.073678 
L 574.566831 -512.839601 
L 572.448662 -510.605546 
L 570.330493 -508.371469 
L 568.212324 -506.137413 
L 566.094155 -503.903337 
L 563.975986 -501.66926 
L 561.857817 -499.435204 
L 559.739648 -497.201128 
L 557.621479 -494.967072 
L 555.50331 -492.732995 
L 553.385141 -490.498939 
L 551.266972 -488.264863 
L 549.148803 -486.030807 
L 547.030634 -483.79673 
L 544.912465 -481.562675 
L 542.794296 -479.328598 
L 540.676127 -477.094542 
L 538.557958 -474.860466 
L 536.439789 -472.62641 
L 534.32162 -470.392333 
L 532.203451 -468.158278 
L 530.085282 -465.924201 
L 527.967113 -463.690145 
L 525.848944 -461.456068 
L 523.730775 -459.222013 
L 521.612606 -456.987936 
L 519.494437 -454.75388 
L 517.376268 -452.519804 
L 515.258099 -450.285748 
L 513.13993 -448.051671 
L 511.021761 -445.817595 
L 508.903592 -443.580404 
L 506.785423 -441.338708 
L 504.667254 -439.097032 
L 502.549085 -436.855355 
L 500.430916 -434.613678 
L 498.312747 -432.372002 
L 496.194578 -430.130325 
L 494.076409 -427.888629 
L 491.95824 -425.646953 
L 489.840071 -423.405276 
L 487.721902 -421.1636 
L 485.603733 -418.921923 
L 483.485564 -416.680247 
L 481.367395 -414.438551 
L 479.249226 -412.196874 
L 477.131057 -409.955197 
L 475.012888 -407.713521 
L 472.894719 -405.471844 
L 470.77655 -403.230168 
L 468.658381 -400.988472 
L 466.540212 -398.746795 
L 464.422043 -396.505119 
L 462.303874 -394.263442 
L 460.185705 -392.021766 
L 458.067536 -389.780089 
L 455.949367 -387.538393 
L 453.831198 -385.296716 
L 451.713029 -383.05504 
L 449.59486 -380.813363 
L 447.476691 -378.571687 
L 445.358522 -376.33001 
L 443.240353 -374.088314 
L 441.122184 -371.846638 
L 439.004015 -369.604961 
L 436.885846 -367.363285 
L 434.767677 -365.121608 
L 432.649508 -362.879931 
L 430.531339 -360.638235 
L 428.41317 -358.396559 
L 426.295001 -356.154882 
L 424.176832 -353.913206 
L 422.058663 -351.671529 
L 419.940494 -349.429853 
L 417.822325 -347.188157 
L 415.704156 -344.94648 
L 413.585987 -342.704803 
L 411.467818 -340.463127 
L 409.349649 -338.22145 
L 407.23148 -335.979754 
L 405.113311 -333.738078 
L 402.995142 -331.496401 
L 400.876973 -329.254725 
L 398.758804 -327.013048 
L 396.640635 -324.771372 
L 394.522466 -322.529676 
L 392.404297 -320.287999 
L 390.286128 -318.046322 
L 388.167959 -315.804646 
L 386.04979 -313.562969 
L 383.931621 -311.321285 
L 381.813452 -309.079605 
L 379.695283 -306.837926 
L 377.577114 -304.596246 
L 375.458945 -302.354565 
L 373.340776 -300.112887 
L 371.222607 -297.871206 
L 369.104438 -295.629526 
L 366.986269 -293.387847 
L 364.8681 -291.146167 
L 362.749931 -288.904486 
L 360.631762 -286.662806 
L 358.513593 -284.421127 
L 356.395424 -282.179447 
L 354.277255 -279.937767 
L 352.159086 -277.696088 
L 350.040917 -275.454408 
L 347.922748 -273.212727 
L 345.804579 -270.971047 
L 343.68641 -268.729368 
L 341.568241 -266.487688 
L 339.450072 -264.246007 
L 337.331903 -262.004329 
L 335.213734 -259.762648 
L 333.095565 -257.520968 
L 330.977396 -255.279289 
L 328.859227 -253.037609 
L 326.741058 -250.795928 
L 324.622889 -248.554248 
L 322.50472 -246.31257 
L 320.386551 -244.070889 
L 318.268382 -241.829209 
L 316.150213 -239.58753 
L 314.032044 -237.34585 
L 311.913875 -235.104169 
L 309.795706 -232.862489 
L 307.677537 -230.62081 
L 305.559368 -228.37913 
L 303.441199 -226.137449 
L 301.32303 -223.895771 
L 299.204861 -221.65409 
L 297.086692 -219.41241 
L 294.968523 -217.170732 
L 292.850354 -214.929051 
L 290.732185 -212.687371 
L 288.614016 -210.44569 
L 286.495847 -208.204012 
L 284.377678 -205.962331 
L 282.259509 -203.720651 
L 280.14134 -201.478972 
L 278.023171 -199.237292 
L 275.905002 -196.995611 
L 273.786833 -194.753933 
L 271.668664 -192.512252 
L 269.550495 -190.270572 
L 267.432326 -188.028892 
L 265.314157 -185.787213 
L 263.195988 -183.545533 
L 261.077819 -181.303852 
L 258.95965 -179.062174 
L 256.841481 -176.820493 
L 254.723312 -174.578813 
L 252.605143 -172.337132 
L 250.486974 -170.095454 
L 248.368805 -167.853773 
L 246.250636 -165.623101 
L 244.132467 -163.394276 
L 242.014298 -161.165448 
L 239.896129 -158.93662 
L 237.77796 -156.707791 
L 235.659791 -154.478966 
L 233.541622 -152.250138 
L 231.423453 -150.02131 
L 229.305284 -147.792484 
L 227.187115 -145.563656 
L 225.068946 -143.334828 
L 222.950777 -141.106002 
L 220.832608 -138.877174 
L 218.714439 -136.648347 
L 216.59627 -134.419519 
L 214.478101 -132.190692 
L 212.359932 -129.961865 
L 210.241763 -127.733037 
L 208.123594 -125.50421 
L 206.005425 -123.275383 
L 203.887256 -121.046555 
L 201.769087 -118.817728 
L 199.650918 -116.588901 
L 197.532749 -116.559886 
L 195.41458 -116.559886 
L 193.296411 -116.559886 
L 191.178242 -116.559886 
L 189.060073 -116.559886 
L 186.941904 -116.559886 
L 184.823735 -116.559886 
L 182.705566 -116.559886 
L 180.587397 -116.559886 
L 178.469228 -116.559886 
L 176.351059 -116.559886 
L 174.23289 -116.559886 
L 172.114721 -116.559886 
L 169.996552 -116.559886 
L 167.878383 -116.559886 
L 165.760214 -116.559886 
L 163.642045 -116.559886 
L 161.523876 -116.559886 
L 159.405707 -116.559886 
L 157.287538 -116.559886 
L 155.169369 -116.559886 
z
" id="me8e87bee8b"/>
    </defs>
    <g clip-path="url(#p041de4e6aa)">
     <use style="fill:#dc143c;fill-opacity:0.2;" x="0" xlink:href="#me8e87bee8b" y="576"/>
    </g>
   </g>
   <g id="PolyCollection_2">
    <path clip-path="url(#p041de4e6aa)" d="M 155.169369 446.22463 
L 155.169369 446.224629 
L 157.287538 439.650091 
L 159.405707 433.075554 
L 161.523876 426.501016 
L 163.642045 419.926479 
L 165.760214 413.351942 
L 167.878383 406.777404 
L 169.996552 400.202867 
L 172.114721 393.628329 
L 174.23289 387.053792 
L 176.351059 380.479253 
L 178.469228 373.904715 
L 180.587397 367.330177 
L 182.705566 360.755639 
L 184.823735 354.181101 
L 186.941904 347.606564 
L 189.060073 341.032026 
L 191.178242 334.457488 
L 193.296411 327.882953 
L 195.41458 321.308416 
L 197.532749 314.733881 
L 199.650918 310.580313 
L 201.769087 310.711263 
L 203.887256 310.8422 
L 206.005425 310.973137 
L 208.123594 311.104074 
L 210.241763 311.235011 
L 212.359932 311.365948 
L 214.478101 311.496885 
L 216.59627 311.627822 
L 218.714439 311.758759 
L 220.832608 311.889696 
L 222.950777 312.020646 
L 225.068946 312.151583 
L 227.187115 312.28252 
L 229.305284 312.413457 
L 231.423453 312.544394 
L 233.541622 312.67533 
L 235.659791 312.806267 
L 237.77796 312.937204 
L 239.896129 313.068141 
L 242.014298 313.199078 
L 244.132467 313.330015 
L 246.250636 313.460965 
L 248.368805 313.591902 
L 250.486974 313.722839 
L 252.605143 313.853776 
L 254.723312 313.984713 
L 256.841481 314.11565 
L 258.95965 314.246587 
L 261.077819 314.377524 
L 263.195988 314.508461 
L 265.314157 314.639398 
L 267.432326 314.770347 
L 269.550495 314.901284 
L 271.668664 315.032221 
L 273.786833 315.163158 
L 275.905002 315.294095 
L 278.023171 315.425032 
L 280.14134 315.555969 
L 282.259509 315.686906 
L 284.377678 315.815619 
L 286.495847 315.94327 
L 288.614016 316.070933 
L 290.732185 316.198596 
L 292.850354 316.326259 
L 294.968523 316.453922 
L 297.086692 316.581585 
L 299.204861 316.709248 
L 301.32303 316.836911 
L 303.441199 316.964574 
L 305.559368 317.092237 
L 307.677537 317.2199 
L 309.795706 317.347563 
L 311.913875 317.475226 
L 314.032044 317.602889 
L 316.150213 317.730552 
L 318.268382 317.858215 
L 320.386551 317.985878 
L 322.50472 318.113541 
L 324.622889 318.241204 
L 326.741058 318.368867 
L 328.859227 318.49653 
L 330.977396 318.624181 
L 333.095565 318.751844 
L 335.213734 318.879507 
L 337.331903 319.00717 
L 339.450072 319.134833 
L 341.568241 319.262496 
L 343.68641 319.390159 
L 345.804579 319.517822 
L 347.922748 319.645485 
L 350.040917 319.773148 
L 352.159086 319.900811 
L 354.277255 320.028474 
L 356.395424 320.156137 
L 358.513593 320.2838 
L 360.631762 320.411463 
L 362.749931 320.539126 
L 364.8681 320.666789 
L 366.986269 320.794452 
L 369.104438 320.922115 
L 371.222607 321.049778 
L 373.340776 321.177441 
L 375.458945 321.305092 
L 377.577114 321.432755 
L 379.695283 321.560418 
L 381.813452 321.688081 
L 383.931621 321.815744 
L 386.04979 321.943407 
L 388.167959 322.07107 
L 390.286128 322.198733 
L 392.404297 322.326396 
L 394.522466 322.454059 
L 396.640635 322.581722 
L 398.758804 322.709385 
L 400.876973 322.837048 
L 402.995142 322.964711 
L 405.113311 323.092374 
L 407.23148 323.220037 
L 409.349649 323.3477 
L 411.467818 323.475363 
L 413.585987 323.603026 
L 415.704156 323.730689 
L 417.822325 323.858352 
L 419.940494 323.986003 
L 422.058663 324.113666 
L 424.176832 324.241329 
L 426.295001 324.368992 
L 428.41317 324.496655 
L 430.531339 324.624318 
L 432.649508 324.751981 
L 434.767677 324.879644 
L 436.885846 325.007307 
L 439.004015 325.13497 
L 441.122184 325.262633 
L 443.240353 325.390296 
L 445.358522 325.517959 
L 447.476691 325.645622 
L 449.59486 325.773285 
L 451.713029 325.900948 
L 453.831198 326.028611 
L 455.949367 326.156274 
L 458.067536 326.283937 
L 460.185705 326.4116 
L 462.303874 326.539263 
L 464.422043 326.666914 
L 466.540212 326.794577 
L 468.658381 326.92224 
L 470.77655 327.049903 
L 472.894719 327.177566 
L 475.012888 327.305229 
L 477.131057 327.432892 
L 479.249226 327.560555 
L 481.367395 327.688218 
L 483.485564 327.815881 
L 485.603733 327.943544 
L 487.721902 328.071207 
L 489.840071 328.19887 
L 491.95824 328.326533 
L 494.076409 328.454196 
L 496.194578 328.581859 
L 498.312747 328.709522 
L 500.430916 328.837185 
L 502.549085 328.964848 
L 504.667254 329.092511 
L 506.785423 329.220174 
L 508.903592 329.347825 
L 511.021761 329.488912 
L 513.13993 329.639414 
L 515.258099 329.789916 
L 517.376268 329.940418 
L 519.494437 330.073855 
L 521.612606 330.2005 
L 523.730775 330.327157 
L 525.848944 330.453802 
L 527.967113 330.580459 
L 530.085282 330.707104 
L 532.203451 330.833761 
L 534.32162 330.960405 
L 536.439789 331.08705 
L 538.557958 331.213707 
L 540.676127 331.340352 
L 542.794296 331.467009 
L 544.912465 331.593653 
L 547.030634 331.720311 
L 549.148803 331.846955 
L 551.266972 331.973612 
L 553.385141 332.100257 
L 555.50331 332.226914 
L 557.621479 332.353559 
L 559.739648 332.480216 
L 561.857817 332.60686 
L 563.975986 332.733511 
L 566.094155 332.860161 
L 568.212324 332.986812 
L 570.330493 333.113461 
L 572.448662 333.240112 
L 574.566831 333.366762 
L 576.685 333.493413 
L 576.685 398.1935 
L 576.685 398.1935 
L 574.566831 398.120479 
L 572.448662 398.047458 
L 570.330493 397.974437 
L 568.212324 397.901416 
L 566.094155 397.828395 
L 563.975986 397.755373 
L 561.857817 397.682352 
L 559.739648 397.609331 
L 557.621479 397.53631 
L 555.50331 397.463289 
L 553.385141 397.390268 
L 551.266972 397.317247 
L 549.148803 397.244225 
L 547.030634 397.171205 
L 544.912465 397.098183 
L 542.794296 397.025162 
L 540.676127 396.952141 
L 538.557958 396.87912 
L 536.439789 396.806099 
L 534.32162 396.733078 
L 532.203451 396.660057 
L 530.085282 396.587036 
L 527.967113 396.514014 
L 525.848944 396.440994 
L 523.730775 396.367972 
L 521.612606 396.294951 
L 519.494437 396.22193 
L 517.376268 396.148909 
L 515.258099 396.075888 
L 513.13993 396.002867 
L 511.021761 395.929846 
L 508.903592 395.856824 
L 506.785423 395.783803 
L 504.667254 395.710782 
L 502.549085 395.637761 
L 500.430916 395.56474 
L 498.312747 395.491719 
L 496.194578 395.418698 
L 494.076409 395.345676 
L 491.95824 395.272656 
L 489.840071 395.199635 
L 487.721902 395.126613 
L 485.603733 395.053592 
L 483.485564 394.980571 
L 481.367395 394.90755 
L 479.249226 394.834528 
L 477.131057 394.761508 
L 475.012888 394.688487 
L 472.894719 394.615465 
L 470.77655 394.542444 
L 468.658381 394.469423 
L 466.540212 394.396402 
L 464.422043 394.323381 
L 462.303874 394.25036 
L 460.185705 394.177339 
L 458.067536 394.104317 
L 455.949367 394.031297 
L 453.831198 393.958275 
L 451.713029 393.885254 
L 449.59486 393.812233 
L 447.476691 393.739212 
L 445.358522 393.666191 
L 443.240353 393.59317 
L 441.122184 393.520149 
L 439.004015 393.447127 
L 436.885846 393.374106 
L 434.767677 393.301086 
L 432.649508 393.228064 
L 430.531339 393.155043 
L 428.41317 393.082022 
L 426.295001 393.009001 
L 424.176832 392.935979 
L 422.058663 392.862959 
L 419.940494 392.789938 
L 417.822325 392.716916 
L 415.704156 392.643895 
L 413.585987 392.570874 
L 411.467818 392.497853 
L 409.349649 392.424832 
L 407.23148 392.351811 
L 405.113311 392.27879 
L 402.995142 392.203984 
L 400.876973 392.128913 
L 398.758804 392.053849 
L 396.640635 391.978785 
L 394.522466 391.90372 
L 392.404297 391.828656 
L 390.286128 391.753591 
L 388.167959 391.67852 
L 386.04979 391.603456 
L 383.931621 391.528391 
L 381.813452 391.453327 
L 379.695283 391.378262 
L 377.577114 391.303191 
L 375.458945 391.228127 
L 373.340776 391.153062 
L 371.222607 391.077998 
L 369.104438 391.002933 
L 366.986269 390.927869 
L 364.8681 390.852798 
L 362.749931 390.777734 
L 360.631762 390.702669 
L 358.513593 390.627605 
L 356.395424 390.55254 
L 354.277255 390.477476 
L 352.159086 390.402405 
L 350.040917 390.32734 
L 347.922748 390.252276 
L 345.804579 390.177211 
L 343.68641 390.102147 
L 341.568241 390.027082 
L 339.450072 389.952011 
L 337.331903 389.876947 
L 335.213734 389.801882 
L 333.095565 389.726818 
L 330.977396 389.651753 
L 328.859227 389.576689 
L 326.741058 389.501618 
L 324.622889 389.426554 
L 322.50472 389.351489 
L 320.386551 389.276425 
L 318.268382 389.20136 
L 316.150213 389.126289 
L 314.032044 389.051225 
L 311.913875 388.97616 
L 309.795706 388.901096 
L 307.677537 388.826031 
L 305.559368 388.750967 
L 303.441199 388.675896 
L 301.32303 388.600831 
L 299.204861 388.525767 
L 297.086692 388.450702 
L 294.968523 388.375638 
L 292.850354 388.300573 
L 290.732185 388.225502 
L 288.614016 388.150438 
L 286.495847 388.075374 
L 284.377678 388.000309 
L 282.259509 387.925245 
L 280.14134 387.85018 
L 278.023171 387.775109 
L 275.905002 387.700045 
L 273.786833 387.62498 
L 271.668664 387.549916 
L 269.550495 387.474851 
L 267.432326 387.399787 
L 265.314157 387.324716 
L 263.195988 387.249651 
L 261.077819 387.174587 
L 258.95965 387.099522 
L 256.841481 387.024458 
L 254.723312 386.949387 
L 252.605143 386.874323 
L 250.486974 386.799258 
L 248.368805 386.724194 
L 246.250636 386.649129 
L 244.132467 386.574065 
L 242.014298 386.498994 
L 239.896129 386.423929 
L 237.77796 386.348865 
L 235.659791 386.2738 
L 233.541622 386.198736 
L 231.423453 386.123671 
L 229.305284 386.0486 
L 227.187115 385.973536 
L 225.068946 385.898471 
L 222.950777 385.823407 
L 220.832608 385.748342 
L 218.714439 385.673278 
L 216.59627 385.598207 
L 214.478101 385.523143 
L 212.359932 385.448078 
L 210.241763 385.373014 
L 208.123594 385.297949 
L 206.005425 385.222885 
L 203.887256 385.147814 
L 201.769087 385.072749 
L 199.650918 384.997685 
L 197.532749 384.92262 
L 195.41458 384.847556 
L 193.296411 384.772485 
L 191.178242 384.69742 
L 189.060073 384.622356 
L 186.941904 384.547291 
L 184.823735 384.472227 
L 182.705566 384.397162 
L 180.587397 384.322091 
L 178.469228 384.247027 
L 176.351059 384.171963 
L 174.23289 387.053795 
L 172.114721 393.62833 
L 169.996552 400.202868 
L 167.878383 406.777405 
L 165.760214 413.351943 
L 163.642045 419.92648 
L 161.523876 426.501017 
L 159.405707 433.075555 
L 157.287538 439.650092 
L 155.169369 446.22463 
z
" style="fill:#1f77b4;fill-opacity:0.2;"/>
   </g>
   <g id="PathCollection_1"/>
   <g id="PathCollection_2"/>
   <g id="PathCollection_3"/>
   <g id="PathCollection_4"/>
   <g id="PathCollection_5"/>
   <g id="PathCollection_6"/>
   <g id="PathCollection_7"/>
   <g id="PathCollection_8"/>
   <g id="PathCollection_9"/>
   <g id="PathCollection_10"/>
   <g id="PathCollection_11"/>
   <g id="PathCollection_12"/>
   <g id="PathCollection_13"/>
   <g id="PathCollection_14"/>
   <g id="PathCollection_15"/>
   <g id="PathCollection_16"/>
   <g id="PathCollection_17"/>
   <g id="PathCollection_18"/>
   <g id="line2d_1">
    <path clip-path="url(#p041de4e6aa)" d="M 155.169369 459.440114 
L 186.941904 459.355294 
L 341.568241 296.75925 
L 511.021761 118.659407 
L 566.094155 60.78782 
L 576.685 49.672943 
L 576.685 49.672943 
" style="fill:none;stroke:#dc143c;stroke-linecap:square;stroke-width:2;"/>
   </g>
   <g id="matplotlib.axis_1">
    <g id="xtick_1">
     <g id="text_1">
      <!-- 0.0 -->
      <g transform="translate(135.008511 508.089375)scale(0.2 -0.2)">
       <defs>
        <path d="M 31.78125 66.40625 
Q 24.171875 66.40625 20.328125 58.90625 
Q 16.5 51.421875 16.5 36.375 
Q 16.5 21.390625 20.328125 13.890625 
Q 24.171875 6.390625 31.78125 6.390625 
Q 39.453125 6.390625 43.28125 13.890625 
Q 47.125 21.390625 47.125 36.375 
Q 47.125 51.421875 43.28125 58.90625 
Q 39.453125 66.40625 31.78125 66.40625 
z
M 31.78125 74.21875 
Q 44.046875 74.21875 50.515625 64.515625 
Q 56.984375 54.828125 56.984375 36.375 
Q 56.984375 17.96875 50.515625 8.265625 
Q 44.046875 -1.421875 31.78125 -1.421875 
Q 19.53125 -1.421875 13.0625 8.265625 
Q 6.59375 17.96875 6.59375 36.375 
Q 6.59375 54.828125 13.0625 64.515625 
Q 19.53125 74.21875 31.78125 74.21875 
z
" id="DejaVuSans-48"/>
        <path d="M 10.6875 12.40625 
L 21 12.40625 
L 21 0 
L 10.6875 0 
z
" id="DejaVuSans-46"/>
       </defs>
       <use xlink:href="#DejaVuSans-48"/>
       <use x="63.623047" xlink:href="#DejaVuSans-46"/>
       <use x="95.410156" xlink:href="#DejaVuSans-48"/>
      </g>
     </g>
    </g>
    <g id="xtick_2">
     <g id="text_2">
      <!-- 0.2 -->
      <g transform="translate(220.163183 508.089375)scale(0.2 -0.2)">
       <defs>
        <path d="M 19.1875 8.296875 
L 53.609375 8.296875 
L 53.609375 0 
L 7.328125 0 
L 7.328125 8.296875 
Q 12.9375 14.109375 22.625 23.890625 
Q 32.328125 33.6875 34.8125 36.53125 
Q 39.546875 41.84375 41.421875 45.53125 
Q 43.3125 49.21875 43.3125 52.78125 
Q 43.3125 58.59375 39.234375 62.25 
Q 35.15625 65.921875 28.609375 65.921875 
Q 23.96875 65.921875 18.8125 64.3125 
Q 13.671875 62.703125 7.8125 59.421875 
L 7.8125 69.390625 
Q 13.765625 71.78125 18.9375 73 
Q 24.125 74.21875 28.421875 74.21875 
Q 39.75 74.21875 46.484375 68.546875 
Q 53.21875 62.890625 53.21875 53.421875 
Q 53.21875 48.921875 51.53125 44.890625 
Q 49.859375 40.875 45.40625 35.40625 
Q 44.1875 33.984375 37.640625 27.21875 
Q 31.109375 20.453125 19.1875 8.296875 
z
" id="DejaVuSans-50"/>
       </defs>
       <use xlink:href="#DejaVuSans-48"/>
       <use x="63.623047" xlink:href="#DejaVuSans-46"/>
       <use x="95.410156" xlink:href="#DejaVuSans-50"/>
      </g>
     </g>
    </g>
    <g id="xtick_3">
     <g id="text_3">
      <!-- 0.4 -->
      <g transform="translate(305.317856 508.089375)scale(0.2 -0.2)">
       <defs>
        <path d="M 37.796875 64.3125 
L 12.890625 25.390625 
L 37.796875 25.390625 
z
M 35.203125 72.90625 
L 47.609375 72.90625 
L 47.609375 25.390625 
L 58.015625 25.390625 
L 58.015625 17.1875 
L 47.609375 17.1875 
L 47.609375 0 
L 37.796875 0 
L 37.796875 17.1875 
L 4.890625 17.1875 
L 4.890625 26.703125 
z
" id="DejaVuSans-52"/>
       </defs>
       <use xlink:href="#DejaVuSans-48"/>
       <use x="63.623047" xlink:href="#DejaVuSans-46"/>
       <use x="95.410156" xlink:href="#DejaVuSans-52"/>
      </g>
     </g>
    </g>
    <g id="xtick_4">
     <g id="text_4">
      <!-- 0.6 -->
      <g transform="translate(390.472529 508.089375)scale(0.2 -0.2)">
       <defs>
        <path d="M 33.015625 40.375 
Q 26.375 40.375 22.484375 35.828125 
Q 18.609375 31.296875 18.609375 23.390625 
Q 18.609375 15.53125 22.484375 10.953125 
Q 26.375 6.390625 33.015625 6.390625 
Q 39.65625 6.390625 43.53125 10.953125 
Q 47.40625 15.53125 47.40625 23.390625 
Q 47.40625 31.296875 43.53125 35.828125 
Q 39.65625 40.375 33.015625 40.375 
z
M 52.59375 71.296875 
L 52.59375 62.3125 
Q 48.875 64.0625 45.09375 64.984375 
Q 41.3125 65.921875 37.59375 65.921875 
Q 27.828125 65.921875 22.671875 59.328125 
Q 17.53125 52.734375 16.796875 39.40625 
Q 19.671875 43.65625 24.015625 45.921875 
Q 28.375 48.1875 33.59375 48.1875 
Q 44.578125 48.1875 50.953125 41.515625 
Q 57.328125 34.859375 57.328125 23.390625 
Q 57.328125 12.15625 50.6875 5.359375 
Q 44.046875 -1.421875 33.015625 -1.421875 
Q 20.359375 -1.421875 13.671875 8.265625 
Q 6.984375 17.96875 6.984375 36.375 
Q 6.984375 53.65625 15.1875 63.9375 
Q 23.390625 74.21875 37.203125 74.21875 
Q 40.921875 74.21875 44.703125 73.484375 
Q 48.484375 72.75 52.59375 71.296875 
z
" id="DejaVuSans-54"/>
       </defs>
       <use xlink:href="#DejaVuSans-48"/>
       <use x="63.623047" xlink:href="#DejaVuSans-46"/>
       <use x="95.410156" xlink:href="#DejaVuSans-54"/>
      </g>
     </g>
    </g>
    <g id="xtick_5">
     <g id="text_5">
      <!-- 0.8 -->
      <g transform="translate(475.627202 508.089375)scale(0.2 -0.2)">
       <defs>
        <path d="M 31.78125 34.625 
Q 24.75 34.625 20.71875 30.859375 
Q 16.703125 27.09375 16.703125 20.515625 
Q 16.703125 13.921875 20.71875 10.15625 
Q 24.75 6.390625 31.78125 6.390625 
Q 38.8125 6.390625 42.859375 10.171875 
Q 46.921875 13.96875 46.921875 20.515625 
Q 46.921875 27.09375 42.890625 30.859375 
Q 38.875 34.625 31.78125 34.625 
z
M 21.921875 38.8125 
Q 15.578125 40.375 12.03125 44.71875 
Q 8.5 49.078125 8.5 55.328125 
Q 8.5 64.0625 14.71875 69.140625 
Q 20.953125 74.21875 31.78125 74.21875 
Q 42.671875 74.21875 48.875 69.140625 
Q 55.078125 64.0625 55.078125 55.328125 
Q 55.078125 49.078125 51.53125 44.71875 
Q 48 40.375 41.703125 38.8125 
Q 48.828125 37.15625 52.796875 32.3125 
Q 56.78125 27.484375 56.78125 20.515625 
Q 56.78125 9.90625 50.3125 4.234375 
Q 43.84375 -1.421875 31.78125 -1.421875 
Q 19.734375 -1.421875 13.25 4.234375 
Q 6.78125 9.90625 6.78125 20.515625 
Q 6.78125 27.484375 10.78125 32.3125 
Q 14.796875 37.15625 21.921875 38.8125 
z
M 18.3125 54.390625 
Q 18.3125 48.734375 21.84375 45.5625 
Q 25.390625 42.390625 31.78125 42.390625 
Q 38.140625 42.390625 41.71875 45.5625 
Q 45.3125 48.734375 45.3125 54.390625 
Q 45.3125 60.0625 41.71875 63.234375 
Q 38.140625 66.40625 31.78125 66.40625 
Q 25.390625 66.40625 21.84375 63.234375 
Q 18.3125 60.0625 18.3125 54.390625 
z
" id="DejaVuSans-56"/>
       </defs>
       <use xlink:href="#DejaVuSans-48"/>
       <use x="63.623047" xlink:href="#DejaVuSans-46"/>
       <use x="95.410156" xlink:href="#DejaVuSans-56"/>
      </g>
     </g>
    </g>
    <g id="xtick_6">
     <g id="text_6">
      <!-- 1.0 -->
      <g transform="translate(560.781875 508.089375)scale(0.2 -0.2)">
       <defs>
        <path d="M 12.40625 8.296875 
L 28.515625 8.296875 
L 28.515625 63.921875 
L 10.984375 60.40625 
L 10.984375 69.390625 
L 28.421875 72.90625 
L 38.28125 72.90625 
L 38.28125 8.296875 
L 54.390625 8.296875 
L 54.390625 0 
L 12.40625 0 
z
" id="DejaVuSans-49"/>
       </defs>
       <use xlink:href="#DejaVuSans-49"/>
       <use x="63.623047" xlink:href="#DejaVuSans-46"/>
       <use x="95.410156" xlink:href="#DejaVuSans-48"/>
      </g>
     </g>
    </g>
    <g id="text_7">
     <!-- Glucose Uptake Rate$ \left(\frac{mmol}{g_{protein} \cdot hr^{}}\right)$ -->
     <g transform="translate(174.44125 538.78875)scale(0.23 -0.23)">
      <defs>
       <path d="M 59.515625 10.40625 
L 59.515625 29.984375 
L 43.40625 29.984375 
L 43.40625 38.09375 
L 69.28125 38.09375 
L 69.28125 6.78125 
Q 63.578125 2.734375 56.6875 0.65625 
Q 49.8125 -1.421875 42 -1.421875 
Q 24.90625 -1.421875 15.25 8.5625 
Q 5.609375 18.5625 5.609375 36.375 
Q 5.609375 54.25 15.25 64.234375 
Q 24.90625 74.21875 42 74.21875 
Q 49.125 74.21875 55.546875 72.453125 
Q 61.96875 70.703125 67.390625 67.28125 
L 67.390625 56.78125 
Q 61.921875 61.421875 55.765625 63.765625 
Q 49.609375 66.109375 42.828125 66.109375 
Q 29.4375 66.109375 22.71875 58.640625 
Q 16.015625 51.171875 16.015625 36.375 
Q 16.015625 21.625 22.71875 14.15625 
Q 29.4375 6.6875 42.828125 6.6875 
Q 48.046875 6.6875 52.140625 7.59375 
Q 56.25 8.5 59.515625 10.40625 
z
" id="DejaVuSans-71"/>
       <path d="M 9.421875 75.984375 
L 18.40625 75.984375 
L 18.40625 0 
L 9.421875 0 
z
" id="DejaVuSans-108"/>
       <path d="M 8.5 21.578125 
L 8.5 54.6875 
L 17.484375 54.6875 
L 17.484375 21.921875 
Q 17.484375 14.15625 20.5 10.265625 
Q 23.53125 6.390625 29.59375 6.390625 
Q 36.859375 6.390625 41.078125 11.03125 
Q 45.3125 15.671875 45.3125 23.6875 
L 45.3125 54.6875 
L 54.296875 54.6875 
L 54.296875 0 
L 45.3125 0 
L 45.3125 8.40625 
Q 42.046875 3.421875 37.71875 1 
Q 33.40625 -1.421875 27.6875 -1.421875 
Q 18.265625 -1.421875 13.375 4.4375 
Q 8.5 10.296875 8.5 21.578125 
z
M 31.109375 56 
z
" id="DejaVuSans-117"/>
       <path d="M 48.78125 52.59375 
L 48.78125 44.1875 
Q 44.96875 46.296875 41.140625 47.34375 
Q 37.3125 48.390625 33.40625 48.390625 
Q 24.65625 48.390625 19.8125 42.84375 
Q 14.984375 37.3125 14.984375 27.296875 
Q 14.984375 17.28125 19.8125 11.734375 
Q 24.65625 6.203125 33.40625 6.203125 
Q 37.3125 6.203125 41.140625 7.25 
Q 44.96875 8.296875 48.78125 10.40625 
L 48.78125 2.09375 
Q 45.015625 0.34375 40.984375 -0.53125 
Q 36.96875 -1.421875 32.421875 -1.421875 
Q 20.0625 -1.421875 12.78125 6.34375 
Q 5.515625 14.109375 5.515625 27.296875 
Q 5.515625 40.671875 12.859375 48.328125 
Q 20.21875 56 33.015625 56 
Q 37.15625 56 41.109375 55.140625 
Q 45.0625 54.296875 48.78125 52.59375 
z
" id="DejaVuSans-99"/>
       <path d="M 30.609375 48.390625 
Q 23.390625 48.390625 19.1875 42.75 
Q 14.984375 37.109375 14.984375 27.296875 
Q 14.984375 17.484375 19.15625 11.84375 
Q 23.34375 6.203125 30.609375 6.203125 
Q 37.796875 6.203125 41.984375 11.859375 
Q 46.1875 17.53125 46.1875 27.296875 
Q 46.1875 37.015625 41.984375 42.703125 
Q 37.796875 48.390625 30.609375 48.390625 
z
M 30.609375 56 
Q 42.328125 56 49.015625 48.375 
Q 55.71875 40.765625 55.71875 27.296875 
Q 55.71875 13.875 49.015625 6.21875 
Q 42.328125 -1.421875 30.609375 -1.421875 
Q 18.84375 -1.421875 12.171875 6.21875 
Q 5.515625 13.875 5.515625 27.296875 
Q 5.515625 40.765625 12.171875 48.375 
Q 18.84375 56 30.609375 56 
z
" id="DejaVuSans-111"/>
       <path d="M 44.28125 53.078125 
L 44.28125 44.578125 
Q 40.484375 46.53125 36.375 47.5 
Q 32.28125 48.484375 27.875 48.484375 
Q 21.1875 48.484375 17.84375 46.4375 
Q 14.5 44.390625 14.5 40.28125 
Q 14.5 37.15625 16.890625 35.375 
Q 19.28125 33.59375 26.515625 31.984375 
L 29.59375 31.296875 
Q 39.15625 29.25 43.1875 25.515625 
Q 47.21875 21.78125 47.21875 15.09375 
Q 47.21875 7.46875 41.1875 3.015625 
Q 35.15625 -1.421875 24.609375 -1.421875 
Q 20.21875 -1.421875 15.453125 -0.5625 
Q 10.6875 0.296875 5.421875 2 
L 5.421875 11.28125 
Q 10.40625 8.6875 15.234375 7.390625 
Q 20.0625 6.109375 24.8125 6.109375 
Q 31.15625 6.109375 34.5625 8.28125 
Q 37.984375 10.453125 37.984375 14.40625 
Q 37.984375 18.0625 35.515625 20.015625 
Q 33.0625 21.96875 24.703125 23.78125 
L 21.578125 24.515625 
Q 13.234375 26.265625 9.515625 29.90625 
Q 5.8125 33.546875 5.8125 39.890625 
Q 5.8125 47.609375 11.28125 51.796875 
Q 16.75 56 26.8125 56 
Q 31.78125 56 36.171875 55.265625 
Q 40.578125 54.546875 44.28125 53.078125 
z
" id="DejaVuSans-115"/>
       <path d="M 56.203125 29.59375 
L 56.203125 25.203125 
L 14.890625 25.203125 
Q 15.484375 15.921875 20.484375 11.0625 
Q 25.484375 6.203125 34.421875 6.203125 
Q 39.59375 6.203125 44.453125 7.46875 
Q 49.3125 8.734375 54.109375 11.28125 
L 54.109375 2.78125 
Q 49.265625 0.734375 44.1875 -0.34375 
Q 39.109375 -1.421875 33.890625 -1.421875 
Q 20.796875 -1.421875 13.15625 6.1875 
Q 5.515625 13.8125 5.515625 26.8125 
Q 5.515625 40.234375 12.765625 48.109375 
Q 20.015625 56 32.328125 56 
Q 43.359375 56 49.78125 48.890625 
Q 56.203125 41.796875 56.203125 29.59375 
z
M 47.21875 32.234375 
Q 47.125 39.59375 43.09375 43.984375 
Q 39.0625 48.390625 32.421875 48.390625 
Q 24.90625 48.390625 20.390625 44.140625 
Q 15.875 39.890625 15.1875 32.171875 
z
" id="DejaVuSans-101"/>
       <path id="DejaVuSans-32"/>
       <path d="M 8.6875 72.90625 
L 18.609375 72.90625 
L 18.609375 28.609375 
Q 18.609375 16.890625 22.84375 11.734375 
Q 27.09375 6.59375 36.625 6.59375 
Q 46.09375 6.59375 50.34375 11.734375 
Q 54.59375 16.890625 54.59375 28.609375 
L 54.59375 72.90625 
L 64.5 72.90625 
L 64.5 27.390625 
Q 64.5 13.140625 57.4375 5.859375 
Q 50.390625 -1.421875 36.625 -1.421875 
Q 22.796875 -1.421875 15.734375 5.859375 
Q 8.6875 13.140625 8.6875 27.390625 
z
" id="DejaVuSans-85"/>
       <path d="M 18.109375 8.203125 
L 18.109375 -20.796875 
L 9.078125 -20.796875 
L 9.078125 54.6875 
L 18.109375 54.6875 
L 18.109375 46.390625 
Q 20.953125 51.265625 25.265625 53.625 
Q 29.59375 56 35.59375 56 
Q 45.5625 56 51.78125 48.09375 
Q 58.015625 40.1875 58.015625 27.296875 
Q 58.015625 14.40625 51.78125 6.484375 
Q 45.5625 -1.421875 35.59375 -1.421875 
Q 29.59375 -1.421875 25.265625 0.953125 
Q 20.953125 3.328125 18.109375 8.203125 
z
M 48.6875 27.296875 
Q 48.6875 37.203125 44.609375 42.84375 
Q 40.53125 48.484375 33.40625 48.484375 
Q 26.265625 48.484375 22.1875 42.84375 
Q 18.109375 37.203125 18.109375 27.296875 
Q 18.109375 17.390625 22.1875 11.75 
Q 26.265625 6.109375 33.40625 6.109375 
Q 40.53125 6.109375 44.609375 11.75 
Q 48.6875 17.390625 48.6875 27.296875 
z
" id="DejaVuSans-112"/>
       <path d="M 18.3125 70.21875 
L 18.3125 54.6875 
L 36.8125 54.6875 
L 36.8125 47.703125 
L 18.3125 47.703125 
L 18.3125 18.015625 
Q 18.3125 11.328125 20.140625 9.421875 
Q 21.96875 7.515625 27.59375 7.515625 
L 36.8125 7.515625 
L 36.8125 0 
L 27.59375 0 
Q 17.1875 0 13.234375 3.875 
Q 9.28125 7.765625 9.28125 18.015625 
L 9.28125 47.703125 
L 2.6875 47.703125 
L 2.6875 54.6875 
L 9.28125 54.6875 
L 9.28125 70.21875 
z
" id="DejaVuSans-116"/>
       <path d="M 34.28125 27.484375 
Q 23.390625 27.484375 19.1875 25 
Q 14.984375 22.515625 14.984375 16.5 
Q 14.984375 11.71875 18.140625 8.90625 
Q 21.296875 6.109375 26.703125 6.109375 
Q 34.1875 6.109375 38.703125 11.40625 
Q 43.21875 16.703125 43.21875 25.484375 
L 43.21875 27.484375 
z
M 52.203125 31.203125 
L 52.203125 0 
L 43.21875 0 
L 43.21875 8.296875 
Q 40.140625 3.328125 35.546875 0.953125 
Q 30.953125 -1.421875 24.3125 -1.421875 
Q 15.921875 -1.421875 10.953125 3.296875 
Q 6 8.015625 6 15.921875 
Q 6 25.140625 12.171875 29.828125 
Q 18.359375 34.515625 30.609375 34.515625 
L 43.21875 34.515625 
L 43.21875 35.40625 
Q 43.21875 41.609375 39.140625 45 
Q 35.0625 48.390625 27.6875 48.390625 
Q 23 48.390625 18.546875 47.265625 
Q 14.109375 46.140625 10.015625 43.890625 
L 10.015625 52.203125 
Q 14.9375 54.109375 19.578125 55.046875 
Q 24.21875 56 28.609375 56 
Q 40.484375 56 46.34375 49.84375 
Q 52.203125 43.703125 52.203125 31.203125 
z
" id="DejaVuSans-97"/>
       <path d="M 9.078125 75.984375 
L 18.109375 75.984375 
L 18.109375 31.109375 
L 44.921875 54.6875 
L 56.390625 54.6875 
L 27.390625 29.109375 
L 57.625 0 
L 45.90625 0 
L 18.109375 26.703125 
L 18.109375 0 
L 9.078125 0 
z
" id="DejaVuSans-107"/>
       <path d="M 44.390625 34.1875 
Q 47.5625 33.109375 50.5625 29.59375 
Q 53.5625 26.078125 56.59375 19.921875 
L 66.609375 0 
L 56 0 
L 46.6875 18.703125 
Q 43.0625 26.03125 39.671875 28.421875 
Q 36.28125 30.8125 30.421875 30.8125 
L 19.671875 30.8125 
L 19.671875 0 
L 9.8125 0 
L 9.8125 72.90625 
L 32.078125 72.90625 
Q 44.578125 72.90625 50.734375 67.671875 
Q 56.890625 62.453125 56.890625 51.90625 
Q 56.890625 45.015625 53.6875 40.46875 
Q 50.484375 35.9375 44.390625 34.1875 
z
M 19.671875 64.796875 
L 19.671875 38.921875 
L 32.078125 38.921875 
Q 39.203125 38.921875 42.84375 42.21875 
Q 46.484375 45.515625 46.484375 51.90625 
Q 46.484375 58.296875 42.84375 61.546875 
Q 39.203125 64.796875 32.078125 64.796875 
z
" id="DejaVuSans-82"/>
       <path d="M 50.296875 -24.296875 
L 50.296875 -27.90625 
Q 33.5 -12.09375 23.703125 11.40625 
Q 13.90625 34.90625 13.90625 64.296875 
Q 13.90625 93.796875 23.953125 118.640625 
Q 34 143.5 50.296875 156.59375 
L 50.296875 153.296875 
Q 38.90625 141.59375 31.15625 118.84375 
Q 23.40625 96.09375 23.40625 64.296875 
Q 23.40625 8.796875 50.296875 -24.296875 
z
" id="STIXSizeTwoSym-Regular-40"/>
       <path d="M 89.796875 33.015625 
L 83.40625 0 
L 74.421875 0 
L 80.71875 32.71875 
Q 81.109375 34.8125 81.296875 36.328125 
Q 81.5 37.84375 81.5 38.921875 
Q 81.5 43.3125 79.046875 45.75 
Q 76.609375 48.1875 72.21875 48.1875 
Q 65.671875 48.1875 60.546875 43.28125 
Q 55.421875 38.375 53.90625 30.515625 
L 47.90625 0 
L 38.921875 0 
L 45.3125 32.71875 
Q 45.703125 34.515625 45.890625 36.046875 
Q 46.09375 37.59375 46.09375 38.8125 
Q 46.09375 43.265625 43.65625 45.71875 
Q 41.21875 48.1875 36.921875 48.1875 
Q 30.28125 48.1875 25.140625 43.28125 
Q 20.015625 38.375 18.5 30.515625 
L 12.5 0 
L 3.515625 0 
L 14.203125 54.6875 
L 23.1875 54.6875 
L 21.484375 46.1875 
Q 25.140625 50.984375 30.046875 53.484375 
Q 34.96875 56 40.578125 56 
Q 46.53125 56 50.359375 52.875 
Q 54.203125 49.75 54.984375 44.1875 
Q 59.078125 49.953125 64.46875 52.96875 
Q 69.875 56 75.875 56 
Q 82.90625 56 86.734375 51.953125 
Q 90.578125 47.90625 90.578125 40.484375 
Q 90.578125 38.875 90.375 36.9375 
Q 90.1875 35.015625 89.796875 33.015625 
z
" id="DejaVuSans-Oblique-109"/>
       <path d="M 25.390625 -1.421875 
Q 15.765625 -1.421875 10.171875 4.515625 
Q 4.59375 10.453125 4.59375 20.703125 
Q 4.59375 26.65625 6.515625 32.828125 
Q 8.453125 39.015625 11.53125 43.21875 
Q 16.359375 49.75 22.3125 52.875 
Q 28.265625 56 35.796875 56 
Q 45.125 56 50.859375 50.1875 
Q 56.59375 44.390625 56.59375 35.015625 
Q 56.59375 28.515625 54.6875 22.0625 
Q 52.78125 15.625 49.703125 11.375 
Q 44.921875 4.828125 38.96875 1.703125 
Q 33.015625 -1.421875 25.390625 -1.421875 
z
M 13.921875 21 
Q 13.921875 13.578125 17.015625 9.890625 
Q 20.125 6.203125 26.421875 6.203125 
Q 35.453125 6.203125 41.375 14.078125 
Q 47.3125 21.96875 47.3125 34.078125 
Q 47.3125 41.15625 44.140625 44.765625 
Q 40.96875 48.390625 34.8125 48.390625 
Q 29.734375 48.390625 25.78125 46.015625 
Q 21.828125 43.65625 18.703125 38.8125 
Q 16.40625 35.203125 15.15625 30.5625 
Q 13.921875 25.921875 13.921875 21 
z
" id="DejaVuSans-Oblique-111"/>
       <path d="M 18.3125 75.984375 
L 27.296875 75.984375 
L 12.5 0 
L 3.515625 0 
z
" id="DejaVuSans-Oblique-108"/>
       <path d="M 59.625 54.6875 
L 50.296875 6.78125 
Q 47.609375 -7.125 40.015625 -13.953125 
Q 32.421875 -20.796875 19.578125 -20.796875 
Q 14.84375 -20.796875 10.78125 -20.09375 
Q 6.734375 -19.390625 3.21875 -17.921875 
L 4.890625 -9.1875 
Q 8.203125 -11.328125 11.90625 -12.34375 
Q 15.625 -13.375 19.828125 -13.375 
Q 28.375 -13.375 33.859375 -8.703125 
Q 39.359375 -4.046875 41.109375 4.6875 
L 41.890625 8.796875 
Q 38.140625 4.5 33.15625 2.25 
Q 28.171875 0 22.40625 0 
Q 14.109375 0 9.34375 5.484375 
Q 4.59375 10.984375 4.59375 20.609375 
Q 4.59375 28.171875 7.46875 35.421875 
Q 10.359375 42.671875 15.578125 48.296875 
Q 19.046875 52 23.65625 54 
Q 28.265625 56 33.296875 56 
Q 38.8125 56 42.90625 53.4375 
Q 47.015625 50.875 49.03125 46.1875 
L 50.59375 54.6875 
z
M 46.09375 34.625 
Q 46.09375 41.265625 42.96875 44.875 
Q 39.84375 48.484375 34.078125 48.484375 
Q 30.515625 48.484375 27.296875 47.0625 
Q 24.078125 45.65625 21.78125 43.109375 
Q 18.0625 38.921875 15.984375 33.234375 
Q 13.921875 27.546875 13.921875 21.484375 
Q 13.921875 14.75 17.0625 11.125 
Q 20.21875 7.515625 26.125 7.515625 
Q 34.671875 7.515625 40.375 15.25 
Q 46.09375 23 46.09375 34.625 
z
" id="DejaVuSans-Oblique-103"/>
       <path d="M 49.609375 33.6875 
Q 49.609375 40.875 46.484375 44.671875 
Q 43.359375 48.484375 37.5 48.484375 
Q 33.5 48.484375 29.859375 46.4375 
Q 26.21875 44.390625 23.390625 40.484375 
Q 20.609375 36.625 18.9375 31.15625 
Q 17.28125 25.6875 17.28125 20.3125 
Q 17.28125 13.484375 20.40625 9.796875 
Q 23.53125 6.109375 29.296875 6.109375 
Q 33.546875 6.109375 37.1875 8.109375 
Q 40.828125 10.109375 43.40625 13.921875 
Q 46.1875 17.921875 47.890625 23.34375 
Q 49.609375 28.765625 49.609375 33.6875 
z
M 21.78125 46.390625 
Q 25.390625 51.125 30.296875 53.5625 
Q 35.203125 56 41.21875 56 
Q 49.609375 56 54.25 50.5 
Q 58.890625 45.015625 58.890625 35.109375 
Q 58.890625 27 56 19.65625 
Q 53.125 12.3125 47.703125 6.5 
Q 44.09375 2.640625 39.546875 0.609375 
Q 35.015625 -1.421875 29.984375 -1.421875 
Q 24.171875 -1.421875 20.21875 1 
Q 16.265625 3.421875 14.3125 8.203125 
L 8.6875 -20.796875 
L -0.296875 -20.796875 
L 14.40625 54.6875 
L 23.390625 54.6875 
z
" id="DejaVuSans-Oblique-112"/>
       <path d="M 44.578125 46.390625 
Q 43.21875 47.125 41.453125 47.515625 
Q 39.703125 47.90625 37.703125 47.90625 
Q 30.515625 47.90625 25.140625 42.453125 
Q 19.78125 37.015625 18.015625 27.875 
L 12.5 0 
L 3.515625 0 
L 14.203125 54.6875 
L 23.1875 54.6875 
L 21.484375 46.1875 
Q 25.046875 50.921875 30 53.453125 
Q 34.96875 56 40.578125 56 
Q 42.046875 56 43.453125 55.828125 
Q 44.875 55.671875 46.296875 55.28125 
z
" id="DejaVuSans-Oblique-114"/>
       <path d="M 42.28125 54.6875 
L 40.921875 47.703125 
L 23 47.703125 
L 17.1875 18.015625 
Q 16.890625 16.359375 16.75 15.234375 
Q 16.609375 14.109375 16.609375 13.484375 
Q 16.609375 10.359375 18.484375 8.9375 
Q 20.359375 7.515625 24.515625 7.515625 
L 33.59375 7.515625 
L 32.078125 0 
L 23.484375 0 
Q 15.484375 0 11.546875 3.125 
Q 7.625 6.25 7.625 12.59375 
Q 7.625 13.71875 7.765625 15.0625 
Q 7.90625 16.40625 8.203125 18.015625 
L 14.015625 47.703125 
L 6.390625 47.703125 
L 7.8125 54.6875 
L 15.28125 54.6875 
L 18.3125 70.21875 
L 27.296875 70.21875 
L 24.3125 54.6875 
z
" id="DejaVuSans-Oblique-116"/>
       <path d="M 48.09375 32.234375 
Q 48.25 33.015625 48.3125 33.84375 
Q 48.390625 34.671875 48.390625 35.5 
Q 48.390625 41.453125 44.890625 44.921875 
Q 41.40625 48.390625 35.40625 48.390625 
Q 28.71875 48.390625 23.578125 44.15625 
Q 18.453125 39.9375 15.828125 32.171875 
z
M 55.90625 25.203125 
L 14.109375 25.203125 
Q 13.8125 23.34375 13.71875 22.265625 
Q 13.625 21.1875 13.625 20.40625 
Q 13.625 13.625 17.796875 9.90625 
Q 21.96875 6.203125 29.59375 6.203125 
Q 35.453125 6.203125 40.671875 7.515625 
Q 45.90625 8.84375 50.390625 11.375 
L 48.6875 2.484375 
Q 43.84375 0.53125 38.6875 -0.4375 
Q 33.546875 -1.421875 28.21875 -1.421875 
Q 16.84375 -1.421875 10.71875 4.015625 
Q 4.59375 9.46875 4.59375 19.484375 
Q 4.59375 28.03125 7.640625 35.375 
Q 10.6875 42.71875 16.609375 48.484375 
Q 20.40625 52.09375 25.65625 54.046875 
Q 30.90625 56 36.8125 56 
Q 46.09375 56 51.578125 50.4375 
Q 57.078125 44.875 57.078125 35.5 
Q 57.078125 33.25 56.78125 30.6875 
Q 56.5 28.125 55.90625 25.203125 
z
" id="DejaVuSans-Oblique-101"/>
       <path d="M 18.3125 75.984375 
L 27.296875 75.984375 
L 25.09375 64.59375 
L 16.109375 64.59375 
z
M 14.203125 54.6875 
L 23.1875 54.6875 
L 12.5 0 
L 3.515625 0 
z
" id="DejaVuSans-Oblique-105"/>
       <path d="M 55.71875 33.015625 
L 49.3125 0 
L 40.28125 0 
L 46.6875 32.671875 
Q 47.125 34.96875 47.359375 36.71875 
Q 47.609375 38.484375 47.609375 39.5 
Q 47.609375 43.609375 45.015625 45.890625 
Q 42.4375 48.1875 37.796875 48.1875 
Q 30.5625 48.1875 25.34375 43.375 
Q 20.125 38.578125 18.5 30.328125 
L 12.5 0 
L 3.515625 0 
L 14.109375 54.6875 
L 23.09375 54.6875 
L 21.296875 46.09375 
Q 25.046875 50.828125 30.3125 53.40625 
Q 35.59375 56 41.40625 56 
Q 48.640625 56 52.609375 52.09375 
Q 56.59375 48.1875 56.59375 41.109375 
Q 56.59375 39.359375 56.375 37.359375 
Q 56.15625 35.359375 55.71875 33.015625 
z
" id="DejaVuSans-Oblique-110"/>
       <path d="M 10.6875 40.921875 
L 21 40.921875 
L 21 28.515625 
L 10.6875 28.515625 
z
" id="DejaVuSans-8901"/>
       <path d="M 55.71875 33.015625 
L 49.3125 0 
L 40.28125 0 
L 46.6875 32.671875 
Q 47.125 34.96875 47.359375 36.71875 
Q 47.609375 38.484375 47.609375 39.5 
Q 47.609375 43.609375 45.015625 45.890625 
Q 42.4375 48.1875 37.796875 48.1875 
Q 30.5625 48.1875 25.265625 43.296875 
Q 19.96875 38.421875 18.40625 30.328125 
L 12.5 0 
L 3.515625 0 
L 18.3125 75.984375 
L 27.296875 75.984375 
L 21.484375 46.09375 
Q 24.90625 50.6875 30.21875 53.34375 
Q 35.546875 56 41.40625 56 
Q 48.640625 56 52.609375 52.09375 
Q 56.59375 48.1875 56.59375 41.109375 
Q 56.59375 39.359375 56.375 37.359375 
Q 56.15625 35.359375 55.71875 33.015625 
z
" id="DejaVuSans-Oblique-104"/>
       <path d="M 11.40625 153 
L 11.40625 156.59375 
Q 28.203125 140.796875 38 117.296875 
Q 47.796875 93.796875 47.796875 64.296875 
Q 47.796875 34.90625 37.75 10.046875 
Q 27.703125 -14.796875 11.40625 -27.90625 
L 11.40625 -24.59375 
Q 22.796875 -12.90625 30.546875 9.890625 
Q 38.296875 32.703125 38.296875 64.296875 
Q 38.296875 119.90625 11.40625 153 
z
" id="STIXSizeTwoSym-Regular-41"/>
      </defs>
      <use transform="translate(0 0.01875)" xlink:href="#DejaVuSans-71"/>
      <use transform="translate(77.490234 0.01875)" xlink:href="#DejaVuSans-108"/>
      <use transform="translate(105.273438 0.01875)" xlink:href="#DejaVuSans-117"/>
      <use transform="translate(168.652344 0.01875)" xlink:href="#DejaVuSans-99"/>
      <use transform="translate(223.632812 0.01875)" xlink:href="#DejaVuSans-111"/>
      <use transform="translate(284.814453 0.01875)" xlink:href="#DejaVuSans-115"/>
      <use transform="translate(336.914062 0.01875)" xlink:href="#DejaVuSans-101"/>
      <use transform="translate(398.4375 0.01875)" xlink:href="#DejaVuSans-32"/>
      <use transform="translate(430.224609 0.01875)" xlink:href="#DejaVuSans-85"/>
      <use transform="translate(503.417969 0.01875)" xlink:href="#DejaVuSans-112"/>
      <use transform="translate(566.894531 0.01875)" xlink:href="#DejaVuSans-116"/>
      <use transform="translate(606.103516 0.01875)" xlink:href="#DejaVuSans-97"/>
      <use transform="translate(667.382812 0.01875)" xlink:href="#DejaVuSans-107"/>
      <use transform="translate(725.292969 0.01875)" xlink:href="#DejaVuSans-101"/>
      <use transform="translate(786.816406 0.01875)" xlink:href="#DejaVuSans-32"/>
      <use transform="translate(818.603516 0.01875)" xlink:href="#DejaVuSans-82"/>
      <use transform="translate(888.085938 0.01875)" xlink:href="#DejaVuSans-97"/>
      <use transform="translate(949.365234 0.01875)" xlink:href="#DejaVuSans-116"/>
      <use transform="translate(988.574219 0.01875)" xlink:href="#DejaVuSans-101"/>
      <use transform="translate(1050.097656 -38.063906)scale(0.868825)" xlink:href="#STIXSizeTwoSym-Regular-40"/>
      <use transform="translate(1176.267014 44.810938)scale(0.7)" xlink:href="#DejaVuSans-Oblique-109"/>
      <use transform="translate(1244.45549 44.810938)scale(0.7)" xlink:href="#DejaVuSans-Oblique-109"/>
      <use transform="translate(1312.643967 44.810938)scale(0.7)" xlink:href="#DejaVuSans-Oblique-111"/>
      <use transform="translate(1355.471115 44.810938)scale(0.7)" xlink:href="#DejaVuSans-Oblique-108"/>
      <use transform="translate(1101.267014 -40.623437)scale(0.7)" xlink:href="#DejaVuSans-Oblique-103"/>
      <use transform="translate(1145.700607 -52.107812)scale(0.49)" xlink:href="#DejaVuSans-Oblique-112"/>
      <use transform="translate(1176.804123 -52.107812)scale(0.49)" xlink:href="#DejaVuSans-Oblique-114"/>
      <use transform="translate(1196.949631 -52.107812)scale(0.49)" xlink:href="#DejaVuSans-Oblique-111"/>
      <use transform="translate(1226.928635 -52.107812)scale(0.49)" xlink:href="#DejaVuSans-Oblique-116"/>
      <use transform="translate(1246.141037 -52.107812)scale(0.49)" xlink:href="#DejaVuSans-Oblique-101"/>
      <use transform="translate(1276.287521 -52.107812)scale(0.49)" xlink:href="#DejaVuSans-Oblique-105"/>
      <use transform="translate(1289.901291 -52.107812)scale(0.49)" xlink:href="#DejaVuSans-Oblique-110"/>
      <use transform="translate(1336.508713 -40.623437)scale(0.7)" xlink:href="#DejaVuSans-8901"/>
      <use transform="translate(1372.397385 -40.623437)scale(0.7)" xlink:href="#DejaVuSans-Oblique-104"/>
      <use transform="translate(1416.762619 -40.623437)scale(0.7)" xlink:href="#DejaVuSans-Oblique-114"/>
      <use transform="translate(1463.210905 -38.063906)scale(0.868825)" xlink:href="#STIXSizeTwoSym-Regular-41"/>
      <path d="M 1101.267014 18.815625 
L 1101.267014 25.065625 
L 1450.710905 25.065625 
L 1450.710905 18.815625 
L 1101.267014 18.815625 
z
"/>
     </g>
    </g>
   </g>
   <g id="matplotlib.axis_2">
    <g id="ytick_1">
     <g id="text_8">
      <!-- 0.00 -->
      <g transform="translate(64.07625 467.038551)scale(0.2 -0.2)">
       <use xlink:href="#DejaVuSans-48"/>
       <use x="63.623047" xlink:href="#DejaVuSans-46"/>
       <use x="95.410156" xlink:href="#DejaVuSans-48"/>
       <use x="159.033203" xlink:href="#DejaVuSans-48"/>
      </g>
     </g>
    </g>
    <g id="ytick_2">
     <g id="text_9">
      <!-- 0.25 -->
      <g transform="translate(64.07625 411.974033)scale(0.2 -0.2)">
       <defs>
        <path d="M 10.796875 72.90625 
L 49.515625 72.90625 
L 49.515625 64.59375 
L 19.828125 64.59375 
L 19.828125 46.734375 
Q 21.96875 47.46875 24.109375 47.828125 
Q 26.265625 48.1875 28.421875 48.1875 
Q 40.625 48.1875 47.75 41.5 
Q 54.890625 34.8125 54.890625 23.390625 
Q 54.890625 11.625 47.5625 5.09375 
Q 40.234375 -1.421875 26.90625 -1.421875 
Q 22.3125 -1.421875 17.546875 -0.640625 
Q 12.796875 0.140625 7.71875 1.703125 
L 7.71875 11.625 
Q 12.109375 9.234375 16.796875 8.0625 
Q 21.484375 6.890625 26.703125 6.890625 
Q 35.15625 6.890625 40.078125 11.328125 
Q 45.015625 15.765625 45.015625 23.390625 
Q 45.015625 31 40.078125 35.4375 
Q 35.15625 39.890625 26.703125 39.890625 
Q 22.75 39.890625 18.8125 39.015625 
Q 14.890625 38.140625 10.796875 36.28125 
z
" id="DejaVuSans-53"/>
       </defs>
       <use xlink:href="#DejaVuSans-48"/>
       <use x="63.623047" xlink:href="#DejaVuSans-46"/>
       <use x="95.410156" xlink:href="#DejaVuSans-50"/>
       <use x="159.033203" xlink:href="#DejaVuSans-53"/>
      </g>
     </g>
    </g>
    <g id="ytick_3">
     <g id="text_10">
      <!-- 0.50 -->
      <g transform="translate(64.07625 356.909515)scale(0.2 -0.2)">
       <use xlink:href="#DejaVuSans-48"/>
       <use x="63.623047" xlink:href="#DejaVuSans-46"/>
       <use x="95.410156" xlink:href="#DejaVuSans-53"/>
       <use x="159.033203" xlink:href="#DejaVuSans-48"/>
      </g>
     </g>
    </g>
    <g id="ytick_4">
     <g id="text_11">
      <!-- 0.75 -->
      <g transform="translate(64.07625 301.844997)scale(0.2 -0.2)">
       <defs>
        <path d="M 8.203125 72.90625 
L 55.078125 72.90625 
L 55.078125 68.703125 
L 28.609375 0 
L 18.3125 0 
L 43.21875 64.59375 
L 8.203125 64.59375 
z
" id="DejaVuSans-55"/>
       </defs>
       <use xlink:href="#DejaVuSans-48"/>
       <use x="63.623047" xlink:href="#DejaVuSans-46"/>
       <use x="95.410156" xlink:href="#DejaVuSans-55"/>
       <use x="159.033203" xlink:href="#DejaVuSans-53"/>
      </g>
     </g>
    </g>
    <g id="ytick_5">
     <g id="text_12">
      <!-- 1.00 -->
      <g transform="translate(64.07625 246.780478)scale(0.2 -0.2)">
       <use xlink:href="#DejaVuSans-49"/>
       <use x="63.623047" xlink:href="#DejaVuSans-46"/>
       <use x="95.410156" xlink:href="#DejaVuSans-48"/>
       <use x="159.033203" xlink:href="#DejaVuSans-48"/>
      </g>
     </g>
    </g>
    <g id="ytick_6">
     <g id="text_13">
      <!-- 1.25 -->
      <g transform="translate(64.07625 191.71596)scale(0.2 -0.2)">
       <use xlink:href="#DejaVuSans-49"/>
       <use x="63.623047" xlink:href="#DejaVuSans-46"/>
       <use x="95.410156" xlink:href="#DejaVuSans-50"/>
       <use x="159.033203" xlink:href="#DejaVuSans-53"/>
      </g>
     </g>
    </g>
    <g id="ytick_7">
     <g id="text_14">
      <!-- 1.50 -->
      <g transform="translate(64.07625 136.651442)scale(0.2 -0.2)">
       <use xlink:href="#DejaVuSans-49"/>
       <use x="63.623047" xlink:href="#DejaVuSans-46"/>
       <use x="95.410156" xlink:href="#DejaVuSans-53"/>
       <use x="159.033203" xlink:href="#DejaVuSans-48"/>
      </g>
     </g>
    </g>
    <g id="ytick_8">
     <g id="text_15">
      <!-- 1.75 -->
      <g transform="translate(64.07625 81.586924)scale(0.2 -0.2)">
       <use xlink:href="#DejaVuSans-49"/>
       <use x="63.623047" xlink:href="#DejaVuSans-46"/>
       <use x="95.410156" xlink:href="#DejaVuSans-55"/>
       <use x="159.033203" xlink:href="#DejaVuSans-53"/>
      </g>
     </g>
    </g>
    <g id="text_16">
     <!-- Consumption / Production Rate$ \left(\frac{mmol}{g_{protein} \cdot hr^{}}\right)$ -->
     <g transform="translate(45.58625 482.79125)rotate(-90)scale(0.23 -0.23)">
      <defs>
       <path d="M 64.40625 67.28125 
L 64.40625 56.890625 
Q 59.421875 61.53125 53.78125 63.8125 
Q 48.140625 66.109375 41.796875 66.109375 
Q 29.296875 66.109375 22.65625 58.46875 
Q 16.015625 50.828125 16.015625 36.375 
Q 16.015625 21.96875 22.65625 14.328125 
Q 29.296875 6.6875 41.796875 6.6875 
Q 48.140625 6.6875 53.78125 8.984375 
Q 59.421875 11.28125 64.40625 15.921875 
L 64.40625 5.609375 
Q 59.234375 2.09375 53.4375 0.328125 
Q 47.65625 -1.421875 41.21875 -1.421875 
Q 24.65625 -1.421875 15.125 8.703125 
Q 5.609375 18.84375 5.609375 36.375 
Q 5.609375 53.953125 15.125 64.078125 
Q 24.65625 74.21875 41.21875 74.21875 
Q 47.75 74.21875 53.53125 72.484375 
Q 59.328125 70.75 64.40625 67.28125 
z
" id="DejaVuSans-67"/>
       <path d="M 54.890625 33.015625 
L 54.890625 0 
L 45.90625 0 
L 45.90625 32.71875 
Q 45.90625 40.484375 42.875 44.328125 
Q 39.84375 48.1875 33.796875 48.1875 
Q 26.515625 48.1875 22.3125 43.546875 
Q 18.109375 38.921875 18.109375 30.90625 
L 18.109375 0 
L 9.078125 0 
L 9.078125 54.6875 
L 18.109375 54.6875 
L 18.109375 46.1875 
Q 21.34375 51.125 25.703125 53.5625 
Q 30.078125 56 35.796875 56 
Q 45.21875 56 50.046875 50.171875 
Q 54.890625 44.34375 54.890625 33.015625 
z
" id="DejaVuSans-110"/>
       <path d="M 52 44.1875 
Q 55.375 50.25 60.0625 53.125 
Q 64.75 56 71.09375 56 
Q 79.640625 56 84.28125 50.015625 
Q 88.921875 44.046875 88.921875 33.015625 
L 88.921875 0 
L 79.890625 0 
L 79.890625 32.71875 
Q 79.890625 40.578125 77.09375 44.375 
Q 74.3125 48.1875 68.609375 48.1875 
Q 61.625 48.1875 57.5625 43.546875 
Q 53.515625 38.921875 53.515625 30.90625 
L 53.515625 0 
L 44.484375 0 
L 44.484375 32.71875 
Q 44.484375 40.625 41.703125 44.40625 
Q 38.921875 48.1875 33.109375 48.1875 
Q 26.21875 48.1875 22.15625 43.53125 
Q 18.109375 38.875 18.109375 30.90625 
L 18.109375 0 
L 9.078125 0 
L 9.078125 54.6875 
L 18.109375 54.6875 
L 18.109375 46.1875 
Q 21.1875 51.21875 25.484375 53.609375 
Q 29.78125 56 35.6875 56 
Q 41.65625 56 45.828125 52.96875 
Q 50 49.953125 52 44.1875 
z
" id="DejaVuSans-109"/>
       <path d="M 9.421875 54.6875 
L 18.40625 54.6875 
L 18.40625 0 
L 9.421875 0 
z
M 9.421875 75.984375 
L 18.40625 75.984375 
L 18.40625 64.59375 
L 9.421875 64.59375 
z
" id="DejaVuSans-105"/>
       <path d="M 25.390625 72.90625 
L 33.6875 72.90625 
L 8.296875 -9.28125 
L 0 -9.28125 
z
" id="DejaVuSans-47"/>
       <path d="M 19.671875 64.796875 
L 19.671875 37.40625 
L 32.078125 37.40625 
Q 38.96875 37.40625 42.71875 40.96875 
Q 46.484375 44.53125 46.484375 51.125 
Q 46.484375 57.671875 42.71875 61.234375 
Q 38.96875 64.796875 32.078125 64.796875 
z
M 9.8125 72.90625 
L 32.078125 72.90625 
Q 44.34375 72.90625 50.609375 67.359375 
Q 56.890625 61.8125 56.890625 51.125 
Q 56.890625 40.328125 50.609375 34.8125 
Q 44.34375 29.296875 32.078125 29.296875 
L 19.671875 29.296875 
L 19.671875 0 
L 9.8125 0 
z
" id="DejaVuSans-80"/>
       <path d="M 41.109375 46.296875 
Q 39.59375 47.171875 37.8125 47.578125 
Q 36.03125 48 33.890625 48 
Q 26.265625 48 22.1875 43.046875 
Q 18.109375 38.09375 18.109375 28.8125 
L 18.109375 0 
L 9.078125 0 
L 9.078125 54.6875 
L 18.109375 54.6875 
L 18.109375 46.1875 
Q 20.953125 51.171875 25.484375 53.578125 
Q 30.03125 56 36.53125 56 
Q 37.453125 56 38.578125 55.875 
Q 39.703125 55.765625 41.0625 55.515625 
z
" id="DejaVuSans-114"/>
       <path d="M 45.40625 46.390625 
L 45.40625 75.984375 
L 54.390625 75.984375 
L 54.390625 0 
L 45.40625 0 
L 45.40625 8.203125 
Q 42.578125 3.328125 38.25 0.953125 
Q 33.9375 -1.421875 27.875 -1.421875 
Q 17.96875 -1.421875 11.734375 6.484375 
Q 5.515625 14.40625 5.515625 27.296875 
Q 5.515625 40.1875 11.734375 48.09375 
Q 17.96875 56 27.875 56 
Q 33.9375 56 38.25 53.625 
Q 42.578125 51.265625 45.40625 46.390625 
z
M 14.796875 27.296875 
Q 14.796875 17.390625 18.875 11.75 
Q 22.953125 6.109375 30.078125 6.109375 
Q 37.203125 6.109375 41.296875 11.75 
Q 45.40625 17.390625 45.40625 27.296875 
Q 45.40625 37.203125 41.296875 42.84375 
Q 37.203125 48.484375 30.078125 48.484375 
Q 22.953125 48.484375 18.875 42.84375 
Q 14.796875 37.203125 14.796875 27.296875 
z
" id="DejaVuSans-100"/>
      </defs>
      <use transform="translate(0 0.01875)" xlink:href="#DejaVuSans-67"/>
      <use transform="translate(69.824219 0.01875)" xlink:href="#DejaVuSans-111"/>
      <use transform="translate(131.005859 0.01875)" xlink:href="#DejaVuSans-110"/>
      <use transform="translate(194.384766 0.01875)" xlink:href="#DejaVuSans-115"/>
      <use transform="translate(246.484375 0.01875)" xlink:href="#DejaVuSans-117"/>
      <use transform="translate(309.863281 0.01875)" xlink:href="#DejaVuSans-109"/>
      <use transform="translate(407.275391 0.01875)" xlink:href="#DejaVuSans-112"/>
      <use transform="translate(470.751953 0.01875)" xlink:href="#DejaVuSans-116"/>
      <use transform="translate(509.960938 0.01875)" xlink:href="#DejaVuSans-105"/>
      <use transform="translate(537.744141 0.01875)" xlink:href="#DejaVuSans-111"/>
      <use transform="translate(598.925781 0.01875)" xlink:href="#DejaVuSans-110"/>
      <use transform="translate(662.304688 0.01875)" xlink:href="#DejaVuSans-32"/>
      <use transform="translate(694.091797 0.01875)" xlink:href="#DejaVuSans-47"/>
      <use transform="translate(727.783203 0.01875)" xlink:href="#DejaVuSans-32"/>
      <use transform="translate(759.570312 0.01875)" xlink:href="#DejaVuSans-80"/>
      <use transform="translate(819.873047 0.01875)" xlink:href="#DejaVuSans-114"/>
      <use transform="translate(860.986328 0.01875)" xlink:href="#DejaVuSans-111"/>
      <use transform="translate(922.167969 0.01875)" xlink:href="#DejaVuSans-100"/>
      <use transform="translate(985.644531 0.01875)" xlink:href="#DejaVuSans-117"/>
      <use transform="translate(1049.023438 0.01875)" xlink:href="#DejaVuSans-99"/>
      <use transform="translate(1104.003906 0.01875)" xlink:href="#DejaVuSans-116"/>
      <use transform="translate(1143.212891 0.01875)" xlink:href="#DejaVuSans-105"/>
      <use transform="translate(1170.996094 0.01875)" xlink:href="#DejaVuSans-111"/>
      <use transform="translate(1232.177734 0.01875)" xlink:href="#DejaVuSans-110"/>
      <use transform="translate(1295.556641 0.01875)" xlink:href="#DejaVuSans-32"/>
      <use transform="translate(1327.34375 0.01875)" xlink:href="#DejaVuSans-82"/>
      <use transform="translate(1396.826172 0.01875)" xlink:href="#DejaVuSans-97"/>
      <use transform="translate(1458.105469 0.01875)" xlink:href="#DejaVuSans-116"/>
      <use transform="translate(1497.314453 0.01875)" xlink:href="#DejaVuSans-101"/>
      <use transform="translate(1558.837891 -38.063906)scale(0.868825)" xlink:href="#STIXSizeTwoSym-Regular-40"/>
      <use transform="translate(1685.007248 44.810938)scale(0.7)" xlink:href="#DejaVuSans-Oblique-109"/>
      <use transform="translate(1753.195724 44.810938)scale(0.7)" xlink:href="#DejaVuSans-Oblique-109"/>
      <use transform="translate(1821.384201 44.810938)scale(0.7)" xlink:href="#DejaVuSans-Oblique-111"/>
      <use transform="translate(1864.211349 44.810938)scale(0.7)" xlink:href="#DejaVuSans-Oblique-108"/>
      <use transform="translate(1610.007248 -40.623437)scale(0.7)" xlink:href="#DejaVuSans-Oblique-103"/>
      <use transform="translate(1654.440842 -52.107812)scale(0.49)" xlink:href="#DejaVuSans-Oblique-112"/>
      <use transform="translate(1685.544357 -52.107812)scale(0.49)" xlink:href="#DejaVuSans-Oblique-114"/>
      <use transform="translate(1705.689865 -52.107812)scale(0.49)" xlink:href="#DejaVuSans-Oblique-111"/>
      <use transform="translate(1735.668869 -52.107812)scale(0.49)" xlink:href="#DejaVuSans-Oblique-116"/>
      <use transform="translate(1754.881271 -52.107812)scale(0.49)" xlink:href="#DejaVuSans-Oblique-101"/>
      <use transform="translate(1785.027756 -52.107812)scale(0.49)" xlink:href="#DejaVuSans-Oblique-105"/>
      <use transform="translate(1798.641525 -52.107812)scale(0.49)" xlink:href="#DejaVuSans-Oblique-110"/>
      <use transform="translate(1845.248947 -40.623437)scale(0.7)" xlink:href="#DejaVuSans-8901"/>
      <use transform="translate(1881.137619 -40.623437)scale(0.7)" xlink:href="#DejaVuSans-Oblique-104"/>
      <use transform="translate(1925.502853 -40.623437)scale(0.7)" xlink:href="#DejaVuSans-Oblique-114"/>
      <use transform="translate(1971.95114 -38.063906)scale(0.868825)" xlink:href="#STIXSizeTwoSym-Regular-41"/>
      <path d="M 1610.007248 18.815625 
L 1610.007248 25.065625 
L 1959.45114 25.065625 
L 1959.45114 18.815625 
L 1610.007248 18.815625 
z
"/>
     </g>
    </g>
   </g>
   <g id="line2d_2">
    <path clip-path="url(#p041de4e6aa)" d="M 155.169369 446.224629 
L 186.941904 347.861027 
L 231.423453 350.364971 
L 265.314157 352.21793 
L 294.968523 353.538017 
L 341.568241 355.707926 
L 426.295001 359.746945 
L 506.785423 363.801557 
L 534.32162 365.286452 
L 576.685 367.193192 
L 576.685 367.193192 
" style="fill:none;stroke:#00008b;stroke-linecap:square;stroke-width:2;"/>
   </g>
   <g id="patch_3">
    <path d="M 121.1075 480.3925 
L 121.1075 19.44 
" style="fill:none;stroke:#000000;stroke-linecap:square;stroke-linejoin:miter;stroke-width:1.875;"/>
   </g>
   <g id="patch_4">
    <path d="M 576.685 480.3925 
L 576.685 19.44 
" style="fill:none;stroke:#000000;stroke-linecap:square;stroke-linejoin:miter;stroke-width:1.875;"/>
   </g>
   <g id="patch_5">
    <path d="M 121.1075 480.3925 
L 576.685 480.3925 
" style="fill:none;stroke:#000000;stroke-linecap:square;stroke-linejoin:miter;stroke-width:1.875;"/>
   </g>
   <g id="patch_6">
    <path d="M 121.1075 19.44 
L 576.685 19.44 
" style="fill:none;stroke:#000000;stroke-linecap:square;stroke-linejoin:miter;stroke-width:1.875;"/>
   </g>
   <g id="PathCollection_19">
    <path clip-path="url(#p041de4e6aa)" d="M 249.83298 413.783764 
C 251.510272 413.783764 253.119092 413.117369 254.305116 411.931344 
C 255.491141 410.74532 256.157536 409.1365 256.157536 407.459208 
C 256.157536 405.781917 255.491141 404.173097 254.305116 402.987073 
C 253.119092 401.801048 251.510272 401.134653 249.83298 401.134653 
C 248.155689 401.134653 246.546869 401.801048 245.360844 402.987073 
C 244.17482 404.173097 243.508425 405.781917 243.508425 407.459208 
C 243.508425 409.1365 244.17482 410.74532 245.360844 411.931344 
C 246.546869 413.117369 248.155689 413.783764 249.83298 413.783764 
z
" style="fill:#00008b;fill-opacity:0.9;"/>
    <path clip-path="url(#p041de4e6aa)" d="M 261.61271 418.188925 
C 263.290002 418.188925 264.898822 417.52253 266.084846 416.336506 
C 267.270871 415.150482 267.937266 413.541662 267.937266 411.86437 
C 267.937266 410.187078 267.270871 408.578258 266.084846 407.392234 
C 264.898822 406.20621 263.290002 405.539815 261.61271 405.539815 
C 259.935419 405.539815 258.326599 406.20621 257.140574 407.392234 
C 255.95455 408.578258 255.288155 410.187078 255.288155 411.86437 
C 255.288155 413.541662 255.95455 415.150482 257.140574 416.336506 
C 258.326599 417.52253 259.935419 418.188925 261.61271 418.188925 
z
" style="fill:#00008b;fill-opacity:0.9;"/>
    <path clip-path="url(#p041de4e6aa)" d="M 250.954184 424.840719 
C 252.631476 424.840719 254.240296 424.174324 255.42632 422.9883 
C 256.612344 421.802275 257.278739 420.193455 257.278739 418.516164 
C 257.278739 416.838872 256.612344 415.230052 255.42632 414.044028 
C 254.240296 412.858003 252.631476 412.191608 250.954184 412.191608 
C 249.276892 412.191608 247.668072 412.858003 246.482048 414.044028 
C 245.296024 415.230052 244.629629 416.838872 244.629629 418.516164 
C 244.629629 420.193455 245.296024 421.802275 246.482048 422.9883 
C 247.668072 424.174324 249.276892 424.840719 250.954184 424.840719 
z
" style="fill:#00008b;fill-opacity:0.9;"/>
    <path clip-path="url(#p041de4e6aa)" d="M 414.039575 367.970085 
C 415.716866 367.970085 417.325686 367.30369 418.511711 366.117665 
C 419.697735 364.931641 420.36413 363.322821 420.36413 361.645529 
C 420.36413 359.968238 419.697735 358.359418 418.511711 357.173393 
C 417.325686 355.987369 415.716866 355.320974 414.039575 355.320974 
C 412.362283 355.320974 410.753463 355.987369 409.567439 357.173393 
C 408.381414 358.359418 407.715019 359.968238 407.715019 361.645529 
C 407.715019 363.322821 408.381414 364.931641 409.567439 366.117665 
C 410.753463 367.30369 412.362283 367.970085 414.039575 367.970085 
z
" style="fill:#00008b;fill-opacity:0.9;"/>
    <path clip-path="url(#p041de4e6aa)" d="M 309.015478 423.034603 
C 310.69277 423.034603 312.30159 422.368208 313.487614 421.182183 
C 314.673638 419.996159 315.340033 418.387339 315.340033 416.710048 
C 315.340033 415.032756 314.673638 413.423936 313.487614 412.237912 
C 312.30159 411.051887 310.69277 410.385492 309.015478 410.385492 
C 307.338186 410.385492 305.729366 411.051887 304.543342 412.237912 
C 303.357318 413.423936 302.690923 415.032756 302.690923 416.710048 
C 302.690923 418.387339 303.357318 419.996159 304.543342 421.182183 
C 305.729366 422.368208 307.338186 423.034603 309.015478 423.034603 
z
" style="fill:#00008b;fill-opacity:0.9;"/>
    <path clip-path="url(#p041de4e6aa)" d="M 306.886611 430.03881 
C 308.563903 430.03881 310.172723 429.372415 311.358747 428.18639 
C 312.544772 427.000366 313.211167 425.391546 313.211167 423.714254 
C 313.211167 422.036963 312.544772 420.428143 311.358747 419.242118 
C 310.172723 418.056094 308.563903 417.389699 306.886611 417.389699 
C 305.20932 417.389699 303.6005 418.056094 302.414475 419.242118 
C 301.228451 420.428143 300.562056 422.036963 300.562056 423.714254 
C 300.562056 425.391546 301.228451 427.000366 302.414475 428.18639 
C 303.6005 429.372415 305.20932 430.03881 306.886611 430.03881 
z
" style="fill:#00008b;fill-opacity:0.9;"/>
    <path clip-path="url(#p041de4e6aa)" d="M 439.018279 402.77086 
C 440.695571 402.77086 442.304391 402.104465 443.490415 400.918441 
C 444.676439 399.732416 445.342834 398.123597 445.342834 396.446305 
C 445.342834 394.769013 444.676439 393.160193 443.490415 391.974169 
C 442.304391 390.788145 440.695571 390.12175 439.018279 390.12175 
C 437.340987 390.12175 435.732167 390.788145 434.546143 391.974169 
C 433.360119 393.160193 432.693724 394.769013 432.693724 396.446305 
C 432.693724 398.123597 433.360119 399.732416 434.546143 400.918441 
C 435.732167 402.104465 437.340987 402.77086 439.018279 402.77086 
z
" style="fill:#00008b;fill-opacity:0.9;"/>
    <path clip-path="url(#p041de4e6aa)" d="M 465.416228 406.735505 
C 467.093519 406.735505 468.702339 406.06911 469.888364 404.883086 
C 471.074388 403.697062 471.740783 402.088242 471.740783 400.41095 
C 471.740783 398.733658 471.074388 397.124839 469.888364 395.938814 
C 468.702339 394.75279 467.093519 394.086395 465.416228 394.086395 
C 463.738936 394.086395 462.130116 394.75279 460.944092 395.938814 
C 459.758067 397.124839 459.091672 398.733658 459.091672 400.41095 
C 459.091672 402.088242 459.758067 403.697062 460.944092 404.883086 
C 462.130116 406.06911 463.738936 406.735505 465.416228 406.735505 
z
" style="fill:#00008b;fill-opacity:0.9;"/>
    <path clip-path="url(#p041de4e6aa)" d="M 325.947066 436.558449 
C 327.624357 436.558449 329.233177 435.892053 330.419202 434.706029 
C 331.605226 433.520005 332.271621 431.911185 332.271621 430.233893 
C 332.271621 428.556602 331.605226 426.947782 330.419202 425.761757 
C 329.233177 424.575733 327.624357 423.909338 325.947066 423.909338 
C 324.269774 423.909338 322.660954 424.575733 321.47493 425.761757 
C 320.288905 426.947782 319.62251 428.556602 319.62251 430.233893 
C 319.62251 431.911185 320.288905 433.520005 321.47493 434.706029 
C 322.660954 435.892053 324.269774 436.558449 325.947066 436.558449 
z
" style="fill:#00008b;fill-opacity:0.9;"/>
    <path clip-path="url(#p041de4e6aa)" d="M 154.292075 453.650475 
L 157.454353 450.488197 
L 160.616631 453.650475 
L 163.778908 450.488197 
L 160.616631 447.32592 
L 163.778908 444.163642 
L 160.616631 441.001364 
L 157.454353 444.163642 
L 154.292075 441.001364 
L 151.129798 444.163642 
L 154.292075 447.32592 
L 151.129798 450.488197 
z
" style="fill:#00008b;fill-opacity:0.9;"/>
    <path clip-path="url(#p041de4e6aa)" d="M 249.982273 439.186861 
L 253.144551 436.024584 
L 256.306829 439.186861 
L 259.469106 436.024584 
L 256.306829 432.862306 
L 259.469106 429.700028 
L 256.306829 426.537751 
L 253.144551 429.700028 
L 249.982273 426.537751 
L 246.819996 429.700028 
L 249.982273 432.862306 
L 246.819996 436.024584 
z
" style="fill:#00008b;fill-opacity:0.9;"/>
    <path clip-path="url(#p041de4e6aa)" d="M 421.772942 406.511202 
L 421.772942 415.455474 
L 430.717214 415.455474 
L 430.717214 406.511202 
z
" style="fill:#00008b;fill-opacity:0.9;"/>
    <path clip-path="url(#p041de4e6aa)" d="M 207.560175 366.648536 
L 211.776545 366.648536 
L 211.776545 362.432166 
L 215.992915 362.432166 
L 215.992915 358.215796 
L 211.776545 358.215796 
L 211.776545 353.999426 
L 207.560175 353.999426 
L 207.560175 358.215796 
L 203.343804 358.215796 
L 203.343804 362.432166 
L 207.560175 362.432166 
z
" style="fill:#00008b;fill-opacity:0.9;"/>
    <path clip-path="url(#p041de4e6aa)" d="M 245.575247 328.449489 
L 239.250691 334.774044 
L 245.575247 341.0986 
L 251.899802 334.774044 
z
" style="fill:#00008b;fill-opacity:0.9;"/>
    <path clip-path="url(#p041de4e6aa)" d="M 245.859096 287.922004 
L 239.53454 294.246559 
L 245.859096 300.571114 
L 252.183651 294.246559 
z
" style="fill:#00008b;fill-opacity:0.9;"/>
    <path clip-path="url(#p041de4e6aa)" d="M 156.585066 437.301029 
L 154.348998 441.389516 
L 150.26051 443.625584 
L 154.348998 445.861652 
L 156.585066 449.950139 
L 158.821134 445.861652 
L 162.909621 443.625584 
L 158.821134 441.389516 
z
" style="fill:#00008b;fill-opacity:0.9;"/>
    <path clip-path="url(#p041de4e6aa)" d="M 157.009065 436.552151 
L 154.772997 440.640639 
L 150.684509 442.876707 
L 154.772997 445.112775 
L 157.009065 449.201262 
L 159.245133 445.112775 
L 163.33362 442.876707 
L 159.245133 440.640639 
z
" style="fill:#00008b;fill-opacity:0.9;"/>
    <path clip-path="url(#p041de4e6aa)" d="M 156.948747 438.02788 
L 154.712679 442.116368 
L 150.624192 444.352436 
L 154.712679 446.588504 
L 156.948747 450.676991 
L 159.184815 446.588504 
L 163.273302 444.352436 
L 159.184815 442.116368 
z
" style="fill:#00008b;fill-opacity:0.9;"/>
    <path clip-path="url(#p041de4e6aa)" d="M 468.112792 261.491035 
L 461.788237 274.140146 
L 474.437347 274.140146 
z
" style="fill:#00008b;fill-opacity:0.9;"/>
    <path clip-path="url(#p041de4e6aa)" d="M 199.135215 390.289842 
L 200.445073 394.761978 
L 199.135215 399.234114 
L 203.607351 397.924256 
L 208.079487 399.234114 
L 206.769628 394.761978 
L 208.079487 390.289842 
L 203.607351 391.599701 
z
" style="fill:#00008b;fill-opacity:0.9;"/>
    <path clip-path="url(#p041de4e6aa)" d="M 212.563619 325.680535 
L 218.888174 313.031424 
L 206.239063 313.031424 
z
" style="fill:#00008b;fill-opacity:0.9;"/>
   </g>
   <g id="PathCollection_20">
    <path clip-path="url(#p041de4e6aa)" d="M 249.83298 380.745053 
C 251.510272 380.745053 253.119092 380.078658 254.305116 378.892634 
C 255.491141 377.706609 256.157536 376.097789 256.157536 374.420498 
C 256.157536 372.743206 255.491141 371.134386 254.305116 369.948362 
C 253.119092 368.762337 251.510272 368.095942 249.83298 368.095942 
C 248.155689 368.095942 246.546869 368.762337 245.360844 369.948362 
C 244.17482 371.134386 243.508425 372.743206 243.508425 374.420498 
C 243.508425 376.097789 244.17482 377.706609 245.360844 378.892634 
C 246.546869 380.078658 248.155689 380.745053 249.83298 380.745053 
z
" style="fill:#dc143c;fill-opacity:0.9;"/>
    <path clip-path="url(#p041de4e6aa)" d="M 261.61271 367.089052 
C 263.290002 367.089052 264.898822 366.422657 266.084846 365.236633 
C 267.270871 364.050609 267.937266 362.441789 267.937266 360.764497 
C 267.937266 359.087205 267.270871 357.478385 266.084846 356.292361 
C 264.898822 355.106337 263.290002 354.439942 261.61271 354.439942 
C 259.935419 354.439942 258.326599 355.106337 257.140574 356.292361 
C 255.95455 357.478385 255.288155 359.087205 255.288155 360.764497 
C 255.288155 362.441789 255.95455 364.050609 257.140574 365.236633 
C 258.326599 366.422657 259.935419 367.089052 261.61271 367.089052 
z
" style="fill:#dc143c;fill-opacity:0.9;"/>
    <path clip-path="url(#p041de4e6aa)" d="M 250.954184 375.899375 
C 252.631476 375.899375 254.240296 375.23298 255.42632 374.046956 
C 256.612344 372.860932 257.278739 371.252112 257.278739 369.57482 
C 257.278739 367.897528 256.612344 366.288708 255.42632 365.102684 
C 254.240296 363.91666 252.631476 363.250265 250.954184 363.250265 
C 249.276892 363.250265 247.668072 363.91666 246.482048 365.102684 
C 245.296024 366.288708 244.629629 367.897528 244.629629 369.57482 
C 244.629629 371.252112 245.296024 372.860932 246.482048 374.046956 
C 247.668072 375.23298 249.276892 375.899375 250.954184 375.899375 
z
" style="fill:#dc143c;fill-opacity:0.9;"/>
    <path clip-path="url(#p041de4e6aa)" d="M 414.039575 226.123886 
C 415.716866 226.123886 417.325686 225.457491 418.511711 224.271466 
C 419.697735 223.085442 420.36413 221.476622 420.36413 219.799331 
C 420.36413 218.122039 419.697735 216.513219 418.511711 215.327195 
C 417.325686 214.14117 415.716866 213.474775 414.039575 213.474775 
C 412.362283 213.474775 410.753463 214.14117 409.567439 215.327195 
C 408.381414 216.513219 407.715019 218.122039 407.715019 219.799331 
C 407.715019 221.476622 408.381414 223.085442 409.567439 224.271466 
C 410.753463 225.457491 412.362283 226.123886 414.039575 226.123886 
z
" style="fill:#dc143c;fill-opacity:0.9;"/>
    <path clip-path="url(#p041de4e6aa)" d="M 309.015478 316.429696 
C 310.69277 316.429696 312.30159 315.763301 313.487614 314.577276 
C 314.673638 313.391252 315.340033 311.782432 315.340033 310.10514 
C 315.340033 308.427849 314.673638 306.819029 313.487614 305.633004 
C 312.30159 304.44698 310.69277 303.780585 309.015478 303.780585 
C 307.338186 303.780585 305.729366 304.44698 304.543342 305.633004 
C 303.357318 306.819029 302.690923 308.427849 302.690923 310.10514 
C 302.690923 311.782432 303.357318 313.391252 304.543342 314.577276 
C 305.729366 315.763301 307.338186 316.429696 309.015478 316.429696 
z
" style="fill:#dc143c;fill-opacity:0.9;"/>
    <path clip-path="url(#p041de4e6aa)" d="M 306.886611 316.297541 
C 308.563903 316.297541 310.172723 315.631146 311.358747 314.445121 
C 312.544772 313.259097 313.211167 311.650277 313.211167 309.972986 
C 313.211167 308.295694 312.544772 306.686874 311.358747 305.50085 
C 310.172723 304.314825 308.563903 303.64843 306.886611 303.64843 
C 305.20932 303.64843 303.6005 304.314825 302.414475 305.50085 
C 301.228451 306.686874 300.562056 308.295694 300.562056 309.972986 
C 300.562056 311.650277 301.228451 313.259097 302.414475 314.445121 
C 303.6005 315.631146 305.20932 316.297541 306.886611 316.297541 
z
" style="fill:#dc143c;fill-opacity:0.9;"/>
    <path clip-path="url(#p041de4e6aa)" d="M 439.018279 188.680013 
C 440.695571 188.680013 442.304391 188.013618 443.490415 186.827594 
C 444.676439 185.64157 445.342834 184.03275 445.342834 182.355458 
C 445.342834 180.678167 444.676439 179.069347 443.490415 177.883322 
C 442.304391 176.697298 440.695571 176.030903 439.018279 176.030903 
C 437.340987 176.030903 435.732167 176.697298 434.546143 177.883322 
C 433.360119 179.069347 432.693724 180.678167 432.693724 182.355458 
C 432.693724 184.03275 433.360119 185.64157 434.546143 186.827594 
C 435.732167 188.013618 437.340987 188.680013 439.018279 188.680013 
z
" style="fill:#dc143c;fill-opacity:0.9;"/>
    <path clip-path="url(#p041de4e6aa)" d="M 465.416228 160.046464 
C 467.093519 160.046464 468.702339 159.380069 469.888364 158.194045 
C 471.074388 157.00802 471.740783 155.3992 471.740783 153.721909 
C 471.740783 152.044617 471.074388 150.435797 469.888364 149.249773 
C 468.702339 148.063748 467.093519 147.397353 465.416228 147.397353 
C 463.738936 147.397353 462.130116 148.063748 460.944092 149.249773 
C 459.758067 150.435797 459.091672 152.044617 459.091672 153.721909 
C 459.091672 155.3992 459.758067 157.00802 460.944092 158.194045 
C 462.130116 159.380069 463.738936 160.046464 465.416228 160.046464 
z
" style="fill:#dc143c;fill-opacity:0.9;"/>
    <path clip-path="url(#p041de4e6aa)" d="M 325.947066 294.403888 
C 327.624357 294.403888 329.233177 293.737493 330.419202 292.551469 
C 331.605226 291.365445 332.271621 289.756625 332.271621 288.079333 
C 332.271621 286.402041 331.605226 284.793221 330.419202 283.607197 
C 329.233177 282.421173 327.624357 281.754778 325.947066 281.754778 
C 324.269774 281.754778 322.660954 282.421173 321.47493 283.607197 
C 320.288905 284.793221 319.62251 286.402041 319.62251 288.079333 
C 319.62251 289.756625 320.288905 291.365445 321.47493 292.551469 
C 322.660954 293.737493 324.269774 294.403888 325.947066 294.403888 
z
" style="fill:#dc143c;fill-opacity:0.9;"/>
    <path clip-path="url(#p041de4e6aa)" d="M 154.292075 463.033469 
L 157.454353 459.871191 
L 160.616631 463.033469 
L 163.778908 459.871191 
L 160.616631 456.708914 
L 163.778908 453.546636 
L 160.616631 450.384358 
L 157.454353 453.546636 
L 154.292075 450.384358 
L 151.129798 453.546636 
L 154.292075 456.708914 
L 151.129798 459.871191 
z
" style="fill:#dc143c;fill-opacity:0.9;"/>
    <path clip-path="url(#p041de4e6aa)" d="M 249.982273 368.851117 
L 253.144551 365.688839 
L 256.306829 368.851117 
L 259.469106 365.688839 
L 256.306829 362.526562 
L 259.469106 359.364284 
L 256.306829 356.202006 
L 253.144551 359.364284 
L 249.982273 356.202006 
L 246.819996 359.364284 
L 249.982273 362.526562 
L 246.819996 365.688839 
z
" style="fill:#dc143c;fill-opacity:0.9;"/>
    <path clip-path="url(#p041de4e6aa)" d="M 421.772942 186.253129 
L 421.772942 195.197401 
L 430.717214 195.197401 
L 430.717214 186.253129 
z
" style="fill:#dc143c;fill-opacity:0.9;"/>
    <path clip-path="url(#p041de4e6aa)" d="M 207.560175 438.012152 
L 211.776545 438.012152 
L 211.776545 433.795782 
L 215.992915 433.795782 
L 215.992915 429.579411 
L 211.776545 429.579411 
L 211.776545 425.363041 
L 207.560175 425.363041 
L 207.560175 429.579411 
L 203.343804 429.579411 
L 203.343804 433.795782 
L 207.560175 433.795782 
z
" style="fill:#dc143c;fill-opacity:0.9;"/>
    <path clip-path="url(#p041de4e6aa)" d="M 245.575247 396.729492 
L 239.250691 403.054047 
L 245.575247 409.378602 
L 251.899802 403.054047 
z
" style="fill:#dc143c;fill-opacity:0.9;"/>
    <path clip-path="url(#p041de4e6aa)" d="M 245.859096 409.944976 
L 239.53454 416.269531 
L 245.859096 422.594087 
L 252.183651 416.269531 
z
" style="fill:#dc143c;fill-opacity:0.9;"/>
    <path clip-path="url(#p041de4e6aa)" d="M 156.585066 452.51719 
L 154.348998 456.605678 
L 150.26051 458.841746 
L 154.348998 461.077814 
L 156.585066 465.166301 
L 158.821134 461.077814 
L 162.909621 458.841746 
L 158.821134 456.605678 
z
" style="fill:#dc143c;fill-opacity:0.9;"/>
    <path clip-path="url(#p041de4e6aa)" d="M 157.009065 452.328136 
L 154.772997 456.416623 
L 150.684509 458.652691 
L 154.772997 460.888759 
L 157.009065 464.977246 
L 159.245133 460.888759 
L 163.33362 458.652691 
L 159.245133 456.416623 
z
" style="fill:#dc143c;fill-opacity:0.9;"/>
    <path clip-path="url(#p041de4e6aa)" d="M 156.948747 451.898632 
L 154.712679 455.98712 
L 150.624192 458.223188 
L 154.712679 460.459256 
L 156.948747 464.547743 
L 159.184815 460.459256 
L 163.273302 458.223188 
L 159.184815 455.98712 
z
" style="fill:#dc143c;fill-opacity:0.9;"/>
    <path clip-path="url(#p041de4e6aa)" d="M 468.112792 188.805871 
L 461.788237 201.454982 
L 474.437347 201.454982 
z
" style="fill:#dc143c;fill-opacity:0.9;"/>
    <path clip-path="url(#p041de4e6aa)" d="M 199.135215 422.007005 
L 200.445073 426.479141 
L 199.135215 430.951277 
L 203.607351 429.641418 
L 208.079487 430.951277 
L 206.769628 426.479141 
L 208.079487 422.007005 
L 203.607351 423.316863 
z
" style="fill:#dc143c;fill-opacity:0.9;"/>
    <path clip-path="url(#p041de4e6aa)" d="M 212.563619 448.672643 
L 218.888174 436.023532 
L 206.239063 436.023532 
z
" style="fill:#dc143c;fill-opacity:0.9;"/>
   </g>
   <g id="legend_1">
    <g id="patch_7">
     <path d="M 129.5075 99.495 
L 438.284375 99.495 
Q 440.684375 99.495 440.684375 97.095 
L 440.684375 27.84 
Q 440.684375 25.44 438.284375 25.44 
L 129.5075 25.44 
Q 127.1075 25.44 127.1075 27.84 
L 127.1075 97.095 
Q 127.1075 99.495 129.5075 99.495 
z
" style="fill:#ffffff;opacity:0.8;stroke:#cccccc;stroke-linejoin:miter;stroke-width:1.5;"/>
    </g>
    <g id="line2d_3">
     <path d="M 131.9075 35.158125 
L 155.9075 35.158125 
" style="fill:none;stroke:#dc143c;stroke-linecap:square;stroke-width:4;"/>
    </g>
    <g id="line2d_4"/>
    <g id="text_17">
     <!-- Model Lactate Production -->
     <g transform="translate(165.5075 39.358125)scale(0.12 -0.12)">
      <defs>
       <path d="M 9.8125 72.90625 
L 24.515625 72.90625 
L 43.109375 23.296875 
L 61.8125 72.90625 
L 76.515625 72.90625 
L 76.515625 0 
L 66.890625 0 
L 66.890625 64.015625 
L 48.09375 14.015625 
L 38.1875 14.015625 
L 19.390625 64.015625 
L 19.390625 0 
L 9.8125 0 
z
" id="DejaVuSans-77"/>
       <path d="M 9.8125 72.90625 
L 19.671875 72.90625 
L 19.671875 8.296875 
L 55.171875 8.296875 
L 55.171875 0 
L 9.8125 0 
z
" id="DejaVuSans-76"/>
      </defs>
      <use xlink:href="#DejaVuSans-77"/>
      <use x="86.279297" xlink:href="#DejaVuSans-111"/>
      <use x="147.460938" xlink:href="#DejaVuSans-100"/>
      <use x="210.9375" xlink:href="#DejaVuSans-101"/>
      <use x="272.460938" xlink:href="#DejaVuSans-108"/>
      <use x="300.244141" xlink:href="#DejaVuSans-32"/>
      <use x="332.03125" xlink:href="#DejaVuSans-76"/>
      <use x="387.744141" xlink:href="#DejaVuSans-97"/>
      <use x="449.023438" xlink:href="#DejaVuSans-99"/>
      <use x="504.003906" xlink:href="#DejaVuSans-116"/>
      <use x="543.212891" xlink:href="#DejaVuSans-97"/>
      <use x="604.492188" xlink:href="#DejaVuSans-116"/>
      <use x="643.701172" xlink:href="#DejaVuSans-101"/>
      <use x="705.224609" xlink:href="#DejaVuSans-32"/>
      <use x="737.011719" xlink:href="#DejaVuSans-80"/>
      <use x="795.564453" xlink:href="#DejaVuSans-114"/>
      <use x="834.427734" xlink:href="#DejaVuSans-111"/>
      <use x="895.609375" xlink:href="#DejaVuSans-100"/>
      <use x="959.085938" xlink:href="#DejaVuSans-117"/>
      <use x="1022.464844" xlink:href="#DejaVuSans-99"/>
      <use x="1077.445312" xlink:href="#DejaVuSans-116"/>
      <use x="1116.654297" xlink:href="#DejaVuSans-105"/>
      <use x="1144.4375" xlink:href="#DejaVuSans-111"/>
      <use x="1205.619141" xlink:href="#DejaVuSans-110"/>
     </g>
    </g>
    <g id="line2d_5">
     <path d="M 131.9075 52.771875 
L 155.9075 52.771875 
" style="fill:none;stroke:#00008b;stroke-linecap:square;stroke-width:4;"/>
    </g>
    <g id="line2d_6"/>
    <g id="text_18">
     <!-- Model Oxygen Consumption -->
     <g transform="translate(165.5075 56.971875)scale(0.12 -0.12)">
      <defs>
       <path d="M 39.40625 66.21875 
Q 28.65625 66.21875 22.328125 58.203125 
Q 16.015625 50.203125 16.015625 36.375 
Q 16.015625 22.609375 22.328125 14.59375 
Q 28.65625 6.59375 39.40625 6.59375 
Q 50.140625 6.59375 56.421875 14.59375 
Q 62.703125 22.609375 62.703125 36.375 
Q 62.703125 50.203125 56.421875 58.203125 
Q 50.140625 66.21875 39.40625 66.21875 
z
M 39.40625 74.21875 
Q 54.734375 74.21875 63.90625 63.9375 
Q 73.09375 53.65625 73.09375 36.375 
Q 73.09375 19.140625 63.90625 8.859375 
Q 54.734375 -1.421875 39.40625 -1.421875 
Q 24.03125 -1.421875 14.8125 8.828125 
Q 5.609375 19.09375 5.609375 36.375 
Q 5.609375 53.65625 14.8125 63.9375 
Q 24.03125 74.21875 39.40625 74.21875 
z
" id="DejaVuSans-79"/>
       <path d="M 54.890625 54.6875 
L 35.109375 28.078125 
L 55.90625 0 
L 45.3125 0 
L 29.390625 21.484375 
L 13.484375 0 
L 2.875 0 
L 24.125 28.609375 
L 4.6875 54.6875 
L 15.28125 54.6875 
L 29.78125 35.203125 
L 44.28125 54.6875 
z
" id="DejaVuSans-120"/>
       <path d="M 32.171875 -5.078125 
Q 28.375 -14.84375 24.75 -17.8125 
Q 21.140625 -20.796875 15.09375 -20.796875 
L 7.90625 -20.796875 
L 7.90625 -13.28125 
L 13.1875 -13.28125 
Q 16.890625 -13.28125 18.9375 -11.515625 
Q 21 -9.765625 23.484375 -3.21875 
L 25.09375 0.875 
L 2.984375 54.6875 
L 12.5 54.6875 
L 29.59375 11.921875 
L 46.6875 54.6875 
L 56.203125 54.6875 
z
" id="DejaVuSans-121"/>
       <path d="M 45.40625 27.984375 
Q 45.40625 37.75 41.375 43.109375 
Q 37.359375 48.484375 30.078125 48.484375 
Q 22.859375 48.484375 18.828125 43.109375 
Q 14.796875 37.75 14.796875 27.984375 
Q 14.796875 18.265625 18.828125 12.890625 
Q 22.859375 7.515625 30.078125 7.515625 
Q 37.359375 7.515625 41.375 12.890625 
Q 45.40625 18.265625 45.40625 27.984375 
z
M 54.390625 6.78125 
Q 54.390625 -7.171875 48.1875 -13.984375 
Q 42 -20.796875 29.203125 -20.796875 
Q 24.46875 -20.796875 20.265625 -20.09375 
Q 16.0625 -19.390625 12.109375 -17.921875 
L 12.109375 -9.1875 
Q 16.0625 -11.328125 19.921875 -12.34375 
Q 23.78125 -13.375 27.78125 -13.375 
Q 36.625 -13.375 41.015625 -8.765625 
Q 45.40625 -4.15625 45.40625 5.171875 
L 45.40625 9.625 
Q 42.625 4.78125 38.28125 2.390625 
Q 33.9375 0 27.875 0 
Q 17.828125 0 11.671875 7.65625 
Q 5.515625 15.328125 5.515625 27.984375 
Q 5.515625 40.671875 11.671875 48.328125 
Q 17.828125 56 27.875 56 
Q 33.9375 56 38.28125 53.609375 
Q 42.625 51.21875 45.40625 46.390625 
L 45.40625 54.6875 
L 54.390625 54.6875 
z
" id="DejaVuSans-103"/>
      </defs>
      <use xlink:href="#DejaVuSans-77"/>
      <use x="86.279297" xlink:href="#DejaVuSans-111"/>
      <use x="147.460938" xlink:href="#DejaVuSans-100"/>
      <use x="210.9375" xlink:href="#DejaVuSans-101"/>
      <use x="272.460938" xlink:href="#DejaVuSans-108"/>
      <use x="300.244141" xlink:href="#DejaVuSans-32"/>
      <use x="332.03125" xlink:href="#DejaVuSans-79"/>
      <use x="410.742188" xlink:href="#DejaVuSans-120"/>
      <use x="469.921875" xlink:href="#DejaVuSans-121"/>
      <use x="529.101562" xlink:href="#DejaVuSans-103"/>
      <use x="592.578125" xlink:href="#DejaVuSans-101"/>
      <use x="654.101562" xlink:href="#DejaVuSans-110"/>
      <use x="717.480469" xlink:href="#DejaVuSans-32"/>
      <use x="749.267578" xlink:href="#DejaVuSans-67"/>
      <use x="819.091797" xlink:href="#DejaVuSans-111"/>
      <use x="880.273438" xlink:href="#DejaVuSans-110"/>
      <use x="943.652344" xlink:href="#DejaVuSans-115"/>
      <use x="995.751953" xlink:href="#DejaVuSans-117"/>
      <use x="1059.130859" xlink:href="#DejaVuSans-109"/>
      <use x="1156.542969" xlink:href="#DejaVuSans-112"/>
      <use x="1220.019531" xlink:href="#DejaVuSans-116"/>
      <use x="1259.228516" xlink:href="#DejaVuSans-105"/>
      <use x="1287.011719" xlink:href="#DejaVuSans-111"/>
      <use x="1348.193359" xlink:href="#DejaVuSans-110"/>
     </g>
    </g>
    <g id="line2d_7"/>
    <g id="line2d_8">
     <defs>
      <path d="M 0 4.5 
C 1.193414 4.5 2.338109 4.025852 3.181981 3.181981 
C 4.025852 2.338109 4.5 1.193414 4.5 0 
C 4.5 -1.193414 4.025852 -2.338109 3.181981 -3.181981 
C 2.338109 -4.025852 1.193414 -4.5 0 -4.5 
C -1.193414 -4.5 -2.338109 -4.025852 -3.181981 -3.181981 
C -4.025852 -2.338109 -4.5 -1.193414 -4.5 0 
C -4.5 1.193414 -4.025852 2.338109 -3.181981 3.181981 
C -2.338109 4.025852 -1.193414 4.5 0 4.5 
z
" id="md56bf20cc7" style="stroke:#dc143c;"/>
     </defs>
     <g>
      <use style="fill:#dc143c;stroke:#dc143c;" x="143.9075" xlink:href="#md56bf20cc7" y="70.385625"/>
     </g>
    </g>
    <g id="text_19">
     <!-- Lactate Production (mmol gprotein-1 hr-1) -->
     <g transform="translate(165.5075 74.585625)scale(0.12 -0.12)">
      <defs>
       <path d="M 31 75.875 
Q 24.46875 64.65625 21.28125 53.65625 
Q 18.109375 42.671875 18.109375 31.390625 
Q 18.109375 20.125 21.3125 9.0625 
Q 24.515625 -2 31 -13.1875 
L 23.1875 -13.1875 
Q 15.875 -1.703125 12.234375 9.375 
Q 8.59375 20.453125 8.59375 31.390625 
Q 8.59375 42.28125 12.203125 53.3125 
Q 15.828125 64.359375 23.1875 75.875 
z
" id="DejaVuSans-40"/>
       <path d="M 4.890625 31.390625 
L 31.203125 31.390625 
L 31.203125 23.390625 
L 4.890625 23.390625 
z
" id="DejaVuSans-45"/>
       <path d="M 54.890625 33.015625 
L 54.890625 0 
L 45.90625 0 
L 45.90625 32.71875 
Q 45.90625 40.484375 42.875 44.328125 
Q 39.84375 48.1875 33.796875 48.1875 
Q 26.515625 48.1875 22.3125 43.546875 
Q 18.109375 38.921875 18.109375 30.90625 
L 18.109375 0 
L 9.078125 0 
L 9.078125 75.984375 
L 18.109375 75.984375 
L 18.109375 46.1875 
Q 21.34375 51.125 25.703125 53.5625 
Q 30.078125 56 35.796875 56 
Q 45.21875 56 50.046875 50.171875 
Q 54.890625 44.34375 54.890625 33.015625 
z
" id="DejaVuSans-104"/>
       <path d="M 8.015625 75.875 
L 15.828125 75.875 
Q 23.140625 64.359375 26.78125 53.3125 
Q 30.421875 42.28125 30.421875 31.390625 
Q 30.421875 20.453125 26.78125 9.375 
Q 23.140625 -1.703125 15.828125 -13.1875 
L 8.015625 -13.1875 
Q 14.5 -2 17.703125 9.0625 
Q 20.90625 20.125 20.90625 31.390625 
Q 20.90625 42.671875 17.703125 53.65625 
Q 14.5 64.65625 8.015625 75.875 
z
" id="DejaVuSans-41"/>
      </defs>
      <use xlink:href="#DejaVuSans-76"/>
      <use x="55.712891" xlink:href="#DejaVuSans-97"/>
      <use x="116.992188" xlink:href="#DejaVuSans-99"/>
      <use x="171.972656" xlink:href="#DejaVuSans-116"/>
      <use x="211.181641" xlink:href="#DejaVuSans-97"/>
      <use x="272.460938" xlink:href="#DejaVuSans-116"/>
      <use x="311.669922" xlink:href="#DejaVuSans-101"/>
      <use x="373.193359" xlink:href="#DejaVuSans-32"/>
      <use x="404.980469" xlink:href="#DejaVuSans-80"/>
      <use x="463.533203" xlink:href="#DejaVuSans-114"/>
      <use x="502.396484" xlink:href="#DejaVuSans-111"/>
      <use x="563.578125" xlink:href="#DejaVuSans-100"/>
      <use x="627.054688" xlink:href="#DejaVuSans-117"/>
      <use x="690.433594" xlink:href="#DejaVuSans-99"/>
      <use x="745.414062" xlink:href="#DejaVuSans-116"/>
      <use x="784.623047" xlink:href="#DejaVuSans-105"/>
      <use x="812.40625" xlink:href="#DejaVuSans-111"/>
      <use x="873.587891" xlink:href="#DejaVuSans-110"/>
      <use x="936.966797" xlink:href="#DejaVuSans-32"/>
      <use x="968.753906" xlink:href="#DejaVuSans-40"/>
      <use x="1007.767578" xlink:href="#DejaVuSans-109"/>
      <use x="1105.179688" xlink:href="#DejaVuSans-109"/>
      <use x="1202.591797" xlink:href="#DejaVuSans-111"/>
      <use x="1263.773438" xlink:href="#DejaVuSans-108"/>
      <use x="1291.556641" xlink:href="#DejaVuSans-32"/>
      <use x="1323.34375" xlink:href="#DejaVuSans-103"/>
      <use x="1386.820312" xlink:href="#DejaVuSans-112"/>
      <use x="1450.296875" xlink:href="#DejaVuSans-114"/>
      <use x="1489.160156" xlink:href="#DejaVuSans-111"/>
      <use x="1550.341797" xlink:href="#DejaVuSans-116"/>
      <use x="1589.550781" xlink:href="#DejaVuSans-101"/>
      <use x="1651.074219" xlink:href="#DejaVuSans-105"/>
      <use x="1678.857422" xlink:href="#DejaVuSans-110"/>
      <use x="1742.236328" xlink:href="#DejaVuSans-45"/>
      <use x="1778.320312" xlink:href="#DejaVuSans-49"/>
      <use x="1841.943359" xlink:href="#DejaVuSans-32"/>
      <use x="1873.730469" xlink:href="#DejaVuSans-104"/>
      <use x="1937.109375" xlink:href="#DejaVuSans-114"/>
      <use x="1971.847656" xlink:href="#DejaVuSans-45"/>
      <use x="2007.931641" xlink:href="#DejaVuSans-49"/>
      <use x="2071.554688" xlink:href="#DejaVuSans-41"/>
     </g>
    </g>
    <g id="line2d_9"/>
    <g id="line2d_10">
     <defs>
      <path d="M 0 4.5 
C 1.193414 4.5 2.338109 4.025852 3.181981 3.181981 
C 4.025852 2.338109 4.5 1.193414 4.5 0 
C 4.5 -1.193414 4.025852 -2.338109 3.181981 -3.181981 
C 2.338109 -4.025852 1.193414 -4.5 0 -4.5 
C -1.193414 -4.5 -2.338109 -4.025852 -3.181981 -3.181981 
C -4.025852 -2.338109 -4.5 -1.193414 -4.5 0 
C -4.5 1.193414 -4.025852 2.338109 -3.181981 3.181981 
C -2.338109 4.025852 -1.193414 4.5 0 4.5 
z
" id="mcf3397f115" style="stroke:#00008b;"/>
     </defs>
     <g>
      <use style="fill:#00008b;stroke:#00008b;" x="143.9075" xlink:href="#mcf3397f115" y="87.999375"/>
     </g>
    </g>
    <g id="text_20">
     <!-- Oxygen Consumption (mmol gprotein-1 hr-1) -->
     <g transform="translate(165.5075 92.199375)scale(0.12 -0.12)">
      <use xlink:href="#DejaVuSans-79"/>
      <use x="78.710938" xlink:href="#DejaVuSans-120"/>
      <use x="137.890625" xlink:href="#DejaVuSans-121"/>
      <use x="197.070312" xlink:href="#DejaVuSans-103"/>
      <use x="260.546875" xlink:href="#DejaVuSans-101"/>
      <use x="322.070312" xlink:href="#DejaVuSans-110"/>
      <use x="385.449219" xlink:href="#DejaVuSans-32"/>
      <use x="417.236328" xlink:href="#DejaVuSans-67"/>
      <use x="487.060547" xlink:href="#DejaVuSans-111"/>
      <use x="548.242188" xlink:href="#DejaVuSans-110"/>
      <use x="611.621094" xlink:href="#DejaVuSans-115"/>
      <use x="663.720703" xlink:href="#DejaVuSans-117"/>
      <use x="727.099609" xlink:href="#DejaVuSans-109"/>
      <use x="824.511719" xlink:href="#DejaVuSans-112"/>
      <use x="887.988281" xlink:href="#DejaVuSans-116"/>
      <use x="927.197266" xlink:href="#DejaVuSans-105"/>
      <use x="954.980469" xlink:href="#DejaVuSans-111"/>
      <use x="1016.162109" xlink:href="#DejaVuSans-110"/>
      <use x="1079.541016" xlink:href="#DejaVuSans-32"/>
      <use x="1111.328125" xlink:href="#DejaVuSans-40"/>
      <use x="1150.341797" xlink:href="#DejaVuSans-109"/>
      <use x="1247.753906" xlink:href="#DejaVuSans-109"/>
      <use x="1345.166016" xlink:href="#DejaVuSans-111"/>
      <use x="1406.347656" xlink:href="#DejaVuSans-108"/>
      <use x="1434.130859" xlink:href="#DejaVuSans-32"/>
      <use x="1465.917969" xlink:href="#DejaVuSans-103"/>
      <use x="1529.394531" xlink:href="#DejaVuSans-112"/>
      <use x="1592.871094" xlink:href="#DejaVuSans-114"/>
      <use x="1631.734375" xlink:href="#DejaVuSans-111"/>
      <use x="1692.916016" xlink:href="#DejaVuSans-116"/>
      <use x="1732.125" xlink:href="#DejaVuSans-101"/>
      <use x="1793.648438" xlink:href="#DejaVuSans-105"/>
      <use x="1821.431641" xlink:href="#DejaVuSans-110"/>
      <use x="1884.810547" xlink:href="#DejaVuSans-45"/>
      <use x="1920.894531" xlink:href="#DejaVuSans-49"/>
      <use x="1984.517578" xlink:href="#DejaVuSans-32"/>
      <use x="2016.304688" xlink:href="#DejaVuSans-104"/>
      <use x="2079.683594" xlink:href="#DejaVuSans-114"/>
      <use x="2114.421875" xlink:href="#DejaVuSans-45"/>
      <use x="2150.505859" xlink:href="#DejaVuSans-49"/>
      <use x="2214.128906" xlink:href="#DejaVuSans-41"/>
     </g>
    </g>
   </g>
  </g>
 </g>
 <defs>
  <clipPath id="p041de4e6aa">
   <rect height="460.9525" width="455.5775" x="121.1075" y="19.44"/>
  </clipPath>
 </defs>
</svg>
