<?xml version="1.0" encoding="utf-8" standalone="no"?>
<!DOCTYPE svg PUBLIC "-//W3C//DTD SVG 1.1//EN"
  "http://www.w3.org/Graphics/SVG/1.1/DTD/svg11.dtd">
<!-- Created with matplotlib (https://matplotlib.org/) -->
<svg height="576pt" version="1.1" viewBox="0 0 576 576" width="576pt" xmlns="http://www.w3.org/2000/svg" xmlns:xlink="http://www.w3.org/1999/xlink">
 <metadata>
  <rdf:RDF xmlns:cc="http://creativecommons.org/ns#" xmlns:dc="http://purl.org/dc/elements/1.1/" xmlns:rdf="http://www.w3.org/1999/02/22-rdf-syntax-ns#">
   <cc:Work>
    <dc:type rdf:resource="http://purl.org/dc/dcmitype/StillImage"/>
    <dc:date>2023-01-24T15:20:42.271145</dc:date>
    <dc:format>image/svg+xml</dc:format>
    <dc:creator>
     <cc:Agent>
      <dc:title>Matplotlib v3.3.4, https://matplotlib.org/</dc:title>
     </cc:Agent>
    </dc:creator>
   </cc:Work>
  </rdf:RDF>
 </metadata>
 <defs>
  <style type="text/css">*{stroke-linecap:butt;stroke-linejoin:round;}</style>
 </defs>
 <g id="figure_1">
  <g id="patch_1">
   <path d="M 0 576 
L 576 576 
L 576 0 
L 0 0 
z
" style="fill:none;"/>
  </g>
  <g id="axes_1">
   <g id="patch_2">
    <path d="M 96.6075 485.8925 
L 556.56 485.8925 
L 556.56 19.44 
L 96.6075 19.44 
z
" style="fill:#ffffff;"/>
   </g>
   <g id="PathCollection_1"/>
   <g id="PathCollection_2"/>
   <g id="PathCollection_3"/>
   <g id="PathCollection_4"/>
   <g id="PathCollection_5"/>
   <g id="PathCollection_6"/>
   <g id="PathCollection_7"/>
   <g id="PathCollection_8"/>
   <g id="PathCollection_9"/>
   <g id="PathCollection_10"/>
   <g id="PathCollection_11"/>
   <g id="PathCollection_12"/>
   <g id="patch_3">
    <path clip-path="url(#p09d994e04e)" d="M 357.987542 485.8925 
L 357.987542 19.44 
L 556.56 19.44 
L 556.56 485.8925 
z
" style="fill:#dc143c;opacity:0.5;stroke:#dc143c;stroke-linejoin:miter;stroke-width:1.5;"/>
   </g>
   <g id="matplotlib.axis_1">
    <g id="xtick_1">
     <g id="line2d_1">
      <defs>
       <path d="M 0 0 
L 0 3.5 
" id="m6891069a36" style="stroke:#000000;stroke-width:0.8;"/>
      </defs>
      <g>
       <use style="stroke:#000000;stroke-width:0.8;" x="136.60337" xlink:href="#m6891069a36" y="485.8925"/>
      </g>
     </g>
     <g id="text_1">
      <!-- 0 -->
      <g transform="translate(130.24087 508.089375)scale(0.2 -0.2)">
       <defs>
        <path d="M 31.78125 66.40625 
Q 24.171875 66.40625 20.328125 58.90625 
Q 16.5 51.421875 16.5 36.375 
Q 16.5 21.390625 20.328125 13.890625 
Q 24.171875 6.390625 31.78125 6.390625 
Q 39.453125 6.390625 43.28125 13.890625 
Q 47.125 21.390625 47.125 36.375 
Q 47.125 51.421875 43.28125 58.90625 
Q 39.453125 66.40625 31.78125 66.40625 
z
M 31.78125 74.21875 
Q 44.046875 74.21875 50.515625 64.515625 
Q 56.984375 54.828125 56.984375 36.375 
Q 56.984375 17.96875 50.515625 8.265625 
Q 44.046875 -1.421875 31.78125 -1.421875 
Q 19.53125 -1.421875 13.0625 8.265625 
Q 6.59375 17.96875 6.59375 36.375 
Q 6.59375 54.828125 13.0625 64.515625 
Q 19.53125 74.21875 31.78125 74.21875 
z
" id="DejaVuSans-48"/>
       </defs>
       <use xlink:href="#DejaVuSans-48"/>
      </g>
     </g>
    </g>
    <g id="xtick_2">
     <g id="line2d_2">
      <g>
       <use style="stroke:#000000;stroke-width:0.8;" x="216.595109" xlink:href="#m6891069a36" y="485.8925"/>
      </g>
     </g>
     <g id="text_2">
      <!-- 2 -->
      <g transform="translate(210.232609 508.089375)scale(0.2 -0.2)">
       <defs>
        <path d="M 19.1875 8.296875 
L 53.609375 8.296875 
L 53.609375 0 
L 7.328125 0 
L 7.328125 8.296875 
Q 12.9375 14.109375 22.625 23.890625 
Q 32.328125 33.6875 34.8125 36.53125 
Q 39.546875 41.84375 41.421875 45.53125 
Q 43.3125 49.21875 43.3125 52.78125 
Q 43.3125 58.59375 39.234375 62.25 
Q 35.15625 65.921875 28.609375 65.921875 
Q 23.96875 65.921875 18.8125 64.3125 
Q 13.671875 62.703125 7.8125 59.421875 
L 7.8125 69.390625 
Q 13.765625 71.78125 18.9375 73 
Q 24.125 74.21875 28.421875 74.21875 
Q 39.75 74.21875 46.484375 68.546875 
Q 53.21875 62.890625 53.21875 53.421875 
Q 53.21875 48.921875 51.53125 44.890625 
Q 49.859375 40.875 45.40625 35.40625 
Q 44.1875 33.984375 37.640625 27.21875 
Q 31.109375 20.453125 19.1875 8.296875 
z
" id="DejaVuSans-50"/>
       </defs>
       <use xlink:href="#DejaVuSans-50"/>
      </g>
     </g>
    </g>
    <g id="xtick_3">
     <g id="line2d_3">
      <g>
       <use style="stroke:#000000;stroke-width:0.8;" x="296.586848" xlink:href="#m6891069a36" y="485.8925"/>
      </g>
     </g>
     <g id="text_3">
      <!-- 4 -->
      <g transform="translate(290.224348 508.089375)scale(0.2 -0.2)">
       <defs>
        <path d="M 37.796875 64.3125 
L 12.890625 25.390625 
L 37.796875 25.390625 
z
M 35.203125 72.90625 
L 47.609375 72.90625 
L 47.609375 25.390625 
L 58.015625 25.390625 
L 58.015625 17.1875 
L 47.609375 17.1875 
L 47.609375 0 
L 37.796875 0 
L 37.796875 17.1875 
L 4.890625 17.1875 
L 4.890625 26.703125 
z
" id="DejaVuSans-52"/>
       </defs>
       <use xlink:href="#DejaVuSans-52"/>
      </g>
     </g>
    </g>
    <g id="xtick_4">
     <g id="line2d_4">
      <g>
       <use style="stroke:#000000;stroke-width:0.8;" x="376.578587" xlink:href="#m6891069a36" y="485.8925"/>
      </g>
     </g>
     <g id="text_4">
      <!-- 6 -->
      <g transform="translate(370.216087 508.089375)scale(0.2 -0.2)">
       <defs>
        <path d="M 33.015625 40.375 
Q 26.375 40.375 22.484375 35.828125 
Q 18.609375 31.296875 18.609375 23.390625 
Q 18.609375 15.53125 22.484375 10.953125 
Q 26.375 6.390625 33.015625 6.390625 
Q 39.65625 6.390625 43.53125 10.953125 
Q 47.40625 15.53125 47.40625 23.390625 
Q 47.40625 31.296875 43.53125 35.828125 
Q 39.65625 40.375 33.015625 40.375 
z
M 52.59375 71.296875 
L 52.59375 62.3125 
Q 48.875 64.0625 45.09375 64.984375 
Q 41.3125 65.921875 37.59375 65.921875 
Q 27.828125 65.921875 22.671875 59.328125 
Q 17.53125 52.734375 16.796875 39.40625 
Q 19.671875 43.65625 24.015625 45.921875 
Q 28.375 48.1875 33.59375 48.1875 
Q 44.578125 48.1875 50.953125 41.515625 
Q 57.328125 34.859375 57.328125 23.390625 
Q 57.328125 12.15625 50.6875 5.359375 
Q 44.046875 -1.421875 33.015625 -1.421875 
Q 20.359375 -1.421875 13.671875 8.265625 
Q 6.984375 17.96875 6.984375 36.375 
Q 6.984375 53.65625 15.1875 63.9375 
Q 23.390625 74.21875 37.203125 74.21875 
Q 40.921875 74.21875 44.703125 73.484375 
Q 48.484375 72.75 52.59375 71.296875 
z
" id="DejaVuSans-54"/>
       </defs>
       <use xlink:href="#DejaVuSans-54"/>
      </g>
     </g>
    </g>
    <g id="xtick_5">
     <g id="line2d_5">
      <g>
       <use style="stroke:#000000;stroke-width:0.8;" x="456.570326" xlink:href="#m6891069a36" y="485.8925"/>
      </g>
     </g>
     <g id="text_5">
      <!-- 8 -->
      <g transform="translate(450.207826 508.089375)scale(0.2 -0.2)">
       <defs>
        <path d="M 31.78125 34.625 
Q 24.75 34.625 20.71875 30.859375 
Q 16.703125 27.09375 16.703125 20.515625 
Q 16.703125 13.921875 20.71875 10.15625 
Q 24.75 6.390625 31.78125 6.390625 
Q 38.8125 6.390625 42.859375 10.171875 
Q 46.921875 13.96875 46.921875 20.515625 
Q 46.921875 27.09375 42.890625 30.859375 
Q 38.875 34.625 31.78125 34.625 
z
M 21.921875 38.8125 
Q 15.578125 40.375 12.03125 44.71875 
Q 8.5 49.078125 8.5 55.328125 
Q 8.5 64.0625 14.71875 69.140625 
Q 20.953125 74.21875 31.78125 74.21875 
Q 42.671875 74.21875 48.875 69.140625 
Q 55.078125 64.0625 55.078125 55.328125 
Q 55.078125 49.078125 51.53125 44.71875 
Q 48 40.375 41.703125 38.8125 
Q 48.828125 37.15625 52.796875 32.3125 
Q 56.78125 27.484375 56.78125 20.515625 
Q 56.78125 9.90625 50.3125 4.234375 
Q 43.84375 -1.421875 31.78125 -1.421875 
Q 19.734375 -1.421875 13.25 4.234375 
Q 6.78125 9.90625 6.78125 20.515625 
Q 6.78125 27.484375 10.78125 32.3125 
Q 14.796875 37.15625 21.921875 38.8125 
z
M 18.3125 54.390625 
Q 18.3125 48.734375 21.84375 45.5625 
Q 25.390625 42.390625 31.78125 42.390625 
Q 38.140625 42.390625 41.71875 45.5625 
Q 45.3125 48.734375 45.3125 54.390625 
Q 45.3125 60.0625 41.71875 63.234375 
Q 38.140625 66.40625 31.78125 66.40625 
Q 25.390625 66.40625 21.84375 63.234375 
Q 18.3125 60.0625 18.3125 54.390625 
z
" id="DejaVuSans-56"/>
       </defs>
       <use xlink:href="#DejaVuSans-56"/>
      </g>
     </g>
    </g>
    <g id="xtick_6">
     <g id="line2d_6">
      <g>
       <use style="stroke:#000000;stroke-width:0.8;" x="536.562065" xlink:href="#m6891069a36" y="485.8925"/>
      </g>
     </g>
     <g id="text_6">
      <!-- 10 -->
      <g transform="translate(523.837065 508.089375)scale(0.2 -0.2)">
       <defs>
        <path d="M 12.40625 8.296875 
L 28.515625 8.296875 
L 28.515625 63.921875 
L 10.984375 60.40625 
L 10.984375 69.390625 
L 28.421875 72.90625 
L 38.28125 72.90625 
L 38.28125 8.296875 
L 54.390625 8.296875 
L 54.390625 0 
L 12.40625 0 
z
" id="DejaVuSans-49"/>
       </defs>
       <use xlink:href="#DejaVuSans-49"/>
       <use x="63.623047" xlink:href="#DejaVuSans-48"/>
      </g>
     </g>
    </g>
    <g id="text_7">
     <!-- Glucose Uptake Rate$ \left(\frac{mmol}{g_{protein} \cdot hr^{}}\right)$ -->
     <g transform="translate(152.12875 538.78875)scale(0.23 -0.23)">
      <defs>
       <path d="M 59.515625 10.40625 
L 59.515625 29.984375 
L 43.40625 29.984375 
L 43.40625 38.09375 
L 69.28125 38.09375 
L 69.28125 6.78125 
Q 63.578125 2.734375 56.6875 0.65625 
Q 49.8125 -1.421875 42 -1.421875 
Q 24.90625 -1.421875 15.25 8.5625 
Q 5.609375 18.5625 5.609375 36.375 
Q 5.609375 54.25 15.25 64.234375 
Q 24.90625 74.21875 42 74.21875 
Q 49.125 74.21875 55.546875 72.453125 
Q 61.96875 70.703125 67.390625 67.28125 
L 67.390625 56.78125 
Q 61.921875 61.421875 55.765625 63.765625 
Q 49.609375 66.109375 42.828125 66.109375 
Q 29.4375 66.109375 22.71875 58.640625 
Q 16.015625 51.171875 16.015625 36.375 
Q 16.015625 21.625 22.71875 14.15625 
Q 29.4375 6.6875 42.828125 6.6875 
Q 48.046875 6.6875 52.140625 7.59375 
Q 56.25 8.5 59.515625 10.40625 
z
" id="DejaVuSans-71"/>
       <path d="M 9.421875 75.984375 
L 18.40625 75.984375 
L 18.40625 0 
L 9.421875 0 
z
" id="DejaVuSans-108"/>
       <path d="M 8.5 21.578125 
L 8.5 54.6875 
L 17.484375 54.6875 
L 17.484375 21.921875 
Q 17.484375 14.15625 20.5 10.265625 
Q 23.53125 6.390625 29.59375 6.390625 
Q 36.859375 6.390625 41.078125 11.03125 
Q 45.3125 15.671875 45.3125 23.6875 
L 45.3125 54.6875 
L 54.296875 54.6875 
L 54.296875 0 
L 45.3125 0 
L 45.3125 8.40625 
Q 42.046875 3.421875 37.71875 1 
Q 33.40625 -1.421875 27.6875 -1.421875 
Q 18.265625 -1.421875 13.375 4.4375 
Q 8.5 10.296875 8.5 21.578125 
z
M 31.109375 56 
z
" id="DejaVuSans-117"/>
       <path d="M 48.78125 52.59375 
L 48.78125 44.1875 
Q 44.96875 46.296875 41.140625 47.34375 
Q 37.3125 48.390625 33.40625 48.390625 
Q 24.65625 48.390625 19.8125 42.84375 
Q 14.984375 37.3125 14.984375 27.296875 
Q 14.984375 17.28125 19.8125 11.734375 
Q 24.65625 6.203125 33.40625 6.203125 
Q 37.3125 6.203125 41.140625 7.25 
Q 44.96875 8.296875 48.78125 10.40625 
L 48.78125 2.09375 
Q 45.015625 0.34375 40.984375 -0.53125 
Q 36.96875 -1.421875 32.421875 -1.421875 
Q 20.0625 -1.421875 12.78125 6.34375 
Q 5.515625 14.109375 5.515625 27.296875 
Q 5.515625 40.671875 12.859375 48.328125 
Q 20.21875 56 33.015625 56 
Q 37.15625 56 41.109375 55.140625 
Q 45.0625 54.296875 48.78125 52.59375 
z
" id="DejaVuSans-99"/>
       <path d="M 30.609375 48.390625 
Q 23.390625 48.390625 19.1875 42.75 
Q 14.984375 37.109375 14.984375 27.296875 
Q 14.984375 17.484375 19.15625 11.84375 
Q 23.34375 6.203125 30.609375 6.203125 
Q 37.796875 6.203125 41.984375 11.859375 
Q 46.1875 17.53125 46.1875 27.296875 
Q 46.1875 37.015625 41.984375 42.703125 
Q 37.796875 48.390625 30.609375 48.390625 
z
M 30.609375 56 
Q 42.328125 56 49.015625 48.375 
Q 55.71875 40.765625 55.71875 27.296875 
Q 55.71875 13.875 49.015625 6.21875 
Q 42.328125 -1.421875 30.609375 -1.421875 
Q 18.84375 -1.421875 12.171875 6.21875 
Q 5.515625 13.875 5.515625 27.296875 
Q 5.515625 40.765625 12.171875 48.375 
Q 18.84375 56 30.609375 56 
z
" id="DejaVuSans-111"/>
       <path d="M 44.28125 53.078125 
L 44.28125 44.578125 
Q 40.484375 46.53125 36.375 47.5 
Q 32.28125 48.484375 27.875 48.484375 
Q 21.1875 48.484375 17.84375 46.4375 
Q 14.5 44.390625 14.5 40.28125 
Q 14.5 37.15625 16.890625 35.375 
Q 19.28125 33.59375 26.515625 31.984375 
L 29.59375 31.296875 
Q 39.15625 29.25 43.1875 25.515625 
Q 47.21875 21.78125 47.21875 15.09375 
Q 47.21875 7.46875 41.1875 3.015625 
Q 35.15625 -1.421875 24.609375 -1.421875 
Q 20.21875 -1.421875 15.453125 -0.5625 
Q 10.6875 0.296875 5.421875 2 
L 5.421875 11.28125 
Q 10.40625 8.6875 15.234375 7.390625 
Q 20.0625 6.109375 24.8125 6.109375 
Q 31.15625 6.109375 34.5625 8.28125 
Q 37.984375 10.453125 37.984375 14.40625 
Q 37.984375 18.0625 35.515625 20.015625 
Q 33.0625 21.96875 24.703125 23.78125 
L 21.578125 24.515625 
Q 13.234375 26.265625 9.515625 29.90625 
Q 5.8125 33.546875 5.8125 39.890625 
Q 5.8125 47.609375 11.28125 51.796875 
Q 16.75 56 26.8125 56 
Q 31.78125 56 36.171875 55.265625 
Q 40.578125 54.546875 44.28125 53.078125 
z
" id="DejaVuSans-115"/>
       <path d="M 56.203125 29.59375 
L 56.203125 25.203125 
L 14.890625 25.203125 
Q 15.484375 15.921875 20.484375 11.0625 
Q 25.484375 6.203125 34.421875 6.203125 
Q 39.59375 6.203125 44.453125 7.46875 
Q 49.3125 8.734375 54.109375 11.28125 
L 54.109375 2.78125 
Q 49.265625 0.734375 44.1875 -0.34375 
Q 39.109375 -1.421875 33.890625 -1.421875 
Q 20.796875 -1.421875 13.15625 6.1875 
Q 5.515625 13.8125 5.515625 26.8125 
Q 5.515625 40.234375 12.765625 48.109375 
Q 20.015625 56 32.328125 56 
Q 43.359375 56 49.78125 48.890625 
Q 56.203125 41.796875 56.203125 29.59375 
z
M 47.21875 32.234375 
Q 47.125 39.59375 43.09375 43.984375 
Q 39.0625 48.390625 32.421875 48.390625 
Q 24.90625 48.390625 20.390625 44.140625 
Q 15.875 39.890625 15.1875 32.171875 
z
" id="DejaVuSans-101"/>
       <path id="DejaVuSans-32"/>
       <path d="M 8.6875 72.90625 
L 18.609375 72.90625 
L 18.609375 28.609375 
Q 18.609375 16.890625 22.84375 11.734375 
Q 27.09375 6.59375 36.625 6.59375 
Q 46.09375 6.59375 50.34375 11.734375 
Q 54.59375 16.890625 54.59375 28.609375 
L 54.59375 72.90625 
L 64.5 72.90625 
L 64.5 27.390625 
Q 64.5 13.140625 57.4375 5.859375 
Q 50.390625 -1.421875 36.625 -1.421875 
Q 22.796875 -1.421875 15.734375 5.859375 
Q 8.6875 13.140625 8.6875 27.390625 
z
" id="DejaVuSans-85"/>
       <path d="M 18.109375 8.203125 
L 18.109375 -20.796875 
L 9.078125 -20.796875 
L 9.078125 54.6875 
L 18.109375 54.6875 
L 18.109375 46.390625 
Q 20.953125 51.265625 25.265625 53.625 
Q 29.59375 56 35.59375 56 
Q 45.5625 56 51.78125 48.09375 
Q 58.015625 40.1875 58.015625 27.296875 
Q 58.015625 14.40625 51.78125 6.484375 
Q 45.5625 -1.421875 35.59375 -1.421875 
Q 29.59375 -1.421875 25.265625 0.953125 
Q 20.953125 3.328125 18.109375 8.203125 
z
M 48.6875 27.296875 
Q 48.6875 37.203125 44.609375 42.84375 
Q 40.53125 48.484375 33.40625 48.484375 
Q 26.265625 48.484375 22.1875 42.84375 
Q 18.109375 37.203125 18.109375 27.296875 
Q 18.109375 17.390625 22.1875 11.75 
Q 26.265625 6.109375 33.40625 6.109375 
Q 40.53125 6.109375 44.609375 11.75 
Q 48.6875 17.390625 48.6875 27.296875 
z
" id="DejaVuSans-112"/>
       <path d="M 18.3125 70.21875 
L 18.3125 54.6875 
L 36.8125 54.6875 
L 36.8125 47.703125 
L 18.3125 47.703125 
L 18.3125 18.015625 
Q 18.3125 11.328125 20.140625 9.421875 
Q 21.96875 7.515625 27.59375 7.515625 
L 36.8125 7.515625 
L 36.8125 0 
L 27.59375 0 
Q 17.1875 0 13.234375 3.875 
Q 9.28125 7.765625 9.28125 18.015625 
L 9.28125 47.703125 
L 2.6875 47.703125 
L 2.6875 54.6875 
L 9.28125 54.6875 
L 9.28125 70.21875 
z
" id="DejaVuSans-116"/>
       <path d="M 34.28125 27.484375 
Q 23.390625 27.484375 19.1875 25 
Q 14.984375 22.515625 14.984375 16.5 
Q 14.984375 11.71875 18.140625 8.90625 
Q 21.296875 6.109375 26.703125 6.109375 
Q 34.1875 6.109375 38.703125 11.40625 
Q 43.21875 16.703125 43.21875 25.484375 
L 43.21875 27.484375 
z
M 52.203125 31.203125 
L 52.203125 0 
L 43.21875 0 
L 43.21875 8.296875 
Q 40.140625 3.328125 35.546875 0.953125 
Q 30.953125 -1.421875 24.3125 -1.421875 
Q 15.921875 -1.421875 10.953125 3.296875 
Q 6 8.015625 6 15.921875 
Q 6 25.140625 12.171875 29.828125 
Q 18.359375 34.515625 30.609375 34.515625 
L 43.21875 34.515625 
L 43.21875 35.40625 
Q 43.21875 41.609375 39.140625 45 
Q 35.0625 48.390625 27.6875 48.390625 
Q 23 48.390625 18.546875 47.265625 
Q 14.109375 46.140625 10.015625 43.890625 
L 10.015625 52.203125 
Q 14.9375 54.109375 19.578125 55.046875 
Q 24.21875 56 28.609375 56 
Q 40.484375 56 46.34375 49.84375 
Q 52.203125 43.703125 52.203125 31.203125 
z
" id="DejaVuSans-97"/>
       <path d="M 9.078125 75.984375 
L 18.109375 75.984375 
L 18.109375 31.109375 
L 44.921875 54.6875 
L 56.390625 54.6875 
L 27.390625 29.109375 
L 57.625 0 
L 45.90625 0 
L 18.109375 26.703125 
L 18.109375 0 
L 9.078125 0 
z
" id="DejaVuSans-107"/>
       <path d="M 44.390625 34.1875 
Q 47.5625 33.109375 50.5625 29.59375 
Q 53.5625 26.078125 56.59375 19.921875 
L 66.609375 0 
L 56 0 
L 46.6875 18.703125 
Q 43.0625 26.03125 39.671875 28.421875 
Q 36.28125 30.8125 30.421875 30.8125 
L 19.671875 30.8125 
L 19.671875 0 
L 9.8125 0 
L 9.8125 72.90625 
L 32.078125 72.90625 
Q 44.578125 72.90625 50.734375 67.671875 
Q 56.890625 62.453125 56.890625 51.90625 
Q 56.890625 45.015625 53.6875 40.46875 
Q 50.484375 35.9375 44.390625 34.1875 
z
M 19.671875 64.796875 
L 19.671875 38.921875 
L 32.078125 38.921875 
Q 39.203125 38.921875 42.84375 42.21875 
Q 46.484375 45.515625 46.484375 51.90625 
Q 46.484375 58.296875 42.84375 61.546875 
Q 39.203125 64.796875 32.078125 64.796875 
z
" id="DejaVuSans-82"/>
       <path d="M 50.296875 -24.296875 
L 50.296875 -27.90625 
Q 33.5 -12.09375 23.703125 11.40625 
Q 13.90625 34.90625 13.90625 64.296875 
Q 13.90625 93.796875 23.953125 118.640625 
Q 34 143.5 50.296875 156.59375 
L 50.296875 153.296875 
Q 38.90625 141.59375 31.15625 118.84375 
Q 23.40625 96.09375 23.40625 64.296875 
Q 23.40625 8.796875 50.296875 -24.296875 
z
" id="STIXSizeTwoSym-Regular-40"/>
       <path d="M 89.796875 33.015625 
L 83.40625 0 
L 74.421875 0 
L 80.71875 32.71875 
Q 81.109375 34.8125 81.296875 36.328125 
Q 81.5 37.84375 81.5 38.921875 
Q 81.5 43.3125 79.046875 45.75 
Q 76.609375 48.1875 72.21875 48.1875 
Q 65.671875 48.1875 60.546875 43.28125 
Q 55.421875 38.375 53.90625 30.515625 
L 47.90625 0 
L 38.921875 0 
L 45.3125 32.71875 
Q 45.703125 34.515625 45.890625 36.046875 
Q 46.09375 37.59375 46.09375 38.8125 
Q 46.09375 43.265625 43.65625 45.71875 
Q 41.21875 48.1875 36.921875 48.1875 
Q 30.28125 48.1875 25.140625 43.28125 
Q 20.015625 38.375 18.5 30.515625 
L 12.5 0 
L 3.515625 0 
L 14.203125 54.6875 
L 23.1875 54.6875 
L 21.484375 46.1875 
Q 25.140625 50.984375 30.046875 53.484375 
Q 34.96875 56 40.578125 56 
Q 46.53125 56 50.359375 52.875 
Q 54.203125 49.75 54.984375 44.1875 
Q 59.078125 49.953125 64.46875 52.96875 
Q 69.875 56 75.875 56 
Q 82.90625 56 86.734375 51.953125 
Q 90.578125 47.90625 90.578125 40.484375 
Q 90.578125 38.875 90.375 36.9375 
Q 90.1875 35.015625 89.796875 33.015625 
z
" id="DejaVuSans-Oblique-109"/>
       <path d="M 25.390625 -1.421875 
Q 15.765625 -1.421875 10.171875 4.515625 
Q 4.59375 10.453125 4.59375 20.703125 
Q 4.59375 26.65625 6.515625 32.828125 
Q 8.453125 39.015625 11.53125 43.21875 
Q 16.359375 49.75 22.3125 52.875 
Q 28.265625 56 35.796875 56 
Q 45.125 56 50.859375 50.1875 
Q 56.59375 44.390625 56.59375 35.015625 
Q 56.59375 28.515625 54.6875 22.0625 
Q 52.78125 15.625 49.703125 11.375 
Q 44.921875 4.828125 38.96875 1.703125 
Q 33.015625 -1.421875 25.390625 -1.421875 
z
M 13.921875 21 
Q 13.921875 13.578125 17.015625 9.890625 
Q 20.125 6.203125 26.421875 6.203125 
Q 35.453125 6.203125 41.375 14.078125 
Q 47.3125 21.96875 47.3125 34.078125 
Q 47.3125 41.15625 44.140625 44.765625 
Q 40.96875 48.390625 34.8125 48.390625 
Q 29.734375 48.390625 25.78125 46.015625 
Q 21.828125 43.65625 18.703125 38.8125 
Q 16.40625 35.203125 15.15625 30.5625 
Q 13.921875 25.921875 13.921875 21 
z
" id="DejaVuSans-Oblique-111"/>
       <path d="M 18.3125 75.984375 
L 27.296875 75.984375 
L 12.5 0 
L 3.515625 0 
z
" id="DejaVuSans-Oblique-108"/>
       <path d="M 59.625 54.6875 
L 50.296875 6.78125 
Q 47.609375 -7.125 40.015625 -13.953125 
Q 32.421875 -20.796875 19.578125 -20.796875 
Q 14.84375 -20.796875 10.78125 -20.09375 
Q 6.734375 -19.390625 3.21875 -17.921875 
L 4.890625 -9.1875 
Q 8.203125 -11.328125 11.90625 -12.34375 
Q 15.625 -13.375 19.828125 -13.375 
Q 28.375 -13.375 33.859375 -8.703125 
Q 39.359375 -4.046875 41.109375 4.6875 
L 41.890625 8.796875 
Q 38.140625 4.5 33.15625 2.25 
Q 28.171875 0 22.40625 0 
Q 14.109375 0 9.34375 5.484375 
Q 4.59375 10.984375 4.59375 20.609375 
Q 4.59375 28.171875 7.46875 35.421875 
Q 10.359375 42.671875 15.578125 48.296875 
Q 19.046875 52 23.65625 54 
Q 28.265625 56 33.296875 56 
Q 38.8125 56 42.90625 53.4375 
Q 47.015625 50.875 49.03125 46.1875 
L 50.59375 54.6875 
z
M 46.09375 34.625 
Q 46.09375 41.265625 42.96875 44.875 
Q 39.84375 48.484375 34.078125 48.484375 
Q 30.515625 48.484375 27.296875 47.0625 
Q 24.078125 45.65625 21.78125 43.109375 
Q 18.0625 38.921875 15.984375 33.234375 
Q 13.921875 27.546875 13.921875 21.484375 
Q 13.921875 14.75 17.0625 11.125 
Q 20.21875 7.515625 26.125 7.515625 
Q 34.671875 7.515625 40.375 15.25 
Q 46.09375 23 46.09375 34.625 
z
" id="DejaVuSans-Oblique-103"/>
       <path d="M 49.609375 33.6875 
Q 49.609375 40.875 46.484375 44.671875 
Q 43.359375 48.484375 37.5 48.484375 
Q 33.5 48.484375 29.859375 46.4375 
Q 26.21875 44.390625 23.390625 40.484375 
Q 20.609375 36.625 18.9375 31.15625 
Q 17.28125 25.6875 17.28125 20.3125 
Q 17.28125 13.484375 20.40625 9.796875 
Q 23.53125 6.109375 29.296875 6.109375 
Q 33.546875 6.109375 37.1875 8.109375 
Q 40.828125 10.109375 43.40625 13.921875 
Q 46.1875 17.921875 47.890625 23.34375 
Q 49.609375 28.765625 49.609375 33.6875 
z
M 21.78125 46.390625 
Q 25.390625 51.125 30.296875 53.5625 
Q 35.203125 56 41.21875 56 
Q 49.609375 56 54.25 50.5 
Q 58.890625 45.015625 58.890625 35.109375 
Q 58.890625 27 56 19.65625 
Q 53.125 12.3125 47.703125 6.5 
Q 44.09375 2.640625 39.546875 0.609375 
Q 35.015625 -1.421875 29.984375 -1.421875 
Q 24.171875 -1.421875 20.21875 1 
Q 16.265625 3.421875 14.3125 8.203125 
L 8.6875 -20.796875 
L -0.296875 -20.796875 
L 14.40625 54.6875 
L 23.390625 54.6875 
z
" id="DejaVuSans-Oblique-112"/>
       <path d="M 44.578125 46.390625 
Q 43.21875 47.125 41.453125 47.515625 
Q 39.703125 47.90625 37.703125 47.90625 
Q 30.515625 47.90625 25.140625 42.453125 
Q 19.78125 37.015625 18.015625 27.875 
L 12.5 0 
L 3.515625 0 
L 14.203125 54.6875 
L 23.1875 54.6875 
L 21.484375 46.1875 
Q 25.046875 50.921875 30 53.453125 
Q 34.96875 56 40.578125 56 
Q 42.046875 56 43.453125 55.828125 
Q 44.875 55.671875 46.296875 55.28125 
z
" id="DejaVuSans-Oblique-114"/>
       <path d="M 42.28125 54.6875 
L 40.921875 47.703125 
L 23 47.703125 
L 17.1875 18.015625 
Q 16.890625 16.359375 16.75 15.234375 
Q 16.609375 14.109375 16.609375 13.484375 
Q 16.609375 10.359375 18.484375 8.9375 
Q 20.359375 7.515625 24.515625 7.515625 
L 33.59375 7.515625 
L 32.078125 0 
L 23.484375 0 
Q 15.484375 0 11.546875 3.125 
Q 7.625 6.25 7.625 12.59375 
Q 7.625 13.71875 7.765625 15.0625 
Q 7.90625 16.40625 8.203125 18.015625 
L 14.015625 47.703125 
L 6.390625 47.703125 
L 7.8125 54.6875 
L 15.28125 54.6875 
L 18.3125 70.21875 
L 27.296875 70.21875 
L 24.3125 54.6875 
z
" id="DejaVuSans-Oblique-116"/>
       <path d="M 48.09375 32.234375 
Q 48.25 33.015625 48.3125 33.84375 
Q 48.390625 34.671875 48.390625 35.5 
Q 48.390625 41.453125 44.890625 44.921875 
Q 41.40625 48.390625 35.40625 48.390625 
Q 28.71875 48.390625 23.578125 44.15625 
Q 18.453125 39.9375 15.828125 32.171875 
z
M 55.90625 25.203125 
L 14.109375 25.203125 
Q 13.8125 23.34375 13.71875 22.265625 
Q 13.625 21.1875 13.625 20.40625 
Q 13.625 13.625 17.796875 9.90625 
Q 21.96875 6.203125 29.59375 6.203125 
Q 35.453125 6.203125 40.671875 7.515625 
Q 45.90625 8.84375 50.390625 11.375 
L 48.6875 2.484375 
Q 43.84375 0.53125 38.6875 -0.4375 
Q 33.546875 -1.421875 28.21875 -1.421875 
Q 16.84375 -1.421875 10.71875 4.015625 
Q 4.59375 9.46875 4.59375 19.484375 
Q 4.59375 28.03125 7.640625 35.375 
Q 10.6875 42.71875 16.609375 48.484375 
Q 20.40625 52.09375 25.65625 54.046875 
Q 30.90625 56 36.8125 56 
Q 46.09375 56 51.578125 50.4375 
Q 57.078125 44.875 57.078125 35.5 
Q 57.078125 33.25 56.78125 30.6875 
Q 56.5 28.125 55.90625 25.203125 
z
" id="DejaVuSans-Oblique-101"/>
       <path d="M 18.3125 75.984375 
L 27.296875 75.984375 
L 25.09375 64.59375 
L 16.109375 64.59375 
z
M 14.203125 54.6875 
L 23.1875 54.6875 
L 12.5 0 
L 3.515625 0 
z
" id="DejaVuSans-Oblique-105"/>
       <path d="M 55.71875 33.015625 
L 49.3125 0 
L 40.28125 0 
L 46.6875 32.671875 
Q 47.125 34.96875 47.359375 36.71875 
Q 47.609375 38.484375 47.609375 39.5 
Q 47.609375 43.609375 45.015625 45.890625 
Q 42.4375 48.1875 37.796875 48.1875 
Q 30.5625 48.1875 25.34375 43.375 
Q 20.125 38.578125 18.5 30.328125 
L 12.5 0 
L 3.515625 0 
L 14.109375 54.6875 
L 23.09375 54.6875 
L 21.296875 46.09375 
Q 25.046875 50.828125 30.3125 53.40625 
Q 35.59375 56 41.40625 56 
Q 48.640625 56 52.609375 52.09375 
Q 56.59375 48.1875 56.59375 41.109375 
Q 56.59375 39.359375 56.375 37.359375 
Q 56.15625 35.359375 55.71875 33.015625 
z
" id="DejaVuSans-Oblique-110"/>
       <path d="M 10.6875 40.921875 
L 21 40.921875 
L 21 28.515625 
L 10.6875 28.515625 
z
" id="DejaVuSans-8901"/>
       <path d="M 55.71875 33.015625 
L 49.3125 0 
L 40.28125 0 
L 46.6875 32.671875 
Q 47.125 34.96875 47.359375 36.71875 
Q 47.609375 38.484375 47.609375 39.5 
Q 47.609375 43.609375 45.015625 45.890625 
Q 42.4375 48.1875 37.796875 48.1875 
Q 30.5625 48.1875 25.265625 43.296875 
Q 19.96875 38.421875 18.40625 30.328125 
L 12.5 0 
L 3.515625 0 
L 18.3125 75.984375 
L 27.296875 75.984375 
L 21.484375 46.09375 
Q 24.90625 50.6875 30.21875 53.34375 
Q 35.546875 56 41.40625 56 
Q 48.640625 56 52.609375 52.09375 
Q 56.59375 48.1875 56.59375 41.109375 
Q 56.59375 39.359375 56.375 37.359375 
Q 56.15625 35.359375 55.71875 33.015625 
z
" id="DejaVuSans-Oblique-104"/>
       <path d="M 11.40625 153 
L 11.40625 156.59375 
Q 28.203125 140.796875 38 117.296875 
Q 47.796875 93.796875 47.796875 64.296875 
Q 47.796875 34.90625 37.75 10.046875 
Q 27.703125 -14.796875 11.40625 -27.90625 
L 11.40625 -24.59375 
Q 22.796875 -12.90625 30.546875 9.890625 
Q 38.296875 32.703125 38.296875 64.296875 
Q 38.296875 119.90625 11.40625 153 
z
" id="STIXSizeTwoSym-Regular-41"/>
      </defs>
      <use transform="translate(0 0.01875)" xlink:href="#DejaVuSans-71"/>
      <use transform="translate(77.490234 0.01875)" xlink:href="#DejaVuSans-108"/>
      <use transform="translate(105.273438 0.01875)" xlink:href="#DejaVuSans-117"/>
      <use transform="translate(168.652344 0.01875)" xlink:href="#DejaVuSans-99"/>
      <use transform="translate(223.632812 0.01875)" xlink:href="#DejaVuSans-111"/>
      <use transform="translate(284.814453 0.01875)" xlink:href="#DejaVuSans-115"/>
      <use transform="translate(336.914062 0.01875)" xlink:href="#DejaVuSans-101"/>
      <use transform="translate(398.4375 0.01875)" xlink:href="#DejaVuSans-32"/>
      <use transform="translate(430.224609 0.01875)" xlink:href="#DejaVuSans-85"/>
      <use transform="translate(503.417969 0.01875)" xlink:href="#DejaVuSans-112"/>
      <use transform="translate(566.894531 0.01875)" xlink:href="#DejaVuSans-116"/>
      <use transform="translate(606.103516 0.01875)" xlink:href="#DejaVuSans-97"/>
      <use transform="translate(667.382812 0.01875)" xlink:href="#DejaVuSans-107"/>
      <use transform="translate(725.292969 0.01875)" xlink:href="#DejaVuSans-101"/>
      <use transform="translate(786.816406 0.01875)" xlink:href="#DejaVuSans-32"/>
      <use transform="translate(818.603516 0.01875)" xlink:href="#DejaVuSans-82"/>
      <use transform="translate(888.085938 0.01875)" xlink:href="#DejaVuSans-97"/>
      <use transform="translate(949.365234 0.01875)" xlink:href="#DejaVuSans-116"/>
      <use transform="translate(988.574219 0.01875)" xlink:href="#DejaVuSans-101"/>
      <use transform="translate(1050.097656 -38.063906)scale(0.868825)" xlink:href="#STIXSizeTwoSym-Regular-40"/>
      <use transform="translate(1176.267014 44.810938)scale(0.7)" xlink:href="#DejaVuSans-Oblique-109"/>
      <use transform="translate(1244.45549 44.810938)scale(0.7)" xlink:href="#DejaVuSans-Oblique-109"/>
      <use transform="translate(1312.643967 44.810938)scale(0.7)" xlink:href="#DejaVuSans-Oblique-111"/>
      <use transform="translate(1355.471115 44.810938)scale(0.7)" xlink:href="#DejaVuSans-Oblique-108"/>
      <use transform="translate(1101.267014 -40.623437)scale(0.7)" xlink:href="#DejaVuSans-Oblique-103"/>
      <use transform="translate(1145.700607 -52.107812)scale(0.49)" xlink:href="#DejaVuSans-Oblique-112"/>
      <use transform="translate(1176.804123 -52.107812)scale(0.49)" xlink:href="#DejaVuSans-Oblique-114"/>
      <use transform="translate(1196.949631 -52.107812)scale(0.49)" xlink:href="#DejaVuSans-Oblique-111"/>
      <use transform="translate(1226.928635 -52.107812)scale(0.49)" xlink:href="#DejaVuSans-Oblique-116"/>
      <use transform="translate(1246.141037 -52.107812)scale(0.49)" xlink:href="#DejaVuSans-Oblique-101"/>
      <use transform="translate(1276.287521 -52.107812)scale(0.49)" xlink:href="#DejaVuSans-Oblique-105"/>
      <use transform="translate(1289.901291 -52.107812)scale(0.49)" xlink:href="#DejaVuSans-Oblique-110"/>
      <use transform="translate(1336.508713 -40.623437)scale(0.7)" xlink:href="#DejaVuSans-8901"/>
      <use transform="translate(1372.397385 -40.623437)scale(0.7)" xlink:href="#DejaVuSans-Oblique-104"/>
      <use transform="translate(1416.762619 -40.623437)scale(0.7)" xlink:href="#DejaVuSans-Oblique-114"/>
      <use transform="translate(1463.210905 -38.063906)scale(0.868825)" xlink:href="#STIXSizeTwoSym-Regular-41"/>
      <path d="M 1101.267014 18.815625 
L 1101.267014 25.065625 
L 1450.710905 25.065625 
L 1450.710905 18.815625 
L 1101.267014 18.815625 
z
"/>
     </g>
    </g>
   </g>
   <g id="matplotlib.axis_2">
    <g id="ytick_1">
     <g id="line2d_7">
      <defs>
       <path d="M 0 0 
L -3.5 0 
" id="m60f61423be" style="stroke:#000000;stroke-width:0.8;"/>
      </defs>
      <g>
       <use style="stroke:#000000;stroke-width:0.8;" x="96.6075" xlink:href="#m60f61423be" y="464.690114"/>
      </g>
     </g>
     <g id="text_8">
      <!-- 0 -->
      <g transform="translate(76.8825 472.288551)scale(0.2 -0.2)">
       <use xlink:href="#DejaVuSans-48"/>
      </g>
     </g>
    </g>
    <g id="ytick_2">
     <g id="line2d_8">
      <g>
       <use style="stroke:#000000;stroke-width:0.8;" x="96.6075" xlink:href="#m60f61423be" y="388.285118"/>
      </g>
     </g>
     <g id="text_9">
      <!-- 2 -->
      <g transform="translate(76.8825 395.883555)scale(0.2 -0.2)">
       <use xlink:href="#DejaVuSans-50"/>
      </g>
     </g>
    </g>
    <g id="ytick_3">
     <g id="line2d_9">
      <g>
       <use style="stroke:#000000;stroke-width:0.8;" x="96.6075" xlink:href="#m60f61423be" y="311.880122"/>
      </g>
     </g>
     <g id="text_10">
      <!-- 4 -->
      <g transform="translate(76.8825 319.478559)scale(0.2 -0.2)">
       <use xlink:href="#DejaVuSans-52"/>
      </g>
     </g>
    </g>
    <g id="ytick_4">
     <g id="line2d_10">
      <g>
       <use style="stroke:#000000;stroke-width:0.8;" x="96.6075" xlink:href="#m60f61423be" y="235.475126"/>
      </g>
     </g>
     <g id="text_11">
      <!-- 6 -->
      <g transform="translate(76.8825 243.073563)scale(0.2 -0.2)">
       <use xlink:href="#DejaVuSans-54"/>
      </g>
     </g>
    </g>
    <g id="ytick_5">
     <g id="line2d_11">
      <g>
       <use style="stroke:#000000;stroke-width:0.8;" x="96.6075" xlink:href="#m60f61423be" y="159.07013"/>
      </g>
     </g>
     <g id="text_12">
      <!-- 8 -->
      <g transform="translate(76.8825 166.668568)scale(0.2 -0.2)">
       <use xlink:href="#DejaVuSans-56"/>
      </g>
     </g>
    </g>
    <g id="ytick_6">
     <g id="line2d_12">
      <g>
       <use style="stroke:#000000;stroke-width:0.8;" x="96.6075" xlink:href="#m60f61423be" y="82.665134"/>
      </g>
     </g>
     <g id="text_13">
      <!-- 10 -->
      <g transform="translate(64.1575 90.263572)scale(0.2 -0.2)">
       <use xlink:href="#DejaVuSans-49"/>
       <use x="63.623047" xlink:href="#DejaVuSans-48"/>
      </g>
     </g>
    </g>
    <g id="text_14">
     <!-- Acetate Production Rate$ \left(\frac{mmol}{g_{protein} \cdot hr^{}}\right)$ -->
     <g transform="translate(45.6675 446.32625)rotate(-90)scale(0.23 -0.23)">
      <defs>
       <path d="M 34.1875 63.1875 
L 20.796875 26.90625 
L 47.609375 26.90625 
z
M 28.609375 72.90625 
L 39.796875 72.90625 
L 67.578125 0 
L 57.328125 0 
L 50.6875 18.703125 
L 17.828125 18.703125 
L 11.1875 0 
L 0.78125 0 
z
" id="DejaVuSans-65"/>
       <path d="M 19.671875 64.796875 
L 19.671875 37.40625 
L 32.078125 37.40625 
Q 38.96875 37.40625 42.71875 40.96875 
Q 46.484375 44.53125 46.484375 51.125 
Q 46.484375 57.671875 42.71875 61.234375 
Q 38.96875 64.796875 32.078125 64.796875 
z
M 9.8125 72.90625 
L 32.078125 72.90625 
Q 44.34375 72.90625 50.609375 67.359375 
Q 56.890625 61.8125 56.890625 51.125 
Q 56.890625 40.328125 50.609375 34.8125 
Q 44.34375 29.296875 32.078125 29.296875 
L 19.671875 29.296875 
L 19.671875 0 
L 9.8125 0 
z
" id="DejaVuSans-80"/>
       <path d="M 41.109375 46.296875 
Q 39.59375 47.171875 37.8125 47.578125 
Q 36.03125 48 33.890625 48 
Q 26.265625 48 22.1875 43.046875 
Q 18.109375 38.09375 18.109375 28.8125 
L 18.109375 0 
L 9.078125 0 
L 9.078125 54.6875 
L 18.109375 54.6875 
L 18.109375 46.1875 
Q 20.953125 51.171875 25.484375 53.578125 
Q 30.03125 56 36.53125 56 
Q 37.453125 56 38.578125 55.875 
Q 39.703125 55.765625 41.0625 55.515625 
z
" id="DejaVuSans-114"/>
       <path d="M 45.40625 46.390625 
L 45.40625 75.984375 
L 54.390625 75.984375 
L 54.390625 0 
L 45.40625 0 
L 45.40625 8.203125 
Q 42.578125 3.328125 38.25 0.953125 
Q 33.9375 -1.421875 27.875 -1.421875 
Q 17.96875 -1.421875 11.734375 6.484375 
Q 5.515625 14.40625 5.515625 27.296875 
Q 5.515625 40.1875 11.734375 48.09375 
Q 17.96875 56 27.875 56 
Q 33.9375 56 38.25 53.625 
Q 42.578125 51.265625 45.40625 46.390625 
z
M 14.796875 27.296875 
Q 14.796875 17.390625 18.875 11.75 
Q 22.953125 6.109375 30.078125 6.109375 
Q 37.203125 6.109375 41.296875 11.75 
Q 45.40625 17.390625 45.40625 27.296875 
Q 45.40625 37.203125 41.296875 42.84375 
Q 37.203125 48.484375 30.078125 48.484375 
Q 22.953125 48.484375 18.875 42.84375 
Q 14.796875 37.203125 14.796875 27.296875 
z
" id="DejaVuSans-100"/>
       <path d="M 9.421875 54.6875 
L 18.40625 54.6875 
L 18.40625 0 
L 9.421875 0 
z
M 9.421875 75.984375 
L 18.40625 75.984375 
L 18.40625 64.59375 
L 9.421875 64.59375 
z
" id="DejaVuSans-105"/>
       <path d="M 54.890625 33.015625 
L 54.890625 0 
L 45.90625 0 
L 45.90625 32.71875 
Q 45.90625 40.484375 42.875 44.328125 
Q 39.84375 48.1875 33.796875 48.1875 
Q 26.515625 48.1875 22.3125 43.546875 
Q 18.109375 38.921875 18.109375 30.90625 
L 18.109375 0 
L 9.078125 0 
L 9.078125 54.6875 
L 18.109375 54.6875 
L 18.109375 46.1875 
Q 21.34375 51.125 25.703125 53.5625 
Q 30.078125 56 35.796875 56 
Q 45.21875 56 50.046875 50.171875 
Q 54.890625 44.34375 54.890625 33.015625 
z
" id="DejaVuSans-110"/>
      </defs>
      <use transform="translate(0 0.01875)" xlink:href="#DejaVuSans-65"/>
      <use transform="translate(68.408203 0.01875)" xlink:href="#DejaVuSans-99"/>
      <use transform="translate(123.388672 0.01875)" xlink:href="#DejaVuSans-101"/>
      <use transform="translate(184.912109 0.01875)" xlink:href="#DejaVuSans-116"/>
      <use transform="translate(224.121094 0.01875)" xlink:href="#DejaVuSans-97"/>
      <use transform="translate(285.400391 0.01875)" xlink:href="#DejaVuSans-116"/>
      <use transform="translate(324.609375 0.01875)" xlink:href="#DejaVuSans-101"/>
      <use transform="translate(386.132812 0.01875)" xlink:href="#DejaVuSans-32"/>
      <use transform="translate(417.919922 0.01875)" xlink:href="#DejaVuSans-80"/>
      <use transform="translate(478.222656 0.01875)" xlink:href="#DejaVuSans-114"/>
      <use transform="translate(519.335938 0.01875)" xlink:href="#DejaVuSans-111"/>
      <use transform="translate(580.517578 0.01875)" xlink:href="#DejaVuSans-100"/>
      <use transform="translate(643.994141 0.01875)" xlink:href="#DejaVuSans-117"/>
      <use transform="translate(707.373047 0.01875)" xlink:href="#DejaVuSans-99"/>
      <use transform="translate(762.353516 0.01875)" xlink:href="#DejaVuSans-116"/>
      <use transform="translate(801.5625 0.01875)" xlink:href="#DejaVuSans-105"/>
      <use transform="translate(829.345703 0.01875)" xlink:href="#DejaVuSans-111"/>
      <use transform="translate(890.527344 0.01875)" xlink:href="#DejaVuSans-110"/>
      <use transform="translate(953.90625 0.01875)" xlink:href="#DejaVuSans-32"/>
      <use transform="translate(985.693359 0.01875)" xlink:href="#DejaVuSans-82"/>
      <use transform="translate(1055.175781 0.01875)" xlink:href="#DejaVuSans-97"/>
      <use transform="translate(1116.455078 0.01875)" xlink:href="#DejaVuSans-116"/>
      <use transform="translate(1155.664062 0.01875)" xlink:href="#DejaVuSans-101"/>
      <use transform="translate(1217.1875 -38.063906)scale(0.868825)" xlink:href="#STIXSizeTwoSym-Regular-40"/>
      <use transform="translate(1343.356857 44.810938)scale(0.7)" xlink:href="#DejaVuSans-Oblique-109"/>
      <use transform="translate(1411.545334 44.810938)scale(0.7)" xlink:href="#DejaVuSans-Oblique-109"/>
      <use transform="translate(1479.73381 44.810938)scale(0.7)" xlink:href="#DejaVuSans-Oblique-111"/>
      <use transform="translate(1522.560959 44.810938)scale(0.7)" xlink:href="#DejaVuSans-Oblique-108"/>
      <use transform="translate(1268.356857 -40.623437)scale(0.7)" xlink:href="#DejaVuSans-Oblique-103"/>
      <use transform="translate(1312.790451 -52.107812)scale(0.49)" xlink:href="#DejaVuSans-Oblique-112"/>
      <use transform="translate(1343.893967 -52.107812)scale(0.49)" xlink:href="#DejaVuSans-Oblique-114"/>
      <use transform="translate(1364.039474 -52.107812)scale(0.49)" xlink:href="#DejaVuSans-Oblique-111"/>
      <use transform="translate(1394.018478 -52.107812)scale(0.49)" xlink:href="#DejaVuSans-Oblique-116"/>
      <use transform="translate(1413.230881 -52.107812)scale(0.49)" xlink:href="#DejaVuSans-Oblique-101"/>
      <use transform="translate(1443.377365 -52.107812)scale(0.49)" xlink:href="#DejaVuSans-Oblique-105"/>
      <use transform="translate(1456.991135 -52.107812)scale(0.49)" xlink:href="#DejaVuSans-Oblique-110"/>
      <use transform="translate(1503.598557 -40.623437)scale(0.7)" xlink:href="#DejaVuSans-8901"/>
      <use transform="translate(1539.487228 -40.623437)scale(0.7)" xlink:href="#DejaVuSans-Oblique-104"/>
      <use transform="translate(1583.852463 -40.623437)scale(0.7)" xlink:href="#DejaVuSans-Oblique-114"/>
      <use transform="translate(1630.300749 -38.063906)scale(0.868825)" xlink:href="#STIXSizeTwoSym-Regular-41"/>
      <path d="M 1268.356857 18.815625 
L 1268.356857 25.065625 
L 1617.800749 25.065625 
L 1617.800749 18.815625 
L 1268.356857 18.815625 
z
"/>
     </g>
    </g>
   </g>
   <g id="patch_4">
    <path d="M 96.6075 485.8925 
L 96.6075 19.44 
" style="fill:none;stroke:#000000;stroke-linecap:square;stroke-linejoin:miter;stroke-width:0.8;"/>
   </g>
   <g id="patch_5">
    <path d="M 556.56 485.8925 
L 556.56 19.44 
" style="fill:none;stroke:#000000;stroke-linecap:square;stroke-linejoin:miter;stroke-width:0.8;"/>
   </g>
   <g id="patch_6">
    <path d="M 96.6075 485.8925 
L 556.56 485.8925 
" style="fill:none;stroke:#000000;stroke-linecap:square;stroke-linejoin:miter;stroke-width:0.8;"/>
   </g>
   <g id="patch_7">
    <path d="M 96.6075 19.44 
L 556.56 19.44 
" style="fill:none;stroke:#000000;stroke-linecap:square;stroke-linejoin:miter;stroke-width:0.8;"/>
   </g>
   <g id="PathCollection_13">
    <path clip-path="url(#p09d994e04e)" d="M 231.493229 471.761181 
C 233.368498 471.761181 235.167214 471.016129 236.493229 469.690114 
C 237.819245 468.364098 238.564297 466.565383 238.564297 464.690114 
C 238.564297 462.814845 237.819245 461.016129 236.493229 459.690114 
C 235.167214 458.364098 233.368498 457.619046 231.493229 457.619046 
C 229.61796 457.619046 227.819245 458.364098 226.493229 459.690114 
C 225.167214 461.016129 224.422161 462.814845 224.422161 464.690114 
C 224.422161 466.565383 225.167214 468.364098 226.493229 469.690114 
C 227.819245 471.016129 229.61796 471.761181 231.493229 471.761181 
z
" style="fill:#dc143c;fill-opacity:0.9;"/>
    <path clip-path="url(#p09d994e04e)" d="M 250.198709 471.761181 
C 252.073979 471.761181 253.872694 471.016129 255.198709 469.690114 
C 256.524725 468.364098 257.269777 466.565383 257.269777 464.690114 
C 257.269777 462.814845 256.524725 461.016129 255.198709 459.690114 
C 253.872694 458.364098 252.073979 457.619046 250.198709 457.619046 
C 248.32344 457.619046 246.524725 458.364098 245.198709 459.690114 
C 243.872694 461.016129 243.127642 462.814845 243.127642 464.690114 
C 243.127642 466.565383 243.872694 468.364098 245.198709 469.690114 
C 246.524725 471.016129 248.32344 471.761181 250.198709 471.761181 
z
" style="fill:#dc143c;fill-opacity:0.9;"/>
    <path clip-path="url(#p09d994e04e)" d="M 257.783745 471.761181 
C 259.659014 471.761181 261.457729 471.016129 262.783745 469.690114 
C 264.10976 468.364098 264.854812 466.565383 264.854812 464.690114 
C 264.854812 462.814845 264.10976 461.016129 262.783745 459.690114 
C 261.457729 458.364098 259.659014 457.619046 257.783745 457.619046 
C 255.908475 457.619046 254.10976 458.364098 252.783745 459.690114 
C 251.457729 461.016129 250.712677 462.814845 250.712677 464.690114 
C 250.712677 466.565383 251.457729 468.364098 252.783745 469.690114 
C 254.10976 471.016129 255.908475 471.761181 257.783745 471.761181 
z
" style="fill:#dc143c;fill-opacity:0.9;"/>
    <path clip-path="url(#p09d994e04e)" d="M 268.857184 471.761181 
C 270.732453 471.761181 272.531168 471.016129 273.857184 469.690114 
C 275.183199 468.364098 275.928252 466.565383 275.928252 464.690114 
C 275.928252 462.814845 275.183199 461.016129 273.857184 459.690114 
C 272.531168 458.364098 270.732453 457.619046 268.857184 457.619046 
C 266.981915 457.619046 265.183199 458.364098 263.857184 459.690114 
C 262.531168 461.016129 261.786116 462.814845 261.786116 464.690114 
C 261.786116 466.565383 262.531168 468.364098 263.857184 469.690114 
C 265.183199 471.016129 266.981915 471.761181 268.857184 471.761181 
z
" style="fill:#dc143c;fill-opacity:0.9;"/>
    <path clip-path="url(#p09d994e04e)" d="M 286.566995 471.761181 
C 288.442264 471.761181 290.240979 471.016129 291.566995 469.690114 
C 292.89301 468.364098 293.638063 466.565383 293.638063 464.690114 
C 293.638063 462.814845 292.89301 461.016129 291.566995 459.690114 
C 290.240979 458.364098 288.442264 457.619046 286.566995 457.619046 
C 284.691726 457.619046 282.89301 458.364098 281.566995 459.690114 
C 280.240979 461.016129 279.495927 462.814845 279.495927 464.690114 
C 279.495927 466.565383 280.240979 468.364098 281.566995 469.690114 
C 282.89301 471.016129 284.691726 471.761181 286.566995 471.761181 
z
" style="fill:#dc143c;fill-opacity:0.9;"/>
    <path clip-path="url(#p09d994e04e)" d="M 351.536205 443.814117 
C 353.411474 443.814117 355.210189 443.069065 356.536205 441.743049 
C 357.86222 440.417034 358.607273 438.618319 358.607273 436.743049 
C 358.607273 434.86778 357.86222 433.069065 356.536205 431.743049 
C 355.210189 430.417034 353.411474 429.671982 351.536205 429.671982 
C 349.660936 429.671982 347.86222 430.417034 346.536205 431.743049 
C 345.210189 433.069065 344.465137 434.86778 344.465137 436.743049 
C 344.465137 438.618319 345.210189 440.417034 346.536205 441.743049 
C 347.86222 443.069065 349.660936 443.814117 351.536205 443.814117 
z
" style="fill:#dc143c;fill-opacity:0.9;"/>
    <path clip-path="url(#p09d994e04e)" d="M 339.742009 385.911817 
C 341.617278 385.911817 343.415994 385.166764 344.742009 383.840749 
C 346.068025 382.514733 346.813077 380.716018 346.813077 378.840749 
C 346.813077 376.96548 346.068025 375.166764 344.742009 373.840749 
C 343.415994 372.514733 341.617278 371.769681 339.742009 371.769681 
C 337.86674 371.769681 336.068025 372.514733 334.742009 373.840749 
C 333.415994 375.166764 332.670941 376.96548 332.670941 378.840749 
C 332.670941 380.716018 333.415994 382.514733 334.742009 383.840749 
C 336.068025 385.166764 337.86674 385.911817 339.742009 385.911817 
z
" style="fill:#dc143c;fill-opacity:0.9;"/>
    <path clip-path="url(#p09d994e04e)" d="M 301.17442 447.022295 
C 303.049689 447.022295 304.848404 446.277243 306.17442 444.951227 
C 307.500435 443.625212 308.245487 441.826496 308.245487 439.951227 
C 308.245487 438.075958 307.500435 436.277243 306.17442 434.951227 
C 304.848404 433.625212 303.049689 432.880159 301.17442 432.880159 
C 299.29915 432.880159 297.500435 433.625212 296.17442 434.951227 
C 294.848404 436.277243 294.103352 438.075958 294.103352 439.951227 
C 294.103352 441.826496 294.848404 443.625212 296.17442 444.951227 
C 297.500435 446.277243 299.29915 447.022295 301.17442 447.022295 
z
" style="fill:#dc143c;fill-opacity:0.9;"/>
    <path clip-path="url(#p09d994e04e)" d="M 345.936811 389.609792 
C 347.81208 389.609792 349.610795 388.86474 350.936811 387.538725 
C 352.262826 386.212709 353.007879 384.413994 353.007879 382.538725 
C 353.007879 380.663455 352.262826 378.86474 350.936811 377.538725 
C 349.610795 376.212709 347.81208 375.467657 345.936811 375.467657 
C 344.061542 375.467657 342.262826 376.212709 340.936811 377.538725 
C 339.610795 378.86474 338.865743 380.663455 338.865743 382.538725 
C 338.865743 384.413994 339.610795 386.212709 340.936811 387.538725 
C 342.262826 388.86474 344.061542 389.609792 345.936811 389.609792 
z
" style="fill:#dc143c;fill-opacity:0.9;"/>
    <path clip-path="url(#p09d994e04e)" d="M 431.926183 189.494609 
C 433.801452 189.494609 435.600168 188.749556 436.926183 187.423541 
C 438.252199 186.097525 438.997251 184.29881 438.997251 182.423541 
C 438.997251 180.548272 438.252199 178.749556 436.926183 177.423541 
C 435.600168 176.097525 433.801452 175.352473 431.926183 175.352473 
C 430.050914 175.352473 428.252199 176.097525 426.926183 177.423541 
C 425.600168 178.749556 424.855115 180.548272 424.855115 182.423541 
C 424.855115 184.29881 425.600168 186.097525 426.926183 187.423541 
C 428.252199 188.749556 430.050914 189.494609 431.926183 189.494609 
z
" style="fill:#dc143c;fill-opacity:0.9;"/>
    <path clip-path="url(#p09d994e04e)" d="M 162.35774 471.761181 
L 165.893274 468.225648 
L 169.428808 471.761181 
L 172.964342 468.225648 
L 169.428808 464.690114 
L 172.964342 461.15458 
L 169.428808 457.619046 
L 165.893274 461.15458 
L 162.35774 457.619046 
L 158.822206 461.15458 
L 162.35774 464.690114 
L 158.822206 468.225648 
z
" style="fill:#dc143c;fill-opacity:0.9;"/>
    <path clip-path="url(#p09d994e04e)" d="M 169.427717 471.761181 
L 172.963251 468.225648 
L 176.498785 471.761181 
L 180.034319 468.225648 
L 176.498785 464.690114 
L 180.034319 461.15458 
L 176.498785 457.619046 
L 172.963251 461.15458 
L 169.427717 457.619046 
L 165.892183 461.15458 
L 169.427717 464.690114 
L 165.892183 468.225648 
z
" style="fill:#dc143c;fill-opacity:0.9;"/>
    <path clip-path="url(#p09d994e04e)" d="M 192.657641 471.761181 
L 196.193175 468.225648 
L 199.728709 471.761181 
L 203.264243 468.225648 
L 199.728709 464.690114 
L 203.264243 461.15458 
L 199.728709 457.619046 
L 196.193175 461.15458 
L 192.657641 457.619046 
L 189.122107 461.15458 
L 192.657641 464.690114 
L 189.122107 468.225648 
z
" style="fill:#dc143c;fill-opacity:0.9;"/>
    <path clip-path="url(#p09d994e04e)" d="M 254.26744 471.761181 
L 257.802974 468.225648 
L 261.338508 471.761181 
L 264.874042 468.225648 
L 261.338508 464.690114 
L 264.874042 461.15458 
L 261.338508 457.619046 
L 257.802974 461.15458 
L 254.26744 457.619046 
L 250.731906 461.15458 
L 254.26744 464.690114 
L 250.731906 468.225648 
z
" style="fill:#dc143c;fill-opacity:0.9;"/>
    <path clip-path="url(#p09d994e04e)" d="M 263.46043 462.783594 
L 266.995964 459.248061 
L 270.531498 462.783594 
L 274.067032 459.248061 
L 270.531498 455.712527 
L 274.067032 452.176993 
L 270.531498 448.641459 
L 266.995964 452.176993 
L 263.46043 448.641459 
L 259.924897 452.176993 
L 263.46043 455.712527 
L 259.924897 459.248061 
z
" style="fill:#dc143c;fill-opacity:0.9;"/>
    <path clip-path="url(#p09d994e04e)" d="M 363.835923 343.018763 
L 367.371457 339.483229 
L 370.906991 343.018763 
L 374.442525 339.483229 
L 370.906991 335.947696 
L 374.442525 332.412162 
L 370.906991 328.876628 
L 367.371457 332.412162 
L 363.835923 328.876628 
L 360.300389 332.412162 
L 363.835923 335.947696 
L 360.300389 339.483229 
z
" style="fill:#dc143c;fill-opacity:0.9;"/>
    <path clip-path="url(#p09d994e04e)" d="M 437.602043 47.713454 
L 441.137576 44.17792 
L 444.67311 47.713454 
L 448.208644 44.17792 
L 444.67311 40.642386 
L 448.208644 37.106852 
L 444.67311 33.571319 
L 441.137576 37.106852 
L 437.602043 33.571319 
L 434.066509 37.106852 
L 437.602043 40.642386 
L 434.066509 44.17792 
z
" style="fill:#dc143c;fill-opacity:0.9;"/>
    <path clip-path="url(#p09d994e04e)" d="M 163.207128 459.690114 
L 163.207128 469.690114 
L 173.207128 469.690114 
L 173.207128 459.690114 
z
" style="fill:#dc143c;fill-opacity:0.9;"/>
    <path clip-path="url(#p09d994e04e)" d="M 172.966538 459.690114 
L 172.966538 469.690114 
L 182.966538 469.690114 
L 182.966538 459.690114 
z
" style="fill:#dc143c;fill-opacity:0.9;"/>
    <path clip-path="url(#p09d994e04e)" d="M 214.338072 459.690114 
L 214.338072 469.690114 
L 224.338072 469.690114 
L 224.338072 459.690114 
z
" style="fill:#dc143c;fill-opacity:0.9;"/>
    <path clip-path="url(#p09d994e04e)" d="M 221.0005 456.954815 
L 221.0005 466.954815 
L 231.0005 466.954815 
L 231.0005 456.954815 
z
" style="fill:#dc143c;fill-opacity:0.9;"/>
    <path clip-path="url(#p09d994e04e)" d="M 262.988272 456.954815 
L 262.988272 466.954815 
L 272.988272 466.954815 
L 272.988272 456.954815 
z
" style="fill:#dc143c;fill-opacity:0.9;"/>
    <path clip-path="url(#p09d994e04e)" d="M 267.148569 456.954815 
L 267.148569 466.954815 
L 277.148569 466.954815 
L 277.148569 456.954815 
z
" style="fill:#dc143c;fill-opacity:0.9;"/>
    <path clip-path="url(#p09d994e04e)" d="M 283.513705 456.954815 
L 283.513705 466.954815 
L 293.513705 466.954815 
L 293.513705 456.954815 
z
" style="fill:#dc143c;fill-opacity:0.9;"/>
    <path clip-path="url(#p09d994e04e)" d="M 301.303716 456.954815 
L 301.303716 466.954815 
L 311.303716 466.954815 
L 311.303716 456.954815 
z
" style="fill:#dc143c;fill-opacity:0.9;"/>
    <path clip-path="url(#p09d994e04e)" d="M 314.275365 456.954815 
L 314.275365 466.954815 
L 324.275365 466.954815 
L 324.275365 456.954815 
z
" style="fill:#dc143c;fill-opacity:0.9;"/>
    <path clip-path="url(#p09d994e04e)" d="M 318.640273 454.227156 
L 318.640273 464.227156 
L 328.640273 464.227156 
L 328.640273 454.227156 
z
" style="fill:#dc143c;fill-opacity:0.9;"/>
    <path clip-path="url(#p09d994e04e)" d="M 330.307473 418.813441 
L 330.307473 428.813441 
L 340.307473 428.813441 
L 340.307473 418.813441 
z
" style="fill:#dc143c;fill-opacity:0.9;"/>
    <path clip-path="url(#p09d994e04e)" d="M 333.971943 413.083066 
L 333.971943 423.083066 
L 343.971943 423.083066 
L 343.971943 413.083066 
z
" style="fill:#dc143c;fill-opacity:0.9;"/>
    <path clip-path="url(#p09d994e04e)" d="M 355.052054 396.655992 
L 355.052054 406.655992 
L 365.052054 406.655992 
L 365.052054 396.655992 
z
" style="fill:#dc143c;fill-opacity:0.9;"/>
    <path clip-path="url(#p09d994e04e)" d="M 185.150181 471.761181 
L 189.864226 471.761181 
L 189.864226 467.047136 
L 194.578271 467.047136 
L 194.578271 462.333091 
L 189.864226 462.333091 
L 189.864226 457.619046 
L 185.150181 457.619046 
L 185.150181 462.333091 
L 180.436136 462.333091 
L 180.436136 467.047136 
L 185.150181 467.047136 
z
" style="fill:#dc143c;fill-opacity:0.9;"/>
    <path clip-path="url(#p09d994e04e)" d="M 299.102049 249.422643 
L 303.816095 249.422643 
L 303.816095 244.708598 
L 308.53014 244.708598 
L 308.53014 239.994553 
L 303.816095 239.994553 
L 303.816095 235.280508 
L 299.102049 235.280508 
L 299.102049 239.994553 
L 294.388004 239.994553 
L 294.388004 244.708598 
L 299.102049 244.708598 
z
" style="fill:#dc143c;fill-opacity:0.9;"/>
    <path clip-path="url(#p09d994e04e)" d="M 335.437691 471.761181 
L 340.151736 471.761181 
L 340.151736 467.047136 
L 344.865781 467.047136 
L 344.865781 462.333091 
L 340.151736 462.333091 
L 340.151736 457.619046 
L 335.437691 457.619046 
L 335.437691 462.333091 
L 330.723646 462.333091 
L 330.723646 467.047136 
L 335.437691 467.047136 
z
" style="fill:#dc143c;fill-opacity:0.9;"/>
    <path clip-path="url(#p09d994e04e)" d="M 463.872912 117.624025 
L 468.586957 117.624025 
L 468.586957 112.90998 
L 473.301002 112.90998 
L 473.301002 108.195935 
L 468.586957 108.195935 
L 468.586957 103.48189 
L 463.872912 103.48189 
L 463.872912 108.195935 
L 459.158867 108.195935 
L 459.158867 112.90998 
L 463.872912 112.90998 
z
" style="fill:#dc143c;fill-opacity:0.9;"/>
    <path clip-path="url(#p09d994e04e)" d="M 192.355188 457.619046 
L 185.28412 464.690114 
L 192.355188 471.761181 
L 199.426256 464.690114 
z
" style="fill:#dc143c;fill-opacity:0.9;"/>
    <path clip-path="url(#p09d994e04e)" d="M 279.618903 457.619046 
L 272.547835 464.690114 
L 279.618903 471.761181 
L 286.689971 464.690114 
z
" style="fill:#dc143c;fill-opacity:0.9;"/>
    <path clip-path="url(#p09d994e04e)" d="M 229.878585 367.461151 
L 222.807518 374.532218 
L 229.878585 381.603286 
L 236.949653 374.532218 
z
" style="fill:#dc143c;fill-opacity:0.9;"/>
    <path clip-path="url(#p09d994e04e)" d="M 203.263152 457.619046 
L 196.192084 464.690114 
L 203.263152 471.761181 
L 210.33422 464.690114 
z
" style="fill:#dc143c;fill-opacity:0.9;"/>
    <path clip-path="url(#p09d994e04e)" d="M 291.738864 457.619046 
L 284.667796 464.690114 
L 291.738864 471.761181 
L 298.809931 464.690114 
z
" style="fill:#dc143c;fill-opacity:0.9;"/>
    <path clip-path="url(#p09d994e04e)" d="M 250.591598 374.3376 
L 243.52053 381.408668 
L 250.591598 388.479736 
L 257.662666 381.408668 
z
" style="fill:#dc143c;fill-opacity:0.9;"/>
    <path clip-path="url(#p09d994e04e)" d="M 184.998372 457.619046 
L 182.498372 462.190114 
L 177.927304 464.690114 
L 182.498372 467.190114 
L 184.998372 471.761181 
L 187.498372 467.190114 
L 192.06944 464.690114 
L 187.498372 462.190114 
z
" style="fill:#dc143c;fill-opacity:0.9;"/>
    <path clip-path="url(#p09d994e04e)" d="M 261.390483 346.484506 
L 258.890483 351.055574 
L 254.319415 353.555574 
L 258.890483 356.055574 
L 261.390483 360.626642 
L 263.890483 356.055574 
L 268.46155 353.555574 
L 263.890483 351.055574 
z
" style="fill:#dc143c;fill-opacity:0.9;"/>
    <path clip-path="url(#p09d994e04e)" d="M 258.190813 343.423597 
L 251.119745 357.565733 
L 265.261881 357.565733 
z
" style="fill:#dc143c;fill-opacity:0.9;"/>
    <path clip-path="url(#p09d994e04e)" d="M 268.989698 350.487233 
L 261.91863 364.629369 
L 276.060766 364.629369 
z
" style="fill:#dc143c;fill-opacity:0.9;"/>
    <path clip-path="url(#p09d994e04e)" d="M 273.789202 345.189506 
L 266.718134 359.331642 
L 280.86027 359.331642 
z
" style="fill:#dc143c;fill-opacity:0.9;"/>
    <path clip-path="url(#p09d994e04e)" d="M 304.586022 262.191784 
L 297.514954 276.333919 
L 311.65709 276.333919 
z
" style="fill:#dc143c;fill-opacity:0.9;"/>
    <path clip-path="url(#p09d994e04e)" d="M 334.582924 184.491788 
L 327.511856 198.633923 
L 341.653992 198.633923 
z
" style="fill:#dc143c;fill-opacity:0.9;"/>
    <path clip-path="url(#p09d994e04e)" d="M 178.398537 449.271251 
L 179.863003 454.271251 
L 178.398537 459.271251 
L 183.398537 457.806784 
L 188.398537 459.271251 
L 186.934071 454.271251 
L 188.398537 449.271251 
L 183.398537 450.735717 
z
" style="fill:#dc143c;fill-opacity:0.9;"/>
    <path clip-path="url(#p09d994e04e)" d="M 223.193911 424.265979 
L 224.658377 429.265979 
L 223.193911 434.265979 
L 228.193911 432.801513 
L 233.193911 434.265979 
L 231.729445 429.265979 
L 233.193911 424.265979 
L 228.193911 425.730445 
z
" style="fill:#dc143c;fill-opacity:0.9;"/>
    <path clip-path="url(#p09d994e04e)" d="M 260.190607 351.596961 
L 267.261674 337.454825 
L 253.119539 337.454825 
z
" style="fill:#dc143c;fill-opacity:0.9;"/>
    <path clip-path="url(#p09d994e04e)" d="M 304.98598 275.886556 
L 312.057048 261.74442 
L 297.914913 261.74442 
z
" style="fill:#dc143c;fill-opacity:0.9;"/>
    <path clip-path="url(#p09d994e04e)" d="M 243.856394 458.566389 
L 244.330066 462.922347 
L 240.32086 464.690114 
L 244.330066 466.457881 
L 243.856394 470.813838 
L 247.391928 468.225648 
L 250.927462 470.813838 
L 250.45379 466.457881 
L 254.462996 464.690114 
L 250.45379 462.922347 
L 250.927462 458.566389 
L 247.391928 461.15458 
z
" style="fill:#dc143c;fill-opacity:0.9;"/>
    <path clip-path="url(#p09d994e04e)" d="M 273.853297 457.871798 
L 274.326968 462.227756 
L 270.317763 463.995523 
L 274.326968 465.76329 
L 273.853297 470.119247 
L 277.38883 467.531057 
L 280.924364 470.119247 
L 280.450693 465.76329 
L 284.459898 463.995523 
L 280.450693 462.227756 
L 280.924364 457.871798 
L 277.38883 460.459989 
z
" style="fill:#dc143c;fill-opacity:0.9;"/>
    <path clip-path="url(#p09d994e04e)" d="M 313.849166 397.442393 
L 314.322838 401.79835 
L 310.313632 403.566117 
L 314.322838 405.333884 
L 313.849166 409.689841 
L 317.3847 407.101651 
L 320.920234 409.689841 
L 320.446562 405.333884 
L 324.455768 403.566117 
L 320.446562 401.79835 
L 320.920234 397.442393 
L 317.3847 400.030583 
z
" style="fill:#dc143c;fill-opacity:0.9;"/>
    <path clip-path="url(#p09d994e04e)" d="M 357.044705 366.185803 
L 357.518377 370.541761 
L 353.509171 372.309528 
L 357.518377 374.077295 
L 357.044705 378.433252 
L 360.580239 375.845062 
L 364.115773 378.433252 
L 363.642101 374.077295 
L 367.651307 372.309528 
L 363.642101 370.541761 
L 364.115773 366.185803 
L 360.580239 368.773994 
z
" style="fill:#dc143c;fill-opacity:0.9;"/>
    <path clip-path="url(#p09d994e04e)" d="M 187.462218 448.842117 
L 183.926684 454.965841 
L 187.462218 461.089566 
L 194.533286 461.089566 
L 198.06882 454.965841 
L 194.533286 448.842117 
z
" style="fill:#dc143c;fill-opacity:0.9;"/>
    <path clip-path="url(#p09d994e04e)" d="M 277.052966 431.477345 
L 273.517432 437.60107 
L 277.052966 443.724794 
L 284.124034 443.724794 
L 287.659568 437.60107 
L 284.124034 431.477345 
z
" style="fill:#dc143c;fill-opacity:0.9;"/>
    <path clip-path="url(#p09d994e04e)" d="M 347.845655 419.576688 
L 344.310121 425.700413 
L 347.845655 431.824137 
L 354.916723 431.824137 
L 358.452257 425.700413 
L 354.916723 419.576688 
z
" style="fill:#dc143c;fill-opacity:0.9;"/>
    <path clip-path="url(#p09d994e04e)" d="M 473.368591 73.377287 
L 471.290457 77.588048 
L 466.643606 78.263275 
L 470.006099 81.540895 
L 469.212322 86.168969 
L 473.368591 83.983889 
L 477.524861 86.168969 
L 476.731084 81.540895 
L 480.093576 78.263275 
L 475.446726 77.588048 
z
" style="fill:#dc143c;fill-opacity:0.9;"/>
    <path clip-path="url(#p09d994e04e)" d="M 444.971524 137.949383 
L 442.893389 142.160144 
L 438.246539 142.835371 
L 441.609031 146.112991 
L 440.815255 150.741065 
L 444.971524 148.555985 
L 449.127793 150.741065 
L 448.334016 146.112991 
L 451.696509 142.835371 
L 447.049659 142.160144 
z
" style="fill:#dc143c;fill-opacity:0.9;"/>
    <path clip-path="url(#p09d994e04e)" d="M 410.575076 228.065233 
L 408.496941 232.275994 
L 403.850091 232.951221 
L 407.212584 236.228841 
L 406.418807 240.856915 
L 410.575076 238.671835 
L 414.731345 240.856915 
L 413.937569 236.228841 
L 417.300061 232.951221 
L 412.653211 232.275994 
z
" style="fill:#dc143c;fill-opacity:0.9;"/>
    <path clip-path="url(#p09d994e04e)" d="M 382.178009 263.819617 
L 380.099874 268.030378 
L 375.453024 268.705605 
L 378.815516 271.983225 
L 378.021739 276.611299 
L 382.178009 274.426219 
L 386.334278 276.611299 
L 385.540501 271.983225 
L 388.902994 268.705605 
L 384.256143 268.030378 
z
" style="fill:#dc143c;fill-opacity:0.9;"/>
    <path clip-path="url(#p09d994e04e)" d="M 318.984535 457.619046 
L 316.9064 461.829807 
L 312.25955 462.505034 
L 315.622042 465.782654 
L 314.828265 470.410728 
L 318.984535 468.225648 
L 323.140804 470.410728 
L 322.347027 465.782654 
L 325.70952 462.505034 
L 321.062669 461.829807 
z
" style="fill:#dc143c;fill-opacity:0.9;"/>
   </g>
   <g id="legend_1">
    <g id="patch_8">
     <path d="M 105.7075 68.003125 
L 423.132969 68.003125 
Q 425.732969 68.003125 425.732969 65.403125 
L 425.732969 28.54 
Q 425.732969 25.94 423.132969 25.94 
L 105.7075 25.94 
Q 103.1075 25.94 103.1075 28.54 
L 103.1075 65.403125 
Q 103.1075 68.003125 105.7075 68.003125 
z
" style="fill:#ffffff;opacity:0.8;stroke:#cccccc;stroke-linejoin:miter;stroke-width:1.5;"/>
    </g>
    <g id="patch_9">
     <path d="M 108.3075 41.017969 
L 134.3075 41.017969 
L 134.3075 31.917969 
L 108.3075 31.917969 
z
" style="fill:#dc143c;opacity:0.5;stroke:#dc143c;stroke-linejoin:miter;stroke-width:1.5;"/>
    </g>
    <g id="text_15">
     <!-- Model Prediction of the Warburg Effect -->
     <g transform="translate(144.7075 41.017969)scale(0.13 -0.13)">
      <defs>
       <path d="M 9.8125 72.90625 
L 24.515625 72.90625 
L 43.109375 23.296875 
L 61.8125 72.90625 
L 76.515625 72.90625 
L 76.515625 0 
L 66.890625 0 
L 66.890625 64.015625 
L 48.09375 14.015625 
L 38.1875 14.015625 
L 19.390625 64.015625 
L 19.390625 0 
L 9.8125 0 
z
" id="DejaVuSans-77"/>
       <path d="M 37.109375 75.984375 
L 37.109375 68.5 
L 28.515625 68.5 
Q 23.6875 68.5 21.796875 66.546875 
Q 19.921875 64.59375 19.921875 59.515625 
L 19.921875 54.6875 
L 34.71875 54.6875 
L 34.71875 47.703125 
L 19.921875 47.703125 
L 19.921875 0 
L 10.890625 0 
L 10.890625 47.703125 
L 2.296875 47.703125 
L 2.296875 54.6875 
L 10.890625 54.6875 
L 10.890625 58.5 
Q 10.890625 67.625 15.140625 71.796875 
Q 19.390625 75.984375 28.609375 75.984375 
z
" id="DejaVuSans-102"/>
       <path d="M 54.890625 33.015625 
L 54.890625 0 
L 45.90625 0 
L 45.90625 32.71875 
Q 45.90625 40.484375 42.875 44.328125 
Q 39.84375 48.1875 33.796875 48.1875 
Q 26.515625 48.1875 22.3125 43.546875 
Q 18.109375 38.921875 18.109375 30.90625 
L 18.109375 0 
L 9.078125 0 
L 9.078125 75.984375 
L 18.109375 75.984375 
L 18.109375 46.1875 
Q 21.34375 51.125 25.703125 53.5625 
Q 30.078125 56 35.796875 56 
Q 45.21875 56 50.046875 50.171875 
Q 54.890625 44.34375 54.890625 33.015625 
z
" id="DejaVuSans-104"/>
       <path d="M 3.328125 72.90625 
L 13.28125 72.90625 
L 28.609375 11.28125 
L 43.890625 72.90625 
L 54.984375 72.90625 
L 70.3125 11.28125 
L 85.59375 72.90625 
L 95.609375 72.90625 
L 77.296875 0 
L 64.890625 0 
L 49.515625 63.28125 
L 33.984375 0 
L 21.578125 0 
z
" id="DejaVuSans-87"/>
       <path d="M 48.6875 27.296875 
Q 48.6875 37.203125 44.609375 42.84375 
Q 40.53125 48.484375 33.40625 48.484375 
Q 26.265625 48.484375 22.1875 42.84375 
Q 18.109375 37.203125 18.109375 27.296875 
Q 18.109375 17.390625 22.1875 11.75 
Q 26.265625 6.109375 33.40625 6.109375 
Q 40.53125 6.109375 44.609375 11.75 
Q 48.6875 17.390625 48.6875 27.296875 
z
M 18.109375 46.390625 
Q 20.953125 51.265625 25.265625 53.625 
Q 29.59375 56 35.59375 56 
Q 45.5625 56 51.78125 48.09375 
Q 58.015625 40.1875 58.015625 27.296875 
Q 58.015625 14.40625 51.78125 6.484375 
Q 45.5625 -1.421875 35.59375 -1.421875 
Q 29.59375 -1.421875 25.265625 0.953125 
Q 20.953125 3.328125 18.109375 8.203125 
L 18.109375 0 
L 9.078125 0 
L 9.078125 75.984375 
L 18.109375 75.984375 
z
" id="DejaVuSans-98"/>
       <path d="M 45.40625 27.984375 
Q 45.40625 37.75 41.375 43.109375 
Q 37.359375 48.484375 30.078125 48.484375 
Q 22.859375 48.484375 18.828125 43.109375 
Q 14.796875 37.75 14.796875 27.984375 
Q 14.796875 18.265625 18.828125 12.890625 
Q 22.859375 7.515625 30.078125 7.515625 
Q 37.359375 7.515625 41.375 12.890625 
Q 45.40625 18.265625 45.40625 27.984375 
z
M 54.390625 6.78125 
Q 54.390625 -7.171875 48.1875 -13.984375 
Q 42 -20.796875 29.203125 -20.796875 
Q 24.46875 -20.796875 20.265625 -20.09375 
Q 16.0625 -19.390625 12.109375 -17.921875 
L 12.109375 -9.1875 
Q 16.0625 -11.328125 19.921875 -12.34375 
Q 23.78125 -13.375 27.78125 -13.375 
Q 36.625 -13.375 41.015625 -8.765625 
Q 45.40625 -4.15625 45.40625 5.171875 
L 45.40625 9.625 
Q 42.625 4.78125 38.28125 2.390625 
Q 33.9375 0 27.875 0 
Q 17.828125 0 11.671875 7.65625 
Q 5.515625 15.328125 5.515625 27.984375 
Q 5.515625 40.671875 11.671875 48.328125 
Q 17.828125 56 27.875 56 
Q 33.9375 56 38.28125 53.609375 
Q 42.625 51.21875 45.40625 46.390625 
L 45.40625 54.6875 
L 54.390625 54.6875 
z
" id="DejaVuSans-103"/>
       <path d="M 9.8125 72.90625 
L 55.90625 72.90625 
L 55.90625 64.59375 
L 19.671875 64.59375 
L 19.671875 43.015625 
L 54.390625 43.015625 
L 54.390625 34.71875 
L 19.671875 34.71875 
L 19.671875 8.296875 
L 56.78125 8.296875 
L 56.78125 0 
L 9.8125 0 
z
" id="DejaVuSans-69"/>
      </defs>
      <use xlink:href="#DejaVuSans-77"/>
      <use x="86.279297" xlink:href="#DejaVuSans-111"/>
      <use x="147.460938" xlink:href="#DejaVuSans-100"/>
      <use x="210.9375" xlink:href="#DejaVuSans-101"/>
      <use x="272.460938" xlink:href="#DejaVuSans-108"/>
      <use x="300.244141" xlink:href="#DejaVuSans-32"/>
      <use x="332.03125" xlink:href="#DejaVuSans-80"/>
      <use x="390.583984" xlink:href="#DejaVuSans-114"/>
      <use x="429.447266" xlink:href="#DejaVuSans-101"/>
      <use x="490.970703" xlink:href="#DejaVuSans-100"/>
      <use x="554.447266" xlink:href="#DejaVuSans-105"/>
      <use x="582.230469" xlink:href="#DejaVuSans-99"/>
      <use x="637.210938" xlink:href="#DejaVuSans-116"/>
      <use x="676.419922" xlink:href="#DejaVuSans-105"/>
      <use x="704.203125" xlink:href="#DejaVuSans-111"/>
      <use x="765.384766" xlink:href="#DejaVuSans-110"/>
      <use x="828.763672" xlink:href="#DejaVuSans-32"/>
      <use x="860.550781" xlink:href="#DejaVuSans-111"/>
      <use x="921.732422" xlink:href="#DejaVuSans-102"/>
      <use x="956.9375" xlink:href="#DejaVuSans-32"/>
      <use x="988.724609" xlink:href="#DejaVuSans-116"/>
      <use x="1027.933594" xlink:href="#DejaVuSans-104"/>
      <use x="1091.3125" xlink:href="#DejaVuSans-101"/>
      <use x="1152.835938" xlink:href="#DejaVuSans-32"/>
      <use x="1184.623047" xlink:href="#DejaVuSans-87"/>
      <use x="1277.125" xlink:href="#DejaVuSans-97"/>
      <use x="1338.404297" xlink:href="#DejaVuSans-114"/>
      <use x="1379.517578" xlink:href="#DejaVuSans-98"/>
      <use x="1442.994141" xlink:href="#DejaVuSans-117"/>
      <use x="1506.373047" xlink:href="#DejaVuSans-114"/>
      <use x="1545.736328" xlink:href="#DejaVuSans-103"/>
      <use x="1609.212891" xlink:href="#DejaVuSans-32"/>
      <use x="1641" xlink:href="#DejaVuSans-69"/>
      <use x="1704.183594" xlink:href="#DejaVuSans-102"/>
      <use x="1739.388672" xlink:href="#DejaVuSans-102"/>
      <use x="1774.59375" xlink:href="#DejaVuSans-101"/>
      <use x="1836.117188" xlink:href="#DejaVuSans-99"/>
      <use x="1891.097656" xlink:href="#DejaVuSans-116"/>
     </g>
    </g>
    <g id="line2d_13"/>
    <g id="line2d_14">
     <defs>
      <path d="M 0 4.5 
C 1.193414 4.5 2.338109 4.025852 3.181981 3.181981 
C 4.025852 2.338109 4.5 1.193414 4.5 0 
C 4.5 -1.193414 4.025852 -2.338109 3.181981 -3.181981 
C 2.338109 -4.025852 1.193414 -4.5 0 -4.5 
C -1.193414 -4.5 -2.338109 -4.025852 -3.181981 -3.181981 
C -4.025852 -2.338109 -4.5 -1.193414 -4.5 0 
C -4.5 1.193414 -4.025852 2.338109 -3.181981 3.181981 
C -2.338109 4.025852 -1.193414 4.5 0 4.5 
z
" id="m4e574edbe3" style="stroke:#dc143c;"/>
     </defs>
     <g>
      <use style="fill:#dc143c;stroke:#dc143c;" x="121.3075" xlink:href="#m4e574edbe3" y="55.549531"/>
     </g>
    </g>
    <g id="text_16">
     <!-- Acetate Production (mmol gprotein-1 hr-1) -->
     <g transform="translate(144.7075 60.099531)scale(0.13 -0.13)">
      <defs>
       <path d="M 31 75.875 
Q 24.46875 64.65625 21.28125 53.65625 
Q 18.109375 42.671875 18.109375 31.390625 
Q 18.109375 20.125 21.3125 9.0625 
Q 24.515625 -2 31 -13.1875 
L 23.1875 -13.1875 
Q 15.875 -1.703125 12.234375 9.375 
Q 8.59375 20.453125 8.59375 31.390625 
Q 8.59375 42.28125 12.203125 53.3125 
Q 15.828125 64.359375 23.1875 75.875 
z
" id="DejaVuSans-40"/>
       <path d="M 52 44.1875 
Q 55.375 50.25 60.0625 53.125 
Q 64.75 56 71.09375 56 
Q 79.640625 56 84.28125 50.015625 
Q 88.921875 44.046875 88.921875 33.015625 
L 88.921875 0 
L 79.890625 0 
L 79.890625 32.71875 
Q 79.890625 40.578125 77.09375 44.375 
Q 74.3125 48.1875 68.609375 48.1875 
Q 61.625 48.1875 57.5625 43.546875 
Q 53.515625 38.921875 53.515625 30.90625 
L 53.515625 0 
L 44.484375 0 
L 44.484375 32.71875 
Q 44.484375 40.625 41.703125 44.40625 
Q 38.921875 48.1875 33.109375 48.1875 
Q 26.21875 48.1875 22.15625 43.53125 
Q 18.109375 38.875 18.109375 30.90625 
L 18.109375 0 
L 9.078125 0 
L 9.078125 54.6875 
L 18.109375 54.6875 
L 18.109375 46.1875 
Q 21.1875 51.21875 25.484375 53.609375 
Q 29.78125 56 35.6875 56 
Q 41.65625 56 45.828125 52.96875 
Q 50 49.953125 52 44.1875 
z
" id="DejaVuSans-109"/>
       <path d="M 4.890625 31.390625 
L 31.203125 31.390625 
L 31.203125 23.390625 
L 4.890625 23.390625 
z
" id="DejaVuSans-45"/>
       <path d="M 8.015625 75.875 
L 15.828125 75.875 
Q 23.140625 64.359375 26.78125 53.3125 
Q 30.421875 42.28125 30.421875 31.390625 
Q 30.421875 20.453125 26.78125 9.375 
Q 23.140625 -1.703125 15.828125 -13.1875 
L 8.015625 -13.1875 
Q 14.5 -2 17.703125 9.0625 
Q 20.90625 20.125 20.90625 31.390625 
Q 20.90625 42.671875 17.703125 53.65625 
Q 14.5 64.65625 8.015625 75.875 
z
" id="DejaVuSans-41"/>
      </defs>
      <use xlink:href="#DejaVuSans-65"/>
      <use x="66.658203" xlink:href="#DejaVuSans-99"/>
      <use x="121.638672" xlink:href="#DejaVuSans-101"/>
      <use x="183.162109" xlink:href="#DejaVuSans-116"/>
      <use x="222.371094" xlink:href="#DejaVuSans-97"/>
      <use x="283.650391" xlink:href="#DejaVuSans-116"/>
      <use x="322.859375" xlink:href="#DejaVuSans-101"/>
      <use x="384.382812" xlink:href="#DejaVuSans-32"/>
      <use x="416.169922" xlink:href="#DejaVuSans-80"/>
      <use x="474.722656" xlink:href="#DejaVuSans-114"/>
      <use x="513.585938" xlink:href="#DejaVuSans-111"/>
      <use x="574.767578" xlink:href="#DejaVuSans-100"/>
      <use x="638.244141" xlink:href="#DejaVuSans-117"/>
      <use x="701.623047" xlink:href="#DejaVuSans-99"/>
      <use x="756.603516" xlink:href="#DejaVuSans-116"/>
      <use x="795.8125" xlink:href="#DejaVuSans-105"/>
      <use x="823.595703" xlink:href="#DejaVuSans-111"/>
      <use x="884.777344" xlink:href="#DejaVuSans-110"/>
      <use x="948.15625" xlink:href="#DejaVuSans-32"/>
      <use x="979.943359" xlink:href="#DejaVuSans-40"/>
      <use x="1018.957031" xlink:href="#DejaVuSans-109"/>
      <use x="1116.369141" xlink:href="#DejaVuSans-109"/>
      <use x="1213.78125" xlink:href="#DejaVuSans-111"/>
      <use x="1274.962891" xlink:href="#DejaVuSans-108"/>
      <use x="1302.746094" xlink:href="#DejaVuSans-32"/>
      <use x="1334.533203" xlink:href="#DejaVuSans-103"/>
      <use x="1398.009766" xlink:href="#DejaVuSans-112"/>
      <use x="1461.486328" xlink:href="#DejaVuSans-114"/>
      <use x="1500.349609" xlink:href="#DejaVuSans-111"/>
      <use x="1561.53125" xlink:href="#DejaVuSans-116"/>
      <use x="1600.740234" xlink:href="#DejaVuSans-101"/>
      <use x="1662.263672" xlink:href="#DejaVuSans-105"/>
      <use x="1690.046875" xlink:href="#DejaVuSans-110"/>
      <use x="1753.425781" xlink:href="#DejaVuSans-45"/>
      <use x="1789.509766" xlink:href="#DejaVuSans-49"/>
      <use x="1853.132812" xlink:href="#DejaVuSans-32"/>
      <use x="1884.919922" xlink:href="#DejaVuSans-104"/>
      <use x="1948.298828" xlink:href="#DejaVuSans-114"/>
      <use x="1983.037109" xlink:href="#DejaVuSans-45"/>
      <use x="2019.121094" xlink:href="#DejaVuSans-49"/>
      <use x="2082.744141" xlink:href="#DejaVuSans-41"/>
     </g>
    </g>
   </g>
  </g>
 </g>
 <defs>
  <clipPath id="p09d994e04e">
   <rect height="466.4525" width="459.9525" x="96.6075" y="19.44"/>
  </clipPath>
 </defs>
</svg>
