<?xml version="1.0" encoding="utf-8" standalone="no"?>
<!DOCTYPE svg PUBLIC "-//W3C//DTD SVG 1.1//EN"
  "http://www.w3.org/Graphics/SVG/1.1/DTD/svg11.dtd">
<!-- Created with matplotlib (https://matplotlib.org/) -->
<svg height="576pt" version="1.1" viewBox="0 0 576 576" width="576pt" xmlns="http://www.w3.org/2000/svg" xmlns:xlink="http://www.w3.org/1999/xlink">
 <metadata>
  <rdf:RDF xmlns:cc="http://creativecommons.org/ns#" xmlns:dc="http://purl.org/dc/elements/1.1/" xmlns:rdf="http://www.w3.org/1999/02/22-rdf-syntax-ns#">
   <cc:Work>
    <dc:type rdf:resource="http://purl.org/dc/dcmitype/StillImage"/>
    <dc:date>2023-01-24T16:44:11.632279</dc:date>
    <dc:format>image/svg+xml</dc:format>
    <dc:creator>
     <cc:Agent>
      <dc:title>Matplotlib v3.3.4, https://matplotlib.org/</dc:title>
     </cc:Agent>
    </dc:creator>
   </cc:Work>
  </rdf:RDF>
 </metadata>
 <defs>
  <style type="text/css">*{stroke-linecap:butt;stroke-linejoin:round;}</style>
 </defs>
 <g id="figure_1">
  <g id="patch_1">
   <path d="M 0 576 
L 576 576 
L 576 0 
L 0 0 
z
" style="fill:none;"/>
  </g>
  <g id="axes_1">
   <g id="patch_2">
    <path d="M 102.1075 480.3925 
L 554.438571 480.3925 
L 554.438571 19.44 
L 102.1075 19.44 
z
" style="fill:#ffffff;"/>
   </g>
   <g id="PathCollection_1"/>
   <g id="PathCollection_2"/>
   <g id="PathCollection_3"/>
   <g id="PathCollection_4"/>
   <g id="PathCollection_5"/>
   <g id="PathCollection_6"/>
   <g id="PathCollection_7"/>
   <g id="patch_3">
    <path clip-path="url(#pcaadcb9c3c)" d="M 136.089156 480.3925 
L 136.089156 19.44 
L 554.438571 19.44 
L 554.438571 480.3925 
z
" style="fill:#dc143c;opacity:0.5;stroke:#dc143c;stroke-linejoin:miter;stroke-width:1.5;"/>
   </g>
   <g id="matplotlib.axis_1">
    <g id="xtick_1">
     <g id="line2d_1">
      <defs>
       <path d="M 0 0 
L 0 9 
" id="ma4e3aec9f6" style="stroke:#000000;stroke-width:1.875;"/>
      </defs>
      <g>
       <use style="stroke:#000000;stroke-width:1.875;" x="112.877287" xlink:href="#ma4e3aec9f6" y="480.3925"/>
      </g>
     </g>
     <g id="text_1">
      <!-- 0 -->
      <g transform="translate(106.514787 508.089375)scale(0.2 -0.2)">
       <defs>
        <path d="M 31.78125 66.40625 
Q 24.171875 66.40625 20.328125 58.90625 
Q 16.5 51.421875 16.5 36.375 
Q 16.5 21.390625 20.328125 13.890625 
Q 24.171875 6.390625 31.78125 6.390625 
Q 39.453125 6.390625 43.28125 13.890625 
Q 47.125 21.390625 47.125 36.375 
Q 47.125 51.421875 43.28125 58.90625 
Q 39.453125 66.40625 31.78125 66.40625 
z
M 31.78125 74.21875 
Q 44.046875 74.21875 50.515625 64.515625 
Q 56.984375 54.828125 56.984375 36.375 
Q 56.984375 17.96875 50.515625 8.265625 
Q 44.046875 -1.421875 31.78125 -1.421875 
Q 19.53125 -1.421875 13.0625 8.265625 
Q 6.59375 17.96875 6.59375 36.375 
Q 6.59375 54.828125 13.0625 64.515625 
Q 19.53125 74.21875 31.78125 74.21875 
z
" id="DejaVuSans-48"/>
       </defs>
       <use xlink:href="#DejaVuSans-48"/>
      </g>
     </g>
    </g>
    <g id="xtick_2">
     <g id="line2d_2">
      <g>
       <use style="stroke:#000000;stroke-width:1.875;" x="220.575162" xlink:href="#ma4e3aec9f6" y="480.3925"/>
      </g>
     </g>
     <g id="text_2">
      <!-- 10 -->
      <g transform="translate(207.850162 508.089375)scale(0.2 -0.2)">
       <defs>
        <path d="M 12.40625 8.296875 
L 28.515625 8.296875 
L 28.515625 63.921875 
L 10.984375 60.40625 
L 10.984375 69.390625 
L 28.421875 72.90625 
L 38.28125 72.90625 
L 38.28125 8.296875 
L 54.390625 8.296875 
L 54.390625 0 
L 12.40625 0 
z
" id="DejaVuSans-49"/>
       </defs>
       <use xlink:href="#DejaVuSans-49"/>
       <use x="63.623047" xlink:href="#DejaVuSans-48"/>
      </g>
     </g>
    </g>
    <g id="xtick_3">
     <g id="line2d_3">
      <g>
       <use style="stroke:#000000;stroke-width:1.875;" x="328.273036" xlink:href="#ma4e3aec9f6" y="480.3925"/>
      </g>
     </g>
     <g id="text_3">
      <!-- 20 -->
      <g transform="translate(315.548036 508.089375)scale(0.2 -0.2)">
       <defs>
        <path d="M 19.1875 8.296875 
L 53.609375 8.296875 
L 53.609375 0 
L 7.328125 0 
L 7.328125 8.296875 
Q 12.9375 14.109375 22.625 23.890625 
Q 32.328125 33.6875 34.8125 36.53125 
Q 39.546875 41.84375 41.421875 45.53125 
Q 43.3125 49.21875 43.3125 52.78125 
Q 43.3125 58.59375 39.234375 62.25 
Q 35.15625 65.921875 28.609375 65.921875 
Q 23.96875 65.921875 18.8125 64.3125 
Q 13.671875 62.703125 7.8125 59.421875 
L 7.8125 69.390625 
Q 13.765625 71.78125 18.9375 73 
Q 24.125 74.21875 28.421875 74.21875 
Q 39.75 74.21875 46.484375 68.546875 
Q 53.21875 62.890625 53.21875 53.421875 
Q 53.21875 48.921875 51.53125 44.890625 
Q 49.859375 40.875 45.40625 35.40625 
Q 44.1875 33.984375 37.640625 27.21875 
Q 31.109375 20.453125 19.1875 8.296875 
z
" id="DejaVuSans-50"/>
       </defs>
       <use xlink:href="#DejaVuSans-50"/>
       <use x="63.623047" xlink:href="#DejaVuSans-48"/>
      </g>
     </g>
    </g>
    <g id="xtick_4">
     <g id="line2d_4">
      <g>
       <use style="stroke:#000000;stroke-width:1.875;" x="435.97091" xlink:href="#ma4e3aec9f6" y="480.3925"/>
      </g>
     </g>
     <g id="text_4">
      <!-- 30 -->
      <g transform="translate(423.24591 508.089375)scale(0.2 -0.2)">
       <defs>
        <path d="M 40.578125 39.3125 
Q 47.65625 37.796875 51.625 33 
Q 55.609375 28.21875 55.609375 21.1875 
Q 55.609375 10.40625 48.1875 4.484375 
Q 40.765625 -1.421875 27.09375 -1.421875 
Q 22.515625 -1.421875 17.65625 -0.515625 
Q 12.796875 0.390625 7.625 2.203125 
L 7.625 11.71875 
Q 11.71875 9.328125 16.59375 8.109375 
Q 21.484375 6.890625 26.8125 6.890625 
Q 36.078125 6.890625 40.9375 10.546875 
Q 45.796875 14.203125 45.796875 21.1875 
Q 45.796875 27.640625 41.28125 31.265625 
Q 36.765625 34.90625 28.71875 34.90625 
L 20.21875 34.90625 
L 20.21875 43.015625 
L 29.109375 43.015625 
Q 36.375 43.015625 40.234375 45.921875 
Q 44.09375 48.828125 44.09375 54.296875 
Q 44.09375 59.90625 40.109375 62.90625 
Q 36.140625 65.921875 28.71875 65.921875 
Q 24.65625 65.921875 20.015625 65.03125 
Q 15.375 64.15625 9.8125 62.3125 
L 9.8125 71.09375 
Q 15.4375 72.65625 20.34375 73.4375 
Q 25.25 74.21875 29.59375 74.21875 
Q 40.828125 74.21875 47.359375 69.109375 
Q 53.90625 64.015625 53.90625 55.328125 
Q 53.90625 49.265625 50.4375 45.09375 
Q 46.96875 40.921875 40.578125 39.3125 
z
" id="DejaVuSans-51"/>
       </defs>
       <use xlink:href="#DejaVuSans-51"/>
       <use x="63.623047" xlink:href="#DejaVuSans-48"/>
      </g>
     </g>
    </g>
    <g id="xtick_5">
     <g id="line2d_5">
      <g>
       <use style="stroke:#000000;stroke-width:1.875;" x="543.668784" xlink:href="#ma4e3aec9f6" y="480.3925"/>
      </g>
     </g>
     <g id="text_5">
      <!-- 40 -->
      <g transform="translate(530.943784 508.089375)scale(0.2 -0.2)">
       <defs>
        <path d="M 37.796875 64.3125 
L 12.890625 25.390625 
L 37.796875 25.390625 
z
M 35.203125 72.90625 
L 47.609375 72.90625 
L 47.609375 25.390625 
L 58.015625 25.390625 
L 58.015625 17.1875 
L 47.609375 17.1875 
L 47.609375 0 
L 37.796875 0 
L 37.796875 17.1875 
L 4.890625 17.1875 
L 4.890625 26.703125 
z
" id="DejaVuSans-52"/>
       </defs>
       <use xlink:href="#DejaVuSans-52"/>
       <use x="63.623047" xlink:href="#DejaVuSans-48"/>
      </g>
     </g>
    </g>
    <g id="text_6">
     <!-- Glucose Uptake Rate$ \left(\frac{mmol}{g_{protein} \cdot hr^{}}\right)$ -->
     <g transform="translate(153.818036 538.78875)scale(0.23 -0.23)">
      <defs>
       <path d="M 59.515625 10.40625 
L 59.515625 29.984375 
L 43.40625 29.984375 
L 43.40625 38.09375 
L 69.28125 38.09375 
L 69.28125 6.78125 
Q 63.578125 2.734375 56.6875 0.65625 
Q 49.8125 -1.421875 42 -1.421875 
Q 24.90625 -1.421875 15.25 8.5625 
Q 5.609375 18.5625 5.609375 36.375 
Q 5.609375 54.25 15.25 64.234375 
Q 24.90625 74.21875 42 74.21875 
Q 49.125 74.21875 55.546875 72.453125 
Q 61.96875 70.703125 67.390625 67.28125 
L 67.390625 56.78125 
Q 61.921875 61.421875 55.765625 63.765625 
Q 49.609375 66.109375 42.828125 66.109375 
Q 29.4375 66.109375 22.71875 58.640625 
Q 16.015625 51.171875 16.015625 36.375 
Q 16.015625 21.625 22.71875 14.15625 
Q 29.4375 6.6875 42.828125 6.6875 
Q 48.046875 6.6875 52.140625 7.59375 
Q 56.25 8.5 59.515625 10.40625 
z
" id="DejaVuSans-71"/>
       <path d="M 9.421875 75.984375 
L 18.40625 75.984375 
L 18.40625 0 
L 9.421875 0 
z
" id="DejaVuSans-108"/>
       <path d="M 8.5 21.578125 
L 8.5 54.6875 
L 17.484375 54.6875 
L 17.484375 21.921875 
Q 17.484375 14.15625 20.5 10.265625 
Q 23.53125 6.390625 29.59375 6.390625 
Q 36.859375 6.390625 41.078125 11.03125 
Q 45.3125 15.671875 45.3125 23.6875 
L 45.3125 54.6875 
L 54.296875 54.6875 
L 54.296875 0 
L 45.3125 0 
L 45.3125 8.40625 
Q 42.046875 3.421875 37.71875 1 
Q 33.40625 -1.421875 27.6875 -1.421875 
Q 18.265625 -1.421875 13.375 4.4375 
Q 8.5 10.296875 8.5 21.578125 
z
M 31.109375 56 
z
" id="DejaVuSans-117"/>
       <path d="M 48.78125 52.59375 
L 48.78125 44.1875 
Q 44.96875 46.296875 41.140625 47.34375 
Q 37.3125 48.390625 33.40625 48.390625 
Q 24.65625 48.390625 19.8125 42.84375 
Q 14.984375 37.3125 14.984375 27.296875 
Q 14.984375 17.28125 19.8125 11.734375 
Q 24.65625 6.203125 33.40625 6.203125 
Q 37.3125 6.203125 41.140625 7.25 
Q 44.96875 8.296875 48.78125 10.40625 
L 48.78125 2.09375 
Q 45.015625 0.34375 40.984375 -0.53125 
Q 36.96875 -1.421875 32.421875 -1.421875 
Q 20.0625 -1.421875 12.78125 6.34375 
Q 5.515625 14.109375 5.515625 27.296875 
Q 5.515625 40.671875 12.859375 48.328125 
Q 20.21875 56 33.015625 56 
Q 37.15625 56 41.109375 55.140625 
Q 45.0625 54.296875 48.78125 52.59375 
z
" id="DejaVuSans-99"/>
       <path d="M 30.609375 48.390625 
Q 23.390625 48.390625 19.1875 42.75 
Q 14.984375 37.109375 14.984375 27.296875 
Q 14.984375 17.484375 19.15625 11.84375 
Q 23.34375 6.203125 30.609375 6.203125 
Q 37.796875 6.203125 41.984375 11.859375 
Q 46.1875 17.53125 46.1875 27.296875 
Q 46.1875 37.015625 41.984375 42.703125 
Q 37.796875 48.390625 30.609375 48.390625 
z
M 30.609375 56 
Q 42.328125 56 49.015625 48.375 
Q 55.71875 40.765625 55.71875 27.296875 
Q 55.71875 13.875 49.015625 6.21875 
Q 42.328125 -1.421875 30.609375 -1.421875 
Q 18.84375 -1.421875 12.171875 6.21875 
Q 5.515625 13.875 5.515625 27.296875 
Q 5.515625 40.765625 12.171875 48.375 
Q 18.84375 56 30.609375 56 
z
" id="DejaVuSans-111"/>
       <path d="M 44.28125 53.078125 
L 44.28125 44.578125 
Q 40.484375 46.53125 36.375 47.5 
Q 32.28125 48.484375 27.875 48.484375 
Q 21.1875 48.484375 17.84375 46.4375 
Q 14.5 44.390625 14.5 40.28125 
Q 14.5 37.15625 16.890625 35.375 
Q 19.28125 33.59375 26.515625 31.984375 
L 29.59375 31.296875 
Q 39.15625 29.25 43.1875 25.515625 
Q 47.21875 21.78125 47.21875 15.09375 
Q 47.21875 7.46875 41.1875 3.015625 
Q 35.15625 -1.421875 24.609375 -1.421875 
Q 20.21875 -1.421875 15.453125 -0.5625 
Q 10.6875 0.296875 5.421875 2 
L 5.421875 11.28125 
Q 10.40625 8.6875 15.234375 7.390625 
Q 20.0625 6.109375 24.8125 6.109375 
Q 31.15625 6.109375 34.5625 8.28125 
Q 37.984375 10.453125 37.984375 14.40625 
Q 37.984375 18.0625 35.515625 20.015625 
Q 33.0625 21.96875 24.703125 23.78125 
L 21.578125 24.515625 
Q 13.234375 26.265625 9.515625 29.90625 
Q 5.8125 33.546875 5.8125 39.890625 
Q 5.8125 47.609375 11.28125 51.796875 
Q 16.75 56 26.8125 56 
Q 31.78125 56 36.171875 55.265625 
Q 40.578125 54.546875 44.28125 53.078125 
z
" id="DejaVuSans-115"/>
       <path d="M 56.203125 29.59375 
L 56.203125 25.203125 
L 14.890625 25.203125 
Q 15.484375 15.921875 20.484375 11.0625 
Q 25.484375 6.203125 34.421875 6.203125 
Q 39.59375 6.203125 44.453125 7.46875 
Q 49.3125 8.734375 54.109375 11.28125 
L 54.109375 2.78125 
Q 49.265625 0.734375 44.1875 -0.34375 
Q 39.109375 -1.421875 33.890625 -1.421875 
Q 20.796875 -1.421875 13.15625 6.1875 
Q 5.515625 13.8125 5.515625 26.8125 
Q 5.515625 40.234375 12.765625 48.109375 
Q 20.015625 56 32.328125 56 
Q 43.359375 56 49.78125 48.890625 
Q 56.203125 41.796875 56.203125 29.59375 
z
M 47.21875 32.234375 
Q 47.125 39.59375 43.09375 43.984375 
Q 39.0625 48.390625 32.421875 48.390625 
Q 24.90625 48.390625 20.390625 44.140625 
Q 15.875 39.890625 15.1875 32.171875 
z
" id="DejaVuSans-101"/>
       <path id="DejaVuSans-32"/>
       <path d="M 8.6875 72.90625 
L 18.609375 72.90625 
L 18.609375 28.609375 
Q 18.609375 16.890625 22.84375 11.734375 
Q 27.09375 6.59375 36.625 6.59375 
Q 46.09375 6.59375 50.34375 11.734375 
Q 54.59375 16.890625 54.59375 28.609375 
L 54.59375 72.90625 
L 64.5 72.90625 
L 64.5 27.390625 
Q 64.5 13.140625 57.4375 5.859375 
Q 50.390625 -1.421875 36.625 -1.421875 
Q 22.796875 -1.421875 15.734375 5.859375 
Q 8.6875 13.140625 8.6875 27.390625 
z
" id="DejaVuSans-85"/>
       <path d="M 18.109375 8.203125 
L 18.109375 -20.796875 
L 9.078125 -20.796875 
L 9.078125 54.6875 
L 18.109375 54.6875 
L 18.109375 46.390625 
Q 20.953125 51.265625 25.265625 53.625 
Q 29.59375 56 35.59375 56 
Q 45.5625 56 51.78125 48.09375 
Q 58.015625 40.1875 58.015625 27.296875 
Q 58.015625 14.40625 51.78125 6.484375 
Q 45.5625 -1.421875 35.59375 -1.421875 
Q 29.59375 -1.421875 25.265625 0.953125 
Q 20.953125 3.328125 18.109375 8.203125 
z
M 48.6875 27.296875 
Q 48.6875 37.203125 44.609375 42.84375 
Q 40.53125 48.484375 33.40625 48.484375 
Q 26.265625 48.484375 22.1875 42.84375 
Q 18.109375 37.203125 18.109375 27.296875 
Q 18.109375 17.390625 22.1875 11.75 
Q 26.265625 6.109375 33.40625 6.109375 
Q 40.53125 6.109375 44.609375 11.75 
Q 48.6875 17.390625 48.6875 27.296875 
z
" id="DejaVuSans-112"/>
       <path d="M 18.3125 70.21875 
L 18.3125 54.6875 
L 36.8125 54.6875 
L 36.8125 47.703125 
L 18.3125 47.703125 
L 18.3125 18.015625 
Q 18.3125 11.328125 20.140625 9.421875 
Q 21.96875 7.515625 27.59375 7.515625 
L 36.8125 7.515625 
L 36.8125 0 
L 27.59375 0 
Q 17.1875 0 13.234375 3.875 
Q 9.28125 7.765625 9.28125 18.015625 
L 9.28125 47.703125 
L 2.6875 47.703125 
L 2.6875 54.6875 
L 9.28125 54.6875 
L 9.28125 70.21875 
z
" id="DejaVuSans-116"/>
       <path d="M 34.28125 27.484375 
Q 23.390625 27.484375 19.1875 25 
Q 14.984375 22.515625 14.984375 16.5 
Q 14.984375 11.71875 18.140625 8.90625 
Q 21.296875 6.109375 26.703125 6.109375 
Q 34.1875 6.109375 38.703125 11.40625 
Q 43.21875 16.703125 43.21875 25.484375 
L 43.21875 27.484375 
z
M 52.203125 31.203125 
L 52.203125 0 
L 43.21875 0 
L 43.21875 8.296875 
Q 40.140625 3.328125 35.546875 0.953125 
Q 30.953125 -1.421875 24.3125 -1.421875 
Q 15.921875 -1.421875 10.953125 3.296875 
Q 6 8.015625 6 15.921875 
Q 6 25.140625 12.171875 29.828125 
Q 18.359375 34.515625 30.609375 34.515625 
L 43.21875 34.515625 
L 43.21875 35.40625 
Q 43.21875 41.609375 39.140625 45 
Q 35.0625 48.390625 27.6875 48.390625 
Q 23 48.390625 18.546875 47.265625 
Q 14.109375 46.140625 10.015625 43.890625 
L 10.015625 52.203125 
Q 14.9375 54.109375 19.578125 55.046875 
Q 24.21875 56 28.609375 56 
Q 40.484375 56 46.34375 49.84375 
Q 52.203125 43.703125 52.203125 31.203125 
z
" id="DejaVuSans-97"/>
       <path d="M 9.078125 75.984375 
L 18.109375 75.984375 
L 18.109375 31.109375 
L 44.921875 54.6875 
L 56.390625 54.6875 
L 27.390625 29.109375 
L 57.625 0 
L 45.90625 0 
L 18.109375 26.703125 
L 18.109375 0 
L 9.078125 0 
z
" id="DejaVuSans-107"/>
       <path d="M 44.390625 34.1875 
Q 47.5625 33.109375 50.5625 29.59375 
Q 53.5625 26.078125 56.59375 19.921875 
L 66.609375 0 
L 56 0 
L 46.6875 18.703125 
Q 43.0625 26.03125 39.671875 28.421875 
Q 36.28125 30.8125 30.421875 30.8125 
L 19.671875 30.8125 
L 19.671875 0 
L 9.8125 0 
L 9.8125 72.90625 
L 32.078125 72.90625 
Q 44.578125 72.90625 50.734375 67.671875 
Q 56.890625 62.453125 56.890625 51.90625 
Q 56.890625 45.015625 53.6875 40.46875 
Q 50.484375 35.9375 44.390625 34.1875 
z
M 19.671875 64.796875 
L 19.671875 38.921875 
L 32.078125 38.921875 
Q 39.203125 38.921875 42.84375 42.21875 
Q 46.484375 45.515625 46.484375 51.90625 
Q 46.484375 58.296875 42.84375 61.546875 
Q 39.203125 64.796875 32.078125 64.796875 
z
" id="DejaVuSans-82"/>
       <path d="M 50.296875 -24.296875 
L 50.296875 -27.90625 
Q 33.5 -12.09375 23.703125 11.40625 
Q 13.90625 34.90625 13.90625 64.296875 
Q 13.90625 93.796875 23.953125 118.640625 
Q 34 143.5 50.296875 156.59375 
L 50.296875 153.296875 
Q 38.90625 141.59375 31.15625 118.84375 
Q 23.40625 96.09375 23.40625 64.296875 
Q 23.40625 8.796875 50.296875 -24.296875 
z
" id="STIXSizeTwoSym-Regular-40"/>
       <path d="M 89.796875 33.015625 
L 83.40625 0 
L 74.421875 0 
L 80.71875 32.71875 
Q 81.109375 34.8125 81.296875 36.328125 
Q 81.5 37.84375 81.5 38.921875 
Q 81.5 43.3125 79.046875 45.75 
Q 76.609375 48.1875 72.21875 48.1875 
Q 65.671875 48.1875 60.546875 43.28125 
Q 55.421875 38.375 53.90625 30.515625 
L 47.90625 0 
L 38.921875 0 
L 45.3125 32.71875 
Q 45.703125 34.515625 45.890625 36.046875 
Q 46.09375 37.59375 46.09375 38.8125 
Q 46.09375 43.265625 43.65625 45.71875 
Q 41.21875 48.1875 36.921875 48.1875 
Q 30.28125 48.1875 25.140625 43.28125 
Q 20.015625 38.375 18.5 30.515625 
L 12.5 0 
L 3.515625 0 
L 14.203125 54.6875 
L 23.1875 54.6875 
L 21.484375 46.1875 
Q 25.140625 50.984375 30.046875 53.484375 
Q 34.96875 56 40.578125 56 
Q 46.53125 56 50.359375 52.875 
Q 54.203125 49.75 54.984375 44.1875 
Q 59.078125 49.953125 64.46875 52.96875 
Q 69.875 56 75.875 56 
Q 82.90625 56 86.734375 51.953125 
Q 90.578125 47.90625 90.578125 40.484375 
Q 90.578125 38.875 90.375 36.9375 
Q 90.1875 35.015625 89.796875 33.015625 
z
" id="DejaVuSans-Oblique-109"/>
       <path d="M 25.390625 -1.421875 
Q 15.765625 -1.421875 10.171875 4.515625 
Q 4.59375 10.453125 4.59375 20.703125 
Q 4.59375 26.65625 6.515625 32.828125 
Q 8.453125 39.015625 11.53125 43.21875 
Q 16.359375 49.75 22.3125 52.875 
Q 28.265625 56 35.796875 56 
Q 45.125 56 50.859375 50.1875 
Q 56.59375 44.390625 56.59375 35.015625 
Q 56.59375 28.515625 54.6875 22.0625 
Q 52.78125 15.625 49.703125 11.375 
Q 44.921875 4.828125 38.96875 1.703125 
Q 33.015625 -1.421875 25.390625 -1.421875 
z
M 13.921875 21 
Q 13.921875 13.578125 17.015625 9.890625 
Q 20.125 6.203125 26.421875 6.203125 
Q 35.453125 6.203125 41.375 14.078125 
Q 47.3125 21.96875 47.3125 34.078125 
Q 47.3125 41.15625 44.140625 44.765625 
Q 40.96875 48.390625 34.8125 48.390625 
Q 29.734375 48.390625 25.78125 46.015625 
Q 21.828125 43.65625 18.703125 38.8125 
Q 16.40625 35.203125 15.15625 30.5625 
Q 13.921875 25.921875 13.921875 21 
z
" id="DejaVuSans-Oblique-111"/>
       <path d="M 18.3125 75.984375 
L 27.296875 75.984375 
L 12.5 0 
L 3.515625 0 
z
" id="DejaVuSans-Oblique-108"/>
       <path d="M 59.625 54.6875 
L 50.296875 6.78125 
Q 47.609375 -7.125 40.015625 -13.953125 
Q 32.421875 -20.796875 19.578125 -20.796875 
Q 14.84375 -20.796875 10.78125 -20.09375 
Q 6.734375 -19.390625 3.21875 -17.921875 
L 4.890625 -9.1875 
Q 8.203125 -11.328125 11.90625 -12.34375 
Q 15.625 -13.375 19.828125 -13.375 
Q 28.375 -13.375 33.859375 -8.703125 
Q 39.359375 -4.046875 41.109375 4.6875 
L 41.890625 8.796875 
Q 38.140625 4.5 33.15625 2.25 
Q 28.171875 0 22.40625 0 
Q 14.109375 0 9.34375 5.484375 
Q 4.59375 10.984375 4.59375 20.609375 
Q 4.59375 28.171875 7.46875 35.421875 
Q 10.359375 42.671875 15.578125 48.296875 
Q 19.046875 52 23.65625 54 
Q 28.265625 56 33.296875 56 
Q 38.8125 56 42.90625 53.4375 
Q 47.015625 50.875 49.03125 46.1875 
L 50.59375 54.6875 
z
M 46.09375 34.625 
Q 46.09375 41.265625 42.96875 44.875 
Q 39.84375 48.484375 34.078125 48.484375 
Q 30.515625 48.484375 27.296875 47.0625 
Q 24.078125 45.65625 21.78125 43.109375 
Q 18.0625 38.921875 15.984375 33.234375 
Q 13.921875 27.546875 13.921875 21.484375 
Q 13.921875 14.75 17.0625 11.125 
Q 20.21875 7.515625 26.125 7.515625 
Q 34.671875 7.515625 40.375 15.25 
Q 46.09375 23 46.09375 34.625 
z
" id="DejaVuSans-Oblique-103"/>
       <path d="M 49.609375 33.6875 
Q 49.609375 40.875 46.484375 44.671875 
Q 43.359375 48.484375 37.5 48.484375 
Q 33.5 48.484375 29.859375 46.4375 
Q 26.21875 44.390625 23.390625 40.484375 
Q 20.609375 36.625 18.9375 31.15625 
Q 17.28125 25.6875 17.28125 20.3125 
Q 17.28125 13.484375 20.40625 9.796875 
Q 23.53125 6.109375 29.296875 6.109375 
Q 33.546875 6.109375 37.1875 8.109375 
Q 40.828125 10.109375 43.40625 13.921875 
Q 46.1875 17.921875 47.890625 23.34375 
Q 49.609375 28.765625 49.609375 33.6875 
z
M 21.78125 46.390625 
Q 25.390625 51.125 30.296875 53.5625 
Q 35.203125 56 41.21875 56 
Q 49.609375 56 54.25 50.5 
Q 58.890625 45.015625 58.890625 35.109375 
Q 58.890625 27 56 19.65625 
Q 53.125 12.3125 47.703125 6.5 
Q 44.09375 2.640625 39.546875 0.609375 
Q 35.015625 -1.421875 29.984375 -1.421875 
Q 24.171875 -1.421875 20.21875 1 
Q 16.265625 3.421875 14.3125 8.203125 
L 8.6875 -20.796875 
L -0.296875 -20.796875 
L 14.40625 54.6875 
L 23.390625 54.6875 
z
" id="DejaVuSans-Oblique-112"/>
       <path d="M 44.578125 46.390625 
Q 43.21875 47.125 41.453125 47.515625 
Q 39.703125 47.90625 37.703125 47.90625 
Q 30.515625 47.90625 25.140625 42.453125 
Q 19.78125 37.015625 18.015625 27.875 
L 12.5 0 
L 3.515625 0 
L 14.203125 54.6875 
L 23.1875 54.6875 
L 21.484375 46.1875 
Q 25.046875 50.921875 30 53.453125 
Q 34.96875 56 40.578125 56 
Q 42.046875 56 43.453125 55.828125 
Q 44.875 55.671875 46.296875 55.28125 
z
" id="DejaVuSans-Oblique-114"/>
       <path d="M 42.28125 54.6875 
L 40.921875 47.703125 
L 23 47.703125 
L 17.1875 18.015625 
Q 16.890625 16.359375 16.75 15.234375 
Q 16.609375 14.109375 16.609375 13.484375 
Q 16.609375 10.359375 18.484375 8.9375 
Q 20.359375 7.515625 24.515625 7.515625 
L 33.59375 7.515625 
L 32.078125 0 
L 23.484375 0 
Q 15.484375 0 11.546875 3.125 
Q 7.625 6.25 7.625 12.59375 
Q 7.625 13.71875 7.765625 15.0625 
Q 7.90625 16.40625 8.203125 18.015625 
L 14.015625 47.703125 
L 6.390625 47.703125 
L 7.8125 54.6875 
L 15.28125 54.6875 
L 18.3125 70.21875 
L 27.296875 70.21875 
L 24.3125 54.6875 
z
" id="DejaVuSans-Oblique-116"/>
       <path d="M 48.09375 32.234375 
Q 48.25 33.015625 48.3125 33.84375 
Q 48.390625 34.671875 48.390625 35.5 
Q 48.390625 41.453125 44.890625 44.921875 
Q 41.40625 48.390625 35.40625 48.390625 
Q 28.71875 48.390625 23.578125 44.15625 
Q 18.453125 39.9375 15.828125 32.171875 
z
M 55.90625 25.203125 
L 14.109375 25.203125 
Q 13.8125 23.34375 13.71875 22.265625 
Q 13.625 21.1875 13.625 20.40625 
Q 13.625 13.625 17.796875 9.90625 
Q 21.96875 6.203125 29.59375 6.203125 
Q 35.453125 6.203125 40.671875 7.515625 
Q 45.90625 8.84375 50.390625 11.375 
L 48.6875 2.484375 
Q 43.84375 0.53125 38.6875 -0.4375 
Q 33.546875 -1.421875 28.21875 -1.421875 
Q 16.84375 -1.421875 10.71875 4.015625 
Q 4.59375 9.46875 4.59375 19.484375 
Q 4.59375 28.03125 7.640625 35.375 
Q 10.6875 42.71875 16.609375 48.484375 
Q 20.40625 52.09375 25.65625 54.046875 
Q 30.90625 56 36.8125 56 
Q 46.09375 56 51.578125 50.4375 
Q 57.078125 44.875 57.078125 35.5 
Q 57.078125 33.25 56.78125 30.6875 
Q 56.5 28.125 55.90625 25.203125 
z
" id="DejaVuSans-Oblique-101"/>
       <path d="M 18.3125 75.984375 
L 27.296875 75.984375 
L 25.09375 64.59375 
L 16.109375 64.59375 
z
M 14.203125 54.6875 
L 23.1875 54.6875 
L 12.5 0 
L 3.515625 0 
z
" id="DejaVuSans-Oblique-105"/>
       <path d="M 55.71875 33.015625 
L 49.3125 0 
L 40.28125 0 
L 46.6875 32.671875 
Q 47.125 34.96875 47.359375 36.71875 
Q 47.609375 38.484375 47.609375 39.5 
Q 47.609375 43.609375 45.015625 45.890625 
Q 42.4375 48.1875 37.796875 48.1875 
Q 30.5625 48.1875 25.34375 43.375 
Q 20.125 38.578125 18.5 30.328125 
L 12.5 0 
L 3.515625 0 
L 14.109375 54.6875 
L 23.09375 54.6875 
L 21.296875 46.09375 
Q 25.046875 50.828125 30.3125 53.40625 
Q 35.59375 56 41.40625 56 
Q 48.640625 56 52.609375 52.09375 
Q 56.59375 48.1875 56.59375 41.109375 
Q 56.59375 39.359375 56.375 37.359375 
Q 56.15625 35.359375 55.71875 33.015625 
z
" id="DejaVuSans-Oblique-110"/>
       <path d="M 10.6875 40.921875 
L 21 40.921875 
L 21 28.515625 
L 10.6875 28.515625 
z
" id="DejaVuSans-8901"/>
       <path d="M 55.71875 33.015625 
L 49.3125 0 
L 40.28125 0 
L 46.6875 32.671875 
Q 47.125 34.96875 47.359375 36.71875 
Q 47.609375 38.484375 47.609375 39.5 
Q 47.609375 43.609375 45.015625 45.890625 
Q 42.4375 48.1875 37.796875 48.1875 
Q 30.5625 48.1875 25.265625 43.296875 
Q 19.96875 38.421875 18.40625 30.328125 
L 12.5 0 
L 3.515625 0 
L 18.3125 75.984375 
L 27.296875 75.984375 
L 21.484375 46.09375 
Q 24.90625 50.6875 30.21875 53.34375 
Q 35.546875 56 41.40625 56 
Q 48.640625 56 52.609375 52.09375 
Q 56.59375 48.1875 56.59375 41.109375 
Q 56.59375 39.359375 56.375 37.359375 
Q 56.15625 35.359375 55.71875 33.015625 
z
" id="DejaVuSans-Oblique-104"/>
       <path d="M 11.40625 153 
L 11.40625 156.59375 
Q 28.203125 140.796875 38 117.296875 
Q 47.796875 93.796875 47.796875 64.296875 
Q 47.796875 34.90625 37.75 10.046875 
Q 27.703125 -14.796875 11.40625 -27.90625 
L 11.40625 -24.59375 
Q 22.796875 -12.90625 30.546875 9.890625 
Q 38.296875 32.703125 38.296875 64.296875 
Q 38.296875 119.90625 11.40625 153 
z
" id="STIXSizeTwoSym-Regular-41"/>
      </defs>
      <use transform="translate(0 0.01875)" xlink:href="#DejaVuSans-71"/>
      <use transform="translate(77.490234 0.01875)" xlink:href="#DejaVuSans-108"/>
      <use transform="translate(105.273438 0.01875)" xlink:href="#DejaVuSans-117"/>
      <use transform="translate(168.652344 0.01875)" xlink:href="#DejaVuSans-99"/>
      <use transform="translate(223.632812 0.01875)" xlink:href="#DejaVuSans-111"/>
      <use transform="translate(284.814453 0.01875)" xlink:href="#DejaVuSans-115"/>
      <use transform="translate(336.914062 0.01875)" xlink:href="#DejaVuSans-101"/>
      <use transform="translate(398.4375 0.01875)" xlink:href="#DejaVuSans-32"/>
      <use transform="translate(430.224609 0.01875)" xlink:href="#DejaVuSans-85"/>
      <use transform="translate(503.417969 0.01875)" xlink:href="#DejaVuSans-112"/>
      <use transform="translate(566.894531 0.01875)" xlink:href="#DejaVuSans-116"/>
      <use transform="translate(606.103516 0.01875)" xlink:href="#DejaVuSans-97"/>
      <use transform="translate(667.382812 0.01875)" xlink:href="#DejaVuSans-107"/>
      <use transform="translate(725.292969 0.01875)" xlink:href="#DejaVuSans-101"/>
      <use transform="translate(786.816406 0.01875)" xlink:href="#DejaVuSans-32"/>
      <use transform="translate(818.603516 0.01875)" xlink:href="#DejaVuSans-82"/>
      <use transform="translate(888.085938 0.01875)" xlink:href="#DejaVuSans-97"/>
      <use transform="translate(949.365234 0.01875)" xlink:href="#DejaVuSans-116"/>
      <use transform="translate(988.574219 0.01875)" xlink:href="#DejaVuSans-101"/>
      <use transform="translate(1050.097656 -38.063906)scale(0.868825)" xlink:href="#STIXSizeTwoSym-Regular-40"/>
      <use transform="translate(1176.267014 44.810938)scale(0.7)" xlink:href="#DejaVuSans-Oblique-109"/>
      <use transform="translate(1244.45549 44.810938)scale(0.7)" xlink:href="#DejaVuSans-Oblique-109"/>
      <use transform="translate(1312.643967 44.810938)scale(0.7)" xlink:href="#DejaVuSans-Oblique-111"/>
      <use transform="translate(1355.471115 44.810938)scale(0.7)" xlink:href="#DejaVuSans-Oblique-108"/>
      <use transform="translate(1101.267014 -40.623437)scale(0.7)" xlink:href="#DejaVuSans-Oblique-103"/>
      <use transform="translate(1145.700607 -52.107812)scale(0.49)" xlink:href="#DejaVuSans-Oblique-112"/>
      <use transform="translate(1176.804123 -52.107812)scale(0.49)" xlink:href="#DejaVuSans-Oblique-114"/>
      <use transform="translate(1196.949631 -52.107812)scale(0.49)" xlink:href="#DejaVuSans-Oblique-111"/>
      <use transform="translate(1226.928635 -52.107812)scale(0.49)" xlink:href="#DejaVuSans-Oblique-116"/>
      <use transform="translate(1246.141037 -52.107812)scale(0.49)" xlink:href="#DejaVuSans-Oblique-101"/>
      <use transform="translate(1276.287521 -52.107812)scale(0.49)" xlink:href="#DejaVuSans-Oblique-105"/>
      <use transform="translate(1289.901291 -52.107812)scale(0.49)" xlink:href="#DejaVuSans-Oblique-110"/>
      <use transform="translate(1336.508713 -40.623437)scale(0.7)" xlink:href="#DejaVuSans-8901"/>
      <use transform="translate(1372.397385 -40.623437)scale(0.7)" xlink:href="#DejaVuSans-Oblique-104"/>
      <use transform="translate(1416.762619 -40.623437)scale(0.7)" xlink:href="#DejaVuSans-Oblique-114"/>
      <use transform="translate(1463.210905 -38.063906)scale(0.868825)" xlink:href="#STIXSizeTwoSym-Regular-41"/>
      <path d="M 1101.267014 18.815625 
L 1101.267014 25.065625 
L 1450.710905 25.065625 
L 1450.710905 18.815625 
L 1101.267014 18.815625 
z
"/>
     </g>
    </g>
   </g>
   <g id="matplotlib.axis_2">
    <g id="ytick_1">
     <g id="line2d_6">
      <defs>
       <path d="M 0 0 
L -9 0 
" id="mf588d50f82" style="stroke:#000000;stroke-width:1.875;"/>
      </defs>
      <g>
       <use style="stroke:#000000;stroke-width:1.875;" x="102.1075" xlink:href="#mf588d50f82" y="459.440114"/>
      </g>
     </g>
     <g id="text_7">
      <!-- 0 -->
      <g transform="translate(76.8825 467.038551)scale(0.2 -0.2)">
       <use xlink:href="#DejaVuSans-48"/>
      </g>
     </g>
    </g>
    <g id="ytick_2">
     <g id="line2d_7">
      <g>
       <use style="stroke:#000000;stroke-width:1.875;" x="102.1075" xlink:href="#mf588d50f82" y="399.19591"/>
      </g>
     </g>
     <g id="text_8">
      <!-- 10 -->
      <g transform="translate(64.1575 406.794348)scale(0.2 -0.2)">
       <use xlink:href="#DejaVuSans-49"/>
       <use x="63.623047" xlink:href="#DejaVuSans-48"/>
      </g>
     </g>
    </g>
    <g id="ytick_3">
     <g id="line2d_8">
      <g>
       <use style="stroke:#000000;stroke-width:1.875;" x="102.1075" xlink:href="#mf588d50f82" y="338.951707"/>
      </g>
     </g>
     <g id="text_9">
      <!-- 20 -->
      <g transform="translate(64.1575 346.550144)scale(0.2 -0.2)">
       <use xlink:href="#DejaVuSans-50"/>
       <use x="63.623047" xlink:href="#DejaVuSans-48"/>
      </g>
     </g>
    </g>
    <g id="ytick_4">
     <g id="line2d_9">
      <g>
       <use style="stroke:#000000;stroke-width:1.875;" x="102.1075" xlink:href="#mf588d50f82" y="278.707504"/>
      </g>
     </g>
     <g id="text_10">
      <!-- 30 -->
      <g transform="translate(64.1575 286.305941)scale(0.2 -0.2)">
       <use xlink:href="#DejaVuSans-51"/>
       <use x="63.623047" xlink:href="#DejaVuSans-48"/>
      </g>
     </g>
    </g>
    <g id="ytick_5">
     <g id="line2d_10">
      <g>
       <use style="stroke:#000000;stroke-width:1.875;" x="102.1075" xlink:href="#mf588d50f82" y="218.4633"/>
      </g>
     </g>
     <g id="text_11">
      <!-- 40 -->
      <g transform="translate(64.1575 226.061738)scale(0.2 -0.2)">
       <use xlink:href="#DejaVuSans-52"/>
       <use x="63.623047" xlink:href="#DejaVuSans-48"/>
      </g>
     </g>
    </g>
    <g id="ytick_6">
     <g id="line2d_11">
      <g>
       <use style="stroke:#000000;stroke-width:1.875;" x="102.1075" xlink:href="#mf588d50f82" y="158.219097"/>
      </g>
     </g>
     <g id="text_12">
      <!-- 50 -->
      <g transform="translate(64.1575 165.817534)scale(0.2 -0.2)">
       <defs>
        <path d="M 10.796875 72.90625 
L 49.515625 72.90625 
L 49.515625 64.59375 
L 19.828125 64.59375 
L 19.828125 46.734375 
Q 21.96875 47.46875 24.109375 47.828125 
Q 26.265625 48.1875 28.421875 48.1875 
Q 40.625 48.1875 47.75 41.5 
Q 54.890625 34.8125 54.890625 23.390625 
Q 54.890625 11.625 47.5625 5.09375 
Q 40.234375 -1.421875 26.90625 -1.421875 
Q 22.3125 -1.421875 17.546875 -0.640625 
Q 12.796875 0.140625 7.71875 1.703125 
L 7.71875 11.625 
Q 12.109375 9.234375 16.796875 8.0625 
Q 21.484375 6.890625 26.703125 6.890625 
Q 35.15625 6.890625 40.078125 11.328125 
Q 45.015625 15.765625 45.015625 23.390625 
Q 45.015625 31 40.078125 35.4375 
Q 35.15625 39.890625 26.703125 39.890625 
Q 22.75 39.890625 18.8125 39.015625 
Q 14.890625 38.140625 10.796875 36.28125 
z
" id="DejaVuSans-53"/>
       </defs>
       <use xlink:href="#DejaVuSans-53"/>
       <use x="63.623047" xlink:href="#DejaVuSans-48"/>
      </g>
     </g>
    </g>
    <g id="ytick_7">
     <g id="line2d_12">
      <g>
       <use style="stroke:#000000;stroke-width:1.875;" x="102.1075" xlink:href="#mf588d50f82" y="97.974894"/>
      </g>
     </g>
     <g id="text_13">
      <!-- 60 -->
      <g transform="translate(64.1575 105.573331)scale(0.2 -0.2)">
       <defs>
        <path d="M 33.015625 40.375 
Q 26.375 40.375 22.484375 35.828125 
Q 18.609375 31.296875 18.609375 23.390625 
Q 18.609375 15.53125 22.484375 10.953125 
Q 26.375 6.390625 33.015625 6.390625 
Q 39.65625 6.390625 43.53125 10.953125 
Q 47.40625 15.53125 47.40625 23.390625 
Q 47.40625 31.296875 43.53125 35.828125 
Q 39.65625 40.375 33.015625 40.375 
z
M 52.59375 71.296875 
L 52.59375 62.3125 
Q 48.875 64.0625 45.09375 64.984375 
Q 41.3125 65.921875 37.59375 65.921875 
Q 27.828125 65.921875 22.671875 59.328125 
Q 17.53125 52.734375 16.796875 39.40625 
Q 19.671875 43.65625 24.015625 45.921875 
Q 28.375 48.1875 33.59375 48.1875 
Q 44.578125 48.1875 50.953125 41.515625 
Q 57.328125 34.859375 57.328125 23.390625 
Q 57.328125 12.15625 50.6875 5.359375 
Q 44.046875 -1.421875 33.015625 -1.421875 
Q 20.359375 -1.421875 13.671875 8.265625 
Q 6.984375 17.96875 6.984375 36.375 
Q 6.984375 53.65625 15.1875 63.9375 
Q 23.390625 74.21875 37.203125 74.21875 
Q 40.921875 74.21875 44.703125 73.484375 
Q 48.484375 72.75 52.59375 71.296875 
z
" id="DejaVuSans-54"/>
       </defs>
       <use xlink:href="#DejaVuSans-54"/>
       <use x="63.623047" xlink:href="#DejaVuSans-48"/>
      </g>
     </g>
    </g>
    <g id="ytick_8">
     <g id="line2d_13">
      <g>
       <use style="stroke:#000000;stroke-width:1.875;" x="102.1075" xlink:href="#mf588d50f82" y="37.73069"/>
      </g>
     </g>
     <g id="text_14">
      <!-- 70 -->
      <g transform="translate(64.1575 45.329128)scale(0.2 -0.2)">
       <defs>
        <path d="M 8.203125 72.90625 
L 55.078125 72.90625 
L 55.078125 68.703125 
L 28.609375 0 
L 18.3125 0 
L 43.21875 64.59375 
L 8.203125 64.59375 
z
" id="DejaVuSans-55"/>
       </defs>
       <use xlink:href="#DejaVuSans-55"/>
       <use x="63.623047" xlink:href="#DejaVuSans-48"/>
      </g>
     </g>
    </g>
    <g id="text_15">
     <!-- Ethanol Production Rate$ \left(\frac{mmol}{g_{protein} \cdot hr^{}}\right)$ -->
     <g transform="translate(45.6675 442.77125)rotate(-90)scale(0.23 -0.23)">
      <defs>
       <path d="M 9.8125 72.90625 
L 55.90625 72.90625 
L 55.90625 64.59375 
L 19.671875 64.59375 
L 19.671875 43.015625 
L 54.390625 43.015625 
L 54.390625 34.71875 
L 19.671875 34.71875 
L 19.671875 8.296875 
L 56.78125 8.296875 
L 56.78125 0 
L 9.8125 0 
z
" id="DejaVuSans-69"/>
       <path d="M 54.890625 33.015625 
L 54.890625 0 
L 45.90625 0 
L 45.90625 32.71875 
Q 45.90625 40.484375 42.875 44.328125 
Q 39.84375 48.1875 33.796875 48.1875 
Q 26.515625 48.1875 22.3125 43.546875 
Q 18.109375 38.921875 18.109375 30.90625 
L 18.109375 0 
L 9.078125 0 
L 9.078125 75.984375 
L 18.109375 75.984375 
L 18.109375 46.1875 
Q 21.34375 51.125 25.703125 53.5625 
Q 30.078125 56 35.796875 56 
Q 45.21875 56 50.046875 50.171875 
Q 54.890625 44.34375 54.890625 33.015625 
z
" id="DejaVuSans-104"/>
       <path d="M 54.890625 33.015625 
L 54.890625 0 
L 45.90625 0 
L 45.90625 32.71875 
Q 45.90625 40.484375 42.875 44.328125 
Q 39.84375 48.1875 33.796875 48.1875 
Q 26.515625 48.1875 22.3125 43.546875 
Q 18.109375 38.921875 18.109375 30.90625 
L 18.109375 0 
L 9.078125 0 
L 9.078125 54.6875 
L 18.109375 54.6875 
L 18.109375 46.1875 
Q 21.34375 51.125 25.703125 53.5625 
Q 30.078125 56 35.796875 56 
Q 45.21875 56 50.046875 50.171875 
Q 54.890625 44.34375 54.890625 33.015625 
z
" id="DejaVuSans-110"/>
       <path d="M 19.671875 64.796875 
L 19.671875 37.40625 
L 32.078125 37.40625 
Q 38.96875 37.40625 42.71875 40.96875 
Q 46.484375 44.53125 46.484375 51.125 
Q 46.484375 57.671875 42.71875 61.234375 
Q 38.96875 64.796875 32.078125 64.796875 
z
M 9.8125 72.90625 
L 32.078125 72.90625 
Q 44.34375 72.90625 50.609375 67.359375 
Q 56.890625 61.8125 56.890625 51.125 
Q 56.890625 40.328125 50.609375 34.8125 
Q 44.34375 29.296875 32.078125 29.296875 
L 19.671875 29.296875 
L 19.671875 0 
L 9.8125 0 
z
" id="DejaVuSans-80"/>
       <path d="M 41.109375 46.296875 
Q 39.59375 47.171875 37.8125 47.578125 
Q 36.03125 48 33.890625 48 
Q 26.265625 48 22.1875 43.046875 
Q 18.109375 38.09375 18.109375 28.8125 
L 18.109375 0 
L 9.078125 0 
L 9.078125 54.6875 
L 18.109375 54.6875 
L 18.109375 46.1875 
Q 20.953125 51.171875 25.484375 53.578125 
Q 30.03125 56 36.53125 56 
Q 37.453125 56 38.578125 55.875 
Q 39.703125 55.765625 41.0625 55.515625 
z
" id="DejaVuSans-114"/>
       <path d="M 45.40625 46.390625 
L 45.40625 75.984375 
L 54.390625 75.984375 
L 54.390625 0 
L 45.40625 0 
L 45.40625 8.203125 
Q 42.578125 3.328125 38.25 0.953125 
Q 33.9375 -1.421875 27.875 -1.421875 
Q 17.96875 -1.421875 11.734375 6.484375 
Q 5.515625 14.40625 5.515625 27.296875 
Q 5.515625 40.1875 11.734375 48.09375 
Q 17.96875 56 27.875 56 
Q 33.9375 56 38.25 53.625 
Q 42.578125 51.265625 45.40625 46.390625 
z
M 14.796875 27.296875 
Q 14.796875 17.390625 18.875 11.75 
Q 22.953125 6.109375 30.078125 6.109375 
Q 37.203125 6.109375 41.296875 11.75 
Q 45.40625 17.390625 45.40625 27.296875 
Q 45.40625 37.203125 41.296875 42.84375 
Q 37.203125 48.484375 30.078125 48.484375 
Q 22.953125 48.484375 18.875 42.84375 
Q 14.796875 37.203125 14.796875 27.296875 
z
" id="DejaVuSans-100"/>
       <path d="M 9.421875 54.6875 
L 18.40625 54.6875 
L 18.40625 0 
L 9.421875 0 
z
M 9.421875 75.984375 
L 18.40625 75.984375 
L 18.40625 64.59375 
L 9.421875 64.59375 
z
" id="DejaVuSans-105"/>
      </defs>
      <use transform="translate(0 0.01875)" xlink:href="#DejaVuSans-69"/>
      <use transform="translate(63.183594 0.01875)" xlink:href="#DejaVuSans-116"/>
      <use transform="translate(102.392578 0.01875)" xlink:href="#DejaVuSans-104"/>
      <use transform="translate(165.771484 0.01875)" xlink:href="#DejaVuSans-97"/>
      <use transform="translate(227.050781 0.01875)" xlink:href="#DejaVuSans-110"/>
      <use transform="translate(290.429688 0.01875)" xlink:href="#DejaVuSans-111"/>
      <use transform="translate(351.611328 0.01875)" xlink:href="#DejaVuSans-108"/>
      <use transform="translate(379.394531 0.01875)" xlink:href="#DejaVuSans-32"/>
      <use transform="translate(411.181641 0.01875)" xlink:href="#DejaVuSans-80"/>
      <use transform="translate(471.484375 0.01875)" xlink:href="#DejaVuSans-114"/>
      <use transform="translate(512.597656 0.01875)" xlink:href="#DejaVuSans-111"/>
      <use transform="translate(573.779297 0.01875)" xlink:href="#DejaVuSans-100"/>
      <use transform="translate(637.255859 0.01875)" xlink:href="#DejaVuSans-117"/>
      <use transform="translate(700.634766 0.01875)" xlink:href="#DejaVuSans-99"/>
      <use transform="translate(755.615234 0.01875)" xlink:href="#DejaVuSans-116"/>
      <use transform="translate(794.824219 0.01875)" xlink:href="#DejaVuSans-105"/>
      <use transform="translate(822.607422 0.01875)" xlink:href="#DejaVuSans-111"/>
      <use transform="translate(883.789062 0.01875)" xlink:href="#DejaVuSans-110"/>
      <use transform="translate(947.167969 0.01875)" xlink:href="#DejaVuSans-32"/>
      <use transform="translate(978.955078 0.01875)" xlink:href="#DejaVuSans-82"/>
      <use transform="translate(1048.4375 0.01875)" xlink:href="#DejaVuSans-97"/>
      <use transform="translate(1109.716797 0.01875)" xlink:href="#DejaVuSans-116"/>
      <use transform="translate(1148.925781 0.01875)" xlink:href="#DejaVuSans-101"/>
      <use transform="translate(1210.449219 -38.063906)scale(0.868825)" xlink:href="#STIXSizeTwoSym-Regular-40"/>
      <use transform="translate(1336.618576 44.810938)scale(0.7)" xlink:href="#DejaVuSans-Oblique-109"/>
      <use transform="translate(1404.807053 44.810938)scale(0.7)" xlink:href="#DejaVuSans-Oblique-109"/>
      <use transform="translate(1472.995529 44.810938)scale(0.7)" xlink:href="#DejaVuSans-Oblique-111"/>
      <use transform="translate(1515.822678 44.810938)scale(0.7)" xlink:href="#DejaVuSans-Oblique-108"/>
      <use transform="translate(1261.618576 -40.623437)scale(0.7)" xlink:href="#DejaVuSans-Oblique-103"/>
      <use transform="translate(1306.05217 -52.107812)scale(0.49)" xlink:href="#DejaVuSans-Oblique-112"/>
      <use transform="translate(1337.155685 -52.107812)scale(0.49)" xlink:href="#DejaVuSans-Oblique-114"/>
      <use transform="translate(1357.301193 -52.107812)scale(0.49)" xlink:href="#DejaVuSans-Oblique-111"/>
      <use transform="translate(1387.280197 -52.107812)scale(0.49)" xlink:href="#DejaVuSans-Oblique-116"/>
      <use transform="translate(1406.492599 -52.107812)scale(0.49)" xlink:href="#DejaVuSans-Oblique-101"/>
      <use transform="translate(1436.639084 -52.107812)scale(0.49)" xlink:href="#DejaVuSans-Oblique-105"/>
      <use transform="translate(1450.252853 -52.107812)scale(0.49)" xlink:href="#DejaVuSans-Oblique-110"/>
      <use transform="translate(1496.860275 -40.623437)scale(0.7)" xlink:href="#DejaVuSans-8901"/>
      <use transform="translate(1532.748947 -40.623437)scale(0.7)" xlink:href="#DejaVuSans-Oblique-104"/>
      <use transform="translate(1577.114182 -40.623437)scale(0.7)" xlink:href="#DejaVuSans-Oblique-114"/>
      <use transform="translate(1623.562468 -38.063906)scale(0.868825)" xlink:href="#STIXSizeTwoSym-Regular-41"/>
      <path d="M 1261.618576 18.815625 
L 1261.618576 25.065625 
L 1611.062468 25.065625 
L 1611.062468 18.815625 
L 1261.618576 18.815625 
z
"/>
     </g>
    </g>
   </g>
   <g id="patch_4">
    <path d="M 102.1075 480.3925 
L 102.1075 19.44 
" style="fill:none;stroke:#000000;stroke-linecap:square;stroke-linejoin:miter;stroke-width:1.875;"/>
   </g>
   <g id="patch_5">
    <path d="M 554.438571 480.3925 
L 554.438571 19.44 
" style="fill:none;stroke:#000000;stroke-linecap:square;stroke-linejoin:miter;stroke-width:1.875;"/>
   </g>
   <g id="patch_6">
    <path d="M 102.1075 480.3925 
L 554.438571 480.3925 
" style="fill:none;stroke:#000000;stroke-linecap:square;stroke-linejoin:miter;stroke-width:1.875;"/>
   </g>
   <g id="patch_7">
    <path d="M 102.1075 19.44 
L 554.438571 19.44 
" style="fill:none;stroke:#000000;stroke-linecap:square;stroke-linejoin:miter;stroke-width:1.875;"/>
   </g>
   <g id="PathCollection_8">
    <path clip-path="url(#pcaadcb9c3c)" d="M 116.140859 466.511181 
C 118.016128 466.511181 119.814844 465.766129 121.140859 464.440114 
C 122.466875 463.114098 123.211927 461.315383 123.211927 459.440114 
C 123.211927 457.564845 122.466875 455.766129 121.140859 454.440114 
C 119.814844 453.114098 118.016128 452.369046 116.140859 452.369046 
C 114.26559 452.369046 112.466875 453.114098 111.140859 454.440114 
C 109.814844 455.766129 109.069792 457.564845 109.069792 459.440114 
C 109.069792 461.315383 109.814844 463.114098 111.140859 464.440114 
C 112.466875 465.766129 114.26559 466.511181 116.140859 466.511181 
z
" style="fill:#dc143c;fill-opacity:0.9;"/>
    <path clip-path="url(#pcaadcb9c3c)" d="M 118.180592 466.511181 
C 120.055861 466.511181 121.854576 465.766129 123.180592 464.440114 
C 124.506607 463.114098 125.25166 461.315383 125.25166 459.440114 
C 125.25166 457.564845 124.506607 455.766129 123.180592 454.440114 
C 121.854576 453.114098 120.055861 452.369046 118.180592 452.369046 
C 116.305323 452.369046 114.506607 453.114098 113.180592 454.440114 
C 111.854576 455.766129 111.109524 457.564845 111.109524 459.440114 
C 111.109524 461.315383 111.854576 463.114098 113.180592 464.440114 
C 114.506607 465.766129 116.305323 466.511181 118.180592 466.511181 
z
" style="fill:#dc143c;fill-opacity:0.9;"/>
    <path clip-path="url(#pcaadcb9c3c)" d="M 123.07595 466.511181 
C 124.951219 466.511181 126.749934 465.766129 128.07595 464.440114 
C 129.401965 463.114098 130.147018 461.315383 130.147018 459.440114 
C 130.147018 457.564845 129.401965 455.766129 128.07595 454.440114 
C 126.749934 453.114098 124.951219 452.369046 123.07595 452.369046 
C 121.200681 452.369046 119.401965 453.114098 118.07595 454.440114 
C 116.749934 455.766129 116.004882 457.564845 116.004882 459.440114 
C 116.004882 461.315383 116.749934 463.114098 118.07595 464.440114 
C 119.401965 465.766129 121.200681 466.511181 123.07595 466.511181 
z
" style="fill:#dc143c;fill-opacity:0.9;"/>
    <path clip-path="url(#pcaadcb9c3c)" d="M 128.787201 466.511181 
C 130.66247 466.511181 132.461185 465.766129 133.787201 464.440114 
C 135.113216 463.114098 135.858268 461.315383 135.858268 459.440114 
C 135.858268 457.564845 135.113216 455.766129 133.787201 454.440114 
C 132.461185 453.114098 130.66247 452.369046 128.787201 452.369046 
C 126.911932 452.369046 125.113216 453.114098 123.787201 454.440114 
C 122.461185 455.766129 121.716133 457.564845 121.716133 459.440114 
C 121.716133 461.315383 122.461185 463.114098 123.787201 464.440114 
C 125.113216 465.766129 126.911932 466.511181 128.787201 466.511181 
z
" style="fill:#dc143c;fill-opacity:0.9;"/>
    <path clip-path="url(#pcaadcb9c3c)" d="M 134.498452 466.511181 
C 136.373721 466.511181 138.172436 465.766129 139.498452 464.440114 
C 140.824467 463.114098 141.569519 461.315383 141.569519 459.440114 
C 141.569519 457.564845 140.824467 455.766129 139.498452 454.440114 
C 138.172436 453.114098 136.373721 452.369046 134.498452 452.369046 
C 132.623182 452.369046 130.824467 453.114098 129.498452 454.440114 
C 128.172436 455.766129 127.427384 457.564845 127.427384 459.440114 
C 127.427384 461.315383 128.172436 463.114098 129.498452 464.440114 
C 130.824467 465.766129 132.623182 466.511181 134.498452 466.511181 
z
" style="fill:#dc143c;fill-opacity:0.9;"/>
    <path clip-path="url(#pcaadcb9c3c)" d="M 141.433542 466.511181 
C 143.308811 466.511181 145.107526 465.766129 146.433542 464.440114 
C 147.759557 463.114098 148.50461 461.315383 148.50461 459.440114 
C 148.50461 457.564845 147.759557 455.766129 146.433542 454.440114 
C 145.107526 453.114098 143.308811 452.369046 141.433542 452.369046 
C 139.558273 452.369046 137.759557 453.114098 136.433542 454.440114 
C 135.107526 455.766129 134.362474 457.564845 134.362474 459.440114 
C 134.362474 461.315383 135.107526 463.114098 136.433542 464.440114 
C 137.759557 465.766129 139.558273 466.511181 141.433542 466.511181 
z
" style="fill:#dc143c;fill-opacity:0.9;"/>
    <path clip-path="url(#pcaadcb9c3c)" d="M 144.411551 465.005076 
C 146.28682 465.005076 148.085536 464.260024 149.411551 462.934009 
C 150.737567 461.607993 151.482619 459.809278 151.482619 457.934009 
C 151.482619 456.058739 150.737567 454.260024 149.411551 452.934009 
C 148.085536 451.607993 146.28682 450.862941 144.411551 450.862941 
C 142.536282 450.862941 140.737567 451.607993 139.411551 452.934009 
C 138.085536 454.260024 137.340484 456.058739 137.340484 457.934009 
C 137.340484 459.809278 138.085536 461.607993 139.411551 462.934009 
C 140.737567 464.260024 142.536282 465.005076 144.411551 465.005076 
z
" style="fill:#dc143c;fill-opacity:0.9;"/>
    <path clip-path="url(#pcaadcb9c3c)" d="M 165.910332 435.019893 
C 167.785601 435.019893 169.584316 434.274841 170.910332 432.948826 
C 172.236347 431.62281 172.981399 429.824095 172.981399 427.948826 
C 172.981399 426.073556 172.236347 424.274841 170.910332 422.948826 
C 169.584316 421.62281 167.785601 420.877758 165.910332 420.877758 
C 164.035062 420.877758 162.236347 421.62281 160.910332 422.948826 
C 159.584316 424.274841 158.839264 426.073556 158.839264 427.948826 
C 158.839264 429.824095 159.584316 431.62281 160.910332 432.948826 
C 162.236347 434.274841 164.035062 435.019893 165.910332 435.019893 
z
" style="fill:#dc143c;fill-opacity:0.9;"/>
    <path clip-path="url(#pcaadcb9c3c)" d="M 249.947309 336.43847 
C 251.822578 336.43847 253.621294 335.693417 254.947309 334.367402 
C 256.273325 333.041386 257.018377 331.242671 257.018377 329.367402 
C 257.018377 327.492133 256.273325 325.693417 254.947309 324.367402 
C 253.621294 323.041386 251.822578 322.296334 249.947309 322.296334 
C 248.07204 322.296334 246.273325 323.041386 244.947309 324.367402 
C 243.621294 325.693417 242.876241 327.492133 242.876241 329.367402 
C 242.876241 331.242671 243.621294 333.041386 244.947309 334.367402 
C 246.273325 335.693417 248.07204 336.43847 249.947309 336.43847 
z
" style="fill:#dc143c;fill-opacity:0.9;"/>
    <path clip-path="url(#pcaadcb9c3c)" d="M 298.084995 276.194266 
C 299.960264 276.194266 301.75898 275.449214 303.084995 274.123199 
C 304.411011 272.797183 305.156063 270.998468 305.156063 269.123199 
C 305.156063 267.247929 304.411011 265.449214 303.084995 264.123199 
C 301.75898 262.797183 299.960264 262.052131 298.084995 262.052131 
C 296.209726 262.052131 294.411011 262.797183 293.084995 264.123199 
C 291.75898 265.449214 291.013927 267.247929 291.013927 269.123199 
C 291.013927 270.998468 291.75898 272.797183 293.084995 274.123199 
C 294.411011 275.449214 296.209726 276.194266 298.084995 276.194266 
z
" style="fill:#dc143c;fill-opacity:0.9;"/>
    <path clip-path="url(#pcaadcb9c3c)" d="M 112.187017 466.511181 
L 115.722551 462.975648 
L 119.258084 466.511181 
L 122.793618 462.975648 
L 119.258084 459.440114 
L 122.793618 455.90458 
L 119.258084 452.369046 
L 115.722551 455.90458 
L 112.187017 452.369046 
L 108.651483 455.90458 
L 112.187017 459.440114 
L 108.651483 462.975648 
z
" style="fill:#dc143c;fill-opacity:0.9;"/>
    <path clip-path="url(#pcaadcb9c3c)" d="M 115.557127 466.511181 
L 119.092661 462.975648 
L 122.628195 466.511181 
L 126.163729 462.975648 
L 122.628195 459.440114 
L 126.163729 455.90458 
L 122.628195 452.369046 
L 119.092661 455.90458 
L 115.557127 452.369046 
L 112.021593 455.90458 
L 115.557127 459.440114 
L 112.021593 462.975648 
z
" style="fill:#dc143c;fill-opacity:0.9;"/>
    <path clip-path="url(#pcaadcb9c3c)" d="M 120.480512 466.511181 
L 124.016046 462.975648 
L 127.55158 466.511181 
L 131.087114 462.975648 
L 127.55158 459.440114 
L 131.087114 455.90458 
L 127.55158 452.369046 
L 124.016046 455.90458 
L 120.480512 452.369046 
L 116.944978 455.90458 
L 120.480512 459.440114 
L 116.944978 462.975648 
z
" style="fill:#dc143c;fill-opacity:0.9;"/>
    <path clip-path="url(#pcaadcb9c3c)" d="M 130.03205 466.511181 
L 133.567584 462.975648 
L 137.103118 466.511181 
L 140.638652 462.975648 
L 137.103118 459.440114 
L 140.638652 455.90458 
L 137.103118 452.369046 
L 133.567584 455.90458 
L 130.03205 452.369046 
L 126.496517 455.90458 
L 130.03205 459.440114 
L 126.496517 462.975648 
z
" style="fill:#dc143c;fill-opacity:0.9;"/>
    <path clip-path="url(#pcaadcb9c3c)" d="M 176.657523 422.156308 
L 180.193057 418.620775 
L 183.728591 422.156308 
L 187.264125 418.620775 
L 183.728591 415.085241 
L 187.264125 411.549707 
L 183.728591 408.014173 
L 180.193057 411.549707 
L 176.657523 408.014173 
L 173.121989 411.549707 
L 176.657523 415.085241 
L 173.121989 418.620775 
z
" style="fill:#dc143c;fill-opacity:0.9;"/>
    <path clip-path="url(#pcaadcb9c3c)" d="M 191.167307 406.148791 
L 194.702841 402.613257 
L 198.238375 406.148791 
L 201.773908 402.613257 
L 198.238375 399.077723 
L 201.773908 395.54219 
L 198.238375 392.006656 
L 194.702841 395.54219 
L 191.167307 392.006656 
L 187.631773 395.54219 
L 191.167307 399.077723 
L 187.631773 402.613257 
z
" style="fill:#dc143c;fill-opacity:0.9;"/>
    <path clip-path="url(#pcaadcb9c3c)" d="M 236.37777 347.232398 
L 239.913303 343.696864 
L 243.448837 347.232398 
L 246.984371 343.696864 
L 243.448837 340.16133 
L 246.984371 336.625796 
L 243.448837 333.090262 
L 239.913303 336.625796 
L 236.37777 333.090262 
L 232.842236 336.625796 
L 236.37777 340.16133 
L 232.842236 343.696864 
z
" style="fill:#dc143c;fill-opacity:0.9;"/>
    <path clip-path="url(#pcaadcb9c3c)" d="M 308.880819 262.400328 
L 312.416353 258.864794 
L 315.951887 262.400328 
L 319.487421 258.864794 
L 315.951887 255.32926 
L 319.487421 251.793726 
L 315.951887 248.258193 
L 312.416353 251.793726 
L 308.880819 248.258193 
L 305.345285 251.793726 
L 308.880819 255.32926 
L 305.345285 258.864794 
z
" style="fill:#dc143c;fill-opacity:0.9;"/>
    <path clip-path="url(#pcaadcb9c3c)" d="M 130.173319 454.440114 
L 130.173319 464.440114 
L 140.173319 464.440114 
L 140.173319 454.440114 
z
" style="fill:#dc143c;fill-opacity:0.9;"/>
    <path clip-path="url(#pcaadcb9c3c)" d="M 130.312088 454.440114 
L 130.312088 464.440114 
L 140.312088 464.440114 
L 140.312088 454.440114 
z
" style="fill:#dc143c;fill-opacity:0.9;"/>
    <path clip-path="url(#pcaadcb9c3c)" d="M 132.345213 454.440114 
L 132.345213 464.440114 
L 142.345213 464.440114 
L 142.345213 454.440114 
z
" style="fill:#dc143c;fill-opacity:0.9;"/>
    <path clip-path="url(#pcaadcb9c3c)" d="M 132.096075 454.440114 
L 132.096075 464.440114 
L 142.096075 464.440114 
L 142.096075 454.440114 
z
" style="fill:#dc143c;fill-opacity:0.9;"/>
    <path clip-path="url(#pcaadcb9c3c)" d="M 135.822569 454.440114 
L 135.822569 464.440114 
L 145.822569 464.440114 
L 145.822569 454.440114 
z
" style="fill:#dc143c;fill-opacity:0.9;"/>
    <path clip-path="url(#pcaadcb9c3c)" d="M 139.440707 454.440114 
L 139.440707 464.440114 
L 149.440707 464.440114 
L 149.440707 454.440114 
z
" style="fill:#dc143c;fill-opacity:0.9;"/>
    <path clip-path="url(#pcaadcb9c3c)" d="M 152.885326 438.476086 
L 152.885326 448.476086 
L 162.885326 448.476086 
L 162.885326 438.476086 
z
" style="fill:#dc143c;fill-opacity:0.9;"/>
    <path clip-path="url(#pcaadcb9c3c)" d="M 160.051481 428.342374 
L 160.051481 438.342374 
L 170.051481 438.342374 
L 170.051481 428.342374 
z
" style="fill:#dc143c;fill-opacity:0.9;"/>
    <path clip-path="url(#pcaadcb9c3c)" d="M 170.357946 412.985016 
L 170.357946 422.985016 
L 180.357946 422.985016 
L 180.357946 412.985016 
z
" style="fill:#dc143c;fill-opacity:0.9;"/>
    <path clip-path="url(#pcaadcb9c3c)" d="M 168.875655 415.051878 
L 168.875655 425.051878 
L 178.875655 425.051878 
L 178.875655 415.051878 
z
" style="fill:#dc143c;fill-opacity:0.9;"/>
    <path clip-path="url(#pcaadcb9c3c)" d="M 156.572234 435.070365 
L 156.572234 445.070365 
L 166.572234 445.070365 
L 166.572234 435.070365 
z
" style="fill:#dc143c;fill-opacity:0.9;"/>
    <path clip-path="url(#pcaadcb9c3c)" d="M 160.556131 429.207383 
L 160.556131 439.207383 
L 170.556131 439.207383 
L 170.556131 429.207383 
z
" style="fill:#dc143c;fill-opacity:0.9;"/>
    <path clip-path="url(#pcaadcb9c3c)" d="M 192.192191 386.778846 
L 192.192191 396.778846 
L 202.192191 396.778846 
L 202.192191 386.778846 
z
" style="fill:#dc143c;fill-opacity:0.9;"/>
    <path clip-path="url(#pcaadcb9c3c)" d="M 197.072622 380.439367 
L 197.072622 390.439367 
L 207.072622 390.439367 
L 207.072622 380.439367 
z
" style="fill:#dc143c;fill-opacity:0.9;"/>
    <path clip-path="url(#pcaadcb9c3c)" d="M 217.934759 355.505125 
L 217.934759 365.505125 
L 227.934759 365.505125 
L 227.934759 355.505125 
z
" style="fill:#dc143c;fill-opacity:0.9;"/>
    <path clip-path="url(#pcaadcb9c3c)" d="M 232.179355 336.865764 
L 232.179355 346.865764 
L 242.179355 346.865764 
L 242.179355 336.865764 
z
" style="fill:#dc143c;fill-opacity:0.9;"/>
    <path clip-path="url(#pcaadcb9c3c)" d="M 135.857821 466.511181 
L 140.571867 466.511181 
L 140.571867 461.797136 
L 145.285912 461.797136 
L 145.285912 457.083091 
L 140.571867 457.083091 
L 140.571867 452.369046 
L 135.857821 452.369046 
L 135.857821 457.083091 
L 131.143776 457.083091 
L 131.143776 461.797136 
L 135.857821 461.797136 
z
" style="fill:#dc143c;fill-opacity:0.9;"/>
    <path clip-path="url(#pcaadcb9c3c)" d="M 138.252467 466.511181 
L 142.966513 466.511181 
L 142.966513 461.797136 
L 147.680558 461.797136 
L 147.680558 457.083091 
L 142.966513 457.083091 
L 142.966513 452.369046 
L 138.252467 452.369046 
L 138.252467 457.083091 
L 133.538422 457.083091 
L 133.538422 461.797136 
L 138.252467 461.797136 
z
" style="fill:#dc143c;fill-opacity:0.9;"/>
    <path clip-path="url(#pcaadcb9c3c)" d="M 180.181208 418.973028 
L 184.895253 418.973028 
L 184.895253 414.258983 
L 189.609298 414.258983 
L 189.609298 409.544938 
L 184.895253 409.544938 
L 184.895253 404.830893 
L 180.181208 404.830893 
L 180.181208 409.544938 
L 175.467163 409.544938 
L 175.467163 414.258983 
L 180.181208 414.258983 
z
" style="fill:#dc143c;fill-opacity:0.9;"/>
    <path clip-path="url(#pcaadcb9c3c)" d="M 185.019453 417.603842 
L 189.733499 417.603842 
L 189.733499 412.889797 
L 194.447544 412.889797 
L 194.447544 408.175751 
L 189.733499 408.175751 
L 189.733499 403.461706 
L 185.019453 403.461706 
L 185.019453 408.175751 
L 180.305408 408.175751 
L 180.305408 412.889797 
L 185.019453 412.889797 
z
" style="fill:#dc143c;fill-opacity:0.9;"/>
    <path clip-path="url(#pcaadcb9c3c)" d="M 185.574261 416.56326 
L 190.288306 416.56326 
L 190.288306 411.849215 
L 195.002351 411.849215 
L 195.002351 407.13517 
L 190.288306 407.13517 
L 190.288306 402.421125 
L 185.574261 402.421125 
L 185.574261 407.13517 
L 180.860215 407.13517 
L 180.860215 411.849215 
L 185.574261 411.849215 
z
" style="fill:#dc143c;fill-opacity:0.9;"/>
    <path clip-path="url(#pcaadcb9c3c)" d="M 196.515386 401.639128 
L 201.229431 401.639128 
L 201.229431 396.925083 
L 205.943476 396.925083 
L 205.943476 392.211038 
L 201.229431 392.211038 
L 201.229431 387.496992 
L 196.515386 387.496992 
L 196.515386 392.211038 
L 191.80134 392.211038 
L 191.80134 396.925083 
L 196.515386 396.925083 
z
" style="fill:#dc143c;fill-opacity:0.9;"/>
    <path clip-path="url(#pcaadcb9c3c)" d="M 190.049434 400.25625 
L 194.763479 400.25625 
L 194.763479 395.542204 
L 199.477524 395.542204 
L 199.477524 390.828159 
L 194.763479 390.828159 
L 194.763479 386.114114 
L 190.049434 386.114114 
L 190.049434 390.828159 
L 185.335388 390.828159 
L 185.335388 395.542204 
L 190.049434 395.542204 
z
" style="fill:#dc143c;fill-opacity:0.9;"/>
    <path clip-path="url(#pcaadcb9c3c)" d="M 189.882176 399.735959 
L 194.596221 399.735959 
L 194.596221 395.021914 
L 199.310266 395.021914 
L 199.310266 390.307868 
L 194.596221 390.307868 
L 194.596221 385.593823 
L 189.882176 385.593823 
L 189.882176 390.307868 
L 185.16813 390.307868 
L 185.16813 395.021914 
L 189.882176 395.021914 
z
" style="fill:#dc143c;fill-opacity:0.9;"/>
    <path clip-path="url(#pcaadcb9c3c)" d="M 116.762492 452.369046 
L 109.691424 459.440114 
L 116.762492 466.511181 
L 123.83356 459.440114 
z
" style="fill:#dc143c;fill-opacity:0.9;"/>
    <path clip-path="url(#pcaadcb9c3c)" d="M 119.153387 452.369046 
L 112.082319 459.440114 
L 119.153387 466.511181 
L 126.224455 459.440114 
z
" style="fill:#dc143c;fill-opacity:0.9;"/>
    <path clip-path="url(#pcaadcb9c3c)" d="M 122.73973 452.369046 
L 115.668662 459.440114 
L 122.73973 466.511181 
L 129.810798 459.440114 
z
" style="fill:#dc143c;fill-opacity:0.9;"/>
    <path clip-path="url(#pcaadcb9c3c)" d="M 129.434237 452.369046 
L 122.363169 459.440114 
L 129.434237 466.511181 
L 136.505304 459.440114 
z
" style="fill:#dc143c;fill-opacity:0.9;"/>
    <path clip-path="url(#pcaadcb9c3c)" d="M 136.068971 452.168432 
L 128.997903 459.2395 
L 136.068971 466.310568 
L 143.140039 459.2395 
z
" style="fill:#dc143c;fill-opacity:0.9;"/>
    <path clip-path="url(#pcaadcb9c3c)" d="M 136.965557 452.369046 
L 129.894489 459.440114 
L 136.965557 466.511181 
L 144.036624 459.440114 
z
" style="fill:#dc143c;fill-opacity:0.9;"/>
    <path clip-path="url(#pcaadcb9c3c)" d="M 145.453234 452.369046 
L 138.382167 459.440114 
L 145.453234 466.511181 
L 152.524302 459.440114 
z
" style="fill:#dc143c;fill-opacity:0.9;"/>
    <path clip-path="url(#pcaadcb9c3c)" d="M 178.507361 422.878876 
L 171.436293 429.949944 
L 178.507361 437.021012 
L 185.578428 429.949944 
z
" style="fill:#dc143c;fill-opacity:0.9;"/>
    <path clip-path="url(#pcaadcb9c3c)" d="M 222.858466 373.126754 
L 215.787399 380.197822 
L 222.858466 387.268889 
L 229.929534 380.197822 
z
" style="fill:#dc143c;fill-opacity:0.9;"/>
    <path clip-path="url(#pcaadcb9c3c)" d="M 122.749593 452.369046 
L 120.249593 456.940114 
L 115.678525 459.440114 
L 120.249593 461.940114 
L 122.749593 466.511181 
L 125.249593 461.940114 
L 129.82066 459.440114 
L 125.249593 456.940114 
z
" style="fill:#dc143c;fill-opacity:0.9;"/>
    <path clip-path="url(#pcaadcb9c3c)" d="M 127.033031 452.369046 
L 124.533031 456.940114 
L 119.961963 459.440114 
L 124.533031 461.940114 
L 127.033031 466.511181 
L 129.533031 461.940114 
L 134.104099 459.440114 
L 129.533031 456.940114 
z
" style="fill:#dc143c;fill-opacity:0.9;"/>
    <path clip-path="url(#pcaadcb9c3c)" d="M 143.514069 452.369046 
L 141.014069 456.940114 
L 136.443001 459.440114 
L 141.014069 461.940114 
L 143.514069 466.511181 
L 146.014069 461.940114 
L 150.585137 459.440114 
L 146.014069 456.940114 
z
" style="fill:#dc143c;fill-opacity:0.9;"/>
    <path clip-path="url(#pcaadcb9c3c)" d="M 145.961748 452.369046 
L 143.461748 456.940114 
L 138.89068 459.440114 
L 143.461748 461.940114 
L 145.961748 466.511181 
L 148.461748 461.940114 
L 153.032816 459.440114 
L 148.461748 456.940114 
z
" style="fill:#dc143c;fill-opacity:0.9;"/>
    <path clip-path="url(#pcaadcb9c3c)" d="M 155.711669 452.369046 
L 153.211669 456.940114 
L 148.640601 459.440114 
L 153.211669 461.940114 
L 155.711669 466.511181 
L 158.211669 461.940114 
L 162.782737 459.440114 
L 158.211669 456.940114 
z
" style="fill:#dc143c;fill-opacity:0.9;"/>
    <path clip-path="url(#pcaadcb9c3c)" d="M 126.543495 452.369046 
L 124.043495 456.940114 
L 119.472427 459.440114 
L 124.043495 461.940114 
L 126.543495 466.511181 
L 129.043495 461.940114 
L 133.614563 459.440114 
L 129.043495 456.940114 
z
" style="fill:#dc143c;fill-opacity:0.9;"/>
    <path clip-path="url(#pcaadcb9c3c)" d="M 135.722291 452.369046 
L 133.222291 456.940114 
L 128.651223 459.440114 
L 133.222291 461.940114 
L 135.722291 466.511181 
L 138.222291 461.940114 
L 142.793359 459.440114 
L 138.222291 456.940114 
z
" style="fill:#dc143c;fill-opacity:0.9;"/>
    <path clip-path="url(#pcaadcb9c3c)" d="M 305.499137 282.966773 
L 302.999137 287.537841 
L 298.428069 290.037841 
L 302.999137 292.537841 
L 305.499137 297.108909 
L 307.999137 292.537841 
L 312.570205 290.037841 
L 307.999137 287.537841 
z
" style="fill:#dc143c;fill-opacity:0.9;"/>
    <path clip-path="url(#pcaadcb9c3c)" d="M 499.10051 63.041016 
L 496.60051 67.612083 
L 492.029442 70.112083 
L 496.60051 72.612083 
L 499.10051 77.183151 
L 501.60051 72.612083 
L 506.171578 70.112083 
L 501.60051 67.612083 
z
" style="fill:#dc143c;fill-opacity:0.9;"/>
    <path clip-path="url(#pcaadcb9c3c)" d="M 157.931697 416.705409 
L 155.431697 421.276477 
L 150.860629 423.776477 
L 155.431697 426.276477 
L 157.931697 430.847545 
L 160.431697 426.276477 
L 165.002765 423.776477 
L 160.431697 421.276477 
z
" style="fill:#dc143c;fill-opacity:0.9;"/>
    <path clip-path="url(#pcaadcb9c3c)" d="M 190.865269 384.013743 
L 188.365269 388.584811 
L 183.794202 391.084811 
L 188.365269 393.584811 
L 190.865269 398.155878 
L 193.365269 393.584811 
L 197.936337 391.084811 
L 193.365269 388.584811 
z
" style="fill:#dc143c;fill-opacity:0.9;"/>
    <path clip-path="url(#pcaadcb9c3c)" d="M 240.30401 336.462228 
L 237.80401 341.033295 
L 233.232942 343.533295 
L 237.80401 346.033295 
L 240.30401 350.604363 
L 242.80401 346.033295 
L 247.375078 343.533295 
L 242.80401 341.033295 
z
" style="fill:#dc143c;fill-opacity:0.9;"/>
    <path clip-path="url(#pcaadcb9c3c)" d="M 289.217246 285.938743 
L 286.717246 290.509811 
L 282.146178 293.009811 
L 286.717246 295.509811 
L 289.217246 300.080878 
L 291.717246 295.509811 
L 296.288314 293.009811 
L 291.717246 290.509811 
z
" style="fill:#dc143c;fill-opacity:0.9;"/>
    <path clip-path="url(#pcaadcb9c3c)" d="M 419.293434 146.256167 
L 416.793434 150.827235 
L 412.222366 153.327235 
L 416.793434 155.827235 
L 419.293434 160.398303 
L 421.793434 155.827235 
L 426.364502 153.327235 
L 421.793434 150.827235 
z
" style="fill:#dc143c;fill-opacity:0.9;"/>
    <path clip-path="url(#pcaadcb9c3c)" d="M 520.964255 39.265258 
L 518.464255 43.836326 
L 513.893187 46.336326 
L 518.464255 48.836326 
L 520.964255 53.407394 
L 523.464255 48.836326 
L 528.035323 46.336326 
L 523.464255 43.836326 
z
" style="fill:#dc143c;fill-opacity:0.9;"/>
    <path clip-path="url(#pcaadcb9c3c)" d="M 232.13279 369.153894 
L 229.63279 373.724962 
L 225.061722 376.224962 
L 229.63279 378.724962 
L 232.13279 383.29603 
L 234.63279 378.724962 
L 239.203857 376.224962 
L 234.63279 373.724962 
z
" style="fill:#dc143c;fill-opacity:0.9;"/>
    <path clip-path="url(#pcaadcb9c3c)" d="M 328.790695 259.191016 
L 326.290695 263.762083 
L 321.719627 266.262083 
L 326.290695 268.762083 
L 328.790695 273.333151 
L 331.290695 268.762083 
L 335.861763 266.262083 
L 331.290695 263.762083 
z
" style="fill:#dc143c;fill-opacity:0.9;"/>
    <path clip-path="url(#pcaadcb9c3c)" d="M 518.240665 33.321319 
L 515.740665 37.892386 
L 511.169598 40.392386 
L 515.740665 42.892386 
L 518.240665 47.463454 
L 520.740665 42.892386 
L 525.311733 40.392386 
L 520.740665 37.892386 
z
" style="fill:#dc143c;fill-opacity:0.9;"/>
    <path clip-path="url(#pcaadcb9c3c)" d="M 117.155751 452.369046 
L 110.084683 466.511181 
L 124.226818 466.511181 
z
" style="fill:#dc143c;fill-opacity:0.9;"/>
    <path clip-path="url(#pcaadcb9c3c)" d="M 125.712677 452.369046 
L 118.641609 466.511181 
L 132.783745 466.511181 
z
" style="fill:#dc143c;fill-opacity:0.9;"/>
    <path clip-path="url(#pcaadcb9c3c)" d="M 138.21574 439.772531 
L 131.144672 453.914666 
L 145.286807 453.914666 
z
" style="fill:#dc143c;fill-opacity:0.9;"/>
    <path clip-path="url(#pcaadcb9c3c)" d="M 163.404943 413.484151 
L 156.333875 427.626287 
L 170.476011 427.626287 
z
" style="fill:#dc143c;fill-opacity:0.9;"/>
    <path clip-path="url(#pcaadcb9c3c)" d="M 195.829724 378.432978 
L 188.758656 392.575114 
L 202.900792 392.575114 
z
" style="fill:#dc143c;fill-opacity:0.9;"/>
    <path clip-path="url(#pcaadcb9c3c)" d="M 223.767094 346.120178 
L 216.696026 360.262314 
L 230.838162 360.262314 
z
" style="fill:#dc143c;fill-opacity:0.9;"/>
    <path clip-path="url(#pcaadcb9c3c)" d="M 256.615742 309.425982 
L 249.544674 323.568117 
L 263.68681 323.568117 
z
" style="fill:#dc143c;fill-opacity:0.9;"/>
    <path clip-path="url(#pcaadcb9c3c)" d="M 270.050116 292.44807 
L 262.979048 306.590205 
L 277.121184 306.590205 
z
" style="fill:#dc143c;fill-opacity:0.9;"/>
    <path clip-path="url(#pcaadcb9c3c)" d="M 307.885661 249.729453 
L 300.814593 263.871588 
L 314.956729 263.871588 
z
" style="fill:#dc143c;fill-opacity:0.9;"/>
    <path clip-path="url(#pcaadcb9c3c)" d="M 330.617236 228.917819 
L 323.546168 243.059955 
L 337.688303 243.059955 
z
" style="fill:#dc143c;fill-opacity:0.9;"/>
    <path clip-path="url(#pcaadcb9c3c)" d="M 116.409507 452.369046 
L 109.338439 466.511181 
L 123.480575 466.511181 
z
" style="fill:#dc143c;fill-opacity:0.9;"/>
    <path clip-path="url(#pcaadcb9c3c)" d="M 118.747737 452.369046 
L 111.676669 466.511181 
L 125.818805 466.511181 
z
" style="fill:#dc143c;fill-opacity:0.9;"/>
    <path clip-path="url(#pcaadcb9c3c)" d="M 124.568437 452.369046 
L 117.497369 466.511181 
L 131.639505 466.511181 
z
" style="fill:#dc143c;fill-opacity:0.9;"/>
    <path clip-path="url(#pcaadcb9c3c)" d="M 133.923346 449.082998 
L 126.852279 463.225134 
L 140.994414 463.225134 
z
" style="fill:#dc143c;fill-opacity:0.9;"/>
    <path clip-path="url(#pcaadcb9c3c)" d="M 151.926722 431.557412 
L 144.855654 445.699548 
L 158.99779 445.699548 
z
" style="fill:#dc143c;fill-opacity:0.9;"/>
    <path clip-path="url(#pcaadcb9c3c)" d="M 171.8564 409.650429 
L 164.785333 423.792565 
L 178.927468 423.792565 
z
" style="fill:#dc143c;fill-opacity:0.9;"/>
    <path clip-path="url(#pcaadcb9c3c)" d="M 198.764949 378.432978 
L 191.693881 392.575114 
L 205.836017 392.575114 
z
" style="fill:#dc143c;fill-opacity:0.9;"/>
    <path clip-path="url(#pcaadcb9c3c)" d="M 231.134011 339.548083 
L 224.062943 353.690219 
L 238.205079 353.690219 
z
" style="fill:#dc143c;fill-opacity:0.9;"/>
    <path clip-path="url(#pcaadcb9c3c)" d="M 263.343874 303.401561 
L 256.272806 317.543697 
L 270.414942 317.543697 
z
" style="fill:#dc143c;fill-opacity:0.9;"/>
    <path clip-path="url(#pcaadcb9c3c)" d="M 304.124593 257.944571 
L 297.053525 272.086707 
L 311.195661 272.086707 
z
" style="fill:#dc143c;fill-opacity:0.9;"/>
    <path clip-path="url(#pcaadcb9c3c)" d="M 118.34974 452.369046 
L 111.278673 466.511181 
L 125.420808 466.511181 
z
" style="fill:#dc143c;fill-opacity:0.9;"/>
    <path clip-path="url(#pcaadcb9c3c)" d="M 119.792478 452.369046 
L 112.72141 466.511181 
L 126.863546 466.511181 
z
" style="fill:#dc143c;fill-opacity:0.9;"/>
    <path clip-path="url(#pcaadcb9c3c)" d="M 124.021192 452.369046 
L 116.950124 466.511181 
L 131.092259 466.511181 
z
" style="fill:#dc143c;fill-opacity:0.9;"/>
    <path clip-path="url(#pcaadcb9c3c)" d="M 127.603161 452.369046 
L 120.532093 466.511181 
L 134.674229 466.511181 
z
" style="fill:#dc143c;fill-opacity:0.9;"/>
    <path clip-path="url(#pcaadcb9c3c)" d="M 131.284629 452.369046 
L 124.213561 466.511181 
L 138.355697 466.511181 
z
" style="fill:#dc143c;fill-opacity:0.9;"/>
    <path clip-path="url(#pcaadcb9c3c)" d="M 138.782885 447.987649 
L 131.711817 462.129785 
L 145.853953 462.129785 
z
" style="fill:#dc143c;fill-opacity:0.9;"/>
    <path clip-path="url(#pcaadcb9c3c)" d="M 157.011128 428.819039 
L 149.94006 442.961175 
L 164.082196 442.961175 
z
" style="fill:#dc143c;fill-opacity:0.9;"/>
    <path clip-path="url(#pcaadcb9c3c)" d="M 178.210416 405.269032 
L 171.139348 419.411168 
L 185.281484 419.411168 
z
" style="fill:#dc143c;fill-opacity:0.9;"/>
    <path clip-path="url(#pcaadcb9c3c)" d="M 222.632804 357.07367 
L 215.561736 371.215805 
L 229.703872 371.215805 
z
" style="fill:#dc143c;fill-opacity:0.9;"/>
    <path clip-path="url(#pcaadcb9c3c)" d="M 290.133024 277.660856 
L 283.061956 291.802992 
L 297.204091 291.802992 
z
" style="fill:#dc143c;fill-opacity:0.9;"/>
   </g>
   <g id="legend_1">
    <g id="patch_8">
     <path d="M 111.2075 68.003125 
L 427.982969 68.003125 
Q 430.582969 68.003125 430.582969 65.403125 
L 430.582969 28.54 
Q 430.582969 25.94 427.982969 25.94 
L 111.2075 25.94 
Q 108.6075 25.94 108.6075 28.54 
L 108.6075 65.403125 
Q 108.6075 68.003125 111.2075 68.003125 
z
" style="fill:#ffffff;opacity:0.8;stroke:#cccccc;stroke-linejoin:miter;stroke-width:1.5;"/>
    </g>
    <g id="patch_9">
     <path d="M 113.8075 41.017969 
L 139.8075 41.017969 
L 139.8075 31.917969 
L 113.8075 31.917969 
z
" style="fill:#dc143c;opacity:0.5;stroke:#dc143c;stroke-linejoin:miter;stroke-width:1.5;"/>
    </g>
    <g id="text_16">
     <!-- Model Prediction of the Warburg Effect -->
     <g transform="translate(150.2075 41.017969)scale(0.13 -0.13)">
      <defs>
       <path d="M 9.8125 72.90625 
L 24.515625 72.90625 
L 43.109375 23.296875 
L 61.8125 72.90625 
L 76.515625 72.90625 
L 76.515625 0 
L 66.890625 0 
L 66.890625 64.015625 
L 48.09375 14.015625 
L 38.1875 14.015625 
L 19.390625 64.015625 
L 19.390625 0 
L 9.8125 0 
z
" id="DejaVuSans-77"/>
       <path d="M 37.109375 75.984375 
L 37.109375 68.5 
L 28.515625 68.5 
Q 23.6875 68.5 21.796875 66.546875 
Q 19.921875 64.59375 19.921875 59.515625 
L 19.921875 54.6875 
L 34.71875 54.6875 
L 34.71875 47.703125 
L 19.921875 47.703125 
L 19.921875 0 
L 10.890625 0 
L 10.890625 47.703125 
L 2.296875 47.703125 
L 2.296875 54.6875 
L 10.890625 54.6875 
L 10.890625 58.5 
Q 10.890625 67.625 15.140625 71.796875 
Q 19.390625 75.984375 28.609375 75.984375 
z
" id="DejaVuSans-102"/>
       <path d="M 3.328125 72.90625 
L 13.28125 72.90625 
L 28.609375 11.28125 
L 43.890625 72.90625 
L 54.984375 72.90625 
L 70.3125 11.28125 
L 85.59375 72.90625 
L 95.609375 72.90625 
L 77.296875 0 
L 64.890625 0 
L 49.515625 63.28125 
L 33.984375 0 
L 21.578125 0 
z
" id="DejaVuSans-87"/>
       <path d="M 48.6875 27.296875 
Q 48.6875 37.203125 44.609375 42.84375 
Q 40.53125 48.484375 33.40625 48.484375 
Q 26.265625 48.484375 22.1875 42.84375 
Q 18.109375 37.203125 18.109375 27.296875 
Q 18.109375 17.390625 22.1875 11.75 
Q 26.265625 6.109375 33.40625 6.109375 
Q 40.53125 6.109375 44.609375 11.75 
Q 48.6875 17.390625 48.6875 27.296875 
z
M 18.109375 46.390625 
Q 20.953125 51.265625 25.265625 53.625 
Q 29.59375 56 35.59375 56 
Q 45.5625 56 51.78125 48.09375 
Q 58.015625 40.1875 58.015625 27.296875 
Q 58.015625 14.40625 51.78125 6.484375 
Q 45.5625 -1.421875 35.59375 -1.421875 
Q 29.59375 -1.421875 25.265625 0.953125 
Q 20.953125 3.328125 18.109375 8.203125 
L 18.109375 0 
L 9.078125 0 
L 9.078125 75.984375 
L 18.109375 75.984375 
z
" id="DejaVuSans-98"/>
       <path d="M 45.40625 27.984375 
Q 45.40625 37.75 41.375 43.109375 
Q 37.359375 48.484375 30.078125 48.484375 
Q 22.859375 48.484375 18.828125 43.109375 
Q 14.796875 37.75 14.796875 27.984375 
Q 14.796875 18.265625 18.828125 12.890625 
Q 22.859375 7.515625 30.078125 7.515625 
Q 37.359375 7.515625 41.375 12.890625 
Q 45.40625 18.265625 45.40625 27.984375 
z
M 54.390625 6.78125 
Q 54.390625 -7.171875 48.1875 -13.984375 
Q 42 -20.796875 29.203125 -20.796875 
Q 24.46875 -20.796875 20.265625 -20.09375 
Q 16.0625 -19.390625 12.109375 -17.921875 
L 12.109375 -9.1875 
Q 16.0625 -11.328125 19.921875 -12.34375 
Q 23.78125 -13.375 27.78125 -13.375 
Q 36.625 -13.375 41.015625 -8.765625 
Q 45.40625 -4.15625 45.40625 5.171875 
L 45.40625 9.625 
Q 42.625 4.78125 38.28125 2.390625 
Q 33.9375 0 27.875 0 
Q 17.828125 0 11.671875 7.65625 
Q 5.515625 15.328125 5.515625 27.984375 
Q 5.515625 40.671875 11.671875 48.328125 
Q 17.828125 56 27.875 56 
Q 33.9375 56 38.28125 53.609375 
Q 42.625 51.21875 45.40625 46.390625 
L 45.40625 54.6875 
L 54.390625 54.6875 
z
" id="DejaVuSans-103"/>
      </defs>
      <use xlink:href="#DejaVuSans-77"/>
      <use x="86.279297" xlink:href="#DejaVuSans-111"/>
      <use x="147.460938" xlink:href="#DejaVuSans-100"/>
      <use x="210.9375" xlink:href="#DejaVuSans-101"/>
      <use x="272.460938" xlink:href="#DejaVuSans-108"/>
      <use x="300.244141" xlink:href="#DejaVuSans-32"/>
      <use x="332.03125" xlink:href="#DejaVuSans-80"/>
      <use x="390.583984" xlink:href="#DejaVuSans-114"/>
      <use x="429.447266" xlink:href="#DejaVuSans-101"/>
      <use x="490.970703" xlink:href="#DejaVuSans-100"/>
      <use x="554.447266" xlink:href="#DejaVuSans-105"/>
      <use x="582.230469" xlink:href="#DejaVuSans-99"/>
      <use x="637.210938" xlink:href="#DejaVuSans-116"/>
      <use x="676.419922" xlink:href="#DejaVuSans-105"/>
      <use x="704.203125" xlink:href="#DejaVuSans-111"/>
      <use x="765.384766" xlink:href="#DejaVuSans-110"/>
      <use x="828.763672" xlink:href="#DejaVuSans-32"/>
      <use x="860.550781" xlink:href="#DejaVuSans-111"/>
      <use x="921.732422" xlink:href="#DejaVuSans-102"/>
      <use x="956.9375" xlink:href="#DejaVuSans-32"/>
      <use x="988.724609" xlink:href="#DejaVuSans-116"/>
      <use x="1027.933594" xlink:href="#DejaVuSans-104"/>
      <use x="1091.3125" xlink:href="#DejaVuSans-101"/>
      <use x="1152.835938" xlink:href="#DejaVuSans-32"/>
      <use x="1184.623047" xlink:href="#DejaVuSans-87"/>
      <use x="1277.125" xlink:href="#DejaVuSans-97"/>
      <use x="1338.404297" xlink:href="#DejaVuSans-114"/>
      <use x="1379.517578" xlink:href="#DejaVuSans-98"/>
      <use x="1442.994141" xlink:href="#DejaVuSans-117"/>
      <use x="1506.373047" xlink:href="#DejaVuSans-114"/>
      <use x="1545.736328" xlink:href="#DejaVuSans-103"/>
      <use x="1609.212891" xlink:href="#DejaVuSans-32"/>
      <use x="1641" xlink:href="#DejaVuSans-69"/>
      <use x="1704.183594" xlink:href="#DejaVuSans-102"/>
      <use x="1739.388672" xlink:href="#DejaVuSans-102"/>
      <use x="1774.59375" xlink:href="#DejaVuSans-101"/>
      <use x="1836.117188" xlink:href="#DejaVuSans-99"/>
      <use x="1891.097656" xlink:href="#DejaVuSans-116"/>
     </g>
    </g>
    <g id="line2d_14"/>
    <g id="line2d_15">
     <defs>
      <path d="M 0 4.5 
C 1.193414 4.5 2.338109 4.025852 3.181981 3.181981 
C 4.025852 2.338109 4.5 1.193414 4.5 0 
C 4.5 -1.193414 4.025852 -2.338109 3.181981 -3.181981 
C 2.338109 -4.025852 1.193414 -4.5 0 -4.5 
C -1.193414 -4.5 -2.338109 -4.025852 -3.181981 -3.181981 
C -4.025852 -2.338109 -4.5 -1.193414 -4.5 0 
C -4.5 1.193414 -4.025852 2.338109 -3.181981 3.181981 
C -2.338109 4.025852 -1.193414 4.5 0 4.5 
z
" id="m107655d551" style="stroke:#dc143c;"/>
     </defs>
     <g>
      <use style="fill:#dc143c;stroke:#dc143c;" x="126.8075" xlink:href="#m107655d551" y="55.549531"/>
     </g>
    </g>
    <g id="text_17">
     <!-- Ethanol Production (mmol gprotein-1 hr-1) -->
     <g transform="translate(150.2075 60.099531)scale(0.13 -0.13)">
      <defs>
       <path d="M 31 75.875 
Q 24.46875 64.65625 21.28125 53.65625 
Q 18.109375 42.671875 18.109375 31.390625 
Q 18.109375 20.125 21.3125 9.0625 
Q 24.515625 -2 31 -13.1875 
L 23.1875 -13.1875 
Q 15.875 -1.703125 12.234375 9.375 
Q 8.59375 20.453125 8.59375 31.390625 
Q 8.59375 42.28125 12.203125 53.3125 
Q 15.828125 64.359375 23.1875 75.875 
z
" id="DejaVuSans-40"/>
       <path d="M 52 44.1875 
Q 55.375 50.25 60.0625 53.125 
Q 64.75 56 71.09375 56 
Q 79.640625 56 84.28125 50.015625 
Q 88.921875 44.046875 88.921875 33.015625 
L 88.921875 0 
L 79.890625 0 
L 79.890625 32.71875 
Q 79.890625 40.578125 77.09375 44.375 
Q 74.3125 48.1875 68.609375 48.1875 
Q 61.625 48.1875 57.5625 43.546875 
Q 53.515625 38.921875 53.515625 30.90625 
L 53.515625 0 
L 44.484375 0 
L 44.484375 32.71875 
Q 44.484375 40.625 41.703125 44.40625 
Q 38.921875 48.1875 33.109375 48.1875 
Q 26.21875 48.1875 22.15625 43.53125 
Q 18.109375 38.875 18.109375 30.90625 
L 18.109375 0 
L 9.078125 0 
L 9.078125 54.6875 
L 18.109375 54.6875 
L 18.109375 46.1875 
Q 21.1875 51.21875 25.484375 53.609375 
Q 29.78125 56 35.6875 56 
Q 41.65625 56 45.828125 52.96875 
Q 50 49.953125 52 44.1875 
z
" id="DejaVuSans-109"/>
       <path d="M 4.890625 31.390625 
L 31.203125 31.390625 
L 31.203125 23.390625 
L 4.890625 23.390625 
z
" id="DejaVuSans-45"/>
       <path d="M 8.015625 75.875 
L 15.828125 75.875 
Q 23.140625 64.359375 26.78125 53.3125 
Q 30.421875 42.28125 30.421875 31.390625 
Q 30.421875 20.453125 26.78125 9.375 
Q 23.140625 -1.703125 15.828125 -13.1875 
L 8.015625 -13.1875 
Q 14.5 -2 17.703125 9.0625 
Q 20.90625 20.125 20.90625 31.390625 
Q 20.90625 42.671875 17.703125 53.65625 
Q 14.5 64.65625 8.015625 75.875 
z
" id="DejaVuSans-41"/>
      </defs>
      <use xlink:href="#DejaVuSans-69"/>
      <use x="63.183594" xlink:href="#DejaVuSans-116"/>
      <use x="102.392578" xlink:href="#DejaVuSans-104"/>
      <use x="165.771484" xlink:href="#DejaVuSans-97"/>
      <use x="227.050781" xlink:href="#DejaVuSans-110"/>
      <use x="290.429688" xlink:href="#DejaVuSans-111"/>
      <use x="351.611328" xlink:href="#DejaVuSans-108"/>
      <use x="379.394531" xlink:href="#DejaVuSans-32"/>
      <use x="411.181641" xlink:href="#DejaVuSans-80"/>
      <use x="469.734375" xlink:href="#DejaVuSans-114"/>
      <use x="508.597656" xlink:href="#DejaVuSans-111"/>
      <use x="569.779297" xlink:href="#DejaVuSans-100"/>
      <use x="633.255859" xlink:href="#DejaVuSans-117"/>
      <use x="696.634766" xlink:href="#DejaVuSans-99"/>
      <use x="751.615234" xlink:href="#DejaVuSans-116"/>
      <use x="790.824219" xlink:href="#DejaVuSans-105"/>
      <use x="818.607422" xlink:href="#DejaVuSans-111"/>
      <use x="879.789062" xlink:href="#DejaVuSans-110"/>
      <use x="943.167969" xlink:href="#DejaVuSans-32"/>
      <use x="974.955078" xlink:href="#DejaVuSans-40"/>
      <use x="1013.96875" xlink:href="#DejaVuSans-109"/>
      <use x="1111.380859" xlink:href="#DejaVuSans-109"/>
      <use x="1208.792969" xlink:href="#DejaVuSans-111"/>
      <use x="1269.974609" xlink:href="#DejaVuSans-108"/>
      <use x="1297.757812" xlink:href="#DejaVuSans-32"/>
      <use x="1329.544922" xlink:href="#DejaVuSans-103"/>
      <use x="1393.021484" xlink:href="#DejaVuSans-112"/>
      <use x="1456.498047" xlink:href="#DejaVuSans-114"/>
      <use x="1495.361328" xlink:href="#DejaVuSans-111"/>
      <use x="1556.542969" xlink:href="#DejaVuSans-116"/>
      <use x="1595.751953" xlink:href="#DejaVuSans-101"/>
      <use x="1657.275391" xlink:href="#DejaVuSans-105"/>
      <use x="1685.058594" xlink:href="#DejaVuSans-110"/>
      <use x="1748.4375" xlink:href="#DejaVuSans-45"/>
      <use x="1784.521484" xlink:href="#DejaVuSans-49"/>
      <use x="1848.144531" xlink:href="#DejaVuSans-32"/>
      <use x="1879.931641" xlink:href="#DejaVuSans-104"/>
      <use x="1943.310547" xlink:href="#DejaVuSans-114"/>
      <use x="1978.048828" xlink:href="#DejaVuSans-45"/>
      <use x="2014.132812" xlink:href="#DejaVuSans-49"/>
      <use x="2077.755859" xlink:href="#DejaVuSans-41"/>
     </g>
    </g>
   </g>
  </g>
 </g>
 <defs>
  <clipPath id="pcaadcb9c3c">
   <rect height="460.9525" width="452.331071" x="102.1075" y="19.44"/>
  </clipPath>
 </defs>
</svg>
