<?xml version="1.0" encoding="utf-8" standalone="no"?>
<!DOCTYPE svg PUBLIC "-//W3C//DTD SVG 1.1//EN"
  "http://www.w3.org/Graphics/SVG/1.1/DTD/svg11.dtd">
<!-- Created with matplotlib (https://matplotlib.org/) -->
<svg height="576pt" version="1.1" viewBox="0 0 576 576" width="576pt" xmlns="http://www.w3.org/2000/svg" xmlns:xlink="http://www.w3.org/1999/xlink">
 <metadata>
  <rdf:RDF xmlns:cc="http://creativecommons.org/ns#" xmlns:dc="http://purl.org/dc/elements/1.1/" xmlns:rdf="http://www.w3.org/1999/02/22-rdf-syntax-ns#">
   <cc:Work>
    <dc:type rdf:resource="http://purl.org/dc/dcmitype/StillImage"/>
    <dc:date>2024-03-07T22:55:44.370759</dc:date>
    <dc:format>image/svg+xml</dc:format>
    <dc:creator>
     <cc:Agent>
      <dc:title>Matplotlib v3.3.4, https://matplotlib.org/</dc:title>
     </cc:Agent>
    </dc:creator>
   </cc:Work>
  </rdf:RDF>
 </metadata>
 <defs>
  <style type="text/css">*{stroke-linecap:butt;stroke-linejoin:round;}</style>
 </defs>
 <g id="figure_1">
  <g id="patch_1">
   <path d="M 0 576 
L 576 576 
L 576 0 
L 0 0 
z
" style="fill:none;"/>
  </g>
  <g id="axes_1">
   <g id="patch_2">
    <path d="M 106.77 481.98 
L 556.56 481.98 
L 556.56 19.44 
L 106.77 19.44 
z
" style="fill:#ffffff;"/>
   </g>
   <g id="PolyCollection_1">
    <defs>
     <path d="M 122.135497 -115.044545 
L 122.135497 -115.044545 
L 124.866049 -115.044545 
L 127.596601 -115.044545 
L 130.327153 -115.044545 
L 133.057705 -115.044545 
L 135.788257 -115.044545 
L 138.518809 -115.044545 
L 141.249361 -115.044545 
L 143.979913 -115.044545 
L 146.710465 -115.044545 
L 149.441017 -115.262474 
L 152.171569 -117.47515 
L 154.902121 -119.693535 
L 157.632673 -121.911772 
L 160.363225 -124.129478 
L 163.093777 -126.348245 
L 165.824329 -128.5717 
L 168.554881 -130.790453 
L 171.285433 -133.01211 
L 174.015985 -135.216489 
L 176.746537 -137.428085 
L 179.477089 -139.641054 
L 182.207641 -141.863539 
L 184.938193 -144.070438 
L 187.668744 -146.289257 
L 190.399296 -148.510194 
L 193.129848 -150.73113 
L 195.8604 -152.945664 
L 198.590952 -155.170295 
L 201.321504 -157.38767 
L 204.052056 -159.604079 
L 206.782608 -161.816947 
L 209.51316 -164.034585 
L 212.243712 -166.262752 
L 214.974264 -168.492418 
L 217.704816 -170.712981 
L 220.435368 -172.940492 
L 223.16592 -175.159894 
L 225.896472 -177.373254 
L 228.627024 -179.592985 
L 231.357576 -181.805527 
L 234.088128 -184.029689 
L 236.81868 -186.259264 
L 239.549232 -188.486763 
L 242.279784 -190.718415 
L 245.010336 -192.936283 
L 247.740888 -195.157097 
L 250.47144 -197.389141 
L 253.201992 -199.619053 
L 255.932544 -201.840579 
L 258.663096 -204.067462 
L 261.393648 -206.292419 
L 264.1242 -208.518109 
L 266.854752 -210.749972 
L 269.585304 -212.949471 
L 272.315856 -215.19372 
L 275.046408 -217.406654 
L 277.77696 -219.619588 
L 280.507512 -221.840127 
L 283.238064 -224.054048 
L 285.968616 -226.280169 
L 288.699168 -228.51025 
L 291.42972 -230.761001 
L 294.160272 -232.997404 
L 296.890824 -235.240432 
L 299.621376 -237.473527 
L 302.351928 -239.69759 
L 305.08248 -241.924474 
L 307.813032 -244.149526 
L 310.543584 -246.380167 
L 313.274136 -248.6137 
L 316.004688 -250.834962 
L 318.73524 -253.05406 
L 321.465792 -255.278691 
L 324.196344 -257.502827 
L 326.926896 -259.726297 
L 329.657448 -261.940343 
L 332.388 -264.1645 
L 335.118552 -266.392692 
L 337.849104 -268.617714 
L 340.579656 -270.843845 
L 343.310208 -273.068355 
L 346.04076 -275.310165 
L 348.771312 -277.547699 
L 351.501864 -279.774581 
L 354.232415 -282.008368 
L 356.962967 -284.241856 
L 359.693519 -286.473676 
L 362.424071 -288.708679 
L 365.154623 -290.956517 
L 367.885175 -293.187549 
L 370.615727 -295.450394 
L 373.346279 -297.673513 
L 376.076831 -299.902695 
L 378.807383 -302.137991 
L 381.537935 -304.384628 
L 384.268487 -306.629981 
L 386.999039 -308.876198 
L 389.729591 -311.120043 
L 392.460143 -313.372971 
L 395.190695 -315.600533 
L 397.921247 -317.844088 
L 400.651799 -320.112761 
L 403.382351 -322.36367 
L 406.112903 -324.599657 
L 408.843455 -326.830116 
L 411.574007 -329.081246 
L 414.304559 -331.311324 
L 417.035111 -333.568223 
L 419.765663 -335.815304 
L 422.496215 -338.071995 
L 425.226767 -340.326263 
L 427.957319 -342.568613 
L 430.687871 -344.808092 
L 433.418423 -347.068309 
L 436.148975 -349.31289 
L 438.879527 -351.562382 
L 441.610079 -353.81021 
L 444.340631 -356.040407 
L 447.071183 -358.284786 
L 449.801735 -360.532273 
L 452.532287 -362.76711 
L 455.262839 -365.003013 
L 457.993391 -367.247401 
L 460.723943 -369.489212 
L 463.454495 -371.748651 
L 466.185047 -373.984796 
L 468.915599 -376.228349 
L 471.646151 -378.469938 
L 474.376703 -380.729523 
L 477.107255 -382.974056 
L 479.837807 -385.2182 
L 482.568359 -387.464509 
L 485.298911 -389.704242 
L 488.029463 -391.947263 
L 490.760015 -394.190285 
L 493.490567 -396.430426 
L 496.221119 -398.682813 
L 498.951671 -400.919348 
L 501.682223 -403.160421 
L 504.412775 -405.415072 
L 507.143327 -407.673603 
L 509.873879 -409.917424 
L 512.604431 -412.168424 
L 515.334983 -414.432319 
L 518.065535 -416.693158 
L 520.796086 -418.96206 
L 523.526638 -421.216787 
L 526.25719 -423.470772 
L 528.987742 -425.718339 
L 531.718294 -427.97296 
L 534.448846 -430.230848 
L 537.179398 -432.48745 
L 539.90995 -434.751508 
L 542.640502 -436.999684 
L 545.371054 -439.226828 
L 548.101606 -441.48277 
L 550.832158 -443.727386 
L 553.56271 -445.967939 
L 556.293262 -448.207399 
L 559.023814 -450.443936 
L 561.754366 -452.686853 
L 564.484918 -454.921262 
L 567.21547 -457.178429 
L 569.946022 -459.411627 
L 572.676574 -461.656657 
L 575.407126 -463.90299 
L 578.137678 -466.143521 
L 580.86823 -468.379357 
L 583.598782 -470.59523 
L 586.329334 -472.808317 
L 589.059886 -475.056306 
L 591.790438 -477.271869 
L 594.52099 -479.458984 
L 597.251542 -481.660074 
L 599.982094 -483.800121 
L 602.712646 -486.021328 
L 605.443198 -488.202565 
L 608.17375 -490.380368 
L 610.904302 -492.547236 
L 613.634854 -494.743095 
L 616.365406 -496.89294 
L 619.095958 -499.042665 
L 621.82651 -501.219872 
L 624.557062 -503.371455 
L 627.287614 -505.549158 
L 630.018166 -507.702201 
L 632.748718 -509.879663 
L 635.47927 -512.019701 
L 638.209822 -514.157279 
L 640.940374 -516.281232 
L 643.670926 -518.420747 
L 646.401478 -520.559794 
L 649.13203 -522.71281 
L 651.862582 -524.856325 
L 654.593134 -526.970122 
L 657.323686 -529.12834 
L 660.054238 -531.276242 
L 662.78479 -533.400905 
L 665.515342 -535.535455 
L 665.515342 -494.759948 
L 665.515342 -494.759948 
L 662.78479 -494.759948 
L 660.054238 -494.759948 
L 657.323686 -494.759948 
L 654.593134 -494.759948 
L 651.862582 -494.759948 
L 649.13203 -494.759948 
L 646.401478 -494.759948 
L 643.670926 -494.74292 
L 640.940374 -494.74292 
L 638.209822 -494.330754 
L 635.47927 -493.649833 
L 632.748718 -492.732856 
L 630.018166 -491.347038 
L 627.287614 -489.759593 
L 624.557062 -488.208112 
L 621.82651 -486.319683 
L 619.095958 -484.316044 
L 616.365406 -482.43438 
L 613.634854 -480.470435 
L 610.904302 -478.463192 
L 608.17375 -476.322349 
L 605.443198 -474.146255 
L 602.712646 -471.96464 
L 599.982094 -469.804309 
L 597.251542 -467.642503 
L 594.52099 -465.459777 
L 591.790438 -463.317968 
L 589.059886 -461.132048 
L 586.329334 -458.973076 
L 583.598782 -456.779752 
L 580.86823 -454.579199 
L 578.137678 -452.3576 
L 575.407126 -450.159518 
L 572.676574 -447.968488 
L 569.946022 -445.756612 
L 567.21547 -443.56497 
L 564.484918 -441.34806 
L 561.754366 -439.128818 
L 559.023814 -436.924666 
L 556.293262 -434.701752 
L 553.56271 -432.464912 
L 550.832158 -430.243858 
L 548.101606 -428.002413 
L 545.371054 -425.774126 
L 542.640502 -423.528849 
L 539.90995 -421.306217 
L 537.179398 -419.068197 
L 534.448846 -416.844774 
L 531.718294 -414.610845 
L 528.987742 -412.388154 
L 526.25719 -410.148442 
L 523.526638 -407.909059 
L 520.796086 -405.67513 
L 518.065535 -403.442709 
L 515.334983 -401.207625 
L 512.604431 -398.969233 
L 509.873879 -396.721526 
L 507.143327 -394.47189 
L 504.412775 -392.242219 
L 501.682223 -390.000166 
L 498.951671 -387.74895 
L 496.221119 -385.525618 
L 493.490567 -383.271844 
L 490.760015 -381.050562 
L 488.029463 -378.779816 
L 485.298911 -376.515128 
L 482.568359 -374.261912 
L 479.837807 -372.015229 
L 477.107255 -369.751032 
L 474.376703 -367.521863 
L 471.646151 -365.270787 
L 468.915599 -363.028497 
L 466.185047 -360.781814 
L 463.454495 -358.538712 
L 460.723943 -356.292561 
L 457.993391 -354.060387 
L 455.262839 -351.809287 
L 452.532287 -349.548399 
L 449.801735 -347.297478 
L 447.071183 -345.055175 
L 444.340631 -342.811369 
L 441.610079 -340.560933 
L 438.879527 -338.29828 
L 436.148975 -336.041735 
L 433.418423 -333.780786 
L 430.687871 -331.526846 
L 427.957319 -329.272101 
L 425.226767 -327.020419 
L 422.496215 -324.769833 
L 419.765663 -322.528125 
L 417.035111 -320.269219 
L 414.304559 -318.00158 
L 411.574007 -315.745404 
L 408.843455 -313.503885 
L 406.112903 -311.26381 
L 403.382351 -309.022701 
L 400.651799 -306.777944 
L 397.921247 -304.527884 
L 395.190695 -302.278347 
L 392.460143 -300.008627 
L 389.729591 -297.751924 
L 386.999039 -295.485513 
L 384.268487 -293.255 
L 381.537935 -290.995116 
L 378.807383 -288.731005 
L 376.076831 -286.48056 
L 373.346279 -284.224596 
L 370.615727 -281.968953 
L 367.885175 -279.705042 
L 365.154623 -277.447552 
L 362.424071 -275.191137 
L 359.693519 -272.929989 
L 356.962967 -270.666028 
L 354.232415 -268.382749 
L 351.501864 -266.119277 
L 348.771312 -263.856018 
L 346.04076 -261.597468 
L 343.310208 -259.355364 
L 340.579656 -257.101957 
L 337.849104 -254.84081 
L 335.118552 -252.590188 
L 332.388 -250.327303 
L 329.657448 -248.071046 
L 326.926896 -245.805906 
L 324.196344 -243.536005 
L 321.465792 -241.273925 
L 318.73524 -239.010317 
L 316.004688 -236.75033 
L 313.274136 -234.487916 
L 310.543584 -232.223545 
L 307.813032 -229.968188 
L 305.08248 -227.695517 
L 302.351928 -225.445893 
L 299.621376 -223.173665 
L 296.890824 -220.889809 
L 294.160272 -218.63641 
L 291.42972 -216.380199 
L 288.699168 -214.132846 
L 285.968616 -211.867131 
L 283.238064 -209.595447 
L 280.507512 -207.326421 
L 277.77696 -205.057234 
L 275.046408 -202.788127 
L 272.315856 -200.530404 
L 269.585304 -198.24517 
L 266.854752 -195.980807 
L 264.1242 -193.715441 
L 261.393648 -191.462733 
L 258.663096 -189.200017 
L 255.932544 -186.935419 
L 253.201992 -184.661803 
L 250.47144 -182.397861 
L 247.740888 -180.122804 
L 245.010336 -177.855403 
L 242.279784 -175.558846 
L 239.549232 -173.297893 
L 236.81868 -171.022923 
L 234.088128 -168.76094 
L 231.357576 -166.488827 
L 228.627024 -164.213312 
L 225.896472 -161.944205 
L 223.16592 -159.690753 
L 220.435368 -157.439001 
L 217.704816 -155.185779 
L 214.974264 -152.944983 
L 212.243712 -150.706746 
L 209.51316 -148.459272 
L 206.782608 -146.177827 
L 204.052056 -143.904386 
L 201.321504 -141.62664 
L 198.590952 -139.341628 
L 195.8604 -137.085107 
L 193.129848 -134.806437 
L 190.399296 -132.549566 
L 187.668744 -130.290717 
L 184.938193 -128.0354 
L 182.207641 -125.758839 
L 179.477089 -123.477789 
L 176.746537 -121.205718 
L 174.015985 -118.933955 
L 171.285433 -116.681217 
L 168.554881 -115.044545 
L 165.824329 -115.044545 
L 163.093777 -115.044545 
L 160.363225 -115.044545 
L 157.632673 -115.044545 
L 154.902121 -115.044545 
L 152.171569 -115.044545 
L 149.441017 -115.044545 
L 146.710465 -115.044545 
L 143.979913 -115.044545 
L 141.249361 -115.044545 
L 138.518809 -115.044545 
L 135.788257 -115.044545 
L 133.057705 -115.044545 
L 130.327153 -115.044545 
L 127.596601 -115.044545 
L 124.866049 -115.044545 
L 122.135497 -115.044545 
z
" id="mada9a34907"/>
    </defs>
    <g clip-path="url(#p04d90796f0)">
     <use style="fill:#dc143c;fill-opacity:0.2;" x="0" xlink:href="#mada9a34907" y="576"/>
    </g>
   </g>
   <g id="PolyCollection_2">
    <path clip-path="url(#p04d90796f0)" d="M 122.135497 457.717995 
L 122.135497 457.717995 
L 124.866049 451.389495 
L 127.596601 445.060995 
L 130.327153 438.732494 
L 133.057705 432.403994 
L 135.788257 426.075493 
L 138.518809 419.746993 
L 141.249361 413.418493 
L 143.979913 407.089992 
L 146.710465 400.761492 
L 149.441017 394.432991 
L 152.171569 388.104491 
L 154.902121 381.775991 
L 157.632673 375.44749 
L 160.363225 369.11899 
L 163.093777 362.790489 
L 165.824329 356.461989 
L 168.554881 350.133489 
L 171.285433 348.75615 
L 174.015985 349.180516 
L 176.746537 349.661671 
L 179.477089 350.132686 
L 182.207641 350.665159 
L 184.938193 351.180152 
L 187.668744 351.607655 
L 190.399296 352.035158 
L 193.129848 352.499851 
L 195.8604 352.979156 
L 198.590952 353.458461 
L 201.321504 354.003008 
L 204.052056 354.499377 
L 206.782608 355.017003 
L 209.51316 355.45615 
L 212.243712 355.867184 
L 214.974264 356.251917 
L 217.704816 356.679954 
L 220.435368 357.087888 
L 223.16592 357.535277 
L 225.896472 357.9523 
L 228.627024 358.419867 
L 231.357576 358.949167 
L 234.088128 359.403469 
L 236.81868 359.910931 
L 239.549232 360.37587 
L 242.279784 360.848932 
L 245.010336 361.408932 
L 247.740888 361.85548 
L 250.47144 362.34286 
L 253.201992 362.823978 
L 255.932544 363.312854 
L 258.663096 363.780365 
L 261.393648 364.241903 
L 264.1242 364.687038 
L 266.854752 365.152793 
L 269.585304 365.595078 
L 272.315856 366.108275 
L 275.046408 366.570069 
L 277.77696 367.066881 
L 280.507512 367.522218 
L 283.238064 368.015936 
L 285.968616 368.480983 
L 288.699168 368.946817 
L 291.42972 369.395314 
L 294.160272 369.800247 
L 296.890824 370.3149 
L 299.621376 370.774692 
L 302.351928 371.244039 
L 305.08248 371.671115 
L 307.813032 372.15407 
L 310.543584 372.605837 
L 313.274136 373.060779 
L 316.004688 373.514858 
L 318.73524 373.970663 
L 321.465792 374.44531 
L 324.196344 374.90435 
L 326.926896 375.366762 
L 329.657448 375.832412 
L 332.388 376.281678 
L 335.118552 376.743794 
L 337.849104 377.182104 
L 340.579656 377.632317 
L 343.310208 378.064268 
L 346.04076 378.481166 
L 348.771312 378.899385 
L 351.501864 379.355938 
L 354.232415 379.839783 
L 356.962967 380.333596 
L 359.693519 380.823034 
L 362.424071 381.289943 
L 365.154623 381.704675 
L 367.885175 382.159617 
L 370.615727 382.607793 
L 373.346279 383.060916 
L 376.076831 383.480632 
L 378.807383 383.908897 
L 381.537935 384.385513 
L 384.268487 384.835726 
L 386.999039 385.252952 
L 389.729591 385.653605 
L 392.460143 386.154853 
L 395.190695 386.592214 
L 397.921247 387.001043 
L 400.651799 387.452178 
L 403.382351 387.820363 
L 406.112903 388.221796 
L 408.843455 388.603942 
L 411.574007 389.023293 
L 414.304559 389.442913 
L 417.035111 389.916206 
L 419.765663 390.369463 
L 422.496215 390.765393 
L 425.226767 391.22251 
L 427.957319 391.612332 
L 430.687871 392.047667 
L 433.418423 392.490884 
L 436.148975 392.951877 
L 438.879527 393.400744 
L 441.610079 393.834814 
L 444.340631 394.291915 
L 447.071183 394.676288 
L 449.801735 395.06946 
L 452.532287 395.500484 
L 455.262839 395.93785 
L 457.993391 396.389707 
L 460.723943 396.730134 
L 463.454495 397.14233 
L 466.185047 397.58381 
L 468.915599 397.96624 
L 471.646151 398.361847 
L 474.376703 398.779008 
L 477.107255 399.180386 
L 479.837807 399.608469 
L 482.568359 400.020287 
L 485.298911 400.479088 
L 488.029463 400.963795 
L 490.760015 401.396004 
L 493.490567 401.783052 
L 496.221119 402.185086 
L 498.951671 402.592234 
L 501.682223 402.941893 
L 504.412775 403.359214 
L 507.143327 403.711977 
L 509.873879 404.140853 
L 512.604431 404.52883 
L 515.334983 404.927691 
L 518.065535 405.337204 
L 520.796086 405.690863 
L 523.526638 406.101798 
L 526.25719 406.47206 
L 528.987742 406.808986 
L 531.718294 407.190148 
L 534.448846 407.539753 
L 537.179398 407.888407 
L 539.90995 408.261694 
L 542.640502 408.66406 
L 545.371054 409.037987 
L 548.101606 409.3903 
L 550.832158 409.781523 
L 553.56271 410.187698 
L 556.293262 410.524434 
L 559.023814 410.905657 
L 561.754366 411.247984 
L 564.484918 411.637734 
L 567.21547 411.973537 
L 569.946022 412.298662 
L 572.676574 412.642887 
L 575.407126 413.050914 
L 578.137678 413.403938 
L 580.86823 413.770877 
L 583.598782 414.133823 
L 586.329334 414.526777 
L 589.059886 414.90125 
L 591.790438 415.271258 
L 594.52099 415.622601 
L 597.251542 415.963185 
L 599.982094 416.325287 
L 602.712646 416.666402 
L 605.443198 417.059042 
L 608.17375 417.433028 
L 610.904302 417.774948 
L 613.634854 418.186233 
L 616.365406 418.579142 
L 619.095958 418.929486 
L 621.82651 419.27983 
L 624.557062 419.66443 
L 627.287614 420.010945 
L 630.018166 420.371237 
L 632.748718 420.713918 
L 635.47927 421.107699 
L 638.209822 421.439116 
L 640.940374 421.81085 
L 643.670926 422.118825 
L 646.401478 422.463726 
L 649.13203 422.830049 
L 651.862582 423.1958 
L 654.593134 423.542419 
L 657.323686 423.902616 
L 660.054238 424.306977 
L 662.78479 424.630736 
L 665.515342 425.05006 
L 665.515342 460.955455 
L 665.515342 460.955455 
L 662.78479 460.955455 
L 660.054238 460.955455 
L 657.323686 460.955455 
L 654.593134 460.955455 
L 651.862582 460.955455 
L 649.13203 460.955455 
L 646.401478 460.955455 
L 643.670926 460.955455 
L 640.940374 460.955455 
L 638.209822 460.955455 
L 635.47927 460.955455 
L 632.748718 460.955455 
L 630.018166 460.955455 
L 627.287614 460.955455 
L 624.557062 460.955455 
L 621.82651 460.955455 
L 619.095958 460.955455 
L 616.365406 460.955455 
L 613.634854 460.955455 
L 610.904302 460.68647 
L 608.17375 460.220525 
L 605.443198 459.722821 
L 602.712646 459.241926 
L 599.982094 458.698069 
L 597.251542 458.213865 
L 594.52099 457.77768 
L 591.790438 457.317486 
L 589.059886 456.857061 
L 586.329334 456.416159 
L 583.598782 455.976062 
L 580.86823 455.501 
L 578.137678 455.05369 
L 575.407126 454.608224 
L 572.676574 454.17595 
L 569.946022 453.699214 
L 567.21547 453.280256 
L 564.484918 452.812461 
L 561.754366 452.292898 
L 559.023814 451.845686 
L 556.293262 451.35774 
L 553.56271 450.957224 
L 550.832158 450.488602 
L 548.101606 449.98223 
L 545.371054 449.54588 
L 542.640502 449.085594 
L 539.90995 448.640654 
L 537.179398 448.202091 
L 534.448846 447.767618 
L 531.718294 447.310426 
L 528.987742 446.863336 
L 526.25719 446.416245 
L 523.526638 445.953412 
L 520.796086 445.517683 
L 518.065535 445.048913 
L 515.334983 444.584576 
L 512.604431 444.136066 
L 509.873879 443.707562 
L 507.143327 443.308231 
L 504.412775 442.893203 
L 501.682223 442.416191 
L 498.951671 442.037821 
L 496.221119 441.649386 
L 493.490567 441.208221 
L 490.760015 440.817812 
L 488.029463 440.441689 
L 485.298911 440.009289 
L 482.568359 439.615873 
L 479.837807 439.224832 
L 477.107255 438.804843 
L 474.376703 438.40428 
L 471.646151 437.957246 
L 468.915599 437.560645 
L 466.185047 437.16999 
L 463.454495 436.768966 
L 460.723943 436.360742 
L 457.993391 435.933629 
L 455.262839 435.520595 
L 452.532287 435.148863 
L 449.801735 434.778012 
L 447.071183 434.354395 
L 444.340631 433.952167 
L 441.610079 433.58491 
L 438.879527 433.167767 
L 436.148975 432.755613 
L 433.418423 432.343255 
L 430.687871 431.93776 
L 427.957319 431.501444 
L 425.226767 431.102444 
L 422.496215 430.686425 
L 419.765663 430.253181 
L 417.035111 429.812405 
L 414.304559 429.398272 
L 411.574007 429.018393 
L 408.843455 428.584521 
L 406.112903 428.219717 
L 403.382351 427.846496 
L 400.651799 427.415719 
L 397.921247 426.952149 
L 395.190695 426.551459 
L 392.460143 426.18351 
L 389.729591 425.76963 
L 386.999039 425.358608 
L 384.268487 424.955074 
L 381.537935 424.541823 
L 378.807383 424.143748 
L 376.076831 423.745626 
L 373.346279 423.3913 
L 370.615727 423.045861 
L 367.885175 422.609741 
L 365.154623 422.223606 
L 362.424071 421.828647 
L 359.693519 421.428308 
L 356.962967 421.078629 
L 354.232415 420.70466 
L 351.501864 420.334781 
L 348.771312 419.968025 
L 346.04076 419.590637 
L 343.310208 419.193806 
L 340.579656 418.839596 
L 337.849104 418.491416 
L 335.118552 418.142037 
L 332.388 417.795336 
L 329.657448 417.476081 
L 326.926896 417.130689 
L 324.196344 416.785296 
L 321.465792 416.443619 
L 318.73524 416.09719 
L 316.004688 415.778526 
L 313.274136 415.442244 
L 310.543584 415.090956 
L 307.813032 414.700401 
L 305.08248 414.358866 
L 302.351928 414.01053 
L 299.621376 413.663965 
L 296.890824 413.291806 
L 294.160272 412.899293 
L 291.42972 412.516958 
L 288.699168 412.077487 
L 285.968616 411.730302 
L 283.238064 411.369951 
L 280.507512 411.092742 
L 277.77696 410.73169 
L 275.046408 410.42233 
L 272.315856 410.11297 
L 269.585304 409.742968 
L 266.854752 409.426626 
L 264.1242 409.066021 
L 261.393648 408.712116 
L 258.663096 408.377208 
L 255.932544 408.063472 
L 253.201992 407.68048 
L 250.47144 407.338751 
L 247.740888 406.953129 
L 245.010336 406.629014 
L 242.279784 406.287377 
L 239.549232 405.919976 
L 236.81868 405.574842 
L 234.088128 405.209609 
L 231.357576 404.892061 
L 228.627024 404.552829 
L 225.896472 404.23241 
L 223.16592 403.914127 
L 220.435368 403.586412 
L 217.704816 403.245511 
L 214.974264 402.899578 
L 212.243712 402.546845 
L 209.51316 402.238343 
L 206.782608 401.858916 
L 204.052056 401.555929 
L 201.321504 401.238747 
L 198.590952 400.905354 
L 195.8604 400.571046 
L 193.129848 400.238364 
L 190.399296 399.912382 
L 187.668744 399.612517 
L 184.938193 399.246429 
L 182.207641 398.950018 
L 179.477089 398.632346 
L 176.746537 398.313384 
L 174.015985 398.006428 
L 171.285433 397.720487 
L 168.554881 397.393023 
L 165.824329 397.05739 
L 163.093777 396.733157 
L 160.363225 396.375378 
L 157.632673 396.113868 
L 154.902121 395.765626 
L 152.171569 395.396748 
L 149.441017 395.088168 
L 146.710465 400.761492 
L 143.979913 407.089992 
L 141.249361 413.418493 
L 138.518809 419.746993 
L 135.788257 426.075493 
L 133.057705 432.403994 
L 130.327153 438.732494 
L 127.596601 445.060995 
L 124.866049 451.389495 
L 122.135497 457.717995 
z
" style="fill:#1f77b4;fill-opacity:0.2;"/>
   </g>
   <g id="matplotlib.axis_1">
    <g id="xtick_1">
     <g id="text_1">
      <!-- 0.0 -->
      <g transform="translate(104.835509 509.676875)scale(0.2 -0.2)">
       <defs>
        <path d="M 31.78125 66.40625 
Q 24.171875 66.40625 20.328125 58.90625 
Q 16.5 51.421875 16.5 36.375 
Q 16.5 21.390625 20.328125 13.890625 
Q 24.171875 6.390625 31.78125 6.390625 
Q 39.453125 6.390625 43.28125 13.890625 
Q 47.125 21.390625 47.125 36.375 
Q 47.125 51.421875 43.28125 58.90625 
Q 39.453125 66.40625 31.78125 66.40625 
z
M 31.78125 74.21875 
Q 44.046875 74.21875 50.515625 64.515625 
Q 56.984375 54.828125 56.984375 36.375 
Q 56.984375 17.96875 50.515625 8.265625 
Q 44.046875 -1.421875 31.78125 -1.421875 
Q 19.53125 -1.421875 13.0625 8.265625 
Q 6.59375 17.96875 6.59375 36.375 
Q 6.59375 54.828125 13.0625 64.515625 
Q 19.53125 74.21875 31.78125 74.21875 
z
" id="DejaVuSans-48"/>
        <path d="M 10.6875 12.40625 
L 21 12.40625 
L 21 0 
L 10.6875 0 
z
" id="DejaVuSans-46"/>
       </defs>
       <use xlink:href="#DejaVuSans-48"/>
       <use x="63.623047" xlink:href="#DejaVuSans-46"/>
       <use x="95.410156" xlink:href="#DejaVuSans-48"/>
      </g>
     </g>
    </g>
    <g id="xtick_2">
     <g id="text_2">
      <!-- 0.1 -->
      <g transform="translate(188.64731 509.676875)scale(0.2 -0.2)">
       <defs>
        <path d="M 12.40625 8.296875 
L 28.515625 8.296875 
L 28.515625 63.921875 
L 10.984375 60.40625 
L 10.984375 69.390625 
L 28.421875 72.90625 
L 38.28125 72.90625 
L 38.28125 8.296875 
L 54.390625 8.296875 
L 54.390625 0 
L 12.40625 0 
z
" id="DejaVuSans-49"/>
       </defs>
       <use xlink:href="#DejaVuSans-48"/>
       <use x="63.623047" xlink:href="#DejaVuSans-46"/>
       <use x="95.410156" xlink:href="#DejaVuSans-49"/>
      </g>
     </g>
    </g>
    <g id="xtick_3">
     <g id="text_3">
      <!-- 0.2 -->
      <g transform="translate(272.459111 509.676875)scale(0.2 -0.2)">
       <defs>
        <path d="M 19.1875 8.296875 
L 53.609375 8.296875 
L 53.609375 0 
L 7.328125 0 
L 7.328125 8.296875 
Q 12.9375 14.109375 22.625 23.890625 
Q 32.328125 33.6875 34.8125 36.53125 
Q 39.546875 41.84375 41.421875 45.53125 
Q 43.3125 49.21875 43.3125 52.78125 
Q 43.3125 58.59375 39.234375 62.25 
Q 35.15625 65.921875 28.609375 65.921875 
Q 23.96875 65.921875 18.8125 64.3125 
Q 13.671875 62.703125 7.8125 59.421875 
L 7.8125 69.390625 
Q 13.765625 71.78125 18.9375 73 
Q 24.125 74.21875 28.421875 74.21875 
Q 39.75 74.21875 46.484375 68.546875 
Q 53.21875 62.890625 53.21875 53.421875 
Q 53.21875 48.921875 51.53125 44.890625 
Q 49.859375 40.875 45.40625 35.40625 
Q 44.1875 33.984375 37.640625 27.21875 
Q 31.109375 20.453125 19.1875 8.296875 
z
" id="DejaVuSans-50"/>
       </defs>
       <use xlink:href="#DejaVuSans-48"/>
       <use x="63.623047" xlink:href="#DejaVuSans-46"/>
       <use x="95.410156" xlink:href="#DejaVuSans-50"/>
      </g>
     </g>
    </g>
    <g id="xtick_4">
     <g id="text_4">
      <!-- 0.3 -->
      <g transform="translate(356.270912 509.676875)scale(0.2 -0.2)">
       <defs>
        <path d="M 40.578125 39.3125 
Q 47.65625 37.796875 51.625 33 
Q 55.609375 28.21875 55.609375 21.1875 
Q 55.609375 10.40625 48.1875 4.484375 
Q 40.765625 -1.421875 27.09375 -1.421875 
Q 22.515625 -1.421875 17.65625 -0.515625 
Q 12.796875 0.390625 7.625 2.203125 
L 7.625 11.71875 
Q 11.71875 9.328125 16.59375 8.109375 
Q 21.484375 6.890625 26.8125 6.890625 
Q 36.078125 6.890625 40.9375 10.546875 
Q 45.796875 14.203125 45.796875 21.1875 
Q 45.796875 27.640625 41.28125 31.265625 
Q 36.765625 34.90625 28.71875 34.90625 
L 20.21875 34.90625 
L 20.21875 43.015625 
L 29.109375 43.015625 
Q 36.375 43.015625 40.234375 45.921875 
Q 44.09375 48.828125 44.09375 54.296875 
Q 44.09375 59.90625 40.109375 62.90625 
Q 36.140625 65.921875 28.71875 65.921875 
Q 24.65625 65.921875 20.015625 65.03125 
Q 15.375 64.15625 9.8125 62.3125 
L 9.8125 71.09375 
Q 15.4375 72.65625 20.34375 73.4375 
Q 25.25 74.21875 29.59375 74.21875 
Q 40.828125 74.21875 47.359375 69.109375 
Q 53.90625 64.015625 53.90625 55.328125 
Q 53.90625 49.265625 50.4375 45.09375 
Q 46.96875 40.921875 40.578125 39.3125 
z
" id="DejaVuSans-51"/>
       </defs>
       <use xlink:href="#DejaVuSans-48"/>
       <use x="63.623047" xlink:href="#DejaVuSans-46"/>
       <use x="95.410156" xlink:href="#DejaVuSans-51"/>
      </g>
     </g>
    </g>
    <g id="xtick_5">
     <g id="text_5">
      <!-- 0.4 -->
      <g transform="translate(440.082714 509.676875)scale(0.2 -0.2)">
       <defs>
        <path d="M 37.796875 64.3125 
L 12.890625 25.390625 
L 37.796875 25.390625 
z
M 35.203125 72.90625 
L 47.609375 72.90625 
L 47.609375 25.390625 
L 58.015625 25.390625 
L 58.015625 17.1875 
L 47.609375 17.1875 
L 47.609375 0 
L 37.796875 0 
L 37.796875 17.1875 
L 4.890625 17.1875 
L 4.890625 26.703125 
z
" id="DejaVuSans-52"/>
       </defs>
       <use xlink:href="#DejaVuSans-48"/>
       <use x="63.623047" xlink:href="#DejaVuSans-46"/>
       <use x="95.410156" xlink:href="#DejaVuSans-52"/>
      </g>
     </g>
    </g>
    <g id="xtick_6">
     <g id="text_6">
      <!-- 0.5 -->
      <g transform="translate(523.894515 509.676875)scale(0.2 -0.2)">
       <defs>
        <path d="M 10.796875 72.90625 
L 49.515625 72.90625 
L 49.515625 64.59375 
L 19.828125 64.59375 
L 19.828125 46.734375 
Q 21.96875 47.46875 24.109375 47.828125 
Q 26.265625 48.1875 28.421875 48.1875 
Q 40.625 48.1875 47.75 41.5 
Q 54.890625 34.8125 54.890625 23.390625 
Q 54.890625 11.625 47.5625 5.09375 
Q 40.234375 -1.421875 26.90625 -1.421875 
Q 22.3125 -1.421875 17.546875 -0.640625 
Q 12.796875 0.140625 7.71875 1.703125 
L 7.71875 11.625 
Q 12.109375 9.234375 16.796875 8.0625 
Q 21.484375 6.890625 26.703125 6.890625 
Q 35.15625 6.890625 40.078125 11.328125 
Q 45.015625 15.765625 45.015625 23.390625 
Q 45.015625 31 40.078125 35.4375 
Q 35.15625 39.890625 26.703125 39.890625 
Q 22.75 39.890625 18.8125 39.015625 
Q 14.890625 38.140625 10.796875 36.28125 
z
" id="DejaVuSans-53"/>
       </defs>
       <use xlink:href="#DejaVuSans-48"/>
       <use x="63.623047" xlink:href="#DejaVuSans-46"/>
       <use x="95.410156" xlink:href="#DejaVuSans-53"/>
      </g>
     </g>
    </g>
    <g id="text_7">
     <!-- Glucose Uptake Rate$ \left(\frac{\mu mol}{mg_{protein} \cdot min^{}}\right)$ -->
     <g transform="translate(166.465 540.23625)scale(0.2 -0.2)">
      <defs>
       <path d="M 59.515625 10.40625 
L 59.515625 29.984375 
L 43.40625 29.984375 
L 43.40625 38.09375 
L 69.28125 38.09375 
L 69.28125 6.78125 
Q 63.578125 2.734375 56.6875 0.65625 
Q 49.8125 -1.421875 42 -1.421875 
Q 24.90625 -1.421875 15.25 8.5625 
Q 5.609375 18.5625 5.609375 36.375 
Q 5.609375 54.25 15.25 64.234375 
Q 24.90625 74.21875 42 74.21875 
Q 49.125 74.21875 55.546875 72.453125 
Q 61.96875 70.703125 67.390625 67.28125 
L 67.390625 56.78125 
Q 61.921875 61.421875 55.765625 63.765625 
Q 49.609375 66.109375 42.828125 66.109375 
Q 29.4375 66.109375 22.71875 58.640625 
Q 16.015625 51.171875 16.015625 36.375 
Q 16.015625 21.625 22.71875 14.15625 
Q 29.4375 6.6875 42.828125 6.6875 
Q 48.046875 6.6875 52.140625 7.59375 
Q 56.25 8.5 59.515625 10.40625 
z
" id="DejaVuSans-71"/>
       <path d="M 9.421875 75.984375 
L 18.40625 75.984375 
L 18.40625 0 
L 9.421875 0 
z
" id="DejaVuSans-108"/>
       <path d="M 8.5 21.578125 
L 8.5 54.6875 
L 17.484375 54.6875 
L 17.484375 21.921875 
Q 17.484375 14.15625 20.5 10.265625 
Q 23.53125 6.390625 29.59375 6.390625 
Q 36.859375 6.390625 41.078125 11.03125 
Q 45.3125 15.671875 45.3125 23.6875 
L 45.3125 54.6875 
L 54.296875 54.6875 
L 54.296875 0 
L 45.3125 0 
L 45.3125 8.40625 
Q 42.046875 3.421875 37.71875 1 
Q 33.40625 -1.421875 27.6875 -1.421875 
Q 18.265625 -1.421875 13.375 4.4375 
Q 8.5 10.296875 8.5 21.578125 
z
M 31.109375 56 
z
" id="DejaVuSans-117"/>
       <path d="M 48.78125 52.59375 
L 48.78125 44.1875 
Q 44.96875 46.296875 41.140625 47.34375 
Q 37.3125 48.390625 33.40625 48.390625 
Q 24.65625 48.390625 19.8125 42.84375 
Q 14.984375 37.3125 14.984375 27.296875 
Q 14.984375 17.28125 19.8125 11.734375 
Q 24.65625 6.203125 33.40625 6.203125 
Q 37.3125 6.203125 41.140625 7.25 
Q 44.96875 8.296875 48.78125 10.40625 
L 48.78125 2.09375 
Q 45.015625 0.34375 40.984375 -0.53125 
Q 36.96875 -1.421875 32.421875 -1.421875 
Q 20.0625 -1.421875 12.78125 6.34375 
Q 5.515625 14.109375 5.515625 27.296875 
Q 5.515625 40.671875 12.859375 48.328125 
Q 20.21875 56 33.015625 56 
Q 37.15625 56 41.109375 55.140625 
Q 45.0625 54.296875 48.78125 52.59375 
z
" id="DejaVuSans-99"/>
       <path d="M 30.609375 48.390625 
Q 23.390625 48.390625 19.1875 42.75 
Q 14.984375 37.109375 14.984375 27.296875 
Q 14.984375 17.484375 19.15625 11.84375 
Q 23.34375 6.203125 30.609375 6.203125 
Q 37.796875 6.203125 41.984375 11.859375 
Q 46.1875 17.53125 46.1875 27.296875 
Q 46.1875 37.015625 41.984375 42.703125 
Q 37.796875 48.390625 30.609375 48.390625 
z
M 30.609375 56 
Q 42.328125 56 49.015625 48.375 
Q 55.71875 40.765625 55.71875 27.296875 
Q 55.71875 13.875 49.015625 6.21875 
Q 42.328125 -1.421875 30.609375 -1.421875 
Q 18.84375 -1.421875 12.171875 6.21875 
Q 5.515625 13.875 5.515625 27.296875 
Q 5.515625 40.765625 12.171875 48.375 
Q 18.84375 56 30.609375 56 
z
" id="DejaVuSans-111"/>
       <path d="M 44.28125 53.078125 
L 44.28125 44.578125 
Q 40.484375 46.53125 36.375 47.5 
Q 32.28125 48.484375 27.875 48.484375 
Q 21.1875 48.484375 17.84375 46.4375 
Q 14.5 44.390625 14.5 40.28125 
Q 14.5 37.15625 16.890625 35.375 
Q 19.28125 33.59375 26.515625 31.984375 
L 29.59375 31.296875 
Q 39.15625 29.25 43.1875 25.515625 
Q 47.21875 21.78125 47.21875 15.09375 
Q 47.21875 7.46875 41.1875 3.015625 
Q 35.15625 -1.421875 24.609375 -1.421875 
Q 20.21875 -1.421875 15.453125 -0.5625 
Q 10.6875 0.296875 5.421875 2 
L 5.421875 11.28125 
Q 10.40625 8.6875 15.234375 7.390625 
Q 20.0625 6.109375 24.8125 6.109375 
Q 31.15625 6.109375 34.5625 8.28125 
Q 37.984375 10.453125 37.984375 14.40625 
Q 37.984375 18.0625 35.515625 20.015625 
Q 33.0625 21.96875 24.703125 23.78125 
L 21.578125 24.515625 
Q 13.234375 26.265625 9.515625 29.90625 
Q 5.8125 33.546875 5.8125 39.890625 
Q 5.8125 47.609375 11.28125 51.796875 
Q 16.75 56 26.8125 56 
Q 31.78125 56 36.171875 55.265625 
Q 40.578125 54.546875 44.28125 53.078125 
z
" id="DejaVuSans-115"/>
       <path d="M 56.203125 29.59375 
L 56.203125 25.203125 
L 14.890625 25.203125 
Q 15.484375 15.921875 20.484375 11.0625 
Q 25.484375 6.203125 34.421875 6.203125 
Q 39.59375 6.203125 44.453125 7.46875 
Q 49.3125 8.734375 54.109375 11.28125 
L 54.109375 2.78125 
Q 49.265625 0.734375 44.1875 -0.34375 
Q 39.109375 -1.421875 33.890625 -1.421875 
Q 20.796875 -1.421875 13.15625 6.1875 
Q 5.515625 13.8125 5.515625 26.8125 
Q 5.515625 40.234375 12.765625 48.109375 
Q 20.015625 56 32.328125 56 
Q 43.359375 56 49.78125 48.890625 
Q 56.203125 41.796875 56.203125 29.59375 
z
M 47.21875 32.234375 
Q 47.125 39.59375 43.09375 43.984375 
Q 39.0625 48.390625 32.421875 48.390625 
Q 24.90625 48.390625 20.390625 44.140625 
Q 15.875 39.890625 15.1875 32.171875 
z
" id="DejaVuSans-101"/>
       <path id="DejaVuSans-32"/>
       <path d="M 8.6875 72.90625 
L 18.609375 72.90625 
L 18.609375 28.609375 
Q 18.609375 16.890625 22.84375 11.734375 
Q 27.09375 6.59375 36.625 6.59375 
Q 46.09375 6.59375 50.34375 11.734375 
Q 54.59375 16.890625 54.59375 28.609375 
L 54.59375 72.90625 
L 64.5 72.90625 
L 64.5 27.390625 
Q 64.5 13.140625 57.4375 5.859375 
Q 50.390625 -1.421875 36.625 -1.421875 
Q 22.796875 -1.421875 15.734375 5.859375 
Q 8.6875 13.140625 8.6875 27.390625 
z
" id="DejaVuSans-85"/>
       <path d="M 18.109375 8.203125 
L 18.109375 -20.796875 
L 9.078125 -20.796875 
L 9.078125 54.6875 
L 18.109375 54.6875 
L 18.109375 46.390625 
Q 20.953125 51.265625 25.265625 53.625 
Q 29.59375 56 35.59375 56 
Q 45.5625 56 51.78125 48.09375 
Q 58.015625 40.1875 58.015625 27.296875 
Q 58.015625 14.40625 51.78125 6.484375 
Q 45.5625 -1.421875 35.59375 -1.421875 
Q 29.59375 -1.421875 25.265625 0.953125 
Q 20.953125 3.328125 18.109375 8.203125 
z
M 48.6875 27.296875 
Q 48.6875 37.203125 44.609375 42.84375 
Q 40.53125 48.484375 33.40625 48.484375 
Q 26.265625 48.484375 22.1875 42.84375 
Q 18.109375 37.203125 18.109375 27.296875 
Q 18.109375 17.390625 22.1875 11.75 
Q 26.265625 6.109375 33.40625 6.109375 
Q 40.53125 6.109375 44.609375 11.75 
Q 48.6875 17.390625 48.6875 27.296875 
z
" id="DejaVuSans-112"/>
       <path d="M 18.3125 70.21875 
L 18.3125 54.6875 
L 36.8125 54.6875 
L 36.8125 47.703125 
L 18.3125 47.703125 
L 18.3125 18.015625 
Q 18.3125 11.328125 20.140625 9.421875 
Q 21.96875 7.515625 27.59375 7.515625 
L 36.8125 7.515625 
L 36.8125 0 
L 27.59375 0 
Q 17.1875 0 13.234375 3.875 
Q 9.28125 7.765625 9.28125 18.015625 
L 9.28125 47.703125 
L 2.6875 47.703125 
L 2.6875 54.6875 
L 9.28125 54.6875 
L 9.28125 70.21875 
z
" id="DejaVuSans-116"/>
       <path d="M 34.28125 27.484375 
Q 23.390625 27.484375 19.1875 25 
Q 14.984375 22.515625 14.984375 16.5 
Q 14.984375 11.71875 18.140625 8.90625 
Q 21.296875 6.109375 26.703125 6.109375 
Q 34.1875 6.109375 38.703125 11.40625 
Q 43.21875 16.703125 43.21875 25.484375 
L 43.21875 27.484375 
z
M 52.203125 31.203125 
L 52.203125 0 
L 43.21875 0 
L 43.21875 8.296875 
Q 40.140625 3.328125 35.546875 0.953125 
Q 30.953125 -1.421875 24.3125 -1.421875 
Q 15.921875 -1.421875 10.953125 3.296875 
Q 6 8.015625 6 15.921875 
Q 6 25.140625 12.171875 29.828125 
Q 18.359375 34.515625 30.609375 34.515625 
L 43.21875 34.515625 
L 43.21875 35.40625 
Q 43.21875 41.609375 39.140625 45 
Q 35.0625 48.390625 27.6875 48.390625 
Q 23 48.390625 18.546875 47.265625 
Q 14.109375 46.140625 10.015625 43.890625 
L 10.015625 52.203125 
Q 14.9375 54.109375 19.578125 55.046875 
Q 24.21875 56 28.609375 56 
Q 40.484375 56 46.34375 49.84375 
Q 52.203125 43.703125 52.203125 31.203125 
z
" id="DejaVuSans-97"/>
       <path d="M 9.078125 75.984375 
L 18.109375 75.984375 
L 18.109375 31.109375 
L 44.921875 54.6875 
L 56.390625 54.6875 
L 27.390625 29.109375 
L 57.625 0 
L 45.90625 0 
L 18.109375 26.703125 
L 18.109375 0 
L 9.078125 0 
z
" id="DejaVuSans-107"/>
       <path d="M 44.390625 34.1875 
Q 47.5625 33.109375 50.5625 29.59375 
Q 53.5625 26.078125 56.59375 19.921875 
L 66.609375 0 
L 56 0 
L 46.6875 18.703125 
Q 43.0625 26.03125 39.671875 28.421875 
Q 36.28125 30.8125 30.421875 30.8125 
L 19.671875 30.8125 
L 19.671875 0 
L 9.8125 0 
L 9.8125 72.90625 
L 32.078125 72.90625 
Q 44.578125 72.90625 50.734375 67.671875 
Q 56.890625 62.453125 56.890625 51.90625 
Q 56.890625 45.015625 53.6875 40.46875 
Q 50.484375 35.9375 44.390625 34.1875 
z
M 19.671875 64.796875 
L 19.671875 38.921875 
L 32.078125 38.921875 
Q 39.203125 38.921875 42.84375 42.21875 
Q 46.484375 45.515625 46.484375 51.90625 
Q 46.484375 58.296875 42.84375 61.546875 
Q 39.203125 64.796875 32.078125 64.796875 
z
" id="DejaVuSans-82"/>
       <path d="M 50.296875 -24.296875 
L 50.296875 -27.90625 
Q 33.5 -12.09375 23.703125 11.40625 
Q 13.90625 34.90625 13.90625 64.296875 
Q 13.90625 93.796875 23.953125 118.640625 
Q 34 143.5 50.296875 156.59375 
L 50.296875 153.296875 
Q 38.90625 141.59375 31.15625 118.84375 
Q 23.40625 96.09375 23.40625 64.296875 
Q 23.40625 8.796875 50.296875 -24.296875 
z
" id="STIXSizeTwoSym-Regular-40"/>
       <path d="M -1.3125 -20.796875 
L 13.375 54.6875 
L 22.40625 54.6875 
L 15.765625 20.65625 
Q 15.578125 19.625 15.421875 18.359375 
Q 15.28125 17.09375 15.28125 15.828125 
Q 15.28125 11.28125 18.140625 8.828125 
Q 21 6.390625 26.3125 6.390625 
Q 33.546875 6.390625 37.984375 10.484375 
Q 42.4375 14.59375 44 22.796875 
L 50.203125 54.6875 
L 59.1875 54.6875 
L 51.03125 12.640625 
Q 50.828125 11.71875 50.75 11.03125 
Q 50.6875 10.359375 50.6875 9.8125 
Q 50.6875 8.296875 51.296875 7.59375 
Q 51.90625 6.890625 53.21875 6.890625 
Q 53.71875 6.890625 54.5625 7.125 
Q 55.421875 7.375 56.984375 8.015625 
L 55.609375 0.78125 
Q 53.46875 -0.296875 51.515625 -0.859375 
Q 49.5625 -1.421875 47.703125 -1.421875 
Q 44.484375 -1.421875 42.65625 0.625 
Q 40.828125 2.6875 40.828125 6.296875 
Q 38.09375 2.390625 34.296875 0.484375 
Q 30.515625 -1.421875 25.390625 -1.421875 
Q 20.84375 -1.421875 17.453125 0.671875 
Q 14.0625 2.78125 12.984375 6.203125 
L 7.71875 -20.796875 
z
" id="DejaVuSans-Oblique-956"/>
       <path d="M 89.796875 33.015625 
L 83.40625 0 
L 74.421875 0 
L 80.71875 32.71875 
Q 81.109375 34.8125 81.296875 36.328125 
Q 81.5 37.84375 81.5 38.921875 
Q 81.5 43.3125 79.046875 45.75 
Q 76.609375 48.1875 72.21875 48.1875 
Q 65.671875 48.1875 60.546875 43.28125 
Q 55.421875 38.375 53.90625 30.515625 
L 47.90625 0 
L 38.921875 0 
L 45.3125 32.71875 
Q 45.703125 34.515625 45.890625 36.046875 
Q 46.09375 37.59375 46.09375 38.8125 
Q 46.09375 43.265625 43.65625 45.71875 
Q 41.21875 48.1875 36.921875 48.1875 
Q 30.28125 48.1875 25.140625 43.28125 
Q 20.015625 38.375 18.5 30.515625 
L 12.5 0 
L 3.515625 0 
L 14.203125 54.6875 
L 23.1875 54.6875 
L 21.484375 46.1875 
Q 25.140625 50.984375 30.046875 53.484375 
Q 34.96875 56 40.578125 56 
Q 46.53125 56 50.359375 52.875 
Q 54.203125 49.75 54.984375 44.1875 
Q 59.078125 49.953125 64.46875 52.96875 
Q 69.875 56 75.875 56 
Q 82.90625 56 86.734375 51.953125 
Q 90.578125 47.90625 90.578125 40.484375 
Q 90.578125 38.875 90.375 36.9375 
Q 90.1875 35.015625 89.796875 33.015625 
z
" id="DejaVuSans-Oblique-109"/>
       <path d="M 25.390625 -1.421875 
Q 15.765625 -1.421875 10.171875 4.515625 
Q 4.59375 10.453125 4.59375 20.703125 
Q 4.59375 26.65625 6.515625 32.828125 
Q 8.453125 39.015625 11.53125 43.21875 
Q 16.359375 49.75 22.3125 52.875 
Q 28.265625 56 35.796875 56 
Q 45.125 56 50.859375 50.1875 
Q 56.59375 44.390625 56.59375 35.015625 
Q 56.59375 28.515625 54.6875 22.0625 
Q 52.78125 15.625 49.703125 11.375 
Q 44.921875 4.828125 38.96875 1.703125 
Q 33.015625 -1.421875 25.390625 -1.421875 
z
M 13.921875 21 
Q 13.921875 13.578125 17.015625 9.890625 
Q 20.125 6.203125 26.421875 6.203125 
Q 35.453125 6.203125 41.375 14.078125 
Q 47.3125 21.96875 47.3125 34.078125 
Q 47.3125 41.15625 44.140625 44.765625 
Q 40.96875 48.390625 34.8125 48.390625 
Q 29.734375 48.390625 25.78125 46.015625 
Q 21.828125 43.65625 18.703125 38.8125 
Q 16.40625 35.203125 15.15625 30.5625 
Q 13.921875 25.921875 13.921875 21 
z
" id="DejaVuSans-Oblique-111"/>
       <path d="M 18.3125 75.984375 
L 27.296875 75.984375 
L 12.5 0 
L 3.515625 0 
z
" id="DejaVuSans-Oblique-108"/>
       <path d="M 59.625 54.6875 
L 50.296875 6.78125 
Q 47.609375 -7.125 40.015625 -13.953125 
Q 32.421875 -20.796875 19.578125 -20.796875 
Q 14.84375 -20.796875 10.78125 -20.09375 
Q 6.734375 -19.390625 3.21875 -17.921875 
L 4.890625 -9.1875 
Q 8.203125 -11.328125 11.90625 -12.34375 
Q 15.625 -13.375 19.828125 -13.375 
Q 28.375 -13.375 33.859375 -8.703125 
Q 39.359375 -4.046875 41.109375 4.6875 
L 41.890625 8.796875 
Q 38.140625 4.5 33.15625 2.25 
Q 28.171875 0 22.40625 0 
Q 14.109375 0 9.34375 5.484375 
Q 4.59375 10.984375 4.59375 20.609375 
Q 4.59375 28.171875 7.46875 35.421875 
Q 10.359375 42.671875 15.578125 48.296875 
Q 19.046875 52 23.65625 54 
Q 28.265625 56 33.296875 56 
Q 38.8125 56 42.90625 53.4375 
Q 47.015625 50.875 49.03125 46.1875 
L 50.59375 54.6875 
z
M 46.09375 34.625 
Q 46.09375 41.265625 42.96875 44.875 
Q 39.84375 48.484375 34.078125 48.484375 
Q 30.515625 48.484375 27.296875 47.0625 
Q 24.078125 45.65625 21.78125 43.109375 
Q 18.0625 38.921875 15.984375 33.234375 
Q 13.921875 27.546875 13.921875 21.484375 
Q 13.921875 14.75 17.0625 11.125 
Q 20.21875 7.515625 26.125 7.515625 
Q 34.671875 7.515625 40.375 15.25 
Q 46.09375 23 46.09375 34.625 
z
" id="DejaVuSans-Oblique-103"/>
       <path d="M 49.609375 33.6875 
Q 49.609375 40.875 46.484375 44.671875 
Q 43.359375 48.484375 37.5 48.484375 
Q 33.5 48.484375 29.859375 46.4375 
Q 26.21875 44.390625 23.390625 40.484375 
Q 20.609375 36.625 18.9375 31.15625 
Q 17.28125 25.6875 17.28125 20.3125 
Q 17.28125 13.484375 20.40625 9.796875 
Q 23.53125 6.109375 29.296875 6.109375 
Q 33.546875 6.109375 37.1875 8.109375 
Q 40.828125 10.109375 43.40625 13.921875 
Q 46.1875 17.921875 47.890625 23.34375 
Q 49.609375 28.765625 49.609375 33.6875 
z
M 21.78125 46.390625 
Q 25.390625 51.125 30.296875 53.5625 
Q 35.203125 56 41.21875 56 
Q 49.609375 56 54.25 50.5 
Q 58.890625 45.015625 58.890625 35.109375 
Q 58.890625 27 56 19.65625 
Q 53.125 12.3125 47.703125 6.5 
Q 44.09375 2.640625 39.546875 0.609375 
Q 35.015625 -1.421875 29.984375 -1.421875 
Q 24.171875 -1.421875 20.21875 1 
Q 16.265625 3.421875 14.3125 8.203125 
L 8.6875 -20.796875 
L -0.296875 -20.796875 
L 14.40625 54.6875 
L 23.390625 54.6875 
z
" id="DejaVuSans-Oblique-112"/>
       <path d="M 44.578125 46.390625 
Q 43.21875 47.125 41.453125 47.515625 
Q 39.703125 47.90625 37.703125 47.90625 
Q 30.515625 47.90625 25.140625 42.453125 
Q 19.78125 37.015625 18.015625 27.875 
L 12.5 0 
L 3.515625 0 
L 14.203125 54.6875 
L 23.1875 54.6875 
L 21.484375 46.1875 
Q 25.046875 50.921875 30 53.453125 
Q 34.96875 56 40.578125 56 
Q 42.046875 56 43.453125 55.828125 
Q 44.875 55.671875 46.296875 55.28125 
z
" id="DejaVuSans-Oblique-114"/>
       <path d="M 42.28125 54.6875 
L 40.921875 47.703125 
L 23 47.703125 
L 17.1875 18.015625 
Q 16.890625 16.359375 16.75 15.234375 
Q 16.609375 14.109375 16.609375 13.484375 
Q 16.609375 10.359375 18.484375 8.9375 
Q 20.359375 7.515625 24.515625 7.515625 
L 33.59375 7.515625 
L 32.078125 0 
L 23.484375 0 
Q 15.484375 0 11.546875 3.125 
Q 7.625 6.25 7.625 12.59375 
Q 7.625 13.71875 7.765625 15.0625 
Q 7.90625 16.40625 8.203125 18.015625 
L 14.015625 47.703125 
L 6.390625 47.703125 
L 7.8125 54.6875 
L 15.28125 54.6875 
L 18.3125 70.21875 
L 27.296875 70.21875 
L 24.3125 54.6875 
z
" id="DejaVuSans-Oblique-116"/>
       <path d="M 48.09375 32.234375 
Q 48.25 33.015625 48.3125 33.84375 
Q 48.390625 34.671875 48.390625 35.5 
Q 48.390625 41.453125 44.890625 44.921875 
Q 41.40625 48.390625 35.40625 48.390625 
Q 28.71875 48.390625 23.578125 44.15625 
Q 18.453125 39.9375 15.828125 32.171875 
z
M 55.90625 25.203125 
L 14.109375 25.203125 
Q 13.8125 23.34375 13.71875 22.265625 
Q 13.625 21.1875 13.625 20.40625 
Q 13.625 13.625 17.796875 9.90625 
Q 21.96875 6.203125 29.59375 6.203125 
Q 35.453125 6.203125 40.671875 7.515625 
Q 45.90625 8.84375 50.390625 11.375 
L 48.6875 2.484375 
Q 43.84375 0.53125 38.6875 -0.4375 
Q 33.546875 -1.421875 28.21875 -1.421875 
Q 16.84375 -1.421875 10.71875 4.015625 
Q 4.59375 9.46875 4.59375 19.484375 
Q 4.59375 28.03125 7.640625 35.375 
Q 10.6875 42.71875 16.609375 48.484375 
Q 20.40625 52.09375 25.65625 54.046875 
Q 30.90625 56 36.8125 56 
Q 46.09375 56 51.578125 50.4375 
Q 57.078125 44.875 57.078125 35.5 
Q 57.078125 33.25 56.78125 30.6875 
Q 56.5 28.125 55.90625 25.203125 
z
" id="DejaVuSans-Oblique-101"/>
       <path d="M 18.3125 75.984375 
L 27.296875 75.984375 
L 25.09375 64.59375 
L 16.109375 64.59375 
z
M 14.203125 54.6875 
L 23.1875 54.6875 
L 12.5 0 
L 3.515625 0 
z
" id="DejaVuSans-Oblique-105"/>
       <path d="M 55.71875 33.015625 
L 49.3125 0 
L 40.28125 0 
L 46.6875 32.671875 
Q 47.125 34.96875 47.359375 36.71875 
Q 47.609375 38.484375 47.609375 39.5 
Q 47.609375 43.609375 45.015625 45.890625 
Q 42.4375 48.1875 37.796875 48.1875 
Q 30.5625 48.1875 25.34375 43.375 
Q 20.125 38.578125 18.5 30.328125 
L 12.5 0 
L 3.515625 0 
L 14.109375 54.6875 
L 23.09375 54.6875 
L 21.296875 46.09375 
Q 25.046875 50.828125 30.3125 53.40625 
Q 35.59375 56 41.40625 56 
Q 48.640625 56 52.609375 52.09375 
Q 56.59375 48.1875 56.59375 41.109375 
Q 56.59375 39.359375 56.375 37.359375 
Q 56.15625 35.359375 55.71875 33.015625 
z
" id="DejaVuSans-Oblique-110"/>
       <path d="M 10.6875 40.921875 
L 21 40.921875 
L 21 28.515625 
L 10.6875 28.515625 
z
" id="DejaVuSans-8901"/>
       <path d="M 11.40625 153 
L 11.40625 156.59375 
Q 28.203125 140.796875 38 117.296875 
Q 47.796875 93.796875 47.796875 64.296875 
Q 47.796875 34.90625 37.75 10.046875 
Q 27.703125 -14.796875 11.40625 -27.90625 
L 11.40625 -24.59375 
Q 22.796875 -12.90625 30.546875 9.890625 
Q 38.296875 32.703125 38.296875 64.296875 
Q 38.296875 119.90625 11.40625 153 
z
" id="STIXSizeTwoSym-Regular-41"/>
      </defs>
      <use transform="translate(0 0.45625)" xlink:href="#DejaVuSans-71"/>
      <use transform="translate(77.490234 0.45625)" xlink:href="#DejaVuSans-108"/>
      <use transform="translate(105.273438 0.45625)" xlink:href="#DejaVuSans-117"/>
      <use transform="translate(168.652344 0.45625)" xlink:href="#DejaVuSans-99"/>
      <use transform="translate(223.632812 0.45625)" xlink:href="#DejaVuSans-111"/>
      <use transform="translate(284.814453 0.45625)" xlink:href="#DejaVuSans-115"/>
      <use transform="translate(336.914062 0.45625)" xlink:href="#DejaVuSans-101"/>
      <use transform="translate(398.4375 0.45625)" xlink:href="#DejaVuSans-32"/>
      <use transform="translate(430.224609 0.45625)" xlink:href="#DejaVuSans-85"/>
      <use transform="translate(503.417969 0.45625)" xlink:href="#DejaVuSans-112"/>
      <use transform="translate(566.894531 0.45625)" xlink:href="#DejaVuSans-116"/>
      <use transform="translate(606.103516 0.45625)" xlink:href="#DejaVuSans-97"/>
      <use transform="translate(667.382812 0.45625)" xlink:href="#DejaVuSans-107"/>
      <use transform="translate(725.292969 0.45625)" xlink:href="#DejaVuSans-101"/>
      <use transform="translate(786.816406 0.45625)" xlink:href="#DejaVuSans-32"/>
      <use transform="translate(818.603516 0.45625)" xlink:href="#DejaVuSans-82"/>
      <use transform="translate(888.085938 0.45625)" xlink:href="#DejaVuSans-97"/>
      <use transform="translate(949.365234 0.45625)" xlink:href="#DejaVuSans-116"/>
      <use transform="translate(988.574219 0.45625)" xlink:href="#DejaVuSans-101"/>
      <use transform="translate(1050.097656 -35.579531)scale(0.942335)" xlink:href="#STIXSizeTwoSym-Regular-40"/>
      <use transform="translate(1256.592499 58.810938)scale(0.7)" xlink:href="#DejaVuSans-Oblique-956"/>
      <use transform="translate(1301.128632 58.810938)scale(0.7)" xlink:href="#DejaVuSans-Oblique-109"/>
      <use transform="translate(1369.317108 58.810938)scale(0.7)" xlink:href="#DejaVuSans-Oblique-111"/>
      <use transform="translate(1412.144257 58.810938)scale(0.7)" xlink:href="#DejaVuSans-Oblique-108"/>
      <use transform="translate(1105.592499 -40.185937)scale(0.7)" xlink:href="#DejaVuSans-Oblique-109"/>
      <use transform="translate(1173.780975 -40.185937)scale(0.7)" xlink:href="#DejaVuSans-Oblique-103"/>
      <use transform="translate(1218.214569 -51.670312)scale(0.49)" xlink:href="#DejaVuSans-Oblique-112"/>
      <use transform="translate(1249.318085 -51.670312)scale(0.49)" xlink:href="#DejaVuSans-Oblique-114"/>
      <use transform="translate(1269.463593 -51.670312)scale(0.49)" xlink:href="#DejaVuSans-Oblique-111"/>
      <use transform="translate(1299.442596 -51.670312)scale(0.49)" xlink:href="#DejaVuSans-Oblique-116"/>
      <use transform="translate(1318.654999 -51.670312)scale(0.49)" xlink:href="#DejaVuSans-Oblique-101"/>
      <use transform="translate(1348.801483 -51.670312)scale(0.49)" xlink:href="#DejaVuSans-Oblique-105"/>
      <use transform="translate(1362.415253 -51.670312)scale(0.49)" xlink:href="#DejaVuSans-Oblique-110"/>
      <use transform="translate(1409.022675 -40.185937)scale(0.7)" xlink:href="#DejaVuSans-8901"/>
      <use transform="translate(1444.911346 -40.185937)scale(0.7)" xlink:href="#DejaVuSans-Oblique-109"/>
      <use transform="translate(1513.099823 -40.185937)scale(0.7)" xlink:href="#DejaVuSans-Oblique-105"/>
      <use transform="translate(1532.548065 -40.185937)scale(0.7)" xlink:href="#DejaVuSans-Oblique-110"/>
      <use transform="translate(1594.582289 -35.579531)scale(0.942335)" xlink:href="#STIXSizeTwoSym-Regular-41"/>
      <path d="M 1105.592499 19.253125 
L 1105.592499 25.503125 
L 1582.082289 25.503125 
L 1582.082289 19.253125 
L 1105.592499 19.253125 
z
"/>
     </g>
    </g>
   </g>
   <g id="matplotlib.axis_2">
    <g id="ytick_1">
     <g id="text_8">
      <!-- 0.0 -->
      <g transform="translate(62.46375 468.553892)scale(0.2 -0.2)">
       <use xlink:href="#DejaVuSans-48"/>
       <use x="63.623047" xlink:href="#DejaVuSans-46"/>
       <use x="95.410156" xlink:href="#DejaVuSans-48"/>
      </g>
     </g>
    </g>
    <g id="ytick_2">
     <g id="text_9">
      <!-- 0.2 -->
      <g transform="translate(62.46375 403.804711)scale(0.2 -0.2)">
       <use xlink:href="#DejaVuSans-48"/>
       <use x="63.623047" xlink:href="#DejaVuSans-46"/>
       <use x="95.410156" xlink:href="#DejaVuSans-50"/>
      </g>
     </g>
    </g>
    <g id="ytick_3">
     <g id="text_10">
      <!-- 0.4 -->
      <g transform="translate(62.46375 339.055529)scale(0.2 -0.2)">
       <use xlink:href="#DejaVuSans-48"/>
       <use x="63.623047" xlink:href="#DejaVuSans-46"/>
       <use x="95.410156" xlink:href="#DejaVuSans-52"/>
      </g>
     </g>
    </g>
    <g id="ytick_4">
     <g id="text_11">
      <!-- 0.6 -->
      <g transform="translate(62.46375 274.306347)scale(0.2 -0.2)">
       <defs>
        <path d="M 33.015625 40.375 
Q 26.375 40.375 22.484375 35.828125 
Q 18.609375 31.296875 18.609375 23.390625 
Q 18.609375 15.53125 22.484375 10.953125 
Q 26.375 6.390625 33.015625 6.390625 
Q 39.65625 6.390625 43.53125 10.953125 
Q 47.40625 15.53125 47.40625 23.390625 
Q 47.40625 31.296875 43.53125 35.828125 
Q 39.65625 40.375 33.015625 40.375 
z
M 52.59375 71.296875 
L 52.59375 62.3125 
Q 48.875 64.0625 45.09375 64.984375 
Q 41.3125 65.921875 37.59375 65.921875 
Q 27.828125 65.921875 22.671875 59.328125 
Q 17.53125 52.734375 16.796875 39.40625 
Q 19.671875 43.65625 24.015625 45.921875 
Q 28.375 48.1875 33.59375 48.1875 
Q 44.578125 48.1875 50.953125 41.515625 
Q 57.328125 34.859375 57.328125 23.390625 
Q 57.328125 12.15625 50.6875 5.359375 
Q 44.046875 -1.421875 33.015625 -1.421875 
Q 20.359375 -1.421875 13.671875 8.265625 
Q 6.984375 17.96875 6.984375 36.375 
Q 6.984375 53.65625 15.1875 63.9375 
Q 23.390625 74.21875 37.203125 74.21875 
Q 40.921875 74.21875 44.703125 73.484375 
Q 48.484375 72.75 52.59375 71.296875 
z
" id="DejaVuSans-54"/>
       </defs>
       <use xlink:href="#DejaVuSans-48"/>
       <use x="63.623047" xlink:href="#DejaVuSans-46"/>
       <use x="95.410156" xlink:href="#DejaVuSans-54"/>
      </g>
     </g>
    </g>
    <g id="ytick_5">
     <g id="text_12">
      <!-- 0.8 -->
      <g transform="translate(62.46375 209.557166)scale(0.2 -0.2)">
       <defs>
        <path d="M 31.78125 34.625 
Q 24.75 34.625 20.71875 30.859375 
Q 16.703125 27.09375 16.703125 20.515625 
Q 16.703125 13.921875 20.71875 10.15625 
Q 24.75 6.390625 31.78125 6.390625 
Q 38.8125 6.390625 42.859375 10.171875 
Q 46.921875 13.96875 46.921875 20.515625 
Q 46.921875 27.09375 42.890625 30.859375 
Q 38.875 34.625 31.78125 34.625 
z
M 21.921875 38.8125 
Q 15.578125 40.375 12.03125 44.71875 
Q 8.5 49.078125 8.5 55.328125 
Q 8.5 64.0625 14.71875 69.140625 
Q 20.953125 74.21875 31.78125 74.21875 
Q 42.671875 74.21875 48.875 69.140625 
Q 55.078125 64.0625 55.078125 55.328125 
Q 55.078125 49.078125 51.53125 44.71875 
Q 48 40.375 41.703125 38.8125 
Q 48.828125 37.15625 52.796875 32.3125 
Q 56.78125 27.484375 56.78125 20.515625 
Q 56.78125 9.90625 50.3125 4.234375 
Q 43.84375 -1.421875 31.78125 -1.421875 
Q 19.734375 -1.421875 13.25 4.234375 
Q 6.78125 9.90625 6.78125 20.515625 
Q 6.78125 27.484375 10.78125 32.3125 
Q 14.796875 37.15625 21.921875 38.8125 
z
M 18.3125 54.390625 
Q 18.3125 48.734375 21.84375 45.5625 
Q 25.390625 42.390625 31.78125 42.390625 
Q 38.140625 42.390625 41.71875 45.5625 
Q 45.3125 48.734375 45.3125 54.390625 
Q 45.3125 60.0625 41.71875 63.234375 
Q 38.140625 66.40625 31.78125 66.40625 
Q 25.390625 66.40625 21.84375 63.234375 
Q 18.3125 60.0625 18.3125 54.390625 
z
" id="DejaVuSans-56"/>
       </defs>
       <use xlink:href="#DejaVuSans-48"/>
       <use x="63.623047" xlink:href="#DejaVuSans-46"/>
       <use x="95.410156" xlink:href="#DejaVuSans-56"/>
      </g>
     </g>
    </g>
    <g id="ytick_6">
     <g id="text_13">
      <!-- 1.0 -->
      <g transform="translate(62.46375 144.807984)scale(0.2 -0.2)">
       <use xlink:href="#DejaVuSans-49"/>
       <use x="63.623047" xlink:href="#DejaVuSans-46"/>
       <use x="95.410156" xlink:href="#DejaVuSans-48"/>
      </g>
     </g>
    </g>
    <g id="ytick_7">
     <g id="text_14">
      <!-- 1.2 -->
      <g transform="translate(62.46375 80.058803)scale(0.2 -0.2)">
       <use xlink:href="#DejaVuSans-49"/>
       <use x="63.623047" xlink:href="#DejaVuSans-46"/>
       <use x="95.410156" xlink:href="#DejaVuSans-50"/>
      </g>
     </g>
    </g>
    <g id="text_15">
     <!-- Consumption / Production Rate$ \left(\frac{\mu mol}{mg_{protein} \cdot min^{}}\right)$ -->
     <g transform="translate(45.86375 466.81)rotate(-90)scale(0.2 -0.2)">
      <defs>
       <path d="M 64.40625 67.28125 
L 64.40625 56.890625 
Q 59.421875 61.53125 53.78125 63.8125 
Q 48.140625 66.109375 41.796875 66.109375 
Q 29.296875 66.109375 22.65625 58.46875 
Q 16.015625 50.828125 16.015625 36.375 
Q 16.015625 21.96875 22.65625 14.328125 
Q 29.296875 6.6875 41.796875 6.6875 
Q 48.140625 6.6875 53.78125 8.984375 
Q 59.421875 11.28125 64.40625 15.921875 
L 64.40625 5.609375 
Q 59.234375 2.09375 53.4375 0.328125 
Q 47.65625 -1.421875 41.21875 -1.421875 
Q 24.65625 -1.421875 15.125 8.703125 
Q 5.609375 18.84375 5.609375 36.375 
Q 5.609375 53.953125 15.125 64.078125 
Q 24.65625 74.21875 41.21875 74.21875 
Q 47.75 74.21875 53.53125 72.484375 
Q 59.328125 70.75 64.40625 67.28125 
z
" id="DejaVuSans-67"/>
       <path d="M 54.890625 33.015625 
L 54.890625 0 
L 45.90625 0 
L 45.90625 32.71875 
Q 45.90625 40.484375 42.875 44.328125 
Q 39.84375 48.1875 33.796875 48.1875 
Q 26.515625 48.1875 22.3125 43.546875 
Q 18.109375 38.921875 18.109375 30.90625 
L 18.109375 0 
L 9.078125 0 
L 9.078125 54.6875 
L 18.109375 54.6875 
L 18.109375 46.1875 
Q 21.34375 51.125 25.703125 53.5625 
Q 30.078125 56 35.796875 56 
Q 45.21875 56 50.046875 50.171875 
Q 54.890625 44.34375 54.890625 33.015625 
z
" id="DejaVuSans-110"/>
       <path d="M 52 44.1875 
Q 55.375 50.25 60.0625 53.125 
Q 64.75 56 71.09375 56 
Q 79.640625 56 84.28125 50.015625 
Q 88.921875 44.046875 88.921875 33.015625 
L 88.921875 0 
L 79.890625 0 
L 79.890625 32.71875 
Q 79.890625 40.578125 77.09375 44.375 
Q 74.3125 48.1875 68.609375 48.1875 
Q 61.625 48.1875 57.5625 43.546875 
Q 53.515625 38.921875 53.515625 30.90625 
L 53.515625 0 
L 44.484375 0 
L 44.484375 32.71875 
Q 44.484375 40.625 41.703125 44.40625 
Q 38.921875 48.1875 33.109375 48.1875 
Q 26.21875 48.1875 22.15625 43.53125 
Q 18.109375 38.875 18.109375 30.90625 
L 18.109375 0 
L 9.078125 0 
L 9.078125 54.6875 
L 18.109375 54.6875 
L 18.109375 46.1875 
Q 21.1875 51.21875 25.484375 53.609375 
Q 29.78125 56 35.6875 56 
Q 41.65625 56 45.828125 52.96875 
Q 50 49.953125 52 44.1875 
z
" id="DejaVuSans-109"/>
       <path d="M 9.421875 54.6875 
L 18.40625 54.6875 
L 18.40625 0 
L 9.421875 0 
z
M 9.421875 75.984375 
L 18.40625 75.984375 
L 18.40625 64.59375 
L 9.421875 64.59375 
z
" id="DejaVuSans-105"/>
       <path d="M 25.390625 72.90625 
L 33.6875 72.90625 
L 8.296875 -9.28125 
L 0 -9.28125 
z
" id="DejaVuSans-47"/>
       <path d="M 19.671875 64.796875 
L 19.671875 37.40625 
L 32.078125 37.40625 
Q 38.96875 37.40625 42.71875 40.96875 
Q 46.484375 44.53125 46.484375 51.125 
Q 46.484375 57.671875 42.71875 61.234375 
Q 38.96875 64.796875 32.078125 64.796875 
z
M 9.8125 72.90625 
L 32.078125 72.90625 
Q 44.34375 72.90625 50.609375 67.359375 
Q 56.890625 61.8125 56.890625 51.125 
Q 56.890625 40.328125 50.609375 34.8125 
Q 44.34375 29.296875 32.078125 29.296875 
L 19.671875 29.296875 
L 19.671875 0 
L 9.8125 0 
z
" id="DejaVuSans-80"/>
       <path d="M 41.109375 46.296875 
Q 39.59375 47.171875 37.8125 47.578125 
Q 36.03125 48 33.890625 48 
Q 26.265625 48 22.1875 43.046875 
Q 18.109375 38.09375 18.109375 28.8125 
L 18.109375 0 
L 9.078125 0 
L 9.078125 54.6875 
L 18.109375 54.6875 
L 18.109375 46.1875 
Q 20.953125 51.171875 25.484375 53.578125 
Q 30.03125 56 36.53125 56 
Q 37.453125 56 38.578125 55.875 
Q 39.703125 55.765625 41.0625 55.515625 
z
" id="DejaVuSans-114"/>
       <path d="M 45.40625 46.390625 
L 45.40625 75.984375 
L 54.390625 75.984375 
L 54.390625 0 
L 45.40625 0 
L 45.40625 8.203125 
Q 42.578125 3.328125 38.25 0.953125 
Q 33.9375 -1.421875 27.875 -1.421875 
Q 17.96875 -1.421875 11.734375 6.484375 
Q 5.515625 14.40625 5.515625 27.296875 
Q 5.515625 40.1875 11.734375 48.09375 
Q 17.96875 56 27.875 56 
Q 33.9375 56 38.25 53.625 
Q 42.578125 51.265625 45.40625 46.390625 
z
M 14.796875 27.296875 
Q 14.796875 17.390625 18.875 11.75 
Q 22.953125 6.109375 30.078125 6.109375 
Q 37.203125 6.109375 41.296875 11.75 
Q 45.40625 17.390625 45.40625 27.296875 
Q 45.40625 37.203125 41.296875 42.84375 
Q 37.203125 48.484375 30.078125 48.484375 
Q 22.953125 48.484375 18.875 42.84375 
Q 14.796875 37.203125 14.796875 27.296875 
z
" id="DejaVuSans-100"/>
      </defs>
      <use transform="translate(0 0.45625)" xlink:href="#DejaVuSans-67"/>
      <use transform="translate(69.824219 0.45625)" xlink:href="#DejaVuSans-111"/>
      <use transform="translate(131.005859 0.45625)" xlink:href="#DejaVuSans-110"/>
      <use transform="translate(194.384766 0.45625)" xlink:href="#DejaVuSans-115"/>
      <use transform="translate(246.484375 0.45625)" xlink:href="#DejaVuSans-117"/>
      <use transform="translate(309.863281 0.45625)" xlink:href="#DejaVuSans-109"/>
      <use transform="translate(407.275391 0.45625)" xlink:href="#DejaVuSans-112"/>
      <use transform="translate(470.751953 0.45625)" xlink:href="#DejaVuSans-116"/>
      <use transform="translate(509.960938 0.45625)" xlink:href="#DejaVuSans-105"/>
      <use transform="translate(537.744141 0.45625)" xlink:href="#DejaVuSans-111"/>
      <use transform="translate(598.925781 0.45625)" xlink:href="#DejaVuSans-110"/>
      <use transform="translate(662.304688 0.45625)" xlink:href="#DejaVuSans-32"/>
      <use transform="translate(694.091797 0.45625)" xlink:href="#DejaVuSans-47"/>
      <use transform="translate(727.783203 0.45625)" xlink:href="#DejaVuSans-32"/>
      <use transform="translate(759.570312 0.45625)" xlink:href="#DejaVuSans-80"/>
      <use transform="translate(819.873047 0.45625)" xlink:href="#DejaVuSans-114"/>
      <use transform="translate(860.986328 0.45625)" xlink:href="#DejaVuSans-111"/>
      <use transform="translate(922.167969 0.45625)" xlink:href="#DejaVuSans-100"/>
      <use transform="translate(985.644531 0.45625)" xlink:href="#DejaVuSans-117"/>
      <use transform="translate(1049.023438 0.45625)" xlink:href="#DejaVuSans-99"/>
      <use transform="translate(1104.003906 0.45625)" xlink:href="#DejaVuSans-116"/>
      <use transform="translate(1143.212891 0.45625)" xlink:href="#DejaVuSans-105"/>
      <use transform="translate(1170.996094 0.45625)" xlink:href="#DejaVuSans-111"/>
      <use transform="translate(1232.177734 0.45625)" xlink:href="#DejaVuSans-110"/>
      <use transform="translate(1295.556641 0.45625)" xlink:href="#DejaVuSans-32"/>
      <use transform="translate(1327.34375 0.45625)" xlink:href="#DejaVuSans-82"/>
      <use transform="translate(1396.826172 0.45625)" xlink:href="#DejaVuSans-97"/>
      <use transform="translate(1458.105469 0.45625)" xlink:href="#DejaVuSans-116"/>
      <use transform="translate(1497.314453 0.45625)" xlink:href="#DejaVuSans-101"/>
      <use transform="translate(1558.837891 -35.579531)scale(0.942335)" xlink:href="#STIXSizeTwoSym-Regular-40"/>
      <use transform="translate(1765.332733 58.810938)scale(0.7)" xlink:href="#DejaVuSans-Oblique-956"/>
      <use transform="translate(1809.868866 58.810938)scale(0.7)" xlink:href="#DejaVuSans-Oblique-109"/>
      <use transform="translate(1878.057343 58.810938)scale(0.7)" xlink:href="#DejaVuSans-Oblique-111"/>
      <use transform="translate(1920.884491 58.810938)scale(0.7)" xlink:href="#DejaVuSans-Oblique-108"/>
      <use transform="translate(1614.332733 -40.185937)scale(0.7)" xlink:href="#DejaVuSans-Oblique-109"/>
      <use transform="translate(1682.52121 -40.185937)scale(0.7)" xlink:href="#DejaVuSans-Oblique-103"/>
      <use transform="translate(1726.954803 -51.670312)scale(0.49)" xlink:href="#DejaVuSans-Oblique-112"/>
      <use transform="translate(1758.058319 -51.670312)scale(0.49)" xlink:href="#DejaVuSans-Oblique-114"/>
      <use transform="translate(1778.203827 -51.670312)scale(0.49)" xlink:href="#DejaVuSans-Oblique-111"/>
      <use transform="translate(1808.182831 -51.670312)scale(0.49)" xlink:href="#DejaVuSans-Oblique-116"/>
      <use transform="translate(1827.395233 -51.670312)scale(0.49)" xlink:href="#DejaVuSans-Oblique-101"/>
      <use transform="translate(1857.541718 -51.670312)scale(0.49)" xlink:href="#DejaVuSans-Oblique-105"/>
      <use transform="translate(1871.155487 -51.670312)scale(0.49)" xlink:href="#DejaVuSans-Oblique-110"/>
      <use transform="translate(1917.762909 -40.185937)scale(0.7)" xlink:href="#DejaVuSans-8901"/>
      <use transform="translate(1953.651581 -40.185937)scale(0.7)" xlink:href="#DejaVuSans-Oblique-109"/>
      <use transform="translate(2021.840057 -40.185937)scale(0.7)" xlink:href="#DejaVuSans-Oblique-105"/>
      <use transform="translate(2041.2883 -40.185937)scale(0.7)" xlink:href="#DejaVuSans-Oblique-110"/>
      <use transform="translate(2103.322524 -35.579531)scale(0.942335)" xlink:href="#STIXSizeTwoSym-Regular-41"/>
      <path d="M 1614.332733 19.253125 
L 1614.332733 25.503125 
L 2090.822524 25.503125 
L 2090.822524 19.253125 
L 1614.332733 19.253125 
z
"/>
     </g>
    </g>
   </g>
   <g id="line2d_1">
    <path clip-path="url(#p04d90796f0)" d="M 122.135497 460.955455 
L 157.632673 460.955455 
L 160.363225 459.222007 
L 386.999039 273.15662 
L 577 117.22687 
L 577 117.22687 
" style="fill:none;stroke:#dc143c;stroke-linecap:square;stroke-width:2;"/>
   </g>
   <g id="line2d_2">
    <path clip-path="url(#p04d90796f0)" d="M 122.135497 457.717995 
L 157.632673 375.44749 
L 160.363225 374.319331 
L 225.896472 383.880977 
L 234.088128 385.076094 
L 255.932544 388.261781 
L 285.968616 392.61014 
L 310.543584 396.15462 
L 362.424071 403.70021 
L 392.460143 408.022973 
L 509.873879 425.098828 
L 534.448846 428.636425 
L 553.56271 431.446001 
L 577 434.779414 
L 577 434.779414 
" style="fill:none;stroke:#00008b;stroke-linecap:square;stroke-width:2;"/>
   </g>
   <g id="patch_3">
    <path d="M 106.77 481.98 
L 106.77 19.44 
" style="fill:none;stroke:#000000;stroke-linecap:square;stroke-linejoin:miter;stroke-width:1.875;"/>
   </g>
   <g id="patch_4">
    <path d="M 556.56 481.98 
L 556.56 19.44 
" style="fill:none;stroke:#000000;stroke-linecap:square;stroke-linejoin:miter;stroke-width:1.875;"/>
   </g>
   <g id="patch_5">
    <path d="M 106.77 481.98 
L 556.56 481.98 
" style="fill:none;stroke:#000000;stroke-linecap:square;stroke-linejoin:miter;stroke-width:1.875;"/>
   </g>
   <g id="patch_6">
    <path d="M 106.77 19.44 
L 556.56 19.44 
" style="fill:none;stroke:#000000;stroke-linecap:square;stroke-linejoin:miter;stroke-width:1.875;"/>
   </g>
   <g id="PathCollection_1">
    <defs>
     <path d="M 0 7.071068 
C 1.875269 7.071068 3.673985 6.326016 5 5 
C 6.326016 3.673985 7.071068 1.875269 7.071068 0 
C 7.071068 -1.875269 6.326016 -3.673985 5 -5 
C 3.673985 -6.326016 1.875269 -7.071068 0 -7.071068 
C -1.875269 -7.071068 -3.673985 -6.326016 -5 -5 
C -6.326016 -3.673985 -7.071068 -1.875269 -7.071068 0 
C -7.071068 1.875269 -6.326016 3.673985 -5 5 
C -3.673985 6.326016 -1.875269 7.071068 0 7.071068 
z
" id="m962f1cde09"/>
    </defs>
    <g clip-path="url(#p04d90796f0)">
     <use style="fill:#dc143c;fill-opacity:0.9;" x="227.947896" xlink:href="#m962f1cde09" y="388.603149"/>
     <use style="fill:#dc143c;fill-opacity:0.9;" x="206.529325" xlink:href="#m962f1cde09" y="403.318872"/>
     <use style="fill:#dc143c;fill-opacity:0.9;" x="227.947896" xlink:href="#m962f1cde09" y="388.603149"/>
     <use style="fill:#dc143c;fill-opacity:0.9;" x="206.529325" xlink:href="#m962f1cde09" y="403.318872"/>
     <use style="fill:#dc143c;fill-opacity:0.9;" x="285.568509" xlink:href="#m962f1cde09" y="348.134911"/>
     <use style="fill:#dc143c;fill-opacity:0.9;" x="285.568509" xlink:href="#m962f1cde09" y="348.134911"/>
     <use style="fill:#dc143c;fill-opacity:0.9;" x="285.568509" xlink:href="#m962f1cde09" y="348.134911"/>
     <use style="fill:#dc143c;fill-opacity:0.9;" x="285.568509" xlink:href="#m962f1cde09" y="348.134911"/>
     <use style="fill:#dc143c;fill-opacity:0.9;" x="419.434581" xlink:href="#m962f1cde09" y="254.935331"/>
     <use style="fill:#dc143c;fill-opacity:0.9;" x="393.010582" xlink:href="#m962f1cde09" y="273.329985"/>
     <use style="fill:#dc143c;fill-opacity:0.9;" x="393.010582" xlink:href="#m962f1cde09" y="273.329985"/>
     <use style="fill:#dc143c;fill-opacity:0.9;" x="419.434581" xlink:href="#m962f1cde09" y="254.935331"/>
     <use style="fill:#dc143c;fill-opacity:0.9;" x="480.314542" xlink:href="#m962f1cde09" y="212.014472"/>
     <use style="fill:#dc143c;fill-opacity:0.9;" x="462.620939" xlink:href="#m962f1cde09" y="224.277575"/>
     <use style="fill:#dc143c;fill-opacity:0.9;" x="480.314542" xlink:href="#m962f1cde09" y="212.014472"/>
     <use style="fill:#dc143c;fill-opacity:0.9;" x="462.620939" xlink:href="#m962f1cde09" y="224.277575"/>
    </g>
   </g>
   <g id="PathCollection_2">
    <defs>
     <path d="M 0 7.071068 
C 1.875269 7.071068 3.673985 6.326016 5 5 
C 6.326016 3.673985 7.071068 1.875269 7.071068 0 
C 7.071068 -1.875269 6.326016 -3.673985 5 -5 
C 3.673985 -6.326016 1.875269 -7.071068 0 -7.071068 
C -1.875269 -7.071068 -3.673985 -6.326016 -5 -5 
C -6.326016 -3.673985 -7.071068 -1.875269 -7.071068 0 
C -7.071068 1.875269 -6.326016 3.673985 -5 5 
C -3.673985 6.326016 -1.875269 7.071068 0 7.071068 
z
" id="mf558de3f61"/>
    </defs>
    <g clip-path="url(#p04d90796f0)">
     <use style="fill:#00008b;fill-opacity:0.9;" x="227.947896" xlink:href="#mf558de3f61" y="438.88187"/>
     <use style="fill:#00008b;fill-opacity:0.9;" x="206.529325" xlink:href="#mf558de3f61" y="441.33449"/>
     <use style="fill:#00008b;fill-opacity:0.9;" x="227.947896" xlink:href="#mf558de3f61" y="438.88187"/>
     <use style="fill:#00008b;fill-opacity:0.9;" x="206.529325" xlink:href="#mf558de3f61" y="441.33449"/>
     <use style="fill:#00008b;fill-opacity:0.9;" x="285.568509" xlink:href="#mf558de3f61" y="438.88187"/>
     <use style="fill:#00008b;fill-opacity:0.9;" x="285.568509" xlink:href="#mf558de3f61" y="438.88187"/>
     <use style="fill:#00008b;fill-opacity:0.9;" x="285.568509" xlink:href="#mf558de3f61" y="438.88187"/>
     <use style="fill:#00008b;fill-opacity:0.9;" x="285.568509" xlink:href="#mf558de3f61" y="438.88187"/>
     <use style="fill:#00008b;fill-opacity:0.9;" x="419.434581" xlink:href="#mf558de3f61" y="432.750319"/>
     <use style="fill:#00008b;fill-opacity:0.9;" x="393.010582" xlink:href="#mf558de3f61" y="433.976629"/>
     <use style="fill:#00008b;fill-opacity:0.9;" x="393.010582" xlink:href="#mf558de3f61" y="433.976629"/>
     <use style="fill:#00008b;fill-opacity:0.9;" x="419.434581" xlink:href="#mf558de3f61" y="432.750319"/>
     <use style="fill:#00008b;fill-opacity:0.9;" x="480.314542" xlink:href="#mf558de3f61" y="433.976629"/>
     <use style="fill:#00008b;fill-opacity:0.9;" x="462.620939" xlink:href="#mf558de3f61" y="435.202939"/>
     <use style="fill:#00008b;fill-opacity:0.9;" x="480.314542" xlink:href="#mf558de3f61" y="433.976629"/>
     <use style="fill:#00008b;fill-opacity:0.9;" x="462.620939" xlink:href="#mf558de3f61" y="435.202939"/>
    </g>
   </g>
   <g id="legend_1">
    <g id="patch_7">
     <path d="M 115.87 106.16625 
L 470.375937 106.16625 
Q 472.975937 106.16625 472.975937 103.56625 
L 472.975937 28.54 
Q 472.975937 25.94 470.375937 25.94 
L 115.87 25.94 
Q 113.27 25.94 113.27 28.54 
L 113.27 103.56625 
Q 113.27 106.16625 115.87 106.16625 
z
" style="fill:#ffffff;opacity:0.8;stroke:#cccccc;stroke-linejoin:miter;stroke-width:1.5;"/>
    </g>
    <g id="line2d_3">
     <path d="M 118.47 36.467969 
L 144.47 36.467969 
" style="fill:none;stroke:#dc143c;stroke-linecap:square;stroke-width:4;"/>
    </g>
    <g id="line2d_4"/>
    <g id="text_16">
     <!-- Model Ethanol Production -->
     <g transform="translate(154.87 41.017969)scale(0.13 -0.13)">
      <defs>
       <path d="M 9.8125 72.90625 
L 24.515625 72.90625 
L 43.109375 23.296875 
L 61.8125 72.90625 
L 76.515625 72.90625 
L 76.515625 0 
L 66.890625 0 
L 66.890625 64.015625 
L 48.09375 14.015625 
L 38.1875 14.015625 
L 19.390625 64.015625 
L 19.390625 0 
L 9.8125 0 
z
" id="DejaVuSans-77"/>
       <path d="M 9.8125 72.90625 
L 55.90625 72.90625 
L 55.90625 64.59375 
L 19.671875 64.59375 
L 19.671875 43.015625 
L 54.390625 43.015625 
L 54.390625 34.71875 
L 19.671875 34.71875 
L 19.671875 8.296875 
L 56.78125 8.296875 
L 56.78125 0 
L 9.8125 0 
z
" id="DejaVuSans-69"/>
       <path d="M 54.890625 33.015625 
L 54.890625 0 
L 45.90625 0 
L 45.90625 32.71875 
Q 45.90625 40.484375 42.875 44.328125 
Q 39.84375 48.1875 33.796875 48.1875 
Q 26.515625 48.1875 22.3125 43.546875 
Q 18.109375 38.921875 18.109375 30.90625 
L 18.109375 0 
L 9.078125 0 
L 9.078125 75.984375 
L 18.109375 75.984375 
L 18.109375 46.1875 
Q 21.34375 51.125 25.703125 53.5625 
Q 30.078125 56 35.796875 56 
Q 45.21875 56 50.046875 50.171875 
Q 54.890625 44.34375 54.890625 33.015625 
z
" id="DejaVuSans-104"/>
      </defs>
      <use xlink:href="#DejaVuSans-77"/>
      <use x="86.279297" xlink:href="#DejaVuSans-111"/>
      <use x="147.460938" xlink:href="#DejaVuSans-100"/>
      <use x="210.9375" xlink:href="#DejaVuSans-101"/>
      <use x="272.460938" xlink:href="#DejaVuSans-108"/>
      <use x="300.244141" xlink:href="#DejaVuSans-32"/>
      <use x="332.03125" xlink:href="#DejaVuSans-69"/>
      <use x="395.214844" xlink:href="#DejaVuSans-116"/>
      <use x="434.423828" xlink:href="#DejaVuSans-104"/>
      <use x="497.802734" xlink:href="#DejaVuSans-97"/>
      <use x="559.082031" xlink:href="#DejaVuSans-110"/>
      <use x="622.460938" xlink:href="#DejaVuSans-111"/>
      <use x="683.642578" xlink:href="#DejaVuSans-108"/>
      <use x="711.425781" xlink:href="#DejaVuSans-32"/>
      <use x="743.212891" xlink:href="#DejaVuSans-80"/>
      <use x="801.765625" xlink:href="#DejaVuSans-114"/>
      <use x="840.628906" xlink:href="#DejaVuSans-111"/>
      <use x="901.810547" xlink:href="#DejaVuSans-100"/>
      <use x="965.287109" xlink:href="#DejaVuSans-117"/>
      <use x="1028.666016" xlink:href="#DejaVuSans-99"/>
      <use x="1083.646484" xlink:href="#DejaVuSans-116"/>
      <use x="1122.855469" xlink:href="#DejaVuSans-105"/>
      <use x="1150.638672" xlink:href="#DejaVuSans-111"/>
      <use x="1211.820312" xlink:href="#DejaVuSans-110"/>
     </g>
    </g>
    <g id="line2d_5">
     <path d="M 118.47 55.549531 
L 144.47 55.549531 
" style="fill:none;stroke:#00008b;stroke-linecap:square;stroke-width:4;"/>
    </g>
    <g id="line2d_6"/>
    <g id="text_17">
     <!-- Model Oxygen Consumption -->
     <g transform="translate(154.87 60.099531)scale(0.13 -0.13)">
      <defs>
       <path d="M 39.40625 66.21875 
Q 28.65625 66.21875 22.328125 58.203125 
Q 16.015625 50.203125 16.015625 36.375 
Q 16.015625 22.609375 22.328125 14.59375 
Q 28.65625 6.59375 39.40625 6.59375 
Q 50.140625 6.59375 56.421875 14.59375 
Q 62.703125 22.609375 62.703125 36.375 
Q 62.703125 50.203125 56.421875 58.203125 
Q 50.140625 66.21875 39.40625 66.21875 
z
M 39.40625 74.21875 
Q 54.734375 74.21875 63.90625 63.9375 
Q 73.09375 53.65625 73.09375 36.375 
Q 73.09375 19.140625 63.90625 8.859375 
Q 54.734375 -1.421875 39.40625 -1.421875 
Q 24.03125 -1.421875 14.8125 8.828125 
Q 5.609375 19.09375 5.609375 36.375 
Q 5.609375 53.65625 14.8125 63.9375 
Q 24.03125 74.21875 39.40625 74.21875 
z
" id="DejaVuSans-79"/>
       <path d="M 54.890625 54.6875 
L 35.109375 28.078125 
L 55.90625 0 
L 45.3125 0 
L 29.390625 21.484375 
L 13.484375 0 
L 2.875 0 
L 24.125 28.609375 
L 4.6875 54.6875 
L 15.28125 54.6875 
L 29.78125 35.203125 
L 44.28125 54.6875 
z
" id="DejaVuSans-120"/>
       <path d="M 32.171875 -5.078125 
Q 28.375 -14.84375 24.75 -17.8125 
Q 21.140625 -20.796875 15.09375 -20.796875 
L 7.90625 -20.796875 
L 7.90625 -13.28125 
L 13.1875 -13.28125 
Q 16.890625 -13.28125 18.9375 -11.515625 
Q 21 -9.765625 23.484375 -3.21875 
L 25.09375 0.875 
L 2.984375 54.6875 
L 12.5 54.6875 
L 29.59375 11.921875 
L 46.6875 54.6875 
L 56.203125 54.6875 
z
" id="DejaVuSans-121"/>
       <path d="M 45.40625 27.984375 
Q 45.40625 37.75 41.375 43.109375 
Q 37.359375 48.484375 30.078125 48.484375 
Q 22.859375 48.484375 18.828125 43.109375 
Q 14.796875 37.75 14.796875 27.984375 
Q 14.796875 18.265625 18.828125 12.890625 
Q 22.859375 7.515625 30.078125 7.515625 
Q 37.359375 7.515625 41.375 12.890625 
Q 45.40625 18.265625 45.40625 27.984375 
z
M 54.390625 6.78125 
Q 54.390625 -7.171875 48.1875 -13.984375 
Q 42 -20.796875 29.203125 -20.796875 
Q 24.46875 -20.796875 20.265625 -20.09375 
Q 16.0625 -19.390625 12.109375 -17.921875 
L 12.109375 -9.1875 
Q 16.0625 -11.328125 19.921875 -12.34375 
Q 23.78125 -13.375 27.78125 -13.375 
Q 36.625 -13.375 41.015625 -8.765625 
Q 45.40625 -4.15625 45.40625 5.171875 
L 45.40625 9.625 
Q 42.625 4.78125 38.28125 2.390625 
Q 33.9375 0 27.875 0 
Q 17.828125 0 11.671875 7.65625 
Q 5.515625 15.328125 5.515625 27.984375 
Q 5.515625 40.671875 11.671875 48.328125 
Q 17.828125 56 27.875 56 
Q 33.9375 56 38.28125 53.609375 
Q 42.625 51.21875 45.40625 46.390625 
L 45.40625 54.6875 
L 54.390625 54.6875 
z
" id="DejaVuSans-103"/>
      </defs>
      <use xlink:href="#DejaVuSans-77"/>
      <use x="86.279297" xlink:href="#DejaVuSans-111"/>
      <use x="147.460938" xlink:href="#DejaVuSans-100"/>
      <use x="210.9375" xlink:href="#DejaVuSans-101"/>
      <use x="272.460938" xlink:href="#DejaVuSans-108"/>
      <use x="300.244141" xlink:href="#DejaVuSans-32"/>
      <use x="332.03125" xlink:href="#DejaVuSans-79"/>
      <use x="410.742188" xlink:href="#DejaVuSans-120"/>
      <use x="469.921875" xlink:href="#DejaVuSans-121"/>
      <use x="529.101562" xlink:href="#DejaVuSans-103"/>
      <use x="592.578125" xlink:href="#DejaVuSans-101"/>
      <use x="654.101562" xlink:href="#DejaVuSans-110"/>
      <use x="717.480469" xlink:href="#DejaVuSans-32"/>
      <use x="749.267578" xlink:href="#DejaVuSans-67"/>
      <use x="819.091797" xlink:href="#DejaVuSans-111"/>
      <use x="880.273438" xlink:href="#DejaVuSans-110"/>
      <use x="943.652344" xlink:href="#DejaVuSans-115"/>
      <use x="995.751953" xlink:href="#DejaVuSans-117"/>
      <use x="1059.130859" xlink:href="#DejaVuSans-109"/>
      <use x="1156.542969" xlink:href="#DejaVuSans-112"/>
      <use x="1220.019531" xlink:href="#DejaVuSans-116"/>
      <use x="1259.228516" xlink:href="#DejaVuSans-105"/>
      <use x="1287.011719" xlink:href="#DejaVuSans-111"/>
      <use x="1348.193359" xlink:href="#DejaVuSans-110"/>
     </g>
    </g>
    <g id="line2d_7"/>
    <g id="line2d_8">
     <defs>
      <path d="M 0 4.5 
C 1.193414 4.5 2.338109 4.025852 3.181981 3.181981 
C 4.025852 2.338109 4.5 1.193414 4.5 0 
C 4.5 -1.193414 4.025852 -2.338109 3.181981 -3.181981 
C 2.338109 -4.025852 1.193414 -4.5 0 -4.5 
C -1.193414 -4.5 -2.338109 -4.025852 -3.181981 -3.181981 
C -4.025852 -2.338109 -4.5 -1.193414 -4.5 0 
C -4.5 1.193414 -4.025852 2.338109 -3.181981 3.181981 
C -2.338109 4.025852 -1.193414 4.5 0 4.5 
z
" id="m5f4a21442b" style="stroke:#dc143c;"/>
     </defs>
     <g>
      <use style="fill:#dc143c;stroke:#dc143c;" x="131.47" xlink:href="#m5f4a21442b" y="74.631094"/>
     </g>
    </g>
    <g id="text_18">
     <!-- Ethanol Production (umol mgprotein-1 min-1) -->
     <g transform="translate(154.87 79.181094)scale(0.13 -0.13)">
      <defs>
       <path d="M 31 75.875 
Q 24.46875 64.65625 21.28125 53.65625 
Q 18.109375 42.671875 18.109375 31.390625 
Q 18.109375 20.125 21.3125 9.0625 
Q 24.515625 -2 31 -13.1875 
L 23.1875 -13.1875 
Q 15.875 -1.703125 12.234375 9.375 
Q 8.59375 20.453125 8.59375 31.390625 
Q 8.59375 42.28125 12.203125 53.3125 
Q 15.828125 64.359375 23.1875 75.875 
z
" id="DejaVuSans-40"/>
       <path d="M 4.890625 31.390625 
L 31.203125 31.390625 
L 31.203125 23.390625 
L 4.890625 23.390625 
z
" id="DejaVuSans-45"/>
       <path d="M 8.015625 75.875 
L 15.828125 75.875 
Q 23.140625 64.359375 26.78125 53.3125 
Q 30.421875 42.28125 30.421875 31.390625 
Q 30.421875 20.453125 26.78125 9.375 
Q 23.140625 -1.703125 15.828125 -13.1875 
L 8.015625 -13.1875 
Q 14.5 -2 17.703125 9.0625 
Q 20.90625 20.125 20.90625 31.390625 
Q 20.90625 42.671875 17.703125 53.65625 
Q 14.5 64.65625 8.015625 75.875 
z
" id="DejaVuSans-41"/>
      </defs>
      <use xlink:href="#DejaVuSans-69"/>
      <use x="63.183594" xlink:href="#DejaVuSans-116"/>
      <use x="102.392578" xlink:href="#DejaVuSans-104"/>
      <use x="165.771484" xlink:href="#DejaVuSans-97"/>
      <use x="227.050781" xlink:href="#DejaVuSans-110"/>
      <use x="290.429688" xlink:href="#DejaVuSans-111"/>
      <use x="351.611328" xlink:href="#DejaVuSans-108"/>
      <use x="379.394531" xlink:href="#DejaVuSans-32"/>
      <use x="411.181641" xlink:href="#DejaVuSans-80"/>
      <use x="469.734375" xlink:href="#DejaVuSans-114"/>
      <use x="508.597656" xlink:href="#DejaVuSans-111"/>
      <use x="569.779297" xlink:href="#DejaVuSans-100"/>
      <use x="633.255859" xlink:href="#DejaVuSans-117"/>
      <use x="696.634766" xlink:href="#DejaVuSans-99"/>
      <use x="751.615234" xlink:href="#DejaVuSans-116"/>
      <use x="790.824219" xlink:href="#DejaVuSans-105"/>
      <use x="818.607422" xlink:href="#DejaVuSans-111"/>
      <use x="879.789062" xlink:href="#DejaVuSans-110"/>
      <use x="943.167969" xlink:href="#DejaVuSans-32"/>
      <use x="974.955078" xlink:href="#DejaVuSans-40"/>
      <use x="1013.96875" xlink:href="#DejaVuSans-117"/>
      <use x="1077.347656" xlink:href="#DejaVuSans-109"/>
      <use x="1174.759766" xlink:href="#DejaVuSans-111"/>
      <use x="1235.941406" xlink:href="#DejaVuSans-108"/>
      <use x="1263.724609" xlink:href="#DejaVuSans-32"/>
      <use x="1295.511719" xlink:href="#DejaVuSans-109"/>
      <use x="1392.923828" xlink:href="#DejaVuSans-103"/>
      <use x="1456.400391" xlink:href="#DejaVuSans-112"/>
      <use x="1519.876953" xlink:href="#DejaVuSans-114"/>
      <use x="1558.740234" xlink:href="#DejaVuSans-111"/>
      <use x="1619.921875" xlink:href="#DejaVuSans-116"/>
      <use x="1659.130859" xlink:href="#DejaVuSans-101"/>
      <use x="1720.654297" xlink:href="#DejaVuSans-105"/>
      <use x="1748.4375" xlink:href="#DejaVuSans-110"/>
      <use x="1811.816406" xlink:href="#DejaVuSans-45"/>
      <use x="1847.900391" xlink:href="#DejaVuSans-49"/>
      <use x="1911.523438" xlink:href="#DejaVuSans-32"/>
      <use x="1943.310547" xlink:href="#DejaVuSans-109"/>
      <use x="2040.722656" xlink:href="#DejaVuSans-105"/>
      <use x="2068.505859" xlink:href="#DejaVuSans-110"/>
      <use x="2131.884766" xlink:href="#DejaVuSans-45"/>
      <use x="2167.96875" xlink:href="#DejaVuSans-49"/>
      <use x="2231.591797" xlink:href="#DejaVuSans-41"/>
     </g>
    </g>
    <g id="line2d_9"/>
    <g id="line2d_10">
     <defs>
      <path d="M 0 4.5 
C 1.193414 4.5 2.338109 4.025852 3.181981 3.181981 
C 4.025852 2.338109 4.5 1.193414 4.5 0 
C 4.5 -1.193414 4.025852 -2.338109 3.181981 -3.181981 
C 2.338109 -4.025852 1.193414 -4.5 0 -4.5 
C -1.193414 -4.5 -2.338109 -4.025852 -3.181981 -3.181981 
C -4.025852 -2.338109 -4.5 -1.193414 -4.5 0 
C -4.5 1.193414 -4.025852 2.338109 -3.181981 3.181981 
C -2.338109 4.025852 -1.193414 4.5 0 4.5 
z
" id="m05be51d660" style="stroke:#00008b;"/>
     </defs>
     <g>
      <use style="fill:#00008b;stroke:#00008b;" x="131.47" xlink:href="#m05be51d660" y="93.712656"/>
     </g>
    </g>
    <g id="text_19">
     <!-- Oxygen Consumption (umol mgprotein-1 min-1) -->
     <g transform="translate(154.87 98.262656)scale(0.13 -0.13)">
      <use xlink:href="#DejaVuSans-79"/>
      <use x="78.710938" xlink:href="#DejaVuSans-120"/>
      <use x="137.890625" xlink:href="#DejaVuSans-121"/>
      <use x="197.070312" xlink:href="#DejaVuSans-103"/>
      <use x="260.546875" xlink:href="#DejaVuSans-101"/>
      <use x="322.070312" xlink:href="#DejaVuSans-110"/>
      <use x="385.449219" xlink:href="#DejaVuSans-32"/>
      <use x="417.236328" xlink:href="#DejaVuSans-67"/>
      <use x="487.060547" xlink:href="#DejaVuSans-111"/>
      <use x="548.242188" xlink:href="#DejaVuSans-110"/>
      <use x="611.621094" xlink:href="#DejaVuSans-115"/>
      <use x="663.720703" xlink:href="#DejaVuSans-117"/>
      <use x="727.099609" xlink:href="#DejaVuSans-109"/>
      <use x="824.511719" xlink:href="#DejaVuSans-112"/>
      <use x="887.988281" xlink:href="#DejaVuSans-116"/>
      <use x="927.197266" xlink:href="#DejaVuSans-105"/>
      <use x="954.980469" xlink:href="#DejaVuSans-111"/>
      <use x="1016.162109" xlink:href="#DejaVuSans-110"/>
      <use x="1079.541016" xlink:href="#DejaVuSans-32"/>
      <use x="1111.328125" xlink:href="#DejaVuSans-40"/>
      <use x="1150.341797" xlink:href="#DejaVuSans-117"/>
      <use x="1213.720703" xlink:href="#DejaVuSans-109"/>
      <use x="1311.132812" xlink:href="#DejaVuSans-111"/>
      <use x="1372.314453" xlink:href="#DejaVuSans-108"/>
      <use x="1400.097656" xlink:href="#DejaVuSans-32"/>
      <use x="1431.884766" xlink:href="#DejaVuSans-109"/>
      <use x="1529.296875" xlink:href="#DejaVuSans-103"/>
      <use x="1592.773438" xlink:href="#DejaVuSans-112"/>
      <use x="1656.25" xlink:href="#DejaVuSans-114"/>
      <use x="1695.113281" xlink:href="#DejaVuSans-111"/>
      <use x="1756.294922" xlink:href="#DejaVuSans-116"/>
      <use x="1795.503906" xlink:href="#DejaVuSans-101"/>
      <use x="1857.027344" xlink:href="#DejaVuSans-105"/>
      <use x="1884.810547" xlink:href="#DejaVuSans-110"/>
      <use x="1948.189453" xlink:href="#DejaVuSans-45"/>
      <use x="1984.273438" xlink:href="#DejaVuSans-49"/>
      <use x="2047.896484" xlink:href="#DejaVuSans-32"/>
      <use x="2079.683594" xlink:href="#DejaVuSans-109"/>
      <use x="2177.095703" xlink:href="#DejaVuSans-105"/>
      <use x="2204.878906" xlink:href="#DejaVuSans-110"/>
      <use x="2268.257812" xlink:href="#DejaVuSans-45"/>
      <use x="2304.341797" xlink:href="#DejaVuSans-49"/>
      <use x="2367.964844" xlink:href="#DejaVuSans-41"/>
     </g>
    </g>
   </g>
  </g>
 </g>
 <defs>
  <clipPath id="p04d90796f0">
   <rect height="462.54" width="449.79" x="106.77" y="19.44"/>
  </clipPath>
 </defs>
</svg>
