<?xml version="1.0" encoding="utf-8" standalone="no"?>
<!DOCTYPE svg PUBLIC "-//W3C//DTD SVG 1.1//EN"
  "http://www.w3.org/Graphics/SVG/1.1/DTD/svg11.dtd">
<!-- Created with matplotlib (https://matplotlib.org/) -->
<svg height="576pt" version="1.1" viewBox="0 0 576 576" width="576pt" xmlns="http://www.w3.org/2000/svg" xmlns:xlink="http://www.w3.org/1999/xlink">
 <metadata>
  <rdf:RDF xmlns:cc="http://creativecommons.org/ns#" xmlns:dc="http://purl.org/dc/elements/1.1/" xmlns:rdf="http://www.w3.org/1999/02/22-rdf-syntax-ns#">
   <cc:Work>
    <dc:type rdf:resource="http://purl.org/dc/dcmitype/StillImage"/>
    <dc:date>2023-01-24T16:51:36.880617</dc:date>
    <dc:format>image/svg+xml</dc:format>
    <dc:creator>
     <cc:Agent>
      <dc:title>Matplotlib v3.3.4, https://matplotlib.org/</dc:title>
     </cc:Agent>
    </dc:creator>
   </cc:Work>
  </rdf:RDF>
 </metadata>
 <defs>
  <style type="text/css">*{stroke-linecap:butt;stroke-linejoin:round;}</style>
 </defs>
 <g id="figure_1">
  <g id="patch_1">
   <path d="M 0 576 
L 576 576 
L 576 0 
L 0 0 
z
" style="fill:#ffffff;"/>
  </g>
  <g id="axes_1">
   <g id="patch_2">
    <path d="M 72 504 
L 518.4 504 
L 518.4 69.12 
L 72 69.12 
z
" style="fill:#ffffff;"/>
   </g>
   <g id="matplotlib.axis_1">
    <g id="xtick_1">
     <g id="text_1">
      <!-- 0 -->
      <g style="fill:#262626;" transform="translate(105.812548 529.384063)scale(0.18 -0.18)">
       <defs>
        <path d="M 4.15625 35.296875 
Q 4.15625 48 6.765625 55.734375 
Q 9.375 63.484375 14.515625 67.671875 
Q 19.671875 71.875 27.484375 71.875 
Q 33.25 71.875 37.59375 69.546875 
Q 41.9375 67.234375 44.765625 62.859375 
Q 47.609375 58.5 49.21875 52.21875 
Q 50.828125 45.953125 50.828125 35.296875 
Q 50.828125 22.703125 48.234375 14.96875 
Q 45.65625 7.234375 40.5 3 
Q 35.359375 -1.21875 27.484375 -1.21875 
Q 17.140625 -1.21875 11.234375 6.203125 
Q 4.15625 15.140625 4.15625 35.296875 
z
M 13.1875 35.296875 
Q 13.1875 17.671875 17.3125 11.828125 
Q 21.4375 6 27.484375 6 
Q 33.546875 6 37.671875 11.859375 
Q 41.796875 17.71875 41.796875 35.296875 
Q 41.796875 52.984375 37.671875 58.78125 
Q 33.546875 64.59375 27.390625 64.59375 
Q 21.34375 64.59375 17.71875 59.46875 
Q 13.1875 52.9375 13.1875 35.296875 
z
" id="ArialMT-48"/>
       </defs>
       <use xlink:href="#ArialMT-48"/>
      </g>
     </g>
    </g>
    <g id="xtick_2">
     <g id="text_2">
      <!-- 2 -->
      <g style="fill:#262626;" transform="translate(183.44733 529.384063)scale(0.18 -0.18)">
       <defs>
        <path d="M 50.34375 8.453125 
L 50.34375 0 
L 3.03125 0 
Q 2.9375 3.171875 4.046875 6.109375 
Q 5.859375 10.9375 9.828125 15.625 
Q 13.8125 20.3125 21.34375 26.46875 
Q 33.015625 36.03125 37.109375 41.625 
Q 41.21875 47.21875 41.21875 52.203125 
Q 41.21875 57.421875 37.46875 61 
Q 33.734375 64.59375 27.734375 64.59375 
Q 21.390625 64.59375 17.578125 60.78125 
Q 13.765625 56.984375 13.71875 50.25 
L 4.6875 51.171875 
Q 5.609375 61.28125 11.65625 66.578125 
Q 17.71875 71.875 27.9375 71.875 
Q 38.234375 71.875 44.234375 66.15625 
Q 50.25 60.453125 50.25 52 
Q 50.25 47.703125 48.484375 43.546875 
Q 46.734375 39.40625 42.65625 34.8125 
Q 38.578125 30.21875 29.109375 22.21875 
Q 21.1875 15.578125 18.9375 13.203125 
Q 16.703125 10.84375 15.234375 8.453125 
z
" id="ArialMT-50"/>
       </defs>
       <use xlink:href="#ArialMT-50"/>
      </g>
     </g>
    </g>
    <g id="xtick_3">
     <g id="text_3">
      <!-- 4 -->
      <g style="fill:#262626;" transform="translate(261.082113 529.384063)scale(0.18 -0.18)">
       <defs>
        <path d="M 32.328125 0 
L 32.328125 17.140625 
L 1.265625 17.140625 
L 1.265625 25.203125 
L 33.9375 71.578125 
L 41.109375 71.578125 
L 41.109375 25.203125 
L 50.78125 25.203125 
L 50.78125 17.140625 
L 41.109375 17.140625 
L 41.109375 0 
z
M 32.328125 25.203125 
L 32.328125 57.46875 
L 9.90625 25.203125 
z
" id="ArialMT-52"/>
       </defs>
       <use xlink:href="#ArialMT-52"/>
      </g>
     </g>
    </g>
    <g id="xtick_4">
     <g id="text_4">
      <!-- 6 -->
      <g style="fill:#262626;" transform="translate(338.716895 529.384063)scale(0.18 -0.18)">
       <defs>
        <path d="M 49.75 54.046875 
L 41.015625 53.375 
Q 39.84375 58.546875 37.703125 60.890625 
Q 34.125 64.65625 28.90625 64.65625 
Q 24.703125 64.65625 21.53125 62.3125 
Q 17.390625 59.28125 14.984375 53.46875 
Q 12.59375 47.65625 12.5 36.921875 
Q 15.671875 41.75 20.265625 44.09375 
Q 24.859375 46.4375 29.890625 46.4375 
Q 38.671875 46.4375 44.84375 39.96875 
Q 51.03125 33.5 51.03125 23.25 
Q 51.03125 16.5 48.125 10.71875 
Q 45.21875 4.9375 40.140625 1.859375 
Q 35.0625 -1.21875 28.609375 -1.21875 
Q 17.625 -1.21875 10.6875 6.859375 
Q 3.765625 14.9375 3.765625 33.5 
Q 3.765625 54.25 11.421875 63.671875 
Q 18.109375 71.875 29.4375 71.875 
Q 37.890625 71.875 43.28125 67.140625 
Q 48.6875 62.40625 49.75 54.046875 
z
M 13.875 23.1875 
Q 13.875 18.65625 15.796875 14.5 
Q 17.71875 10.359375 21.1875 8.171875 
Q 24.65625 6 28.46875 6 
Q 34.03125 6 38.03125 10.484375 
Q 42.046875 14.984375 42.046875 22.703125 
Q 42.046875 30.125 38.078125 34.390625 
Q 34.125 38.671875 28.125 38.671875 
Q 22.171875 38.671875 18.015625 34.390625 
Q 13.875 30.125 13.875 23.1875 
z
" id="ArialMT-54"/>
       </defs>
       <use xlink:href="#ArialMT-54"/>
      </g>
     </g>
    </g>
    <g id="xtick_5">
     <g id="text_5">
      <!-- 8 -->
      <g style="fill:#262626;" transform="translate(416.351678 529.384063)scale(0.18 -0.18)">
       <defs>
        <path d="M 17.671875 38.8125 
Q 12.203125 40.828125 9.5625 44.53125 
Q 6.9375 48.25 6.9375 53.421875 
Q 6.9375 61.234375 12.546875 66.546875 
Q 18.171875 71.875 27.484375 71.875 
Q 36.859375 71.875 42.578125 66.421875 
Q 48.296875 60.984375 48.296875 53.171875 
Q 48.296875 48.1875 45.671875 44.5 
Q 43.0625 40.828125 37.75 38.8125 
Q 44.34375 36.671875 47.78125 31.875 
Q 51.21875 27.09375 51.21875 20.453125 
Q 51.21875 11.28125 44.71875 5.03125 
Q 38.234375 -1.21875 27.640625 -1.21875 
Q 17.046875 -1.21875 10.546875 5.046875 
Q 4.046875 11.328125 4.046875 20.703125 
Q 4.046875 27.6875 7.59375 32.390625 
Q 11.140625 37.109375 17.671875 38.8125 
z
M 15.921875 53.71875 
Q 15.921875 48.640625 19.1875 45.40625 
Q 22.46875 42.1875 27.6875 42.1875 
Q 32.765625 42.1875 36.015625 45.375 
Q 39.265625 48.578125 39.265625 53.21875 
Q 39.265625 58.0625 35.90625 61.359375 
Q 32.5625 64.65625 27.59375 64.65625 
Q 22.5625 64.65625 19.234375 61.421875 
Q 15.921875 58.203125 15.921875 53.71875 
z
M 13.09375 20.65625 
Q 13.09375 16.890625 14.875 13.375 
Q 16.65625 9.859375 20.171875 7.921875 
Q 23.6875 6 27.734375 6 
Q 34.03125 6 38.125 10.046875 
Q 42.234375 14.109375 42.234375 20.359375 
Q 42.234375 26.703125 38.015625 30.859375 
Q 33.796875 35.015625 27.4375 35.015625 
Q 21.234375 35.015625 17.15625 30.90625 
Q 13.09375 26.8125 13.09375 20.65625 
z
" id="ArialMT-56"/>
       </defs>
       <use xlink:href="#ArialMT-56"/>
      </g>
     </g>
    </g>
    <g id="xtick_6">
     <g id="text_6">
      <!-- 10 -->
      <g style="fill:#262626;" transform="translate(488.981617 529.384063)scale(0.18 -0.18)">
       <defs>
        <path d="M 37.25 0 
L 28.46875 0 
L 28.46875 56 
Q 25.296875 52.984375 20.140625 49.953125 
Q 14.984375 46.921875 10.890625 45.40625 
L 10.890625 53.90625 
Q 18.265625 57.375 23.78125 62.296875 
Q 29.296875 67.234375 31.59375 71.875 
L 37.25 71.875 
z
" id="ArialMT-49"/>
       </defs>
       <use xlink:href="#ArialMT-49"/>
       <use x="55.615234" xlink:href="#ArialMT-48"/>
      </g>
     </g>
    </g>
    <g id="text_7">
     <!-- Glucose Uptake Rate$ \left(\frac{mmol}{g_{protein} \cdot hr^{}}\right)$ -->
     <g style="fill:#262626;" transform="translate(132.245 559.501562)scale(0.23 -0.23)">
      <defs>
       <path d="M 41.21875 28.078125 
L 41.21875 36.46875 
L 71.53125 36.53125 
L 71.53125 9.96875 
Q 64.546875 4.390625 57.125 1.578125 
Q 49.703125 -1.21875 41.890625 -1.21875 
Q 31.34375 -1.21875 22.71875 3.296875 
Q 14.109375 7.8125 9.71875 16.359375 
Q 5.328125 24.90625 5.328125 35.453125 
Q 5.328125 45.90625 9.6875 54.953125 
Q 14.0625 64.015625 22.265625 68.40625 
Q 30.46875 72.796875 41.15625 72.796875 
Q 48.921875 72.796875 55.1875 70.28125 
Q 61.46875 67.78125 65.03125 63.28125 
Q 68.609375 58.796875 70.453125 51.5625 
L 61.921875 49.21875 
Q 60.296875 54.6875 57.90625 57.8125 
Q 55.515625 60.9375 51.0625 62.8125 
Q 46.625 64.703125 41.21875 64.703125 
Q 34.71875 64.703125 29.984375 62.71875 
Q 25.25 60.75 22.34375 57.515625 
Q 19.4375 54.296875 17.828125 50.4375 
Q 15.09375 43.796875 15.09375 36.03125 
Q 15.09375 26.46875 18.390625 20.015625 
Q 21.6875 13.578125 27.984375 10.453125 
Q 34.28125 7.328125 41.359375 7.328125 
Q 47.515625 7.328125 53.375 9.6875 
Q 59.234375 12.0625 62.25 14.75 
L 62.25 28.078125 
z
" id="ArialMT-71"/>
       <path d="M 6.390625 0 
L 6.390625 71.578125 
L 15.1875 71.578125 
L 15.1875 0 
z
" id="ArialMT-108"/>
       <path d="M 40.578125 0 
L 40.578125 7.625 
Q 34.515625 -1.171875 24.125 -1.171875 
Q 19.53125 -1.171875 15.546875 0.578125 
Q 11.578125 2.34375 9.640625 5 
Q 7.71875 7.671875 6.9375 11.53125 
Q 6.390625 14.109375 6.390625 19.734375 
L 6.390625 51.859375 
L 15.1875 51.859375 
L 15.1875 23.09375 
Q 15.1875 16.21875 15.71875 13.8125 
Q 16.546875 10.359375 19.234375 8.375 
Q 21.921875 6.390625 25.875 6.390625 
Q 29.828125 6.390625 33.296875 8.421875 
Q 36.765625 10.453125 38.203125 13.9375 
Q 39.65625 17.4375 39.65625 24.078125 
L 39.65625 51.859375 
L 48.4375 51.859375 
L 48.4375 0 
z
" id="ArialMT-117"/>
       <path d="M 40.4375 19 
L 49.078125 17.875 
Q 47.65625 8.9375 41.8125 3.875 
Q 35.984375 -1.171875 27.484375 -1.171875 
Q 16.84375 -1.171875 10.375 5.78125 
Q 3.90625 12.75 3.90625 25.734375 
Q 3.90625 34.125 6.6875 40.421875 
Q 9.46875 46.734375 15.15625 49.875 
Q 20.84375 53.03125 27.546875 53.03125 
Q 35.984375 53.03125 41.359375 48.75 
Q 46.734375 44.484375 48.25 36.625 
L 39.703125 35.296875 
Q 38.484375 40.53125 35.375 43.15625 
Q 32.28125 45.796875 27.875 45.796875 
Q 21.234375 45.796875 17.078125 41.03125 
Q 12.9375 36.28125 12.9375 25.984375 
Q 12.9375 15.53125 16.9375 10.796875 
Q 20.953125 6.0625 27.390625 6.0625 
Q 32.5625 6.0625 36.03125 9.234375 
Q 39.5 12.40625 40.4375 19 
z
" id="ArialMT-99"/>
       <path d="M 3.328125 25.921875 
Q 3.328125 40.328125 11.328125 47.265625 
Q 18.015625 53.03125 27.640625 53.03125 
Q 38.328125 53.03125 45.109375 46.015625 
Q 51.90625 39.015625 51.90625 26.65625 
Q 51.90625 16.65625 48.90625 10.90625 
Q 45.90625 5.171875 40.15625 2 
Q 34.421875 -1.171875 27.640625 -1.171875 
Q 16.75 -1.171875 10.03125 5.8125 
Q 3.328125 12.796875 3.328125 25.921875 
z
M 12.359375 25.921875 
Q 12.359375 15.96875 16.703125 11.015625 
Q 21.046875 6.0625 27.640625 6.0625 
Q 34.1875 6.0625 38.53125 11.03125 
Q 42.875 16.015625 42.875 26.21875 
Q 42.875 35.84375 38.5 40.796875 
Q 34.125 45.75 27.640625 45.75 
Q 21.046875 45.75 16.703125 40.8125 
Q 12.359375 35.890625 12.359375 25.921875 
z
" id="ArialMT-111"/>
       <path d="M 3.078125 15.484375 
L 11.765625 16.84375 
Q 12.5 11.625 15.84375 8.84375 
Q 19.1875 6.0625 25.203125 6.0625 
Q 31.25 6.0625 34.171875 8.515625 
Q 37.109375 10.984375 37.109375 14.3125 
Q 37.109375 17.28125 34.515625 19 
Q 32.71875 20.171875 25.53125 21.96875 
Q 15.875 24.421875 12.140625 26.203125 
Q 8.40625 27.984375 6.46875 31.125 
Q 4.546875 34.28125 4.546875 38.09375 
Q 4.546875 41.546875 6.125 44.5 
Q 7.71875 47.46875 10.453125 49.421875 
Q 12.5 50.921875 16.03125 51.96875 
Q 19.578125 53.03125 23.640625 53.03125 
Q 29.734375 53.03125 34.34375 51.265625 
Q 38.96875 49.515625 41.15625 46.5 
Q 43.359375 43.5 44.1875 38.484375 
L 35.59375 37.3125 
Q 35.015625 41.3125 32.203125 43.546875 
Q 29.390625 45.796875 24.265625 45.796875 
Q 18.21875 45.796875 15.625 43.796875 
Q 13.03125 41.796875 13.03125 39.109375 
Q 13.03125 37.40625 14.109375 36.03125 
Q 15.1875 34.625 17.484375 33.6875 
Q 18.796875 33.203125 25.25 31.453125 
Q 34.578125 28.953125 38.25 27.359375 
Q 41.9375 25.78125 44.03125 22.75 
Q 46.140625 19.734375 46.140625 15.234375 
Q 46.140625 10.84375 43.578125 6.953125 
Q 41.015625 3.078125 36.171875 0.953125 
Q 31.34375 -1.171875 25.25 -1.171875 
Q 15.140625 -1.171875 9.84375 3.03125 
Q 4.546875 7.234375 3.078125 15.484375 
z
" id="ArialMT-115"/>
       <path d="M 42.09375 16.703125 
L 51.171875 15.578125 
Q 49.03125 7.625 43.21875 3.21875 
Q 37.40625 -1.171875 28.375 -1.171875 
Q 17 -1.171875 10.328125 5.828125 
Q 3.65625 12.84375 3.65625 25.484375 
Q 3.65625 38.578125 10.390625 45.796875 
Q 17.140625 53.03125 27.875 53.03125 
Q 38.28125 53.03125 44.875 45.953125 
Q 51.46875 38.875 51.46875 26.03125 
Q 51.46875 25.25 51.421875 23.6875 
L 12.75 23.6875 
Q 13.234375 15.140625 17.578125 10.59375 
Q 21.921875 6.0625 28.421875 6.0625 
Q 33.25 6.0625 36.671875 8.59375 
Q 40.09375 11.140625 42.09375 16.703125 
z
M 13.234375 30.90625 
L 42.1875 30.90625 
Q 41.609375 37.453125 38.875 40.71875 
Q 34.671875 45.796875 27.984375 45.796875 
Q 21.921875 45.796875 17.796875 41.75 
Q 13.671875 37.703125 13.234375 30.90625 
z
" id="ArialMT-101"/>
       <path id="ArialMT-32"/>
       <path d="M 54.6875 71.578125 
L 64.15625 71.578125 
L 64.15625 30.21875 
Q 64.15625 19.4375 61.71875 13.078125 
Q 59.28125 6.734375 52.90625 2.75 
Q 46.53125 -1.21875 36.1875 -1.21875 
Q 26.125 -1.21875 19.71875 2.25 
Q 13.328125 5.71875 10.59375 12.28125 
Q 7.859375 18.84375 7.859375 30.21875 
L 7.859375 71.578125 
L 17.328125 71.578125 
L 17.328125 30.28125 
Q 17.328125 20.953125 19.0625 16.53125 
Q 20.796875 12.109375 25.015625 9.71875 
Q 29.25 7.328125 35.359375 7.328125 
Q 45.796875 7.328125 50.234375 12.0625 
Q 54.6875 16.796875 54.6875 30.28125 
z
" id="ArialMT-85"/>
       <path d="M 6.59375 -19.875 
L 6.59375 51.859375 
L 14.59375 51.859375 
L 14.59375 45.125 
Q 17.4375 49.078125 21 51.046875 
Q 24.5625 53.03125 29.640625 53.03125 
Q 36.28125 53.03125 41.359375 49.609375 
Q 46.4375 46.1875 49.015625 39.953125 
Q 51.609375 33.734375 51.609375 26.3125 
Q 51.609375 18.359375 48.75 11.984375 
Q 45.90625 5.609375 40.453125 2.21875 
Q 35.015625 -1.171875 29 -1.171875 
Q 24.609375 -1.171875 21.109375 0.6875 
Q 17.625 2.546875 15.375 5.375 
L 15.375 -19.875 
z
M 14.546875 25.640625 
Q 14.546875 15.625 18.59375 10.84375 
Q 22.65625 6.0625 28.421875 6.0625 
Q 34.28125 6.0625 38.453125 11.015625 
Q 42.625 15.96875 42.625 26.375 
Q 42.625 36.28125 38.546875 41.203125 
Q 34.46875 46.140625 28.8125 46.140625 
Q 23.1875 46.140625 18.859375 40.890625 
Q 14.546875 35.640625 14.546875 25.640625 
z
" id="ArialMT-112"/>
       <path d="M 25.78125 7.859375 
L 27.046875 0.09375 
Q 23.34375 -0.6875 20.40625 -0.6875 
Q 15.625 -0.6875 12.984375 0.828125 
Q 10.359375 2.34375 9.28125 4.8125 
Q 8.203125 7.28125 8.203125 15.1875 
L 8.203125 45.015625 
L 1.765625 45.015625 
L 1.765625 51.859375 
L 8.203125 51.859375 
L 8.203125 64.703125 
L 16.9375 69.96875 
L 16.9375 51.859375 
L 25.78125 51.859375 
L 25.78125 45.015625 
L 16.9375 45.015625 
L 16.9375 14.703125 
Q 16.9375 10.9375 17.40625 9.859375 
Q 17.875 8.796875 18.921875 8.15625 
Q 19.96875 7.515625 21.921875 7.515625 
Q 23.390625 7.515625 25.78125 7.859375 
z
" id="ArialMT-116"/>
       <path d="M 40.4375 6.390625 
Q 35.546875 2.25 31.03125 0.53125 
Q 26.515625 -1.171875 21.34375 -1.171875 
Q 12.796875 -1.171875 8.203125 3 
Q 3.609375 7.171875 3.609375 13.671875 
Q 3.609375 17.484375 5.34375 20.625 
Q 7.078125 23.78125 9.890625 25.6875 
Q 12.703125 27.59375 16.21875 28.5625 
Q 18.796875 29.25 24.03125 29.890625 
Q 34.671875 31.15625 39.703125 32.90625 
Q 39.75 34.71875 39.75 35.203125 
Q 39.75 40.578125 37.25 42.78125 
Q 33.890625 45.75 27.25 45.75 
Q 21.046875 45.75 18.09375 43.578125 
Q 15.140625 41.40625 13.71875 35.890625 
L 5.125 37.0625 
Q 6.296875 42.578125 8.984375 45.96875 
Q 11.671875 49.359375 16.75 51.1875 
Q 21.828125 53.03125 28.515625 53.03125 
Q 35.15625 53.03125 39.296875 51.46875 
Q 43.453125 49.90625 45.40625 47.53125 
Q 47.359375 45.171875 48.140625 41.546875 
Q 48.578125 39.3125 48.578125 33.453125 
L 48.578125 21.734375 
Q 48.578125 9.46875 49.140625 6.21875 
Q 49.703125 2.984375 51.375 0 
L 42.1875 0 
Q 40.828125 2.734375 40.4375 6.390625 
z
M 39.703125 26.03125 
Q 34.90625 24.078125 25.34375 22.703125 
Q 19.921875 21.921875 17.671875 20.9375 
Q 15.4375 19.96875 14.203125 18.09375 
Q 12.984375 16.21875 12.984375 13.921875 
Q 12.984375 10.40625 15.640625 8.0625 
Q 18.3125 5.71875 23.4375 5.71875 
Q 28.515625 5.71875 32.46875 7.9375 
Q 36.421875 10.15625 38.28125 14.015625 
Q 39.703125 17 39.703125 22.796875 
z
" id="ArialMT-97"/>
       <path d="M 6.640625 0 
L 6.640625 71.578125 
L 15.4375 71.578125 
L 15.4375 30.765625 
L 36.234375 51.859375 
L 47.609375 51.859375 
L 27.78125 32.625 
L 49.609375 0 
L 38.765625 0 
L 21.625 26.515625 
L 15.4375 20.5625 
L 15.4375 0 
z
" id="ArialMT-107"/>
       <path d="M 7.859375 0 
L 7.859375 71.578125 
L 39.59375 71.578125 
Q 49.171875 71.578125 54.140625 69.640625 
Q 59.125 67.71875 62.109375 62.828125 
Q 65.09375 57.953125 65.09375 52.046875 
Q 65.09375 44.4375 60.15625 39.203125 
Q 55.21875 33.984375 44.921875 32.5625 
Q 48.6875 30.765625 50.640625 29 
Q 54.78125 25.203125 58.5 19.484375 
L 70.953125 0 
L 59.03125 0 
L 49.5625 14.890625 
Q 45.40625 21.34375 42.71875 24.75 
Q 40.046875 28.171875 37.921875 29.53125 
Q 35.796875 30.90625 33.59375 31.453125 
Q 31.984375 31.78125 28.328125 31.78125 
L 17.328125 31.78125 
L 17.328125 0 
z
M 17.328125 39.984375 
L 37.703125 39.984375 
Q 44.1875 39.984375 47.84375 41.328125 
Q 51.515625 42.671875 53.421875 45.625 
Q 55.328125 48.578125 55.328125 52.046875 
Q 55.328125 57.125 51.640625 60.390625 
Q 47.953125 63.671875 39.984375 63.671875 
L 17.328125 63.671875 
z
" id="ArialMT-82"/>
       <path d="M 50.296875 -24.296875 
L 50.296875 -27.90625 
Q 33.5 -12.09375 23.703125 11.40625 
Q 13.90625 34.90625 13.90625 64.296875 
Q 13.90625 93.796875 23.953125 118.640625 
Q 34 143.5 50.296875 156.59375 
L 50.296875 153.296875 
Q 38.90625 141.59375 31.15625 118.84375 
Q 23.40625 96.09375 23.40625 64.296875 
Q 23.40625 8.796875 50.296875 -24.296875 
z
" id="STIXSizeTwoSym-Regular-40"/>
       <path d="M 89.796875 33.015625 
L 83.40625 0 
L 74.421875 0 
L 80.71875 32.71875 
Q 81.109375 34.8125 81.296875 36.328125 
Q 81.5 37.84375 81.5 38.921875 
Q 81.5 43.3125 79.046875 45.75 
Q 76.609375 48.1875 72.21875 48.1875 
Q 65.671875 48.1875 60.546875 43.28125 
Q 55.421875 38.375 53.90625 30.515625 
L 47.90625 0 
L 38.921875 0 
L 45.3125 32.71875 
Q 45.703125 34.515625 45.890625 36.046875 
Q 46.09375 37.59375 46.09375 38.8125 
Q 46.09375 43.265625 43.65625 45.71875 
Q 41.21875 48.1875 36.921875 48.1875 
Q 30.28125 48.1875 25.140625 43.28125 
Q 20.015625 38.375 18.5 30.515625 
L 12.5 0 
L 3.515625 0 
L 14.203125 54.6875 
L 23.1875 54.6875 
L 21.484375 46.1875 
Q 25.140625 50.984375 30.046875 53.484375 
Q 34.96875 56 40.578125 56 
Q 46.53125 56 50.359375 52.875 
Q 54.203125 49.75 54.984375 44.1875 
Q 59.078125 49.953125 64.46875 52.96875 
Q 69.875 56 75.875 56 
Q 82.90625 56 86.734375 51.953125 
Q 90.578125 47.90625 90.578125 40.484375 
Q 90.578125 38.875 90.375 36.9375 
Q 90.1875 35.015625 89.796875 33.015625 
z
" id="DejaVuSans-Oblique-109"/>
       <path d="M 25.390625 -1.421875 
Q 15.765625 -1.421875 10.171875 4.515625 
Q 4.59375 10.453125 4.59375 20.703125 
Q 4.59375 26.65625 6.515625 32.828125 
Q 8.453125 39.015625 11.53125 43.21875 
Q 16.359375 49.75 22.3125 52.875 
Q 28.265625 56 35.796875 56 
Q 45.125 56 50.859375 50.1875 
Q 56.59375 44.390625 56.59375 35.015625 
Q 56.59375 28.515625 54.6875 22.0625 
Q 52.78125 15.625 49.703125 11.375 
Q 44.921875 4.828125 38.96875 1.703125 
Q 33.015625 -1.421875 25.390625 -1.421875 
z
M 13.921875 21 
Q 13.921875 13.578125 17.015625 9.890625 
Q 20.125 6.203125 26.421875 6.203125 
Q 35.453125 6.203125 41.375 14.078125 
Q 47.3125 21.96875 47.3125 34.078125 
Q 47.3125 41.15625 44.140625 44.765625 
Q 40.96875 48.390625 34.8125 48.390625 
Q 29.734375 48.390625 25.78125 46.015625 
Q 21.828125 43.65625 18.703125 38.8125 
Q 16.40625 35.203125 15.15625 30.5625 
Q 13.921875 25.921875 13.921875 21 
z
" id="DejaVuSans-Oblique-111"/>
       <path d="M 18.3125 75.984375 
L 27.296875 75.984375 
L 12.5 0 
L 3.515625 0 
z
" id="DejaVuSans-Oblique-108"/>
       <path d="M 59.625 54.6875 
L 50.296875 6.78125 
Q 47.609375 -7.125 40.015625 -13.953125 
Q 32.421875 -20.796875 19.578125 -20.796875 
Q 14.84375 -20.796875 10.78125 -20.09375 
Q 6.734375 -19.390625 3.21875 -17.921875 
L 4.890625 -9.1875 
Q 8.203125 -11.328125 11.90625 -12.34375 
Q 15.625 -13.375 19.828125 -13.375 
Q 28.375 -13.375 33.859375 -8.703125 
Q 39.359375 -4.046875 41.109375 4.6875 
L 41.890625 8.796875 
Q 38.140625 4.5 33.15625 2.25 
Q 28.171875 0 22.40625 0 
Q 14.109375 0 9.34375 5.484375 
Q 4.59375 10.984375 4.59375 20.609375 
Q 4.59375 28.171875 7.46875 35.421875 
Q 10.359375 42.671875 15.578125 48.296875 
Q 19.046875 52 23.65625 54 
Q 28.265625 56 33.296875 56 
Q 38.8125 56 42.90625 53.4375 
Q 47.015625 50.875 49.03125 46.1875 
L 50.59375 54.6875 
z
M 46.09375 34.625 
Q 46.09375 41.265625 42.96875 44.875 
Q 39.84375 48.484375 34.078125 48.484375 
Q 30.515625 48.484375 27.296875 47.0625 
Q 24.078125 45.65625 21.78125 43.109375 
Q 18.0625 38.921875 15.984375 33.234375 
Q 13.921875 27.546875 13.921875 21.484375 
Q 13.921875 14.75 17.0625 11.125 
Q 20.21875 7.515625 26.125 7.515625 
Q 34.671875 7.515625 40.375 15.25 
Q 46.09375 23 46.09375 34.625 
z
" id="DejaVuSans-Oblique-103"/>
       <path d="M 49.609375 33.6875 
Q 49.609375 40.875 46.484375 44.671875 
Q 43.359375 48.484375 37.5 48.484375 
Q 33.5 48.484375 29.859375 46.4375 
Q 26.21875 44.390625 23.390625 40.484375 
Q 20.609375 36.625 18.9375 31.15625 
Q 17.28125 25.6875 17.28125 20.3125 
Q 17.28125 13.484375 20.40625 9.796875 
Q 23.53125 6.109375 29.296875 6.109375 
Q 33.546875 6.109375 37.1875 8.109375 
Q 40.828125 10.109375 43.40625 13.921875 
Q 46.1875 17.921875 47.890625 23.34375 
Q 49.609375 28.765625 49.609375 33.6875 
z
M 21.78125 46.390625 
Q 25.390625 51.125 30.296875 53.5625 
Q 35.203125 56 41.21875 56 
Q 49.609375 56 54.25 50.5 
Q 58.890625 45.015625 58.890625 35.109375 
Q 58.890625 27 56 19.65625 
Q 53.125 12.3125 47.703125 6.5 
Q 44.09375 2.640625 39.546875 0.609375 
Q 35.015625 -1.421875 29.984375 -1.421875 
Q 24.171875 -1.421875 20.21875 1 
Q 16.265625 3.421875 14.3125 8.203125 
L 8.6875 -20.796875 
L -0.296875 -20.796875 
L 14.40625 54.6875 
L 23.390625 54.6875 
z
" id="DejaVuSans-Oblique-112"/>
       <path d="M 44.578125 46.390625 
Q 43.21875 47.125 41.453125 47.515625 
Q 39.703125 47.90625 37.703125 47.90625 
Q 30.515625 47.90625 25.140625 42.453125 
Q 19.78125 37.015625 18.015625 27.875 
L 12.5 0 
L 3.515625 0 
L 14.203125 54.6875 
L 23.1875 54.6875 
L 21.484375 46.1875 
Q 25.046875 50.921875 30 53.453125 
Q 34.96875 56 40.578125 56 
Q 42.046875 56 43.453125 55.828125 
Q 44.875 55.671875 46.296875 55.28125 
z
" id="DejaVuSans-Oblique-114"/>
       <path d="M 42.28125 54.6875 
L 40.921875 47.703125 
L 23 47.703125 
L 17.1875 18.015625 
Q 16.890625 16.359375 16.75 15.234375 
Q 16.609375 14.109375 16.609375 13.484375 
Q 16.609375 10.359375 18.484375 8.9375 
Q 20.359375 7.515625 24.515625 7.515625 
L 33.59375 7.515625 
L 32.078125 0 
L 23.484375 0 
Q 15.484375 0 11.546875 3.125 
Q 7.625 6.25 7.625 12.59375 
Q 7.625 13.71875 7.765625 15.0625 
Q 7.90625 16.40625 8.203125 18.015625 
L 14.015625 47.703125 
L 6.390625 47.703125 
L 7.8125 54.6875 
L 15.28125 54.6875 
L 18.3125 70.21875 
L 27.296875 70.21875 
L 24.3125 54.6875 
z
" id="DejaVuSans-Oblique-116"/>
       <path d="M 48.09375 32.234375 
Q 48.25 33.015625 48.3125 33.84375 
Q 48.390625 34.671875 48.390625 35.5 
Q 48.390625 41.453125 44.890625 44.921875 
Q 41.40625 48.390625 35.40625 48.390625 
Q 28.71875 48.390625 23.578125 44.15625 
Q 18.453125 39.9375 15.828125 32.171875 
z
M 55.90625 25.203125 
L 14.109375 25.203125 
Q 13.8125 23.34375 13.71875 22.265625 
Q 13.625 21.1875 13.625 20.40625 
Q 13.625 13.625 17.796875 9.90625 
Q 21.96875 6.203125 29.59375 6.203125 
Q 35.453125 6.203125 40.671875 7.515625 
Q 45.90625 8.84375 50.390625 11.375 
L 48.6875 2.484375 
Q 43.84375 0.53125 38.6875 -0.4375 
Q 33.546875 -1.421875 28.21875 -1.421875 
Q 16.84375 -1.421875 10.71875 4.015625 
Q 4.59375 9.46875 4.59375 19.484375 
Q 4.59375 28.03125 7.640625 35.375 
Q 10.6875 42.71875 16.609375 48.484375 
Q 20.40625 52.09375 25.65625 54.046875 
Q 30.90625 56 36.8125 56 
Q 46.09375 56 51.578125 50.4375 
Q 57.078125 44.875 57.078125 35.5 
Q 57.078125 33.25 56.78125 30.6875 
Q 56.5 28.125 55.90625 25.203125 
z
" id="DejaVuSans-Oblique-101"/>
       <path d="M 18.3125 75.984375 
L 27.296875 75.984375 
L 25.09375 64.59375 
L 16.109375 64.59375 
z
M 14.203125 54.6875 
L 23.1875 54.6875 
L 12.5 0 
L 3.515625 0 
z
" id="DejaVuSans-Oblique-105"/>
       <path d="M 55.71875 33.015625 
L 49.3125 0 
L 40.28125 0 
L 46.6875 32.671875 
Q 47.125 34.96875 47.359375 36.71875 
Q 47.609375 38.484375 47.609375 39.5 
Q 47.609375 43.609375 45.015625 45.890625 
Q 42.4375 48.1875 37.796875 48.1875 
Q 30.5625 48.1875 25.34375 43.375 
Q 20.125 38.578125 18.5 30.328125 
L 12.5 0 
L 3.515625 0 
L 14.109375 54.6875 
L 23.09375 54.6875 
L 21.296875 46.09375 
Q 25.046875 50.828125 30.3125 53.40625 
Q 35.59375 56 41.40625 56 
Q 48.640625 56 52.609375 52.09375 
Q 56.59375 48.1875 56.59375 41.109375 
Q 56.59375 39.359375 56.375 37.359375 
Q 56.15625 35.359375 55.71875 33.015625 
z
" id="DejaVuSans-Oblique-110"/>
       <path d="M 10.6875 40.921875 
L 21 40.921875 
L 21 28.515625 
L 10.6875 28.515625 
z
" id="DejaVuSans-8901"/>
       <path d="M 55.71875 33.015625 
L 49.3125 0 
L 40.28125 0 
L 46.6875 32.671875 
Q 47.125 34.96875 47.359375 36.71875 
Q 47.609375 38.484375 47.609375 39.5 
Q 47.609375 43.609375 45.015625 45.890625 
Q 42.4375 48.1875 37.796875 48.1875 
Q 30.5625 48.1875 25.265625 43.296875 
Q 19.96875 38.421875 18.40625 30.328125 
L 12.5 0 
L 3.515625 0 
L 18.3125 75.984375 
L 27.296875 75.984375 
L 21.484375 46.09375 
Q 24.90625 50.6875 30.21875 53.34375 
Q 35.546875 56 41.40625 56 
Q 48.640625 56 52.609375 52.09375 
Q 56.59375 48.1875 56.59375 41.109375 
Q 56.59375 39.359375 56.375 37.359375 
Q 56.15625 35.359375 55.71875 33.015625 
z
" id="DejaVuSans-Oblique-104"/>
       <path d="M 11.40625 153 
L 11.40625 156.59375 
Q 28.203125 140.796875 38 117.296875 
Q 47.796875 93.796875 47.796875 64.296875 
Q 47.796875 34.90625 37.75 10.046875 
Q 27.703125 -14.796875 11.40625 -27.90625 
L 11.40625 -24.59375 
Q 22.796875 -12.90625 30.546875 9.890625 
Q 38.296875 32.703125 38.296875 64.296875 
Q 38.296875 119.90625 11.40625 153 
z
" id="STIXSizeTwoSym-Regular-41"/>
      </defs>
      <use transform="translate(0 0.01875)" xlink:href="#ArialMT-71"/>
      <use transform="translate(77.783203 0.01875)" xlink:href="#ArialMT-108"/>
      <use transform="translate(100 0.01875)" xlink:href="#ArialMT-117"/>
      <use transform="translate(155.615234 0.01875)" xlink:href="#ArialMT-99"/>
      <use transform="translate(205.615234 0.01875)" xlink:href="#ArialMT-111"/>
      <use transform="translate(261.230469 0.01875)" xlink:href="#ArialMT-115"/>
      <use transform="translate(311.230469 0.01875)" xlink:href="#ArialMT-101"/>
      <use transform="translate(366.845703 0.01875)" xlink:href="#ArialMT-32"/>
      <use transform="translate(394.628906 0.01875)" xlink:href="#ArialMT-85"/>
      <use transform="translate(466.845703 0.01875)" xlink:href="#ArialMT-112"/>
      <use transform="translate(522.460938 0.01875)" xlink:href="#ArialMT-116"/>
      <use transform="translate(550.244141 0.01875)" xlink:href="#ArialMT-97"/>
      <use transform="translate(605.859375 0.01875)" xlink:href="#ArialMT-107"/>
      <use transform="translate(655.859375 0.01875)" xlink:href="#ArialMT-101"/>
      <use transform="translate(711.474609 0.01875)" xlink:href="#ArialMT-32"/>
      <use transform="translate(739.257812 0.01875)" xlink:href="#ArialMT-82"/>
      <use transform="translate(811.474609 0.01875)" xlink:href="#ArialMT-97"/>
      <use transform="translate(867.089844 0.01875)" xlink:href="#ArialMT-116"/>
      <use transform="translate(894.873047 0.01875)" xlink:href="#ArialMT-101"/>
      <use transform="translate(950.488281 -38.063906)scale(0.868825)" xlink:href="#STIXSizeTwoSym-Regular-40"/>
      <use transform="translate(1076.657639 44.810938)scale(0.7)" xlink:href="#DejaVuSans-Oblique-109"/>
      <use transform="translate(1144.846115 44.810938)scale(0.7)" xlink:href="#DejaVuSans-Oblique-109"/>
      <use transform="translate(1213.034592 44.810938)scale(0.7)" xlink:href="#DejaVuSans-Oblique-111"/>
      <use transform="translate(1255.86174 44.810938)scale(0.7)" xlink:href="#DejaVuSans-Oblique-108"/>
      <use transform="translate(1001.657639 -40.623437)scale(0.7)" xlink:href="#DejaVuSans-Oblique-103"/>
      <use transform="translate(1046.091232 -52.107812)scale(0.49)" xlink:href="#DejaVuSans-Oblique-112"/>
      <use transform="translate(1077.194748 -52.107812)scale(0.49)" xlink:href="#DejaVuSans-Oblique-114"/>
      <use transform="translate(1097.340256 -52.107812)scale(0.49)" xlink:href="#DejaVuSans-Oblique-111"/>
      <use transform="translate(1127.31926 -52.107812)scale(0.49)" xlink:href="#DejaVuSans-Oblique-116"/>
      <use transform="translate(1146.531662 -52.107812)scale(0.49)" xlink:href="#DejaVuSans-Oblique-101"/>
      <use transform="translate(1176.678146 -52.107812)scale(0.49)" xlink:href="#DejaVuSans-Oblique-105"/>
      <use transform="translate(1190.291916 -52.107812)scale(0.49)" xlink:href="#DejaVuSans-Oblique-110"/>
      <use transform="translate(1236.899338 -40.623437)scale(0.7)" xlink:href="#DejaVuSans-8901"/>
      <use transform="translate(1272.78801 -40.623437)scale(0.7)" xlink:href="#DejaVuSans-Oblique-104"/>
      <use transform="translate(1317.153244 -40.623437)scale(0.7)" xlink:href="#DejaVuSans-Oblique-114"/>
      <use transform="translate(1363.60153 -38.063906)scale(0.868825)" xlink:href="#STIXSizeTwoSym-Regular-41"/>
      <path d="M 1001.657639 18.815625 
L 1001.657639 25.065625 
L 1351.10153 25.065625 
L 1351.10153 18.815625 
L 1001.657639 18.815625 
z
"/>
     </g>
    </g>
   </g>
   <g id="matplotlib.axis_2">
    <g id="ytick_1">
     <g id="text_8">
      <!-- 0 -->
      <g style="fill:#262626;" transform="translate(49.490313 490.674759)scale(0.18 -0.18)">
       <use xlink:href="#ArialMT-48"/>
      </g>
     </g>
    </g>
    <g id="ytick_2">
     <g id="text_9">
      <!-- 2 -->
      <g style="fill:#262626;" transform="translate(49.490313 430.810434)scale(0.18 -0.18)">
       <use xlink:href="#ArialMT-50"/>
      </g>
     </g>
    </g>
    <g id="ytick_3">
     <g id="text_10">
      <!-- 4 -->
      <g style="fill:#262626;" transform="translate(49.490313 370.946109)scale(0.18 -0.18)">
       <use xlink:href="#ArialMT-52"/>
      </g>
     </g>
    </g>
    <g id="ytick_4">
     <g id="text_11">
      <!-- 6 -->
      <g style="fill:#262626;" transform="translate(49.490313 311.081784)scale(0.18 -0.18)">
       <use xlink:href="#ArialMT-54"/>
      </g>
     </g>
    </g>
    <g id="ytick_5">
     <g id="text_12">
      <!-- 8 -->
      <g style="fill:#262626;" transform="translate(49.490313 251.21746)scale(0.18 -0.18)">
       <use xlink:href="#ArialMT-56"/>
      </g>
     </g>
    </g>
    <g id="ytick_6">
     <g id="text_13">
      <!-- 10 -->
      <g style="fill:#262626;" transform="translate(39.480625 191.353135)scale(0.18 -0.18)">
       <use xlink:href="#ArialMT-49"/>
       <use x="55.615234" xlink:href="#ArialMT-48"/>
      </g>
     </g>
    </g>
    <g id="ytick_7">
     <g id="text_14">
      <!-- 12 -->
      <g style="fill:#262626;" transform="translate(39.480625 131.48881)scale(0.18 -0.18)">
       <use xlink:href="#ArialMT-49"/>
       <use x="55.615234" xlink:href="#ArialMT-50"/>
      </g>
     </g>
    </g>
    <g id="text_15">
     <!-- Acetate Production Rate$ \left(\frac{mmol}{g_{protein} \cdot hr^{}}\right)$ -->
     <g style="fill:#262626;" transform="translate(20.990625 464.81)rotate(-90)scale(0.23 -0.23)">
      <defs>
       <path d="M -0.140625 0 
L 27.34375 71.578125 
L 37.546875 71.578125 
L 66.84375 0 
L 56.0625 0 
L 47.703125 21.6875 
L 17.78125 21.6875 
L 9.90625 0 
z
M 20.515625 29.390625 
L 44.78125 29.390625 
L 37.3125 49.21875 
Q 33.890625 58.25 32.234375 64.0625 
Q 30.859375 57.171875 28.375 50.390625 
z
" id="ArialMT-65"/>
       <path d="M 7.71875 0 
L 7.71875 71.578125 
L 34.71875 71.578125 
Q 41.84375 71.578125 45.609375 70.90625 
Q 50.875 70.015625 54.4375 67.546875 
Q 58.015625 65.09375 60.1875 60.640625 
Q 62.359375 56.203125 62.359375 50.875 
Q 62.359375 41.75 56.546875 35.421875 
Q 50.734375 29.109375 35.546875 29.109375 
L 17.1875 29.109375 
L 17.1875 0 
z
M 17.1875 37.546875 
L 35.6875 37.546875 
Q 44.875 37.546875 48.734375 40.96875 
Q 52.59375 44.390625 52.59375 50.59375 
Q 52.59375 55.078125 50.3125 58.265625 
Q 48.046875 61.46875 44.34375 62.5 
Q 41.9375 63.140625 35.5 63.140625 
L 17.1875 63.140625 
z
" id="ArialMT-80"/>
       <path d="M 6.5 0 
L 6.5 51.859375 
L 14.40625 51.859375 
L 14.40625 44 
Q 17.4375 49.515625 20 51.265625 
Q 22.5625 53.03125 25.640625 53.03125 
Q 30.078125 53.03125 34.671875 50.203125 
L 31.640625 42.046875 
Q 28.421875 43.953125 25.203125 43.953125 
Q 22.3125 43.953125 20.015625 42.21875 
Q 17.71875 40.484375 16.75 37.40625 
Q 15.28125 32.71875 15.28125 27.15625 
L 15.28125 0 
z
" id="ArialMT-114"/>
       <path d="M 40.234375 0 
L 40.234375 6.546875 
Q 35.296875 -1.171875 25.734375 -1.171875 
Q 19.53125 -1.171875 14.328125 2.25 
Q 9.125 5.671875 6.265625 11.796875 
Q 3.421875 17.921875 3.421875 25.875 
Q 3.421875 33.640625 6 39.96875 
Q 8.59375 46.296875 13.765625 49.65625 
Q 18.953125 53.03125 25.34375 53.03125 
Q 30.03125 53.03125 33.6875 51.046875 
Q 37.359375 49.078125 39.65625 45.90625 
L 39.65625 71.578125 
L 48.390625 71.578125 
L 48.390625 0 
z
M 12.453125 25.875 
Q 12.453125 15.921875 16.640625 10.984375 
Q 20.84375 6.0625 26.5625 6.0625 
Q 32.328125 6.0625 36.34375 10.765625 
Q 40.375 15.484375 40.375 25.140625 
Q 40.375 35.796875 36.265625 40.765625 
Q 32.171875 45.75 26.171875 45.75 
Q 20.3125 45.75 16.375 40.96875 
Q 12.453125 36.1875 12.453125 25.875 
z
" id="ArialMT-100"/>
       <path d="M 6.640625 61.46875 
L 6.640625 71.578125 
L 15.4375 71.578125 
L 15.4375 61.46875 
z
M 6.640625 0 
L 6.640625 51.859375 
L 15.4375 51.859375 
L 15.4375 0 
z
" id="ArialMT-105"/>
       <path d="M 6.59375 0 
L 6.59375 51.859375 
L 14.5 51.859375 
L 14.5 44.484375 
Q 20.21875 53.03125 31 53.03125 
Q 35.6875 53.03125 39.625 51.34375 
Q 43.5625 49.65625 45.515625 46.921875 
Q 47.46875 44.1875 48.25 40.4375 
Q 48.734375 37.984375 48.734375 31.890625 
L 48.734375 0 
L 39.9375 0 
L 39.9375 31.546875 
Q 39.9375 36.921875 38.90625 39.578125 
Q 37.890625 42.234375 35.28125 43.8125 
Q 32.671875 45.40625 29.15625 45.40625 
Q 23.53125 45.40625 19.453125 41.84375 
Q 15.375 38.28125 15.375 28.328125 
L 15.375 0 
z
" id="ArialMT-110"/>
      </defs>
      <use transform="translate(0 0.01875)" xlink:href="#ArialMT-65"/>
      <use transform="translate(66.699219 0.01875)" xlink:href="#ArialMT-99"/>
      <use transform="translate(116.699219 0.01875)" xlink:href="#ArialMT-101"/>
      <use transform="translate(172.314453 0.01875)" xlink:href="#ArialMT-116"/>
      <use transform="translate(200.097656 0.01875)" xlink:href="#ArialMT-97"/>
      <use transform="translate(255.712891 0.01875)" xlink:href="#ArialMT-116"/>
      <use transform="translate(283.496094 0.01875)" xlink:href="#ArialMT-101"/>
      <use transform="translate(339.111328 0.01875)" xlink:href="#ArialMT-32"/>
      <use transform="translate(366.894531 0.01875)" xlink:href="#ArialMT-80"/>
      <use transform="translate(433.59375 0.01875)" xlink:href="#ArialMT-114"/>
      <use transform="translate(466.894531 0.01875)" xlink:href="#ArialMT-111"/>
      <use transform="translate(522.509766 0.01875)" xlink:href="#ArialMT-100"/>
      <use transform="translate(578.125 0.01875)" xlink:href="#ArialMT-117"/>
      <use transform="translate(633.740234 0.01875)" xlink:href="#ArialMT-99"/>
      <use transform="translate(683.740234 0.01875)" xlink:href="#ArialMT-116"/>
      <use transform="translate(711.523438 0.01875)" xlink:href="#ArialMT-105"/>
      <use transform="translate(733.740234 0.01875)" xlink:href="#ArialMT-111"/>
      <use transform="translate(789.355469 0.01875)" xlink:href="#ArialMT-110"/>
      <use transform="translate(844.970703 0.01875)" xlink:href="#ArialMT-32"/>
      <use transform="translate(872.753906 0.01875)" xlink:href="#ArialMT-82"/>
      <use transform="translate(944.970703 0.01875)" xlink:href="#ArialMT-97"/>
      <use transform="translate(1000.585938 0.01875)" xlink:href="#ArialMT-116"/>
      <use transform="translate(1028.369141 0.01875)" xlink:href="#ArialMT-101"/>
      <use transform="translate(1083.984375 -38.063906)scale(0.868825)" xlink:href="#STIXSizeTwoSym-Regular-40"/>
      <use transform="translate(1210.153732 44.810938)scale(0.7)" xlink:href="#DejaVuSans-Oblique-109"/>
      <use transform="translate(1278.342209 44.810938)scale(0.7)" xlink:href="#DejaVuSans-Oblique-109"/>
      <use transform="translate(1346.530685 44.810938)scale(0.7)" xlink:href="#DejaVuSans-Oblique-111"/>
      <use transform="translate(1389.357834 44.810938)scale(0.7)" xlink:href="#DejaVuSans-Oblique-108"/>
      <use transform="translate(1135.153732 -40.623437)scale(0.7)" xlink:href="#DejaVuSans-Oblique-103"/>
      <use transform="translate(1179.587326 -52.107812)scale(0.49)" xlink:href="#DejaVuSans-Oblique-112"/>
      <use transform="translate(1210.690842 -52.107812)scale(0.49)" xlink:href="#DejaVuSans-Oblique-114"/>
      <use transform="translate(1230.836349 -52.107812)scale(0.49)" xlink:href="#DejaVuSans-Oblique-111"/>
      <use transform="translate(1260.815353 -52.107812)scale(0.49)" xlink:href="#DejaVuSans-Oblique-116"/>
      <use transform="translate(1280.027756 -52.107812)scale(0.49)" xlink:href="#DejaVuSans-Oblique-101"/>
      <use transform="translate(1310.17424 -52.107812)scale(0.49)" xlink:href="#DejaVuSans-Oblique-105"/>
      <use transform="translate(1323.78801 -52.107812)scale(0.49)" xlink:href="#DejaVuSans-Oblique-110"/>
      <use transform="translate(1370.395432 -40.623437)scale(0.7)" xlink:href="#DejaVuSans-8901"/>
      <use transform="translate(1406.284103 -40.623437)scale(0.7)" xlink:href="#DejaVuSans-Oblique-104"/>
      <use transform="translate(1450.649338 -40.623437)scale(0.7)" xlink:href="#DejaVuSans-Oblique-114"/>
      <use transform="translate(1497.097624 -38.063906)scale(0.868825)" xlink:href="#STIXSizeTwoSym-Regular-41"/>
      <path d="M 1135.153732 18.815625 
L 1135.153732 25.065625 
L 1484.597624 25.065625 
L 1484.597624 18.815625 
L 1135.153732 18.815625 
z
"/>
     </g>
    </g>
   </g>
   <g id="PathCollection_1">
    <path clip-path="url(#pb2ae47a98f)" d="M 202.911321 492.892981 
C 205.208047 492.892981 207.411015 491.980482 209.035045 490.356452 
C 210.659076 488.732421 211.571575 486.529453 211.571575 484.232727 
C 211.571575 481.936001 210.659076 479.733034 209.035045 478.109003 
C 207.411015 476.484972 205.208047 475.572473 202.911321 475.572473 
C 200.614595 475.572473 198.411627 476.484972 196.787597 478.109003 
C 195.163566 479.733034 194.251067 481.936001 194.251067 484.232727 
C 194.251067 486.529453 195.163566 488.732421 196.787597 490.356452 
C 198.411627 491.980482 200.614595 492.892981 202.911321 492.892981 
z
" style="fill:#808080;fill-opacity:0.7;stroke:#808080;stroke-opacity:0.7;stroke-width:1.385641;"/>
    <path clip-path="url(#pb2ae47a98f)" d="M 221.065645 492.892981 
C 223.362371 492.892981 225.565338 491.980482 227.189369 490.356452 
C 228.8134 488.732421 229.725899 486.529453 229.725899 484.232727 
C 229.725899 481.936001 228.8134 479.733034 227.189369 478.109003 
C 225.565338 476.484972 223.362371 475.572473 221.065645 475.572473 
C 218.768918 475.572473 216.565951 476.484972 214.94192 478.109003 
C 213.31789 479.733034 212.405391 481.936001 212.405391 484.232727 
C 212.405391 486.529453 213.31789 488.732421 214.94192 490.356452 
C 216.565951 491.980482 218.768918 492.892981 221.065645 492.892981 
z
" style="fill:#808080;fill-opacity:0.7;stroke:#808080;stroke-opacity:0.7;stroke-width:1.385641;"/>
    <path clip-path="url(#pb2ae47a98f)" d="M 228.427187 492.892981 
C 230.723913 492.892981 232.92688 491.980482 234.550911 490.356452 
C 236.174942 488.732421 237.087441 486.529453 237.087441 484.232727 
C 237.087441 481.936001 236.174942 479.733034 234.550911 478.109003 
C 232.92688 476.484972 230.723913 475.572473 228.427187 475.572473 
C 226.13046 475.572473 223.927493 476.484972 222.303462 478.109003 
C 220.679432 479.733034 219.766933 481.936001 219.766933 484.232727 
C 219.766933 486.529453 220.679432 488.732421 222.303462 490.356452 
C 223.927493 491.980482 226.13046 492.892981 228.427187 492.892981 
z
" style="fill:#808080;fill-opacity:0.7;stroke:#808080;stroke-opacity:0.7;stroke-width:1.385641;"/>
    <path clip-path="url(#pb2ae47a98f)" d="M 239.174347 492.892981 
C 241.471073 492.892981 243.674041 491.980482 245.298071 490.356452 
C 246.922102 488.732421 247.834601 486.529453 247.834601 484.232727 
C 247.834601 481.936001 246.922102 479.733034 245.298071 478.109003 
C 243.674041 476.484972 241.471073 475.572473 239.174347 475.572473 
C 236.877621 475.572473 234.674653 476.484972 233.050623 478.109003 
C 231.426592 479.733034 230.514093 481.936001 230.514093 484.232727 
C 230.514093 486.529453 231.426592 488.732421 233.050623 490.356452 
C 234.674653 491.980482 236.877621 492.892981 239.174347 492.892981 
z
" style="fill:#808080;fill-opacity:0.7;stroke:#808080;stroke-opacity:0.7;stroke-width:1.385641;"/>
    <path clip-path="url(#pb2ae47a98f)" d="M 256.362339 492.892981 
C 258.659065 492.892981 260.862032 491.980482 262.486063 490.356452 
C 264.110094 488.732421 265.022593 486.529453 265.022593 484.232727 
C 265.022593 481.936001 264.110094 479.733034 262.486063 478.109003 
C 260.862032 476.484972 258.659065 475.572473 256.362339 475.572473 
C 254.065612 475.572473 251.862645 476.484972 250.238614 478.109003 
C 248.614583 479.733034 247.702084 481.936001 247.702084 484.232727 
C 247.702084 486.529453 248.614583 488.732421 250.238614 490.356452 
C 251.862645 491.980482 254.065612 492.892981 256.362339 492.892981 
z
" style="fill:#808080;fill-opacity:0.7;stroke:#808080;stroke-opacity:0.7;stroke-width:1.385641;"/>
    <path clip-path="url(#pb2ae47a98f)" d="M 319.417231 470.996087 
C 321.713957 470.996087 323.916924 470.083588 325.540955 468.459557 
C 327.164986 466.835527 328.077485 464.632559 328.077485 462.335833 
C 328.077485 460.039107 327.164986 457.836139 325.540955 456.212109 
C 323.916924 454.588078 321.713957 453.675579 319.417231 453.675579 
C 317.120505 453.675579 314.917537 454.588078 313.293506 456.212109 
C 311.669476 457.836139 310.756977 460.039107 310.756977 462.335833 
C 310.756977 464.632559 311.669476 466.835527 313.293506 468.459557 
C 314.917537 470.083588 317.120505 470.996087 319.417231 470.996087 
z
" style="fill:#808080;fill-opacity:0.7;stroke:#808080;stroke-opacity:0.7;stroke-width:1.385641;"/>
    <path clip-path="url(#pb2ae47a98f)" d="M 307.970551 425.628869 
C 310.267277 425.628869 312.470245 424.71637 314.094275 423.092339 
C 315.718306 421.468308 316.630805 419.265341 316.630805 416.968615 
C 316.630805 414.671888 315.718306 412.468921 314.094275 410.84489 
C 312.470245 409.22086 310.267277 408.308361 307.970551 408.308361 
C 305.673825 408.308361 303.470857 409.22086 301.846827 410.84489 
C 300.222796 412.468921 299.310297 414.671888 299.310297 416.968615 
C 299.310297 419.265341 300.222796 421.468308 301.846827 423.092339 
C 303.470857 424.71637 305.673825 425.628869 307.970551 425.628869 
z
" style="fill:#808080;fill-opacity:0.7;stroke:#808080;stroke-opacity:0.7;stroke-width:1.385641;"/>
    <path clip-path="url(#pb2ae47a98f)" d="M 270.539355 473.509737 
C 272.836082 473.509737 275.039049 472.597238 276.66308 470.973207 
C 278.28711 469.349176 279.199609 467.146209 279.199609 464.849483 
C 279.199609 462.552756 278.28711 460.349789 276.66308 458.725758 
C 275.039049 457.101727 272.836082 456.189228 270.539355 456.189228 
C 268.242629 456.189228 266.039662 457.101727 264.415631 458.725758 
C 262.7916 460.349789 261.879101 462.552756 261.879101 464.849483 
C 261.879101 467.146209 262.7916 469.349176 264.415631 470.973207 
C 266.039662 472.597238 268.242629 473.509737 270.539355 473.509737 
z
" style="fill:#808080;fill-opacity:0.7;stroke:#808080;stroke-opacity:0.7;stroke-width:1.385641;"/>
    <path clip-path="url(#pb2ae47a98f)" d="M 313.982823 428.526282 
C 316.279549 428.526282 318.482517 427.613783 320.106547 425.989752 
C 321.730578 424.365721 322.643077 422.162754 322.643077 419.866028 
C 322.643077 417.569301 321.730578 415.366334 320.106547 413.742303 
C 318.482517 412.118273 316.279549 411.205774 313.982823 411.205774 
C 311.686097 411.205774 309.483129 412.118273 307.859099 413.742303 
C 306.235068 415.366334 305.322569 417.569301 305.322569 419.866028 
C 305.322569 422.162754 306.235068 424.365721 307.859099 425.989752 
C 309.483129 427.613783 311.686097 428.526282 313.982823 428.526282 
z
" style="fill:#808080;fill-opacity:0.7;stroke:#808080;stroke-opacity:0.7;stroke-width:1.385641;"/>
    <path clip-path="url(#pb2ae47a98f)" d="M 397.438519 271.733389 
C 399.735245 271.733389 401.938212 270.82089 403.562243 269.196859 
C 405.186274 267.572828 406.098773 265.369861 406.098773 263.073135 
C 406.098773 260.776409 405.186274 258.573441 403.562243 256.94941 
C 401.938212 255.32538 399.735245 254.412881 397.438519 254.412881 
C 395.141792 254.412881 392.938825 255.32538 391.314794 256.94941 
C 389.690764 258.573441 388.778265 260.776409 388.778265 263.073135 
C 388.778265 265.369861 389.690764 267.572828 391.314794 269.196859 
C 392.938825 270.82089 395.141792 271.733389 397.438519 271.733389 
z
" style="fill:#808080;fill-opacity:0.7;stroke:#808080;stroke-opacity:0.7;stroke-width:1.385641;"/>
    <path clip-path="url(#pb2ae47a98f)" d="M 134.914142 492.892981 
L 139.244269 488.562854 
L 143.574396 492.892981 
L 147.904523 488.562854 
L 143.574396 484.232727 
L 147.904523 479.9026 
L 143.574396 475.572473 
L 139.244269 479.9026 
L 134.914142 475.572473 
L 130.584015 479.9026 
L 134.914142 484.232727 
L 130.584015 488.562854 
z
" style="fill:#808080;fill-opacity:0.7;stroke:#808080;stroke-opacity:0.7;stroke-width:1.385641;"/>
    <path clip-path="url(#pb2ae47a98f)" d="M 141.775802 492.892981 
L 146.105929 488.562854 
L 150.436056 492.892981 
L 154.766183 488.562854 
L 150.436056 484.232727 
L 154.766183 479.9026 
L 150.436056 475.572473 
L 146.105929 479.9026 
L 141.775802 475.572473 
L 137.445675 479.9026 
L 141.775802 484.232727 
L 137.445675 488.562854 
z
" style="fill:#808080;fill-opacity:0.7;stroke:#808080;stroke-opacity:0.7;stroke-width:1.385641;"/>
    <path clip-path="url(#pb2ae47a98f)" d="M 164.321256 492.892981 
L 168.651383 488.562854 
L 172.98151 492.892981 
L 177.311637 488.562854 
L 172.98151 484.232727 
L 177.311637 479.9026 
L 172.98151 475.572473 
L 168.651383 479.9026 
L 164.321256 475.572473 
L 159.991129 479.9026 
L 164.321256 484.232727 
L 159.991129 488.562854 
z
" style="fill:#808080;fill-opacity:0.7;stroke:#808080;stroke-opacity:0.7;stroke-width:1.385641;"/>
    <path clip-path="url(#pb2ae47a98f)" d="M 224.115723 492.892981 
L 228.44585 488.562854 
L 232.775977 492.892981 
L 237.106104 488.562854 
L 232.775977 484.232727 
L 237.106104 479.9026 
L 232.775977 475.572473 
L 228.44585 479.9026 
L 224.115723 475.572473 
L 219.785596 479.9026 
L 224.115723 484.232727 
L 219.785596 488.562854 
z
" style="fill:#808080;fill-opacity:0.7;stroke:#808080;stroke-opacity:0.7;stroke-width:1.385641;"/>
    <path clip-path="url(#pb2ae47a98f)" d="M 233.037841 485.858923 
L 237.367968 481.528796 
L 241.698095 485.858923 
L 246.028222 481.528796 
L 241.698095 477.198669 
L 246.028222 472.868542 
L 241.698095 468.538415 
L 237.367968 472.868542 
L 233.037841 468.538415 
L 228.707714 472.868542 
L 233.037841 477.198669 
L 228.707714 481.528796 
z
" style="fill:#808080;fill-opacity:0.7;stroke:#808080;stroke-opacity:0.7;stroke-width:1.385641;"/>
    <path clip-path="url(#pb2ae47a98f)" d="M 330.45577 392.021594 
L 334.785897 387.691467 
L 339.116024 392.021594 
L 343.446151 387.691467 
L 339.116024 383.36134 
L 343.446151 379.031213 
L 339.116024 374.701086 
L 334.785897 379.031213 
L 330.45577 374.701086 
L 326.125643 379.031213 
L 330.45577 383.36134 
L 326.125643 387.691467 
z
" style="fill:#808080;fill-opacity:0.7;stroke:#808080;stroke-opacity:0.7;stroke-width:1.385641;"/>
    <path clip-path="url(#pb2ae47a98f)" d="M 402.048371 160.645979 
L 406.378498 156.315852 
L 410.708625 160.645979 
L 415.038752 156.315852 
L 410.708625 151.985725 
L 415.038752 147.655598 
L 410.708625 143.325471 
L 406.378498 147.655598 
L 402.048371 143.325471 
L 397.718244 147.655598 
L 402.048371 151.985725 
L 397.718244 156.315852 
z
" style="fill:#808080;fill-opacity:0.7;stroke:#808080;stroke-opacity:0.7;stroke-width:1.385641;"/>
    <path clip-path="url(#pb2ae47a98f)" d="M 135.36622 478.109003 
L 135.36622 490.356452 
L 147.613669 490.356452 
L 147.613669 478.109003 
z
" style="fill:#808080;fill-opacity:0.7;stroke:#808080;stroke-opacity:0.7;stroke-width:1.385641;"/>
    <path clip-path="url(#pb2ae47a98f)" d="M 144.83807 478.109003 
L 144.83807 490.356452 
L 157.085518 490.356452 
L 157.085518 478.109003 
z
" style="fill:#808080;fill-opacity:0.7;stroke:#808080;stroke-opacity:0.7;stroke-width:1.385641;"/>
    <path clip-path="url(#pb2ae47a98f)" d="M 184.990591 478.109003 
L 184.990591 490.356452 
L 197.23804 490.356452 
L 197.23804 478.109003 
z
" style="fill:#808080;fill-opacity:0.7;stroke:#808080;stroke-opacity:0.7;stroke-width:1.385641;"/>
    <path clip-path="url(#pb2ae47a98f)" d="M 191.456711 475.96586 
L 191.456711 488.213309 
L 203.70416 488.213309 
L 203.70416 475.96586 
z
" style="fill:#808080;fill-opacity:0.7;stroke:#808080;stroke-opacity:0.7;stroke-width:1.385641;"/>
    <path clip-path="url(#pb2ae47a98f)" d="M 232.207313 475.96586 
L 232.207313 488.213309 
L 244.454762 488.213309 
L 244.454762 475.96586 
z
" style="fill:#808080;fill-opacity:0.7;stroke:#808080;stroke-opacity:0.7;stroke-width:1.385641;"/>
    <path clip-path="url(#pb2ae47a98f)" d="M 236.245027 475.96586 
L 236.245027 488.213309 
L 248.492476 488.213309 
L 248.492476 475.96586 
z
" style="fill:#808080;fill-opacity:0.7;stroke:#808080;stroke-opacity:0.7;stroke-width:1.385641;"/>
    <path clip-path="url(#pb2ae47a98f)" d="M 252.127965 475.96586 
L 252.127965 488.213309 
L 264.375413 488.213309 
L 264.375413 475.96586 
z
" style="fill:#808080;fill-opacity:0.7;stroke:#808080;stroke-opacity:0.7;stroke-width:1.385641;"/>
    <path clip-path="url(#pb2ae47a98f)" d="M 269.393792 475.96586 
L 269.393792 488.213309 
L 281.641241 488.213309 
L 281.641241 475.96586 
z
" style="fill:#808080;fill-opacity:0.7;stroke:#808080;stroke-opacity:0.7;stroke-width:1.385641;"/>
    <path clip-path="url(#pb2ae47a98f)" d="M 281.983233 475.96586 
L 281.983233 488.213309 
L 294.230681 488.213309 
L 294.230681 475.96586 
z
" style="fill:#808080;fill-opacity:0.7;stroke:#808080;stroke-opacity:0.7;stroke-width:1.385641;"/>
    <path clip-path="url(#pb2ae47a98f)" d="M 286.219528 473.828704 
L 286.219528 486.076152 
L 298.466977 486.076152 
L 298.466977 473.828704 
z
" style="fill:#808080;fill-opacity:0.7;stroke:#808080;stroke-opacity:0.7;stroke-width:1.385641;"/>
    <path clip-path="url(#pb2ae47a98f)" d="M 297.542954 446.081589 
L 297.542954 458.329038 
L 309.790402 458.329038 
L 309.790402 446.081589 
z
" style="fill:#808080;fill-opacity:0.7;stroke:#808080;stroke-opacity:0.7;stroke-width:1.385641;"/>
    <path clip-path="url(#pb2ae47a98f)" d="M 301.09945 441.591765 
L 301.09945 453.839214 
L 313.346899 453.839214 
L 313.346899 441.591765 
z
" style="fill:#808080;fill-opacity:0.7;stroke:#808080;stroke-opacity:0.7;stroke-width:1.385641;"/>
    <path clip-path="url(#pb2ae47a98f)" d="M 321.558436 428.720935 
L 321.558436 440.968384 
L 333.805884 440.968384 
L 333.805884 428.720935 
z
" style="fill:#808080;fill-opacity:0.7;stroke:#808080;stroke-opacity:0.7;stroke-width:1.385641;"/>
    <path clip-path="url(#pb2ae47a98f)" d="M 157.334593 492.892981 
L 163.108095 492.892981 
L 163.108095 487.119479 
L 168.881598 487.119479 
L 168.881598 481.345976 
L 163.108095 481.345976 
L 163.108095 475.572473 
L 157.334593 475.572473 
L 157.334593 481.345976 
L 151.56109 481.345976 
L 151.56109 487.119479 
L 157.334593 487.119479 
z
" style="fill:#808080;fill-opacity:0.7;stroke:#808080;stroke-opacity:0.7;stroke-width:1.385641;"/>
    <path clip-path="url(#pb2ae47a98f)" d="M 267.928869 318.687796 
L 273.702372 318.687796 
L 273.702372 312.914294 
L 279.475875 312.914294 
L 279.475875 307.140791 
L 273.702372 307.140791 
L 273.702372 301.367288 
L 267.928869 301.367288 
L 267.928869 307.140791 
L 262.155367 307.140791 
L 262.155367 312.914294 
L 267.928869 312.914294 
z
" style="fill:#daa520;fill-opacity:0.7;stroke:#daa520;stroke-opacity:0.7;stroke-width:1.385641;"/>
    <path clip-path="url(#pb2ae47a98f)" d="M 303.193881 492.892981 
L 308.967384 492.892981 
L 308.967384 487.119479 
L 314.740886 487.119479 
L 314.740886 481.345976 
L 308.967384 481.345976 
L 308.967384 475.572473 
L 303.193881 475.572473 
L 303.193881 481.345976 
L 297.420378 481.345976 
L 297.420378 487.119479 
L 303.193881 487.119479 
z
" style="fill:#808080;fill-opacity:0.7;stroke:#808080;stroke-opacity:0.7;stroke-width:1.385641;"/>
    <path clip-path="url(#pb2ae47a98f)" d="M 427.844759 215.421836 
L 433.618261 215.421836 
L 433.618261 209.648334 
L 439.391764 209.648334 
L 439.391764 203.874831 
L 433.618261 203.874831 
L 433.618261 198.101328 
L 427.844759 198.101328 
L 427.844759 203.874831 
L 422.071256 203.874831 
L 422.071256 209.648334 
L 427.844759 209.648334 
z
" style="fill:#daa520;fill-opacity:0.7;stroke:#daa520;stroke-opacity:0.7;stroke-width:1.385641;"/>
    <path clip-path="url(#pb2ae47a98f)" d="M 164.926482 475.572473 
L 156.266228 484.232727 
L 164.926482 492.892981 
L 173.586736 484.232727 
z
" style="fill:#808080;fill-opacity:0.7;stroke:#808080;stroke-opacity:0.7;stroke-width:1.385641;"/>
    <path clip-path="url(#pb2ae47a98f)" d="M 249.618972 475.572473 
L 240.958718 484.232727 
L 249.618972 492.892981 
L 258.279226 484.232727 
z
" style="fill:#808080;fill-opacity:0.7;stroke:#808080;stroke-opacity:0.7;stroke-width:1.385641;"/>
    <path clip-path="url(#pb2ae47a98f)" d="M 201.344253 404.93257 
L 192.683999 413.592824 
L 201.344253 422.253078 
L 210.004507 413.592824 
z
" style="fill:#daa520;fill-opacity:0.7;stroke:#daa520;stroke-opacity:0.7;stroke-width:1.385641;"/>
    <path clip-path="url(#pb2ae47a98f)" d="M 175.513043 475.572473 
L 166.852789 484.232727 
L 175.513043 492.892981 
L 184.173298 484.232727 
z
" style="fill:#808080;fill-opacity:0.7;stroke:#808080;stroke-opacity:0.7;stroke-width:1.385641;"/>
    <path clip-path="url(#pb2ae47a98f)" d="M 261.381818 475.572473 
L 252.721564 484.232727 
L 261.381818 492.892981 
L 270.042072 484.232727 
z
" style="fill:#808080;fill-opacity:0.7;stroke:#808080;stroke-opacity:0.7;stroke-width:1.385641;"/>
    <path clip-path="url(#pb2ae47a98f)" d="M 221.446957 410.320359 
L 212.786702 418.980613 
L 221.446957 427.640867 
L 230.107211 418.980613 
z
" style="fill:#daa520;fill-opacity:0.7;stroke:#daa520;stroke-opacity:0.7;stroke-width:1.385641;"/>
    <path clip-path="url(#pb2ae47a98f)" d="M 157.786435 475.572473 
L 154.724573 481.170865 
L 149.126181 484.232727 
L 154.724573 487.294589 
L 157.786435 492.892981 
L 160.848297 487.294589 
L 166.446689 484.232727 
L 160.848297 481.170865 
z
" style="fill:#808080;fill-opacity:0.7;stroke:#808080;stroke-opacity:0.7;stroke-width:1.385641;"/>
    <path clip-path="url(#pb2ae47a98f)" d="M 231.927652 388.497092 
L 228.86579 394.095484 
L 223.267398 397.157346 
L 228.86579 400.219208 
L 231.927652 405.8176 
L 234.989514 400.219208 
L 240.587906 397.157346 
L 234.989514 394.095484 
z
" style="fill:#daa520;fill-opacity:0.7;stroke:#daa520;stroke-opacity:0.7;stroke-width:1.385641;"/>
    <path clip-path="url(#pb2ae47a98f)" d="M 228.822261 386.098829 
L 220.162007 403.419337 
L 237.482515 403.419337 
z
" style="fill:#daa520;fill-opacity:0.7;stroke:#daa520;stroke-opacity:0.7;stroke-width:1.385641;"/>
    <path clip-path="url(#pb2ae47a98f)" d="M 239.302957 391.633281 
L 230.642702 408.953789 
L 247.963211 408.953789 
z
" style="fill:#daa520;fill-opacity:0.7;stroke:#daa520;stroke-opacity:0.7;stroke-width:1.385641;"/>
    <path clip-path="url(#pb2ae47a98f)" d="M 243.961043 387.482442 
L 235.300789 404.80295 
L 252.621298 404.80295 
z
" style="fill:#daa520;fill-opacity:0.7;stroke:#daa520;stroke-opacity:0.7;stroke-width:1.385641;"/>
    <path clip-path="url(#pb2ae47a98f)" d="M 273.850435 322.452629 
L 265.190181 339.773137 
L 282.510689 339.773137 
z
" style="fill:#daa520;fill-opacity:0.7;stroke:#daa520;stroke-opacity:0.7;stroke-width:1.385641;"/>
    <path clip-path="url(#pb2ae47a98f)" d="M 302.963478 261.573655 
L 294.303224 278.894163 
L 311.623732 278.894163 
z
" style="fill:#daa520;fill-opacity:0.7;stroke:#daa520;stroke-opacity:0.7;stroke-width:1.385641;"/>
    <path clip-path="url(#pb2ae47a98f)" d="M 150.110015 469.945686 
L 151.903612 476.06941 
L 150.110015 482.193135 
L 156.233739 480.399537 
L 162.357463 482.193135 
L 160.563866 476.06941 
L 162.357463 469.945686 
L 156.233739 471.739283 
z
" style="fill:#808080;fill-opacity:0.7;stroke:#808080;stroke-opacity:0.7;stroke-width:1.385641;"/>
    <path clip-path="url(#pb2ae47a98f)" d="M 193.585493 450.353725 
L 195.37909 456.477449 
L 193.585493 462.601174 
L 199.709217 460.807576 
L 205.832942 462.601174 
L 204.039344 456.477449 
L 205.832942 450.353725 
L 199.709217 452.147322 
z
" style="fill:#daa520;fill-opacity:0.7;stroke:#daa520;stroke-opacity:0.7;stroke-width:1.385641;"/>
    <path clip-path="url(#pb2ae47a98f)" d="M 230.76313 398.742725 
L 239.423384 381.422217 
L 222.102876 381.422217 
z
" style="fill:#808080;fill-opacity:0.7;stroke:#808080;stroke-opacity:0.7;stroke-width:1.385641;"/>
    <path clip-path="url(#pb2ae47a98f)" d="M 274.238609 339.422622 
L 282.898863 322.102114 
L 265.578355 322.102114 
z
" style="fill:#daa520;fill-opacity:0.7;stroke:#daa520;stroke-opacity:0.7;stroke-width:1.385641;"/>
    <path clip-path="url(#pb2ae47a98f)" d="M 214.011438 476.732727 
L 214.591565 482.067664 
L 209.681311 484.232727 
L 214.591565 486.397791 
L 214.011438 491.732727 
L 218.341565 488.562854 
L 222.671692 491.732727 
L 222.091565 486.397791 
L 227.001819 484.232727 
L 222.091565 482.067664 
L 222.671692 476.732727 
L 218.341565 479.9026 
z
" style="fill:#808080;fill-opacity:0.7;stroke:#808080;stroke-opacity:0.7;stroke-width:1.385641;"/>
    <path clip-path="url(#pb2ae47a98f)" d="M 243.124482 476.188506 
L 243.704609 481.523443 
L 238.794355 483.688506 
L 243.704609 485.85357 
L 243.124482 491.188506 
L 247.454609 488.018633 
L 251.784736 491.188506 
L 251.204609 485.85357 
L 256.114863 483.688506 
L 251.204609 481.523443 
L 251.784736 476.188506 
L 247.454609 479.358379 
z
" style="fill:#808080;fill-opacity:0.7;stroke:#808080;stroke-opacity:0.7;stroke-width:1.385641;"/>
    <path clip-path="url(#pb2ae47a98f)" d="M 281.941873 428.841268 
L 282.522 434.176204 
L 277.611746 436.341268 
L 282.522 438.506331 
L 281.941873 443.841268 
L 286.272 440.671395 
L 290.602127 443.841268 
L 290.022 438.506331 
L 294.932254 436.341268 
L 290.022 434.176204 
L 290.602127 428.841268 
L 286.272 432.01114 
z
" style="fill:#808080;fill-opacity:0.7;stroke:#808080;stroke-opacity:0.7;stroke-width:1.385641;"/>
    <path clip-path="url(#pb2ae47a98f)" d="M 323.864656 404.351317 
L 324.444783 409.686253 
L 319.534529 411.851317 
L 324.444783 414.01638 
L 323.864656 419.351317 
L 328.194783 416.181444 
L 332.52491 419.351317 
L 331.944783 414.01638 
L 336.855037 411.851317 
L 331.944783 409.686253 
L 332.52491 404.351317 
L 328.194783 407.521189 
z
" style="fill:#808080;fill-opacity:0.7;stroke:#808080;stroke-opacity:0.7;stroke-width:1.385641;"/>
    <path clip-path="url(#pb2ae47a98f)" d="M 159.278916 469.113631 
L 154.948789 476.613631 
L 159.278916 484.113631 
L 167.93917 484.113631 
L 172.269298 476.613631 
L 167.93917 469.113631 
z
" style="fill:#808080;fill-opacity:0.7;stroke:#808080;stroke-opacity:0.7;stroke-width:1.385641;"/>
    <path clip-path="url(#pb2ae47a98f)" d="M 246.229873 455.508103 
L 241.899746 463.008103 
L 246.229873 470.508103 
L 254.890127 470.508103 
L 259.220254 463.008103 
L 254.890127 455.508103 
z
" style="fill:#808080;fill-opacity:0.7;stroke:#808080;stroke-opacity:0.7;stroke-width:1.385641;"/>
    <path clip-path="url(#pb2ae47a98f)" d="M 314.936656 446.183781 
L 310.606529 453.683781 
L 314.936656 461.183781 
L 323.59691 461.183781 
L 327.927037 453.683781 
L 323.59691 446.183781 
z
" style="fill:#808080;fill-opacity:0.7;stroke:#808080;stroke-opacity:0.7;stroke-width:1.385641;"/>
    <path clip-path="url(#pb2ae47a98f)" d="M 437.659826 174.513974 
L 435.114641 179.671081 
L 429.423435 180.498062 
L 433.541631 184.512311 
L 432.569456 190.18052 
L 437.659826 187.504355 
L 442.750196 190.18052 
L 441.778022 184.512311 
L 445.896217 180.498062 
L 440.205011 179.671081 
z
" style="fill:#808080;fill-opacity:0.7;stroke:#808080;stroke-opacity:0.7;stroke-width:1.385641;"/>
    <path clip-path="url(#pb2ae47a98f)" d="M 410.099478 225.107065 
L 407.554293 230.264173 
L 401.863087 231.091153 
L 405.981283 235.105402 
L 405.009109 240.773612 
L 410.099478 238.097446 
L 415.189848 240.773612 
L 414.217674 235.105402 
L 418.335869 231.091153 
L 412.644663 230.264173 
z
" style="fill:#808080;fill-opacity:0.7;stroke:#808080;stroke-opacity:0.7;stroke-width:1.385641;"/>
    <path clip-path="url(#pb2ae47a98f)" d="M 376.716522 295.714025 
L 374.171337 300.871133 
L 368.480131 301.698114 
L 372.598326 305.712362 
L 371.626152 311.380572 
L 376.716522 308.704406 
L 381.806891 311.380572 
L 380.834717 305.712362 
L 384.952913 301.698114 
L 379.261707 300.871133 
z
" style="fill:#808080;fill-opacity:0.7;stroke:#808080;stroke-opacity:0.7;stroke-width:1.385641;"/>
    <path clip-path="url(#pb2ae47a98f)" d="M 349.156174 323.728058 
L 346.610989 328.885166 
L 340.919783 329.712147 
L 345.037978 333.726395 
L 344.065804 339.394605 
L 349.156174 336.718439 
L 354.246544 339.394605 
L 353.274369 333.726395 
L 357.392565 329.712147 
L 351.701359 328.885166 
z
" style="fill:#808080;fill-opacity:0.7;stroke:#808080;stroke-opacity:0.7;stroke-width:1.385641;"/>
    <path clip-path="url(#pb2ae47a98f)" d="M 287.824696 475.572473 
L 285.279511 480.729581 
L 279.588305 481.556562 
L 283.7065 485.57081 
L 282.734326 491.23902 
L 287.824696 488.562854 
L 292.915065 491.23902 
L 291.942891 485.57081 
L 296.061087 481.556562 
L 290.36988 480.729581 
z
" style="fill:#808080;fill-opacity:0.7;stroke:#808080;stroke-opacity:0.7;stroke-width:1.385641;"/>
   </g>
   <g id="PathCollection_2"/>
   <g id="PathCollection_3"/>
   <g id="PathCollection_4"/>
   <g id="PathCollection_5"/>
   <g id="PathCollection_6"/>
   <g id="PathCollection_7"/>
   <g id="PathCollection_8"/>
   <g id="PathCollection_9"/>
   <g id="PathCollection_10"/>
   <g id="PathCollection_11"/>
   <g id="PathCollection_12"/>
   <g id="PathCollection_13"/>
   <g id="PathCollection_14"/>
   <g id="PathCollection_15"/>
   <g id="PolyCollection_1">
    <defs>
     <path d="M 114.69913 -91.767273 
L 114.69913 -91.767273 
L 116.727778 -91.767273 
L 118.756426 -91.767273 
L 120.785073 -91.767273 
L 122.813721 -91.767273 
L 124.842368 -91.767273 
L 126.871016 -91.767273 
L 128.899664 -91.767273 
L 130.928311 -91.767273 
L 132.956959 -91.767273 
L 134.985606 -91.767273 
L 137.014254 -91.767273 
L 139.042901 -91.767273 
L 141.071549 -91.767273 
L 143.100197 -91.767273 
L 145.128844 -91.767273 
L 147.157492 -91.767273 
L 149.186139 -91.767273 
L 151.214787 -91.767273 
L 153.243435 -91.767273 
L 155.272082 -91.767273 
L 157.30073 -91.767273 
L 159.329377 -91.767273 
L 161.358025 -91.767273 
L 163.386672 -91.767273 
L 165.41532 -91.767273 
L 167.443968 -91.767273 
L 169.472615 -91.767273 
L 171.501263 -91.767273 
L 173.52991 -91.767273 
L 175.558558 -91.767273 
L 177.587206 -91.767273 
L 179.615853 -91.767273 
L 181.644501 -91.767273 
L 183.673148 -91.767273 
L 185.701796 -91.767273 
L 187.730444 -91.767273 
L 189.759091 -91.767273 
L 191.787739 -91.767273 
L 193.816386 -91.767273 
L 195.845034 -91.767273 
L 197.873681 -91.767273 
L 199.902329 -91.767273 
L 201.930977 -91.767273 
L 203.959624 -91.767273 
L 205.988272 -91.767273 
L 208.016919 -91.767273 
L 210.045567 -91.767273 
L 212.074215 -91.767273 
L 214.102862 -91.767273 
L 216.13151 -91.767273 
L 218.160157 -91.767273 
L 220.188805 -91.767273 
L 222.217452 -91.767273 
L 224.2461 -91.767273 
L 226.274748 -91.767273 
L 228.303395 -91.767273 
L 230.332043 -91.767273 
L 232.36069 -91.767273 
L 234.389338 -91.767273 
L 236.417986 -91.767273 
L 238.446633 -91.767273 
L 240.475281 -91.767273 
L 242.503928 -91.767273 
L 244.532576 -91.767273 
L 246.561224 -91.767273 
L 248.589871 -91.767273 
L 250.618519 -91.767273 
L 252.647166 -91.767273 
L 254.675814 -91.767273 
L 256.704461 -91.767273 
L 258.733109 -91.767273 
L 260.761757 -91.767273 
L 262.790404 -91.767273 
L 264.819052 -91.767273 
L 266.847699 -91.767273 
L 268.876347 -91.767273 
L 270.904995 -91.767273 
L 272.933642 -91.767273 
L 274.96229 -91.767273 
L 276.990937 -91.767273 
L 279.019585 -91.767273 
L 281.048232 -91.767273 
L 283.07688 -91.767273 
L 285.105528 -91.767273 
L 287.134175 -91.767273 
L 289.162823 -91.767273 
L 291.19147 -91.767273 
L 293.220118 -91.767273 
L 295.248766 -91.767273 
L 297.277413 -91.767273 
L 299.306061 -91.767273 
L 301.334708 -91.767273 
L 303.363356 -91.767273 
L 305.392003 -91.767273 
L 307.420651 -91.767273 
L 309.449299 -91.767273 
L 311.477946 -91.767273 
L 313.506594 -91.767273 
L 315.535241 -91.767273 
L 317.563889 -91.767273 
L 319.592537 -91.767273 
L 321.621184 -91.767273 
L 323.649832 -91.767273 
L 325.678479 -95.711362 
L 327.707127 -99.851997 
L 329.735775 -103.992632 
L 331.764422 -108.133266 
L 333.79307 -112.273901 
L 335.821717 -116.414536 
L 337.850365 -120.555171 
L 339.879012 -124.695807 
L 341.90766 -128.836441 
L 343.936308 -132.977076 
L 345.964955 -137.117711 
L 347.993603 -141.258346 
L 350.02225 -145.398981 
L 352.050898 -149.539615 
L 354.079546 -153.68025 
L 356.108193 -157.820885 
L 358.136841 -161.96152 
L 360.165488 -166.102154 
L 362.194136 -170.242789 
L 364.222783 -174.383424 
L 366.251431 -178.524059 
L 368.280079 -182.664694 
L 370.308726 -186.805325 
L 372.337374 -190.934551 
L 374.366021 -195.001398 
L 376.394669 -199.068244 
L 378.423317 -203.135091 
L 380.451964 -207.201938 
L 382.480612 -211.268776 
L 384.509259 -215.335623 
L 386.537907 -219.40247 
L 388.566555 -223.469317 
L 390.595202 -227.800569 
L 392.62385 -232.133296 
L 394.652497 -236.466031 
L 396.681145 -240.633582 
L 398.709792 -244.774214 
L 400.73844 -248.914855 
L 402.767088 -253.055488 
L 404.795735 -257.19612 
L 406.824383 -261.336752 
L 408.85303 -265.477394 
L 410.881678 -269.618026 
L 412.910326 -273.758658 
L 414.938973 -277.89929 
L 416.967621 -282.039932 
L 418.996268 -286.180564 
L 421.024916 -290.321196 
L 423.053563 -294.461838 
L 425.082211 -298.60247 
L 427.110859 -302.743102 
L 429.139506 -306.883735 
L 431.168154 -311.024376 
L 433.196801 -315.165008 
L 435.225449 -319.305641 
L 437.254097 -323.446282 
L 439.282744 -327.586914 
L 441.311392 -331.727547 
L 443.340039 -335.868179 
L 445.368687 -340.00882 
L 447.397334 -344.149453 
L 449.425982 -348.290085 
L 451.45463 -352.430726 
L 453.483277 -356.571359 
L 455.511925 -360.711991 
L 457.540572 -364.852623 
L 459.56922 -368.993265 
L 461.597868 -373.133897 
L 463.626515 -377.154329 
L 465.655163 -381.157143 
L 467.68381 -385.159958 
L 469.712458 -389.162773 
L 471.741106 -393.165587 
L 473.769753 -397.168402 
L 475.798401 -401.171217 
L 477.827048 -405.174031 
L 479.855696 -409.176846 
L 481.884343 -413.179661 
L 483.912991 -417.182466 
L 485.941639 -421.18528 
L 487.970286 -425.188095 
L 489.998934 -429.19091 
L 492.027581 -433.193724 
L 494.056229 -437.196539 
L 496.084877 -441.199354 
L 498.113524 -445.202168 
L 500.142172 -449.204983 
L 502.170819 -453.207798 
L 504.199467 -457.210613 
L 506.228114 -461.393688 
L 508.256762 -465.680196 
L 510.28541 -469.966704 
L 512.314057 -474.253212 
L 514.342705 -478.53972 
L 516.371352 -482.826219 
L 518.4 -487.112727 
L 518.4 -255.396669 
L 518.4 -255.396669 
L 516.371352 -250.811951 
L 514.342705 -246.227244 
L 512.314057 -241.642525 
L 510.28541 -237.057818 
L 508.256762 -232.4731 
L 506.228114 -227.888382 
L 504.199467 -223.108003 
L 502.170819 -218.190542 
L 500.142172 -213.273091 
L 498.113524 -208.35563 
L 496.084877 -203.438169 
L 494.056229 -198.520709 
L 492.027581 -193.603257 
L 489.998934 -188.685796 
L 487.970286 -183.768336 
L 485.941639 -178.850879 
L 483.912991 -173.933421 
L 481.884343 -169.015963 
L 479.855696 -164.098505 
L 477.827048 -159.181047 
L 475.798401 -154.263588 
L 473.769753 -149.34613 
L 471.741106 -144.428672 
L 469.712458 -139.511213 
L 467.68381 -134.593755 
L 465.655163 -129.676297 
L 463.626515 -124.758839 
L 461.597868 -119.84138 
L 459.56922 -114.923922 
L 457.540572 -110.006464 
L 455.511925 -105.089006 
L 453.483277 -100.171547 
L 451.45463 -95.254089 
L 449.425982 -91.767273 
L 447.397334 -91.767273 
L 445.368687 -91.767273 
L 443.340039 -91.767273 
L 441.311392 -91.767273 
L 439.282744 -91.767273 
L 437.254097 -91.767273 
L 435.225449 -91.767273 
L 433.196801 -91.767273 
L 431.168154 -91.767273 
L 429.139506 -91.767273 
L 427.110859 -91.767273 
L 425.082211 -91.767273 
L 423.053563 -91.767273 
L 421.024916 -91.767273 
L 418.996268 -91.767273 
L 416.967621 -91.767273 
L 414.938973 -91.767273 
L 412.910326 -91.767273 
L 410.881678 -91.767273 
L 408.85303 -91.767273 
L 406.824383 -91.767273 
L 404.795735 -91.767273 
L 402.767088 -91.767273 
L 400.73844 -91.767273 
L 398.709792 -91.767273 
L 396.681145 -91.767273 
L 394.652497 -91.767273 
L 392.62385 -91.767273 
L 390.595202 -91.767273 
L 388.566555 -91.767273 
L 386.537907 -91.767273 
L 384.509259 -91.767273 
L 382.480612 -91.767273 
L 380.451964 -91.767273 
L 378.423317 -91.767273 
L 376.394669 -91.767273 
L 374.366021 -91.767273 
L 372.337374 -91.767273 
L 370.308726 -91.767273 
L 368.280079 -91.767273 
L 366.251431 -91.767273 
L 364.222783 -91.767273 
L 362.194136 -91.767273 
L 360.165488 -91.767273 
L 358.136841 -91.767273 
L 356.108193 -91.767273 
L 354.079546 -91.767273 
L 352.050898 -91.767273 
L 350.02225 -91.767273 
L 347.993603 -91.767273 
L 345.964955 -91.767273 
L 343.936308 -91.767273 
L 341.90766 -91.767273 
L 339.879012 -91.767273 
L 337.850365 -91.767273 
L 335.821717 -91.767273 
L 333.79307 -91.767273 
L 331.764422 -91.767273 
L 329.735775 -91.767273 
L 327.707127 -91.767273 
L 325.678479 -91.767273 
L 323.649832 -91.767273 
L 321.621184 -91.767273 
L 319.592537 -91.767273 
L 317.563889 -91.767273 
L 315.535241 -91.767273 
L 313.506594 -91.767273 
L 311.477946 -91.767273 
L 309.449299 -91.767273 
L 307.420651 -91.767273 
L 305.392003 -91.767273 
L 303.363356 -91.767273 
L 301.334708 -91.767273 
L 299.306061 -91.767273 
L 297.277413 -91.767273 
L 295.248766 -91.767273 
L 293.220118 -91.767273 
L 291.19147 -91.767273 
L 289.162823 -91.767273 
L 287.134175 -91.767273 
L 285.105528 -91.767273 
L 283.07688 -91.767273 
L 281.048232 -91.767273 
L 279.019585 -91.767273 
L 276.990937 -91.767273 
L 274.96229 -91.767273 
L 272.933642 -91.767273 
L 270.904995 -91.767273 
L 268.876347 -91.767273 
L 266.847699 -91.767273 
L 264.819052 -91.767273 
L 262.790404 -91.767273 
L 260.761757 -91.767273 
L 258.733109 -91.767273 
L 256.704461 -91.767273 
L 254.675814 -91.767273 
L 252.647166 -91.767273 
L 250.618519 -91.767273 
L 248.589871 -91.767273 
L 246.561224 -91.767273 
L 244.532576 -91.767273 
L 242.503928 -91.767273 
L 240.475281 -91.767273 
L 238.446633 -91.767273 
L 236.417986 -91.767273 
L 234.389338 -91.767273 
L 232.36069 -91.767273 
L 230.332043 -91.767273 
L 228.303395 -91.767273 
L 226.274748 -91.767273 
L 224.2461 -91.767273 
L 222.217452 -91.767273 
L 220.188805 -91.767273 
L 218.160157 -91.767273 
L 216.13151 -91.767273 
L 214.102862 -91.767273 
L 212.074215 -91.767273 
L 210.045567 -91.767273 
L 208.016919 -91.767273 
L 205.988272 -91.767273 
L 203.959624 -91.767273 
L 201.930977 -91.767273 
L 199.902329 -91.767273 
L 197.873681 -91.767273 
L 195.845034 -91.767273 
L 193.816386 -91.767273 
L 191.787739 -91.767273 
L 189.759091 -91.767273 
L 187.730444 -91.767273 
L 185.701796 -91.767273 
L 183.673148 -91.767273 
L 181.644501 -91.767273 
L 179.615853 -91.767273 
L 177.587206 -91.767273 
L 175.558558 -91.767273 
L 173.52991 -91.767273 
L 171.501263 -91.767273 
L 169.472615 -91.767273 
L 167.443968 -91.767273 
L 165.41532 -91.767273 
L 163.386672 -91.767273 
L 161.358025 -91.767273 
L 159.329377 -91.767273 
L 157.30073 -91.767273 
L 155.272082 -91.767273 
L 153.243435 -91.767273 
L 151.214787 -91.767273 
L 149.186139 -91.767273 
L 147.157492 -91.767273 
L 145.128844 -91.767273 
L 143.100197 -91.767273 
L 141.071549 -91.767273 
L 139.042901 -91.767273 
L 137.014254 -91.767273 
L 134.985606 -91.767273 
L 132.956959 -91.767273 
L 130.928311 -91.767273 
L 128.899664 -91.767273 
L 126.871016 -91.767273 
L 124.842368 -91.767273 
L 122.813721 -91.767273 
L 120.785073 -91.767273 
L 118.756426 -91.767273 
L 116.727778 -91.767273 
L 114.69913 -91.767273 
z
" id="m0cfc1f5bbd"/>
    </defs>
    <g clip-path="url(#pb2ae47a98f)">
     <use style="fill:#dc143c;fill-opacity:0.2;" x="0" xlink:href="#m0cfc1f5bbd" y="576"/>
    </g>
   </g>
   <g id="line2d_1">
    <path clip-path="url(#pb2ae47a98f)" d="M 114.69913 484.232727 
L 382.480612 484.232727 
L 384.509259 483.922296 
L 404.795735 439.688149 
L 412.910326 421.191008 
L 453.483277 331.882268 
L 481.884343 267.948873 
L 504.199467 220.178949 
L 516.371352 194.08436 
L 518.4 189.251879 
L 518.4 189.251879 
" style="fill:none;stroke:#dc143c;stroke-linecap:round;stroke-width:2;"/>
   </g>
   <g id="patch_3">
    <path d="M 72 504 
L 72 69.12 
" style="fill:none;stroke:#262626;stroke-linecap:square;stroke-linejoin:miter;stroke-width:1.875;"/>
   </g>
   <g id="patch_4">
    <path d="M 518.4 504 
L 518.4 69.12 
" style="fill:none;stroke:#262626;stroke-linecap:square;stroke-linejoin:miter;stroke-width:1.875;"/>
   </g>
   <g id="patch_5">
    <path d="M 72 504 
L 518.4 504 
" style="fill:none;stroke:#262626;stroke-linecap:square;stroke-linejoin:miter;stroke-width:1.875;"/>
   </g>
   <g id="patch_6">
    <path d="M 72 69.12 
L 518.4 69.12 
" style="fill:none;stroke:#262626;stroke-linecap:square;stroke-linejoin:miter;stroke-width:1.875;"/>
   </g>
   <g id="legend_1">
    <g id="patch_7">
     <path d="M 83.9 155.974844 
L 235.754687 155.974844 
Q 239.154687 155.974844 239.154687 152.574844 
L 239.154687 81.02 
Q 239.154687 77.62 235.754687 77.62 
L 83.9 77.62 
Q 80.5 77.62 80.5 81.02 
L 80.5 152.574844 
Q 80.5 155.974844 83.9 155.974844 
z
" style="fill:#ffffff;opacity:0.8;stroke:#cccccc;stroke-linejoin:miter;stroke-width:1.5;"/>
    </g>
    <g id="text_16">
     <!-- Nutrient Limitation -->
     <g style="fill:#262626;" transform="translate(87.3 97.304062)scale(0.18 -0.18)">
      <defs>
       <path d="M 7.625 0 
L 7.625 71.578125 
L 17.328125 71.578125 
L 54.9375 15.375 
L 54.9375 71.578125 
L 64.015625 71.578125 
L 64.015625 0 
L 54.296875 0 
L 16.703125 56.25 
L 16.703125 0 
z
" id="ArialMT-78"/>
       <path d="M 7.328125 0 
L 7.328125 71.578125 
L 16.796875 71.578125 
L 16.796875 8.453125 
L 52.046875 8.453125 
L 52.046875 0 
z
" id="ArialMT-76"/>
       <path d="M 6.59375 0 
L 6.59375 51.859375 
L 14.453125 51.859375 
L 14.453125 44.578125 
Q 16.890625 48.390625 20.9375 50.703125 
Q 25 53.03125 30.171875 53.03125 
Q 35.9375 53.03125 39.625 50.640625 
Q 43.3125 48.25 44.828125 43.953125 
Q 50.984375 53.03125 60.84375 53.03125 
Q 68.5625 53.03125 72.703125 48.75 
Q 76.859375 44.484375 76.859375 35.59375 
L 76.859375 0 
L 68.109375 0 
L 68.109375 32.671875 
Q 68.109375 37.9375 67.25 40.25 
Q 66.40625 42.578125 64.15625 43.984375 
Q 61.921875 45.40625 58.890625 45.40625 
Q 53.421875 45.40625 49.796875 41.765625 
Q 46.1875 38.140625 46.1875 30.125 
L 46.1875 0 
L 37.40625 0 
L 37.40625 33.6875 
Q 37.40625 39.546875 35.25 42.46875 
Q 33.109375 45.40625 28.21875 45.40625 
Q 24.515625 45.40625 21.359375 43.453125 
Q 18.21875 41.5 16.796875 37.734375 
Q 15.375 33.984375 15.375 26.90625 
L 15.375 0 
z
" id="ArialMT-109"/>
      </defs>
      <use xlink:href="#ArialMT-78"/>
      <use x="72.216797" xlink:href="#ArialMT-117"/>
      <use x="127.832031" xlink:href="#ArialMT-116"/>
      <use x="155.615234" xlink:href="#ArialMT-114"/>
      <use x="188.916016" xlink:href="#ArialMT-105"/>
      <use x="211.132812" xlink:href="#ArialMT-101"/>
      <use x="266.748047" xlink:href="#ArialMT-110"/>
      <use x="322.363281" xlink:href="#ArialMT-116"/>
      <use x="350.146484" xlink:href="#ArialMT-32"/>
      <use x="377.929688" xlink:href="#ArialMT-76"/>
      <use x="433.544922" xlink:href="#ArialMT-105"/>
      <use x="455.761719" xlink:href="#ArialMT-109"/>
      <use x="539.0625" xlink:href="#ArialMT-105"/>
      <use x="561.279297" xlink:href="#ArialMT-116"/>
      <use x="589.0625" xlink:href="#ArialMT-97"/>
      <use x="644.677734" xlink:href="#ArialMT-116"/>
      <use x="672.460938" xlink:href="#ArialMT-105"/>
      <use x="694.677734" xlink:href="#ArialMT-111"/>
      <use x="750.292969" xlink:href="#ArialMT-110"/>
     </g>
    </g>
    <g id="line2d_2"/>
    <g id="line2d_3">
     <defs>
      <path d="M 0 4.5 
C 1.193414 4.5 2.338109 4.025852 3.181981 3.181981 
C 4.025852 2.338109 4.5 1.193414 4.5 0 
C 4.5 -1.193414 4.025852 -2.338109 3.181981 -3.181981 
C 2.338109 -4.025852 1.193414 -4.5 0 -4.5 
C -1.193414 -4.5 -2.338109 -4.025852 -3.181981 -3.181981 
C -4.025852 -2.338109 -4.5 -1.193414 -4.5 0 
C -4.5 1.193414 -4.025852 2.338109 -3.181981 3.181981 
C -2.338109 4.025852 -1.193414 4.5 0 4.5 
z
" id="mb048c0c192" style="stroke:#808080;"/>
     </defs>
     <g>
      <use style="fill:#808080;stroke:#808080;" x="120.901328" xlink:href="#mb048c0c192" y="115.599844"/>
     </g>
    </g>
    <g id="text_17">
     <!-- Carbon -->
     <g style="fill:#262626;" transform="translate(151.501328 121.549844)scale(0.17 -0.17)">
      <defs>
       <path d="M 58.796875 25.09375 
L 68.265625 22.703125 
Q 65.28125 11.03125 57.546875 4.90625 
Q 49.8125 -1.21875 38.625 -1.21875 
Q 27.046875 -1.21875 19.796875 3.484375 
Q 12.546875 8.203125 8.765625 17.140625 
Q 4.984375 26.078125 4.984375 36.328125 
Q 4.984375 47.515625 9.25 55.828125 
Q 13.53125 64.15625 21.40625 68.46875 
Q 29.296875 72.796875 38.765625 72.796875 
Q 49.515625 72.796875 56.828125 67.328125 
Q 64.15625 61.859375 67.046875 51.953125 
L 57.71875 49.75 
Q 55.21875 57.5625 50.484375 61.125 
Q 45.75 64.703125 38.578125 64.703125 
Q 30.328125 64.703125 24.78125 60.734375 
Q 19.234375 56.78125 16.984375 50.109375 
Q 14.75 43.453125 14.75 36.375 
Q 14.75 27.25 17.40625 20.4375 
Q 20.0625 13.625 25.671875 10.25 
Q 31.296875 6.890625 37.84375 6.890625 
Q 45.796875 6.890625 51.3125 11.46875 
Q 56.84375 16.0625 58.796875 25.09375 
z
" id="ArialMT-67"/>
       <path d="M 14.703125 0 
L 6.546875 0 
L 6.546875 71.578125 
L 15.328125 71.578125 
L 15.328125 46.046875 
Q 20.90625 53.03125 29.546875 53.03125 
Q 34.328125 53.03125 38.59375 51.09375 
Q 42.875 49.171875 45.625 45.671875 
Q 48.390625 42.1875 49.953125 37.25 
Q 51.515625 32.328125 51.515625 26.703125 
Q 51.515625 13.375 44.921875 6.09375 
Q 38.328125 -1.171875 29.109375 -1.171875 
Q 19.921875 -1.171875 14.703125 6.5 
z
M 14.59375 26.3125 
Q 14.59375 17 17.140625 12.84375 
Q 21.296875 6.0625 28.375 6.0625 
Q 34.125 6.0625 38.328125 11.0625 
Q 42.53125 16.0625 42.53125 25.984375 
Q 42.53125 36.140625 38.5 40.96875 
Q 34.46875 45.796875 28.765625 45.796875 
Q 23 45.796875 18.796875 40.796875 
Q 14.59375 35.796875 14.59375 26.3125 
z
" id="ArialMT-98"/>
      </defs>
      <use xlink:href="#ArialMT-67"/>
      <use x="72.216797" xlink:href="#ArialMT-97"/>
      <use x="127.832031" xlink:href="#ArialMT-114"/>
      <use x="161.132812" xlink:href="#ArialMT-98"/>
      <use x="216.748047" xlink:href="#ArialMT-111"/>
      <use x="272.363281" xlink:href="#ArialMT-110"/>
     </g>
    </g>
    <g id="line2d_4"/>
    <g id="line2d_5">
     <defs>
      <path d="M 0 4.5 
C 1.193414 4.5 2.338109 4.025852 3.181981 3.181981 
C 4.025852 2.338109 4.5 1.193414 4.5 0 
C 4.5 -1.193414 4.025852 -2.338109 3.181981 -3.181981 
C 2.338109 -4.025852 1.193414 -4.5 0 -4.5 
C -1.193414 -4.5 -2.338109 -4.025852 -3.181981 -3.181981 
C -4.025852 -2.338109 -4.5 -1.193414 -4.5 0 
C -4.5 1.193414 -4.025852 2.338109 -3.181981 3.181981 
C -2.338109 4.025852 -1.193414 4.5 0 4.5 
z
" id="m3049a25859" style="stroke:#daa520;"/>
     </defs>
     <g>
      <use style="fill:#daa520;stroke:#daa520;" x="120.901328" xlink:href="#m3049a25859" y="139.646875"/>
     </g>
    </g>
    <g id="text_18">
     <!-- Nitrogen -->
     <g style="fill:#262626;" transform="translate(151.501328 145.596875)scale(0.17 -0.17)">
      <defs>
       <path d="M 4.984375 -4.296875 
L 13.53125 -5.5625 
Q 14.0625 -9.515625 16.5 -11.328125 
Q 19.78125 -13.765625 25.4375 -13.765625 
Q 31.546875 -13.765625 34.859375 -11.328125 
Q 38.1875 -8.890625 39.359375 -4.5 
Q 40.046875 -1.8125 39.984375 6.78125 
Q 34.234375 0 25.640625 0 
Q 14.9375 0 9.078125 7.71875 
Q 3.21875 15.4375 3.21875 26.21875 
Q 3.21875 33.640625 5.90625 39.90625 
Q 8.59375 46.1875 13.6875 49.609375 
Q 18.796875 53.03125 25.6875 53.03125 
Q 34.859375 53.03125 40.828125 45.609375 
L 40.828125 51.859375 
L 48.921875 51.859375 
L 48.921875 7.03125 
Q 48.921875 -5.078125 46.453125 -10.125 
Q 44 -15.1875 38.640625 -18.109375 
Q 33.296875 -21.046875 25.484375 -21.046875 
Q 16.21875 -21.046875 10.5 -16.875 
Q 4.78125 -12.703125 4.984375 -4.296875 
z
M 12.25 26.859375 
Q 12.25 16.65625 16.296875 11.96875 
Q 20.359375 7.28125 26.46875 7.28125 
Q 32.515625 7.28125 36.609375 11.9375 
Q 40.71875 16.609375 40.71875 26.5625 
Q 40.71875 36.078125 36.5 40.90625 
Q 32.28125 45.75 26.3125 45.75 
Q 20.453125 45.75 16.34375 40.984375 
Q 12.25 36.234375 12.25 26.859375 
z
" id="ArialMT-103"/>
      </defs>
      <use xlink:href="#ArialMT-78"/>
      <use x="72.216797" xlink:href="#ArialMT-105"/>
      <use x="94.433594" xlink:href="#ArialMT-116"/>
      <use x="122.216797" xlink:href="#ArialMT-114"/>
      <use x="155.517578" xlink:href="#ArialMT-111"/>
      <use x="211.132812" xlink:href="#ArialMT-103"/>
      <use x="266.748047" xlink:href="#ArialMT-101"/>
      <use x="322.363281" xlink:href="#ArialMT-110"/>
     </g>
    </g>
   </g>
  </g>
 </g>
 <defs>
  <clipPath id="pb2ae47a98f">
   <rect height="434.88" width="446.4" x="72" y="69.12"/>
  </clipPath>
 </defs>
</svg>
