<?xml version="1.0" encoding="utf-8" standalone="no"?>
<!DOCTYPE svg PUBLIC "-//W3C//DTD SVG 1.1//EN"
  "http://www.w3.org/Graphics/SVG/1.1/DTD/svg11.dtd">
<!-- Created with matplotlib (https://matplotlib.org/) -->
<svg height="576pt" version="1.1" viewBox="0 0 594 576" width="594pt" xmlns="http://www.w3.org/2000/svg" xmlns:xlink="http://www.w3.org/1999/xlink">
 <metadata>
  <rdf:RDF xmlns:cc="http://creativecommons.org/ns#" xmlns:dc="http://purl.org/dc/elements/1.1/" xmlns:rdf="http://www.w3.org/1999/02/22-rdf-syntax-ns#">
   <cc:Work>
    <dc:type rdf:resource="http://purl.org/dc/dcmitype/StillImage"/>
    <dc:date>2023-01-24T23:02:18.581928</dc:date>
    <dc:format>image/svg+xml</dc:format>
    <dc:creator>
     <cc:Agent>
      <dc:title>Matplotlib v3.3.4, https://matplotlib.org/</dc:title>
     </cc:Agent>
    </dc:creator>
   </cc:Work>
  </rdf:RDF>
 </metadata>
 <defs>
  <style type="text/css">*{stroke-linecap:butt;stroke-linejoin:round;}</style>
 </defs>
 <g id="figure_1">
  <g id="patch_1">
   <path d="M 0 576 
L 594 576 
L 594 0 
L 0 0 
z
" style="fill:none;"/>
  </g>
  <g id="axes_1">
   <g id="patch_2">
    <path d="M 107.7325 480.3925 
L 558.685 480.3925 
L 558.685 19.44 
L 107.7325 19.44 
z
" style="fill:#ffffff;"/>
   </g>
   <g id="PolyCollection_1">
    <defs>
     <path d="M 141.448575 -116.559886 
L 141.448575 -116.559886 
L 143.54524 -116.559886 
L 145.641906 -116.559886 
L 147.738571 -116.559886 
L 149.835237 -116.559886 
L 151.931902 -116.559886 
L 154.028567 -116.559886 
L 156.125233 -116.559886 
L 158.221898 -116.559886 
L 160.318564 -117.038419 
L 162.415229 -119.239941 
L 164.511895 -121.441464 
L 166.60856 -123.642986 
L 168.705226 -125.844508 
L 170.801891 -128.04603 
L 172.898557 -130.247553 
L 174.995222 -132.449075 
L 177.091887 -134.650597 
L 179.188553 -136.852119 
L 181.285218 -139.053642 
L 183.381884 -141.255164 
L 185.478549 -143.456686 
L 187.575215 -145.658208 
L 189.67188 -147.859731 
L 191.768546 -150.061253 
L 193.865211 -152.262775 
L 195.961877 -154.464297 
L 198.058542 -156.665818 
L 200.155207 -158.86734 
L 202.251873 -161.068865 
L 204.348538 -163.270387 
L 206.445204 -165.471909 
L 208.541869 -167.673431 
L 210.638535 -169.874953 
L 212.7352 -172.076475 
L 214.831866 -174.277997 
L 216.928531 -176.479518 
L 219.025197 -178.681043 
L 221.121862 -180.882565 
L 223.218527 -183.084087 
L 225.315193 -185.285609 
L 227.411858 -187.487131 
L 229.508524 -189.688653 
L 231.605189 -191.890175 
L 233.701855 -194.091696 
L 235.79852 -196.293218 
L 237.895186 -198.494743 
L 239.991851 -200.696265 
L 242.088517 -202.897787 
L 244.185182 -205.099309 
L 246.281847 -207.300831 
L 248.378513 -209.502353 
L 250.475178 -211.703875 
L 252.571844 -213.905396 
L 254.668509 -216.106921 
L 256.765175 -218.308443 
L 258.86184 -220.509965 
L 260.958506 -222.711487 
L 263.055171 -224.913009 
L 265.151837 -227.114531 
L 267.248502 -229.316053 
L 269.345167 -231.517575 
L 271.441833 -233.719096 
L 273.538498 -235.920621 
L 275.635164 -238.122143 
L 277.731829 -240.323665 
L 279.828495 -242.525187 
L 281.92516 -244.726709 
L 284.021826 -246.928231 
L 286.118491 -249.129753 
L 288.215157 -251.331275 
L 290.311822 -253.532799 
L 292.408487 -255.734321 
L 294.505153 -257.935843 
L 296.601818 -260.137365 
L 298.698484 -262.338887 
L 300.795149 -264.540409 
L 302.891815 -266.741931 
L 304.98848 -268.943453 
L 307.085146 -271.144975 
L 309.181811 -273.346499 
L 311.278476 -275.548021 
L 313.375142 -277.749543 
L 315.471807 -279.951065 
L 317.568473 -282.152587 
L 319.665138 -284.354109 
L 321.761804 -286.555631 
L 323.858469 -288.757153 
L 325.955135 -290.958677 
L 328.0518 -293.160199 
L 330.148466 -295.361721 
L 332.245131 -297.563243 
L 334.341796 -299.764765 
L 336.438462 -301.966287 
L 338.535127 -304.167809 
L 340.631793 -306.369331 
L 342.728458 -308.570853 
L 344.825124 -310.772377 
L 346.921789 -312.973899 
L 349.018455 -315.175421 
L 351.11512 -317.376943 
L 353.211786 -319.578465 
L 355.308451 -321.779987 
L 357.405116 -323.981509 
L 359.501782 -326.183031 
L 361.598447 -328.384556 
L 363.695113 -330.586077 
L 365.791778 -332.787599 
L 367.888444 -334.989121 
L 369.985109 -337.190643 
L 372.081775 -339.392165 
L 374.17844 -341.593687 
L 376.275106 -343.795209 
L 378.371771 -345.996731 
L 380.468436 -348.198255 
L 382.565102 -350.399777 
L 384.661767 -352.601299 
L 386.758433 -354.802821 
L 388.855098 -357.004343 
L 390.951764 -359.205865 
L 393.048429 -361.407387 
L 395.145095 -363.614885 
L 397.24176 -365.822638 
L 399.338426 -368.030392 
L 401.435091 -370.238145 
L 403.531756 -372.445879 
L 405.628422 -374.653632 
L 407.725087 -376.861386 
L 409.821753 -379.069119 
L 411.918418 -381.276873 
L 414.015084 -383.484626 
L 416.111749 -385.69238 
L 418.208415 -387.900113 
L 420.30508 -390.107867 
L 422.401746 -392.31562 
L 424.498411 -394.523354 
L 426.595076 -396.731107 
L 428.691742 -398.938861 
L 430.788407 -401.146594 
L 432.885073 -403.354348 
L 434.981738 -405.562101 
L 437.078404 -407.769855 
L 439.175069 -409.977588 
L 441.271735 -412.185342 
L 443.3684 -414.393095 
L 445.465066 -416.600829 
L 447.561731 -418.808582 
L 449.658396 -421.016336 
L 451.755062 -423.224089 
L 453.851727 -425.431823 
L 455.948393 -427.639576 
L 458.045058 -429.84733 
L 460.141724 -432.055063 
L 462.238389 -434.262817 
L 464.335055 -436.47057 
L 466.43172 -438.678304 
L 468.528386 -440.886057 
L 470.625051 -443.093811 
L 472.721716 -445.301564 
L 474.818382 -447.509298 
L 476.915047 -449.717051 
L 479.011713 -451.924805 
L 481.108378 -454.130909 
L 483.205044 -456.33298 
L 485.301709 -458.535051 
L 487.398375 -460.737122 
L 489.49504 -462.939192 
L 491.591705 -465.141263 
L 493.688371 -467.343334 
L 495.785036 -469.545405 
L 497.881702 -471.747476 
L 499.978367 -473.949547 
L 502.075033 -476.151645 
L 504.171698 -478.353716 
L 506.268364 -480.555787 
L 508.365029 -482.757858 
L 510.461695 -484.959929 
L 512.55836 -487.162 
L 514.655025 -489.36407 
L 516.751691 -491.566141 
L 518.848356 -493.768212 
L 520.945022 -495.970283 
L 523.041687 -498.172381 
L 525.138353 -500.374452 
L 527.235018 -502.576523 
L 529.331684 -504.778594 
L 531.428349 -506.980665 
L 533.525015 -509.182736 
L 535.62168 -511.384807 
L 537.718345 -513.586877 
L 539.815011 -515.788948 
L 541.911676 -517.991019 
L 544.008342 -520.193117 
L 546.105007 -522.395188 
L 548.201673 -524.597259 
L 550.298338 -526.79933 
L 552.395004 -529.001401 
L 554.491669 -531.203472 
L 556.588335 -533.405543 
L 558.685 -535.607614 
L 558.685 -519.16985 
L 558.685 -519.16985 
L 556.588335 -516.9607 
L 554.491669 -514.751521 
L 552.395004 -512.542343 
L 550.298338 -510.333193 
L 548.201673 -508.124014 
L 546.105007 -505.914835 
L 544.008342 -503.705685 
L 541.911676 -501.496507 
L 539.815011 -499.287328 
L 537.718345 -497.078149 
L 535.62168 -494.868999 
L 533.525015 -492.658266 
L 531.428349 -490.442259 
L 529.331684 -488.226231 
L 527.235018 -486.010203 
L 525.138353 -483.794175 
L 523.041687 -481.578147 
L 520.945022 -479.362119 
L 518.848356 -477.146113 
L 516.751691 -474.930085 
L 514.655025 -472.714057 
L 512.55836 -470.498029 
L 510.461695 -468.282001 
L 508.365029 -466.065973 
L 506.268364 -463.849945 
L 504.171698 -461.633938 
L 502.075033 -459.417911 
L 499.978367 -457.201883 
L 497.881702 -454.985855 
L 495.785036 -452.769827 
L 493.688371 -450.553799 
L 491.591705 -448.337771 
L 489.49504 -446.121764 
L 487.398375 -443.905736 
L 485.301709 -441.689709 
L 483.205044 -439.473681 
L 481.108378 -437.257653 
L 479.011713 -435.041625 
L 476.915047 -432.825597 
L 474.818382 -430.60959 
L 472.721716 -428.393562 
L 470.625051 -426.177534 
L 468.528386 -423.961507 
L 466.43172 -421.745479 
L 464.335055 -419.529451 
L 462.238389 -417.313423 
L 460.141724 -415.097416 
L 458.045058 -412.881388 
L 455.948393 -410.66536 
L 453.851727 -408.449332 
L 451.755062 -406.233305 
L 449.658396 -404.017277 
L 447.561731 -401.801249 
L 445.465066 -399.585242 
L 443.3684 -397.369214 
L 441.271735 -395.153186 
L 439.175069 -392.937158 
L 437.078404 -390.72113 
L 434.981738 -388.505103 
L 432.885073 -386.289075 
L 430.788407 -384.073068 
L 428.691742 -381.85704 
L 426.595076 -379.641012 
L 424.498411 -377.424984 
L 422.401746 -375.208956 
L 420.30508 -372.992928 
L 418.208415 -370.776901 
L 416.111749 -368.560894 
L 414.015084 -366.344866 
L 411.918418 -364.128838 
L 409.821753 -361.91281 
L 407.725087 -359.696782 
L 405.628422 -357.480754 
L 403.531756 -355.264726 
L 401.435091 -353.04872 
L 399.338426 -350.832692 
L 397.24176 -348.616664 
L 395.145095 -346.400636 
L 393.048429 -344.184608 
L 390.951764 -341.96858 
L 388.855098 -339.752574 
L 386.758433 -337.536546 
L 384.661767 -335.320518 
L 382.565102 -333.10449 
L 380.468436 -330.888462 
L 378.371771 -328.672434 
L 376.275106 -326.456415 
L 374.17844 -324.240389 
L 372.081775 -322.024365 
L 369.985109 -319.808339 
L 367.888444 -317.592316 
L 365.791778 -315.37629 
L 363.695113 -313.160266 
L 361.598447 -310.944241 
L 359.501782 -308.728215 
L 357.405116 -306.512191 
L 355.308451 -304.296165 
L 353.211786 -302.080142 
L 351.11512 -299.864116 
L 349.018455 -297.648092 
L 346.921789 -295.432066 
L 344.825124 -293.216043 
L 342.728458 -291.000017 
L 340.631793 -288.783993 
L 338.535127 -286.567968 
L 336.438462 -284.351942 
L 334.341796 -282.135918 
L 332.245131 -279.919892 
L 330.148466 -277.703869 
L 328.0518 -275.487843 
L 325.955135 -273.271819 
L 323.858469 -271.055793 
L 321.761804 -268.83977 
L 319.665138 -266.623744 
L 317.568473 -264.40772 
L 315.471807 -262.191695 
L 313.375142 -259.975669 
L 311.278476 -257.759645 
L 309.181811 -255.543619 
L 307.085146 -253.327596 
L 304.98848 -251.11157 
L 302.891815 -248.895546 
L 300.795149 -246.67952 
L 298.698484 -244.463497 
L 296.601818 -242.247471 
L 294.505153 -240.031445 
L 292.408487 -237.815422 
L 290.311822 -235.599396 
L 288.215157 -233.383372 
L 286.118491 -231.167346 
L 284.021826 -228.951323 
L 281.92516 -226.735297 
L 279.828495 -224.519273 
L 277.731829 -222.303247 
L 275.635164 -220.087224 
L 273.538498 -217.871198 
L 271.441833 -215.655172 
L 269.345167 -213.439149 
L 267.248502 -211.223123 
L 265.151837 -209.007099 
L 263.055171 -206.791073 
L 260.958506 -204.57505 
L 258.86184 -202.359024 
L 256.765175 -200.143 
L 254.668509 -197.926974 
L 252.571844 -195.710951 
L 250.475178 -193.494925 
L 248.378513 -191.278899 
L 246.281847 -189.062876 
L 244.185182 -186.84685 
L 242.088517 -184.630826 
L 239.991851 -182.4148 
L 237.895186 -180.198777 
L 235.79852 -177.982751 
L 233.701855 -175.766727 
L 231.605189 -173.550701 
L 229.508524 -171.334678 
L 227.411858 -169.118652 
L 225.315193 -166.902626 
L 223.218527 -164.686603 
L 221.121862 -162.470577 
L 219.025197 -160.254553 
L 216.928531 -158.038527 
L 214.831866 -155.822504 
L 212.7352 -153.606478 
L 210.638535 -151.390454 
L 208.541869 -149.174429 
L 206.445204 -146.958403 
L 204.348538 -144.742379 
L 202.251873 -142.526353 
L 200.155207 -140.31033 
L 198.058542 -138.094304 
L 195.961877 -135.87828 
L 193.865211 -133.662255 
L 191.768546 -131.44623 
L 189.67188 -129.230205 
L 187.575215 -127.01418 
L 185.478549 -124.798156 
L 183.381884 -122.582131 
L 181.285218 -120.366106 
L 179.188553 -118.150081 
L 177.091887 -116.559886 
L 174.995222 -116.559886 
L 172.898557 -116.559886 
L 170.801891 -116.559886 
L 168.705226 -116.559886 
L 166.60856 -116.559886 
L 164.511895 -116.559886 
L 162.415229 -116.559886 
L 160.318564 -116.559886 
L 158.221898 -116.559886 
L 156.125233 -116.559886 
L 154.028567 -116.559886 
L 151.931902 -116.559886 
L 149.835237 -116.559886 
L 147.738571 -116.559886 
L 145.641906 -116.559886 
L 143.54524 -116.559886 
L 141.448575 -116.559886 
z
" id="m1690ea6a7a"/>
    </defs>
    <g clip-path="url(#pdbb2efb673)">
     <use style="fill:#dc143c;fill-opacity:0.2;" x="0" xlink:href="#m1690ea6a7a" y="576"/>
    </g>
   </g>
   <g id="PolyCollection_2">
    <path clip-path="url(#pdbb2efb673)" d="M 141.448575 446.230077 
L 141.448575 446.230076 
L 143.54524 439.658249 
L 145.641906 433.086422 
L 147.738571 426.514594 
L 149.835237 419.942767 
L 151.931902 413.370939 
L 154.028567 406.799111 
L 156.125233 400.227282 
L 158.221898 393.655455 
L 160.318564 387.083627 
L 162.415229 380.5118 
L 164.511895 373.939972 
L 166.60856 367.368145 
L 168.705226 360.796317 
L 170.801891 354.22449 
L 172.898557 347.652663 
L 174.995222 341.080836 
L 177.091887 334.509012 
L 179.188553 334.541385 
L 181.285218 334.631059 
L 183.381884 334.720732 
L 185.478549 334.810412 
L 187.575215 334.900086 
L 189.67188 334.989759 
L 191.768546 335.079432 
L 193.865211 335.169113 
L 195.961877 335.258786 
L 198.058542 335.34846 
L 200.155207 335.438133 
L 202.251873 335.527813 
L 204.348538 335.617487 
L 206.445204 335.70716 
L 208.541869 335.796833 
L 210.638535 335.886514 
L 212.7352 335.976187 
L 214.831866 336.065861 
L 216.928531 336.155541 
L 219.025197 336.245214 
L 221.121862 336.334888 
L 223.218527 336.424561 
L 225.315193 336.514242 
L 227.411858 336.603915 
L 229.508524 336.693588 
L 231.605189 336.783262 
L 233.701855 336.872942 
L 235.79852 336.962615 
L 237.895186 337.052289 
L 239.991851 337.141962 
L 242.088517 337.231643 
L 244.185182 337.321316 
L 246.281847 337.410989 
L 248.378513 337.50067 
L 250.475178 337.590343 
L 252.571844 337.680016 
L 254.668509 337.76969 
L 256.765175 337.85937 
L 258.86184 337.949044 
L 260.958506 338.038717 
L 263.055171 338.12839 
L 265.151837 338.218071 
L 267.248502 338.307744 
L 269.345167 338.397417 
L 271.441833 338.487091 
L 273.538498 338.576771 
L 275.635164 338.666445 
L 277.731829 338.756118 
L 279.828495 338.836665 
L 281.92516 338.909137 
L 284.021826 338.971924 
L 286.118491 339.027602 
L 288.215157 339.083287 
L 290.311822 339.138972 
L 292.408487 339.19465 
L 294.505153 339.250335 
L 296.601818 339.30602 
L 298.698484 339.361697 
L 300.795149 339.417382 
L 302.891815 339.473067 
L 304.98848 339.528745 
L 307.085146 339.58443 
L 309.181811 339.640115 
L 311.278476 339.695793 
L 313.375142 339.751478 
L 315.471807 339.807163 
L 317.568473 339.862841 
L 319.665138 339.918526 
L 321.761804 339.974211 
L 323.858469 340.029889 
L 325.955135 340.085574 
L 328.0518 340.141259 
L 330.148466 340.196936 
L 332.245131 340.252621 
L 334.341796 340.308306 
L 336.438462 340.363984 
L 338.535127 340.419669 
L 340.631793 340.475354 
L 342.728458 340.531032 
L 344.825124 340.586717 
L 346.921789 340.642402 
L 349.018455 340.69808 
L 351.11512 340.753765 
L 353.211786 340.80945 
L 355.308451 340.865128 
L 357.405116 340.920813 
L 359.501782 340.976498 
L 361.598447 341.032176 
L 363.695113 341.087861 
L 365.791778 341.143546 
L 367.888444 341.199223 
L 369.985109 341.254908 
L 372.081775 341.310593 
L 374.17844 341.366271 
L 376.275106 341.421956 
L 378.371771 341.477641 
L 380.468436 341.533319 
L 382.565102 341.589004 
L 384.661767 341.644689 
L 386.758433 341.700367 
L 388.855098 341.756052 
L 390.951764 341.811737 
L 393.048429 341.867415 
L 395.145095 341.9231 
L 397.24176 341.978785 
L 399.338426 342.034463 
L 401.435091 342.090147 
L 403.531756 342.145832 
L 405.628422 342.20151 
L 407.725087 342.257195 
L 409.821753 342.31288 
L 411.918418 342.368558 
L 414.015084 342.424243 
L 416.111749 342.479928 
L 418.208415 342.535606 
L 420.30508 342.591291 
L 422.401746 342.646976 
L 424.498411 342.702654 
L 426.595076 342.758339 
L 428.691742 342.814024 
L 430.788407 342.869702 
L 432.885073 342.925387 
L 434.981738 342.981072 
L 437.078404 343.036749 
L 439.175069 343.092434 
L 441.271735 343.148119 
L 443.3684 343.203797 
L 445.465066 343.259482 
L 447.561731 343.315167 
L 449.658396 343.370852 
L 451.755062 343.42653 
L 453.851727 343.482215 
L 455.948393 343.5379 
L 458.045058 343.593578 
L 460.141724 343.649263 
L 462.238389 343.704948 
L 464.335055 343.760626 
L 466.43172 343.816311 
L 468.528386 343.871996 
L 470.625051 343.927674 
L 472.721716 343.983359 
L 474.818382 344.039044 
L 476.915047 344.094721 
L 479.011713 344.150406 
L 481.108378 344.206091 
L 483.205044 344.261769 
L 485.301709 344.317454 
L 487.398375 344.373139 
L 489.49504 344.428817 
L 491.591705 344.484502 
L 493.688371 344.540187 
L 495.785036 344.595865 
L 497.881702 344.65155 
L 499.978367 344.707235 
L 502.075033 344.762913 
L 504.171698 344.818598 
L 506.268364 344.874283 
L 508.365029 344.92996 
L 510.461695 344.985645 
L 512.55836 345.04133 
L 514.655025 345.097008 
L 516.751691 345.152693 
L 518.848356 345.208378 
L 520.945022 345.264056 
L 523.041687 345.319741 
L 525.138353 345.375426 
L 527.235018 345.431104 
L 529.331684 345.486789 
L 531.428349 345.542474 
L 533.525015 345.598152 
L 535.62168 345.669764 
L 537.718345 345.746014 
L 539.815011 345.822258 
L 541.911676 345.898509 
L 544.008342 345.974752 
L 546.105007 346.051003 
L 548.201673 346.127246 
L 550.298338 346.203497 
L 552.395004 346.279741 
L 554.491669 346.355992 
L 556.588335 346.432235 
L 558.685 346.508486 
L 558.685 396.214388 
L 558.685 396.214388 
L 556.588335 396.162972 
L 554.491669 396.111555 
L 552.395004 396.060139 
L 550.298338 396.008727 
L 548.201673 395.95731 
L 546.105007 395.905894 
L 544.008342 395.854477 
L 541.911676 395.803065 
L 539.815011 395.751649 
L 537.718345 395.700233 
L 535.62168 395.648816 
L 533.525015 395.5974 
L 531.428349 395.545988 
L 529.331684 395.494571 
L 527.235018 395.443155 
L 525.138353 395.391738 
L 523.041687 395.340326 
L 520.945022 395.28891 
L 518.848356 395.237493 
L 516.751691 395.186077 
L 514.655025 395.134665 
L 512.55836 395.083249 
L 510.461695 395.031832 
L 508.365029 394.980416 
L 506.268364 394.928999 
L 504.171698 394.877587 
L 502.075033 394.826171 
L 499.978367 394.774754 
L 497.881702 394.723338 
L 495.785036 394.671926 
L 493.688371 394.62051 
L 491.591705 394.569093 
L 489.49504 394.517677 
L 487.398375 394.466265 
L 485.301709 394.414848 
L 483.205044 394.363432 
L 481.108378 394.312015 
L 479.011713 394.27267 
L 476.915047 394.238276 
L 474.818382 394.203882 
L 472.721716 394.169487 
L 470.625051 394.135093 
L 468.528386 394.100703 
L 466.43172 394.066309 
L 464.335055 394.031915 
L 462.238389 393.997521 
L 460.141724 393.963126 
L 458.045058 393.928736 
L 455.948393 393.894342 
L 453.851727 393.859948 
L 451.755062 393.825554 
L 449.658396 393.791159 
L 447.561731 393.756769 
L 445.465066 393.722375 
L 443.3684 393.687981 
L 441.271735 393.653587 
L 439.175069 393.619192 
L 437.078404 393.584802 
L 434.981738 393.550408 
L 432.885073 393.516014 
L 430.788407 393.48162 
L 428.691742 393.447225 
L 426.595076 393.412831 
L 424.498411 393.378441 
L 422.401746 393.344047 
L 420.30508 393.309653 
L 418.208415 393.275259 
L 416.111749 393.240864 
L 414.015084 393.206474 
L 411.918418 393.17208 
L 409.821753 393.137686 
L 407.725087 393.103292 
L 405.628422 393.068897 
L 403.531756 393.034507 
L 401.435091 393.000113 
L 399.338426 392.965719 
L 397.24176 392.931325 
L 395.145095 392.89693 
L 393.048429 392.86254 
L 390.951764 392.828146 
L 388.855098 392.793752 
L 386.758433 392.759358 
L 384.661767 392.724963 
L 382.565102 392.690569 
L 380.468436 392.656179 
L 378.371771 392.621785 
L 376.275106 392.587391 
L 374.17844 392.552996 
L 372.081775 392.518602 
L 369.985109 392.484212 
L 367.888444 392.449818 
L 365.791778 392.415424 
L 363.695113 392.38103 
L 361.598447 392.346635 
L 359.501782 392.312245 
L 357.405116 392.277851 
L 355.308451 392.243457 
L 353.211786 392.209063 
L 351.11512 392.174668 
L 349.018455 392.140278 
L 346.921789 392.105884 
L 344.825124 392.07149 
L 342.728458 392.037096 
L 340.631793 392.002701 
L 338.535127 391.968307 
L 336.438462 391.933917 
L 334.341796 391.899523 
L 332.245131 391.865129 
L 330.148466 391.830734 
L 328.0518 391.79634 
L 325.955135 391.76195 
L 323.858469 391.727556 
L 321.761804 391.693162 
L 319.665138 391.658767 
L 317.568473 391.624373 
L 315.471807 391.589983 
L 313.375142 391.555589 
L 311.278476 391.521195 
L 309.181811 391.486801 
L 307.085146 391.452406 
L 304.98848 391.418016 
L 302.891815 391.383622 
L 300.795149 391.349228 
L 298.698484 391.314834 
L 296.601818 391.280439 
L 294.505153 391.246045 
L 292.408487 391.211655 
L 290.311822 391.177261 
L 288.215157 391.142867 
L 286.118491 391.108472 
L 284.021826 391.074078 
L 281.92516 391.039688 
L 279.828495 391.005294 
L 277.731829 390.9709 
L 275.635164 390.936505 
L 273.538498 390.902111 
L 271.441833 390.867721 
L 269.345167 390.833327 
L 267.248502 390.798933 
L 265.151837 390.764539 
L 263.055171 390.730144 
L 260.958506 390.69575 
L 258.86184 390.66136 
L 256.765175 390.626966 
L 254.668509 390.592572 
L 252.571844 390.558177 
L 250.475178 390.523783 
L 248.378513 390.489393 
L 246.281847 390.454999 
L 244.185182 390.420605 
L 242.088517 390.38621 
L 239.991851 390.351816 
L 237.895186 390.317426 
L 235.79852 390.283032 
L 233.701855 390.248638 
L 231.605189 390.214243 
L 229.508524 390.179849 
L 227.411858 390.145459 
L 225.315193 390.111065 
L 223.218527 390.076671 
L 221.121862 390.042276 
L 219.025197 390.007882 
L 216.928531 389.973488 
L 214.831866 389.939098 
L 212.7352 389.904704 
L 210.638535 389.87031 
L 208.541869 389.835915 
L 206.445204 389.801521 
L 204.348538 389.767131 
L 202.251873 389.732737 
L 200.155207 389.698343 
L 198.058542 389.663948 
L 195.961877 389.629554 
L 193.865211 389.595164 
L 191.768546 389.56077 
L 189.67188 389.526376 
L 187.575215 389.491981 
L 185.478549 389.457587 
L 183.381884 389.423197 
L 181.285218 389.388803 
L 179.188553 389.354409 
L 177.091887 389.320014 
L 174.995222 389.28562 
L 172.898557 389.251226 
L 170.801891 389.216836 
L 168.705226 389.182442 
L 166.60856 389.148047 
L 164.511895 389.113653 
L 162.415229 389.079259 
L 160.318564 389.044869 
L 158.221898 393.65546 
L 156.125233 400.227287 
L 154.028567 406.799114 
L 151.931902 413.37094 
L 149.835237 419.942767 
L 147.738571 426.514595 
L 145.641906 433.086422 
L 143.54524 439.65825 
L 141.448575 446.230077 
z
" style="fill:#1f77b4;fill-opacity:0.2;"/>
   </g>
   <g id="PathCollection_1"/>
   <g id="PathCollection_2"/>
   <g id="PathCollection_3"/>
   <g id="PathCollection_4"/>
   <g id="PathCollection_5"/>
   <g id="PathCollection_6"/>
   <g id="PathCollection_7"/>
   <g id="PathCollection_8"/>
   <g id="PathCollection_9"/>
   <g id="PathCollection_10"/>
   <g id="PathCollection_11"/>
   <g id="PathCollection_12"/>
   <g id="PathCollection_13"/>
   <g id="PathCollection_14"/>
   <g id="PathCollection_15"/>
   <g id="PathCollection_16"/>
   <g id="PathCollection_17"/>
   <g id="PathCollection_18"/>
   <g id="line2d_1">
    <path clip-path="url(#pdbb2efb673)" d="M 141.448575 459.440114 
L 166.60856 459.440114 
L 168.705226 458.687249 
L 355.308451 261.939522 
L 514.655025 94.025473 
L 558.685 47.549638 
L 558.685 47.549638 
" style="fill:none;stroke:#dc143c;stroke-linecap:square;stroke-width:2;"/>
   </g>
   <g id="matplotlib.axis_1">
    <g id="xtick_1">
     <g id="text_1">
      <!-- 0.0 -->
      <g transform="translate(121.33094 508.089375)scale(0.2 -0.2)">
       <defs>
        <path d="M 31.78125 66.40625 
Q 24.171875 66.40625 20.328125 58.90625 
Q 16.5 51.421875 16.5 36.375 
Q 16.5 21.390625 20.328125 13.890625 
Q 24.171875 6.390625 31.78125 6.390625 
Q 39.453125 6.390625 43.28125 13.890625 
Q 47.125 21.390625 47.125 36.375 
Q 47.125 51.421875 43.28125 58.90625 
Q 39.453125 66.40625 31.78125 66.40625 
z
M 31.78125 74.21875 
Q 44.046875 74.21875 50.515625 64.515625 
Q 56.984375 54.828125 56.984375 36.375 
Q 56.984375 17.96875 50.515625 8.265625 
Q 44.046875 -1.421875 31.78125 -1.421875 
Q 19.53125 -1.421875 13.0625 8.265625 
Q 6.59375 17.96875 6.59375 36.375 
Q 6.59375 54.828125 13.0625 64.515625 
Q 19.53125 74.21875 31.78125 74.21875 
z
" id="DejaVuSans-48"/>
        <path d="M 10.6875 12.40625 
L 21 12.40625 
L 21 0 
L 10.6875 0 
z
" id="DejaVuSans-46"/>
       </defs>
       <use xlink:href="#DejaVuSans-48"/>
       <use x="63.623047" xlink:href="#DejaVuSans-46"/>
       <use x="95.410156" xlink:href="#DejaVuSans-48"/>
      </g>
     </g>
    </g>
    <g id="xtick_2">
     <g id="text_2">
      <!-- 0.2 -->
      <g transform="translate(205.621127 508.089375)scale(0.2 -0.2)">
       <defs>
        <path d="M 19.1875 8.296875 
L 53.609375 8.296875 
L 53.609375 0 
L 7.328125 0 
L 7.328125 8.296875 
Q 12.9375 14.109375 22.625 23.890625 
Q 32.328125 33.6875 34.8125 36.53125 
Q 39.546875 41.84375 41.421875 45.53125 
Q 43.3125 49.21875 43.3125 52.78125 
Q 43.3125 58.59375 39.234375 62.25 
Q 35.15625 65.921875 28.609375 65.921875 
Q 23.96875 65.921875 18.8125 64.3125 
Q 13.671875 62.703125 7.8125 59.421875 
L 7.8125 69.390625 
Q 13.765625 71.78125 18.9375 73 
Q 24.125 74.21875 28.421875 74.21875 
Q 39.75 74.21875 46.484375 68.546875 
Q 53.21875 62.890625 53.21875 53.421875 
Q 53.21875 48.921875 51.53125 44.890625 
Q 49.859375 40.875 45.40625 35.40625 
Q 44.1875 33.984375 37.640625 27.21875 
Q 31.109375 20.453125 19.1875 8.296875 
z
" id="DejaVuSans-50"/>
       </defs>
       <use xlink:href="#DejaVuSans-48"/>
       <use x="63.623047" xlink:href="#DejaVuSans-46"/>
       <use x="95.410156" xlink:href="#DejaVuSans-50"/>
      </g>
     </g>
    </g>
    <g id="xtick_3">
     <g id="text_3">
      <!-- 0.4 -->
      <g transform="translate(289.911314 508.089375)scale(0.2 -0.2)">
       <defs>
        <path d="M 37.796875 64.3125 
L 12.890625 25.390625 
L 37.796875 25.390625 
z
M 35.203125 72.90625 
L 47.609375 72.90625 
L 47.609375 25.390625 
L 58.015625 25.390625 
L 58.015625 17.1875 
L 47.609375 17.1875 
L 47.609375 0 
L 37.796875 0 
L 37.796875 17.1875 
L 4.890625 17.1875 
L 4.890625 26.703125 
z
" id="DejaVuSans-52"/>
       </defs>
       <use xlink:href="#DejaVuSans-48"/>
       <use x="63.623047" xlink:href="#DejaVuSans-46"/>
       <use x="95.410156" xlink:href="#DejaVuSans-52"/>
      </g>
     </g>
    </g>
    <g id="xtick_4">
     <g id="text_4">
      <!-- 0.6 -->
      <g transform="translate(374.201501 508.089375)scale(0.2 -0.2)">
       <defs>
        <path d="M 33.015625 40.375 
Q 26.375 40.375 22.484375 35.828125 
Q 18.609375 31.296875 18.609375 23.390625 
Q 18.609375 15.53125 22.484375 10.953125 
Q 26.375 6.390625 33.015625 6.390625 
Q 39.65625 6.390625 43.53125 10.953125 
Q 47.40625 15.53125 47.40625 23.390625 
Q 47.40625 31.296875 43.53125 35.828125 
Q 39.65625 40.375 33.015625 40.375 
z
M 52.59375 71.296875 
L 52.59375 62.3125 
Q 48.875 64.0625 45.09375 64.984375 
Q 41.3125 65.921875 37.59375 65.921875 
Q 27.828125 65.921875 22.671875 59.328125 
Q 17.53125 52.734375 16.796875 39.40625 
Q 19.671875 43.65625 24.015625 45.921875 
Q 28.375 48.1875 33.59375 48.1875 
Q 44.578125 48.1875 50.953125 41.515625 
Q 57.328125 34.859375 57.328125 23.390625 
Q 57.328125 12.15625 50.6875 5.359375 
Q 44.046875 -1.421875 33.015625 -1.421875 
Q 20.359375 -1.421875 13.671875 8.265625 
Q 6.984375 17.96875 6.984375 36.375 
Q 6.984375 53.65625 15.1875 63.9375 
Q 23.390625 74.21875 37.203125 74.21875 
Q 40.921875 74.21875 44.703125 73.484375 
Q 48.484375 72.75 52.59375 71.296875 
z
" id="DejaVuSans-54"/>
       </defs>
       <use xlink:href="#DejaVuSans-48"/>
       <use x="63.623047" xlink:href="#DejaVuSans-46"/>
       <use x="95.410156" xlink:href="#DejaVuSans-54"/>
      </g>
     </g>
    </g>
    <g id="xtick_5">
     <g id="text_5">
      <!-- 0.8 -->
      <g transform="translate(458.491688 508.089375)scale(0.2 -0.2)">
       <defs>
        <path d="M 31.78125 34.625 
Q 24.75 34.625 20.71875 30.859375 
Q 16.703125 27.09375 16.703125 20.515625 
Q 16.703125 13.921875 20.71875 10.15625 
Q 24.75 6.390625 31.78125 6.390625 
Q 38.8125 6.390625 42.859375 10.171875 
Q 46.921875 13.96875 46.921875 20.515625 
Q 46.921875 27.09375 42.890625 30.859375 
Q 38.875 34.625 31.78125 34.625 
z
M 21.921875 38.8125 
Q 15.578125 40.375 12.03125 44.71875 
Q 8.5 49.078125 8.5 55.328125 
Q 8.5 64.0625 14.71875 69.140625 
Q 20.953125 74.21875 31.78125 74.21875 
Q 42.671875 74.21875 48.875 69.140625 
Q 55.078125 64.0625 55.078125 55.328125 
Q 55.078125 49.078125 51.53125 44.71875 
Q 48 40.375 41.703125 38.8125 
Q 48.828125 37.15625 52.796875 32.3125 
Q 56.78125 27.484375 56.78125 20.515625 
Q 56.78125 9.90625 50.3125 4.234375 
Q 43.84375 -1.421875 31.78125 -1.421875 
Q 19.734375 -1.421875 13.25 4.234375 
Q 6.78125 9.90625 6.78125 20.515625 
Q 6.78125 27.484375 10.78125 32.3125 
Q 14.796875 37.15625 21.921875 38.8125 
z
M 18.3125 54.390625 
Q 18.3125 48.734375 21.84375 45.5625 
Q 25.390625 42.390625 31.78125 42.390625 
Q 38.140625 42.390625 41.71875 45.5625 
Q 45.3125 48.734375 45.3125 54.390625 
Q 45.3125 60.0625 41.71875 63.234375 
Q 38.140625 66.40625 31.78125 66.40625 
Q 25.390625 66.40625 21.84375 63.234375 
Q 18.3125 60.0625 18.3125 54.390625 
z
" id="DejaVuSans-56"/>
       </defs>
       <use xlink:href="#DejaVuSans-48"/>
       <use x="63.623047" xlink:href="#DejaVuSans-46"/>
       <use x="95.410156" xlink:href="#DejaVuSans-56"/>
      </g>
     </g>
    </g>
    <g id="xtick_6">
     <g id="text_6">
      <!-- 1.0 -->
      <g transform="translate(542.781875 508.089375)scale(0.2 -0.2)">
       <defs>
        <path d="M 12.40625 8.296875 
L 28.515625 8.296875 
L 28.515625 63.921875 
L 10.984375 60.40625 
L 10.984375 69.390625 
L 28.421875 72.90625 
L 38.28125 72.90625 
L 38.28125 8.296875 
L 54.390625 8.296875 
L 54.390625 0 
L 12.40625 0 
z
" id="DejaVuSans-49"/>
       </defs>
       <use xlink:href="#DejaVuSans-49"/>
       <use x="63.623047" xlink:href="#DejaVuSans-46"/>
       <use x="95.410156" xlink:href="#DejaVuSans-48"/>
      </g>
     </g>
    </g>
    <g id="text_7">
     <!-- Glucose Uptake Rate$ \left(\frac{mmol}{g_{protein} \cdot hr^{}}\right)$ -->
     <g transform="translate(158.75375 538.78875)scale(0.23 -0.23)">
      <defs>
       <path d="M 59.515625 10.40625 
L 59.515625 29.984375 
L 43.40625 29.984375 
L 43.40625 38.09375 
L 69.28125 38.09375 
L 69.28125 6.78125 
Q 63.578125 2.734375 56.6875 0.65625 
Q 49.8125 -1.421875 42 -1.421875 
Q 24.90625 -1.421875 15.25 8.5625 
Q 5.609375 18.5625 5.609375 36.375 
Q 5.609375 54.25 15.25 64.234375 
Q 24.90625 74.21875 42 74.21875 
Q 49.125 74.21875 55.546875 72.453125 
Q 61.96875 70.703125 67.390625 67.28125 
L 67.390625 56.78125 
Q 61.921875 61.421875 55.765625 63.765625 
Q 49.609375 66.109375 42.828125 66.109375 
Q 29.4375 66.109375 22.71875 58.640625 
Q 16.015625 51.171875 16.015625 36.375 
Q 16.015625 21.625 22.71875 14.15625 
Q 29.4375 6.6875 42.828125 6.6875 
Q 48.046875 6.6875 52.140625 7.59375 
Q 56.25 8.5 59.515625 10.40625 
z
" id="DejaVuSans-71"/>
       <path d="M 9.421875 75.984375 
L 18.40625 75.984375 
L 18.40625 0 
L 9.421875 0 
z
" id="DejaVuSans-108"/>
       <path d="M 8.5 21.578125 
L 8.5 54.6875 
L 17.484375 54.6875 
L 17.484375 21.921875 
Q 17.484375 14.15625 20.5 10.265625 
Q 23.53125 6.390625 29.59375 6.390625 
Q 36.859375 6.390625 41.078125 11.03125 
Q 45.3125 15.671875 45.3125 23.6875 
L 45.3125 54.6875 
L 54.296875 54.6875 
L 54.296875 0 
L 45.3125 0 
L 45.3125 8.40625 
Q 42.046875 3.421875 37.71875 1 
Q 33.40625 -1.421875 27.6875 -1.421875 
Q 18.265625 -1.421875 13.375 4.4375 
Q 8.5 10.296875 8.5 21.578125 
z
M 31.109375 56 
z
" id="DejaVuSans-117"/>
       <path d="M 48.78125 52.59375 
L 48.78125 44.1875 
Q 44.96875 46.296875 41.140625 47.34375 
Q 37.3125 48.390625 33.40625 48.390625 
Q 24.65625 48.390625 19.8125 42.84375 
Q 14.984375 37.3125 14.984375 27.296875 
Q 14.984375 17.28125 19.8125 11.734375 
Q 24.65625 6.203125 33.40625 6.203125 
Q 37.3125 6.203125 41.140625 7.25 
Q 44.96875 8.296875 48.78125 10.40625 
L 48.78125 2.09375 
Q 45.015625 0.34375 40.984375 -0.53125 
Q 36.96875 -1.421875 32.421875 -1.421875 
Q 20.0625 -1.421875 12.78125 6.34375 
Q 5.515625 14.109375 5.515625 27.296875 
Q 5.515625 40.671875 12.859375 48.328125 
Q 20.21875 56 33.015625 56 
Q 37.15625 56 41.109375 55.140625 
Q 45.0625 54.296875 48.78125 52.59375 
z
" id="DejaVuSans-99"/>
       <path d="M 30.609375 48.390625 
Q 23.390625 48.390625 19.1875 42.75 
Q 14.984375 37.109375 14.984375 27.296875 
Q 14.984375 17.484375 19.15625 11.84375 
Q 23.34375 6.203125 30.609375 6.203125 
Q 37.796875 6.203125 41.984375 11.859375 
Q 46.1875 17.53125 46.1875 27.296875 
Q 46.1875 37.015625 41.984375 42.703125 
Q 37.796875 48.390625 30.609375 48.390625 
z
M 30.609375 56 
Q 42.328125 56 49.015625 48.375 
Q 55.71875 40.765625 55.71875 27.296875 
Q 55.71875 13.875 49.015625 6.21875 
Q 42.328125 -1.421875 30.609375 -1.421875 
Q 18.84375 -1.421875 12.171875 6.21875 
Q 5.515625 13.875 5.515625 27.296875 
Q 5.515625 40.765625 12.171875 48.375 
Q 18.84375 56 30.609375 56 
z
" id="DejaVuSans-111"/>
       <path d="M 44.28125 53.078125 
L 44.28125 44.578125 
Q 40.484375 46.53125 36.375 47.5 
Q 32.28125 48.484375 27.875 48.484375 
Q 21.1875 48.484375 17.84375 46.4375 
Q 14.5 44.390625 14.5 40.28125 
Q 14.5 37.15625 16.890625 35.375 
Q 19.28125 33.59375 26.515625 31.984375 
L 29.59375 31.296875 
Q 39.15625 29.25 43.1875 25.515625 
Q 47.21875 21.78125 47.21875 15.09375 
Q 47.21875 7.46875 41.1875 3.015625 
Q 35.15625 -1.421875 24.609375 -1.421875 
Q 20.21875 -1.421875 15.453125 -0.5625 
Q 10.6875 0.296875 5.421875 2 
L 5.421875 11.28125 
Q 10.40625 8.6875 15.234375 7.390625 
Q 20.0625 6.109375 24.8125 6.109375 
Q 31.15625 6.109375 34.5625 8.28125 
Q 37.984375 10.453125 37.984375 14.40625 
Q 37.984375 18.0625 35.515625 20.015625 
Q 33.0625 21.96875 24.703125 23.78125 
L 21.578125 24.515625 
Q 13.234375 26.265625 9.515625 29.90625 
Q 5.8125 33.546875 5.8125 39.890625 
Q 5.8125 47.609375 11.28125 51.796875 
Q 16.75 56 26.8125 56 
Q 31.78125 56 36.171875 55.265625 
Q 40.578125 54.546875 44.28125 53.078125 
z
" id="DejaVuSans-115"/>
       <path d="M 56.203125 29.59375 
L 56.203125 25.203125 
L 14.890625 25.203125 
Q 15.484375 15.921875 20.484375 11.0625 
Q 25.484375 6.203125 34.421875 6.203125 
Q 39.59375 6.203125 44.453125 7.46875 
Q 49.3125 8.734375 54.109375 11.28125 
L 54.109375 2.78125 
Q 49.265625 0.734375 44.1875 -0.34375 
Q 39.109375 -1.421875 33.890625 -1.421875 
Q 20.796875 -1.421875 13.15625 6.1875 
Q 5.515625 13.8125 5.515625 26.8125 
Q 5.515625 40.234375 12.765625 48.109375 
Q 20.015625 56 32.328125 56 
Q 43.359375 56 49.78125 48.890625 
Q 56.203125 41.796875 56.203125 29.59375 
z
M 47.21875 32.234375 
Q 47.125 39.59375 43.09375 43.984375 
Q 39.0625 48.390625 32.421875 48.390625 
Q 24.90625 48.390625 20.390625 44.140625 
Q 15.875 39.890625 15.1875 32.171875 
z
" id="DejaVuSans-101"/>
       <path id="DejaVuSans-32"/>
       <path d="M 8.6875 72.90625 
L 18.609375 72.90625 
L 18.609375 28.609375 
Q 18.609375 16.890625 22.84375 11.734375 
Q 27.09375 6.59375 36.625 6.59375 
Q 46.09375 6.59375 50.34375 11.734375 
Q 54.59375 16.890625 54.59375 28.609375 
L 54.59375 72.90625 
L 64.5 72.90625 
L 64.5 27.390625 
Q 64.5 13.140625 57.4375 5.859375 
Q 50.390625 -1.421875 36.625 -1.421875 
Q 22.796875 -1.421875 15.734375 5.859375 
Q 8.6875 13.140625 8.6875 27.390625 
z
" id="DejaVuSans-85"/>
       <path d="M 18.109375 8.203125 
L 18.109375 -20.796875 
L 9.078125 -20.796875 
L 9.078125 54.6875 
L 18.109375 54.6875 
L 18.109375 46.390625 
Q 20.953125 51.265625 25.265625 53.625 
Q 29.59375 56 35.59375 56 
Q 45.5625 56 51.78125 48.09375 
Q 58.015625 40.1875 58.015625 27.296875 
Q 58.015625 14.40625 51.78125 6.484375 
Q 45.5625 -1.421875 35.59375 -1.421875 
Q 29.59375 -1.421875 25.265625 0.953125 
Q 20.953125 3.328125 18.109375 8.203125 
z
M 48.6875 27.296875 
Q 48.6875 37.203125 44.609375 42.84375 
Q 40.53125 48.484375 33.40625 48.484375 
Q 26.265625 48.484375 22.1875 42.84375 
Q 18.109375 37.203125 18.109375 27.296875 
Q 18.109375 17.390625 22.1875 11.75 
Q 26.265625 6.109375 33.40625 6.109375 
Q 40.53125 6.109375 44.609375 11.75 
Q 48.6875 17.390625 48.6875 27.296875 
z
" id="DejaVuSans-112"/>
       <path d="M 18.3125 70.21875 
L 18.3125 54.6875 
L 36.8125 54.6875 
L 36.8125 47.703125 
L 18.3125 47.703125 
L 18.3125 18.015625 
Q 18.3125 11.328125 20.140625 9.421875 
Q 21.96875 7.515625 27.59375 7.515625 
L 36.8125 7.515625 
L 36.8125 0 
L 27.59375 0 
Q 17.1875 0 13.234375 3.875 
Q 9.28125 7.765625 9.28125 18.015625 
L 9.28125 47.703125 
L 2.6875 47.703125 
L 2.6875 54.6875 
L 9.28125 54.6875 
L 9.28125 70.21875 
z
" id="DejaVuSans-116"/>
       <path d="M 34.28125 27.484375 
Q 23.390625 27.484375 19.1875 25 
Q 14.984375 22.515625 14.984375 16.5 
Q 14.984375 11.71875 18.140625 8.90625 
Q 21.296875 6.109375 26.703125 6.109375 
Q 34.1875 6.109375 38.703125 11.40625 
Q 43.21875 16.703125 43.21875 25.484375 
L 43.21875 27.484375 
z
M 52.203125 31.203125 
L 52.203125 0 
L 43.21875 0 
L 43.21875 8.296875 
Q 40.140625 3.328125 35.546875 0.953125 
Q 30.953125 -1.421875 24.3125 -1.421875 
Q 15.921875 -1.421875 10.953125 3.296875 
Q 6 8.015625 6 15.921875 
Q 6 25.140625 12.171875 29.828125 
Q 18.359375 34.515625 30.609375 34.515625 
L 43.21875 34.515625 
L 43.21875 35.40625 
Q 43.21875 41.609375 39.140625 45 
Q 35.0625 48.390625 27.6875 48.390625 
Q 23 48.390625 18.546875 47.265625 
Q 14.109375 46.140625 10.015625 43.890625 
L 10.015625 52.203125 
Q 14.9375 54.109375 19.578125 55.046875 
Q 24.21875 56 28.609375 56 
Q 40.484375 56 46.34375 49.84375 
Q 52.203125 43.703125 52.203125 31.203125 
z
" id="DejaVuSans-97"/>
       <path d="M 9.078125 75.984375 
L 18.109375 75.984375 
L 18.109375 31.109375 
L 44.921875 54.6875 
L 56.390625 54.6875 
L 27.390625 29.109375 
L 57.625 0 
L 45.90625 0 
L 18.109375 26.703125 
L 18.109375 0 
L 9.078125 0 
z
" id="DejaVuSans-107"/>
       <path d="M 44.390625 34.1875 
Q 47.5625 33.109375 50.5625 29.59375 
Q 53.5625 26.078125 56.59375 19.921875 
L 66.609375 0 
L 56 0 
L 46.6875 18.703125 
Q 43.0625 26.03125 39.671875 28.421875 
Q 36.28125 30.8125 30.421875 30.8125 
L 19.671875 30.8125 
L 19.671875 0 
L 9.8125 0 
L 9.8125 72.90625 
L 32.078125 72.90625 
Q 44.578125 72.90625 50.734375 67.671875 
Q 56.890625 62.453125 56.890625 51.90625 
Q 56.890625 45.015625 53.6875 40.46875 
Q 50.484375 35.9375 44.390625 34.1875 
z
M 19.671875 64.796875 
L 19.671875 38.921875 
L 32.078125 38.921875 
Q 39.203125 38.921875 42.84375 42.21875 
Q 46.484375 45.515625 46.484375 51.90625 
Q 46.484375 58.296875 42.84375 61.546875 
Q 39.203125 64.796875 32.078125 64.796875 
z
" id="DejaVuSans-82"/>
       <path d="M 50.296875 -24.296875 
L 50.296875 -27.90625 
Q 33.5 -12.09375 23.703125 11.40625 
Q 13.90625 34.90625 13.90625 64.296875 
Q 13.90625 93.796875 23.953125 118.640625 
Q 34 143.5 50.296875 156.59375 
L 50.296875 153.296875 
Q 38.90625 141.59375 31.15625 118.84375 
Q 23.40625 96.09375 23.40625 64.296875 
Q 23.40625 8.796875 50.296875 -24.296875 
z
" id="STIXSizeTwoSym-Regular-40"/>
       <path d="M 89.796875 33.015625 
L 83.40625 0 
L 74.421875 0 
L 80.71875 32.71875 
Q 81.109375 34.8125 81.296875 36.328125 
Q 81.5 37.84375 81.5 38.921875 
Q 81.5 43.3125 79.046875 45.75 
Q 76.609375 48.1875 72.21875 48.1875 
Q 65.671875 48.1875 60.546875 43.28125 
Q 55.421875 38.375 53.90625 30.515625 
L 47.90625 0 
L 38.921875 0 
L 45.3125 32.71875 
Q 45.703125 34.515625 45.890625 36.046875 
Q 46.09375 37.59375 46.09375 38.8125 
Q 46.09375 43.265625 43.65625 45.71875 
Q 41.21875 48.1875 36.921875 48.1875 
Q 30.28125 48.1875 25.140625 43.28125 
Q 20.015625 38.375 18.5 30.515625 
L 12.5 0 
L 3.515625 0 
L 14.203125 54.6875 
L 23.1875 54.6875 
L 21.484375 46.1875 
Q 25.140625 50.984375 30.046875 53.484375 
Q 34.96875 56 40.578125 56 
Q 46.53125 56 50.359375 52.875 
Q 54.203125 49.75 54.984375 44.1875 
Q 59.078125 49.953125 64.46875 52.96875 
Q 69.875 56 75.875 56 
Q 82.90625 56 86.734375 51.953125 
Q 90.578125 47.90625 90.578125 40.484375 
Q 90.578125 38.875 90.375 36.9375 
Q 90.1875 35.015625 89.796875 33.015625 
z
" id="DejaVuSans-Oblique-109"/>
       <path d="M 25.390625 -1.421875 
Q 15.765625 -1.421875 10.171875 4.515625 
Q 4.59375 10.453125 4.59375 20.703125 
Q 4.59375 26.65625 6.515625 32.828125 
Q 8.453125 39.015625 11.53125 43.21875 
Q 16.359375 49.75 22.3125 52.875 
Q 28.265625 56 35.796875 56 
Q 45.125 56 50.859375 50.1875 
Q 56.59375 44.390625 56.59375 35.015625 
Q 56.59375 28.515625 54.6875 22.0625 
Q 52.78125 15.625 49.703125 11.375 
Q 44.921875 4.828125 38.96875 1.703125 
Q 33.015625 -1.421875 25.390625 -1.421875 
z
M 13.921875 21 
Q 13.921875 13.578125 17.015625 9.890625 
Q 20.125 6.203125 26.421875 6.203125 
Q 35.453125 6.203125 41.375 14.078125 
Q 47.3125 21.96875 47.3125 34.078125 
Q 47.3125 41.15625 44.140625 44.765625 
Q 40.96875 48.390625 34.8125 48.390625 
Q 29.734375 48.390625 25.78125 46.015625 
Q 21.828125 43.65625 18.703125 38.8125 
Q 16.40625 35.203125 15.15625 30.5625 
Q 13.921875 25.921875 13.921875 21 
z
" id="DejaVuSans-Oblique-111"/>
       <path d="M 18.3125 75.984375 
L 27.296875 75.984375 
L 12.5 0 
L 3.515625 0 
z
" id="DejaVuSans-Oblique-108"/>
       <path d="M 59.625 54.6875 
L 50.296875 6.78125 
Q 47.609375 -7.125 40.015625 -13.953125 
Q 32.421875 -20.796875 19.578125 -20.796875 
Q 14.84375 -20.796875 10.78125 -20.09375 
Q 6.734375 -19.390625 3.21875 -17.921875 
L 4.890625 -9.1875 
Q 8.203125 -11.328125 11.90625 -12.34375 
Q 15.625 -13.375 19.828125 -13.375 
Q 28.375 -13.375 33.859375 -8.703125 
Q 39.359375 -4.046875 41.109375 4.6875 
L 41.890625 8.796875 
Q 38.140625 4.5 33.15625 2.25 
Q 28.171875 0 22.40625 0 
Q 14.109375 0 9.34375 5.484375 
Q 4.59375 10.984375 4.59375 20.609375 
Q 4.59375 28.171875 7.46875 35.421875 
Q 10.359375 42.671875 15.578125 48.296875 
Q 19.046875 52 23.65625 54 
Q 28.265625 56 33.296875 56 
Q 38.8125 56 42.90625 53.4375 
Q 47.015625 50.875 49.03125 46.1875 
L 50.59375 54.6875 
z
M 46.09375 34.625 
Q 46.09375 41.265625 42.96875 44.875 
Q 39.84375 48.484375 34.078125 48.484375 
Q 30.515625 48.484375 27.296875 47.0625 
Q 24.078125 45.65625 21.78125 43.109375 
Q 18.0625 38.921875 15.984375 33.234375 
Q 13.921875 27.546875 13.921875 21.484375 
Q 13.921875 14.75 17.0625 11.125 
Q 20.21875 7.515625 26.125 7.515625 
Q 34.671875 7.515625 40.375 15.25 
Q 46.09375 23 46.09375 34.625 
z
" id="DejaVuSans-Oblique-103"/>
       <path d="M 49.609375 33.6875 
Q 49.609375 40.875 46.484375 44.671875 
Q 43.359375 48.484375 37.5 48.484375 
Q 33.5 48.484375 29.859375 46.4375 
Q 26.21875 44.390625 23.390625 40.484375 
Q 20.609375 36.625 18.9375 31.15625 
Q 17.28125 25.6875 17.28125 20.3125 
Q 17.28125 13.484375 20.40625 9.796875 
Q 23.53125 6.109375 29.296875 6.109375 
Q 33.546875 6.109375 37.1875 8.109375 
Q 40.828125 10.109375 43.40625 13.921875 
Q 46.1875 17.921875 47.890625 23.34375 
Q 49.609375 28.765625 49.609375 33.6875 
z
M 21.78125 46.390625 
Q 25.390625 51.125 30.296875 53.5625 
Q 35.203125 56 41.21875 56 
Q 49.609375 56 54.25 50.5 
Q 58.890625 45.015625 58.890625 35.109375 
Q 58.890625 27 56 19.65625 
Q 53.125 12.3125 47.703125 6.5 
Q 44.09375 2.640625 39.546875 0.609375 
Q 35.015625 -1.421875 29.984375 -1.421875 
Q 24.171875 -1.421875 20.21875 1 
Q 16.265625 3.421875 14.3125 8.203125 
L 8.6875 -20.796875 
L -0.296875 -20.796875 
L 14.40625 54.6875 
L 23.390625 54.6875 
z
" id="DejaVuSans-Oblique-112"/>
       <path d="M 44.578125 46.390625 
Q 43.21875 47.125 41.453125 47.515625 
Q 39.703125 47.90625 37.703125 47.90625 
Q 30.515625 47.90625 25.140625 42.453125 
Q 19.78125 37.015625 18.015625 27.875 
L 12.5 0 
L 3.515625 0 
L 14.203125 54.6875 
L 23.1875 54.6875 
L 21.484375 46.1875 
Q 25.046875 50.921875 30 53.453125 
Q 34.96875 56 40.578125 56 
Q 42.046875 56 43.453125 55.828125 
Q 44.875 55.671875 46.296875 55.28125 
z
" id="DejaVuSans-Oblique-114"/>
       <path d="M 42.28125 54.6875 
L 40.921875 47.703125 
L 23 47.703125 
L 17.1875 18.015625 
Q 16.890625 16.359375 16.75 15.234375 
Q 16.609375 14.109375 16.609375 13.484375 
Q 16.609375 10.359375 18.484375 8.9375 
Q 20.359375 7.515625 24.515625 7.515625 
L 33.59375 7.515625 
L 32.078125 0 
L 23.484375 0 
Q 15.484375 0 11.546875 3.125 
Q 7.625 6.25 7.625 12.59375 
Q 7.625 13.71875 7.765625 15.0625 
Q 7.90625 16.40625 8.203125 18.015625 
L 14.015625 47.703125 
L 6.390625 47.703125 
L 7.8125 54.6875 
L 15.28125 54.6875 
L 18.3125 70.21875 
L 27.296875 70.21875 
L 24.3125 54.6875 
z
" id="DejaVuSans-Oblique-116"/>
       <path d="M 48.09375 32.234375 
Q 48.25 33.015625 48.3125 33.84375 
Q 48.390625 34.671875 48.390625 35.5 
Q 48.390625 41.453125 44.890625 44.921875 
Q 41.40625 48.390625 35.40625 48.390625 
Q 28.71875 48.390625 23.578125 44.15625 
Q 18.453125 39.9375 15.828125 32.171875 
z
M 55.90625 25.203125 
L 14.109375 25.203125 
Q 13.8125 23.34375 13.71875 22.265625 
Q 13.625 21.1875 13.625 20.40625 
Q 13.625 13.625 17.796875 9.90625 
Q 21.96875 6.203125 29.59375 6.203125 
Q 35.453125 6.203125 40.671875 7.515625 
Q 45.90625 8.84375 50.390625 11.375 
L 48.6875 2.484375 
Q 43.84375 0.53125 38.6875 -0.4375 
Q 33.546875 -1.421875 28.21875 -1.421875 
Q 16.84375 -1.421875 10.71875 4.015625 
Q 4.59375 9.46875 4.59375 19.484375 
Q 4.59375 28.03125 7.640625 35.375 
Q 10.6875 42.71875 16.609375 48.484375 
Q 20.40625 52.09375 25.65625 54.046875 
Q 30.90625 56 36.8125 56 
Q 46.09375 56 51.578125 50.4375 
Q 57.078125 44.875 57.078125 35.5 
Q 57.078125 33.25 56.78125 30.6875 
Q 56.5 28.125 55.90625 25.203125 
z
" id="DejaVuSans-Oblique-101"/>
       <path d="M 18.3125 75.984375 
L 27.296875 75.984375 
L 25.09375 64.59375 
L 16.109375 64.59375 
z
M 14.203125 54.6875 
L 23.1875 54.6875 
L 12.5 0 
L 3.515625 0 
z
" id="DejaVuSans-Oblique-105"/>
       <path d="M 55.71875 33.015625 
L 49.3125 0 
L 40.28125 0 
L 46.6875 32.671875 
Q 47.125 34.96875 47.359375 36.71875 
Q 47.609375 38.484375 47.609375 39.5 
Q 47.609375 43.609375 45.015625 45.890625 
Q 42.4375 48.1875 37.796875 48.1875 
Q 30.5625 48.1875 25.34375 43.375 
Q 20.125 38.578125 18.5 30.328125 
L 12.5 0 
L 3.515625 0 
L 14.109375 54.6875 
L 23.09375 54.6875 
L 21.296875 46.09375 
Q 25.046875 50.828125 30.3125 53.40625 
Q 35.59375 56 41.40625 56 
Q 48.640625 56 52.609375 52.09375 
Q 56.59375 48.1875 56.59375 41.109375 
Q 56.59375 39.359375 56.375 37.359375 
Q 56.15625 35.359375 55.71875 33.015625 
z
" id="DejaVuSans-Oblique-110"/>
       <path d="M 10.6875 40.921875 
L 21 40.921875 
L 21 28.515625 
L 10.6875 28.515625 
z
" id="DejaVuSans-8901"/>
       <path d="M 55.71875 33.015625 
L 49.3125 0 
L 40.28125 0 
L 46.6875 32.671875 
Q 47.125 34.96875 47.359375 36.71875 
Q 47.609375 38.484375 47.609375 39.5 
Q 47.609375 43.609375 45.015625 45.890625 
Q 42.4375 48.1875 37.796875 48.1875 
Q 30.5625 48.1875 25.265625 43.296875 
Q 19.96875 38.421875 18.40625 30.328125 
L 12.5 0 
L 3.515625 0 
L 18.3125 75.984375 
L 27.296875 75.984375 
L 21.484375 46.09375 
Q 24.90625 50.6875 30.21875 53.34375 
Q 35.546875 56 41.40625 56 
Q 48.640625 56 52.609375 52.09375 
Q 56.59375 48.1875 56.59375 41.109375 
Q 56.59375 39.359375 56.375 37.359375 
Q 56.15625 35.359375 55.71875 33.015625 
z
" id="DejaVuSans-Oblique-104"/>
       <path d="M 11.40625 153 
L 11.40625 156.59375 
Q 28.203125 140.796875 38 117.296875 
Q 47.796875 93.796875 47.796875 64.296875 
Q 47.796875 34.90625 37.75 10.046875 
Q 27.703125 -14.796875 11.40625 -27.90625 
L 11.40625 -24.59375 
Q 22.796875 -12.90625 30.546875 9.890625 
Q 38.296875 32.703125 38.296875 64.296875 
Q 38.296875 119.90625 11.40625 153 
z
" id="STIXSizeTwoSym-Regular-41"/>
      </defs>
      <use transform="translate(0 0.01875)" xlink:href="#DejaVuSans-71"/>
      <use transform="translate(77.490234 0.01875)" xlink:href="#DejaVuSans-108"/>
      <use transform="translate(105.273438 0.01875)" xlink:href="#DejaVuSans-117"/>
      <use transform="translate(168.652344 0.01875)" xlink:href="#DejaVuSans-99"/>
      <use transform="translate(223.632812 0.01875)" xlink:href="#DejaVuSans-111"/>
      <use transform="translate(284.814453 0.01875)" xlink:href="#DejaVuSans-115"/>
      <use transform="translate(336.914062 0.01875)" xlink:href="#DejaVuSans-101"/>
      <use transform="translate(398.4375 0.01875)" xlink:href="#DejaVuSans-32"/>
      <use transform="translate(430.224609 0.01875)" xlink:href="#DejaVuSans-85"/>
      <use transform="translate(503.417969 0.01875)" xlink:href="#DejaVuSans-112"/>
      <use transform="translate(566.894531 0.01875)" xlink:href="#DejaVuSans-116"/>
      <use transform="translate(606.103516 0.01875)" xlink:href="#DejaVuSans-97"/>
      <use transform="translate(667.382812 0.01875)" xlink:href="#DejaVuSans-107"/>
      <use transform="translate(725.292969 0.01875)" xlink:href="#DejaVuSans-101"/>
      <use transform="translate(786.816406 0.01875)" xlink:href="#DejaVuSans-32"/>
      <use transform="translate(818.603516 0.01875)" xlink:href="#DejaVuSans-82"/>
      <use transform="translate(888.085938 0.01875)" xlink:href="#DejaVuSans-97"/>
      <use transform="translate(949.365234 0.01875)" xlink:href="#DejaVuSans-116"/>
      <use transform="translate(988.574219 0.01875)" xlink:href="#DejaVuSans-101"/>
      <use transform="translate(1050.097656 -38.063906)scale(0.868825)" xlink:href="#STIXSizeTwoSym-Regular-40"/>
      <use transform="translate(1176.267014 44.810938)scale(0.7)" xlink:href="#DejaVuSans-Oblique-109"/>
      <use transform="translate(1244.45549 44.810938)scale(0.7)" xlink:href="#DejaVuSans-Oblique-109"/>
      <use transform="translate(1312.643967 44.810938)scale(0.7)" xlink:href="#DejaVuSans-Oblique-111"/>
      <use transform="translate(1355.471115 44.810938)scale(0.7)" xlink:href="#DejaVuSans-Oblique-108"/>
      <use transform="translate(1101.267014 -40.623437)scale(0.7)" xlink:href="#DejaVuSans-Oblique-103"/>
      <use transform="translate(1145.700607 -52.107812)scale(0.49)" xlink:href="#DejaVuSans-Oblique-112"/>
      <use transform="translate(1176.804123 -52.107812)scale(0.49)" xlink:href="#DejaVuSans-Oblique-114"/>
      <use transform="translate(1196.949631 -52.107812)scale(0.49)" xlink:href="#DejaVuSans-Oblique-111"/>
      <use transform="translate(1226.928635 -52.107812)scale(0.49)" xlink:href="#DejaVuSans-Oblique-116"/>
      <use transform="translate(1246.141037 -52.107812)scale(0.49)" xlink:href="#DejaVuSans-Oblique-101"/>
      <use transform="translate(1276.287521 -52.107812)scale(0.49)" xlink:href="#DejaVuSans-Oblique-105"/>
      <use transform="translate(1289.901291 -52.107812)scale(0.49)" xlink:href="#DejaVuSans-Oblique-110"/>
      <use transform="translate(1336.508713 -40.623437)scale(0.7)" xlink:href="#DejaVuSans-8901"/>
      <use transform="translate(1372.397385 -40.623437)scale(0.7)" xlink:href="#DejaVuSans-Oblique-104"/>
      <use transform="translate(1416.762619 -40.623437)scale(0.7)" xlink:href="#DejaVuSans-Oblique-114"/>
      <use transform="translate(1463.210905 -38.063906)scale(0.868825)" xlink:href="#STIXSizeTwoSym-Regular-41"/>
      <path d="M 1101.267014 18.815625 
L 1101.267014 25.065625 
L 1450.710905 25.065625 
L 1450.710905 18.815625 
L 1101.267014 18.815625 
z
"/>
     </g>
    </g>
   </g>
   <g id="matplotlib.axis_2">
    <g id="ytick_1">
     <g id="text_8">
      <!-- 0.00 -->
      <g transform="translate(64.060625 464.75902)scale(0.14 -0.14)">
       <use xlink:href="#DejaVuSans-48"/>
       <use x="63.623047" xlink:href="#DejaVuSans-46"/>
       <use x="95.410156" xlink:href="#DejaVuSans-48"/>
       <use x="159.033203" xlink:href="#DejaVuSans-48"/>
      </g>
     </g>
    </g>
    <g id="ytick_2">
     <g id="text_9">
      <!-- 0.25 -->
      <g transform="translate(64.060625 409.717199)scale(0.14 -0.14)">
       <defs>
        <path d="M 10.796875 72.90625 
L 49.515625 72.90625 
L 49.515625 64.59375 
L 19.828125 64.59375 
L 19.828125 46.734375 
Q 21.96875 47.46875 24.109375 47.828125 
Q 26.265625 48.1875 28.421875 48.1875 
Q 40.625 48.1875 47.75 41.5 
Q 54.890625 34.8125 54.890625 23.390625 
Q 54.890625 11.625 47.5625 5.09375 
Q 40.234375 -1.421875 26.90625 -1.421875 
Q 22.3125 -1.421875 17.546875 -0.640625 
Q 12.796875 0.140625 7.71875 1.703125 
L 7.71875 11.625 
Q 12.109375 9.234375 16.796875 8.0625 
Q 21.484375 6.890625 26.703125 6.890625 
Q 35.15625 6.890625 40.078125 11.328125 
Q 45.015625 15.765625 45.015625 23.390625 
Q 45.015625 31 40.078125 35.4375 
Q 35.15625 39.890625 26.703125 39.890625 
Q 22.75 39.890625 18.8125 39.015625 
Q 14.890625 38.140625 10.796875 36.28125 
z
" id="DejaVuSans-53"/>
       </defs>
       <use xlink:href="#DejaVuSans-48"/>
       <use x="63.623047" xlink:href="#DejaVuSans-46"/>
       <use x="95.410156" xlink:href="#DejaVuSans-50"/>
       <use x="159.033203" xlink:href="#DejaVuSans-53"/>
      </g>
     </g>
    </g>
    <g id="ytick_3">
     <g id="text_10">
      <!-- 0.50 -->
      <g transform="translate(64.060625 354.675379)scale(0.14 -0.14)">
       <use xlink:href="#DejaVuSans-48"/>
       <use x="63.623047" xlink:href="#DejaVuSans-46"/>
       <use x="95.410156" xlink:href="#DejaVuSans-53"/>
       <use x="159.033203" xlink:href="#DejaVuSans-48"/>
      </g>
     </g>
    </g>
    <g id="ytick_4">
     <g id="text_11">
      <!-- 0.75 -->
      <g transform="translate(64.060625 299.633558)scale(0.14 -0.14)">
       <defs>
        <path d="M 8.203125 72.90625 
L 55.078125 72.90625 
L 55.078125 68.703125 
L 28.609375 0 
L 18.3125 0 
L 43.21875 64.59375 
L 8.203125 64.59375 
z
" id="DejaVuSans-55"/>
       </defs>
       <use xlink:href="#DejaVuSans-48"/>
       <use x="63.623047" xlink:href="#DejaVuSans-46"/>
       <use x="95.410156" xlink:href="#DejaVuSans-55"/>
       <use x="159.033203" xlink:href="#DejaVuSans-53"/>
      </g>
     </g>
    </g>
    <g id="ytick_5">
     <g id="text_12">
      <!-- 1.00 -->
      <g transform="translate(64.060625 244.591738)scale(0.14 -0.14)">
       <use xlink:href="#DejaVuSans-49"/>
       <use x="63.623047" xlink:href="#DejaVuSans-46"/>
       <use x="95.410156" xlink:href="#DejaVuSans-48"/>
       <use x="159.033203" xlink:href="#DejaVuSans-48"/>
      </g>
     </g>
    </g>
    <g id="ytick_6">
     <g id="text_13">
      <!-- 1.25 -->
      <g transform="translate(64.060625 189.549917)scale(0.14 -0.14)">
       <use xlink:href="#DejaVuSans-49"/>
       <use x="63.623047" xlink:href="#DejaVuSans-46"/>
       <use x="95.410156" xlink:href="#DejaVuSans-50"/>
       <use x="159.033203" xlink:href="#DejaVuSans-53"/>
      </g>
     </g>
    </g>
    <g id="ytick_7">
     <g id="text_14">
      <!-- 1.50 -->
      <g transform="translate(64.060625 134.508097)scale(0.14 -0.14)">
       <use xlink:href="#DejaVuSans-49"/>
       <use x="63.623047" xlink:href="#DejaVuSans-46"/>
       <use x="95.410156" xlink:href="#DejaVuSans-53"/>
       <use x="159.033203" xlink:href="#DejaVuSans-48"/>
      </g>
     </g>
    </g>
    <g id="ytick_8">
     <g id="text_15">
      <!-- 1.75 -->
      <g transform="translate(64.060625 79.466276)scale(0.14 -0.14)">
       <use xlink:href="#DejaVuSans-49"/>
       <use x="63.623047" xlink:href="#DejaVuSans-46"/>
       <use x="95.410156" xlink:href="#DejaVuSans-55"/>
       <use x="159.033203" xlink:href="#DejaVuSans-53"/>
      </g>
     </g>
    </g>
    <g id="text_16">
     <!-- Consumption / Production Rate$ \left(\frac{mmol}{g_{protein} \cdot hr^{}}\right)$ -->
     <g transform="translate(45.570625 482.79125)rotate(-90)scale(0.23 -0.23)">
      <defs>
       <path d="M 64.40625 67.28125 
L 64.40625 56.890625 
Q 59.421875 61.53125 53.78125 63.8125 
Q 48.140625 66.109375 41.796875 66.109375 
Q 29.296875 66.109375 22.65625 58.46875 
Q 16.015625 50.828125 16.015625 36.375 
Q 16.015625 21.96875 22.65625 14.328125 
Q 29.296875 6.6875 41.796875 6.6875 
Q 48.140625 6.6875 53.78125 8.984375 
Q 59.421875 11.28125 64.40625 15.921875 
L 64.40625 5.609375 
Q 59.234375 2.09375 53.4375 0.328125 
Q 47.65625 -1.421875 41.21875 -1.421875 
Q 24.65625 -1.421875 15.125 8.703125 
Q 5.609375 18.84375 5.609375 36.375 
Q 5.609375 53.953125 15.125 64.078125 
Q 24.65625 74.21875 41.21875 74.21875 
Q 47.75 74.21875 53.53125 72.484375 
Q 59.328125 70.75 64.40625 67.28125 
z
" id="DejaVuSans-67"/>
       <path d="M 54.890625 33.015625 
L 54.890625 0 
L 45.90625 0 
L 45.90625 32.71875 
Q 45.90625 40.484375 42.875 44.328125 
Q 39.84375 48.1875 33.796875 48.1875 
Q 26.515625 48.1875 22.3125 43.546875 
Q 18.109375 38.921875 18.109375 30.90625 
L 18.109375 0 
L 9.078125 0 
L 9.078125 54.6875 
L 18.109375 54.6875 
L 18.109375 46.1875 
Q 21.34375 51.125 25.703125 53.5625 
Q 30.078125 56 35.796875 56 
Q 45.21875 56 50.046875 50.171875 
Q 54.890625 44.34375 54.890625 33.015625 
z
" id="DejaVuSans-110"/>
       <path d="M 52 44.1875 
Q 55.375 50.25 60.0625 53.125 
Q 64.75 56 71.09375 56 
Q 79.640625 56 84.28125 50.015625 
Q 88.921875 44.046875 88.921875 33.015625 
L 88.921875 0 
L 79.890625 0 
L 79.890625 32.71875 
Q 79.890625 40.578125 77.09375 44.375 
Q 74.3125 48.1875 68.609375 48.1875 
Q 61.625 48.1875 57.5625 43.546875 
Q 53.515625 38.921875 53.515625 30.90625 
L 53.515625 0 
L 44.484375 0 
L 44.484375 32.71875 
Q 44.484375 40.625 41.703125 44.40625 
Q 38.921875 48.1875 33.109375 48.1875 
Q 26.21875 48.1875 22.15625 43.53125 
Q 18.109375 38.875 18.109375 30.90625 
L 18.109375 0 
L 9.078125 0 
L 9.078125 54.6875 
L 18.109375 54.6875 
L 18.109375 46.1875 
Q 21.1875 51.21875 25.484375 53.609375 
Q 29.78125 56 35.6875 56 
Q 41.65625 56 45.828125 52.96875 
Q 50 49.953125 52 44.1875 
z
" id="DejaVuSans-109"/>
       <path d="M 9.421875 54.6875 
L 18.40625 54.6875 
L 18.40625 0 
L 9.421875 0 
z
M 9.421875 75.984375 
L 18.40625 75.984375 
L 18.40625 64.59375 
L 9.421875 64.59375 
z
" id="DejaVuSans-105"/>
       <path d="M 25.390625 72.90625 
L 33.6875 72.90625 
L 8.296875 -9.28125 
L 0 -9.28125 
z
" id="DejaVuSans-47"/>
       <path d="M 19.671875 64.796875 
L 19.671875 37.40625 
L 32.078125 37.40625 
Q 38.96875 37.40625 42.71875 40.96875 
Q 46.484375 44.53125 46.484375 51.125 
Q 46.484375 57.671875 42.71875 61.234375 
Q 38.96875 64.796875 32.078125 64.796875 
z
M 9.8125 72.90625 
L 32.078125 72.90625 
Q 44.34375 72.90625 50.609375 67.359375 
Q 56.890625 61.8125 56.890625 51.125 
Q 56.890625 40.328125 50.609375 34.8125 
Q 44.34375 29.296875 32.078125 29.296875 
L 19.671875 29.296875 
L 19.671875 0 
L 9.8125 0 
z
" id="DejaVuSans-80"/>
       <path d="M 41.109375 46.296875 
Q 39.59375 47.171875 37.8125 47.578125 
Q 36.03125 48 33.890625 48 
Q 26.265625 48 22.1875 43.046875 
Q 18.109375 38.09375 18.109375 28.8125 
L 18.109375 0 
L 9.078125 0 
L 9.078125 54.6875 
L 18.109375 54.6875 
L 18.109375 46.1875 
Q 20.953125 51.171875 25.484375 53.578125 
Q 30.03125 56 36.53125 56 
Q 37.453125 56 38.578125 55.875 
Q 39.703125 55.765625 41.0625 55.515625 
z
" id="DejaVuSans-114"/>
       <path d="M 45.40625 46.390625 
L 45.40625 75.984375 
L 54.390625 75.984375 
L 54.390625 0 
L 45.40625 0 
L 45.40625 8.203125 
Q 42.578125 3.328125 38.25 0.953125 
Q 33.9375 -1.421875 27.875 -1.421875 
Q 17.96875 -1.421875 11.734375 6.484375 
Q 5.515625 14.40625 5.515625 27.296875 
Q 5.515625 40.1875 11.734375 48.09375 
Q 17.96875 56 27.875 56 
Q 33.9375 56 38.25 53.625 
Q 42.578125 51.265625 45.40625 46.390625 
z
M 14.796875 27.296875 
Q 14.796875 17.390625 18.875 11.75 
Q 22.953125 6.109375 30.078125 6.109375 
Q 37.203125 6.109375 41.296875 11.75 
Q 45.40625 17.390625 45.40625 27.296875 
Q 45.40625 37.203125 41.296875 42.84375 
Q 37.203125 48.484375 30.078125 48.484375 
Q 22.953125 48.484375 18.875 42.84375 
Q 14.796875 37.203125 14.796875 27.296875 
z
" id="DejaVuSans-100"/>
      </defs>
      <use transform="translate(0 0.01875)" xlink:href="#DejaVuSans-67"/>
      <use transform="translate(69.824219 0.01875)" xlink:href="#DejaVuSans-111"/>
      <use transform="translate(131.005859 0.01875)" xlink:href="#DejaVuSans-110"/>
      <use transform="translate(194.384766 0.01875)" xlink:href="#DejaVuSans-115"/>
      <use transform="translate(246.484375 0.01875)" xlink:href="#DejaVuSans-117"/>
      <use transform="translate(309.863281 0.01875)" xlink:href="#DejaVuSans-109"/>
      <use transform="translate(407.275391 0.01875)" xlink:href="#DejaVuSans-112"/>
      <use transform="translate(470.751953 0.01875)" xlink:href="#DejaVuSans-116"/>
      <use transform="translate(509.960938 0.01875)" xlink:href="#DejaVuSans-105"/>
      <use transform="translate(537.744141 0.01875)" xlink:href="#DejaVuSans-111"/>
      <use transform="translate(598.925781 0.01875)" xlink:href="#DejaVuSans-110"/>
      <use transform="translate(662.304688 0.01875)" xlink:href="#DejaVuSans-32"/>
      <use transform="translate(694.091797 0.01875)" xlink:href="#DejaVuSans-47"/>
      <use transform="translate(727.783203 0.01875)" xlink:href="#DejaVuSans-32"/>
      <use transform="translate(759.570312 0.01875)" xlink:href="#DejaVuSans-80"/>
      <use transform="translate(819.873047 0.01875)" xlink:href="#DejaVuSans-114"/>
      <use transform="translate(860.986328 0.01875)" xlink:href="#DejaVuSans-111"/>
      <use transform="translate(922.167969 0.01875)" xlink:href="#DejaVuSans-100"/>
      <use transform="translate(985.644531 0.01875)" xlink:href="#DejaVuSans-117"/>
      <use transform="translate(1049.023438 0.01875)" xlink:href="#DejaVuSans-99"/>
      <use transform="translate(1104.003906 0.01875)" xlink:href="#DejaVuSans-116"/>
      <use transform="translate(1143.212891 0.01875)" xlink:href="#DejaVuSans-105"/>
      <use transform="translate(1170.996094 0.01875)" xlink:href="#DejaVuSans-111"/>
      <use transform="translate(1232.177734 0.01875)" xlink:href="#DejaVuSans-110"/>
      <use transform="translate(1295.556641 0.01875)" xlink:href="#DejaVuSans-32"/>
      <use transform="translate(1327.34375 0.01875)" xlink:href="#DejaVuSans-82"/>
      <use transform="translate(1396.826172 0.01875)" xlink:href="#DejaVuSans-97"/>
      <use transform="translate(1458.105469 0.01875)" xlink:href="#DejaVuSans-116"/>
      <use transform="translate(1497.314453 0.01875)" xlink:href="#DejaVuSans-101"/>
      <use transform="translate(1558.837891 -38.063906)scale(0.868825)" xlink:href="#STIXSizeTwoSym-Regular-40"/>
      <use transform="translate(1685.007248 44.810938)scale(0.7)" xlink:href="#DejaVuSans-Oblique-109"/>
      <use transform="translate(1753.195724 44.810938)scale(0.7)" xlink:href="#DejaVuSans-Oblique-109"/>
      <use transform="translate(1821.384201 44.810938)scale(0.7)" xlink:href="#DejaVuSans-Oblique-111"/>
      <use transform="translate(1864.211349 44.810938)scale(0.7)" xlink:href="#DejaVuSans-Oblique-108"/>
      <use transform="translate(1610.007248 -40.623437)scale(0.7)" xlink:href="#DejaVuSans-Oblique-103"/>
      <use transform="translate(1654.440842 -52.107812)scale(0.49)" xlink:href="#DejaVuSans-Oblique-112"/>
      <use transform="translate(1685.544357 -52.107812)scale(0.49)" xlink:href="#DejaVuSans-Oblique-114"/>
      <use transform="translate(1705.689865 -52.107812)scale(0.49)" xlink:href="#DejaVuSans-Oblique-111"/>
      <use transform="translate(1735.668869 -52.107812)scale(0.49)" xlink:href="#DejaVuSans-Oblique-116"/>
      <use transform="translate(1754.881271 -52.107812)scale(0.49)" xlink:href="#DejaVuSans-Oblique-101"/>
      <use transform="translate(1785.027756 -52.107812)scale(0.49)" xlink:href="#DejaVuSans-Oblique-105"/>
      <use transform="translate(1798.641525 -52.107812)scale(0.49)" xlink:href="#DejaVuSans-Oblique-110"/>
      <use transform="translate(1845.248947 -40.623437)scale(0.7)" xlink:href="#DejaVuSans-8901"/>
      <use transform="translate(1881.137619 -40.623437)scale(0.7)" xlink:href="#DejaVuSans-Oblique-104"/>
      <use transform="translate(1925.502853 -40.623437)scale(0.7)" xlink:href="#DejaVuSans-Oblique-114"/>
      <use transform="translate(1971.95114 -38.063906)scale(0.868825)" xlink:href="#STIXSizeTwoSym-Regular-41"/>
      <path d="M 1610.007248 18.815625 
L 1610.007248 25.065625 
L 1959.45114 25.065625 
L 1959.45114 18.815625 
L 1610.007248 18.815625 
z
"/>
     </g>
    </g>
   </g>
   <g id="line2d_2">
    <path clip-path="url(#pdbb2efb673)" d="M 141.448575 446.230077 
L 166.60856 367.368149 
L 168.705226 363.054914 
L 267.248502 366.023336 
L 340.631793 368.054289 
L 468.528386 371.224007 
L 508.365029 372.485967 
L 558.685 374.107845 
L 558.685 374.107845 
" style="fill:none;stroke:#00008b;stroke-linecap:square;stroke-width:2;"/>
   </g>
   <g id="patch_3">
    <path d="M 107.7325 480.3925 
L 107.7325 19.44 
" style="fill:none;stroke:#000000;stroke-linecap:square;stroke-linejoin:miter;stroke-width:1.875;"/>
   </g>
   <g id="patch_4">
    <path d="M 558.685 480.3925 
L 558.685 19.44 
" style="fill:none;stroke:#000000;stroke-linecap:square;stroke-linejoin:miter;stroke-width:1.875;"/>
   </g>
   <g id="patch_5">
    <path d="M 107.7325 480.3925 
L 558.685 480.3925 
" style="fill:none;stroke:#000000;stroke-linecap:square;stroke-linejoin:miter;stroke-width:1.875;"/>
   </g>
   <g id="patch_6">
    <path d="M 107.7325 19.44 
L 558.685 19.44 
" style="fill:none;stroke:#000000;stroke-linecap:square;stroke-linejoin:miter;stroke-width:1.875;"/>
   </g>
   <g id="PathCollection_19">
    <path clip-path="url(#pdbb2efb673)" d="M 235.151166 413.80519 
C 236.828457 413.80519 238.437277 413.138795 239.623302 411.952771 
C 240.809326 410.766747 241.475721 409.157927 241.475721 407.480635 
C 241.475721 405.803343 240.809326 404.194523 239.623302 403.008499 
C 238.437277 401.822475 236.828457 401.15608 235.151166 401.15608 
C 233.473874 401.15608 231.865054 401.822475 230.67903 403.008499 
C 229.493005 404.194523 228.82661 405.803343 228.82661 407.480635 
C 228.82661 409.157927 229.493005 410.766747 230.67903 411.952771 
C 231.865054 413.138795 233.473874 413.80519 235.151166 413.80519 
z
" style="fill:#00008b;fill-opacity:0.9;"/>
    <path clip-path="url(#pdbb2efb673)" d="M 246.811308 418.208536 
C 248.4886 418.208536 250.09742 417.542141 251.283444 416.356117 
C 252.469469 415.170092 253.135864 413.561272 253.135864 411.883981 
C 253.135864 410.206689 252.469469 408.597869 251.283444 407.411845 
C 250.09742 406.22582 248.4886 405.559425 246.811308 405.559425 
C 245.134017 405.559425 243.525197 406.22582 242.339172 407.411845 
C 241.153148 408.597869 240.486753 410.206689 240.486753 411.883981 
C 240.486753 413.561272 241.153148 415.170092 242.339172 416.356117 
C 243.525197 417.542141 245.134017 418.208536 246.811308 418.208536 
z
" style="fill:#00008b;fill-opacity:0.9;"/>
    <path clip-path="url(#pdbb2efb673)" d="M 236.260987 424.857588 
C 237.938278 424.857588 239.547098 424.191193 240.733123 423.005169 
C 241.919147 421.819144 242.585542 420.210324 242.585542 418.533033 
C 242.585542 416.855741 241.919147 415.246921 240.733123 414.060897 
C 239.547098 412.874872 237.938278 412.208477 236.260987 412.208477 
C 234.583695 412.208477 232.974875 412.874872 231.788851 414.060897 
C 230.602827 415.246921 229.936432 416.855741 229.936432 418.533033 
C 229.936432 420.210324 230.602827 421.819144 231.788851 423.005169 
C 232.974875 424.191193 234.583695 424.857588 236.260987 424.857588 
z
" style="fill:#00008b;fill-opacity:0.9;"/>
    <path clip-path="url(#pdbb2efb673)" d="M 397.690743 368.010396 
C 399.368035 368.010396 400.976855 367.344001 402.162879 366.157976 
C 403.348903 364.971952 404.015298 363.363132 404.015298 361.68584 
C 404.015298 360.008549 403.348903 358.399729 402.162879 357.213704 
C 400.976855 356.02768 399.368035 355.361285 397.690743 355.361285 
C 396.013451 355.361285 394.404631 356.02768 393.218607 357.213704 
C 392.032583 358.399729 391.366188 360.008549 391.366188 361.68584 
C 391.366188 363.363132 392.032583 364.971952 393.218607 366.157976 
C 394.404631 367.344001 396.013451 368.010396 397.690743 368.010396 
z
" style="fill:#00008b;fill-opacity:0.9;"/>
    <path clip-path="url(#pdbb2efb673)" d="M 293.732846 423.052216 
C 295.410137 423.052216 297.018957 422.385821 298.204982 421.199797 
C 299.391006 420.013773 300.057401 418.404953 300.057401 416.727661 
C 300.057401 415.050369 299.391006 413.441549 298.204982 412.255525 
C 297.018957 411.069501 295.410137 410.403106 293.732846 410.403106 
C 292.055554 410.403106 290.446734 411.069501 289.26071 412.255525 
C 288.074685 413.441549 287.40829 415.050369 287.40829 416.727661 
C 287.40829 418.404953 288.074685 420.013773 289.26071 421.199797 
C 290.446734 422.385821 292.055554 423.052216 293.732846 423.052216 
z
" style="fill:#00008b;fill-opacity:0.9;"/>
    <path clip-path="url(#pdbb2efb673)" d="M 291.625591 430.053536 
C 293.302883 430.053536 294.911703 429.387141 296.097727 428.201116 
C 297.283751 427.015092 297.950146 425.406272 297.950146 423.72898 
C 297.950146 422.051689 297.283751 420.442869 296.097727 419.256845 
C 294.911703 418.07082 293.302883 417.404425 291.625591 417.404425 
C 289.948299 417.404425 288.339479 418.07082 287.153455 419.256845 
C 285.967431 420.442869 285.301036 422.051689 285.301036 423.72898 
C 285.301036 425.406272 285.967431 427.015092 287.153455 428.201116 
C 288.339479 429.387141 289.948299 430.053536 291.625591 430.053536 
z
" style="fill:#00008b;fill-opacity:0.9;"/>
    <path clip-path="url(#pdbb2efb673)" d="M 422.415865 402.796826 
C 424.093156 402.796826 425.701976 402.130431 426.888001 400.944407 
C 428.074025 399.758383 428.74042 398.149563 428.74042 396.472271 
C 428.74042 394.794979 428.074025 393.186159 426.888001 392.000135 
C 425.701976 390.814111 424.093156 390.147716 422.415865 390.147716 
C 420.738573 390.147716 419.129753 390.814111 417.943729 392.000135 
C 416.757704 393.186159 416.091309 394.794979 416.091309 396.472271 
C 416.091309 398.149563 416.757704 399.758383 417.943729 400.944407 
C 419.129753 402.130431 420.738573 402.796826 422.415865 402.796826 
z
" style="fill:#00008b;fill-opacity:0.9;"/>
    <path clip-path="url(#pdbb2efb673)" d="M 448.545823 406.759837 
C 450.223114 406.759837 451.831934 406.093442 453.017959 404.907418 
C 454.203983 403.721394 454.870378 402.112574 454.870378 400.435282 
C 454.870378 398.75799 454.203983 397.14917 453.017959 395.963146 
C 451.831934 394.777122 450.223114 394.110727 448.545823 394.110727 
C 446.868531 394.110727 445.259711 394.777122 444.073687 395.963146 
C 442.887662 397.14917 442.221267 398.75799 442.221267 400.435282 
C 442.221267 402.112574 442.887662 403.721394 444.073687 404.907418 
C 445.259711 406.093442 446.868531 406.759837 448.545823 406.759837 
z
" style="fill:#00008b;fill-opacity:0.9;"/>
    <path clip-path="url(#pdbb2efb673)" d="M 310.492545 436.570487 
C 312.169836 436.570487 313.778656 435.904092 314.964681 434.718068 
C 316.150705 433.532044 316.8171 431.923224 316.8171 430.245932 
C 316.8171 428.56864 316.150705 426.95982 314.964681 425.773796 
C 313.778656 424.587772 312.169836 423.921377 310.492545 423.921377 
C 308.815253 423.921377 307.206433 424.587772 306.020409 425.773796 
C 304.834384 426.95982 304.167989 428.56864 304.167989 430.245932 
C 304.167989 431.923224 304.834384 433.532044 306.020409 434.718068 
C 307.206433 435.904092 308.815253 436.570487 310.492545 436.570487 
z
" style="fill:#00008b;fill-opacity:0.9;"/>
    <path clip-path="url(#pdbb2efb673)" d="M 140.548084 453.655468 
L 143.710362 450.493191 
L 146.872639 453.655468 
L 150.034917 450.493191 
L 146.872639 447.330913 
L 150.034917 444.168635 
L 146.872639 441.006358 
L 143.710362 444.168635 
L 140.548084 441.006358 
L 137.385806 444.168635 
L 140.548084 447.330913 
L 137.385806 450.493191 
z
" style="fill:#00008b;fill-opacity:0.9;"/>
    <path clip-path="url(#pdbb2efb673)" d="M 235.26684 439.197817 
L 238.429118 436.035539 
L 241.591395 439.197817 
L 244.753673 436.035539 
L 241.591395 432.873262 
L 244.753673 429.710984 
L 241.591395 426.548706 
L 238.429118 429.710984 
L 235.26684 426.548706 
L 232.104562 429.710984 
L 235.26684 432.873262 
L 232.104562 436.035539 
z
" style="fill:#00008b;fill-opacity:0.9;"/>
    <path clip-path="url(#pdbb2efb673)" d="M 405.300201 406.531176 
L 405.300201 415.475448 
L 414.244473 415.475448 
L 414.244473 406.531176 
z
" style="fill:#00008b;fill-opacity:0.9;"/>
    <path clip-path="url(#pdbb2efb673)" d="M 193.286109 366.689392 
L 197.502479 366.689392 
L 197.502479 362.473022 
L 201.71885 362.473022 
L 201.71885 358.256652 
L 197.502479 358.256652 
L 197.502479 354.040281 
L 193.286109 354.040281 
L 193.286109 358.256652 
L 189.069739 358.256652 
L 189.069739 362.473022 
L 193.286109 362.473022 
z
" style="fill:#00008b;fill-opacity:0.9;"/>
    <path clip-path="url(#pdbb2efb673)" d="M 230.936656 328.500877 
L 224.612101 334.825432 
L 230.936656 341.149987 
L 237.261212 334.825432 
z
" style="fill:#00008b;fill-opacity:0.9;"/>
    <path clip-path="url(#pdbb2efb673)" d="M 231.217624 287.990097 
L 224.893069 294.314652 
L 231.217624 300.639207 
L 237.542179 294.314652 
z
" style="fill:#00008b;fill-opacity:0.9;"/>
    <path clip-path="url(#pdbb2efb673)" d="M 142.849899 437.307547 
L 140.613831 441.396035 
L 136.525344 443.632103 
L 140.613831 445.868171 
L 142.849899 449.956658 
L 145.085967 445.868171 
L 149.174454 443.632103 
L 145.085967 441.396035 
z
" style="fill:#00008b;fill-opacity:0.9;"/>
    <path clip-path="url(#pdbb2efb673)" d="M 143.269594 436.558979 
L 141.033526 440.647466 
L 136.945039 442.883534 
L 141.033526 445.119602 
L 143.269594 449.208089 
L 145.505662 445.119602 
L 149.594149 442.883534 
L 145.505662 440.647466 
z
" style="fill:#00008b;fill-opacity:0.9;"/>
    <path clip-path="url(#pdbb2efb673)" d="M 143.209889 438.034099 
L 140.973821 442.122587 
L 136.885333 444.358655 
L 140.973821 446.594723 
L 143.209889 450.68321 
L 145.445957 446.594723 
L 149.534444 444.358655 
L 145.445957 442.122587 
z
" style="fill:#00008b;fill-opacity:0.9;"/>
    <path clip-path="url(#pdbb2efb673)" d="M 451.215012 261.570023 
L 444.890456 274.219134 
L 457.539567 274.219134 
z
" style="fill:#00008b;fill-opacity:0.9;"/>
    <path clip-path="url(#pdbb2efb673)" d="M 184.92268 390.316503 
L 186.232539 394.788639 
L 184.92268 399.260775 
L 189.394816 397.950916 
L 193.866952 399.260775 
L 192.557094 394.788639 
L 193.866952 390.316503 
L 189.394816 391.626361 
z
" style="fill:#00008b;fill-opacity:0.9;"/>
    <path clip-path="url(#pdbb2efb673)" d="M 198.260161 325.738278 
L 204.584716 313.089167 
L 191.935605 313.089167 
z
" style="fill:#00008b;fill-opacity:0.9;"/>
   </g>
   <g id="PathCollection_20">
    <path clip-path="url(#pdbb2efb673)" d="M 235.151166 380.780098 
C 236.828457 380.780098 238.437277 380.113703 239.623302 378.927679 
C 240.809326 377.741654 241.475721 376.132834 241.475721 374.455543 
C 241.475721 372.778251 240.809326 371.169431 239.623302 369.983407 
C 238.437277 368.797382 236.828457 368.130987 235.151166 368.130987 
C 233.473874 368.130987 231.865054 368.797382 230.67903 369.983407 
C 229.493005 371.169431 228.82661 372.778251 228.82661 374.455543 
C 228.82661 376.132834 229.493005 377.741654 230.67903 378.927679 
C 231.865054 380.113703 233.473874 380.780098 235.151166 380.780098 
z
" style="fill:#dc143c;fill-opacity:0.9;"/>
    <path clip-path="url(#pdbb2efb673)" d="M 246.811308 367.129727 
C 248.4886 367.129727 250.09742 366.463332 251.283444 365.277307 
C 252.469469 364.091283 253.135864 362.482463 253.135864 360.805171 
C 253.135864 359.12788 252.469469 357.51906 251.283444 356.333035 
C 250.09742 355.147011 248.4886 354.480616 246.811308 354.480616 
C 245.134017 354.480616 243.525197 355.147011 242.339172 356.333035 
C 241.153148 357.51906 240.486753 359.12788 240.486753 360.805171 
C 240.486753 362.482463 241.153148 364.091283 242.339172 365.277307 
C 243.525197 366.463332 245.134017 367.129727 246.811308 367.129727 
z
" style="fill:#dc143c;fill-opacity:0.9;"/>
    <path clip-path="url(#pdbb2efb673)" d="M 236.260987 375.936418 
C 237.938278 375.936418 239.547098 375.270023 240.733123 374.083999 
C 241.919147 372.897974 242.585542 371.289154 242.585542 369.611863 
C 242.585542 367.934571 241.919147 366.325751 240.733123 365.139727 
C 239.547098 363.953702 237.938278 363.287307 236.260987 363.287307 
C 234.583695 363.287307 232.974875 363.953702 231.788851 365.139727 
C 230.602827 366.325751 229.936432 367.934571 229.936432 369.611863 
C 229.936432 371.289154 230.602827 372.897974 231.788851 374.083999 
C 232.974875 375.270023 234.583695 375.936418 236.260987 375.936418 
z
" style="fill:#dc143c;fill-opacity:0.9;"/>
    <path clip-path="url(#pdbb2efb673)" d="M 397.690743 226.222666 
C 399.368035 226.222666 400.976855 225.556271 402.162879 224.370247 
C 403.348903 223.184222 404.015298 221.575402 404.015298 219.898111 
C 404.015298 218.220819 403.348903 216.611999 402.162879 215.425975 
C 400.976855 214.23995 399.368035 213.573555 397.690743 213.573555 
C 396.013451 213.573555 394.404631 214.23995 393.218607 215.425975 
C 392.032583 216.611999 391.366188 218.220819 391.366188 219.898111 
C 391.366188 221.575402 392.032583 223.184222 393.218607 224.370247 
C 394.404631 225.556271 396.013451 226.222666 397.690743 226.222666 
z
" style="fill:#dc143c;fill-opacity:0.9;"/>
    <path clip-path="url(#pdbb2efb673)" d="M 293.732846 316.491252 
C 295.410137 316.491252 297.018957 315.824857 298.204982 314.638832 
C 299.391006 313.452808 300.057401 311.843988 300.057401 310.166696 
C 300.057401 308.489405 299.391006 306.880585 298.204982 305.69456 
C 297.018957 304.508536 295.410137 303.842141 293.732846 303.842141 
C 292.055554 303.842141 290.446734 304.508536 289.26071 305.69456 
C 288.074685 306.880585 287.40829 308.489405 287.40829 310.166696 
C 287.40829 311.843988 288.074685 313.452808 289.26071 314.638832 
C 290.446734 315.824857 292.055554 316.491252 293.732846 316.491252 
z
" style="fill:#dc143c;fill-opacity:0.9;"/>
    <path clip-path="url(#pdbb2efb673)" d="M 291.625591 316.359151 
C 293.302883 316.359151 294.911703 315.692756 296.097727 314.506732 
C 297.283751 313.320708 297.950146 311.711888 297.950146 310.034596 
C 297.950146 308.357304 297.283751 306.748484 296.097727 305.56246 
C 294.911703 304.376436 293.302883 303.710041 291.625591 303.710041 
C 289.948299 303.710041 288.339479 304.376436 287.153455 305.56246 
C 285.967431 306.748484 285.301036 308.357304 285.301036 310.034596 
C 285.301036 311.711888 285.967431 313.320708 287.153455 314.506732 
C 288.339479 315.692756 289.948299 316.359151 291.625591 316.359151 
z
" style="fill:#dc143c;fill-opacity:0.9;"/>
    <path clip-path="url(#pdbb2efb673)" d="M 422.415865 188.794228 
C 424.093156 188.794228 425.701976 188.127833 426.888001 186.941809 
C 428.074025 185.755784 428.74042 184.146964 428.74042 182.469673 
C 428.74042 180.792381 428.074025 179.183561 426.888001 177.997537 
C 425.701976 176.811513 424.093156 176.145117 422.415865 176.145117 
C 420.738573 176.145117 419.129753 176.811513 417.943729 177.997537 
C 416.757704 179.183561 416.091309 180.792381 416.091309 182.469673 
C 416.091309 184.146964 416.757704 185.755784 417.943729 186.941809 
C 419.129753 188.127833 420.738573 188.794228 422.415865 188.794228 
z
" style="fill:#dc143c;fill-opacity:0.9;"/>
    <path clip-path="url(#pdbb2efb673)" d="M 448.545823 160.172481 
C 450.223114 160.172481 451.831934 159.506086 453.017959 158.320062 
C 454.203983 157.134038 454.870378 155.525218 454.870378 153.847926 
C 454.870378 152.170634 454.203983 150.561814 453.017959 149.37579 
C 451.831934 148.189766 450.223114 147.523371 448.545823 147.523371 
C 446.868531 147.523371 445.259711 148.189766 444.073687 149.37579 
C 442.887662 150.561814 442.221267 152.170634 442.221267 153.847926 
C 442.221267 155.525218 442.887662 157.134038 444.073687 158.320062 
C 445.259711 159.506086 446.868531 160.172481 448.545823 160.172481 
z
" style="fill:#dc143c;fill-opacity:0.9;"/>
    <path clip-path="url(#pdbb2efb673)" d="M 310.492545 294.474524 
C 312.169836 294.474524 313.778656 293.808128 314.964681 292.622104 
C 316.150705 291.43608 316.8171 289.82726 316.8171 288.149968 
C 316.8171 286.472677 316.150705 284.863857 314.964681 283.677832 
C 313.778656 282.491808 312.169836 281.825413 310.492545 281.825413 
C 308.815253 281.825413 307.206433 282.491808 306.020409 283.677832 
C 304.834384 284.863857 304.167989 286.472677 304.167989 288.149968 
C 304.167989 289.82726 304.834384 291.43608 306.020409 292.622104 
C 307.206433 293.808128 308.815253 294.474524 310.492545 294.474524 
z
" style="fill:#dc143c;fill-opacity:0.9;"/>
    <path clip-path="url(#pdbb2efb673)" d="M 140.548084 463.034595 
L 143.710362 459.872317 
L 146.872639 463.034595 
L 150.034917 459.872317 
L 146.872639 456.710039 
L 150.034917 453.547762 
L 146.872639 450.385484 
L 143.710362 453.547762 
L 140.548084 450.385484 
L 137.385806 453.547762 
L 140.548084 456.710039 
L 137.385806 459.872317 
z
" style="fill:#dc143c;fill-opacity:0.9;"/>
    <path clip-path="url(#pdbb2efb673)" d="M 235.26684 368.891065 
L 238.429118 365.728787 
L 241.591395 368.891065 
L 244.753673 365.728787 
L 241.591395 362.56651 
L 244.753673 359.404232 
L 241.591395 356.241954 
L 238.429118 359.404232 
L 235.26684 356.241954 
L 232.104562 359.404232 
L 235.26684 362.56651 
L 232.104562 365.728787 
z
" style="fill:#dc143c;fill-opacity:0.9;"/>
    <path clip-path="url(#pdbb2efb673)" d="M 405.300201 186.363894 
L 405.300201 195.308165 
L 414.244473 195.308165 
L 414.244473 186.363894 
z
" style="fill:#dc143c;fill-opacity:0.9;"/>
    <path clip-path="url(#pdbb2efb673)" d="M 193.286109 438.023591 
L 197.502479 438.023591 
L 197.502479 433.807221 
L 201.71885 433.807221 
L 201.71885 429.590851 
L 197.502479 429.590851 
L 197.502479 425.374481 
L 193.286109 425.374481 
L 193.286109 429.590851 
L 189.069739 429.590851 
L 189.069739 433.807221 
L 193.286109 433.807221 
z
" style="fill:#dc143c;fill-opacity:0.9;"/>
    <path clip-path="url(#pdbb2efb673)" d="M 230.936656 396.752734 
L 224.612101 403.077289 
L 230.936656 409.401845 
L 237.261212 403.077289 
z
" style="fill:#dc143c;fill-opacity:0.9;"/>
    <path clip-path="url(#pdbb2efb673)" d="M 231.217624 409.962771 
L 224.893069 416.287326 
L 231.217624 422.611882 
L 237.542179 416.287326 
z
" style="fill:#dc143c;fill-opacity:0.9;"/>
    <path clip-path="url(#pdbb2efb673)" d="M 142.849899 452.517437 
L 140.613831 456.605924 
L 136.525344 458.841992 
L 140.613831 461.07806 
L 142.849899 465.166548 
L 145.085967 461.07806 
L 149.174454 458.841992 
L 145.085967 456.605924 
z
" style="fill:#dc143c;fill-opacity:0.9;"/>
    <path clip-path="url(#pdbb2efb673)" d="M 143.269594 452.32846 
L 141.033526 456.416948 
L 136.945039 458.653016 
L 141.033526 460.889084 
L 143.269594 464.977571 
L 145.505662 460.889084 
L 149.594149 458.653016 
L 145.505662 456.416948 
z
" style="fill:#dc143c;fill-opacity:0.9;"/>
    <path clip-path="url(#pdbb2efb673)" d="M 143.209889 451.899134 
L 140.973821 455.987621 
L 136.885333 458.223689 
L 140.973821 460.459757 
L 143.209889 464.548245 
L 145.445957 460.459757 
L 149.534444 458.223689 
L 145.445957 455.987621 
z
" style="fill:#dc143c;fill-opacity:0.9;"/>
    <path clip-path="url(#pdbb2efb673)" d="M 451.215012 188.91482 
L 444.890456 201.56393 
L 457.539567 201.56393 
z
" style="fill:#dc143c;fill-opacity:0.9;"/>
    <path clip-path="url(#pdbb2efb673)" d="M 184.92268 422.020591 
L 186.232539 426.492727 
L 184.92268 430.964863 
L 189.394816 429.655005 
L 193.866952 430.964863 
L 192.557094 426.492727 
L 193.866952 422.020591 
L 189.394816 423.33045 
z
" style="fill:#dc143c;fill-opacity:0.9;"/>
    <path clip-path="url(#pdbb2efb673)" d="M 198.260161 448.679688 
L 204.584716 436.030577 
L 191.935605 436.030577 
z
" style="fill:#dc143c;fill-opacity:0.9;"/>
   </g>
   <g id="legend_1">
    <g id="patch_7">
     <path d="M 116.1325 99.495 
L 424.909375 99.495 
Q 427.309375 99.495 427.309375 97.095 
L 427.309375 27.84 
Q 427.309375 25.44 424.909375 25.44 
L 116.1325 25.44 
Q 113.7325 25.44 113.7325 27.84 
L 113.7325 97.095 
Q 113.7325 99.495 116.1325 99.495 
z
" style="fill:#ffffff;opacity:0.8;stroke:#cccccc;stroke-linejoin:miter;stroke-width:1.5;"/>
    </g>
    <g id="line2d_3">
     <path d="M 118.5325 35.158125 
L 142.5325 35.158125 
" style="fill:none;stroke:#dc143c;stroke-linecap:square;stroke-width:4;"/>
    </g>
    <g id="line2d_4"/>
    <g id="text_17">
     <!-- Model Lactate Production -->
     <g transform="translate(152.1325 39.358125)scale(0.12 -0.12)">
      <defs>
       <path d="M 9.8125 72.90625 
L 24.515625 72.90625 
L 43.109375 23.296875 
L 61.8125 72.90625 
L 76.515625 72.90625 
L 76.515625 0 
L 66.890625 0 
L 66.890625 64.015625 
L 48.09375 14.015625 
L 38.1875 14.015625 
L 19.390625 64.015625 
L 19.390625 0 
L 9.8125 0 
z
" id="DejaVuSans-77"/>
       <path d="M 9.8125 72.90625 
L 19.671875 72.90625 
L 19.671875 8.296875 
L 55.171875 8.296875 
L 55.171875 0 
L 9.8125 0 
z
" id="DejaVuSans-76"/>
      </defs>
      <use xlink:href="#DejaVuSans-77"/>
      <use x="86.279297" xlink:href="#DejaVuSans-111"/>
      <use x="147.460938" xlink:href="#DejaVuSans-100"/>
      <use x="210.9375" xlink:href="#DejaVuSans-101"/>
      <use x="272.460938" xlink:href="#DejaVuSans-108"/>
      <use x="300.244141" xlink:href="#DejaVuSans-32"/>
      <use x="332.03125" xlink:href="#DejaVuSans-76"/>
      <use x="387.744141" xlink:href="#DejaVuSans-97"/>
      <use x="449.023438" xlink:href="#DejaVuSans-99"/>
      <use x="504.003906" xlink:href="#DejaVuSans-116"/>
      <use x="543.212891" xlink:href="#DejaVuSans-97"/>
      <use x="604.492188" xlink:href="#DejaVuSans-116"/>
      <use x="643.701172" xlink:href="#DejaVuSans-101"/>
      <use x="705.224609" xlink:href="#DejaVuSans-32"/>
      <use x="737.011719" xlink:href="#DejaVuSans-80"/>
      <use x="795.564453" xlink:href="#DejaVuSans-114"/>
      <use x="834.427734" xlink:href="#DejaVuSans-111"/>
      <use x="895.609375" xlink:href="#DejaVuSans-100"/>
      <use x="959.085938" xlink:href="#DejaVuSans-117"/>
      <use x="1022.464844" xlink:href="#DejaVuSans-99"/>
      <use x="1077.445312" xlink:href="#DejaVuSans-116"/>
      <use x="1116.654297" xlink:href="#DejaVuSans-105"/>
      <use x="1144.4375" xlink:href="#DejaVuSans-111"/>
      <use x="1205.619141" xlink:href="#DejaVuSans-110"/>
     </g>
    </g>
    <g id="line2d_5">
     <path d="M 118.5325 52.771875 
L 142.5325 52.771875 
" style="fill:none;stroke:#00008b;stroke-linecap:square;stroke-width:4;"/>
    </g>
    <g id="line2d_6"/>
    <g id="text_18">
     <!-- Model Oxygen Consumption -->
     <g transform="translate(152.1325 56.971875)scale(0.12 -0.12)">
      <defs>
       <path d="M 39.40625 66.21875 
Q 28.65625 66.21875 22.328125 58.203125 
Q 16.015625 50.203125 16.015625 36.375 
Q 16.015625 22.609375 22.328125 14.59375 
Q 28.65625 6.59375 39.40625 6.59375 
Q 50.140625 6.59375 56.421875 14.59375 
Q 62.703125 22.609375 62.703125 36.375 
Q 62.703125 50.203125 56.421875 58.203125 
Q 50.140625 66.21875 39.40625 66.21875 
z
M 39.40625 74.21875 
Q 54.734375 74.21875 63.90625 63.9375 
Q 73.09375 53.65625 73.09375 36.375 
Q 73.09375 19.140625 63.90625 8.859375 
Q 54.734375 -1.421875 39.40625 -1.421875 
Q 24.03125 -1.421875 14.8125 8.828125 
Q 5.609375 19.09375 5.609375 36.375 
Q 5.609375 53.65625 14.8125 63.9375 
Q 24.03125 74.21875 39.40625 74.21875 
z
" id="DejaVuSans-79"/>
       <path d="M 54.890625 54.6875 
L 35.109375 28.078125 
L 55.90625 0 
L 45.3125 0 
L 29.390625 21.484375 
L 13.484375 0 
L 2.875 0 
L 24.125 28.609375 
L 4.6875 54.6875 
L 15.28125 54.6875 
L 29.78125 35.203125 
L 44.28125 54.6875 
z
" id="DejaVuSans-120"/>
       <path d="M 32.171875 -5.078125 
Q 28.375 -14.84375 24.75 -17.8125 
Q 21.140625 -20.796875 15.09375 -20.796875 
L 7.90625 -20.796875 
L 7.90625 -13.28125 
L 13.1875 -13.28125 
Q 16.890625 -13.28125 18.9375 -11.515625 
Q 21 -9.765625 23.484375 -3.21875 
L 25.09375 0.875 
L 2.984375 54.6875 
L 12.5 54.6875 
L 29.59375 11.921875 
L 46.6875 54.6875 
L 56.203125 54.6875 
z
" id="DejaVuSans-121"/>
       <path d="M 45.40625 27.984375 
Q 45.40625 37.75 41.375 43.109375 
Q 37.359375 48.484375 30.078125 48.484375 
Q 22.859375 48.484375 18.828125 43.109375 
Q 14.796875 37.75 14.796875 27.984375 
Q 14.796875 18.265625 18.828125 12.890625 
Q 22.859375 7.515625 30.078125 7.515625 
Q 37.359375 7.515625 41.375 12.890625 
Q 45.40625 18.265625 45.40625 27.984375 
z
M 54.390625 6.78125 
Q 54.390625 -7.171875 48.1875 -13.984375 
Q 42 -20.796875 29.203125 -20.796875 
Q 24.46875 -20.796875 20.265625 -20.09375 
Q 16.0625 -19.390625 12.109375 -17.921875 
L 12.109375 -9.1875 
Q 16.0625 -11.328125 19.921875 -12.34375 
Q 23.78125 -13.375 27.78125 -13.375 
Q 36.625 -13.375 41.015625 -8.765625 
Q 45.40625 -4.15625 45.40625 5.171875 
L 45.40625 9.625 
Q 42.625 4.78125 38.28125 2.390625 
Q 33.9375 0 27.875 0 
Q 17.828125 0 11.671875 7.65625 
Q 5.515625 15.328125 5.515625 27.984375 
Q 5.515625 40.671875 11.671875 48.328125 
Q 17.828125 56 27.875 56 
Q 33.9375 56 38.28125 53.609375 
Q 42.625 51.21875 45.40625 46.390625 
L 45.40625 54.6875 
L 54.390625 54.6875 
z
" id="DejaVuSans-103"/>
      </defs>
      <use xlink:href="#DejaVuSans-77"/>
      <use x="86.279297" xlink:href="#DejaVuSans-111"/>
      <use x="147.460938" xlink:href="#DejaVuSans-100"/>
      <use x="210.9375" xlink:href="#DejaVuSans-101"/>
      <use x="272.460938" xlink:href="#DejaVuSans-108"/>
      <use x="300.244141" xlink:href="#DejaVuSans-32"/>
      <use x="332.03125" xlink:href="#DejaVuSans-79"/>
      <use x="410.742188" xlink:href="#DejaVuSans-120"/>
      <use x="469.921875" xlink:href="#DejaVuSans-121"/>
      <use x="529.101562" xlink:href="#DejaVuSans-103"/>
      <use x="592.578125" xlink:href="#DejaVuSans-101"/>
      <use x="654.101562" xlink:href="#DejaVuSans-110"/>
      <use x="717.480469" xlink:href="#DejaVuSans-32"/>
      <use x="749.267578" xlink:href="#DejaVuSans-67"/>
      <use x="819.091797" xlink:href="#DejaVuSans-111"/>
      <use x="880.273438" xlink:href="#DejaVuSans-110"/>
      <use x="943.652344" xlink:href="#DejaVuSans-115"/>
      <use x="995.751953" xlink:href="#DejaVuSans-117"/>
      <use x="1059.130859" xlink:href="#DejaVuSans-109"/>
      <use x="1156.542969" xlink:href="#DejaVuSans-112"/>
      <use x="1220.019531" xlink:href="#DejaVuSans-116"/>
      <use x="1259.228516" xlink:href="#DejaVuSans-105"/>
      <use x="1287.011719" xlink:href="#DejaVuSans-111"/>
      <use x="1348.193359" xlink:href="#DejaVuSans-110"/>
     </g>
    </g>
    <g id="line2d_7"/>
    <g id="line2d_8">
     <defs>
      <path d="M 0 4.5 
C 1.193414 4.5 2.338109 4.025852 3.181981 3.181981 
C 4.025852 2.338109 4.5 1.193414 4.5 0 
C 4.5 -1.193414 4.025852 -2.338109 3.181981 -3.181981 
C 2.338109 -4.025852 1.193414 -4.5 0 -4.5 
C -1.193414 -4.5 -2.338109 -4.025852 -3.181981 -3.181981 
C -4.025852 -2.338109 -4.5 -1.193414 -4.5 0 
C -4.5 1.193414 -4.025852 2.338109 -3.181981 3.181981 
C -2.338109 4.025852 -1.193414 4.5 0 4.5 
z
" id="mbf08ac2c8b" style="stroke:#dc143c;"/>
     </defs>
     <g>
      <use style="fill:#dc143c;stroke:#dc143c;" x="130.5325" xlink:href="#mbf08ac2c8b" y="70.385625"/>
     </g>
    </g>
    <g id="text_19">
     <!-- Lactate Production (mmol gprotein-1 hr-1) -->
     <g transform="translate(152.1325 74.585625)scale(0.12 -0.12)">
      <defs>
       <path d="M 31 75.875 
Q 24.46875 64.65625 21.28125 53.65625 
Q 18.109375 42.671875 18.109375 31.390625 
Q 18.109375 20.125 21.3125 9.0625 
Q 24.515625 -2 31 -13.1875 
L 23.1875 -13.1875 
Q 15.875 -1.703125 12.234375 9.375 
Q 8.59375 20.453125 8.59375 31.390625 
Q 8.59375 42.28125 12.203125 53.3125 
Q 15.828125 64.359375 23.1875 75.875 
z
" id="DejaVuSans-40"/>
       <path d="M 4.890625 31.390625 
L 31.203125 31.390625 
L 31.203125 23.390625 
L 4.890625 23.390625 
z
" id="DejaVuSans-45"/>
       <path d="M 54.890625 33.015625 
L 54.890625 0 
L 45.90625 0 
L 45.90625 32.71875 
Q 45.90625 40.484375 42.875 44.328125 
Q 39.84375 48.1875 33.796875 48.1875 
Q 26.515625 48.1875 22.3125 43.546875 
Q 18.109375 38.921875 18.109375 30.90625 
L 18.109375 0 
L 9.078125 0 
L 9.078125 75.984375 
L 18.109375 75.984375 
L 18.109375 46.1875 
Q 21.34375 51.125 25.703125 53.5625 
Q 30.078125 56 35.796875 56 
Q 45.21875 56 50.046875 50.171875 
Q 54.890625 44.34375 54.890625 33.015625 
z
" id="DejaVuSans-104"/>
       <path d="M 8.015625 75.875 
L 15.828125 75.875 
Q 23.140625 64.359375 26.78125 53.3125 
Q 30.421875 42.28125 30.421875 31.390625 
Q 30.421875 20.453125 26.78125 9.375 
Q 23.140625 -1.703125 15.828125 -13.1875 
L 8.015625 -13.1875 
Q 14.5 -2 17.703125 9.0625 
Q 20.90625 20.125 20.90625 31.390625 
Q 20.90625 42.671875 17.703125 53.65625 
Q 14.5 64.65625 8.015625 75.875 
z
" id="DejaVuSans-41"/>
      </defs>
      <use xlink:href="#DejaVuSans-76"/>
      <use x="55.712891" xlink:href="#DejaVuSans-97"/>
      <use x="116.992188" xlink:href="#DejaVuSans-99"/>
      <use x="171.972656" xlink:href="#DejaVuSans-116"/>
      <use x="211.181641" xlink:href="#DejaVuSans-97"/>
      <use x="272.460938" xlink:href="#DejaVuSans-116"/>
      <use x="311.669922" xlink:href="#DejaVuSans-101"/>
      <use x="373.193359" xlink:href="#DejaVuSans-32"/>
      <use x="404.980469" xlink:href="#DejaVuSans-80"/>
      <use x="463.533203" xlink:href="#DejaVuSans-114"/>
      <use x="502.396484" xlink:href="#DejaVuSans-111"/>
      <use x="563.578125" xlink:href="#DejaVuSans-100"/>
      <use x="627.054688" xlink:href="#DejaVuSans-117"/>
      <use x="690.433594" xlink:href="#DejaVuSans-99"/>
      <use x="745.414062" xlink:href="#DejaVuSans-116"/>
      <use x="784.623047" xlink:href="#DejaVuSans-105"/>
      <use x="812.40625" xlink:href="#DejaVuSans-111"/>
      <use x="873.587891" xlink:href="#DejaVuSans-110"/>
      <use x="936.966797" xlink:href="#DejaVuSans-32"/>
      <use x="968.753906" xlink:href="#DejaVuSans-40"/>
      <use x="1007.767578" xlink:href="#DejaVuSans-109"/>
      <use x="1105.179688" xlink:href="#DejaVuSans-109"/>
      <use x="1202.591797" xlink:href="#DejaVuSans-111"/>
      <use x="1263.773438" xlink:href="#DejaVuSans-108"/>
      <use x="1291.556641" xlink:href="#DejaVuSans-32"/>
      <use x="1323.34375" xlink:href="#DejaVuSans-103"/>
      <use x="1386.820312" xlink:href="#DejaVuSans-112"/>
      <use x="1450.296875" xlink:href="#DejaVuSans-114"/>
      <use x="1489.160156" xlink:href="#DejaVuSans-111"/>
      <use x="1550.341797" xlink:href="#DejaVuSans-116"/>
      <use x="1589.550781" xlink:href="#DejaVuSans-101"/>
      <use x="1651.074219" xlink:href="#DejaVuSans-105"/>
      <use x="1678.857422" xlink:href="#DejaVuSans-110"/>
      <use x="1742.236328" xlink:href="#DejaVuSans-45"/>
      <use x="1778.320312" xlink:href="#DejaVuSans-49"/>
      <use x="1841.943359" xlink:href="#DejaVuSans-32"/>
      <use x="1873.730469" xlink:href="#DejaVuSans-104"/>
      <use x="1937.109375" xlink:href="#DejaVuSans-114"/>
      <use x="1971.847656" xlink:href="#DejaVuSans-45"/>
      <use x="2007.931641" xlink:href="#DejaVuSans-49"/>
      <use x="2071.554688" xlink:href="#DejaVuSans-41"/>
     </g>
    </g>
    <g id="line2d_9"/>
    <g id="line2d_10">
     <defs>
      <path d="M 0 4.5 
C 1.193414 4.5 2.338109 4.025852 3.181981 3.181981 
C 4.025852 2.338109 4.5 1.193414 4.5 0 
C 4.5 -1.193414 4.025852 -2.338109 3.181981 -3.181981 
C 2.338109 -4.025852 1.193414 -4.5 0 -4.5 
C -1.193414 -4.5 -2.338109 -4.025852 -3.181981 -3.181981 
C -4.025852 -2.338109 -4.5 -1.193414 -4.5 0 
C -4.5 1.193414 -4.025852 2.338109 -3.181981 3.181981 
C -2.338109 4.025852 -1.193414 4.5 0 4.5 
z
" id="m7a3148fe80" style="stroke:#00008b;"/>
     </defs>
     <g>
      <use style="fill:#00008b;stroke:#00008b;" x="130.5325" xlink:href="#m7a3148fe80" y="87.999375"/>
     </g>
    </g>
    <g id="text_20">
     <!-- Oxygen Consumption (mmol gprotein-1 hr-1) -->
     <g transform="translate(152.1325 92.199375)scale(0.12 -0.12)">
      <use xlink:href="#DejaVuSans-79"/>
      <use x="78.710938" xlink:href="#DejaVuSans-120"/>
      <use x="137.890625" xlink:href="#DejaVuSans-121"/>
      <use x="197.070312" xlink:href="#DejaVuSans-103"/>
      <use x="260.546875" xlink:href="#DejaVuSans-101"/>
      <use x="322.070312" xlink:href="#DejaVuSans-110"/>
      <use x="385.449219" xlink:href="#DejaVuSans-32"/>
      <use x="417.236328" xlink:href="#DejaVuSans-67"/>
      <use x="487.060547" xlink:href="#DejaVuSans-111"/>
      <use x="548.242188" xlink:href="#DejaVuSans-110"/>
      <use x="611.621094" xlink:href="#DejaVuSans-115"/>
      <use x="663.720703" xlink:href="#DejaVuSans-117"/>
      <use x="727.099609" xlink:href="#DejaVuSans-109"/>
      <use x="824.511719" xlink:href="#DejaVuSans-112"/>
      <use x="887.988281" xlink:href="#DejaVuSans-116"/>
      <use x="927.197266" xlink:href="#DejaVuSans-105"/>
      <use x="954.980469" xlink:href="#DejaVuSans-111"/>
      <use x="1016.162109" xlink:href="#DejaVuSans-110"/>
      <use x="1079.541016" xlink:href="#DejaVuSans-32"/>
      <use x="1111.328125" xlink:href="#DejaVuSans-40"/>
      <use x="1150.341797" xlink:href="#DejaVuSans-109"/>
      <use x="1247.753906" xlink:href="#DejaVuSans-109"/>
      <use x="1345.166016" xlink:href="#DejaVuSans-111"/>
      <use x="1406.347656" xlink:href="#DejaVuSans-108"/>
      <use x="1434.130859" xlink:href="#DejaVuSans-32"/>
      <use x="1465.917969" xlink:href="#DejaVuSans-103"/>
      <use x="1529.394531" xlink:href="#DejaVuSans-112"/>
      <use x="1592.871094" xlink:href="#DejaVuSans-114"/>
      <use x="1631.734375" xlink:href="#DejaVuSans-111"/>
      <use x="1692.916016" xlink:href="#DejaVuSans-116"/>
      <use x="1732.125" xlink:href="#DejaVuSans-101"/>
      <use x="1793.648438" xlink:href="#DejaVuSans-105"/>
      <use x="1821.431641" xlink:href="#DejaVuSans-110"/>
      <use x="1884.810547" xlink:href="#DejaVuSans-45"/>
      <use x="1920.894531" xlink:href="#DejaVuSans-49"/>
      <use x="1984.517578" xlink:href="#DejaVuSans-32"/>
      <use x="2016.304688" xlink:href="#DejaVuSans-104"/>
      <use x="2079.683594" xlink:href="#DejaVuSans-114"/>
      <use x="2114.421875" xlink:href="#DejaVuSans-45"/>
      <use x="2150.505859" xlink:href="#DejaVuSans-49"/>
      <use x="2214.128906" xlink:href="#DejaVuSans-41"/>
     </g>
    </g>
   </g>
  </g>
 </g>
 <defs>
  <clipPath id="pdbb2efb673">
   <rect height="460.9525" width="450.9525" x="107.7325" y="19.44"/>
  </clipPath>
 </defs>
</svg>
